<?xml version="1.0" standalone="no"?>
<!DOCTYPE svg PUBLIC "-//W3C//DTD SVG 20010904//EN"
 "http://www.w3.org/TR/2001/REC-SVG-20010904/DTD/svg10.dtd">
<svg version="1.0" xmlns="http://www.w3.org/2000/svg"
 width="1280.000000pt" height="1280.000000pt" viewBox="0 0 1280.000000 1280.000000"
 preserveAspectRatio="xMidYMid meet">
<metadata>
Created by potrace 1.15, written by Peter Selinger 2001-2017
</metadata>
<g transform="translate(0.000000,1280.000000) scale(0.100000,-0.100000)"
fill="#000000" stroke="none">
<path d="M7185 8304 c-173 -26 -318 -73 -445 -142 -113 -62 -261 -207 -308
-302 -43 -88 -62 -169 -62 -267 0 -129 23 -178 134 -289 89 -88 130 -118 440
-316 134 -85 271 -220 315 -309 67 -137 64 -282 -10 -428 -78 -156 -213 -283
-394 -371 -123 -60 -205 -80 -321 -80 -154 0 -276 47 -384 147 -228 210 -189
608 84 878 64 63 175 128 237 140 84 16 132 76 72 91 -57 15 -284 -46 -422
-112 -126 -61 -212 -146 -269 -265 -52 -108 -72 -207 -72 -356 0 -202 39 -302
165 -428 148 -148 334 -215 601 -215 371 0 783 226 992 545 97 147 141 310
128 470 -20 239 -161 412 -492 605 -243 141 -362 240 -407 337 -33 73 -31 200
5 269 60 113 220 221 385 258 153 34 290 6 340 -70 13 -20 10 -26 -33 -75 -59
-69 -77 -110 -69 -159 18 -107 124 -188 231 -177 66 7 132 43 171 94 39 50 44
152 13 235 -25 68 -101 156 -175 203 -93 60 -187 87 -310 90 -60 2 -123 1
-140 -1z"/>
</g>
</svg>
