<?xml version="1.0" standalone="no"?>
<!DOCTYPE svg PUBLIC "-//W3C//DTD SVG 20010904//EN"
 "http://www.w3.org/TR/2001/REC-SVG-20010904/DTD/svg10.dtd">
<svg version="1.0" xmlns="http://www.w3.org/2000/svg"
 width="1280.000000pt" height="1280.000000pt" viewBox="0 0 1280.000000 1280.000000"
 preserveAspectRatio="xMidYMid meet">
<metadata>
Created by potrace 1.15, written by Peter Selinger 2001-2017
</metadata>
<g transform="translate(0.000000,1280.000000) scale(0.100000,-0.100000)"
fill="#000000" stroke="none">
<path d="M6190 12138 c0 -7 38 -161 85 -343 47 -181 85 -333 85 -337 0 -12
-78 -49 -110 -53 -21 -2 -36 3 -51 19 -23 24 -59 24 -59 0 0 -7 -11 -16 -25
-20 -14 -3 -25 -11 -25 -16 0 -6 7 -8 15 -4 9 3 15 0 15 -8 0 -12 20 -26 36
-26 3 0 3 10 0 23 -3 12 -3 16 0 10 8 -19 24 -16 25 5 0 10 2 12 6 4 7 -19
-25 -62 -46 -62 -10 0 -21 -9 -24 -20 -5 -18 -4 -18 19 -3 38 24 39 8 2 -18
-31 -23 -76 -49 -84 -49 -2 0 -1 7 3 16 5 13 2 15 -17 9 -13 -4 -25 -3 -29 3
-3 6 -19 14 -34 17 -23 6 -27 4 -27 -14 0 -12 -4 -21 -10 -21 -5 0 -10 -4 -10
-10 0 -5 9 -10 19 -10 11 0 21 -7 23 -16 2 -13 6 -12 25 5 26 25 33 26 33 7 0
-8 -12 -24 -27 -35 -16 -11 -37 -29 -48 -39 -11 -10 -49 -40 -84 -67 -44 -34
-59 -50 -50 -55 8 -4 113 -15 234 -24 121 -9 227 -19 236 -22 10 -3 18 -20 22
-46 5 -36 18 -54 100 -137 126 -128 174 -203 228 -351 13 -36 33 -80 45 -98
13 -18 25 -46 29 -62 8 -36 21 -39 29 -7 3 13 17 41 32 63 37 54 97 198 84
202 -18 6 -10 34 59 217 l68 180 56 3 57 3 0 -40 c0 -73 8 -75 57 -16 l44 55
244 0 c155 0 246 -4 250 -10 4 -6 -8 -33 -25 -61 -17 -28 -29 -53 -27 -55 2
-2 40 12 85 33 78 35 103 38 87 12 -9 -13 -342 -233 -455 -299 l-75 -45 310
-22 c171 -13 337 -25 371 -29 l61 -5 35 -124 c35 -124 36 -160 2 -65 -10 27
-20 47 -23 44 -3 -3 -12 -40 -21 -82 l-15 -77 -60 -9 c-33 -5 -62 -10 -64 -12
-5 -5 52 -58 85 -80 15 -10 20 -22 16 -39 -2 -14 -5 -25 -6 -25 0 0 -19 -7
-41 -14 l-39 -14 37 -15 c31 -14 37 -21 37 -46 0 -19 5 -30 12 -29 6 2 17 -8
24 -21 11 -21 10 -28 -9 -52 -30 -38 -40 -40 -83 -18 -21 10 -44 19 -50 19 -7
0 -19 6 -26 13 -7 7 -38 22 -67 33 -42 16 -57 27 -64 48 -13 38 7 59 47 50
l31 -6 -24 26 c-24 26 -24 27 -8 61 19 40 17 41 -23 20 l-29 -15 -3 102 -3
102 -80 -102 -80 -102 -102 0 c-100 0 -102 1 -121 28 -30 43 -152 270 -152
282 0 6 -4 8 -10 5 -5 -3 -10 -21 -10 -38 0 -18 -7 -85 -17 -149 -14 -101 -19
-118 -34 -118 -11 0 -25 14 -35 35 -17 36 -28 43 -39 25 -3 -5 -15 -10 -26
-10 -11 0 -18 -4 -15 -9 4 -5 -4 -7 -15 -4 -21 6 -21 7 -4 19 21 16 21 16 -23
38 -30 16 -32 19 -26 56 4 22 4 40 0 40 -8 0 -47 -22 -67 -38 -13 -10 -22 -10
-43 0 -23 10 -29 9 -36 -2 -15 -25 -62 20 -84 78 -10 29 -22 52 -26 52 -5 0
-16 -22 -25 -50 -19 -56 -58 -94 -92 -87 -13 2 -24 -2 -27 -9 -8 -21 -26 -17
-26 6 0 19 -1 20 -24 5 -23 -15 -27 -15 -50 0 -14 10 -23 21 -20 26 6 11 -10
12 -20 2 -4 -5 -12 -9 -17 -9 -5 -1 -14 -2 -19 -3 -7 -1 -7 -7 0 -20 7 -13 7
-22 0 -26 -5 -3 -10 -11 -10 -16 0 -6 5 -7 11 -3 7 4 10 1 7 -7 -6 -17 -60
-19 -65 -1 -3 7 4 12 17 12 18 0 20 3 11 14 -6 7 -8 22 -4 31 4 13 3 16 -6 10
-7 -4 -24 -1 -38 6 -19 10 -28 10 -43 1 -11 -7 -27 -12 -37 -12 -13 0 -14 -3
-5 -12 15 -15 16 -28 2 -28 -6 0 -22 25 -37 55 -15 30 -31 55 -35 55 -4 0 -10
-11 -14 -25 -11 -46 -24 -26 -24 37 l0 63 -56 -62 -57 -62 -79 30 c-44 16 -81
29 -83 29 -2 0 7 -19 20 -41 13 -23 21 -49 17 -57 -4 -11 -1 -14 10 -9 17 6
33 -18 22 -34 -8 -13 -58 -11 -72 3 -7 7 -12 8 -12 3 0 -5 13 -23 30 -40 26
-27 28 -34 21 -67 -10 -43 -10 -43 28 -24 25 14 30 13 55 -9 15 -13 34 -21 41
-19 8 3 16 -4 20 -16 7 -21 8 -21 27 -4 19 18 19 17 13 -46 -3 -36 -9 -76 -12
-90 -6 -24 -6 -24 18 -7 71 51 106 72 124 73 11 1 48 -16 83 -37 35 -22 66
-39 68 -39 5 0 -22 72 -39 106 -31 62 -31 71 8 84 30 10 37 9 52 -5 14 -14 14
-18 2 -26 -12 -8 -11 -11 4 -20 23 -13 22 -24 -5 -37 -22 -10 -22 -11 10 -17
17 -4 32 -12 32 -17 0 -5 6 -16 14 -24 8 -7 16 -19 19 -26 3 -9 11 -6 24 10
11 12 29 22 40 22 19 0 20 -5 16 -77 l-5 -78 51 56 c42 47 55 56 76 51 15 -2
31 -15 37 -28 13 -27 28 -32 28 -9 0 12 7 14 27 9 25 -7 26 -5 20 24 -4 17 -2
34 3 37 6 3 10 1 10 -5 0 -6 4 -9 9 -5 5 3 11 -2 13 -11 3 -14 7 -13 30 5 23
19 30 20 47 9 13 -8 19 -19 15 -30 -4 -13 -1 -16 10 -12 9 4 23 1 30 -5 12
-10 13 -8 9 9 -6 22 -6 22 28 4 19 -10 50 -18 69 -18 29 -1 36 -6 45 -31 5
-16 20 -40 34 -51 23 -21 23 -25 16 -120 -7 -96 -7 -98 11 -83 109 91 135 111
141 105 4 -4 1 -17 -7 -29 -7 -12 -22 -36 -32 -54 l-19 -31 88 20 c48 12 109
21 135 22 27 0 48 4 48 8 0 4 19 -1 43 -11 41 -18 59 -49 25 -43 -15 2 -18 -5
-18 -36 0 -27 -5 -42 -16 -46 -8 -3 -12 -10 -9 -16 4 -6 -8 -10 -29 -10 -40 0
-43 -5 -20 -38 15 -22 15 -25 -6 -47 -12 -13 -33 -26 -46 -29 -38 -10 -28 -22
31 -36 82 -20 86 -24 92 -118 4 -50 10 -82 17 -82 6 1 32 20 58 44 40 37 45
46 33 56 -30 25 6 50 50 34 14 -6 14 -8 1 -23 -14 -15 -12 -17 27 -14 41 2 87
12 87 19 0 10 -24 54 -30 54 -13 0 -44 54 -42 73 1 18 51 104 79 138 18 22 62
13 73 -15 l9 -21 0 21 c1 18 6 21 39 17 20 -2 43 -6 51 -8 9 -4 11 0 7 10 -3
8 -9 21 -12 29 -3 8 3 15 15 19 28 7 102 -9 112 -24 7 -11 9 -11 9 -1 0 9 14
12 47 10 l48 -3 57 -159 c32 -87 59 -160 61 -162 2 -2 23 51 46 116 24 66 47
123 51 125 4 3 13 -2 20 -10 19 -23 30 -18 30 14 0 50 28 61 157 61 62 0 113
-4 113 -8 0 -5 14 -7 31 -4 22 3 27 8 20 15 -17 17 -13 26 9 20 15 -4 20 0 20
15 0 24 19 40 29 24 4 -7 13 -6 25 4 13 9 15 14 6 14 -11 0 -11 3 -3 11 16 16
60 -3 110 -47 45 -41 52 -30 29 48 -13 46 -13 55 -1 75 8 12 21 20 29 17 23
-9 81 -87 68 -92 -7 -2 -12 -11 -12 -19 0 -9 -3 -13 -7 -10 -7 8 -43 -21 -43
-35 0 -4 16 -8 35 -8 19 0 35 -5 35 -11 0 -6 6 -9 13 -6 6 2 23 0 36 -4 19 -8
23 -15 19 -43 l-4 -34 26 18 c20 14 34 17 60 11 30 -7 38 -4 57 18 21 26 21
26 67 10 31 -11 46 -13 49 -5 2 6 10 0 17 -14 7 -14 19 -29 26 -33 21 -12 17
-27 -7 -27 -12 0 -27 7 -34 17 -15 21 -30 11 -44 -29 -6 -17 -8 -28 -4 -25 10
11 42 -23 37 -38 -3 -8 6 -21 20 -30 14 -10 26 -24 26 -31 0 -8 4 -14 10 -14
5 0 9 5 7 12 -1 6 6 14 16 16 14 3 17 -1 12 -20 -4 -17 2 -28 20 -41 23 -16
26 -17 31 -2 4 9 2 21 -5 28 -6 6 -11 19 -11 28 0 9 -7 19 -15 23 -13 5 -13 9
-3 26 17 27 32 25 57 -7 18 -22 20 -35 15 -77 l-6 -51 36 40 c19 22 35 35 36
28 0 -6 -5 -15 -12 -19 -8 -5 -6 -11 6 -20 23 -17 10 -37 -19 -30 -16 4 -25 1
-29 -10 -5 -13 -9 -14 -20 -5 -8 7 -17 8 -20 3 -8 -14 4 -22 35 -22 15 0 31
-4 34 -10 3 -6 -1 -7 -10 -4 -11 5 -14 2 -9 -9 5 -13 1 -14 -23 -7 -74 23
-137 28 -160 12 -18 -11 -21 -18 -12 -28 9 -11 8 -15 -4 -20 -29 -11 -25 -31
14 -80 41 -52 47 -75 25 -93 -8 -7 -17 -23 -20 -37 -4 -14 -10 -22 -15 -20 -5
3 -11 -12 -15 -33 -3 -22 -12 -41 -18 -44 -10 -4 -10 -7 -1 -18 10 -10 9 -16
-4 -31 -15 -17 -14 -19 18 -32 19 -9 54 -28 78 -44 37 -26 41 -31 26 -39 -15
-9 -15 -13 -4 -31 16 -25 22 -26 50 -12 13 8 25 7 39 0 27 -15 25 -27 -6 -34
l-27 -7 34 -18 c29 -15 35 -25 39 -61 l5 -42 23 32 c20 27 28 30 54 25 l30 -7
-17 30 c-17 29 -17 31 3 59 l20 28 -38 -3 c-35 -4 -38 -1 -49 29 -6 18 -10 33
-9 34 2 0 16 9 31 18 15 10 31 16 36 13 4 -3 24 3 43 13 34 17 35 18 21 45
-10 20 -11 31 -4 40 6 7 8 16 4 19 -3 4 0 7 8 7 15 0 56 58 51 73 -1 5 2 6 6
3 5 -3 18 4 28 17 19 21 19 21 -1 7 -19 -14 -19 -14 -6 3 8 9 16 15 19 12 3
-3 18 7 33 21 24 23 26 30 17 48 -6 12 -17 25 -25 29 -7 5 -11 12 -8 17 3 5
-5 12 -19 16 -20 5 -25 13 -30 52 -3 26 -7 59 -9 74 -2 16 -16 41 -31 57 -27
29 -30 29 -57 16 -34 -18 -40 -10 -32 38 5 31 10 37 30 37 13 0 35 -12 48 -26
30 -32 66 -26 57 9 -3 12 -11 26 -19 30 -7 4 -24 29 -37 55 l-24 47 46 64 46
64 -34 -7 c-19 -4 -54 -9 -76 -13 l-41 -5 -29 58 c-16 33 -29 64 -29 69 0 6
-7 17 -15 25 -24 25 -40 -4 -28 -49 6 -19 7 -58 3 -86 -7 -56 -10 -59 -112
-80 -36 -7 -47 9 -13 18 24 6 25 20 4 41 -9 10 -13 24 -9 37 6 19 8 19 25 4
12 -11 26 -14 40 -10 20 6 21 8 4 33 -15 23 -15 26 0 37 20 15 21 25 0 25 -13
0 -15 7 -10 34 5 25 3 35 -9 39 -9 4 -12 13 -8 24 6 16 5 16 -10 4 -9 -7 -26
-11 -37 -8 -17 4 -20 2 -15 -14 6 -18 3 -20 -32 -17 -31 2 -39 7 -41 26 -2 12
2 22 9 22 9 0 9 3 -1 14 -15 19 -40 9 -40 -14 0 -11 -4 -22 -10 -25 -12 -8
-13 27 -1 78 10 43 0 48 -26 11 -17 -23 -22 -25 -42 -15 -12 7 -27 9 -33 5 -7
-5 -9 -2 -5 9 6 16 -11 27 -42 27 -19 0 -61 39 -61 56 0 6 16 29 36 52 28 34
38 39 49 29 7 -6 12 -16 12 -22 -1 -5 6 -9 16 -7 20 3 22 -6 4 -27 -12 -14
-11 -19 6 -34 18 -19 19 -18 13 1 -4 11 -2 23 4 27 6 3 10 -3 10 -14 0 -12 7
-21 15 -21 10 0 15 -10 15 -27 l0 -27 29 28 c24 23 32 26 49 17 32 -17 38 -14
39 25 1 19 8 43 16 52 13 14 13 19 1 30 -7 6 -19 12 -25 12 -7 0 -4 9 7 22
l19 21 -33 -6 c-33 -7 -62 8 -62 31 0 5 30 25 67 45 65 34 67 36 43 45 -14 6
-33 20 -44 32 -13 17 -20 20 -26 10 -5 -8 -17 -10 -34 -6 -28 7 -28 9 -30 106
-1 72 -10 85 -41 64 -13 -9 -29 -13 -35 -9 -15 9 -12 33 5 37 12 3 12 8 -2 37
-17 33 -17 34 12 55 17 11 41 31 55 43 l25 22 -55 1 c-76 0 -100 16 -132 83
-15 31 -32 57 -38 57 -5 0 -10 8 -10 18 -1 12 -5 9 -16 -11 -10 -19 -21 -27
-31 -23 -8 3 -16 6 -18 6 -2 0 -20 21 -40 48 -20 26 -38 46 -41 45 -10 -6 -43
14 -91 54 -52 44 -52 44 -46 91 l6 46 -27 -18 c-36 -23 -45 -13 -23 26 17 29
17 30 -4 35 -14 4 -18 11 -13 22 4 9 14 43 24 76 9 33 54 154 99 269 45 115
80 210 77 213 -3 4 -489 -265 -591 -327 l-30 -18 -280 199 c-179 128 -281 195
-283 186 -1 -7 11 -75 28 -150 16 -75 30 -146 30 -157 0 -11 -11 -27 -25 -36
-23 -15 -26 -15 -56 7 l-32 23 6 -41 c6 -36 4 -43 -18 -57 -43 -28 -96 -11
-64 21 9 9 7 11 -8 7 -12 -3 -24 -1 -27 5 -5 7 1 11 15 11 18 0 20 2 9 15 -7
9 -19 14 -26 11 -15 -6 -69 52 -79 83 -3 12 -10 21 -15 21 -28 0 -8 45 81 182
54 84 95 154 89 156 -8 3 -210 -54 -313 -88 -25 -8 -30 -5 -76 56 -57 75 -59
40 20 302 27 90 49 165 49 167 0 6 -64 -33 -350 -217 -207 -133 -248 -155
-262 -145 -9 7 -135 101 -281 210 -145 108 -267 197 -271 197 -3 0 -6 -6 -6
-12z m1660 -958 c0 -5 -4 -10 -10 -10 -5 0 -10 5 -10 10 0 6 5 10 10 10 6 0
10 -4 10 -10z m-147 -130 c28 -45 32 -59 24 -77 -5 -13 -14 -23 -19 -23 -12 0
-98 87 -98 99 0 6 14 6 36 -1 20 -5 38 -7 40 -5 3 2 -5 22 -17 43 -31 55 -8
30 34 -36z m-1201 -88 c11 -12 56 -167 51 -175 -3 -5 -36 33 -73 85 -38 51
-66 97 -63 101 6 9 74 0 85 -11z m2368 -524 c63 -19 85 -35 82 -60 -1 -12 -25
-69 -52 -126 l-49 -103 -83 6 c-54 5 -87 12 -95 22 -8 10 -13 11 -18 2 -5 -7
-24 -9 -56 -5 -27 4 -49 4 -49 1 0 -4 12 -22 26 -41 23 -29 24 -35 10 -40 -20
-8 -86 4 -103 18 -7 6 -13 32 -13 59 0 27 -3 49 -7 49 -5 -1 -22 -32 -40 -70
-20 -43 -38 -70 -48 -70 -8 0 -15 6 -15 12 0 7 36 89 80 183 l81 171 157 1
c89 1 172 -3 192 -9z m286 -194 l47 -36 -5 26 c-6 29 12 35 31 12 12 -14 5
-46 -10 -46 -5 0 -9 -7 -9 -16 0 -10 -6 -14 -17 -11 -10 3 -42 11 -71 17 -53
12 -53 13 -46 44 12 58 16 58 80 10z m-2921 -104 c3 -6 -1 -7 -9 -4 -18 7 -21
14 -7 14 6 0 13 -4 16 -10z m2882 -22 c18 -20 17 -20 -16 -15 -38 6 -56 20
-47 35 9 14 41 4 63 -20z m-676 -61 c-13 -13 -26 -3 -16 12 3 6 11 8 17 5 6
-4 6 -10 -1 -17z m-2105 -12 c-1 -23 -26 -46 -26 -25 0 9 22 50 26 50 1 0 1
-11 0 -25z m2404 -129 c0 -7 -7 -21 -15 -32 -13 -18 -14 -16 -15 25 0 37 2 42
15 31 8 -7 15 -18 15 -24z m-59 -32 c22 -24 22 -26 3 -16 -19 10 -21 9 -16
-14 3 -15 -1 -29 -8 -34 -16 -10 -50 -1 -50 14 0 11 37 76 43 76 2 0 14 -12
28 -26z m-666 -114 c3 -5 14 -10 24 -10 11 0 21 -12 28 -33 l10 -34 -89 -69
c-49 -38 -93 -70 -98 -72 -6 -2 -10 10 -10 27 0 35 -6 38 -31 15 -16 -14 -20
-14 -49 1 l-31 16 16 -32 c16 -30 16 -33 -4 -60 -21 -28 -21 -29 -2 -29 27 0
37 -19 14 -27 -10 -3 -31 -17 -46 -30 -53 -43 -60 -34 -54 70 4 50 7 102 7
114 0 19 10 25 57 39 32 9 69 18 83 19 15 1 32 5 39 9 8 5 14 0 18 -13 7 -27
20 -27 19 0 -1 15 8 25 29 33 46 17 72 36 58 42 -15 7 -18 34 -4 34 6 0 13 -4
16 -10z m1155 -60 c0 -5 -4 -10 -10 -10 -5 0 -10 5 -10 10 0 6 5 10 10 10 6 0
10 -4 10 -10z m-525 -22 c-4 -13 -14 -33 -22 -46 -29 -47 -12 -53 55 -19 71
35 93 30 75 -20 -6 -15 -16 -47 -22 -70 -8 -31 -17 -43 -30 -43 -21 0 -80 42
-132 93 l-37 36 16 45 c16 45 18 46 60 46 40 0 43 -2 37 -22z m815 -57 c0 -12
-30 -22 -43 -14 -7 4 -3 9 9 14 26 10 34 10 34 0z m119 -318 c1 -1 0 -7 -4
-13 -5 -8 -11 -7 -23 2 -12 10 -16 10 -19 1 -7 -21 -18 -15 -21 11 -2 23 0 24
31 13 17 -6 34 -13 36 -14z"/>
<path d="M4631 11486 c-27 -39 -35 -45 -48 -35 -12 10 -16 10 -24 -2 -5 -8 -9
-19 -9 -26 0 -8 -24 -13 -70 -15 l-70 -3 45 -36 c42 -34 43 -37 22 -43 -12 -3
-35 -6 -50 -6 -39 0 -44 -25 -12 -53 23 -19 25 -25 13 -35 -12 -10 -22 -7 -52
16 -29 22 -35 32 -32 53 5 24 1 27 -27 31 -18 3 -40 9 -50 13 -16 7 -18 4 -15
-21 2 -25 -2 -31 -29 -43 -18 -8 -33 -20 -33 -27 0 -7 -6 -15 -12 -17 -8 -3
-7 -6 4 -6 9 -1 20 4 23 9 3 6 17 10 31 10 28 0 54 -47 34 -60 -7 -5 -6 -11 5
-20 18 -15 18 -15 31 25 11 34 28 40 69 25 21 -8 25 -14 17 -22 -16 -16 -15
-28 3 -28 8 0 15 -7 15 -15 0 -8 5 -15 10 -15 6 0 10 6 10 14 0 22 27 27 33 6
5 -18 47 -25 47 -8 0 4 7 5 15 2 8 -4 15 -1 15 5 0 6 11 11 24 11 13 0 26 5
28 12 3 7 14 9 31 4 29 -7 37 -26 12 -26 -8 0 -15 -4 -15 -10 0 -5 6 -10 13
-10 8 0 7 -3 -3 -10 -9 -6 -19 -5 -29 3 -12 10 -13 9 -3 -10 16 -29 33 -33 55
-12 17 15 18 22 8 50 -21 60 -9 65 45 17 l36 -32 -7 69 -8 68 34 30 c19 16 51
36 72 44 20 8 37 18 37 22 0 4 -37 12 -82 17 l-83 9 -14 45 c-28 91 -24 89
-60 36z m-171 -276 c0 -5 -4 -10 -10 -10 -5 0 -10 5 -10 10 0 6 5 10 10 10 6
0 10 -4 10 -10z"/>
<path d="M5862 11399 c-13 -5 -29 -6 -34 -2 -7 3 -8 1 -4 -6 4 -6 0 -14 -9
-17 -12 -5 -13 -10 -4 -20 6 -8 8 -21 5 -30 -3 -8 1 -22 9 -30 13 -14 17 -14
32 1 9 10 18 31 20 48 2 16 8 36 14 43 14 17 -1 24 -29 13z"/>
<path d="M5268 11388 c-4 -10 -15 -18 -24 -18 -14 0 -14 -3 -4 -15 10 -13 10
-19 -5 -35 -19 -21 -7 -28 13 -8 9 9 15 9 24 0 19 -19 23 -15 25 23 1 19 -2
35 -7 35 -5 0 -10 8 -12 18 -3 16 -4 16 -10 0z"/>
<path d="M5070 11331 c0 -5 5 -13 10 -16 6 -3 10 -2 10 4 0 5 -4 13 -10 16 -5
3 -10 2 -10 -4z"/>
<path d="M5111 11311 c-17 -15 -28 -18 -35 -11 -16 16 -26 12 -26 -10 0 -11
-6 -29 -12 -40 -11 -16 -9 -22 6 -33 13 -9 17 -21 13 -35 -8 -35 13 -37 26 -3
15 41 24 39 22 -5 -1 -36 -1 -36 17 -15 9 12 14 29 11 36 -3 10 2 15 16 15 12
0 29 5 39 11 17 11 17 14 3 45 -9 20 -23 34 -32 34 -10 0 -19 7 -21 16 -3 13
-7 13 -27 -5z"/>
<path d="M5485 11289 c-4 -5 7 -14 24 -20 34 -12 37 -19 19 -38 -11 -10 -7
-11 17 -5 17 4 31 8 33 9 2 2 -17 17 -42 33 -26 18 -48 27 -51 21z"/>
<path d="M3854 11275 c-4 -8 -16 -15 -27 -15 -20 0 -20 -1 -2 -13 10 -8 15
-19 12 -25 -5 -6 1 -8 15 -5 23 5 23 5 3 -10 -34 -25 -47 -23 -113 17 -35 21
-65 36 -68 33 -2 -2 7 -36 21 -74 14 -39 25 -73 25 -75 0 -3 -28 -26 -62 -53
-71 -55 -67 -63 31 -64 51 -1 53 -2 39 -18 -9 -10 -13 -24 -11 -30 3 -7 0 -13
-6 -13 -6 0 -11 4 -11 9 0 11 -62 -10 -72 -24 -4 -5 -5 -19 -2 -31 4 -15 -1
-26 -16 -37 l-22 -15 21 -21 c12 -12 24 -35 28 -51 l5 -30 20 25 c16 21 23 23
46 14 15 -5 32 -17 38 -25 10 -13 12 -13 18 1 3 9 10 14 15 11 12 -8 34 -121
29 -150 -3 -15 0 -27 8 -30 8 -3 14 -15 14 -26 0 -19 1 -20 37 -5 36 15 37 15
65 -12 l28 -27 0 37 c0 29 5 39 27 50 l27 15 -32 7 c-31 6 -37 17 -35 63 1 8
-10 3 -26 -12 -23 -22 -61 -36 -61 -21 0 2 10 25 23 51 l22 46 70 -6 c39 -4
79 -10 89 -13 12 -3 -4 20 -41 62 l-61 68 25 56 c14 31 27 62 30 69 7 17 13
15 55 -13 30 -20 37 -22 42 -10 3 8 14 15 25 15 15 0 19 6 18 27 -2 23 3 28
35 38 20 5 43 16 49 22 10 10 2 11 -38 6 -46 -5 -52 -3 -63 17 -9 16 -15 19
-23 11 -6 -6 -23 -11 -37 -11 -22 0 -30 8 -45 43 -15 36 -19 39 -22 20 -3 -16
-11 -23 -28 -23 -13 0 -27 5 -30 11 -5 6 -12 4 -21 -8 -18 -24 -17 -9 5 75 10
40 17 72 14 72 -2 0 -14 -5 -25 -11 -15 -8 -19 -8 -14 0 4 7 -1 11 -13 11 -12
0 -21 5 -21 10 0 16 -20 12 -26 -5z m90 -296 c-8 -14 -24 -10 -24 6 0 9 6 12
15 9 8 -4 12 -10 9 -15z m-184 -89 c0 -5 -4 -10 -10 -10 -5 0 -10 5 -10 10 0
6 5 10 10 10 6 0 10 -4 10 -10z"/>
<path d="M5210 11210 c0 -5 5 -10 11 -10 5 0 7 5 4 10 -3 6 -8 10 -11 10 -2 0
-4 -4 -4 -10z"/>
<path d="M5594 11193 c4 -7 2 -13 -3 -13 -6 0 -11 -7 -11 -16 0 -19 -39 -9
-57 15 -11 15 -12 14 -13 -1 0 -10 -4 -18 -10 -18 -5 0 -7 -7 -3 -16 3 -9 8
-11 12 -6 8 14 61 3 68 -14 3 -9 14 -12 30 -8 17 5 28 1 37 -12 13 -17 14 -17
20 4 8 24 31 30 39 10 4 -10 6 -10 6 0 1 6 8 12 16 12 10 0 15 10 15 30 0 27
-2 30 -19 20 -11 -5 -22 -14 -26 -19 -7 -12 -63 6 -89 28 -11 9 -16 10 -12 4z"/>
<path d="M4065 11169 c-9 -14 -2 -20 14 -10 8 6 9 11 3 15 -6 3 -14 1 -17 -5z"/>
<path d="M4845 11130 c3 -6 -3 -10 -14 -10 -28 0 -27 -16 1 -23 32 -9 53 25
22 37 -8 3 -12 2 -9 -4z"/>
<path d="M4200 11112 c0 -4 9 -13 19 -19 16 -10 20 -9 24 8 4 15 0 19 -19 19
-13 0 -24 -3 -24 -8z"/>
<path d="M4486 11103 c-6 -14 -5 -15 5 -6 7 7 10 15 7 18 -3 3 -9 -2 -12 -12z"/>
<path d="M5612 11080 c-11 -18 -10 -20 8 -20 13 0 20 7 20 20 0 11 -3 20 -8
20 -4 0 -13 -9 -20 -20z"/>
<path d="M4441 11081 c-7 -5 -12 -14 -10 -20 3 -7 11 -3 21 9 18 21 13 26 -11
11z"/>
<path d="M3712 10482 c-15 -2 -22 -9 -18 -17 2 -8 8 -29 11 -48 6 -30 3 -37
-25 -59 l-32 -25 26 -7 c30 -7 33 -21 9 -35 -17 -9 -17 -10 0 -29 12 -13 15
-22 8 -27 -19 -11 -12 -28 9 -22 24 6 25 -1 4 -31 -10 -14 -14 -32 -10 -48 4
-14 2 -24 -4 -24 -5 0 -10 -10 -10 -22 0 -20 1 -21 20 -3 22 20 39 13 22 -8
-7 -8 -8 -17 -4 -21 4 -4 -5 -5 -20 -1 -21 5 -29 3 -34 -10 -4 -9 -2 -21 5
-28 8 -8 11 -8 11 2 0 15 70 11 71 -4 2 -23 21 -35 40 -24 11 5 24 7 30 3 6
-3 13 3 16 15 3 12 16 24 29 27 26 7 33 24 9 24 -8 0 -15 5 -15 10 0 18 31 10
50 -12 l18 -23 12 26 c7 15 24 32 37 38 23 11 24 13 10 29 -9 9 -14 31 -13 50
2 31 -7 42 -19 22 -4 -6 -22 -1 -45 13 -37 20 -44 34 -43 75 1 6 -5 12 -13 12
-8 0 -14 5 -14 10 0 6 9 10 20 10 28 0 25 11 -11 41 -31 25 -31 25 -15 62 8
20 13 37 11 37 -3 0 -19 -9 -37 -20 -39 -24 -52 -25 -44 -5 3 8 1 15 -4 15 -6
0 -10 6 -10 14 0 19 -9 23 -38 18z m18 -162 c0 -5 -4 -10 -10 -10 -5 0 -10 5
-10 10 0 6 5 10 10 10 6 0 10 -4 10 -10z"/>
<path d="M5515 10120 c7 -30 6 -140 -2 -153 -3 -5 -13 -7 -23 -4 -28 7 -35
-51 -16 -129 7 -29 6 -31 -31 -40 l-38 -10 30 -14 c17 -8 31 -15 32 -15 1 -1
5 -19 9 -41 8 -49 12 -57 30 -50 8 3 24 0 35 -7 16 -10 21 -9 28 2 5 8 7 20 4
27 -2 6 4 18 14 25 10 8 20 23 21 34 7 35 45 75 67 69 61 -18 82 -16 88 7 4
16 -2 32 -23 56 -17 19 -30 35 -30 37 0 10 39 46 50 46 9 0 10 3 1 13 -7 9 -8
24 -1 48 6 18 10 34 10 35 0 0 -10 0 -22 0 -17 -1 -23 5 -23 19 0 15 -11 23
-40 32 -49 15 -45 15 -45 1 0 -6 -7 -19 -15 -28 -13 -15 -13 -19 4 -37 11 -12
17 -24 14 -27 -4 -3 -35 24 -70 61 -49 52 -63 62 -58 43z"/>
<path d="M7950 10024 c0 -8 5 -12 10 -9 6 4 8 11 5 16 -9 14 -15 11 -15 -7z"/>
<path d="M3919 9941 c-23 -42 -25 -43 -66 -38 -24 2 -43 1 -43 -3 0 -5 14 -20
31 -34 32 -28 32 -28 4 -99 -7 -17 -5 -17 34 3 l43 21 33 -25 c19 -14 36 -26
38 -26 2 0 1 19 -3 43 -5 23 -8 42 -7 43 1 0 20 11 42 25 l40 24 -43 7 c-54 9
-62 14 -63 41 0 12 -4 31 -8 41 -7 17 -11 14 -32 -23z"/>
<path d="M5403 9913 c-20 -8 -15 -23 7 -23 11 0 20 7 20 15 0 15 -6 17 -27 8z"/>
<path d="M3782 9846 c-22 -11 -25 -27 -6 -33 5 -1 14 8 21 22 6 14 10 24 10
24 -1 -1 -12 -6 -25 -13z"/>
<path d="M5620 9675 c-20 -24 -6 -28 15 -5 10 11 13 20 8 20 -6 0 -16 -7 -23
-15z"/>
<path d="M5618 9634 c-24 -24 -29 -26 -58 -15 l-33 11 7 -39 c5 -31 2 -42 -14
-56 -18 -16 -19 -20 -5 -27 17 -10 21 -38 5 -38 -5 0 -10 -7 -10 -15 0 -7 -7
-18 -17 -23 -14 -9 -14 -10 5 -16 30 -10 27 -24 -8 -44 -16 -9 -30 -20 -30
-23 0 -4 21 -10 46 -14 46 -6 46 -7 42 -41 -3 -25 -1 -33 9 -30 7 3 16 0 19
-6 5 -8 10 -5 15 8 13 32 10 54 -7 54 -11 0 -14 5 -10 16 3 9 6 23 6 31 0 11
7 14 24 11 18 -4 26 0 29 14 3 11 0 18 -8 18 -10 0 -13 12 -9 47 5 54 5 55 46
69 l31 10 -31 22 c-31 22 -31 23 -17 62 16 47 10 50 -27 14z m-44 -140 c4 -9
4 -19 1 -22 -6 -6 -35 18 -35 29 0 16 28 10 34 -7z"/>
<path d="M3717 9633 c-18 -5 -18 -5 0 -18 17 -13 15 -17 -27 -60 l-46 -46 -72
30 c-40 16 -72 28 -72 25 0 -2 11 -32 25 -66 14 -34 25 -66 25 -72 0 -6 -26
-37 -57 -69 l-58 -59 40 5 c22 4 59 9 82 13 l42 6 33 -66 32 -66 22 46 c12 25
20 54 17 65 -4 15 -1 19 18 17 19 -2 24 1 22 18 -2 18 6 23 54 33 59 12 72 6
73 -29 0 -8 12 3 26 24 23 34 30 37 60 34 19 -2 34 -2 34 -1 0 2 -9 17 -21 32
-20 27 -20 30 -5 59 22 43 21 44 -19 28 -34 -15 -34 -14 -63 21 l-28 36 0 -48
c1 -44 -2 -50 -31 -67 -25 -15 -36 -17 -52 -9 -27 15 -23 72 7 104 12 13 19
26 16 30 -4 4 -1 13 5 21 21 25 -29 43 -82 29z"/>
<path d="M3900 9621 c0 -6 7 -8 16 -4 9 3 20 0 26 -8 8 -12 9 -11 5 1 -4 17
-47 27 -47 11z"/>
<path d="M7417 9523 c-8 -12 30 -49 40 -40 3 4 1 7 -6 7 -6 0 -15 10 -20 22
-4 12 -11 17 -14 11z"/>
<path d="M9040 9436 c0 -9 5 -16 10 -16 6 0 10 4 10 9 0 6 -4 13 -10 16 -5 3
-10 -1 -10 -9z"/>
<path d="M7740 9305 c0 -8 4 -15 10 -15 5 0 7 7 4 15 -4 8 -8 15 -10 15 -2 0
-4 -7 -4 -15z"/>
<path d="M3908 9253 c-13 -3 -18 -15 -18 -39 0 -32 -2 -35 -27 -32 -18 2 -27
-1 -26 -9 2 -8 -4 -10 -14 -6 -13 5 -15 2 -10 -17 7 -29 -29 -67 -63 -66 -13
1 -25 -5 -27 -12 -4 -10 2 -11 24 -6 15 4 37 7 48 6 26 -1 65 -47 65 -76 0
-12 5 -27 11 -33 18 -18 53 31 45 62 -6 24 -7 25 -31 9 -25 -17 -32 -10 -16
15 11 17 59 23 67 9 4 -6 16 9 28 33 14 30 28 45 44 47 27 4 28 12 2 40 -16
17 -18 26 -10 48 9 22 8 25 -6 20 -9 -3 -27 -9 -40 -12 -19 -5 -23 -3 -18 10
6 16 3 17 -28 9z"/>
<path d="M5641 9228 c-1 -18 -7 -28 -16 -28 -8 0 -15 -5 -15 -10 0 -6 -10 -15
-22 -19 -23 -9 -23 -9 5 -20 43 -17 57 -36 57 -75 0 -25 5 -36 15 -36 7 0 19
-8 25 -17 8 -14 10 -7 8 32 -3 43 0 50 17 53 44 7 47 10 33 34 -7 13 -11 26
-10 31 1 4 -13 7 -30 7 -28 0 -35 5 -50 38 -15 36 -16 36 -17 10z"/>
<path d="M5460 9159 c0 -6 -9 -9 -20 -6 -24 6 -27 -18 -6 -45 15 -20 57 -28
63 -12 2 6 -7 10 -19 10 -29 -1 -36 30 -9 39 24 7 28 25 6 25 -8 0 -15 -5 -15
-11z"/>
<path d="M7648 9097 c-8 -15 -12 -17 -18 -7 -7 11 -12 10 -25 -3 -9 -9 -13
-22 -9 -28 3 -6 0 -15 -7 -20 -11 -6 -9 -13 9 -32 30 -31 29 -51 -2 -43 -22 5
-24 2 -30 -51 -5 -43 -3 -61 9 -80 13 -20 19 -22 31 -12 11 9 14 8 14 -5 0
-23 17 -20 23 4 3 11 5 23 5 27 0 3 6 10 14 14 10 7 8 9 -6 9 -16 0 -17 5 -11
38 4 20 8 38 10 40 1 2 21 4 44 5 22 1 41 5 41 9 0 5 18 5 40 2 22 -4 40 -3
40 1 0 11 -39 43 -62 51 -15 4 -17 9 -7 20 9 11 7 14 -10 14 -12 0 -21 6 -21
15 0 8 -4 15 -10 15 -5 0 -10 8 -10 18 0 24 -39 23 -52 -1z"/>
<path d="M9505 9110 c-3 -5 -1 -10 4 -10 6 0 11 5 11 10 0 6 -2 10 -4 10 -3 0
-8 -4 -11 -10z"/>
<path d="M5590 9070 c0 -23 15 -27 23 -6 3 8 -1 17 -9 20 -9 4 -14 -1 -14 -14z"/>
<path d="M5380 9053 c0 -17 6 -23 23 -23 16 0 18 3 8 9 -7 5 -17 15 -22 22 -6
10 -9 8 -9 -8z"/>
<path d="M5425 9060 c-3 -5 -1 -10 4 -10 6 0 11 5 11 10 0 6 -2 10 -4 10 -3 0
-8 -4 -11 -10z"/>
<path d="M3710 9036 c0 -2 7 -7 16 -10 8 -3 12 -2 9 4 -6 10 -25 14 -25 6z"/>
<path d="M3800 9001 c-8 -6 -18 -7 -23 -4 -5 3 -24 -3 -43 -13 -28 -15 -38
-16 -54 -7 -13 9 -21 9 -26 2 -3 -6 -17 -9 -31 -6 -18 3 -23 1 -19 -9 7 -18
-8 -18 -44 1 l-29 15 34 -80 c34 -79 33 -90 -6 -69 -19 10 -20 8 -14 -23 5
-29 1 -37 -31 -68 l-37 -34 34 -11 c36 -12 51 -47 30 -68 -16 -16 -14 -37 3
-37 8 0 17 -13 21 -30 4 -16 12 -30 18 -30 7 0 1 -10 -13 -21 l-25 -21 29 7
c83 18 84 18 97 -6 7 -13 12 -27 11 -31 -1 -5 2 -8 7 -8 5 0 23 -13 40 -29
l31 -29 0 29 c0 19 5 29 15 29 8 0 14 -3 13 -7 -1 -5 4 -24 11 -43 8 -19 14
-38 15 -42 1 -3 4 -10 9 -14 13 -13 8 -34 -8 -28 -9 4 -15 19 -15 35 0 33 -7
35 -37 14 -12 -8 -29 -12 -38 -8 -14 5 -16 2 -10 -16 6 -21 5 -22 -31 -16 -31
4 -36 3 -26 -7 16 -16 16 -48 0 -52 -54 -16 -53 -15 -32 -30 10 -8 19 -22 19
-32 0 -12 14 -20 48 -29 26 -6 47 -8 47 -3 0 4 7 8 15 8 8 0 15 -4 15 -8 0 -5
7 -9 15 -9 8 0 15 4 15 9 0 4 20 8 43 8 37 0 46 -4 55 -25 15 -33 15 -75 0
-75 -6 0 -20 7 -30 17 -17 15 -18 14 -18 -20 0 -33 -4 -39 -40 -57 -51 -26
-68 -25 -80 3 -11 28 -53 87 -47 67 2 -8 -4 -26 -14 -39 -11 -13 -19 -35 -19
-48 0 -13 -6 -36 -14 -51 -8 -16 -14 -35 -13 -42 1 -8 -4 -38 -11 -67 l-14
-51 -56 -6 c-213 -20 -292 -30 -292 -35 0 -4 65 -47 145 -95 80 -49 145 -94
145 -101 0 -6 -11 -72 -25 -146 -14 -74 -25 -145 -25 -157 0 -24 0 -23 39 7
51 41 92 56 103 39 11 -18 10 -36 -2 -43 -15 -9 -12 -25 5 -25 9 0 18 7 21 15
9 21 36 19 31 -2 -3 -10 -10 -39 -17 -65 -8 -31 -18 -48 -31 -51 -13 -3 -17
-11 -13 -21 5 -13 -3 -16 -47 -16 -72 0 -90 -12 -55 -35 37 -24 33 -39 -9 -32
-19 3 -35 4 -35 1 0 -3 18 -29 41 -59 22 -30 38 -59 34 -65 -8 -12 12 -68 31
-87 9 -10 15 -9 25 3 10 12 14 12 20 2 14 -21 10 -31 -6 -18 -12 10 -15 9 -15
-8 0 -40 -11 -52 -49 -52 l-36 -1 32 -27 c29 -25 32 -32 26 -67 l-6 -38 24 16
c31 22 39 21 39 -3 0 -12 -12 -26 -32 -36 -45 -23 -44 -21 -19 -48 28 -30 21
-43 -24 -52 -36 -6 -42 -13 -26 -30 28 -28 48 -81 40 -103 l-9 -23 35 21 35
20 6 -26 c6 -21 1 -31 -19 -49 -33 -28 -34 -34 -3 -34 26 0 36 -16 36 -61 0
-21 -4 -27 -15 -23 -10 4 -16 -3 -21 -23 -9 -34 -20 -43 -58 -43 l-29 0 29
-22 c16 -12 30 -22 31 -23 1 0 0 -10 -3 -21 -4 -13 -38 -38 -100 -70 -51 -27
-94 -52 -94 -56 0 -6 110 -48 220 -83 30 -10 58 -21 63 -24 4 -4 9 -31 12 -60
4 -49 3 -52 -18 -49 -16 2 -22 -2 -22 -15 0 -10 -6 -22 -14 -26 -10 -6 -10
-10 -1 -16 6 -4 9 -14 6 -22 -5 -11 -1 -13 17 -8 21 7 21 7 3 -8 -19 -14 -19
-15 2 -21 31 -10 31 -63 0 -75 -18 -7 -19 -8 -4 -14 13 -5 15 -11 6 -27 -14
-25 -45 -26 -112 0 -29 11 -56 20 -60 20 -4 0 10 -29 32 -65 22 -36 40 -70 40
-76 0 -6 -21 -38 -47 -71 -42 -55 -44 -60 -22 -55 13 3 46 9 72 12 l48 7 49
-53 c28 -30 48 -58 46 -64 -2 -5 6 -23 17 -38 10 -16 18 -30 16 -31 -2 -2 -17
-11 -34 -19 -28 -15 -28 -16 -7 -17 37 0 62 -19 62 -45 0 -31 23 -24 39 11 10
24 15 25 54 19 l42 -7 -24 26 -24 26 19 35 c21 39 29 43 43 18 6 -10 11 -16
11 -13 1 3 3 17 5 32 l4 27 -58 -30 c-81 -42 -108 -26 -80 48 10 27 11 27 24
9 13 -17 15 -17 21 -3 3 10 13 17 21 17 7 0 13 6 12 13 -3 16 22 67 33 67 11
0 10 -17 -1 -24 -5 -3 -11 -15 -14 -26 -3 -11 -1 -18 3 -15 5 3 13 -3 19 -12
5 -10 13 -14 17 -10 5 5 3 12 -4 16 -9 5 -11 17 -6 36 6 25 10 27 43 21 20 -3
47 -9 60 -13 22 -5 20 -1 -19 51 -39 51 -42 60 -31 78 7 11 10 22 7 25 -3 3 4
23 14 44 26 49 25 50 -10 37 -22 -7 -34 -7 -44 1 -10 8 -16 9 -21 1 -4 -7 -11
-5 -21 4 -17 18 -18 43 -1 49 10 4 10 6 0 6 -7 1 -13 9 -13 18 0 13 -3 14 -11
6 -6 -6 -18 -9 -27 -5 -11 4 -14 1 -9 -11 3 -9 2 -17 -4 -17 -16 0 -27 43 -16
67 8 18 15 21 39 16 32 -6 58 15 35 29 -21 13 25 22 56 10 29 -11 29 -11 25
23 -5 42 -1 43 107 15 76 -19 134 -26 122 -14 -3 3 3 21 14 40 22 41 23 42 7
41 -73 -2 -75 -1 -145 104 l-67 100 77 155 c42 85 72 154 66 154 -5 0 -65 -22
-131 -50 -128 -53 -155 -59 -164 -35 -6 15 17 45 34 45 5 0 15 6 22 14 6 8 18
12 26 9 10 -4 12 0 8 11 -3 9 -1 23 6 31 10 12 10 15 0 15 -8 0 -11 3 -7 6 3
4 24 -1 47 -10 52 -21 52 -21 38 8 -10 24 -4 68 16 117 6 13 -1 18 -32 23 -61
9 -82 46 -54 95 9 15 11 26 4 30 -7 4 -4 29 8 75 11 38 17 73 14 77 -3 5 0 9
5 9 14 0 14 27 1 35 -6 4 -18 1 -27 -7 -15 -12 -15 -11 -5 9 7 12 12 30 12 41
0 11 10 26 22 34 22 15 22 15 -13 22 -24 4 -36 12 -37 24 -5 52 1 109 14 123
8 8 14 20 14 25 0 6 15 14 33 19 43 13 41 29 -5 33 -42 4 -68 26 -50 44 22 22
14 41 -12 34 -14 -3 -28 -2 -31 4 -9 14 -21 12 -40 -6 -9 -9 -35 -19 -59 -21
-38 -5 -45 -2 -74 31 -17 19 -34 52 -38 71 -5 27 -10 35 -21 30 -16 -6 -43 11
-43 26 0 5 6 9 14 9 7 0 19 7 26 15 7 9 19 14 27 11 16 -6 17 6 3 20 -8 8 -2
21 19 43 33 35 51 34 51 -5 0 -21 3 -23 19 -14 14 7 22 7 26 -1 4 -6 14 -8 22
-5 19 8 93 -31 93 -49 0 -15 34 -30 50 -20 5 3 27 -4 50 -15 22 -11 40 -18 40
-16 0 2 -29 73 -65 156 -36 83 -65 154 -65 157 0 3 46 52 102 109 56 57 99
106 96 109 -3 4 -65 7 -137 8 -79 1 -131 6 -131 12 0 18 18 38 28 31 13 -8 22
17 22 66 0 38 2 40 25 36 29 -6 31 -1 10 30 -12 16 -13 26 -5 42 6 11 15 20
21 20 6 0 7 5 4 10 -4 6 1 33 10 60 18 54 23 56 145 63 l44 2 -67 44 c-74 48
-72 39 -43 134 8 26 13 47 10 47 -3 0 -33 -16 -65 -35 -68 -40 -77 -41 -105
-19 -19 15 -19 16 1 9 11 -4 26 -9 33 -12 9 -4 8 5 -4 31 l-18 36 29 30 29 30
-43 0 c-38 0 -43 3 -56 34 -21 50 -32 51 -39 6 -7 -46 -27 -52 -45 -14 -12 28
-6 68 10 59 5 -4 9 -2 9 4 0 5 22 19 49 32 43 19 48 24 38 40 -6 9 -26 20 -44
24 -22 4 -37 14 -42 28 -7 19 -4 23 28 30 20 4 45 6 57 4 11 -2 25 2 31 9 9 9
-1 20 -43 47 -30 20 -63 39 -74 42 -25 8 -27 50 -2 64 10 6 12 11 4 11 -9 0
-11 13 -6 50 7 54 7 55 -16 41z m-25 -514 c-38 -13 -55 6 -29 32 19 19 19 19
37 -2 18 -21 18 -22 -8 -30z m78 -504 c4 -2 7 -20 7 -39 0 -19 6 -43 12 -54 9
-14 10 -22 1 -31 -13 -13 -53 -3 -53 14 0 7 -10 30 -22 53 -27 51 -20 77 19
68 16 -4 31 -9 36 -11z m-198 -642 c-3 -6 -11 -11 -17 -11 -6 0 -6 6 2 15 14
17 26 13 15 -4z m320 -11 c3 -5 2 -10 -4 -10 -5 0 -13 5 -16 10 -3 6 -2 10 4
10 5 0 13 -4 16 -10z m-131 -206 c20 -8 11 -24 -14 -24 -13 0 -17 5 -14 15 7
17 7 17 28 9z m111 -54 c3 -5 -1 -10 -9 -10 -9 0 -16 5 -16 10 0 6 4 10 9 10
6 0 13 -4 16 -10z m-60 -110 c-3 -5 -11 -10 -16 -10 -6 0 -7 5 -4 10 3 6 11
10 16 10 6 0 7 -4 4 -10z m-50 -43 c-5 -17 -12 -24 -21 -20 -19 7 -18 23 3 39
23 16 26 13 18 -19z m-65 -78 c0 -4 -7 -6 -15 -3 -8 4 -15 10 -15 15 0 4 7 6
15 3 8 -4 15 -10 15 -15z m120 -535 c0 -7 -8 -15 -17 -18 -14 -6 -15 -9 -3
-16 21 -13 -4 -38 -36 -34 -35 3 -36 5 -16 46 14 30 22 36 44 35 16 -1 28 -7
28 -13z m-37 -809 c-3 -9 -8 -14 -10 -11 -3 3 -2 9 2 15 9 16 15 13 8 -4z
m-102 -368 c-10 -9 -11 -8 -5 6 3 10 9 15 12 12 3 -3 0 -11 -7 -18z"/>
<path d="M5500 8970 l0 -31 24 18 c23 16 23 19 9 31 -26 19 -33 15 -33 -18z"/>
<path d="M7947 8993 c-5 -4 -14 -8 -20 -8 -7 0 -13 -14 -15 -32 -2 -23 -7 -30
-18 -26 -8 3 -14 0 -14 -6 0 -6 -6 -10 -12 -8 -8 1 -12 -6 -10 -17 3 -14 -1
-17 -12 -13 -9 4 -16 2 -16 -3 0 -5 -27 -10 -61 -12 l-61 -3 45 -34 c28 -20
43 -39 40 -47 -3 -9 2 -14 12 -14 31 0 11 -34 -27 -45 -55 -15 -65 -30 -30
-44 41 -17 39 -64 -6 -109 -31 -32 -34 -52 -8 -52 8 0 20 -7 27 -16 12 -14 14
-14 19 -1 4 14 8 14 28 -1 32 -25 22 -44 -56 -102 l-65 -49 -77 39 c-101 51
-144 59 -159 31 -18 -33 6 -105 55 -164 13 -16 24 -36 24 -46 0 -10 -23 -36
-51 -59 -28 -22 -66 -62 -86 -87 l-35 -47 20 -18 c36 -33 38 -61 8 -87 l-27
-23 31 0 c37 0 50 -25 24 -46 -25 -20 -92 -66 -115 -80 -11 -6 -27 -18 -36
-26 -52 -45 -53 -45 -188 58 -70 53 -129 94 -132 91 -2 -3 9 -55 27 -116 17
-60 37 -133 44 -161 l13 -51 -69 -59 c-65 -57 -98 -73 -98 -50 0 13 -52 1 -62
-14 -4 -6 -5 -19 -2 -28 3 -10 -1 -28 -8 -40 -7 -13 -11 -29 -10 -36 2 -7 -5
-26 -15 -43 -16 -27 -22 -30 -48 -24 -16 4 -54 7 -82 8 -29 0 -53 3 -53 6 0
15 -31 195 -34 198 -2 2 -27 -37 -56 -86 l-53 -90 -46 6 c-25 3 -74 11 -108
18 -35 7 -63 10 -63 7 0 -7 67 -89 107 -130 31 -33 35 -62 7 -62 -8 0 -14 -5
-14 -11 0 -7 -9 -5 -24 5 -14 9 -27 12 -30 7 -3 -5 4 -11 15 -14 12 -3 18 -10
14 -16 -3 -6 -11 -9 -16 -6 -12 8 -11 -2 3 -25 10 -16 9 -28 -4 -65 -9 -25
-14 -45 -10 -45 10 0 98 34 152 59 l45 20 73 -77 74 -77 -6 98 c-6 93 -5 99
14 104 11 3 20 14 20 24 0 10 9 23 20 29 16 8 20 8 20 -4 0 -8 -6 -21 -13 -28
-13 -12 -37 -71 -37 -89 0 -4 28 5 63 21 l62 29 46 -52 46 -51 6 74 c8 80 23
104 89 131 30 12 37 29 13 29 -8 0 -15 4 -15 9 0 5 -8 7 -18 5 -9 -3 -28 -1
-42 5 -23 9 -22 10 15 11 25 0 35 3 27 8 -15 10 -7 38 14 46 8 3 14 10 14 15
0 6 -6 8 -14 5 -8 -3 -17 0 -21 6 -5 8 10 10 52 8 47 -2 58 -6 57 -19 -1 -15
2 -15 31 -3 46 19 52 9 125 -196 23 -63 43 -116 45 -118 2 -2 27 69 55 157
l52 161 161 0 161 0 -32 33 c-20 20 -41 61 -57 107 -14 40 -24 74 -22 75 34
21 114 95 103 95 -24 0 -19 15 9 34 23 15 27 15 51 -1 l26 -17 -6 40 c-6 33
-3 43 13 59 21 18 28 36 14 34 -34 -5 -53 3 -59 26 -14 58 47 75 73 21 9 -19
21 -32 28 -30 7 3 15 -2 18 -10 10 -27 24 -18 31 19 4 21 13 35 22 35 12 0 13
4 4 20 -16 29 -2 107 23 130 17 16 18 22 7 35 -10 12 -10 15 1 15 8 0 70 7
139 15 69 8 129 15 133 15 21 0 -13 23 -139 95 l-136 77 6 37 c4 20 9 72 12
116 9 117 17 151 37 147 18 -3 24 14 7 20 -7 2 -6 10 2 21 11 15 18 16 41 8
16 -6 42 -11 58 -11 36 0 39 26 8 76 l-20 33 32 48 c18 27 46 60 61 75 l29 27
-48 6 c-133 17 -119 8 -145 92 -12 41 -27 71 -31 66z m-94 -394 c-8 -8 -13 -8
-17 0 -4 6 -2 11 4 11 6 0 8 6 4 13 -6 10 -4 10 7 0 9 -10 10 -16 2 -24z
m-243 -601 c0 -4 -4 -8 -9 -8 -5 0 -11 -8 -15 -17 -3 -10 -8 -23 -11 -29 -4
-8 6 -9 35 -4 22 4 43 4 45 -1 8 -12 8 -146 0 -158 -3 -6 -19 -11 -36 -11 -36
0 -36 -6 -3 -41 22 -23 24 -31 17 -60 -8 -28 -14 -35 -40 -37 -17 -2 -37 3
-45 12 -21 20 -11 66 15 75 21 8 21 8 -1 20 -14 7 -22 21 -22 38 0 25 -1 25
-19 9 -17 -15 -20 -15 -41 2 -19 15 -21 22 -12 38 6 10 12 15 12 9 1 -5 7 6
14 25 9 25 20 36 37 38 51 6 55 13 18 32 -31 16 -35 23 -31 48 4 28 7 30 48
29 24 0 44 -4 44 -9z m-138 -10 c-8 -8 -17 -8 -34 0 -22 10 -21 11 12 11 26 1
31 -2 22 -11z m28 -278 c0 -5 -4 -10 -10 -10 -5 0 -10 5 -10 10 0 6 5 10 10
10 6 0 10 -4 10 -10z m-607 -402 c7 -23 -2 -29 -25 -17 -18 10 -19 8 -13 -13
6 -22 6 -22 -9 -4 -9 11 -16 28 -16 38 0 25 57 22 63 -4z"/>
<path d="M5652 8850 c-51 -58 -82 -69 -82 -32 0 12 -3 13 -11 5 -9 -9 -21 -7
-50 8 -21 10 -43 19 -48 19 -9 0 18 -59 57 -122 16 -26 16 -29 0 -55 -9 -16
-24 -28 -32 -28 -8 0 -26 -14 -40 -30 -27 -31 -27 -31 -43 -1 -10 19 -11 18
-22 -2 -7 -12 -18 -22 -26 -22 -8 0 -15 -4 -15 -10 0 -5 9 -10 21 -10 25 0 61
-18 72 -37 5 -8 16 -12 25 -9 26 8 47 -9 34 -25 -7 -8 -38 -48 -70 -89 -64
-81 -86 -103 -110 -106 -8 -2 -78 8 -155 22 -76 14 -146 24 -155 22 -10 -2 18
-40 87 -116 56 -62 101 -116 99 -120 -2 -4 -18 -28 -36 -52 -46 -62 -134 -202
-130 -205 2 -2 55 12 118 31 133 39 130 39 130 19 0 -8 9 -15 20 -15 11 0 26
-12 35 -29 22 -43 30 -45 71 -17 44 30 49 27 139 -65 l60 -62 5 29 c5 26 6 27
13 9 8 -19 9 -19 22 -2 16 22 9 50 -11 43 -20 -8 -25 8 -13 42 7 21 15 29 25
25 12 -4 14 0 8 21 -4 19 -2 26 8 26 8 0 21 18 28 40 12 37 12 42 -9 64 -20
21 -21 25 -7 39 14 13 86 44 209 88 20 7 37 16 37 20 0 3 -28 12 -62 19 -35 6
-88 20 -118 30 -30 10 -77 22 -105 26 l-50 9 -6 50 c-4 28 -2 54 2 60 5 5 9
-5 10 -25 0 -35 0 -35 16 -12 9 13 26 22 40 22 22 0 24 3 19 25 -4 15 -2 25 4
25 6 0 8 5 5 10 -3 6 -14 10 -23 10 -10 0 -24 10 -32 23 l-14 22 -6 -29 c-13
-71 -40 -24 -40 70 0 46 -11 62 -29 40 -9 -11 -17 -11 -36 -2 -14 6 -25 14
-25 17 0 6 100 39 121 39 9 0 35 -30 60 -67 44 -67 44 -67 50 -38 4 17 7 53 8
82 l1 52 78 24 77 24 -72 36 -72 37 -3 84 -3 85 -53 -59z"/>
<path d="M7707 8759 c4 -13 8 -18 11 -10 2 7 -1 18 -6 23 -8 8 -9 4 -5 -13z"/>
<path d="M5410 8761 c0 -6 5 -13 10 -16 6 -4 7 -12 3 -18 -12 -19 -11 -49 0
-38 7 7 15 7 22 1 9 -8 14 0 18 26 4 21 4 41 1 46 -7 11 -54 10 -54 -1z"/>
<path d="M5344 8674 c3 -9 6 -17 6 -19 0 -2 9 -1 20 2 16 4 18 8 9 19 -16 20
-43 18 -35 -2z"/>
<path d="M9384 8520 c0 -11 6 -20 13 -20 8 0 17 -8 21 -17 6 -17 9 -16 30 4
l23 21 -32 16 c-42 21 -55 20 -55 -4z"/>
<path d="M7612 8474 c-13 -6 -19 -14 -14 -18 6 -3 8 -16 4 -29 -5 -20 -4 -21
12 -8 13 11 20 11 28 3 17 -17 28 -15 21 3 -3 9 2 22 13 30 18 14 18 14 -8 15
-14 0 -28 4 -30 8 -1 4 -14 3 -26 -4z"/>
<path d="M7702 8450 c-7 -12 -8 -20 -2 -20 5 0 10 -10 10 -22 0 -20 1 -20 19
-4 10 9 21 27 23 40 6 29 -32 34 -50 6z"/>
<path d="M9438 8398 c-24 -19 -31 -20 -54 -9 -34 15 -38 10 -22 -24 11 -25 10
-29 -10 -43 -25 -16 -29 -32 -8 -32 18 0 40 -27 28 -34 -5 -3 -9 -16 -9 -30 0
-22 1 -23 26 -10 24 13 28 12 53 -16 29 -31 32 -31 42 13 5 23 11 27 43 27
l36 0 -23 25 c-19 20 -22 31 -16 65 6 41 6 41 -16 26 -38 -27 -51 -21 -46 24
2 22 3 40 3 39 0 0 -12 -10 -27 -21z"/>
<path d="M9334 8159 c0 -20 11 -25 20 -10 3 5 0 13 -7 19 -10 8 -13 6 -13 -9z"/>
<path d="M9324 8068 c-4 -6 -3 -8 4 -4 18 11 26 -16 8 -29 -14 -11 -13 -13 15
-19 17 -3 44 -6 60 -6 21 0 29 -5 29 -17 0 -15 1 -15 14 2 8 11 19 16 30 12
14 -5 15 -3 6 13 -5 10 -7 27 -4 37 4 12 -2 9 -18 -10 -20 -23 -29 -26 -57
-21 -30 6 -32 9 -17 19 23 17 20 26 -8 19 -13 -3 -27 -1 -30 5 -9 14 -23 14
-32 -1z"/>
<path d="M9261 8039 c-13 -5 -22 -11 -20 -14 8 -7 49 7 49 16 0 5 -1 9 -2 8
-2 0 -14 -5 -27 -10z"/>
<path d="M9220 7995 c0 -8 4 -15 10 -15 5 0 7 7 4 15 -4 8 -8 15 -10 15 -2 0
-4 -7 -4 -15z"/>
<path d="M9492 7945 c4 -23 48 -54 48 -34 0 8 -12 22 -26 33 -24 17 -26 17
-22 1z"/>
<path d="M9464 7878 c-3 -4 6 -8 20 -8 14 0 26 4 26 8 0 4 -9 8 -21 8 -11 0
-23 -4 -25 -8z"/>
<path d="M9228 7793 c-2 -20 1 -34 9 -37 7 -3 13 -12 13 -20 0 -8 4 -16 10
-18 6 -2 7 -24 3 -55 -6 -52 -6 -53 -39 -53 -23 0 -37 6 -44 19 -5 11 -17 26
-25 35 -12 12 -13 20 -3 40 14 32 4 44 -22 28 -27 -16 -47 -15 -54 3 -9 25
-26 17 -33 -15 -4 -21 -16 -36 -37 -47 -31 -16 -31 -16 -8 -26 25 -11 26 -15
12 -37 -7 -11 -29 -15 -90 -15 -44 0 -80 -1 -80 -2 0 -1 21 -22 46 -46 l47
-43 -33 -21 -32 -20 26 -7 c14 -3 27 -12 27 -19 1 -6 2 -36 3 -65 3 -65 17
-83 45 -58 24 21 61 16 90 -13 16 -16 18 -26 11 -55 -9 -43 -2 -45 40 -9 27
22 35 25 51 15 12 -8 19 -8 19 -2 0 5 7 10 15 10 8 0 12 6 9 15 -8 20 32 28
84 17 42 -10 42 -10 36 17 -4 14 -15 43 -25 63 -11 21 -19 43 -19 51 0 7 23
38 50 69 32 36 51 67 52 85 1 15 9 34 18 41 12 10 8 11 -25 6 -22 -4 -44 -12
-48 -18 -6 -7 -7 -4 -3 7 3 10 6 21 6 23 0 2 9 4 20 4 30 0 25 11 -32 61 -46
41 -51 48 -39 63 7 9 11 16 7 16 -3 0 -2 10 3 23 8 20 6 22 -24 23 -30 0 -34
-3 -37 -33z"/>
<path d="M5430 7810 c0 -5 -7 -10 -15 -10 -8 0 -15 -3 -15 -7 0 -5 11 -8 23
-8 18 0 23 5 19 18 -5 19 -12 23 -12 7z"/>
<path d="M5300 7783 c0 -13 5 -23 10 -23 13 0 13 11 0 30 -8 12 -10 11 -10 -7z"/>
<path d="M5525 7730 c-3 -5 -1 -10 4 -10 6 0 11 5 11 10 0 6 -2 10 -4 10 -3 0
-8 -4 -11 -10z"/>
<path d="M5602 7710 c-16 -27 -15 -30 8 -30 15 0 20 7 20 25 0 30 -11 32 -28
5z"/>
<path d="M5366 7712 c-3 -5 -16 -8 -29 -4 -18 5 -20 3 -10 -9 7 -8 10 -25 6
-37 -4 -16 -1 -22 12 -22 10 0 24 -8 31 -17 12 -17 13 -16 14 4 0 13 8 24 21
28 27 9 40 -4 32 -33 -4 -18 -8 -20 -19 -11 -12 9 -14 4 -14 -30 0 -34 -4 -43
-25 -53 -22 -10 -24 -16 -20 -59 3 -38 0 -49 -11 -49 -20 0 -17 -14 7 -36 15
-13 18 -25 13 -44 -3 -14 -7 -41 -9 -62 l-2 -36 25 29 c13 17 27 28 29 25 3
-3 -4 -15 -16 -27 -16 -17 -18 -26 -10 -41 6 -11 9 -28 6 -37 -3 -14 2 -18 27
-18 17 0 36 7 43 16 10 13 8 19 -9 32 -12 9 -23 25 -24 35 -2 10 -5 28 -9 41
-6 25 4 30 23 11 9 -9 12 -6 12 15 0 15 5 27 10 27 6 0 10 -5 10 -11 0 -8 5
-7 15 1 9 7 13 15 10 18 -3 3 1 12 8 20 9 13 9 14 0 8 -8 -4 -13 -2 -13 7 0 8
-9 17 -20 20 -11 3 -20 11 -20 17 0 7 7 10 16 6 15 -6 15 -4 -1 20 -9 15 -13
24 -7 20 5 -3 15 1 22 9 7 9 21 13 31 10 11 -4 19 -2 19 4 0 6 -4 11 -9 11 -4
0 -7 10 -7 23 1 12 -5 30 -13 40 -13 16 -13 19 -1 27 12 8 12 10 2 10 -10 0
-12 8 -7 30 5 25 4 29 -9 24 -11 -4 -16 0 -16 12 0 15 -2 16 -9 5 -12 -19 -61
-6 -82 21 -10 13 -19 17 -23 10z m111 -218 c-3 -3 -12 -4 -19 -1 -8 3 -5 6 6
6 11 1 17 -2 13 -5z"/>
<path d="M5674 7659 c-3 -6 -1 -16 5 -22 8 -8 11 -5 11 11 0 24 -5 28 -16 11z"/>
<path d="M5579 7505 c-1 -3 -2 -11 -3 -17 -1 -7 -9 -12 -19 -10 -24 4 -21 -15
4 -23 16 -6 20 -13 17 -36 -3 -20 0 -29 9 -29 7 0 13 5 13 11 0 7 10 9 25 7
23 -5 25 -2 23 26 -1 18 2 37 6 44 5 8 -1 12 -18 12 -14 0 -28 5 -31 10 -6 10
-24 14 -26 5z"/>
<path d="M5691 7439 c-8 -22 -24 -100 -25 -124 -1 -17 -39 -18 -48 -1 -13 23
-26 20 -30 -6 -2 -14 -15 -29 -35 -38 -41 -19 -39 -47 4 -65 30 -13 33 -18 33
-55 0 -37 2 -41 23 -38 20 3 22 -1 20 -39 -2 -40 8 -56 22 -33 4 6 15 6 30 0
16 -6 25 -6 25 0 0 6 7 10 15 10 8 0 15 -4 15 -9 0 -6 11 -22 24 -36 22 -23
25 -24 34 -9 6 11 11 13 16 5 9 -14 63 -14 72 0 3 6 15 8 26 6 14 -4 18 -2 14
9 -3 9 -1 12 4 9 6 -3 10 3 10 14 0 25 15 27 28 5 8 -15 11 -15 31 5 11 11 29
21 39 21 30 0 33 11 7 32 -20 16 -23 23 -15 44 9 22 8 24 -9 14 -28 -15 -31
-13 -31 18 -1 23 -2 25 -13 11 -7 -9 -18 -14 -24 -12 -8 3 -13 -4 -13 -15 0
-28 -8 -31 -41 -15 -35 17 -38 39 -6 49 29 9 38 24 26 46 -9 18 -43 19 -69 3
-21 -13 -9 8 40 68 27 33 48 62 47 63 -1 2 -34 -6 -72 -16 -39 -11 -73 -20
-77 -20 -3 0 -17 17 -29 38 -12 20 -31 48 -41 61 l-18 23 -9 -23z m184 -339
c3 -6 -1 -7 -9 -4 -18 7 -21 14 -7 14 6 0 13 -4 16 -10z"/>
<path d="M8810 7351 c-20 -8 -24 -51 -5 -51 8 0 19 -8 24 -17 9 -16 10 -16 11
4 0 12 4 23 9 25 5 2 2 12 -8 24 -9 12 -23 18 -31 15z"/>
<path d="M3823 7334 c3 -4 3 -14 -2 -23 -5 -11 -2 -22 11 -33 10 -10 18 -13
18 -8 0 6 6 10 14 10 16 0 16 30 -1 48 -6 6 -19 12 -29 12 -10 0 -14 -3 -11
-6z"/>
<path d="M3903 7323 c-18 -7 4 -46 22 -39 10 3 12 0 9 -12 -5 -14 -3 -13 10 2
14 18 14 21 -1 38 -17 19 -20 20 -40 11z"/>
<path d="M3765 7259 c-4 -6 -5 -13 -2 -16 7 -7 27 6 27 18 0 12 -17 12 -25 -2z"/>
<path d="M8590 7183 c0 -10 -5 -24 -11 -30 -8 -8 -6 -13 8 -17 15 -5 19 -15
17 -49 -3 -58 -2 -57 -19 -51 -9 4 -15 0 -15 -10 0 -10 -9 -16 -24 -16 -14 0
-28 -5 -32 -12 -5 -8 2 -9 24 -5 17 4 34 2 37 -3 3 -6 1 -10 -4 -10 -6 0 -11
-7 -11 -15 0 -9 6 -12 15 -9 8 4 15 1 15 -5 0 -16 -43 -23 -73 -12 -20 8 -26
8 -22 0 4 -6 -2 -19 -14 -30 -26 -24 -31 -24 -31 1 0 11 -5 20 -11 20 -7 0
-18 8 -25 18 -12 16 -13 15 -14 -5 0 -12 -7 -34 -14 -50 -8 -15 -18 -37 -21
-48 -4 -12 -9 -15 -13 -9 -4 6 -23 14 -42 18 -63 12 -67 20 -27 59 21 19 37
39 37 46 0 14 -76 15 -85 1 -10 -16 -25 -1 -25 24 0 27 -21 48 -37 38 -11 -7
-102 -7 -133 0 -11 2 -15 -7 -16 -32 -1 -39 -20 -124 -34 -149 -10 -20 -2 -35
23 -44 19 -7 22 -24 8 -46 -8 -12 -22 -8 -82 23 -39 21 -69 32 -66 24 80 -188
85 -206 55 -180 -9 7 -18 7 -30 -2 -15 -11 -15 -13 2 -24 14 -9 20 -8 23 1 8
22 15 2 10 -26 -5 -28 -6 -28 -62 -22 -31 4 -65 9 -75 12 -18 5 -18 4 1 -23
12 -16 30 -37 41 -47 11 -11 18 -25 15 -33 -3 -9 1 -14 12 -14 11 0 15 -6 11
-17 -28 -101 -42 -140 -53 -154 -7 -8 -13 -19 -13 -22 0 -4 44 -7 98 -7 53 0
104 -4 112 -10 9 -5 17 -5 20 0 3 5 23 -4 44 -22 28 -23 37 -37 33 -54 -4 -20
-1 -22 24 -17 23 4 31 -1 56 -34 15 -22 41 -67 57 -101 31 -65 46 -78 46 -39
0 12 4 29 10 37 8 12 10 12 16 -3 3 -10 -22 -107 -61 -232 -37 -119 -66 -218
-63 -220 2 -2 80 43 173 100 93 58 172 105 176 105 4 0 22 -6 41 -14 l34 -15
-6 -55 c-3 -31 -3 -56 1 -56 4 0 19 15 33 33 23 29 26 30 26 10 0 -21 1 -21
30 -7 33 17 52 11 48 -14 -2 -11 5 -18 20 -20 12 -2 22 -7 22 -12 0 -4 -9 -6
-20 -3 -15 4 -20 0 -20 -15 0 -11 -3 -28 -6 -37 -5 -11 -2 -16 7 -15 29 4 34
-1 35 -34 0 -32 -2 -34 -40 -43 l-41 -9 43 -29 42 -30 -6 -60 -6 -60 40 38 40
39 41 -26 40 -26 -6 31 c-5 24 0 36 23 60 17 17 37 28 49 27 15 -2 20 3 20 19
0 11 3 25 8 29 12 13 8 34 -8 34 -15 0 -40 38 -31 47 3 3 13 2 23 -2 18 -8 62
-7 76 2 5 3 -7 12 -25 21 -27 14 -33 23 -34 52 -1 19 -2 39 -3 43 0 5 -15 -3
-31 -17 -36 -30 -55 -26 -70 17 -10 28 -8 34 11 50 l22 18 -21 15 c-20 14 -20
16 -6 50 17 41 9 58 -31 68 -17 4 -27 17 -34 44 -20 70 -42 48 257 266 50 37
92 72 92 77 0 5 -12 9 -27 9 -46 1 -423 37 -427 41 -7 7 -96 293 -115 370
l-19 73 27 33 c29 37 32 37 119 19 34 -7 62 -12 62 -11 0 1 -16 29 -35 61 -19
32 -35 60 -35 63 0 23 95 131 114 131 25 0 25 15 1 27 -18 8 -24 8 -22 -1 1
-6 -4 -10 -12 -8 -8 2 -17 -1 -20 -6 -3 -4 -32 -19 -64 -31 -64 -26 -87 -19
-87 26 0 14 -4 21 -10 18 -11 -7 -30 9 -47 39 -7 14 -7 26 3 44 13 26 9 56 -7
46 -6 -3 -16 0 -24 6 -12 10 -15 9 -15 -7z m-113 -325 c36 -16 54 -39 47 -60
-6 -21 -4 -21 30 -8 29 11 28 16 28 -90 0 -54 -7 -81 -40 -158 -22 -52 -43
-96 -46 -99 -3 -3 -17 2 -31 11 -20 13 -24 22 -19 41 6 26 -4 33 -23 14 -6 -6
-21 -8 -33 -4 -19 6 -21 12 -16 48 3 23 8 81 12 130 3 48 10 87 14 87 4 0 5
23 2 50 -4 48 -4 50 21 50 14 0 39 -6 54 -12z m-197 -55 c0 -17 -19 -35 -29
-29 -18 12 -12 36 9 36 11 0 20 -3 20 -7z m-172 -88 c17 -37 15 -48 -5 -36
-46 26 -47 29 -34 45 18 22 26 20 39 -9z m113 8 c10 -10 8 -18 -12 -39 l-24
-26 -12 29 c-7 15 -12 33 -13 38 0 15 46 13 61 -2z m789 -1137 c0 -15 -7 -26
-20 -29 -23 -6 -28 21 -8 41 18 18 28 14 28 -12z m-120 -48 c0 -5 -9 -4 -20 2
-11 6 -18 15 -14 21 6 11 34 -7 34 -23z m5 -38 c-3 -5 -10 -10 -16 -10 -5 0
-9 5 -9 10 0 6 7 10 16 10 8 0 12 -4 9 -10z m65 -11 c0 -5 -4 -9 -10 -9 -5 0
-10 7 -10 16 0 8 5 12 10 9 6 -3 10 -10 10 -16z"/>
<path d="M8427 6789 c7 -7 15 -10 18 -7 3 3 -2 9 -12 12 -14 6 -15 5 -6 -5z"/>
<path d="M8461 7018 c0 -7 4 -22 9 -33 7 -17 9 -15 9 13 1 17 -3 32 -9 32 -5
0 -10 -6 -9 -12z"/>
<path d="M7073 6086 l-98 -114 -5 58 -5 59 -52 -39 -52 -40 -92 45 c-51 25
-94 43 -96 41 -3 -2 3 -18 11 -35 9 -16 16 -37 16 -46 0 -8 10 -36 22 -61 l21
-47 -34 -28 c-19 -16 -40 -29 -47 -29 -9 0 -11 -11 -8 -37 3 -21 3 -30 0 -20
-5 16 -7 15 -24 -5 -15 -19 -20 -20 -34 -9 -9 7 -16 9 -16 3 0 -5 7 -15 15
-22 9 -7 13 -20 10 -28 -3 -8 3 -16 15 -19 11 -3 20 -10 20 -15 0 -5 8 -7 19
-3 10 3 24 -1 31 -10 7 -8 8 -15 3 -15 -5 0 -10 -6 -11 -12 -4 -45 -22 -101
-36 -117 -9 -9 -16 -20 -16 -24 0 -3 30 -3 68 0 64 5 71 4 147 -35 109 -54
125 -69 132 -120 6 -46 6 -46 33 -32 15 8 24 1 56 -40 21 -28 45 -50 54 -50 9
0 25 -7 36 -15 18 -14 18 -15 0 -9 -15 6 -17 3 -11 -14 3 -12 2 -22 -3 -22 -5
0 -14 -12 -21 -26 l-11 -26 -32 27 c-25 21 -39 26 -67 22 -21 -2 -45 2 -57 10
-21 13 -21 12 -27 -70 -7 -95 5 -162 33 -186 14 -12 25 -58 50 -211 17 -107
34 -202 36 -212 4 -12 -65 -70 -263 -220 -147 -111 -272 -206 -277 -210 -6 -4
-8 -9 -6 -12 3 -2 148 -15 323 -27 264 -19 318 -26 321 -39 4 -12 116 -504
141 -618 6 -25 4 -27 -75 -39 l-55 -8 190 -159 c105 -88 197 -166 205 -174 13
-13 6 -14 -62 -8 -43 3 -78 2 -78 -2 0 -5 16 -24 36 -43 20 -18 48 -50 64 -69
l28 -36 -34 -194 c-18 -107 -34 -203 -34 -214 0 -17 1 -17 23 -2 38 28 219
116 239 116 10 0 18 -7 18 -15 0 -8 9 -19 20 -25 19 -10 21 -18 21 -87 0 -35
7 -41 27 -21 9 9 16 8 30 -5 26 -24 32 -21 26 12 -5 23 -2 29 17 34 31 8 33 4
36 -57 l2 -53 -154 -74 c-85 -40 -153 -74 -152 -75 3 -4 171 -34 262 -48 l80
-12 26 -142 c15 -79 29 -145 31 -147 4 -4 119 156 180 249 5 8 17 6 38 -6 16
-9 30 -13 30 -8 0 6 16 10 35 10 33 0 35 -2 35 -32 0 -17 -23 -126 -51 -242
-28 -116 -54 -222 -57 -235 -3 -17 65 37 248 197 l252 220 62 -33 c33 -18 141
-76 238 -129 181 -98 214 -110 204 -78 -3 9 -30 106 -61 215 -48 170 -55 207
-52 265 2 49 5 61 11 45 5 -13 12 -21 15 -18 9 5 7 33 -4 58 -5 13 -2 22 11
32 62 44 61 42 40 58 -17 13 -16 15 20 50 22 20 44 37 51 37 6 0 32 -12 57
-27 38 -23 45 -33 46 -58 0 -39 -25 -75 -53 -76 -22 0 -22 0 1 -10 15 -6 21
-13 15 -21 -4 -7 -8 -34 -8 -59 l0 -47 41 24 c26 15 48 22 59 17 14 -5 16 -3
10 7 -6 10 -1 12 26 8 22 -4 42 -1 54 8 18 14 18 14 -2 14 -31 0 -33 22 -5 44
24 19 25 19 69 -3 24 -12 41 -26 38 -31 -3 -5 7 -12 22 -16 41 -10 44 -13 33
-35 -9 -17 -7 -19 18 -19 16 0 37 -9 47 -20 10 -11 24 -20 32 -20 7 0 13 -4
13 -10 0 -22 17 -8 29 25 8 23 19 35 31 35 15 0 25 -21 51 -105 18 -57 35
-102 39 -100 3 2 26 50 50 105 l43 102 121 -7 121 -6 -90 85 -90 85 37 108
c20 59 36 109 34 110 -1 2 -48 -22 -104 -53 l-101 -56 -36 29 c-19 15 -35 33
-35 39 0 7 -7 15 -16 18 -10 4 -14 14 -11 26 3 12 0 20 -8 20 -19 0 -38 27
-25 35 15 9 12 25 -4 25 -8 0 -17 6 -19 13 -4 9 -6 9 -6 0 -1 -7 -11 -13 -22
-13 -16 0 -20 5 -16 20 3 13 0 20 -10 20 -11 0 -14 7 -9 24 4 16 1 26 -9 30
-9 3 -15 0 -15 -9 0 -8 -9 -15 -19 -15 -11 0 -23 -4 -26 -10 -3 -5 -1 -10 6
-10 8 0 9 -3 0 -13 -8 -11 -5 -17 14 -27 14 -7 25 -20 26 -29 0 -11 2 -12 6
-3 6 14 53 17 53 2 0 -5 -6 -10 -14 -10 -7 0 -19 -7 -26 -15 -14 -17 -95 -22
-85 -5 4 6 -7 13 -23 16 -25 5 -35 16 -57 66 -18 40 -24 63 -17 70 17 17 45 4
55 -27 12 -38 11 -37 31 -29 9 4 15 13 12 20 -3 7 -1 16 5 19 5 4 18 24 29 46
12 23 27 39 38 39 20 -1 56 -46 47 -60 -3 -6 -2 -10 4 -10 6 0 17 -12 25 -27
l14 -28 7 27 c4 16 5 34 2 42 -8 20 18 40 43 33 22 -6 26 3 8 21 -11 11 -15
30 -25 131 -4 49 -3 56 18 72 13 10 35 19 47 19 l24 0 -29 34 c-15 19 -35 35
-43 36 -8 0 -25 8 -38 18 l-23 18 35 77 c19 42 33 77 30 77 -2 0 -28 -13 -57
-30 -30 -16 -56 -30 -60 -30 -3 0 -7 21 -9 48 l-3 47 -28 -47 c-31 -51 -36
-52 -96 -11 -29 20 -29 26 -1 25 3 0 16 -3 28 -7 23 -7 24 -7 7 19 -17 25 -17
28 0 46 18 19 17 20 -10 20 -15 0 -34 8 -41 18 -13 16 -14 16 -20 -5 -3 -11
-15 -24 -27 -27 -21 -5 -21 -6 -2 -20 19 -14 19 -14 0 -76 -11 -34 -26 -65
-32 -67 -7 -3 -13 -11 -13 -19 0 -8 -6 -14 -13 -14 -7 0 -22 -7 -33 -15 -14
-11 -16 -17 -7 -23 10 -6 7 -16 -12 -42 -14 -19 -25 -37 -25 -42 0 -4 20 -13
45 -19 33 -8 45 -16 45 -30 0 -11 5 -19 10 -19 6 0 10 -4 10 -10 0 -5 -9 -10
-19 -10 -19 0 -35 25 -26 40 3 4 -2 10 -10 14 -19 7 -27 -8 -20 -37 5 -18 0
-31 -16 -46 -20 -18 -20 -21 -5 -21 30 0 8 -17 -40 -30 l-47 -13 48 -24 c42
-22 46 -27 40 -51 -4 -15 -9 -29 -11 -31 -6 -6 -466 -62 -470 -58 -2 2 -49
122 -104 267 -91 242 -113 291 -123 279 -2 -2 -43 -125 -91 -274 -48 -148 -90
-272 -93 -275 -2 -3 -9 -5 -14 -5 -5 0 -17 -16 -27 -35 -13 -27 -27 -37 -62
-48 -25 -7 -59 -11 -77 -8 -17 2 -33 0 -35 -6 -2 -5 -19 -10 -37 -11 -33 -2
-34 0 -56 63 -41 121 -42 114 18 151 l52 33 -67 15 -67 14 -21 63 -22 64 181
191 c100 105 181 194 181 198 0 3 -111 6 -246 6 l-245 0 -76 210 c-41 116 -81
226 -89 245 -7 19 -19 49 -25 65 l-11 30 -13 -40 c-12 -37 -14 -38 -20 -17 -5
15 -13 21 -23 17 -8 -3 -19 0 -23 7 -5 7 -22 13 -38 14 -17 1 -28 -2 -26 -7 8
-12 -34 -32 -52 -25 -14 6 -15 -1 -10 -42 5 -46 4 -49 -25 -66 -45 -27 -53 -9
-25 55 13 30 32 73 42 97 12 29 23 41 33 37 7 -3 31 -5 53 -5 30 0 39 -4 39
-17 1 -16 2 -16 16 2 14 19 29 20 269 24 140 2 255 6 255 10 1 3 -103 107
-230 231 l-231 225 115 315 c149 409 140 370 69 324 -32 -20 -90 -57 -129 -81
l-71 -44 -58 16 c-50 15 -59 22 -73 53 -8 21 -16 55 -17 77 -1 22 -5 47 -8 55
-3 8 -8 41 -12 73 -5 41 -11 57 -21 57 -8 0 -12 5 -9 10 4 6 -10 10 -34 10
-34 0 -41 3 -41 20 0 13 11 25 33 33 l32 14 -40 20 c-71 37 -105 89 -105 159
0 40 22 89 44 97 12 5 10 12 -12 34 -15 15 -44 41 -65 56 -41 31 -100 102
-133 162 l-21 38 -27 -54 -26 -54 6 173 c4 94 4 172 1 172 -3 0 -49 -51 -104
-114z m-378 -266 c-3 -5 -10 -10 -16 -10 -5 0 -9 5 -9 10 0 6 7 10 16 10 8 0
12 -4 9 -10z m79 -51 c-3 -6 0 -15 7 -20 20 -12 -2 -30 -29 -23 -15 4 -22 14
-22 30 0 19 5 24 26 24 16 0 23 -4 18 -11z m-24 -69 c0 -5 -7 -10 -16 -10 -8
0 -12 5 -9 10 3 6 10 10 16 10 5 0 9 -4 9 -10z m430 -625 c-10 -12 -10 -15 3
-15 21 0 27 -22 12 -50 l-13 -23 -27 27 -27 27 23 25 c24 26 50 34 29 9z m70
-121 c0 -8 -4 -12 -10 -9 -5 3 -10 13 -10 21 0 8 5 12 10 9 6 -3 10 -13 10
-21z m406 -1058 c9 -10 11 -17 4 -21 -12 -7 -40 12 -40 26 0 14 20 11 36 -5z
m-104 -143 c46 1 48 -1 63 -59 l12 -47 22 46 c20 41 27 47 53 47 27 0 30 -3
24 -22 -3 -13 -15 -63 -26 -111 -23 -103 -27 -112 -45 -97 -9 8 -14 5 -18 -10
-3 -13 -11 -18 -20 -14 -19 7 -12 -29 9 -47 20 -16 18 -23 -13 -41 -28 -16
-278 -47 -289 -35 -6 6 23 79 107 268 43 96 65 136 73 130 6 -5 28 -9 48 -8z
m1893 -1100 c-4 -10 -10 -26 -12 -35 -3 -10 -14 -18 -24 -18 -13 0 -17 5 -12
18 8 23 34 52 46 52 5 0 6 -8 2 -17z m355 -17 c0 -3 -4 -8 -10 -11 -5 -3 -10
-1 -10 4 0 6 5 11 10 11 6 0 10 -2 10 -4z m-1720 -41 c11 -13 8 -15 -13 -15
-19 0 -25 4 -21 15 4 8 10 15 14 15 4 0 13 -7 20 -15z m-175 -114 c3 -5 -4
-13 -16 -16 -23 -8 -34 -1 -24 14 8 13 32 14 40 2z m1825 -36 c0 -26 -14 -33
-25 -15 -9 14 1 40 15 40 5 0 10 -11 10 -25z m-6 -86 c-8 -13 -24 -1 -24 18 0
13 3 13 15 3 8 -7 12 -16 9 -21z m-259 -88 c-3 -6 -11 -11 -17 -11 -6 0 -6 6
2 15 14 17 26 13 15 -4z"/>
<path d="M5696 6145 c-9 -24 3 -43 24 -38 21 6 22 20 3 40 -15 17 -20 16 -27
-2z"/>
<path d="M6359 6128 c-25 -19 -28 -19 -58 -4 -33 18 -37 13 -21 -28 7 -20 6
-24 -5 -19 -8 3 -15 13 -15 22 0 9 -6 5 -15 -13 -18 -33 -19 -39 -5 -31 6 3
10 1 10 -6 0 -7 -10 -9 -25 -7 -21 4 -23 3 -14 -13 7 -15 6 -19 -6 -19 -9 0
-19 -8 -22 -17 -7 -19 -28 -43 -37 -43 -3 0 -6 11 -6 24 0 13 -3 38 -6 55 -6
30 -8 31 -25 15 -14 -12 -28 -14 -61 -9 -34 6 -40 4 -31 -5 6 -7 9 -19 6 -26
-3 -8 1 -14 11 -14 9 0 16 -4 16 -8 0 -5 -7 -9 -15 -9 -8 0 -15 5 -15 10 0 5
-11 6 -25 3 -14 -4 -46 2 -76 14 -43 16 -54 17 -63 6 -17 -21 -46 -28 -46 -11
0 9 -6 12 -17 8 -11 -4 -15 -2 -10 3 5 5 19 9 30 9 12 0 22 6 22 13 0 7 7 17
15 22 12 8 12 10 -3 16 -9 3 -17 12 -17 20 0 8 -4 14 -10 14 -5 0 -10 -4 -10
-10 0 -5 -11 -10 -25 -10 -22 0 -24 -2 -13 -19 9 -15 9 -23 -2 -36 -8 -9 -16
-26 -17 -38 -5 -29 -10 -32 -22 -9 -8 15 -6 24 9 40 26 28 5 46 -44 36 -27 -5
-36 -3 -37 7 0 17 -58 64 -67 55 -3 -4 -1 -16 6 -26 17 -27 16 -28 -20 -62
l-32 -29 30 -25 29 -24 -39 6 c-28 5 -37 4 -32 -5 4 -6 14 -11 22 -11 8 0 13
-4 10 -9 -3 -5 1 -14 9 -21 14 -11 14 -15 0 -37 -27 -41 -27 -61 1 -55 13 2
21 8 19 13 -3 4 3 12 13 18 13 7 24 4 42 -10 34 -25 38 -24 34 11 -3 26 1 33
30 47 19 9 37 25 40 37 6 21 7 20 20 -4 9 -16 11 -32 5 -47 -8 -22 -7 -23 19
-17 15 4 30 7 33 8 4 0 21 -11 38 -27 l31 -27 0 39 c0 34 4 40 26 45 19 5 30
2 39 -11 14 -19 15 -19 -28 -81 -16 -24 -27 -45 -24 -48 2 -2 35 0 73 6 61 9
71 8 84 -8 8 -10 32 -38 52 -63 l38 -44 0 71 0 71 58 17 c32 9 67 16 78 17 12
0 3 8 -23 19 -24 11 -43 24 -43 30 0 6 -6 10 -12 9 -19 -3 -68 19 -68 30 0 13
33 31 58 31 10 0 25 -11 32 -25 19 -35 30 -31 30 10 0 24 6 37 19 45 27 14 41
13 41 -4 0 -8 7 -16 15 -20 10 -4 17 3 21 22 11 51 11 51 62 48 46 -2 48 -1
44 21 -3 15 0 23 9 23 8 1 2 8 -13 16 -16 8 -28 19 -28 24 0 6 -8 2 -18 -7
-11 -10 -17 -22 -14 -27 3 -5 -1 -7 -9 -4 -9 3 -13 17 -11 41 4 43 5 42 -29
15z m-446 -164 c11 -14 17 -27 15 -29 -8 -8 -48 26 -48 41 0 21 13 17 33 -12z"/>
<path d="M6566 6089 c-9 -16 -21 -27 -25 -24 -5 2 -16 -2 -27 -9 -14 -11 -16
-17 -7 -28 10 -11 8 -21 -7 -46 -22 -35 -25 -46 -11 -38 5 3 14 -1 21 -9 9
-11 4 -17 -27 -34 -25 -13 -32 -21 -20 -22 9 -1 22 -2 27 -3 6 0 20 -21 31
-45 19 -43 20 -44 37 -25 27 31 43 64 32 64 -22 0 -25 2 -33 22 -4 12 -2 26 5
35 10 12 9 17 -5 25 -10 5 -15 14 -11 19 7 12 34 -8 34 -26 0 -14 29 -29 39
-20 3 3 0 15 -7 25 -18 30 -15 37 24 64 l37 25 -37 6 c-31 6 -36 11 -36 36 0
39 -13 43 -34 8z m-18 -207 c2 -7 -1 -12 -7 -12 -6 0 -11 5 -11 11 0 5 -5 7
-12 3 -7 -4 -8 -3 -4 5 9 14 28 10 34 -7z"/>
<path d="M6308 5898 c9 -24 18 -36 20 -27 4 21 -15 69 -27 69 -5 0 -2 -19 7
-42z"/>
<path d="M6360 5901 c-21 -17 -22 -20 -7 -21 9 0 17 -6 17 -12 0 -7 5 -5 11 5
6 10 9 25 7 33 -3 14 -7 13 -28 -5z"/>
<path d="M5387 5883 c-11 -10 14 -33 36 -33 19 0 20 1 2 20 -19 21 -28 24 -38
13z"/>
<path d="M5533 5763 c19 -22 15 -42 -15 -82 -10 -13 -15 -27 -13 -31 3 -5 0
-12 -6 -16 -6 -3 -15 0 -20 7 -7 11 -9 11 -9 -3 0 -9 -7 -21 -16 -26 -9 -5
-15 -12 -15 -15 1 -4 1 -9 1 -12 0 -3 -15 4 -32 15 -43 26 -49 25 -38 -5 12
-31 8 -71 -11 -110 -10 -22 -22 -31 -44 -33 -45 -5 -52 -18 -27 -51 18 -24 20
-35 12 -56 -17 -44 -13 -48 31 -41 37 6 46 3 84 -29 l43 -35 11 31 c8 24 15
30 28 24 10 -4 25 -8 33 -8 8 0 19 -5 23 -11 5 -6 5 5 1 24 -3 19 -12 38 -18
42 -7 5 -5 8 6 8 15 0 16 3 6 26 -11 23 -9 28 7 41 19 15 19 15 -9 10 -15 -2
-39 1 -52 8 -21 10 -22 14 -10 24 11 9 22 9 51 -3 35 -15 37 -15 30 2 -15 36
-17 52 -6 52 7 0 9 5 6 11 -4 5 1 19 11 30 21 24 29 96 9 79 -10 -8 -16 -6
-25 7 -10 15 -10 14 -5 -9 6 -32 -11 -39 -19 -8 -3 11 -8 29 -11 39 -9 31 43
37 88 11 l37 -22 -2 39 c-2 21 1 48 6 61 8 23 8 23 -23 8 -39 -21 -47 -20 -84
6 -30 20 -31 20 -14 1z m-43 -421 c0 -5 -7 -17 -16 -28 -8 -10 -14 -14 -11 -9
2 6 7 18 10 28 7 17 17 23 17 9z"/>
<path d="M9114 5379 c-3 -6 0 -18 8 -26 14 -13 16 -12 20 11 5 27 -14 37 -28
15z"/>
<path d="M9098 5273 c7 -3 16 -2 19 1 4 3 -2 6 -13 5 -11 0 -14 -3 -6 -6z"/>
<path d="M5620 5211 c-36 -27 -67 -45 -69 -40 -1 6 5 17 15 24 18 13 18 14 2
15 -10 0 -18 7 -18 15 0 19 -7 19 -26 0 -8 -8 -22 -11 -31 -8 -11 4 -14 3 -9
-5 10 -17 1 -15 -36 8 -42 26 -46 25 -40 -5 6 -33 -15 -60 -34 -44 -9 8 -14 8
-14 1 0 -6 -10 -12 -22 -14 -22 -3 -22 -4 10 -36 17 -19 32 -38 32 -43 0 -11
22 -8 31 5 4 5 12 5 18 2 7 -5 1 -16 -16 -32 -19 -17 -29 -21 -38 -14 -10 8
-15 3 -23 -18 -6 -17 -22 -34 -41 -41 -30 -13 -30 -14 -15 -43 9 -16 13 -36
10 -44 -3 -8 0 -14 6 -14 9 0 9 -3 0 -12 -18 -18 -15 -25 12 -32 17 -4 33 -24
55 -69 33 -68 39 -102 19 -111 -9 -3 -8 -9 6 -20 17 -14 15 -36 -5 -36 -5 0
-27 -12 -49 -26 -37 -25 -39 -28 -23 -41 17 -14 17 -14 -4 -10 -24 5 -22 -17
3 -27 11 -4 13 -15 8 -41 -7 -39 -3 -42 29 -20 12 8 31 14 42 13 11 0 32 2 46
6 23 7 28 4 37 -22 6 -17 19 -39 31 -51 l20 -20 17 44 c15 39 20 44 40 39 28
-7 31 2 7 28 -17 19 -17 19 116 3 l34 -4 -40 38 c-50 49 -79 131 -64 185 5 20
8 36 6 36 -2 0 -33 -13 -69 -29 l-65 -30 -63 51 c-35 27 -64 51 -66 53 -2 1 0
14 4 29 5 22 12 26 42 26 l36 0 -34 30 c-19 16 -30 29 -24 30 6 0 11 16 10 37
-1 34 2 37 31 44 33 6 53 -4 53 -28 0 -7 -10 -13 -22 -13 -20 0 -21 -1 -3 -20
10 -11 24 -20 30 -20 7 0 18 -14 25 -31 9 -22 17 -28 29 -23 9 3 24 9 34 11 9
3 17 10 17 16 0 5 11 20 25 33 15 14 21 25 14 29 -6 4 -8 14 -5 24 5 14 4 13
-8 -1 -16 -22 -36 -23 -36 -2 0 8 4 12 10 9 5 -3 7 0 4 9 -4 11 6 16 43 21 26
4 66 10 87 14 l40 6 -67 44 c-38 24 -67 51 -67 60 0 9 9 46 19 84 11 37 17 67
13 67 -4 0 -36 -22 -72 -49z m-250 -711 c0 -5 -4 -10 -9 -10 -6 0 -13 5 -16
10 -3 6 1 10 9 10 9 0 16 -4 16 -10z"/>
<path d="M9024 5228 c3 -13 6 -29 6 -35 0 -8 15 -13 41 -13 22 0 38 -4 35 -9
-4 -5 0 -11 6 -14 7 -2 9 -8 5 -13 -5 -5 -13 -1 -19 9 -10 18 -10 18 -27 0
-10 -10 -16 -23 -14 -30 3 -6 0 -20 -6 -31 -9 -18 -14 -18 -43 -8 -18 6 -39
15 -47 20 -10 6 -12 5 -9 -5 3 -8 -1 -22 -10 -31 -14 -16 -13 -18 1 -18 10 0
17 -7 17 -16 0 -10 6 -14 14 -11 20 8 28 -31 12 -61 -12 -24 -18 -25 -76 -23
-35 1 -94 6 -131 10 -38 4 -69 6 -69 5 0 -1 43 -43 95 -95 52 -51 95 -98 95
-104 0 -7 -18 -61 -40 -120 -23 -59 -39 -109 -36 -112 2 -2 54 21 116 52 l112
56 64 -56 c35 -31 64 -62 64 -68 0 -8 -4 -7 -9 2 -6 10 -19 12 -44 7 -33 -6
-34 -8 -24 -30 8 -15 19 -23 34 -22 13 0 23 4 23 7 0 13 56 17 70 5 31 -26 36
-25 32 3 -3 22 1 29 17 34 12 3 24 1 27 -4 10 -17 19 -9 19 16 0 14 -3 25 -7
25 -5 0 -8 -5 -8 -11 0 -6 -7 -9 -15 -6 -8 4 -17 2 -20 -3 -14 -22 -23 -6 -35
57 -10 50 -10 68 -2 71 20 6 13 32 -8 32 -11 0 -20 7 -20 15 0 18 76 59 92 49
7 -5 8 -3 3 6 -8 13 -7 13 43 -7 8 -3 12 5 12 26 0 26 6 34 35 48 19 9 35 20
35 24 0 3 -18 9 -40 13 -30 5 -40 11 -40 25 0 14 -9 20 -35 23 -23 3 -35 0
-35 -8 0 -9 -16 -11 -57 -8 -31 3 -58 6 -60 8 -9 9 -20 101 -12 104 5 2 9 8 9
13 0 4 -7 6 -16 2 -14 -5 -15 -1 -10 24 5 21 2 34 -9 43 -24 20 -18 37 16 44
l31 6 -21 29 c-12 16 -21 36 -21 44 0 22 -18 31 -35 17 -11 -9 -19 -8 -37 4
-31 22 -41 20 -34 -6z"/>
<path d="M9180 5060 c0 -5 5 -10 10 -10 6 0 10 5 10 10 0 6 -4 10 -10 10 -5 0
-10 -4 -10 -10z"/>
<path d="M3841 4864 c0 -11 3 -14 6 -6 3 7 2 16 -1 19 -3 4 -6 -2 -5 -13z"/>
<path d="M3790 4866 c0 -2 7 -6 15 -10 8 -3 15 -1 15 4 0 6 -7 10 -15 10 -8 0
-15 -2 -15 -4z"/>
<path d="M5615 4830 c-3 -5 -1 -10 4 -10 6 0 11 5 11 10 0 6 -2 10 -4 10 -3 0
-8 -4 -11 -10z"/>
<path d="M3668 4796 c-17 -12 -17 -14 0 -29 14 -13 20 -13 35 -3 9 7 17 21 17
30 0 19 -28 21 -52 2z"/>
<path d="M3822 4758 c-6 -6 -26 -12 -44 -12 -26 -1 -34 -6 -36 -23 -4 -28 -3
-28 -52 -3 -46 24 -49 17 -20 -48 l20 -44 -40 -46 c-21 -26 -38 -47 -37 -48 1
-1 26 2 55 6 l54 7 26 -54 27 -54 12 33 c6 18 12 43 12 56 1 15 5 21 13 16 7
-4 22 -8 35 -9 18 0 22 3 17 17 -3 11 1 20 10 23 9 3 24 8 34 11 13 4 6 12
-31 32 l-48 27 7 63 c7 65 5 69 -14 50z"/>
<path d="M3692 4479 c-13 -16 -27 -27 -30 -25 -4 2 -17 0 -30 -5 -19 -7 -21
-11 -11 -27 9 -15 9 -27 0 -52 -14 -41 -11 -44 23 -29 22 10 29 9 46 -6 11
-10 19 -23 18 -29 0 -6 2 -19 7 -29 5 -12 1 -23 -15 -37 -29 -25 -32 -25 -48
0 -15 25 -32 17 -32 -15 0 -17 -8 -26 -27 -33 -27 -9 -28 -9 -5 -16 15 -5 22
-15 22 -34 0 -16 8 -32 20 -40 17 -10 19 -16 9 -33 -10 -19 -8 -20 11 -14 12
4 27 1 35 -5 12 -10 15 -9 15 3 0 27 20 30 40 5 21 -25 26 -58 9 -58 -6 0 -13
9 -16 20 -4 15 -9 17 -23 10 -11 -6 -21 -5 -28 2 -9 9 -12 7 -12 -8 0 -11 -5
-25 -12 -32 -9 -9 -8 -12 4 -12 19 0 32 -27 17 -36 -5 -3 -16 0 -24 6 -12 10
-15 9 -15 -9 0 -27 -22 -36 -50 -21 -29 15 -32 10 -19 -29 10 -30 9 -35 -17
-63 -24 -25 -25 -29 -7 -19 21 10 93 16 93 7 0 -3 -4 -15 -9 -29 -5 -13 -6
-29 -1 -36 5 -9 11 -3 18 18 16 46 49 41 43 -6 -1 -7 7 -13 19 -13 11 0 20 -4
20 -10 0 -5 6 -10 13 -10 18 0 38 -45 30 -66 -8 -21 17 -15 27 7 4 8 12 24 18
36 17 33 15 38 -8 18 -15 -14 -23 -16 -32 -7 -18 18 9 42 48 42 35 0 41 -8 49
-73 4 -31 2 -34 -15 -30 -16 4 -20 1 -18 -17 3 -19 -4 -25 -37 -35 -40 -12
-40 -12 -15 -23 l25 -11 -22 -7 c-13 -3 -23 -11 -23 -16 0 -6 -14 -8 -30 -6
-27 4 -30 2 -28 -20 2 -14 -3 -27 -9 -29 -7 -3 -13 3 -13 12 0 9 -5 13 -11 10
-6 -4 -8 -13 -5 -21 3 -8 -1 -14 -9 -14 -8 0 -15 -5 -15 -11 0 -5 5 -7 10 -4
6 3 10 -3 10 -14 0 -10 3 -26 6 -35 11 -30 -32 -17 -183 53 -81 37 -158 71
-170 75 l-22 7 23 -73 c12 -40 56 -173 97 -296 l74 -224 -24 -19 c-14 -11
-130 -120 -260 -242 -180 -171 -230 -223 -214 -225 11 -2 142 15 291 37 149
23 280 41 291 41 15 0 23 -10 31 -41 19 -70 11 -80 -131 -172 -128 -84 -130
-86 -97 -91 32 -5 275 -26 302 -26 8 0 33 -57 66 -150 28 -82 54 -150 56 -150
2 0 15 23 29 51 20 38 29 48 39 40 9 -8 20 12 45 82 19 51 37 96 41 100 4 5
84 8 176 8 l169 -1 -43 40 c-24 22 -47 40 -52 40 -6 0 -10 5 -10 10 0 6 7 10
15 10 8 0 15 -4 15 -10 0 -5 7 -10 15 -10 8 0 15 -4 15 -10 0 -23 32 -8 41 19
6 16 19 31 30 34 20 5 20 6 0 26 -12 12 -21 33 -21 47 0 18 -4 23 -12 17 -7
-4 -29 -8 -48 -8 -33 -1 -36 -4 -48 -48 -14 -50 -29 -58 -55 -29 -17 19 -26
90 -13 110 9 15 -6 16 -21 1 -9 -9 -18 -8 -37 4 -24 16 -25 18 -11 56 22 63
32 77 66 91 l31 13 -26 14 c-14 7 -26 16 -26 18 0 12 49 26 156 45 66 12 153
29 194 40 41 10 114 26 163 35 48 9 101 22 119 29 l31 14 -42 30 c-24 17 -53
34 -64 38 -17 5 -401 218 -416 230 -2 2 35 148 83 325 48 176 86 323 83 325
-2 2 -84 -62 -183 -143 -99 -82 -189 -153 -200 -159 -24 -14 -49 -4 -82 35
-19 22 -24 24 -32 11 -6 -8 -8 -30 -5 -47 5 -26 2 -33 -10 -33 -9 0 -15 -6
-14 -12 4 -32 -2 -40 -22 -35 -19 5 -21 2 -15 -24 6 -34 -8 -38 -52 -15 -38
20 -57 57 -43 84 6 11 11 32 11 46 0 22 5 26 28 27 l27 0 -22 16 c-29 20 -29
49 -1 56 31 9 44 -4 22 -21 -18 -14 -18 -14 -1 -8 14 4 20 0 24 -14 5 -20 7
-20 24 -4 11 9 19 23 19 30 0 7 8 14 17 16 15 3 15 4 -1 21 -12 11 -25 15 -43
11 -25 -7 -25 -6 -7 14 13 15 22 18 34 12 14 -8 16 -5 12 17 -3 18 -1 24 7 19
6 -4 11 -16 11 -27 0 -10 4 -19 9 -19 11 0 21 25 21 51 0 12 7 19 20 19 18 0
20 6 18 41 -3 41 -2 42 37 53 30 9 36 13 23 19 -20 7 -24 42 -7 53 8 5 4 13
-11 24 -21 16 -22 20 -12 71 6 30 13 64 17 77 6 16 3 22 -8 22 -22 0 -88 110
-81 134 4 10 19 41 36 69 16 27 27 51 25 53 -2 2 -19 -1 -38 -6 -46 -14 -54
-13 -39 5 11 13 10 20 -1 41 -11 21 -11 27 0 33 16 11 5 51 -14 51 -8 0 -17
-9 -20 -20 -10 -33 -32 -22 -26 14 1 5 -5 6 -13 3 -9 -4 -18 -2 -21 3 -4 6
-23 10 -44 10 -50 0 -74 19 -74 59 0 17 -1 31 -1 30 -1 0 -11 -13 -24 -30z
m63 -147 c-5 -20 -8 -23 -16 -11 -13 21 -11 57 4 62 15 5 21 -17 12 -51z m72
16 c13 -12 23 -31 23 -42 -1 -18 -5 -16 -30 14 -44 50 -38 71 7 28z m88 -29
c12 -19 -5 -23 -22 -6 -16 16 -16 17 -1 17 9 0 20 -5 23 -11z m-250 -189 c3
-6 -1 -13 -10 -16 -19 -8 -30 0 -20 15 8 14 22 14 30 1z m105 -51 c0 -24 -23
-21 -28 4 -2 10 3 17 12 17 10 0 16 -9 16 -21z m159 -45 c2 -2 -3 -9 -11 -17
-17 -18 -58 -5 -58 18 0 13 6 15 33 10 17 -4 34 -9 36 -11z m-69 -24 c0 -5 -4
-10 -10 -10 -5 0 -10 5 -10 10 0 6 5 10 10 10 6 0 10 -4 10 -10z m130 1 c0
-11 -48 -51 -61 -51 -14 0 -10 22 8 42 17 19 53 25 53 9z m-200 -91 c34 0 41
-58 10 -78 -18 -11 -20 -10 -20 13 0 28 -12 32 -30 10 -7 -9 -19 -14 -26 -11
-7 3 -14 1 -16 -4 -2 -5 -9 -5 -18 1 -11 8 -12 12 -2 16 6 2 12 19 12 36 0 18
5 39 10 47 8 13 13 13 31 2 19 -12 21 -12 15 3 -3 9 -3 22 1 28 5 7 9 -4 11
-25 2 -29 8 -38 22 -38z m-40 -470 c9 -17 7 -22 -12 -29 -18 -7 -27 -5 -40 11
-10 11 -15 24 -12 29 10 17 53 9 64 -11z m316 -1048 c-9 -8 -26 10 -26 26 1
15 2 15 15 -2 8 -11 13 -21 11 -24z"/>
<path d="M3805 4479 c14 -45 19 -51 37 -37 14 12 13 16 -14 37 l-30 25 7 -25z"/>
<path d="M3876 4471 c-3 -5 1 -14 9 -21 13 -10 15 -9 15 9 0 21 -14 28 -24 12z"/>
<path d="M9132 4431 c-10 -6 -7 -12 12 -24 27 -18 43 -2 20 20 -15 15 -15 15
-32 4z"/>
<path d="M9336 4346 c-7 -28 -42 -39 -94 -30 l-37 7 24 -26 c13 -14 36 -29 52
-32 35 -8 37 -17 7 -30 -31 -14 -33 -32 -5 -39 25 -6 56 -74 43 -95 -4 -6 -3
-11 3 -11 5 0 13 5 17 12 5 7 11 5 21 -7 17 -24 17 -32 -3 -39 -12 -4 -15 -2
-10 9 6 17 -9 21 -19 4 -4 -6 -13 -8 -21 -5 -8 3 -14 -1 -14 -8 0 -8 -10 -21
-22 -29 -18 -12 -19 -16 -7 -16 24 -1 41 -25 28 -38 -8 -8 -5 -13 10 -18 12
-3 21 -13 21 -21 0 -8 7 -14 16 -14 27 0 9 -25 -22 -30 l-28 -5 24 -25 c14
-14 23 -24 21 -23 -6 4 -31 -18 -31 -28 0 -5 12 -4 27 2 21 8 28 7 35 -6 5 -8
14 -15 20 -15 6 0 4 8 -5 18 -22 24 -21 32 2 32 11 0 27 3 36 6 13 5 14 9 4
15 -19 11 -4 22 31 22 17 0 30 5 30 11 0 14 55 -40 87 -87 l28 -40 7 39 c4 21
7 60 7 85 l1 45 76 24 c41 13 77 26 79 30 2 3 -32 19 -76 35 l-79 29 0 83 c0
49 -4 83 -10 83 -5 0 -10 -3 -10 -7 0 -5 -22 -32 -48 -62 l-48 -53 -62 17
c-44 13 -60 21 -53 28 8 8 22 5 48 -7 22 -10 33 -12 26 -5 -17 17 -16 29 1 29
19 0 29 30 15 46 -8 10 -8 14 0 14 19 0 12 24 -10 38 -12 7 -18 16 -15 19 7 8
-16 29 -42 37 -12 4 -22 11 -22 16 0 4 -11 15 -24 23 -23 15 -24 15 -30 -7z
m65 -303 c8 -54 7 -61 -17 -71 -13 -7 -23 -8 -22 -4 1 4 -2 17 -6 30 -5 14 -3
28 4 37 13 16 39 20 41 8z"/>
<path d="M5610 4343 c0 -5 9 -21 20 -38 16 -25 20 -27 20 -10 -1 11 -7 28 -14
38 -14 18 -26 22 -26 10z"/>
<path d="M5450 4305 c0 -8 -4 -15 -10 -15 -5 0 -7 -13 -3 -30 5 -30 5 -30 -22
-20 -36 14 -42 7 -16 -19 23 -23 27 -46 10 -56 -6 -4 -13 2 -16 14 -3 12 -10
21 -15 21 -6 0 -3 -12 7 -26 13 -20 14 -28 5 -34 -8 -5 -9 -10 -1 -14 19 -12
52 17 46 42 -4 15 -1 22 10 22 8 0 15 5 15 10 0 6 -5 10 -12 10 -6 0 -3 9 7
20 12 13 25 18 38 14 16 -5 17 -3 8 14 -6 11 -7 22 -4 26 7 6 -25 35 -39 36
-5 0 -8 -7 -8 -15z"/>
<path d="M9225 4211 c-3 -5 -1 -12 5 -16 5 -3 10 1 10 9 0 18 -6 21 -15 7z"/>
<path d="M5626 4172 c-4 -8 -17 -11 -28 -9 -15 4 -18 1 -13 -14 4 -11 2 -19
-4 -19 -6 0 -11 -4 -11 -10 0 -5 9 -10 20 -10 11 0 20 -4 20 -10 0 -5 5 -10
10 -10 6 0 10 6 10 14 0 8 8 17 17 20 11 5 14 9 6 14 -6 4 -12 16 -15 27 -3
15 -5 17 -12 7z"/>
<path d="M9220 4112 c0 -10 22 -32 32 -32 15 0 8 15 -12 28 -11 7 -20 9 -20 4z"/>
<path d="M5650 4062 c0 -12 19 -26 26 -19 2 2 -2 10 -11 17 -9 8 -15 8 -15 2z"/>
<path d="M5450 4049 c0 -5 5 -7 10 -4 6 3 10 8 10 11 0 2 -4 4 -10 4 -5 0 -10
-5 -10 -11z"/>
<path d="M5553 3963 c-20 -7 -15 -20 8 -26 25 -7 16 -27 -12 -27 -25 0 -25
-17 1 -25 11 -4 20 -15 20 -27 0 -16 3 -18 14 -9 7 6 20 9 29 5 24 -9 30 14 7
33 -11 10 -20 27 -20 38 0 12 -5 26 -12 33 -13 13 -16 13 -35 5z"/>
<path d="M5464 3916 c2 -20 0 -36 -5 -36 -5 0 -9 -5 -9 -10 0 -7 7 -7 20 0 11
6 26 8 33 4 8 -6 8 -3 -1 8 -11 13 -11 21 -2 39 9 16 9 20 1 14 -7 -4 -19 -1
-27 6 -12 10 -14 7 -10 -25z"/>
<path d="M5583 3802 c-16 -12 -21 -23 -17 -39 4 -16 1 -25 -10 -29 -20 -8 -21
-24 -2 -24 8 0 21 -9 29 -20 14 -20 15 -20 30 12 9 18 25 43 36 55 12 12 17
24 12 27 -5 3 -14 -1 -21 -9 -19 -23 -28 -18 -32 15 -3 28 -3 29 -25 12z"/>
<path d="M5486 3793 c-6 -7 -8 -53 -2 -53 2 0 16 6 30 14 l26 13 -24 16 c-13
9 -26 13 -30 10z"/>
<path d="M9560 3717 c0 -8 -6 -20 -14 -26 -13 -11 -12 -15 4 -31 11 -11 16
-27 13 -39 -7 -28 -1 -26 33 7 32 30 35 76 6 86 -9 3 -23 9 -29 12 -7 3 -13
-1 -13 -9z"/>
<path d="M9450 3710 c0 -5 5 -10 11 -10 5 0 7 5 4 10 -3 6 -8 10 -11 10 -2 0
-4 -4 -4 -10z"/>
<path d="M3690 3690 c0 -5 5 -10 11 -10 5 0 7 5 4 10 -3 6 -8 10 -11 10 -2 0
-4 -4 -4 -10z"/>
<path d="M5517 3650 c6 -40 6 -40 -21 -31 -29 12 -35 1 -10 -20 12 -10 15 -24
10 -56 -4 -31 -2 -44 9 -51 13 -7 13 -20 5 -86 -9 -75 -24 -104 -55 -106 -5
-1 4 -7 20 -14 l30 -13 -25 -11 c-14 -5 -91 -32 -172 -58 -82 -26 -148 -49
-148 -51 0 -2 17 -11 38 -20 20 -8 75 -33 120 -55 76 -36 82 -41 65 -53 -17
-13 -17 -13 1 -12 10 1 23 -6 29 -15 9 -14 7 -22 -11 -39 -18 -16 -21 -24 -11
-35 9 -12 6 -14 -20 -14 -17 0 -31 -4 -31 -8 0 -5 -11 -14 -25 -20 -25 -12
-25 -13 -10 -42 9 -17 13 -39 10 -49 -5 -15 -1 -17 20 -13 24 4 25 2 22 -34
-3 -45 -8 -46 -114 -22 -35 8 -63 13 -63 12 0 -2 13 -24 29 -49 26 -40 28 -49
18 -75 -6 -17 -16 -29 -22 -27 -5 2 -30 62 -55 134 -25 72 -48 134 -51 138 -4
3 -26 -50 -49 -119 -28 -85 -49 -131 -63 -141 -33 -23 -110 -20 -133 6 l-19
21 -5 -23 c-6 -26 -30 -38 -30 -14 0 13 -4 14 -20 5 -11 -6 -31 -8 -44 -4 -18
4 -26 1 -31 -13 -3 -10 -22 -31 -41 -47 -32 -26 -38 -28 -70 -18 -39 12 -39
11 -19 -28 14 -27 13 -30 -21 -72 -20 -24 -42 -47 -50 -51 -12 -7 -11 -12 2
-33 9 -13 14 -27 11 -31 -9 -8 -37 17 -37 34 0 7 -7 16 -16 20 -8 3 -13 11
-10 18 8 22 -43 25 -55 4 -7 -15 -6 -19 5 -19 7 0 17 -7 20 -16 3 -9 11 -12
18 -8 8 5 9 2 5 -10 -4 -10 -7 -23 -7 -30 0 -7 -12 -17 -27 -23 l-28 -11 36
-1 c31 -1 39 -6 49 -31 16 -38 25 -38 38 -1 7 21 19 31 41 36 33 7 33 30 -1
41 -13 4 -17 11 -12 22 3 10 9 30 13 47 5 23 14 31 39 36 29 6 34 3 53 -30 20
-33 22 -34 30 -16 4 11 8 30 8 43 1 12 6 22 11 22 6 0 10 7 10 15 0 8 5 15 10
15 6 0 10 -4 10 -9 0 -6 24 -7 54 -4 48 5 54 4 52 -12 -4 -27 -33 -39 -52 -21
-19 19 -31 21 -15 3 12 -16 -4 -37 -28 -37 -8 0 -11 -3 -8 -7 4 -3 2 -12 -5
-20 -13 -16 -5 -26 25 -30 12 -2 26 -8 31 -13 6 -6 16 -4 26 5 9 8 25 12 37 9
17 -5 21 -16 27 -81 4 -41 4 -95 0 -119 l-6 -45 105 76 c57 42 115 78 127 80
15 3 53 -19 131 -76 60 -43 109 -74 109 -67 0 7 -14 68 -31 136 -18 67 -30
125 -26 128 3 3 23 -6 46 -20 22 -14 45 -26 50 -26 5 0 14 -7 21 -15 11 -13
15 -13 21 -3 7 10 9 10 9 -1 0 -10 3 -11 13 -3 10 8 20 4 41 -19 16 -17 32
-26 35 -20 4 5 15 9 26 8 13 -1 21 7 28 31 6 17 14 32 20 32 5 0 2 11 -7 25
-25 38 -21 56 12 53 35 -2 53 8 45 28 -10 27 -48 35 -83 17 -31 -15 -32 -15
-66 18 -19 18 -34 35 -34 38 0 4 15 16 33 29 31 22 31 22 7 22 -22 1 -23 2 -7
11 10 6 25 8 34 5 9 -4 26 0 39 9 21 14 23 13 29 -15 4 -16 11 -32 16 -36 14
-8 50 6 48 19 -1 7 -1 23 0 37 1 19 4 21 10 11 7 -11 13 -7 25 17 12 23 13 32
3 35 -9 4 -8 8 3 16 8 5 12 13 8 16 -3 4 0 22 8 40 17 43 18 48 0 42 -7 -3
-23 7 -34 23 -22 29 -19 48 4 29 10 -8 15 -5 20 15 3 15 15 31 27 37 14 8 16
13 7 19 -7 4 -10 12 -6 18 4 6 71 -12 179 -49 94 -32 173 -59 175 -59 5 0 -20
45 -105 187 l-85 141 105 148 c58 82 104 150 102 152 -2 2 -65 -10 -140 -28
-76 -17 -139 -29 -142 -26 -3 2 1 14 7 26 21 39 6 52 -57 48 -50 -3 -58 0 -61
16 -2 10 1 22 7 26 15 9 3 40 -14 40 -23 0 -27 19 -10 37 16 15 15 17 -7 29
l-23 13 23 1 c19 0 21 4 16 28 -12 51 -25 56 -42 17 -11 -24 -42 -35 -42 -15
0 6 -8 10 -17 8 -10 -2 -22 7 -29 21 -12 23 -32 41 -46 41 -3 0 -4 -18 -1 -40z
m103 -101 c0 -5 -4 -9 -10 -9 -5 0 -10 7 -10 16 0 8 5 12 10 9 6 -3 10 -10 10
-16z m70 -59 c0 -10 -26 -20 -33 -13 -3 3 -3 11 0 18 5 14 33 9 33 -5z m-200
-785 c0 -44 -3 -53 -15 -49 -11 4 -15 21 -15 55 0 37 4 49 15 49 12 0 15 -13
15 -55z m160 34 c0 -11 -4 -17 -10 -14 -5 3 -10 13 -10 21 0 8 5 14 10 14 6 0
10 -9 10 -21z m-57 -75 c-3 -10 2 -14 18 -14 28 0 56 -16 47 -26 -4 -3 -20 -3
-35 2 -26 7 -42 10 -87 13 -18 1 -17 4 9 31 21 22 32 27 41 19 7 -6 10 -17 7
-25z m47 32 c0 -2 -7 -6 -15 -10 -8 -3 -15 -1 -15 4 0 6 7 10 15 10 8 0 15 -2
15 -4z m-80 -120 c0 -2 -7 -7 -16 -10 -8 -3 -12 -2 -9 4 6 10 25 14 25 6z
m-837 -88 c7 -27 5 -30 -17 -22 -19 7 -22 44 -2 44 7 0 16 -10 19 -22z m729
-53 c2 -19 0 -35 -4 -35 -4 0 -8 16 -8 35 0 19 2 35 4 35 2 0 6 -16 8 -35z
m-52 -22 c20 -26 20 -28 4 -40 -21 -15 -34 -17 -34 -4 0 5 -3 23 -6 40 -8 39
7 40 36 4z m23 -70 c7 -7 -11 -33 -23 -33 -4 0 -10 9 -13 20 -4 14 0 20 12 20
10 0 21 -3 24 -7z"/>
<path d="M3825 3440 c3 -5 11 -10 16 -10 6 0 7 5 4 10 -3 6 -11 10 -16 10 -6
0 -7 -4 -4 -10z"/>
<path d="M9384 3288 c-8 -13 19 -46 33 -41 22 9 16 49 -8 49 -11 0 -23 -4 -25
-8z"/>
<path d="M9385 3220 c-3 -5 -1 -10 4 -10 6 0 11 5 11 10 0 6 -2 10 -4 10 -3 0
-8 -4 -11 -10z"/>
<path d="M9235 2331 c7 -22 5 -23 -20 -17 l-27 7 23 -29 c13 -16 25 -23 27
-17 2 7 12 16 23 21 20 9 19 10 -7 34 l-26 25 7 -24z"/>
<path d="M9177 2283 c-4 -3 -7 -11 -7 -17 0 -6 5 -5 12 2 6 6 9 14 7 17 -3 3
-9 2 -12 -2z"/>
</g>
</svg>
