<?xml version="1.0" standalone="no"?>
<!DOCTYPE svg PUBLIC "-//W3C//DTD SVG 20010904//EN"
 "http://www.w3.org/TR/2001/REC-SVG-20010904/DTD/svg10.dtd">
<svg version="1.0" xmlns="http://www.w3.org/2000/svg"
 width="1280.000000pt" height="1280.000000pt" viewBox="0 0 1280.000000 1280.000000"
 preserveAspectRatio="xMidYMid meet">
<metadata>
Created by potrace 1.15, written by Peter Selinger 2001-2017
</metadata>
<g transform="translate(0.000000,1280.000000) scale(0.100000,-0.100000)"
fill="#000000" stroke="none">
<path d="M6276 9083 c-20 -59 -36 -89 -64 -116 l-38 -37 -59 20 c-68 23 -76
24 -74 8 3 -28 -2 -38 -21 -38 -21 0 -27 -15 -10 -25 16 -10 12 -28 -5 -21 -9
3 -20 -3 -27 -14 -11 -16 -24 -20 -75 -20 l-63 0 40 -36 40 -36 -27 -28 c-25
-27 -28 -27 -50 -13 -22 15 -23 14 -23 -11 0 -14 -3 -26 -7 -26 -35 2 -104 77
-84 90 7 4 12 10 12 14 -3 17 0 18 17 3 11 -10 26 -14 40 -10 32 8 27 27 -15
51 -19 10 -23 10 -23 -3 0 -8 -5 -15 -11 -15 -20 0 -39 29 -39 62 l-1 33 -55
-62 c-53 -60 -84 -73 -84 -36 0 12 -3 13 -13 5 -10 -9 -23 -6 -50 8 -20 11
-41 20 -47 20 -9 0 24 -70 60 -127 13 -20 13 -26 -2 -50 -10 -16 -24 -27 -33
-27 -9 1 -24 -16 -36 -43 -22 -49 -21 -60 8 -44 19 10 103 31 127 31 8 0 34
-31 57 -70 24 -38 47 -70 51 -70 5 0 8 24 8 53 0 28 7 64 14 80 10 18 11 27 3
27 -21 0 7 16 49 28 58 17 64 15 64 -13 0 -30 15 -33 30 -5 12 22 55 27 64 8
3 -10 8 -8 15 4 17 26 65 3 80 -39 8 -21 23 -38 38 -44 30 -11 42 -4 25 13
-23 23 -11 37 16 20 9 -7 5 -39 -21 -148 -19 -76 -33 -141 -31 -142 3 -4 75
38 200 116 79 49 82 50 99 32 11 -12 14 -26 10 -39 -3 -12 -3 -30 0 -42 5 -15
10 -18 20 -9 15 12 42 2 64 -24 10 -12 9 -16 -6 -25 -16 -9 -14 -11 15 -17 39
-8 48 -24 32 -54 -9 -17 -9 -24 -1 -29 7 -5 2 -12 -14 -21 -25 -14 -32 -12
-97 21 -15 7 -17 5 -15 -13 1 -14 -3 -22 -10 -21 -7 2 -13 -2 -13 -7 0 -6 -12
-10 -27 -10 l-27 0 28 -29 c16 -16 25 -34 22 -39 -4 -6 -2 -13 4 -17 6 -4 7
-11 4 -17 -4 -6 1 -8 13 -4 15 5 19 1 21 -20 1 -14 -1 -31 -5 -37 -10 -17 -11
-47 -1 -53 5 -3 6 -14 3 -25 -4 -13 -2 -19 9 -19 9 0 16 -4 16 -10 0 -5 -7 -7
-16 -3 -13 5 -15 2 -8 -18 5 -13 8 -38 7 -56 -1 -25 3 -32 23 -37 18 -5 24
-13 24 -34 0 -26 2 -27 39 -24 27 3 40 0 44 -11 3 -9 -1 -17 -13 -20 -18 -5
-25 -47 -8 -47 4 0 8 -5 8 -11 0 -7 -10 -9 -24 -5 -29 7 -43 -9 -27 -28 7 -8
10 -19 9 -26 -2 -7 8 -13 25 -14 20 -1 27 3 25 14 -3 24 21 60 41 60 10 0 26
-9 36 -20 16 -18 20 -19 27 -5 5 8 6 20 3 25 -3 6 -2 10 3 10 5 0 15 -12 22
-27 l14 -28 7 45 c4 25 8 64 8 86 l1 41 63 13 c34 7 66 16 70 20 5 4 -18 24
-51 44 -55 33 -79 66 -66 88 3 4 22 17 42 27 l37 19 -28 11 c-16 6 -33 11 -38
11 -5 0 -9 15 -9 34 0 19 -4 38 -10 41 -5 3 -10 14 -10 25 0 14 -5 17 -22 12
-21 -5 -22 -4 -9 11 11 14 11 20 1 32 -7 9 -20 13 -28 10 -19 -7 -42 12 -42
36 0 13 7 19 22 19 21 0 21 1 6 16 -12 13 -14 23 -7 41 7 19 6 23 -8 21 -9 -2
-18 3 -20 10 -6 16 17 15 41 -3 33 -25 36 -17 15 42 -23 67 -26 133 -5 133 9
0 12 7 9 20 -3 11 1 27 8 36 10 13 10 17 -2 25 -8 5 -24 9 -36 9 -27 0 -31 25
-5 35 16 6 16 7 -1 16 -25 14 -16 23 109 115 58 41 102 79 99 83 -2 5 -55 11
-117 15 -81 5 -116 11 -124 21 -6 8 -21 15 -33 15 -14 0 -21 6 -21 18 0 11
-11 24 -25 30 -20 9 -23 9 -18 -3 8 -23 -13 -17 -29 8 -8 12 -33 69 -56 127
-24 58 -46 111 -51 119 -6 9 -17 -11 -35 -66z m-221 -233 c3 -5 1 -10 -4 -10
-6 0 -11 5 -11 10 0 6 2 10 4 10 3 0 8 -4 11 -10z m39 -216 c24 -9 19 -21 -10
-28 -32 -8 -41 -1 -24 19 14 17 13 17 34 9z m381 -274 c3 -5 1 -10 -4 -10 -6
0 -11 5 -11 10 0 6 2 10 4 10 3 0 8 -4 11 -10z m-50 -220 c3 -5 1 -10 -4 -10
-6 0 -11 5 -11 10 0 6 2 10 4 10 3 0 8 -4 11 -10z m135 -420 c0 -5 -8 -10 -17
-10 -15 0 -16 2 -3 10 19 12 20 12 20 0z"/>
<path d="M8416 9123 c-3 -21 -6 -55 -6 -75 0 -32 -4 -38 -32 -46 -52 -16 -94
-23 -83 -15 23 18 14 38 -20 49 -26 8 -35 8 -32 0 3 -6 -2 -19 -11 -28 -14
-16 -13 -18 7 -18 17 0 21 -4 17 -17 -4 -14 8 -24 59 -45 35 -16 69 -28 75
-28 23 0 7 -17 -36 -38 -43 -21 -48 -22 -70 -7 -13 8 -24 22 -24 30 0 8 -6 15
-13 15 -8 0 -24 11 -37 25 -29 31 -40 24 -33 -20 5 -29 3 -34 -10 -30 -8 4
-23 -3 -35 -15 -17 -19 -26 -21 -68 -15 -61 9 -72 18 -79 64 -14 82 -44 99
-65 36 -8 -23 -16 -32 -26 -28 -10 4 -14 -2 -14 -21 0 -28 -18 -34 -38 -14 -9
9 -12 9 -12 0 0 -8 -19 -12 -55 -12 -30 0 -55 -3 -55 -7 0 -5 18 -21 39 -37
23 -17 37 -34 34 -42 -3 -9 2 -14 12 -14 31 0 11 -34 -27 -45 -56 -15 -65 -30
-29 -45 25 -10 30 -17 25 -36 -6 -22 -5 -22 31 -11 33 10 39 9 52 -8 10 -14
13 -33 9 -62 -9 -66 5 -66 77 1 28 26 33 27 67 17 72 -21 95 -7 102 61 l3 27
58 -50 c48 -43 57 -56 57 -84 0 -39 16 -55 25 -25 3 11 10 20 15 20 11 0 8
-10 -59 -159 -28 -63 -50 -118 -49 -122 2 -3 57 24 123 62 92 53 126 68 145
63 32 -7 43 -25 23 -39 -13 -10 -12 -14 11 -28 24 -16 25 -19 12 -45 -14 -29
-11 -56 6 -46 12 8 11 5 -29 -58 -26 -42 -22 -45 31 -23 42 18 45 9 14 -31
-13 -15 -23 -35 -23 -44 0 -16 -1 -16 -54 -6 -28 5 -32 3 -27 -10 5 -13 2 -14
-11 -8 -10 4 -31 7 -48 6 -16 -1 -67 7 -113 18 -100 24 -102 24 -102 6 0 -8
50 -105 110 -215 61 -110 110 -202 110 -205 0 -2 -48 -74 -107 -159 -96 -138
-176 -238 -239 -301 -12 -12 -25 -32 -29 -45 -6 -20 -4 -23 9 -18 9 4 16 2 16
-3 0 -6 5 -10 10 -10 6 0 10 7 10 16 0 11 6 14 20 9 14 -4 20 -2 18 6 -2 7 8
15 22 18 14 3 44 18 67 33 54 36 89 44 119 28 30 -16 30 -22 2 -39 -19 -12
-23 -11 -34 4 -11 15 -13 15 -19 -4 -5 -17 -12 -20 -33 -14 -25 6 -26 5 -12
-12 8 -10 13 -29 12 -42 -3 -22 -1 -23 16 -14 11 6 22 7 26 4 3 -3 35 -5 70
-4 35 1 75 -1 90 -5 25 -6 26 -8 20 -58 -4 -28 -12 -82 -20 -121 -7 -38 -11
-71 -9 -73 2 -2 39 23 82 57 l78 61 22 -67 c12 -38 22 -76 22 -85 1 -35 18
-17 56 63 22 44 43 83 48 86 4 2 42 -14 83 -37 42 -23 78 -39 81 -36 3 2 0 21
-7 41 -7 23 -10 57 -5 90 l6 53 50 7 c27 4 70 4 97 1 84 -11 81 4 -18 89 -49
44 -90 82 -90 85 0 3 18 24 40 45 22 21 40 42 40 46 0 4 -17 9 -37 11 -37 3
-38 4 -35 36 7 71 27 106 76 137 72 45 129 85 200 140 l65 49 -37 42 c-36 40
-112 81 -214 114 -45 14 -44 -6 -23 280 17 243 18 260 6 260 -5 0 -31 -27 -56
-59 -45 -57 -48 -59 -78 -50 -35 10 -60 36 -53 56 3 7 1 15 -4 18 -6 4 -10 17
-10 30 0 19 -4 23 -16 18 -15 -5 -16 -1 -10 32 6 32 5 37 -8 32 -9 -4 -16 -2
-16 3 0 5 -7 7 -17 3 -13 -5 -15 -2 -11 15 4 16 2 19 -11 15 -9 -3 -5 3 9 13
14 10 30 23 36 29 6 5 54 39 108 74 67 45 93 67 84 72 -7 5 -55 9 -106 9 -64
0 -102 5 -122 15 -17 9 -30 17 -30 20 0 12 42 26 53 17 7 -5 20 -12 30 -15 15
-6 17 -1 15 28 -1 25 5 42 22 60 l23 25 -30 0 c-28 0 -32 4 -38 37 -5 26 -3
40 7 48 7 5 22 23 32 39 l18 29 -35 -7 c-39 -7 -57 10 -54 49 1 13 -3 19 -13
16 -8 -2 -47 -6 -86 -9 l-72 -4 -45 46 -44 47 -7 -38z m-228 -323 c-2 -17 -9
-25 -21 -23 -10 0 -16 -2 -13 -5 8 -8 -14 -32 -30 -32 -23 0 -16 20 21 57 33
33 34 35 14 40 -16 4 -17 8 -7 14 18 12 40 -19 36 -51z m620 -546 c-20 -21
-30 -24 -44 -16 -16 9 -14 11 12 25 46 26 62 21 32 -9z m-169 -172 c7 -14 5
-27 -9 -50 -22 -36 -29 -38 -69 -17 -51 26 -46 68 9 78 48 9 59 7 69 -11z"/>
<path d="M7983 8982 c0 -15 3 -22 12 -18 7 2 17 0 23 -6 6 -6 11 1 14 21 4 27
2 30 -21 28 -20 -2 -26 -8 -28 -25z"/>
<path d="M5035 8892 c-3 -4 -16 -7 -28 -7 -23 0 -23 -2 -12 -48 6 -24 4 -29
-14 -34 -25 -6 -23 -25 3 -29 40 -6 46 -13 46 -61 1 -52 0 -52 44 9 11 16 57
15 56 -1 -1 -7 -65 -55 -150 -113 -35 -24 -58 -34 -64 -28 -6 6 -17 10 -25 10
-13 0 -13 -2 -2 -9 11 -7 11 -9 0 -13 -8 -3 -24 6 -36 19 -12 12 -23 23 -25
23 -2 0 -3 -15 -3 -32 0 -52 -28 -46 -160 36 -66 41 -121 73 -122 72 -2 -1 22
-76 52 -167 30 -90 54 -166 53 -170 -2 -3 -63 -57 -137 -120 l-134 -114 180
-3 181 -2 43 -108 c41 -99 44 -112 40 -182 -2 -46 -8 -78 -17 -85 -7 -5 -16
-23 -20 -38 -5 -23 -3 -29 15 -34 11 -3 21 -10 21 -15 0 -5 -21 -35 -46 -66
-25 -31 -41 -58 -35 -60 6 -2 41 1 78 7 57 9 70 8 83 -5 20 -19 17 -101 -4
-122 -14 -14 -17 -14 -36 3 -11 10 -20 15 -20 12 0 -4 -21 3 -46 13 -25 11
-48 20 -50 20 -2 0 12 -32 32 -71 l36 -71 -29 -32 c-16 -17 -37 -42 -48 -55
l-20 -24 78 5 78 5 16 -31 c8 -17 22 -38 30 -47 13 -15 12 -19 -8 -33 -25 -17
-24 -18 -98 49 l-33 30 7 -81 7 -82 -61 -48 c-55 -45 -59 -50 -38 -56 12 -3
36 -6 54 -7 37 -1 55 -30 73 -116 6 -31 15 -53 18 -51 4 2 16 25 27 50 18 42
33 53 68 47 4 0 7 6 7 14 0 14 -12 20 -33 16 -5 -1 -7 6 -5 16 3 15 15 18 68
19 75 1 85 -2 69 -22 -10 -12 -8 -13 7 -8 40 13 84 39 84 50 0 6 10 19 23 28
20 14 21 16 5 26 -10 6 -18 18 -18 25 0 8 -7 15 -16 15 -9 0 -14 6 -11 13 2 6
11 11 21 9 9 -2 16 4 16 13 0 9 10 20 23 24 20 8 21 10 3 17 -12 5 -21 2 -27
-8 -8 -14 -14 -14 -46 -3 -33 12 -38 17 -35 42 4 28 26 56 52 65 8 3 -2 8 -22
12 -40 7 -53 35 -18 37 11 1 25 3 30 4 6 1 13 3 18 4 4 0 -6 10 -23 20 -54 35
-80 59 -72 67 4 5 16 3 27 -4 25 -15 28 -8 25 53 -1 28 3 53 9 57 14 9 1 22
-13 13 -6 -3 -11 -17 -11 -31 0 -17 -8 -27 -26 -34 -34 -13 -44 -6 -44 36 0
28 4 34 20 34 18 0 19 3 9 23 l-12 22 23 -20 23 -20 -5 27 c-4 22 -1 27 19 31
21 4 34 -9 104 -115 45 -66 83 -117 86 -115 3 3 12 79 22 169 l16 163 162 40
c89 22 164 43 167 46 3 3 -66 40 -154 81 l-159 76 4 79 c17 284 17 264 -8 258
-16 -3 -44 11 -102 53 l-80 57 39 3 38 3 -26 28 -27 28 30 13 30 12 -21 18
c-16 13 -22 28 -21 55 l1 37 -28 -27 c-20 -19 -34 -25 -49 -20 -25 8 -25 12
-7 55 12 30 14 31 24 14 11 -18 11 -18 12 3 0 12 3 29 6 37 5 12 2 15 -11 10
-14 -6 -16 -3 -11 14 3 12 9 31 12 42 3 11 9 20 14 20 4 0 11 7 14 16 3 8 2
12 -4 9 -16 -10 -12 11 5 25 12 10 13 16 4 26 -16 19 2 18 30 -2 20 -15 21
-18 8 -26 -15 -8 -15 -10 1 -27 16 -17 18 -17 44 6 21 20 32 24 58 18 17 -4
36 -15 42 -25 6 -10 19 -15 29 -13 22 6 13 33 -11 33 -10 0 -28 13 -39 28
l-20 29 27 27 27 28 -40 -6 c-33 -5 -44 -2 -67 21 l-27 26 -8 -34 c-10 -38
-53 -60 -78 -39 -13 11 -12 16 5 40 26 36 26 37 -10 45 -16 4 -30 10 -30 15 0
11 -57 30 -65 22z m181 -801 c-36 -37 -53 -47 -69 -43 -28 7 -37 20 -37 55 0
21 5 27 23 27 12 0 17 -3 11 -8 -6 -4 -13 -17 -17 -30 -4 -19 -3 -21 8 -12 8
7 19 9 24 6 15 -10 24 13 11 28 -14 18 0 24 55 25 l39 1 -48 -49z m-162 4
c-27 -36 -39 -42 -49 -25 -10 16 -25 12 -25 -7 0 -9 -2 -14 -5 -11 -3 3 -2 19
1 36 6 32 18 38 77 41 l28 1 -27 -35z m-128 -313 c-12 -11 -37 24 -30 42 6 16
9 15 21 -9 8 -15 12 -29 9 -33z m153 -251 c-14 -4 -30 19 -22 33 3 5 12 1 20
-10 10 -13 10 -20 2 -23z m-26 -405 c3 -8 -1 -17 -9 -20 -11 -4 -8 -16 16 -61
35 -64 36 -76 14 -111 -16 -23 -18 -24 -35 -8 -25 22 -24 33 4 43 l22 9 -27
10 c-18 8 -28 21 -33 44 -7 30 -8 31 -16 12 -7 -20 -29 -42 -29 -30 0 15 35
93 48 109 18 21 38 22 45 3z"/>
<path d="M5434 8773 c-17 -3 -20 -11 -20 -48 -1 -33 2 -42 11 -35 7 6 15 6 21
0 6 -6 13 7 20 35 11 47 7 54 -32 48z"/>
<path d="M7707 8759 c4 -13 8 -18 11 -10 2 7 -1 18 -6 23 -8 8 -9 4 -5 -13z"/>
<path d="M7425 8756 c-11 -6 -22 -12 -24 -13 -2 -2 1 -9 7 -16 9 -10 8 -19 -4
-35 -17 -25 -8 -28 20 -7 17 13 22 13 38 -2 22 -20 24 -18 31 28 5 31 2 36
-22 45 -19 8 -33 7 -46 0z"/>
<path d="M4856 8744 c-18 -12 -15 -19 7 -15 4 0 7 -3 7 -9 0 -5 -4 -10 -10
-10 -5 0 -10 -5 -10 -11 0 -7 10 -9 25 -5 14 4 25 2 25 -4 0 -5 7 -10 15 -10
18 0 19 12 3 28 -10 10 -10 15 2 22 17 11 13 15 -20 23 -15 3 -33 0 -44 -9z"/>
<path d="M4948 8723 c7 -3 16 -2 19 1 4 3 -2 6 -13 5 -11 0 -14 -3 -6 -6z"/>
<path d="M4950 8685 c7 -8 9 -15 4 -15 -11 0 18 -20 29 -20 4 0 0 11 -10 25
-10 13 -22 25 -27 25 -5 0 -3 -7 4 -15z"/>
<path d="M6940 8511 c0 -23 -2 -41 -5 -41 -3 0 -22 7 -42 15 -50 21 -56 19
-38 -15 9 -16 22 -30 29 -30 9 0 14 -14 14 -43 1 -48 16 -94 38 -118 12 -14
12 -18 -6 -34 -16 -14 -19 -26 -15 -49 5 -22 3 -27 -4 -17 -8 13 -13 11 -30
-10 -11 -13 -20 -29 -21 -36 0 -6 -3 -19 -7 -29 -5 -13 -3 -16 10 -11 9 3 17
2 17 -3 0 -6 -7 -10 -16 -10 -8 0 -12 -4 -9 -10 12 -19 55 -11 65 13 5 12 9
16 9 10 1 -7 8 -13 17 -13 10 0 14 -5 10 -15 -3 -8 -9 -22 -12 -30 -9 -23 10
-18 40 10 29 27 35 12 9 -24 -16 -23 -16 -24 5 -19 11 3 23 1 25 -5 2 -6 9 -7
16 -3 9 6 9 11 1 21 -7 8 -7 15 -1 19 11 7 14 2 49 -64 13 -25 31 -52 40 -60
13 -11 14 -12 4 -1 -18 22 -15 43 6 37 15 -5 20 4 30 64 7 39 12 88 12 110 0
37 2 40 28 40 15 0 33 5 40 12 7 7 12 9 12 5 0 -4 8 1 18 11 13 11 16 21 10
29 -6 7 -8 20 -6 29 3 16 4 16 21 0 16 -16 19 -17 30 -3 7 8 21 17 32 19 17 4
14 8 -17 23 -20 10 -39 25 -42 34 -3 9 -9 23 -12 31 -5 12 -4 13 7 3 13 -13
38 -19 26 -6 -4 3 -2 12 4 19 7 8 7 14 -1 19 -5 3 -10 24 -10 47 0 31 -3 38
-12 31 -7 -6 -25 -13 -40 -17 -25 -6 -28 -4 -28 18 0 14 -5 28 -10 31 -6 4 -8
16 -4 27 5 18 3 20 -21 14 -15 -4 -49 -25 -76 -48 -31 -26 -60 -42 -81 -44
-18 -1 -27 0 -20 3 20 8 14 18 -38 62 l-50 42 0 -40z"/>
<path d="M7335 8470 c-3 -5 -2 -10 4 -10 5 0 13 5 16 10 3 6 2 10 -4 10 -5 0
-13 -4 -16 -10z"/>
<path d="M7340 8430 c20 -13 43 -13 35 0 -3 6 -16 10 -28 10 -18 0 -19 -2 -7
-10z"/>
<path d="M6335 8311 c-3 -5 -1 -12 5 -16 5 -3 10 1 10 9 0 18 -6 21 -15 7z"/>
<path d="M6968 7978 c16 -16 16 -52 -1 -45 -17 6 -51 -19 -42 -32 4 -7 -4 -11
-21 -11 l-28 0 27 -28 c31 -32 34 -58 11 -90 -14 -20 -14 -22 3 -22 10 0 27 7
37 15 19 15 41 11 31 -6 -3 -5 0 -6 8 -3 8 3 20 -2 27 -11 21 -25 28 -17 20
24 -7 40 2 61 26 61 6 0 17 6 23 14 10 12 5 15 -29 21 -31 5 -40 11 -42 28 -1
12 -3 31 -3 42 -4 36 -17 55 -38 55 -16 0 -18 -3 -9 -12z"/>
<path d="M6870 7940 c0 -5 5 -10 11 -10 5 0 7 5 4 10 -3 6 -8 10 -11 10 -2 0
-4 -4 -4 -10z"/>
<path d="M6823 7873 c-7 -2 -13 -12 -13 -21 0 -15 2 -15 10 -2 8 13 11 11 16
-7 6 -23 34 -33 34 -13 0 6 -4 10 -10 10 -5 0 -10 9 -10 20 0 20 -5 23 -27 13z"/>
<path d="M6846 7764 c-8 -21 -8 -21 7 -27 10 -4 13 2 9 19 -5 28 -8 30 -16 8z"/>
<path d="M6804 7715 c-3 -19 -9 -35 -13 -35 -4 0 -8 -7 -8 -15 0 -8 3 -15 7
-15 4 0 5 -13 2 -30 -3 -24 -9 -30 -31 -31 -48 -1 -95 -9 -104 -18 -10 -10 26
-37 90 -69 l41 -21 -5 -81 c-3 -44 -2 -80 3 -80 5 0 29 23 54 51 l45 52 73
-37 c39 -20 72 -33 72 -28 0 4 -16 37 -35 72 -19 36 -35 68 -35 71 0 3 20 32
45 63 25 32 45 61 45 63 0 6 -104 -5 -132 -13 -12 -4 -27 14 -58 66 -22 38
-43 70 -45 70 -2 0 -7 -16 -11 -35z"/>
<path d="M6388 7684 c-12 -13 -20 -14 -36 -5 -30 16 -51 14 -29 -3 9 -7 17
-23 17 -36 0 -18 3 -20 15 -10 8 6 23 9 35 5 19 -6 20 -4 11 13 -7 13 -7 22 1
30 7 7 9 14 7 17 -3 2 -12 -3 -21 -11z"/>
<path d="M5045 7430 c-3 -5 -1 -10 4 -10 6 0 11 5 11 10 0 6 -2 10 -4 10 -3 0
-8 -4 -11 -10z"/>
<path d="M7710 7297 c-8 -7 -15 -28 -16 -47 0 -19 -4 -45 -8 -57 -10 -30 6
-29 39 1 20 19 22 24 8 22 -9 0 -19 6 -21 15 -4 21 58 22 76 0 11 -14 12 -14
10 4 -2 14 4 21 19 23 19 3 21 6 12 26 -8 17 -19 23 -42 22 -18 -1 -35 -5 -39
-11 -5 -6 -11 -6 -16 2 -5 9 -11 9 -22 0z"/>
<path d="M7940 7300 c-14 -4 -21 -8 -16 -9 5 -1 4 -7 -2 -14 -6 -7 -7 -19 -3
-26 6 -9 10 -7 14 9 3 12 10 19 15 16 5 -3 12 3 15 14 3 11 4 20 4 19 -1 -1
-13 -5 -27 -9z"/>
<path d="M7433 7219 c-11 -28 -14 -30 -50 -23 l-38 7 29 -32 c26 -27 28 -33
18 -56 -18 -40 -15 -54 11 -47 12 3 25 10 29 16 4 7 19 0 38 -19 l31 -30 -22
-17 c-11 -10 -31 -18 -43 -18 -19 -1 -19 -3 9 -25 19 -16 33 -21 39 -15 6 6
21 10 34 10 20 0 22 3 13 14 -6 7 -9 21 -5 30 3 9 2 16 -3 16 -6 0 -15 11 -21
24 -9 21 -8 26 8 31 11 4 24 4 29 0 5 -3 13 0 17 6 3 6 1 15 -5 19 -7 4 -11
11 -10 16 4 24 -4 34 -33 42 -23 6 -34 16 -42 39 -15 45 -20 46 -33 12z m64
-121 c-3 -8 -6 -5 -6 6 -1 11 2 17 5 13 3 -3 4 -12 1 -19z"/>
<path d="M7729 7113 c-1 -5 -1 -16 0 -25 1 -10 -3 -18 -9 -18 -6 0 -8 -5 -4
-11 5 -8 10 -6 16 5 5 9 16 16 23 16 8 0 14 6 13 13 -5 20 -36 37 -39 20z"/>
<path d="M8020 7094 c0 -8 -5 -14 -10 -14 -6 0 -6 -6 2 -13 7 -8 19 -12 28
-10 22 6 20 41 -2 46 -11 3 -18 0 -18 -9z"/>
<path d="M7568 6989 c-13 -13 -14 -19 -5 -19 14 0 37 20 37 32 0 13 -14 8 -32
-13z"/>
<path d="M7098 6971 c-1 -4 -24 -32 -50 -61 l-48 -52 -65 26 c-36 14 -67 26
-69 26 -3 0 7 -28 20 -61 25 -60 25 -84 2 -61 -18 18 -25 15 -33 -15 -3 -16
-16 -38 -27 -50 -18 -19 -19 -23 -5 -23 24 0 31 -19 15 -38 -25 -29 -30 -42
-14 -36 8 3 22 1 32 -4 22 -12 54 -4 54 14 0 8 6 14 13 14 13 0 22 -79 9 -95
-12 -17 -72 -46 -81 -40 -5 3 -12 1 -16 -5 -3 -5 -9 -10 -13 -10 -4 0 -52 36
-106 80 -55 44 -101 79 -103 77 -1 -2 4 -58 13 -126 9 -67 14 -128 11 -135 -3
-7 -57 -43 -121 -80 -64 -37 -114 -71 -112 -75 3 -4 61 -13 130 -21 69 -7 130
-18 134 -24 8 -10 32 -130 37 -181 3 -39 18 -85 26 -85 23 0 5 -33 -31 -58
-32 -22 -40 -33 -41 -62 -1 -19 -3 -27 -6 -17 -5 18 -6 18 -19 -2 -9 -12 -23
-21 -32 -21 -14 0 -14 -2 -3 -9 8 -5 12 -15 9 -23 -6 -14 16 -41 26 -31 3 4 6
1 6 -5 0 -15 4 -15 -59 4 -29 8 -55 13 -58 11 -2 -3 10 -27 26 -55 17 -27 31
-52 31 -56 0 -4 -16 -31 -35 -61 -19 -30 -31 -55 -27 -55 5 0 32 7 62 16 l53
16 22 -29 c13 -15 32 -39 42 -52 l20 -25 7 72 c7 71 8 72 44 88 60 25 92 29
92 11 0 -22 32 -26 52 -6 14 15 14 18 2 23 -8 3 -14 13 -14 23 0 14 -2 15 -9
4 -7 -11 -15 -11 -41 -2 -18 6 -36 8 -40 6 -5 -3 -11 -1 -15 5 -3 5 -1 10 6
10 7 0 5 6 -6 13 -10 8 -15 19 -11 25 4 6 -7 21 -24 33 -47 35 -36 69 21 69
24 0 25 -20 2 -21 -11 0 -5 -6 15 -15 23 -10 32 -21 32 -38 0 -13 10 -36 22
-51 20 -26 22 -27 35 -9 12 16 15 17 23 4 8 -12 10 -12 16 3 3 9 12 17 20 17
8 0 14 5 14 10 0 6 -6 10 -13 8 -7 -2 -14 0 -15 5 -5 18 -1 27 15 27 13 0 14
3 5 12 -7 7 -12 20 -12 30 0 15 9 18 48 18 l47 1 -28 23 c-25 20 -26 24 -12
30 9 3 34 6 56 6 21 0 39 4 39 8 0 4 -29 25 -65 47 l-65 40 6 74 7 74 -57 -42
c-45 -33 -63 -41 -82 -37 -14 4 -24 11 -22 16 6 18 160 138 185 145 19 5 51
-6 121 -40 52 -25 96 -44 98 -42 2 2 -13 53 -33 115 l-37 111 29 32 c17 17 41
39 55 48 14 9 46 38 70 64 l44 48 -65 -7 c-98 -11 -103 -11 -107 11 -2 11 -10
24 -18 28 -21 12 -17 30 6 24 15 -4 20 0 20 14 0 10 5 19 11 19 6 0 9 10 7 23
-2 13 -10 22 -21 22 -10 0 -22 6 -26 13 -6 10 -10 9 -14 -7 -5 -21 -37 -30
-37 -12 0 15 42 41 66 41 11 0 29 9 39 20 18 19 17 20 -6 20 l-24 1 24 13 24
13 -24 16 c-13 8 -41 24 -62 33 l-38 18 6 83 c7 73 4 101 -7 74z m-8 -331 c0
-11 -6 -20 -14 -20 -9 0 -12 7 -9 20 3 11 9 20 14 20 5 0 9 -9 9 -20z m-395
-820 c-3 -5 -10 -10 -16 -10 -5 0 -9 5 -9 10 0 6 7 10 16 10 8 0 12 -4 9 -10z
m215 -126 c0 -8 -4 -14 -10 -14 -5 0 -10 9 -10 21 0 11 5 17 10 14 6 -3 10
-13 10 -21z m-160 6 c0 -5 -5 -10 -11 -10 -5 0 -7 5 -4 10 3 6 8 10 11 10 2 0
4 -4 4 -10z"/>
<path d="M7210 6899 c0 -6 -7 -9 -15 -5 -10 3 -15 -1 -15 -12 0 -10 -4 -23
-10 -28 -7 -7 2 -10 25 -10 24 0 34 4 31 12 -3 7 0 14 6 16 14 5 3 38 -12 38
-5 0 -10 -5 -10 -11z"/>
<path d="M5171 6848 c-11 -24 -38 -62 -58 -85 -21 -23 -46 -54 -56 -68 -10
-14 -24 -25 -31 -25 -13 0 -36 40 -36 63 0 7 -9 18 -20 25 -17 10 -20 10 -20
-3 0 -8 -4 -15 -9 -15 -5 0 -7 -9 -4 -20 4 -15 0 -20 -16 -20 -11 0 -21 -4
-21 -10 0 -5 -11 -10 -25 -10 l-26 0 22 -30 c13 -16 19 -33 15 -37 -4 -4 -10
-3 -14 2 -8 11 -8 11 -131 26 -46 6 -84 9 -86 7 -1 -2 42 -58 96 -126 79 -99
97 -126 89 -140 -6 -9 -43 -73 -84 -142 -41 -69 -73 -127 -71 -129 2 -1 40 9
85 24 45 15 90 25 101 22 10 -3 22 0 27 7 7 12 56 36 72 36 6 0 10 -7 10 -15
0 -11 5 -12 25 -5 30 11 35 4 24 -36 -6 -22 -17 -34 -35 -38 -15 -4 -29 -5
-31 -2 -8 8 7 26 23 26 8 0 12 5 9 10 -11 18 -95 9 -95 -10 0 -4 14 -13 30
-19 29 -10 30 -12 24 -53 l-7 -43 29 27 c26 24 33 26 67 18 35 -7 38 -7 34 10
-3 11 1 24 9 31 11 9 29 -5 89 -67 l76 -79 -6 175 -7 175 157 64 c86 35 152
67 148 72 -4 4 -78 26 -163 49 l-156 42 -12 116 c-15 144 -16 193 -2 172 8
-12 10 -10 10 10 -1 14 -7 33 -14 43 -13 16 -16 14 -35 -25z"/>
<path d="M7360 6862 l0 -33 24 18 c20 15 21 19 8 22 -10 2 -20 8 -24 15 -4 6
-8 -4 -8 -22z"/>
<path d="M5057 6763 c-4 -3 -7 -12 -7 -19 0 -17 27 -7 34 12 5 14 -15 20 -27
7z"/>
<path d="M4954 5948 c-3 -5 -15 -8 -25 -5 -22 6 -26 -11 -5 -19 18 -7 27 -30
19 -50 -4 -11 -13 -13 -35 -8 l-30 6 22 -30 c19 -25 20 -32 9 -50 -17 -27 -5
-38 26 -24 20 10 26 9 34 -6 6 -12 5 -23 -4 -36 -13 -17 -17 -17 -57 -3 -24 9
-58 20 -76 26 -38 12 -38 14 24 -74 l42 -60 -39 -65 c-21 -35 -37 -65 -35 -67
2 -2 27 2 55 9 41 9 57 9 72 0 10 -7 25 -12 33 -12 15 0 56 -45 56 -62 0 -5
-16 -18 -37 -30 -20 -12 -32 -23 -27 -24 5 -1 21 -5 37 -8 25 -6 27 -10 27
-61 0 -40 -4 -55 -14 -55 -7 0 -20 -7 -27 -16 -12 -15 -11 -16 9 -10 14 5 29
3 37 -4 12 -10 15 -9 15 9 0 26 17 27 43 4 18 -17 19 -17 16 1 -2 11 -8 18
-13 15 -15 -7 -38 72 -25 87 18 21 32 16 26 -8 -5 -21 -5 -21 7 -5 7 9 21 17
30 17 19 0 21 11 5 27 -8 8 -8 17 0 31 14 26 14 82 1 82 -7 0 -7 7 1 21 9 18
17 21 50 16 l40 -5 -25 33 c-22 29 -24 35 -11 45 19 16 20 51 1 44 -8 -3 -38
6 -68 19 -44 20 -53 29 -55 52 0 15 -7 31 -14 36 -11 6 -10 9 4 15 12 4 26 -1
41 -15 l23 -22 6 28 c4 20 18 36 48 52 l42 24 -27 24 c-15 13 -29 35 -30 49
-5 44 -20 47 -55 12 -18 -18 -29 -25 -26 -15 6 13 2 17 -14 17 -12 0 -21 6
-21 15 0 19 -10 19 -24 0 -10 -13 -15 -11 -43 14 -19 17 -35 25 -39 19z m159
-465 c6 -32 -14 -52 -25 -25 -11 29 -9 52 6 52 7 0 16 -12 19 -27z"/>
<path d="M6798 5400 c-5 -16 22 -70 36 -70 5 0 3 -7 -4 -15 -11 -13 -10 -15 6
-9 18 5 18 5 0 -6 -10 -7 -33 -10 -52 -7 -19 3 -34 2 -34 -4 0 -5 11 -9 25 -9
13 0 33 -9 43 -20 18 -20 19 -20 42 5 14 15 30 23 41 20 13 -5 16 0 14 23 -1
15 -7 37 -13 47 -10 19 -11 19 -17 3 -4 -10 -16 -18 -27 -18 -10 0 -17 4 -13
9 3 5 -5 22 -18 37 -18 20 -25 24 -29 14z"/>
<path d="M6665 5276 c-17 -12 -17 -13 8 -18 28 -5 32 -1 19 19 -7 10 -12 10
-27 -1z"/>
<path d="M6727 5238 c-7 -27 17 -67 26 -43 8 19 27 20 27 1 0 -9 7 -12 19 -9
17 4 18 8 8 23 -6 10 -15 16 -20 13 -4 -3 -11 4 -14 16 -7 27 -39 27 -46 -1z"/>
<path d="M5056 5190 c-10 -10 -15 -23 -11 -29 3 -6 1 -11 -4 -11 -6 0 -11 -5
-11 -11 0 -8 4 -8 15 1 11 9 20 8 45 -10 l30 -21 0 30 c0 18 -9 40 -20 51 -24
24 -20 24 -44 0z"/>
<path d="M6853 5179 c7 -27 -1 -49 -19 -49 -8 0 -14 -5 -14 -11 0 -6 9 -8 20
-4 30 10 24 -2 -10 -20 -42 -22 -37 -32 15 -31 34 1 44 4 40 15 -3 7 3 19 12
27 17 12 17 13 0 19 -13 5 -15 11 -7 20 8 9 6 14 -5 19 -8 3 -15 12 -15 21 0
8 -5 15 -11 15 -7 0 -9 -9 -6 -21z"/>
<path d="M6650 5176 c0 -18 22 -36 44 -36 15 0 17 3 9 11 -6 6 -9 17 -7 24 3
8 -4 13 -20 13 -14 0 -26 -6 -26 -12z"/>
<path d="M6815 5160 c4 -6 11 -8 16 -5 14 9 11 15 -7 15 -8 0 -12 -5 -9 -10z"/>
<path d="M4990 5109 c0 -5 5 -7 10 -4 6 3 10 8 10 11 0 2 -4 4 -10 4 -5 0 -10
-5 -10 -11z"/>
<path d="M4902 5083 c-22 -23 -22 -26 -6 -38 10 -7 26 -10 36 -7 19 5 24 27 8
37 -5 3 -7 12 -3 20 8 22 -9 16 -35 -12z"/>
<path d="M6638 5073 c-25 -13 -28 -19 -28 -65 0 -50 0 -51 20 -33 11 10 20 13
20 7 0 -6 6 -9 14 -6 8 3 19 -3 25 -15 10 -17 9 -20 -4 -15 -8 4 -15 1 -15 -5
0 -6 6 -11 14 -11 10 0 17 -18 22 -57 3 -32 9 -62 13 -68 9 -15 7 -125 -3
-125 -4 0 -5 -7 -2 -16 7 -19 -10 -44 -29 -44 -8 0 -19 16 -25 36 -13 39 -19
38 -35 -9 -7 -21 -17 -32 -30 -33 -44 -2 -46 -4 -40 -24 5 -15 -1 -24 -24 -38
-35 -20 -40 -32 -12 -32 11 0 32 -11 47 -25 14 -13 30 -22 35 -19 12 7 11 -13
-2 -38 -17 -31 2 -44 45 -31 31 10 37 8 57 -13 12 -13 19 -24 15 -24 -5 0 -3
-7 4 -15 13 -16 -4 -22 -73 -27 l-38 -3 55 -45 c30 -25 55 -52 56 -60 0 -8
-14 -44 -30 -79 -17 -35 -28 -66 -26 -69 3 -2 21 6 41 18 31 19 39 21 65 10
17 -7 30 -14 30 -16 0 -1 -10 -19 -21 -39 -25 -42 -22 -49 15 -35 34 13 49 13
41 0 -3 -5 2 -10 12 -10 21 0 43 -18 43 -35 0 -5 -10 -25 -21 -44 -20 -33 -22
-34 -32 -15 -10 17 -12 14 -22 -26 l-11 -45 -43 3 c-24 1 -55 9 -70 17 -31 16
-57 5 -48 -20 4 -9 11 -14 16 -11 10 6 61 -49 61 -65 0 -9 -35 -14 -77 -10
-13 1 -23 -2 -23 -7 0 -13 36 -43 43 -36 3 3 3 -4 0 -15 -6 -24 -38 -45 -53
-36 -6 3 -10 -2 -10 -12 0 -11 -5 -24 -12 -31 -9 -9 -8 -12 5 -12 23 0 40 -35
28 -58 -6 -10 -7 -28 -4 -40 3 -13 1 -22 -6 -22 -5 0 -8 6 -5 14 4 10 -1 15
-13 14 -10 0 -26 3 -36 7 -16 7 -17 5 -5 -21 7 -16 19 -34 27 -40 12 -10 11
-13 -8 -23 -12 -7 -30 -9 -41 -6 -11 3 -31 0 -46 -8 l-27 -14 62 -43 c40 -28
60 -48 56 -58 -3 -7 -5 -16 -5 -18 0 -2 -12 -1 -27 2 l-27 7 23 -39 c16 -27
21 -48 18 -71 -4 -23 -2 -31 7 -27 17 6 14 -28 -7 -77 l-14 -35 51 7 c28 5 60
11 72 14 13 4 25 0 34 -9 20 -25 -15 -60 -52 -52 -26 5 -26 4 -17 -24 7 -20 7
-35 0 -49 -15 -28 -14 -33 8 -26 13 4 27 -1 40 -14 26 -26 26 -26 28 0 4 46
55 66 87 34 8 -8 19 -15 25 -15 6 0 14 -12 17 -26 5 -20 2 -29 -12 -38 -17 -9
-15 -11 16 -16 33 -5 36 -8 44 -52 8 -43 7 -49 -15 -67 -13 -11 -18 -20 -12
-21 7 0 20 -14 29 -32 14 -27 18 -29 28 -17 6 8 19 18 30 22 13 5 16 12 11 25
-4 9 -7 28 -6 41 1 16 -3 21 -13 18 -36 -14 -49 52 -16 80 14 12 16 20 9 29
-14 17 -2 52 19 57 15 3 15 5 -3 12 -31 14 -56 48 -51 73 3 22 -8 30 -19 12
-10 -16 -35 -12 -41 8 -3 9 -11 27 -17 40 -8 16 -8 25 1 34 9 9 12 8 12 -6 0
-13 5 -16 16 -12 14 5 16 1 11 -28 l-5 -33 23 23 c27 27 56 34 35 9 -10 -12
-10 -15 4 -15 9 0 16 5 16 11 0 6 6 9 14 6 10 -4 15 9 20 51 4 33 3 58 -3 61
-6 4 -6 12 -1 21 15 23 12 27 -19 22 -22 -3 -32 1 -41 17 -9 18 -8 22 7 28 38
15 58 49 23 40 -11 -3 -23 -1 -26 4 -9 14 -24 10 -24 -7 0 -8 -4 -13 -9 -10
-4 3 -13 -6 -19 -19 -17 -38 -38 -30 -57 20 -14 36 -15 48 -5 60 7 8 18 15 24
14 25 -3 35 2 30 15 -8 21 15 30 24 9 4 -10 17 -19 28 -20 16 -2 23 4 27 23 3
16 -1 28 -9 31 -8 3 -14 11 -14 19 0 9 -12 14 -35 14 -37 0 -43 8 -23 28 9 9
7 12 -11 12 -26 0 -24 18 3 34 13 9 20 7 32 -9 15 -19 15 -19 14 10 -3 47 -2
47 38 27 20 -11 55 -28 77 -38 22 -10 43 -20 47 -22 4 -2 -8 31 -27 73 -19 42
-35 81 -35 88 0 6 23 35 52 64 28 29 50 54 47 57 -2 2 -38 12 -79 23 -72 17
-75 19 -82 53 -23 109 -13 196 27 226 12 9 13 21 5 64 -17 92 -17 93 65 146
66 43 91 67 68 63 -5 -1 -31 -1 -59 0 l-51 1 0 40 c0 26 6 45 18 56 26 23 24
34 -6 34 -33 0 -32 24 1 55 23 22 24 25 9 31 -13 5 -14 9 -4 15 10 6 10 11 0
23 -13 15 -12 30 4 69 6 15 4 17 -19 11 -30 -7 -76 2 -76 15 0 5 8 7 18 4 16
-4 18 1 14 31 -4 32 -2 36 19 36 l22 0 -22 24 c-12 13 -21 27 -20 32 4 26 -1
36 -14 26 -10 -9 -19 -7 -35 4 -21 14 -22 14 -22 -9 0 -20 -4 -24 -20 -20 -11
3 -20 10 -20 16 0 5 -26 36 -58 67 -62 61 -78 86 -59 94 9 3 9 7 -1 14 -7 5
-10 16 -6 25 3 9 -2 24 -13 35 -16 16 -21 17 -45 5z m182 -332 c0 -5 8 -11 18
-13 10 -3 19 -13 19 -22 0 -19 -52 -23 -63 -4 -5 7 -3 8 6 3 10 -6 11 -2 6 19
-4 15 -2 26 4 26 5 0 10 -4 10 -9z m50 -96 c-7 -8 -18 -15 -24 -15 -6 0 -4 4
4 10 8 5 11 12 7 16 -4 4 -1 14 6 22 11 13 12 13 15 -2 2 -9 -2 -23 -8 -31z
m-40 -505 c0 -5 -2 -10 -4 -10 -3 0 -8 5 -11 10 -3 6 -1 10 4 10 6 0 11 -4 11
-10z m-58 -576 c-3 -15 -8 -22 -14 -16 -9 9 -1 42 12 42 4 0 5 -12 2 -26z m41
-541 c3 -16 2 -32 -3 -36 -4 -5 -10 7 -12 27 -5 42 7 49 15 9z m-59 -36 c24
-32 18 -42 -18 -26 -18 8 -26 20 -26 36 0 30 17 26 44 -10z m153 -84 c-9 -9
-19 -14 -23 -11 -10 10 6 28 24 28 15 0 15 -1 -1 -17z"/>
<path d="M5015 5070 c3 -5 8 -10 11 -10 2 0 4 5 4 10 0 6 -5 10 -11 10 -5 0
-7 -4 -4 -10z"/>
<path d="M5050 5050 c0 -16 -4 -20 -19 -15 -15 5 -18 1 -13 -20 3 -20 9 -24
25 -19 16 5 19 3 14 -10 -4 -9 -2 -15 5 -13 24 4 18 -30 -7 -43 -29 -16 -17
-30 26 -30 19 0 29 -8 41 -32 l16 -33 12 28 c11 23 19 27 53 27 l40 0 -29 22
c-16 12 -31 23 -33 24 -2 2 2 17 8 34 10 29 9 31 -7 25 -43 -18 -64 -17 -88 5
-13 13 -24 31 -24 41 0 10 -4 21 -10 24 -5 3 -10 -3 -10 -15z"/>
<path d="M6897 5033 c-4 -3 -7 -19 -7 -35 0 -15 -4 -28 -10 -28 -12 0 -13 -37
-1 -44 21 -13 37 6 37 42 0 20 4 45 8 55 6 12 4 17 -6 17 -8 0 -18 -3 -21 -7z"/>
<path d="M6790 4980 c-12 -8 -10 -10 8 -10 13 0 20 4 17 10 -7 12 -6 12 -25 0z"/>
<path d="M4902 4938 c21 -39 49 -70 56 -63 2 1 5 21 7 44 4 43 -7 54 -24 24
-9 -17 -10 -17 -17 2 -4 11 -12 23 -18 27 -24 17 -25 6 -4 -34z"/>
<path d="M4975 4930 c3 -5 11 -10 16 -10 6 0 7 5 4 10 -3 6 -11 10 -16 10 -6
0 -7 -4 -4 -10z"/>
<path d="M4983 4806 c-19 -11 -20 -15 -9 -27 21 -22 -7 -81 -37 -77 -16 2 -23
11 -25 31 l-3 28 -21 -26 c-18 -23 -26 -26 -55 -20 l-34 6 17 -32 c15 -30 15
-35 0 -66 -18 -37 -18 -37 20 -23 24 10 30 8 50 -17 23 -27 23 -27 25 -5 1 12
2 28 3 35 0 6 15 17 32 22 17 6 39 16 48 24 16 13 16 15 2 23 -9 5 -22 6 -29
2 -6 -4 0 5 16 21 27 28 27 28 49 9 21 -19 21 -19 14 8 -3 15 -2 29 3 32 14 9
-11 66 -29 65 -8 -1 -25 -6 -37 -13z"/>
<path d="M5000 4606 c0 -8 -6 -21 -13 -28 -7 -7 -20 -27 -29 -45 -13 -27 -14
-33 -2 -37 9 -3 14 -21 14 -48 0 -33 -3 -39 -12 -30 -21 21 -31 13 -25 -21 4
-29 1 -36 -29 -56 -34 -23 -44 -41 -23 -41 5 0 8 -4 4 -10 -3 -5 -13 -6 -21
-3 -11 4 -15 0 -12 -14 1 -10 -5 -31 -14 -45 -17 -26 -17 -27 3 -33 11 -4 36
-20 55 -37 29 -26 32 -33 22 -46 -12 -14 -10 -14 10 -1 21 13 25 12 48 -15 15
-16 21 -32 16 -35 -6 -3 -8 -29 -6 -56 2 -28 6 -70 8 -95 5 -58 20 -116 30
-113 4 1 21 20 37 43 34 47 53 57 74 40 16 -14 18 -6 6 25 -5 11 -4 25 1 32 6
8 4 20 -7 37 -10 15 -13 30 -9 38 5 7 7 22 5 32 -2 13 2 17 12 13 9 -3 18 1
21 8 3 8 11 12 19 9 10 -3 14 4 15 26 1 25 -8 37 -21 28 -2 -2 -11 3 -20 11
-15 12 -17 11 -17 -8 0 -12 -6 -21 -15 -21 -16 0 -18 14 -6 45 10 26 -6 40
-46 41 -22 1 -33 -4 -33 -12 0 -8 -4 -14 -9 -14 -13 0 -20 37 -9 48 6 6 6 12
-1 17 -14 8 18 65 37 65 7 0 19 5 26 12 10 10 9 19 -8 47 -18 31 -18 34 -2 28
14 -6 16 -3 11 13 -4 11 -2 20 4 20 6 0 11 -12 11 -26 0 -27 -1 -27 49 -6 11
4 12 1 4 -12 -18 -32 3 -86 22 -56 3 5 11 7 19 4 9 -4 12 7 10 42 -3 44 -2 46
21 41 15 -2 25 0 25 7 -1 15 -25 46 -36 46 -5 0 -23 18 -41 39 -24 29 -29 41
-20 50 12 12 7 14 -39 11 -23 -1 -42 8 -67 29 -39 35 -47 37 -47 17z"/>
<path d="M4926 4085 c-10 -13 -21 -23 -25 -21 -3 2 -6 -8 -6 -23 0 -23 4 -28
26 -28 32 0 58 34 33 44 -11 4 -14 13 -10 29 8 30 5 30 -18 -1z"/>
<path d="M6755 4070 c3 -5 8 -10 11 -10 2 0 4 5 4 10 0 6 -5 10 -11 10 -5 0
-7 -4 -4 -10z"/>
<path d="M6595 3830 c-8 -13 -1 -24 14 -19 6 3 7 10 2 18 -6 10 -10 10 -16 1z"/>
<path d="M4936 3811 c-9 -13 3 -38 20 -45 12 -4 15 1 12 21 -3 27 -22 41 -32
24z"/>
<path d="M4999 3770 c-8 -58 -4 -69 24 -68 18 1 27 6 27 17 0 9 3 26 6 39 6
19 3 22 -25 22 -17 0 -32 -4 -32 -10z"/>
<path d="M4900 3715 c-10 -13 -9 -15 9 -15 12 0 21 6 21 15 0 8 -4 15 -9 15
-5 0 -14 -7 -21 -15z"/>
<path d="M4920 3592 c0 -5 9 -21 21 -36 20 -25 20 -28 5 -45 -18 -20 -21 -41
-6 -41 6 0 10 7 10 16 0 11 5 14 16 10 9 -3 20 -6 25 -6 18 0 9 -17 -16 -30
-28 -15 -17 -30 23 -30 12 0 22 -4 22 -8 0 -5 10 -13 21 -18 18 -8 28 -4 55
20 31 27 32 31 19 46 -19 21 -19 29 1 51 23 25 9 39 -37 39 -29 0 -39 4 -39
16 0 13 -7 15 -39 9 -23 -4 -48 -2 -60 5 -12 6 -21 7 -21 2z"/>
<path d="M5020 3369 c0 -5 5 -7 10 -4 6 3 10 8 10 11 0 2 -4 4 -10 4 -5 0 -10
-5 -10 -11z"/>
<path d="M4983 3294 c-10 -21 -8 -26 8 -34 17 -9 19 -7 19 19 0 39 -12 46 -27
15z"/>
<path d="M5094 3279 c-6 -8 -11 -27 -9 -44 3 -47 6 -52 15 -27 5 12 16 22 25
22 8 0 15 5 15 10 0 6 -6 10 -14 10 -8 0 -16 10 -18 22 -2 18 -5 19 -14 7z"/>
<path d="M4926 3184 c-8 -20 -4 -25 11 -16 7 4 9 13 4 21 -6 10 -10 9 -15 -5z"/>
<path d="M5076 3123 c-3 -4 -6 -12 -6 -20 0 -14 26 -18 33 -5 6 9 -19 33 -27
25z"/>
<path d="M5001 3097 c-7 -9 -27 -19 -45 -22 -17 -4 -40 -8 -51 -10 -11 -2 -22
-4 -25 -5 -3 -1 -13 -1 -24 0 -16 1 -15 -2 8 -32 20 -27 23 -37 14 -46 -9 -9
-9 -12 0 -12 15 0 2 -28 -23 -54 -14 -14 -14 -18 0 -45 8 -16 12 -37 9 -45 -7
-19 0 -20 27 -6 15 8 27 7 49 -7 38 -22 43 -37 19 -59 -18 -17 -19 -16 -19 11
0 16 -3 25 -6 22 -4 -3 -15 -2 -25 4 -24 12 -24 10 5 -41 17 -30 25 -37 29
-26 4 9 14 15 24 14 41 -3 50 2 48 27 -2 15 2 25 10 25 21 0 26 -29 10 -67 -8
-19 -15 -49 -15 -65 0 -40 -37 -74 -89 -83 -36 -6 -48 -3 -72 14 -29 21 -29
21 -29 1 0 -17 -6 -20 -44 -20 -73 0 -80 -7 -40 -42 39 -35 42 -44 14 -53 -29
-9 -17 -21 28 -29 56 -8 51 -33 -12 -61 l-51 -23 59 -26 c32 -14 62 -26 66
-26 11 0 22 -146 14 -196 l-6 -45 105 76 c57 42 115 78 127 80 15 3 53 -19
131 -76 60 -43 109 -74 109 -67 0 7 -14 68 -31 136 -18 67 -30 125 -26 128 3
3 23 -6 46 -20 22 -14 45 -26 50 -26 5 0 14 -7 21 -15 11 -13 15 -13 21 -3 7
10 9 10 9 -1 0 -10 3 -11 13 -3 10 8 20 4 41 -19 16 -17 32 -26 35 -20 4 5 15
9 26 8 13 -1 21 7 28 31 6 17 14 32 20 32 5 0 2 11 -7 25 -26 40 -21 55 19 53
43 -2 48 3 40 35 -5 18 -15 27 -38 31 -17 3 -33 2 -36 -2 -3 -5 -15 -14 -26
-20 -17 -9 -25 -6 -53 21 l-33 32 3 -40 c3 -36 0 -42 -32 -62 -19 -12 -38 -23
-41 -23 -4 0 -10 15 -13 34 -6 31 -3 38 36 75 24 22 49 41 57 41 7 0 11 6 8
15 -4 8 -1 18 6 22 17 10 -27 21 -93 22 -51 1 -57 4 -91 43 l-36 42 -17 -32
c-9 -17 -20 -32 -24 -32 -17 0 -32 25 -32 52 0 15 -4 28 -8 28 -4 0 -19 33
-31 73 -41 125 -41 125 -53 102 -11 -18 -12 -18 -17 -1 -6 16 -8 16 -30 -3
-27 -24 -30 -24 -51 -11 -13 9 -13 11 0 20 8 5 23 7 33 4 13 -4 17 0 17 18 1
32 29 64 64 72 23 6 27 4 23 -9 -5 -12 -1 -14 21 -8 31 7 53 31 50 53 -2 8 1
21 5 28 5 8 2 12 -9 12 -9 0 -23 8 -30 18 -12 16 -13 16 -14 0 0 -17 -28 -38
-49 -38 -5 0 -13 9 -16 21 -6 19 -7 20 -20 2 -18 -24 -31 -10 -42 46 -7 38
-10 42 -22 28z m-11 -228 c0 -15 -30 -23 -42 -11 -6 6 -8 22 -3 39 l7 28 19
-24 c10 -13 19 -27 19 -32z m-80 27 c-6 -8 -18 -12 -26 -9 -22 8 -16 18 12 21
22 2 24 0 14 -12z m94 -111 c3 -8 1 -15 -4 -15 -6 0 -10 7 -10 15 0 8 2 15 4
15 2 0 6 -7 10 -15z m419 -442 c7 -7 -11 -33 -23 -33 -4 0 -10 9 -13 20 -4 14
0 20 12 20 10 0 21 -3 24 -7z"/>
<path d="M6605 2884 c4 -15 0 -24 -11 -28 -16 -6 -16 -8 1 -20 12 -8 16 -20
13 -34 -6 -22 6 -31 33 -25 11 3 14 12 11 29 -2 13 -7 22 -11 20 -9 -6 -6 37
4 54 6 10 4 12 -10 6 -11 -4 -22 -1 -27 6 -6 9 -7 6 -3 -8z"/>
<path d="M6718 2760 c-6 -40 10 -49 34 -20 20 24 24 45 8 35 -6 -4 -17 -2 -24
4 -11 9 -15 5 -18 -19z"/>
<path d="M6012 2631 c-35 -42 -78 -93 -96 -113 l-33 -38 -39 20 c-28 15 -38
26 -36 40 2 11 -3 26 -10 34 -11 11 -16 11 -27 -1 -14 -15 -32 -14 -34 2 -2
19 -76 45 -131 46 -27 0 -29 -6 -12 -39 8 -16 12 -32 9 -36 -16 -16 -9 -36 17
-45 32 -11 64 -64 75 -123 6 -29 3 -38 -12 -46 -17 -10 -17 -11 -1 -17 14 -5
16 -14 11 -34 -6 -23 -5 -25 11 -12 37 31 22 -1 -49 -104 -41 -60 -73 -110
-72 -111 1 -1 66 7 145 18 78 11 148 18 155 15 7 -3 53 -68 102 -146 50 -77
93 -141 96 -141 4 0 8 72 11 161 3 115 7 162 17 168 7 4 73 21 147 37 l134 28
2 41 c0 22 0 50 -1 61 -2 33 17 74 34 74 20 0 19 -19 0 -26 -14 -6 -13 -8 2
-19 15 -11 19 -11 26 1 5 8 6 23 2 33 -5 15 3 22 41 35 26 9 48 15 49 13 10
-11 14 -47 5 -52 -5 -3 -10 -15 -10 -27 0 -11 -8 -22 -20 -25 -11 -3 -20 -9
-20 -14 0 -4 21 1 46 11 55 24 65 25 58 5 -4 -11 -2 -13 9 -9 9 3 25 0 36 -6
17 -9 25 -8 37 5 21 20 51 19 63 -2 9 -16 10 -16 11 5 0 12 5 22 11 22 5 0 -2
11 -18 26 -23 22 -25 28 -15 45 17 27 0 59 -28 52 -16 -4 -20 0 -20 20 0 13
-6 30 -13 36 -10 8 -19 4 -36 -19 -12 -17 -31 -30 -43 -30 -16 0 -18 3 -9 13
6 8 8 16 5 20 -3 3 0 15 6 27 10 19 17 20 58 14 l46 -7 -27 32 c-15 18 -24 38
-20 44 3 7 15 25 26 41 l21 29 -30 -7 c-16 -4 -36 -9 -45 -12 -10 -3 -27 7
-43 26 l-26 32 0 -41 c0 -29 -6 -44 -21 -55 -26 -18 -35 -86 -12 -86 10 0 12
-6 8 -22 -6 -17 -4 -20 9 -15 10 4 16 1 16 -8 0 -8 -9 -15 -20 -15 -11 0 -20
-4 -20 -10 0 -14 -12 -13 -73 10 l-54 20 -1 58 c0 31 -4 68 -9 80 -9 23 -10
23 -47 -22 -20 -25 -44 -46 -53 -46 -9 0 -31 11 -50 26 -25 19 -33 22 -33 10
0 -9 -4 -16 -9 -16 -6 0 -7 16 -4 37 l6 37 -43 -37 c-24 -20 -47 -37 -52 -37
-4 0 -9 19 -9 43 -1 23 -4 54 -8 68 -6 25 -9 23 -69 -50z m193 -201 c0 -8 -9
-16 -20 -19 -11 -2 -23 -8 -27 -14 -4 -6 -10 -8 -14 -5 -4 4 1 19 10 33 18 28
51 31 51 5z m113 -146 c19 -25 32 -48 29 -50 -2 -3 -35 13 -73 35 -43 25 -63
42 -54 45 13 4 47 12 60 14 3 1 20 -19 38 -44z"/>
<path d="M6723 2663 c-18 -6 -16 -33 1 -33 19 0 31 19 20 30 -5 4 -15 5 -21 3z"/>
<path d="M6780 2574 c0 -7 27 -34 34 -34 11 0 -6 29 -20 34 -8 3 -14 3 -14 0z"/>
<path d="M6807 2513 c-6 -6 -28 -10 -65 -12 -7 -1 -11 -5 -8 -10 3 -4 17 -6
31 -3 15 2 25 0 25 -7 0 -19 17 -12 34 14 13 20 14 25 3 25 -8 0 -17 -3 -20
-7z"/>
<path d="M6875 2480 c-4 -6 -15 -8 -25 -5 -11 4 -17 1 -16 -7 0 -7 -3 -14 -7
-15 -17 -4 -47 -52 -41 -66 3 -8 19 -17 35 -19 25 -4 29 -1 29 19 0 25 10 29
28 11 9 -9 12 -7 12 9 0 12 5 23 11 25 6 2 8 14 4 31 -7 28 -19 35 -30 17z"/>
<path d="M6758 2373 c7 -3 16 -2 19 1 4 3 -2 6 -13 5 -11 0 -14 -3 -6 -6z"/>
<path d="M6470 2320 c0 -5 5 -10 11 -10 5 0 7 5 4 10 -3 6 -8 10 -11 10 -2 0
-4 -4 -4 -10z"/>
<path d="M6855 2321 c-3 -5 -1 -12 4 -15 5 -3 11 1 15 9 6 16 -9 21 -19 6z"/>
<path d="M6473 2265 c0 -8 4 -12 9 -9 4 3 8 9 8 15 0 5 -4 9 -8 9 -5 0 -9 -7
-9 -15z"/>
<path d="M6745 2260 c-3 -5 -4 -10 -1 -10 2 0 12 -3 20 -6 12 -5 15 -2 10 10
-7 18 -20 21 -29 6z"/>
</g>
</svg>
