<?xml version="1.0" standalone="no"?>
<!DOCTYPE svg PUBLIC "-//W3C//DTD SVG 20010904//EN"
 "http://www.w3.org/TR/2001/REC-SVG-20010904/DTD/svg10.dtd">
<svg version="1.0" xmlns="http://www.w3.org/2000/svg"
 width="1280.000000pt" height="1280.000000pt" viewBox="0 0 1280.000000 1280.000000"
 preserveAspectRatio="xMidYMid meet">
<metadata>
Created by potrace 1.15, written by Peter Selinger 2001-2017
</metadata>
<g transform="translate(0.000000,1280.000000) scale(0.100000,-0.100000)"
fill="#000000" stroke="none">
<path d="M6190 12140 c0 -6 27 -117 59 -248 32 -130 61 -258 65 -283 6 -53
-16 -149 -39 -165 -8 -6 -14 -13 -12 -15 1 -3 -6 4 -15 14 -17 18 -18 18 -30
-2 -17 -27 -31 -27 -23 0 6 18 4 19 -13 10 -11 -6 -22 -7 -26 -4 -4 4 -9 -2
-12 -14 -3 -12 -17 -24 -31 -28 -16 -4 -23 -11 -19 -20 3 -8 1 -15 -4 -15 -4
0 -22 -12 -39 -26 -17 -14 -35 -23 -41 -19 -20 13 -119 -52 -112 -73 5 -17
-37 -62 -83 -86 -40 -22 -44 -20 -55 28 -6 28 -5 36 6 36 8 0 14 -4 14 -10 0
-5 11 -10 25 -10 23 0 24 2 15 20 -6 11 -18 20 -26 20 -9 0 -29 13 -45 29 -35
36 -78 46 -124 31 -32 -11 -35 -15 -35 -51 0 -30 -7 -47 -26 -66 -19 -19 -28
-23 -34 -13 -6 9 -12 8 -26 -7 -26 -26 -27 -53 -2 -53 13 0 18 -6 16 -17 -3
-16 -14 -18 -83 -15 -91 3 -150 11 -141 19 3 3 -1 12 -9 19 -8 8 -11 22 -8 31
4 10 2 14 -4 10 -12 -7 -41 65 -50 121 -3 18 -15 43 -27 56 l-22 22 -33 -82
c-17 -44 -42 -90 -54 -102 l-22 -20 -80 32 c-87 35 -92 42 -94 129 -1 30 -5
46 -11 42 -6 -4 -94 -124 -196 -268 -103 -144 -189 -265 -193 -269 -3 -4 -150
40 -325 98 -175 58 -320 103 -323 100 -2 -2 26 -52 62 -111 37 -58 65 -108 63
-111 -3 -2 -29 7 -59 21 -30 13 -56 20 -57 15 -2 -6 60 -134 138 -286 139
-274 141 -277 124 -303 -9 -14 -28 -38 -42 -53 l-25 -27 -69 35 c-39 19 -71
34 -73 32 -1 -2 9 -42 23 -90 l25 -87 -31 -35 c-52 -60 -92 -124 -92 -149 0
-15 9 -28 25 -37 14 -7 25 -17 25 -21 0 -4 -29 -34 -65 -66 -36 -32 -65 -61
-65 -65 0 -3 36 -4 81 -1 89 7 104 -1 94 -45 -7 -31 12 -57 31 -41 7 6 17 8
22 5 4 -2 21 4 38 15 36 24 54 24 54 2 0 -14 2 -15 9 -5 10 16 25 0 34 -36 5
-23 3 -24 -34 -20 -21 2 -39 1 -39 -3 0 -13 38 -39 58 -39 12 0 26 -8 31 -18
7 -14 5 -21 -12 -32 -12 -8 -25 -13 -30 -12 -4 1 -5 -9 -1 -23 4 -15 1 -32 -6
-40 -17 -21 -5 -31 17 -14 15 12 16 12 10 -3 -13 -37 9 -16 26 24 15 33 16 43
5 49 -7 5 -9 9 -3 9 5 0 19 -12 30 -27 28 -34 40 -25 61 42 10 30 22 55 28 55
7 0 6 3 -1 8 -10 6 -9 18 1 52 23 75 43 114 49 99 4 -10 6 -10 6 -1 1 6 0 13
-1 15 -9 11 38 39 77 46 41 8 49 6 68 -14 12 -12 38 -28 57 -34 19 -6 60 -29
90 -51 84 -60 162 -102 170 -93 5 4 10 17 12 28 6 34 23 23 89 -60 l64 -80 3
208 c3 236 -5 217 94 231 40 6 53 14 88 56 23 27 45 64 50 82 9 28 6 36 -17
60 -15 16 -49 43 -75 59 -27 17 -48 35 -48 39 0 4 117 51 260 105 143 54 260
101 260 105 0 4 -46 27 -102 51 -57 24 -118 53 -137 66 -19 13 -37 23 -40 23
-4 0 -8 12 -9 28 -1 15 -10 41 -19 59 -9 18 -14 35 -10 39 4 4 43 -21 87 -54
45 -34 84 -62 87 -62 4 0 -14 20 -40 45 -26 24 -47 52 -47 60 0 9 4 14 10 10
12 -7 40 47 40 78 0 19 6 26 27 30 23 4 38 -4 88 -51 67 -62 73 -59 56 30 -5
29 -6 56 -3 59 4 4 38 17 76 29 l69 23 -61 22 c-116 42 -122 67 -15 63 l77 -3
26 -65 27 -65 41 3 c71 4 91 17 118 77 l25 55 67 0 c37 0 105 -7 152 -15 47
-8 90 -15 95 -15 6 0 -10 18 -35 39 -25 22 -43 41 -40 44 6 5 339 -18 343 -24
11 -14 190 -584 190 -603 0 -18 -110 -203 -139 -235 -2 -3 -11 4 -18 15 -14
18 -15 18 -25 -8 -6 -16 -16 -28 -23 -28 -7 0 -111 7 -230 16 -120 8 -232 14
-248 12 l-31 -3 90 -107 c50 -59 91 -115 91 -125 -1 -25 -24 -53 -44 -53 -18
0 -22 -15 -6 -25 11 -7 -5 -45 -24 -57 -6 -4 1 -8 17 -8 15 0 27 -3 27 -8 0
-8 -145 -135 -161 -140 -6 -2 -33 7 -62 21 -29 14 -65 29 -82 33 -16 4 -57 18
-89 31 -33 12 -61 22 -62 20 -2 -1 17 -47 42 -101 24 -55 44 -108 44 -118 0
-24 -37 -61 -53 -51 -8 4 -8 2 1 -9 11 -14 10 -18 -7 -27 -10 -6 -34 -9 -53
-6 -18 3 -27 2 -20 -1 7 -3 17 -17 23 -31 5 -13 14 -21 20 -18 6 4 5 -3 -3
-14 -9 -16 -19 -20 -35 -16 -15 4 -23 1 -23 -8 0 -8 -18 -39 -40 -70 -42 -60
-41 -62 20 -58 l25 1 -25 -14 -25 -14 28 -11 c42 -16 57 -36 57 -75 0 -25 4
-36 15 -36 15 0 30 -41 23 -62 -3 -7 4 -22 14 -33 20 -20 20 -20 15 26 l-5 45
43 12 c41 11 64 35 45 47 -6 4 -10 1 -10 -4 0 -6 -4 -11 -10 -11 -5 0 -10 7
-10 15 0 8 4 15 10 15 6 0 6 9 0 26 -14 36 -13 42 15 69 29 30 49 33 40 5 -4
-12 -2 -20 6 -20 9 0 8 -4 -1 -15 -7 -8 -9 -15 -5 -15 4 0 3 -6 -3 -12 -7 -9
-6 -17 4 -26 12 -11 14 -10 15 5 1 23 6 51 13 69 4 12 10 12 26 4 14 -8 20 -8
20 0 0 24 21 -4 71 -95 29 -52 55 -92 58 -89 3 3 22 60 41 127 l35 122 72 38
c42 22 117 49 178 64 101 24 105 26 84 41 -22 15 -21 16 45 49 l67 34 127
-120 c70 -66 154 -147 187 -180 33 -34 63 -61 67 -61 4 0 8 127 8 283 l0 283
55 27 c31 15 58 27 62 27 3 0 2 -52 -1 -116 l-8 -117 39 31 c172 140 166 137
113 57 -42 -63 -53 -85 -38 -80 49 16 293 65 304 61 7 -3 55 -67 106 -143 l93
-138 6 50 c4 28 8 80 8 116 1 36 4 94 7 128 l7 61 66 19 c105 30 123 32 128
10 7 -26 20 -24 19 2 -1 16 8 25 29 32 17 5 41 17 55 26 19 13 30 15 47 7 53
-25 35 -46 -154 -186 -40 -30 -70 -56 -68 -58 2 -3 73 -11 157 -18 84 -8 158
-16 164 -18 6 -2 23 -39 39 -83 15 -43 41 -116 58 -162 l30 -84 17 44 c9 24
36 96 59 160 l42 117 165 -6 c94 -3 164 -1 164 4 -1 5 -26 29 -56 54 -30 25
-72 62 -94 82 l-38 37 16 45 17 46 58 0 c32 0 67 -6 80 -14 12 -8 33 -17 45
-21 22 -6 23 -5 16 17 -8 24 -8 27 -1 71 2 15 0 27 -5 27 -5 0 -6 5 -3 11 4 6
-3 22 -16 35 -28 30 -42 126 -22 152 11 16 12 16 13 0 0 -22 23 -23 44 -3 8 8
20 15 26 15 14 0 40 25 40 38 0 5 18 17 40 26 43 17 47 23 26 40 -7 6 -16 23
-20 37 -5 22 0 29 32 47 31 18 34 22 14 22 -12 0 -38 6 -57 14 -27 12 -32 18
-28 37 5 19 4 20 -12 11 -16 -8 -21 -5 -32 15 -15 29 -17 63 -4 63 25 0 41
-15 41 -39 l1 -26 15 28 c20 37 4 58 -41 54 -28 -2 -38 -9 -61 -49 -15 -26
-34 -50 -41 -53 -8 -2 -32 4 -54 15 l-39 20 0 -26 c0 -24 -3 -26 -30 -20 -16
3 -30 2 -30 -1 0 -4 18 -26 40 -48 l40 -41 -24 -34 -23 -35 -74 3 -74 4 43
-45 c48 -49 48 -70 -2 -96 -22 -12 -29 -11 -61 8 -20 11 -37 21 -38 21 -1 0
-1 -20 1 -44 3 -33 0 -45 -12 -49 -12 -5 -19 1 -26 17 -8 21 -16 24 -97 30
-112 9 -120 12 -127 41 -8 30 -22 32 -31 5 -8 -26 -14 -25 -65 11 l-43 31 7
-38 c4 -22 9 -47 12 -56 4 -12 0 -18 -10 -18 -13 0 -12 -6 4 -42 18 -41 18
-42 -3 -69 -30 -38 -40 -40 -83 -18 -21 10 -44 19 -50 19 -7 0 -19 6 -26 13
-7 7 -38 22 -67 33 -42 16 -57 27 -64 48 -13 38 7 59 47 50 l31 -6 -24 25
c-21 23 -22 30 -12 57 9 27 8 31 -4 26 -8 -3 -22 -9 -30 -12 -12 -5 -15 11
-17 97 l-3 103 -73 -92 c-39 -51 -76 -92 -80 -92 -5 0 -15 25 -22 55 -7 30
-16 55 -20 55 -3 0 -16 -22 -27 -50 -16 -38 -26 -50 -43 -50 -24 0 -23 2 27
73 36 49 34 53 -27 38 -94 -24 -85 -27 -134 45 l-44 66 -9 -43 -9 -44 -38 68
c-21 37 -40 66 -42 64 -3 -2 -11 -49 -20 -103 -21 -143 -21 -141 -51 -149
l-28 -7 25 -14 c25 -15 25 -15 -10 -9 -19 4 -58 9 -87 12 l-52 5 -6 51 c-11
102 -24 264 -31 382 -3 66 -11 123 -16 126 -5 3 18 75 50 160 l59 154 57 3 56
3 0 -40 c0 -73 8 -75 57 -16 l44 55 247 0 246 0 -54 55 c-55 56 -56 63 -3 45
24 -9 41 -31 83 -107 60 -108 59 -108 80 17 22 139 27 150 62 150 l32 0 -27
28 c-15 15 -27 33 -27 39 0 7 26 17 58 23 31 7 59 14 62 15 3 2 12 0 20 -5 12
-7 11 -12 -4 -29 -19 -21 -19 -21 9 -21 16 0 37 -8 47 -17 18 -16 19 -16 25 6
4 14 16 24 36 28 l30 6 -24 19 -24 18 29 -10 c46 -17 50 -22 31 -36 -17 -12
-16 -14 9 -25 16 -8 25 -18 21 -26 -3 -10 1 -13 15 -8 15 5 21 0 26 -19 5 -23
20 -31 47 -27 4 0 7 -27 7 -61 1 -61 1 -62 18 -42 9 11 33 39 53 63 l37 42 61
-16 c33 -8 67 -18 74 -21 11 -4 13 1 10 19 -3 13 2 28 11 36 19 16 37 6 29
-16 -6 -14 0 -13 31 5 l39 23 22 -21 c28 -26 35 -25 35 5 0 22 4 25 36 25 30
0 37 -4 45 -30 14 -39 26 -38 37 3 6 25 14 33 35 35 34 4 34 15 2 36 -19 13
-25 25 -25 52 0 28 -3 34 -12 27 -24 -19 -57 -21 -78 -6 -26 19 -35 11 -20
-16 9 -17 8 -21 -5 -21 -17 0 -19 -9 -6 -29 5 -8 14 -10 22 -6 8 5 5 -1 -5
-13 -11 -12 -25 -22 -33 -22 -7 0 -13 -4 -13 -10 0 -5 -4 -10 -10 -10 -15 0
-24 49 -11 64 6 7 8 16 4 20 -4 4 -2 10 4 14 11 7 16 26 14 50 -2 22 -16 13
-35 -23 -20 -37 -34 -42 -67 -24 -14 7 -19 19 -17 44 3 50 -11 60 -64 45 -24
-6 -52 -13 -64 -14 -11 -1 -25 -5 -31 -9 -5 -3 -30 21 -54 54 l-44 61 -7 -38
c-4 -22 -7 -53 -7 -70 -1 -22 -6 -31 -18 -31 -10 0 -21 5 -25 10 -4 6 -12 0
-19 -16 -17 -37 -46 -44 -73 -18 -18 19 -19 23 -6 31 8 5 24 10 35 10 24 0 37
9 51 35 10 18 8 22 -12 32 -18 8 -24 8 -28 -3 -3 -8 -13 -14 -23 -14 -15 0
-15 -2 3 -15 18 -14 17 -14 -9 -3 -21 9 -26 16 -21 31 6 18 3 19 -23 14 -16
-3 -34 -3 -39 1 -17 11 -49 85 -46 105 2 10 -6 20 -21 26 -13 5 -32 22 -43 38
l-19 28 -5 -40 c-4 -32 -10 -41 -27 -43 -27 -4 -27 -11 -8 148 25 209 34 203
-108 62 -110 -110 -124 -121 -141 -109 -17 12 -16 16 13 63 22 33 28 50 19 52
-7 1 -50 -9 -95 -22 l-83 -25 -75 34 c-41 19 -75 33 -75 31 0 -3 9 -25 20 -51
18 -43 19 -46 2 -52 -9 -3 -20 -8 -24 -10 -4 -2 -29 26 -57 62 -57 76 -59 41
20 303 27 90 49 165 49 167 0 6 -85 -46 -355 -220 -126 -81 -234 -148 -240
-148 -5 0 -68 44 -139 99 -70 54 -138 105 -150 113 -11 8 -78 57 -147 108 -69
51 -129 93 -133 93 -3 0 -6 -5 -6 -10z m-29 -794 c-7 -8 -18 -13 -25 -10 -8 3
-15 -5 -18 -20 -6 -29 3 -33 22 -11 7 8 18 15 24 15 14 0 -53 -54 -71 -56 -18
-3 -16 21 3 63 14 29 21 33 40 29 25 -7 31 2 14 22 -5 7 -2 6 7 -2 13 -12 14
-18 4 -30z m2354 -120 c-13 -19 -15 -38 -11 -73 9 -70 -5 -82 -37 -32 -31 47
-33 59 -12 59 9 0 15 6 13 13 -1 6 11 32 27 56 26 38 30 42 33 23 2 -11 -4
-32 -13 -46z m-3575 -138 c0 -5 -7 -8 -15 -8 -10 0 -15 10 -15 33 l1 32 14
-25 c8 -14 14 -28 15 -32z m859 -84 c13 -12 -8 -10 -29 2 l-25 15 25 -7 c14
-3 27 -8 29 -10z m2876 -1110 c31 -20 31 -25 1 -57 -16 -18 -30 -24 -45 -20
-25 6 -26 15 -5 59 19 39 17 39 49 18z m-2475 -40 c0 -8 5 -14 12 -14 6 0 9
-2 6 -5 -11 -11 -38 8 -38 27 0 10 5 16 10 13 6 -3 10 -13 10 -21z m51 -215
c-33 -57 -61 -95 -60 -84 0 11 9 61 20 110 11 50 22 103 26 119 l6 28 34 -35
35 -35 -61 -103z m1759 126 c0 -8 -4 -15 -10 -15 -5 0 -10 7 -10 15 0 8 5 15
10 15 6 0 10 -7 10 -15z m-3947 -76 c-6 -6 -17 -8 -24 -3 -9 5 -8 9 7 14 23 9
31 3 17 -11z m1654 -598 c12 10 16 10 24 -2 12 -20 12 -23 -11 -37 -18 -11
-21 -9 -30 13 -10 26 -13 51 -3 27 4 -10 8 -10 20 -1z"/>
<path d="M6160 11481 c0 -12 5 -21 10 -21 6 0 10 6 10 14 0 8 -4 18 -10 21 -5
3 -10 -3 -10 -14z"/>
<path d="M5831 11326 c-9 -11 -6 -15 16 -19 35 -7 38 -4 14 17 -15 14 -20 14
-30 2z"/>
<path d="M8420 11310 c0 -5 5 -10 11 -10 5 0 7 5 4 10 -3 6 -8 10 -11 10 -2 0
-4 -4 -4 -10z"/>
<path d="M8580 11290 l-25 -20 23 0 c12 0 25 7 29 15 9 24 0 25 -27 5z"/>
<path d="M5360 11114 c0 -8 5 -12 10 -9 6 3 10 10 10 16 0 5 -4 9 -10 9 -5 0
-10 -7 -10 -16z"/>
<path d="M8963 11101 c0 -23 6 -31 25 -36 29 -7 31 -5 38 29 3 17 0 26 -8 26
-7 0 -22 3 -34 6 -18 5 -21 1 -21 -25z"/>
<path d="M8690 11046 c-10 -13 -9 -18 3 -31 21 -20 23 -19 22 9 0 32 -9 40
-25 22z"/>
<path d="M8584 10979 c-9 -16 2 -22 21 -11 15 8 16 10 1 15 -8 3 -18 2 -22 -4z"/>
<path d="M8757 10948 c6 -7 13 -20 16 -28 3 -9 6 -3 6 13 1 19 -4 27 -15 27
-12 0 -14 -4 -7 -12z"/>
<path d="M8948 10932 c-35 -2 -46 -7 -42 -17 10 -24 -59 -30 -92 -9 -27 19
-28 19 -22 -4 5 -17 -1 -27 -25 -44 -18 -12 -34 -25 -37 -28 -3 -3 -15 -13
-27 -23 -20 -18 -22 -18 -64 4 -24 12 -56 25 -71 30 -27 7 -28 6 -22 -19 4
-15 16 -44 26 -66 l20 -39 -51 -51 c-28 -28 -51 -55 -51 -59 0 -3 24 -5 53 -3
92 6 100 2 139 -75 l35 -70 19 72 c23 88 36 108 57 91 8 -7 17 -9 19 -3 5 14
40 17 45 4 3 -7 -7 -18 -21 -24 -26 -12 -26 -29 0 -29 8 0 12 5 9 10 -3 6 1
10 9 10 9 0 16 -7 16 -15 0 -22 18 -18 25 5 3 11 15 20 26 20 10 0 19 5 19 11
0 6 -8 8 -19 4 -30 -9 -35 13 -9 35 l23 19 -23 1 c-19 0 -22 4 -17 20 5 14 2
20 -9 20 -19 0 -19 -1 -5 39 10 28 15 31 50 31 28 0 37 4 33 13 -8 21 39 41
64 28 34 -18 45 -14 39 16 -3 19 1 32 17 45 21 19 21 19 -26 16 -40 -3 -49 0
-55 17 -7 17 -16 20 -55 17z m1 -51 c8 -5 11 -16 6 -30 -10 -32 -32 -26 -32 9
0 32 4 35 26 21z m-117 -130 c-4 -35 -11 -39 -28 -17 -21 30 -18 48 9 44 17
-2 21 -9 19 -27z"/>
<path d="M8965 10710 c-3 -5 -1 -10 4 -10 6 0 11 5 11 10 0 6 -2 10 -4 10 -3
0 -8 -4 -11 -10z"/>
<path d="M8726 10445 c-3 -8 -1 -15 4 -15 6 0 10 7 10 15 0 8 -2 15 -4 15 -2
0 -6 -7 -10 -15z"/>
<path d="M8627 10373 c-4 -3 -7 -16 -7 -27 1 -20 2 -20 14 -3 7 9 21 17 30 17
9 0 16 5 16 10 0 11 -43 14 -53 3z"/>
<path d="M3860 9516 c0 -31 -5 -40 -30 -54 -16 -9 -30 -19 -30 -22 0 -3 15
-10 33 -15 29 -9 33 -15 37 -55 3 -28 8 -40 13 -32 5 6 17 12 28 12 16 0 18 5
13 26 -7 26 -6 26 37 19 l43 -7 -27 36 c-27 34 -27 37 -12 67 20 38 15 45 -22
26 -26 -15 -29 -14 -55 11 l-28 26 0 -38z"/>
<path d="M4003 9453 c-6 -12 -7 -23 -2 -23 5 0 9 -7 9 -16 0 -13 5 -12 23 8
48 52 48 53 13 54 -24 0 -35 -5 -43 -23z"/>
<path d="M4003 9330 c-6 -14 -8 -31 -5 -39 7 -18 24 26 19 48 -3 12 -7 9 -14
-9z"/>
<path d="M4137 9296 c-9 -7 -17 -18 -17 -25 0 -6 -6 -11 -14 -11 -11 0 -12 -5
-3 -25 14 -30 47 -34 47 -5 0 12 7 20 18 20 16 1 16 1 0 14 -12 9 -14 16 -7
23 16 16 -4 23 -24 9z"/>
<path d="M3980 9250 c-31 -24 -52 -26 -43 -3 5 13 2 15 -11 10 -10 -4 -22 -7
-27 -7 -5 0 -9 -16 -9 -35 0 -33 -2 -36 -27 -33 -18 2 -27 -1 -26 -9 2 -8 -4
-10 -14 -6 -13 5 -15 2 -10 -18 5 -18 0 -29 -21 -46 l-27 -21 28 -7 c33 -9 67
-49 67 -79 0 -12 5 -27 11 -33 18 -18 53 31 45 62 -6 24 -7 25 -31 9 -25 -17
-32 -10 -16 15 5 7 20 15 35 16 20 3 26 -1 26 -16 0 -10 4 -19 9 -19 5 0 17
-3 25 -6 12 -4 15 -2 10 9 -3 8 0 18 6 22 8 5 8 11 -1 21 -9 11 -9 21 -1 39 9
20 19 25 49 25 l38 0 -33 26 c-34 27 -35 37 -16 88 8 21 -6 20 -36 -4z"/>
<path d="M5590 9070 c0 -23 15 -27 23 -6 3 8 -1 17 -9 20 -9 4 -14 -1 -14 -14z"/>
<path d="M5790 9020 c0 -13 18 -22 24 -11 3 5 -1 11 -9 15 -8 3 -15 1 -15 -4z"/>
<path d="M5510 8974 c0 -24 2 -25 18 -13 9 7 19 14 20 15 2 1 -6 7 -17 14 -19
10 -21 8 -21 -16z"/>
<path d="M5810 8920 c-12 -7 -12 -10 3 -16 21 -8 29 -3 19 13 -5 8 -13 9 -22
3z"/>
<path d="M4092 8899 c-9 -15 -19 -18 -40 -13 -15 4 -30 11 -33 17 -4 5 -9 5
-13 -2 -4 -6 -11 -9 -15 -7 -3 3 -7 -4 -7 -15 0 -10 6 -19 13 -19 7 0 13 -5
13 -11 0 -5 8 -9 18 -8 40 4 52 -1 52 -23 0 -21 1 -21 30 7 35 33 37 48 12 75
-17 19 -18 19 -30 -1z"/>
<path d="M5652 8852 l-52 -61 -70 29 c-39 16 -70 26 -70 23 0 -4 16 -35 35
-70 19 -35 35 -69 35 -76 0 -7 -19 -37 -40 -67 -22 -30 -36 -56 -30 -58 5 -2
33 1 60 7 28 6 57 11 64 11 7 0 32 -30 56 -66 27 -41 46 -61 50 -53 4 6 13 8
19 5 16 -10 14 -26 -4 -26 -9 0 -12 -6 -9 -15 4 -8 17 -15 30 -15 19 0 24 -5
24 -27 0 -14 3 -23 7 -20 3 4 12 2 19 -4 9 -7 16 -4 27 11 12 18 21 20 52 14
25 -4 35 -11 31 -20 -8 -20 45 -6 61 15 9 13 8 17 -5 22 -9 3 -17 12 -17 20 0
8 -10 14 -27 14 -38 0 -41 8 -19 48 23 41 12 52 -39 37 -28 -8 -31 -6 -49 28
l-20 37 -6 -42 c-7 -39 -21 -53 -60 -57 -14 -1 -6 65 11 92 11 16 11 22 2 22
-22 0 6 16 48 28 56 16 64 15 64 -7 0 -28 17 -35 25 -11 5 14 15 20 37 20 29
0 30 1 16 18 -8 9 -18 25 -21 35 -4 10 -13 17 -19 15 -7 -3 -20 5 -30 16 -17
21 -17 21 -18 -6 0 -16 -3 -28 -7 -28 -35 2 -104 77 -84 90 7 4 12 10 12 14
-3 17 0 18 17 3 11 -10 26 -14 40 -10 32 8 27 27 -15 51 -19 10 -23 10 -23 -3
0 -8 -6 -15 -13 -15 -16 0 -35 34 -39 69 -3 21 -8 18 -56 -37z"/>
<path d="M3796 8684 c-10 -27 -6 -38 20 -58 25 -18 26 -18 22 1 -2 11 3 27 11
36 8 10 9 17 3 17 -6 0 -14 -4 -17 -10 -12 -19 -33 -11 -28 10 6 24 -2 27 -11
4z"/>
<path d="M3872 8659 c2 -6 8 -10 13 -10 5 0 11 4 13 10 2 6 -4 11 -13 11 -9 0
-15 -5 -13 -11z"/>
<path d="M4076 8635 c4 -8 8 -15 10 -15 2 0 4 7 4 15 0 8 -4 15 -10 15 -5 0
-7 -7 -4 -15z"/>
<path d="M4059 8579 c-23 -19 -23 -20 -2 -10 12 6 25 16 28 21 10 16 -1 12
-26 -11z"/>
<path d="M3846 8529 c-5 -33 -12 -42 -37 -51 l-30 -10 23 -26 c13 -14 17 -22
11 -18 -18 10 -16 0 12 -77 l24 -68 -28 -17 c-34 -21 -91 -69 -91 -76 0 -3 35
-6 78 -6 l77 0 23 -49 c28 -62 29 -107 2 -116 -27 -9 -25 -19 5 -33 14 -6 25
-16 25 -22 0 -6 5 -8 11 -4 12 7 3 -115 -10 -127 -6 -6 -81 -25 -261 -65 -41
-9 -82 -20 -90 -24 -14 -8 50 -41 306 -159 l71 -32 -5 -207 -4 -207 144 143
c79 78 150 142 157 142 11 0 10 -5 -4 -20 -10 -11 -16 -22 -14 -24 2 -2 31 -5
64 -7 82 -3 96 -12 123 -72 26 -62 27 -73 6 -85 -14 -8 -10 -10 15 -14 32 -5
44 4 46 32 4 50 4 50 50 50 33 0 45 -4 45 -15 0 -17 16 -20 26 -4 3 6 15 9 25
6 14 -4 19 0 19 14 0 10 7 19 15 19 21 0 19 13 -4 34 -16 14 -18 23 -10 43 12
33 12 33 -11 33 -12 0 -39 19 -61 43 l-41 42 11 50 c6 28 14 61 18 74 5 20 3
23 -11 18 -30 -12 -64 3 -71 30 -5 21 3 36 43 82 133 155 164 195 153 199 -7
2 -79 -6 -162 -19 -110 -17 -159 -20 -186 -13 -35 8 -38 12 -41 48 l-3 38 -29
-27 -29 -28 -30 49 c-37 57 -38 64 -9 64 21 0 21 1 -5 28 -25 26 -26 31 -15
60 10 25 10 37 0 52 -24 39 -32 101 -16 131 19 37 18 40 -8 30 -13 -4 -36 -11
-52 -15 l-29 -7 6 46 7 47 -44 -26 c-36 -21 -46 -23 -55 -12 -6 7 -9 21 -5 30
4 12 2 15 -9 10 -22 -8 -31 15 -13 35 23 25 21 27 -24 23 -38 -4 -41 -2 -55
31 -21 51 -32 52 -39 6z"/>
<path d="M4078 8524 c-4 -3 -12 -7 -20 -8 -7 -2 -21 -6 -30 -11 -16 -6 -16 -9
4 -25 30 -24 55 -15 55 21 0 31 -1 32 -9 23z"/>
<path d="M6086 8389 c-27 -16 -32 -16 -59 -3 l-29 15 3 -29 c3 -22 -4 -35 -25
-54 l-29 -24 37 4 c34 4 38 2 49 -27 14 -39 22 -39 36 -1 9 27 14 30 50 30 23
0 41 5 41 10 0 6 -5 10 -12 10 -6 0 -20 7 -29 16 -14 13 -16 21 -8 36 16 30 7
37 -25 17z"/>
<path d="M6163 8257 c-4 -8 -16 -17 -27 -20 -11 -5 -16 -13 -12 -23 8 -20 -11
-44 -34 -44 -13 0 -16 6 -12 25 5 28 -9 33 -28 10 -9 -11 -17 -12 -30 -5 -28
15 -32 12 -20 -11 9 -16 8 -24 -4 -38 -22 -24 -20 -29 8 -24 29 6 41 -10 20
-27 -11 -10 -18 -10 -26 -2 -21 21 -31 13 -15 -11 10 -16 12 -28 5 -40 -7 -14
-5 -17 12 -17 11 0 23 -7 26 -15 9 -22 24 -18 24 5 0 13 7 20 20 20 20 0 20 0
0 -32 -27 -45 -25 -51 10 -33 39 20 49 19 77 -7 l23 -21 0 40 c0 36 4 43 30
55 34 15 39 28 11 28 -39 0 -51 11 -51 49 l-1 36 -27 -33 c-37 -45 -75 -42
-79 6 -3 30 9 43 21 23 3 -5 15 -7 26 -4 11 3 18 9 15 13 -8 13 18 18 43 9 18
-7 22 -5 22 11 0 11 4 20 9 20 4 0 3 16 -3 35 -12 37 -20 43 -33 22z"/>
<path d="M6302 8142 c3 -4 10 -21 18 -38 7 -16 28 -40 46 -52 19 -12 34 -27
34 -33 0 -18 -30 -69 -41 -69 -8 0 -8 -5 1 -15 6 -8 9 -19 5 -25 -3 -5 1 -13
9 -16 9 -3 16 -10 16 -15 0 -4 -7 -6 -16 -2 -13 5 -15 2 -8 -18 4 -13 8 -37 9
-53 0 -22 7 -32 25 -40 18 -8 24 -17 22 -35 -4 -23 -2 -23 50 -17 29 4 61 8
72 9 10 1 22 -5 26 -13 5 -8 24 -42 42 -75 l33 -60 7 45 c3 25 7 64 7 86 l1
41 63 13 c34 7 66 16 70 20 4 4 -10 19 -33 34 -22 14 -40 34 -40 44 0 10 -8
28 -17 41 -16 24 -16 24 6 18 14 -3 21 -1 18 6 -2 7 3 17 12 24 14 10 11 14
-21 27 -32 14 -38 21 -38 46 0 16 -4 32 -10 35 -5 3 -10 16 -10 27 l0 21 -23
-21 c-30 -28 -60 -28 -72 1 -7 16 -22 24 -55 30 -79 13 -101 14 -106 5 -3 -5
-13 -3 -22 5 -18 15 -86 32 -80 19z m398 -283 c0 -6 -4 -7 -10 -4 -5 3 -10 11
-10 16 0 6 5 7 10 4 6 -3 10 -11 10 -16z"/>
<path d="M7098 7891 c-18 -33 -29 -41 -51 -41 -32 0 -62 14 -95 43 l-23 21 6
-49 c4 -27 10 -54 14 -60 5 -5 12 -20 15 -32 6 -18 3 -23 -10 -23 -16 0 -16
-1 -1 -17 15 -18 17 -22 17 -44 0 -5 4 -8 9 -4 5 3 13 -4 16 -15 8 -24 -12
-53 -31 -46 -16 6 -25 -41 -13 -72 16 -42 10 -51 -76 -123 -46 -40 -82 -75
-80 -79 3 -4 53 -10 112 -14 60 -4 129 -9 154 -13 l46 -5 58 -164 c31 -90 59
-164 61 -164 2 0 26 72 54 160 l51 160 64 0 c53 0 66 -3 78 -20 l14 -21 6 21
c3 13 13 20 30 20 41 0 57 -11 57 -38 0 -24 1 -24 18 -9 16 14 23 15 53 4 50
-18 53 -26 32 -84 -8 -20 9 -15 41 12 23 18 25 23 10 22 -10 -1 -20 5 -22 14
-4 21 58 22 76 0 11 -14 12 -14 10 4 -2 14 4 21 20 23 12 2 20 8 17 13 -4 5
-1 9 4 9 6 0 11 22 11 51 0 46 2 50 21 44 18 -6 19 -4 10 13 -8 15 -32 32 -44
32 -1 0 -3 -17 -4 -37 -1 -20 -7 -39 -14 -43 -6 -4 -9 -12 -5 -18 9 -16 -33
-26 -49 -12 -22 19 -18 28 15 35 25 5 29 10 20 20 -7 8 -9 19 -5 26 5 8 0 9
-16 4 -32 -10 -81 -63 -72 -78 3 -7 -3 -3 -16 7 -12 11 -20 28 -19 37 2 10 -1
18 -6 18 -5 0 -17 12 -27 27 -17 26 -17 30 -2 46 9 10 12 18 8 18 -5 0 -4 5 3
12 19 19 14 28 -13 28 -15 0 -29 8 -36 22 -10 19 -8 25 24 54 33 31 34 33 13
38 -11 3 -39 6 -61 6 -70 0 -79 7 -104 72 -22 55 -23 65 -11 115 6 30 10 56 8
58 -1 1 -59 -37 -127 -86 -68 -49 -128 -89 -133 -89 -4 0 -8 8 -8 18 0 10 24
32 56 53 l56 36 -73 14 c-71 14 -72 15 -86 54 -20 59 -29 62 -55 16z"/>
<path d="M6823 7873 c-7 -2 -13 -12 -13 -21 0 -15 2 -15 10 -2 8 13 11 11 16
-7 6 -23 34 -33 34 -13 0 6 -4 10 -10 10 -5 0 -10 9 -10 20 0 20 -5 23 -27 13z"/>
<path d="M6847 7761 c-3 -11 1 -22 8 -24 8 -4 10 3 7 19 -5 29 -8 30 -15 5z"/>
<path d="M7732 7438 c19 -28 35 -33 35 -11 0 20 -14 33 -36 33 -11 0 -11 -4 1
-22z"/>
<path d="M7940 7300 c-14 -4 -21 -8 -16 -9 5 -1 4 -7 -2 -14 -6 -7 -7 -19 -3
-26 6 -9 10 -7 14 9 3 12 10 19 15 16 5 -3 12 3 15 14 3 11 4 20 4 19 -1 -1
-13 -5 -27 -9z"/>
<path d="M8096 7195 c-3 -8 -13 -15 -23 -15 -12 0 -14 -3 -6 -11 15 -15 54 6
47 26 -8 19 -10 19 -18 0z"/>
<path d="M8207 7176 c-6 -14 -13 -17 -34 -11 -27 6 -27 6 -9 -14 11 -13 15
-27 11 -41 -4 -11 -3 -19 2 -18 4 2 9 0 11 -4 11 -36 -47 -40 -72 -5 -12 15
-16 17 -12 5 9 -29 -32 -22 -46 7 -13 30 -24 32 -33 6 -3 -11 -12 -22 -20 -24
-7 -3 -11 -14 -9 -25 4 -12 -2 -22 -18 -29 -13 -7 -17 -12 -9 -12 7 -1 22 -11
33 -23 18 -21 18 -23 3 -26 -11 -3 -14 -9 -9 -20 15 -36 16 -73 1 -95 -19 -29
-14 -36 47 -67 27 -14 53 -33 60 -42 11 -19 46 -25 46 -9 0 17 32 42 46 37 8
-3 14 1 14 10 0 10 6 14 15 10 9 -3 15 0 15 9 0 9 10 15 24 15 80 0 117 32 49
44 -67 11 -70 19 -24 65 46 46 49 56 22 70 -25 14 -34 40 -20 58 14 16 10 21
-22 26 -31 5 -38 43 -12 62 17 14 17 14 -3 15 -12 0 -25 10 -31 22 -9 20 -10
20 -16 4z m-47 -156 c0 -5 -4 -10 -10 -10 -5 0 -10 5 -10 10 0 6 5 10 10 10 6
0 10 -4 10 -10z m125 -39 c16 -7 13 -9 -17 -13 -36 -4 -46 1 -31 15 8 9 22 8
48 -2z"/>
<path d="M4777 7120 c4 -43 2 -60 -6 -60 -7 0 -10 -4 -6 -9 3 -5 0 -13 -5 -16
-7 -5 -6 -11 5 -19 14 -10 8 -18 -47 -61 l-63 -50 62 -3 c51 -2 65 -7 78 -25
14 -20 14 -23 0 -33 -14 -10 -14 -13 0 -24 9 -7 14 -19 11 -26 -3 -7 -1 -16 4
-19 6 -4 10 -14 10 -24 0 -14 7 -18 30 -17 21 1 30 6 28 16 -1 8 1 21 6 29 5
8 4 16 -4 21 -17 11 26 54 46 46 9 -3 12 -1 9 4 -3 6 -13 10 -21 10 -9 0 -14
7 -12 18 3 14 15 17 81 17 42 -1 77 2 77 6 0 3 -9 14 -20 24 -26 23 -25 34 3
44 l22 9 -27 10 c-18 8 -28 21 -33 44 -7 30 -8 31 -16 12 -7 -20 -29 -42 -29
-30 0 3 11 36 25 72 14 37 24 69 22 71 -3 2 -28 -12 -57 -32 -28 -19 -57 -35
-64 -35 -6 0 -34 20 -63 45 l-51 45 5 -60z"/>
<path d="M7980 7160 c0 -5 5 -10 11 -10 5 0 7 5 4 10 -3 6 -8 10 -11 10 -2 0
-4 -4 -4 -10z"/>
<path d="M4706 7138 c-16 -15 -17 -21 -7 -40 l12 -23 -5 22 c-5 29 10 39 23
16 6 -12 13 -15 20 -8 6 7 4 17 -7 31 -17 20 -18 20 -36 2z"/>
<path d="M7990 7124 c0 -8 5 -12 10 -9 6 4 8 11 5 16 -9 14 -15 11 -15 -7z"/>
<path d="M8400 6942 c0 -12 -7 -34 -16 -48 -21 -31 -15 -38 21 -24 15 6 37 8
49 5 18 -5 18 -4 4 4 -10 7 -14 19 -11 31 3 12 0 20 -7 20 -7 0 -19 8 -26 18
-12 16 -13 15 -14 -6z"/>
<path d="M8592 6925 c-13 -28 -28 -31 -67 -13 -38 17 -41 3 -5 -29 32 -29 32
-29 16 -61 -9 -17 -16 -33 -16 -36 0 -3 18 -15 40 -27 22 -13 40 -28 40 -35 0
-19 -21 -28 -31 -13 -9 16 -11 14 -33 -29 -16 -30 -19 -32 -57 -26 l-40 7 13
-29 c6 -16 15 -33 19 -38 4 -5 1 -19 -7 -31 -14 -22 -13 -22 27 -28 22 -3 49
-13 59 -22 17 -15 19 -15 25 4 9 29 21 26 34 -9 5 -16 13 -30 17 -30 4 0 5 3
1 6 -3 4 0 13 8 20 7 8 15 19 17 26 4 10 8 10 19 2 17 -13 69 -24 69 -14 0 3
-11 17 -25 30 -14 13 -25 29 -25 37 0 7 -4 13 -10 13 -5 0 -10 -6 -10 -14 0
-14 -37 -29 -52 -20 -14 9 -9 33 10 43 16 9 16 11 -3 25 -20 14 -20 15 -2 46
17 29 18 33 3 49 -9 10 -16 26 -16 36 0 17 1 17 18 2 10 -10 22 -17 27 -17 8
0 2 40 -10 72 -5 12 2 21 22 31 26 14 26 16 8 22 -37 12 -50 22 -53 41 -6 32
-18 36 -30 9z m2 -124 c3 -5 -6 -11 -21 -14 -26 -5 -26 -4 -8 9 22 17 22 17
29 5z"/>
<path d="M5517 6773 c4 -32 8 -78 8 -102 0 -40 -4 -47 -33 -64 l-32 -19 -34
26 c-40 30 -50 25 -31 -20 l14 -33 -45 -25 c-25 -14 -51 -23 -59 -19 -19 7
-19 -7 -1 -42 l15 -28 17 36 c10 21 25 37 33 37 18 0 43 -14 42 -24 -1 -3 -1
-21 -1 -38 l1 -33 14 25 c11 19 14 21 15 8 0 -29 15 -21 33 17 13 28 22 35 46
35 26 0 29 -4 33 -35 2 -19 0 -41 -5 -48 -6 -8 -7 -6 -3 7 4 13 2 17 -8 13 -7
-3 -17 -2 -22 2 -5 5 -17 0 -26 -10 -10 -11 -16 -19 -13 -19 3 0 1 -8 -4 -19
-6 -10 -72 -45 -156 -81 -80 -34 -147 -66 -150 -69 -3 -6 183 -50 390 -94 l60
-12 13 -60 c45 -205 77 -335 84 -335 4 0 38 47 75 104 59 90 75 108 121 132
43 24 52 33 52 56 0 15 4 29 9 32 12 8 183 -23 198 -36 7 -6 13 -20 13 -32 0
-12 16 -36 35 -55 19 -18 35 -37 35 -42 0 -5 5 -9 10 -9 6 0 10 16 10 36 0 27
4 35 14 31 8 -3 17 1 20 9 7 18 26 18 26 0 0 -8 7 -16 15 -20 10 -4 17 4 23
27 6 22 14 31 25 29 10 -2 17 2 17 9 0 8 11 10 33 6 31 -5 34 -4 29 19 -3 16
0 24 9 24 8 1 2 8 -13 16 -28 14 -38 34 -18 34 25 0 5 19 -55 49 l-64 33 3 69
c2 38 1 69 -2 69 -3 0 -17 -11 -31 -24 -39 -35 -81 -60 -81 -47 0 6 -3 10 -7
9 -15 -4 -73 21 -73 31 0 6 -7 11 -15 11 -8 0 -15 5 -15 10 0 6 5 10 11 10 8
0 8 4 1 13 -9 10 10 52 74 171 47 86 84 159 81 162 -2 3 -93 -27 -202 -66
-108 -38 -203 -70 -210 -70 -7 0 -87 63 -176 140 -90 77 -167 140 -172 140 -4
0 -4 -26 0 -57z m26 -232 c-1 -2 -9 2 -17 8 -12 10 -13 17 -3 39 l12 26 5 -34
c3 -19 5 -37 3 -39z m887 -429 c0 -13 -12 -22 -22 -16 -10 6 -1 24 13 24 5 0
9 -4 9 -8z m-25 -32 c3 -5 1 -10 -4 -10 -6 0 -11 5 -11 10 0 6 2 10 4 10 3 0
8 -4 11 -10z"/>
<path d="M8230 6755 c-10 -12 -10 -15 3 -15 19 0 31 16 18 24 -5 3 -14 -1 -21
-9z"/>
<path d="M4943 6745 c-8 -9 -9 -16 -3 -20 6 -4 7 -11 4 -17 -4 -7 2 -8 17 -3
32 10 32 10 17 34 -15 24 -19 25 -35 6z"/>
<path d="M5207 6723 c-4 -6 0 -13 8 -17 18 -7 20 -37 3 -54 -7 -7 -22 -12 -35
-12 -18 0 -25 7 -30 30 -3 17 -9 33 -14 36 -10 6 -6 -53 4 -63 4 -3 7 -15 7
-25 0 -17 2 -18 29 -3 18 9 32 11 36 5 3 -5 12 -7 20 -3 9 3 15 -1 15 -8 1
-10 5 -9 14 4 7 9 21 17 31 17 14 0 15 3 5 15 -6 8 -9 22 -6 32 5 14 0 18 -25
19 -16 1 -36 9 -43 19 -8 11 -15 14 -19 8z"/>
<path d="M5437 6673 c-7 -6 21 -32 36 -33 4 0 3 9 -3 20 -11 21 -22 25 -33 13z"/>
<path d="M5020 6646 c0 -2 7 -9 15 -16 9 -7 15 -8 15 -2 0 5 -7 12 -15 16 -8
3 -15 4 -15 2z"/>
<path d="M8690 6343 c0 -5 9 -14 20 -21 11 -7 20 -8 20 -2 0 5 -9 14 -20 20
-11 6 -20 7 -20 3z"/>
<path d="M7073 6086 l-98 -114 -5 58 -5 59 -52 -40 -52 -39 -92 45 c-50 26
-94 43 -97 40 -4 -3 1 -20 11 -36 9 -17 17 -37 17 -45 0 -8 10 -35 22 -60 l21
-47 -34 -28 c-19 -16 -40 -29 -47 -29 -9 0 -11 -10 -6 -35 4 -23 2 -35 -5 -35
-9 0 -9 -5 -1 -20 6 -11 10 -26 8 -34 -2 -7 8 -22 21 -33 23 -19 24 -21 8 -44
-10 -13 -17 -35 -17 -50 0 -14 -9 -38 -20 -52 -11 -14 -20 -28 -20 -30 0 -3
30 -3 68 0 64 5 71 4 147 -35 109 -54 125 -69 132 -120 6 -46 6 -46 32 -32 15
8 25 1 57 -40 22 -27 44 -48 50 -45 15 5 80 -40 88 -60 11 -31 6 -41 -31 -60
-34 -17 -36 -19 -15 -23 13 -2 30 2 39 10 14 11 16 11 11 -4 -4 -9 1 -23 13
-34 10 -9 19 -23 19 -31 0 -7 4 -13 8 -13 12 0 49 -70 57 -109 l7 -35 -28 19
c-16 10 -60 43 -97 74 -59 49 -67 60 -63 83 4 21 -2 33 -33 61 -39 35 -77 54
-88 43 -3 -3 -20 3 -38 14 l-32 20 -6 -83 c-7 -95 5 -162 33 -186 15 -12 25
-56 49 -203 17 -103 31 -200 31 -217 0 -30 12 -20 -240 -205 -30 -22 -64 -48
-75 -59 -11 -10 -66 -53 -122 -95 -57 -42 -103 -80 -103 -84 0 -3 46 -9 103
-13 56 -4 129 -10 162 -14 l60 -6 3 -47 c2 -27 -1 -48 -5 -49 -31 -3 -49 -11
-72 -33 -15 -15 -48 -30 -78 -36 -28 -6 -57 -18 -64 -26 -21 -26 -42 -17 -37
16 l5 30 -27 -25 c-21 -20 -33 -24 -58 -19 -35 7 -38 3 -21 -27 8 -17 5 -27
-17 -56 -21 -28 -23 -35 -10 -30 51 20 63 18 84 -8 l20 -26 8 23 c10 34 34 47
73 40 24 -4 32 -2 27 6 -13 22 7 12 33 -16 15 -15 34 -26 44 -24 23 5 22 1
-13 -68 -16 -33 -30 -64 -30 -69 0 -5 32 3 71 20 77 31 99 28 99 -15 0 -11 9
-34 20 -51 11 -16 20 -39 20 -49 0 -18 1 -18 18 -3 10 10 24 17 30 17 6 0 17
10 23 23 7 12 33 48 58 80 l46 59 69 -6 c38 -3 72 -10 76 -16 4 -7 22 -76 41
-156 18 -79 36 -144 40 -144 3 0 70 146 149 325 l143 325 323 0 c178 0 324 3
324 8 1 4 -103 108 -230 232 l-231 225 41 107 c42 108 42 108 83 119 115 29
157 42 157 48 0 4 -31 22 -70 41 -48 23 -70 40 -70 52 0 9 20 73 44 140 68
189 68 176 -1 132 -83 -54 -186 -114 -195 -114 -5 0 -8 46 -9 103 -2 156 -3
159 -69 82 -30 -36 -58 -65 -62 -65 -4 0 -8 13 -8 29 0 17 -4 33 -10 36 -17
10 -11 28 8 23 17 -5 17 -2 0 64 -9 38 -20 73 -23 78 -3 4 25 30 61 57 l66 48
-61 8 c-34 5 -61 13 -61 19 0 5 -14 21 -31 35 -17 15 -41 49 -54 77 l-22 51
-22 -48 c-15 -35 -26 -48 -38 -45 -37 7 -23 107 17 128 17 9 16 12 -8 37 -15
16 -44 41 -65 56 -41 31 -100 102 -133 162 l-21 38 -27 -54 -26 -54 6 173 c4
94 4 172 1 172 -3 0 -49 -51 -104 -114z m-378 -266 c-3 -5 -10 -10 -16 -10 -5
0 -9 5 -9 10 0 6 7 10 16 10 8 0 12 -4 9 -10z m79 -51 c-3 -6 0 -15 7 -20 20
-12 -2 -30 -29 -23 -15 4 -22 14 -22 30 0 19 5 24 26 24 16 0 23 -4 18 -11z
m-20 -74 c-6 -16 -34 -21 -34 -7 0 13 11 22 26 22 8 0 11 -6 8 -15z"/>
<path d="M6570 6105 c0 -9 -16 -25 -35 -36 -36 -22 -43 -33 -25 -44 7 -4 4
-19 -10 -41 -22 -38 -25 -48 -11 -40 5 3 14 -1 21 -9 9 -11 4 -17 -27 -34 -25
-13 -32 -21 -20 -22 9 -1 22 -2 27 -3 6 0 20 -21 31 -45 19 -43 20 -44 37 -25
27 31 43 64 32 64 -22 0 -25 2 -33 22 -4 12 -2 26 5 35 10 12 9 17 -5 25 -10
5 -15 14 -11 19 7 12 34 -8 34 -26 0 -14 29 -29 39 -20 3 3 0 15 -7 25 -18 30
-15 37 25 65 32 21 34 25 16 25 -12 0 -25 5 -29 12 -5 7 0 9 14 6 20 -6 21 -4
8 14 -12 17 -59 48 -72 48 -2 0 -4 -7 -4 -15z m-22 -223 c2 -7 -1 -12 -7 -12
-6 0 -11 5 -11 11 0 5 -5 7 -12 3 -7 -4 -8 -3 -4 5 9 14 28 10 34 -7z"/>
<path d="M8850 6085 c0 -10 -8 -24 -17 -31 -17 -13 -17 -14 1 -8 11 4 22 1 27
-7 12 -20 11 -76 -2 -102 -8 -16 -2 -12 21 11 27 27 38 32 62 27 20 -5 28 -3
28 7 0 22 -16 39 -31 33 -9 -3 -28 6 -43 20 -27 25 -27 27 -10 40 11 8 14 15
7 15 -6 0 -18 3 -27 6 -11 4 -16 0 -16 -11z"/>
<path d="M9100 5920 c0 -19 3 -21 12 -12 9 9 9 15 0 24 -9 9 -12 7 -12 -12z"/>
<path d="M9187 5891 c-10 -4 -18 -11 -18 -16 0 -6 -15 -9 -34 -9 -44 2 -44
-11 -2 -36 29 -17 33 -24 29 -50 -2 -17 -9 -33 -15 -37 -6 -4 -8 3 -4 19 6 22
3 25 -23 25 -17 0 -30 -4 -30 -9 0 -4 -6 -8 -12 -8 -7 0 -18 -11 -25 -25 -13
-28 -17 -26 66 -30 38 -1 56 -7 63 -18 5 -10 20 -17 33 -17 14 0 25 -6 25 -12
0 -9 4 -8 10 2 8 13 10 13 10 -2 0 -26 -21 -33 -37 -13 -12 18 -13 18 -13 -3
0 -13 -6 -22 -15 -22 -8 0 -15 6 -15 13 0 7 -9 13 -20 13 -13 0 -20 -6 -18
-16 1 -8 -1 -21 -5 -27 -6 -9 -2 -13 10 -13 11 0 25 -6 32 -12 11 -11 13 -10
8 5 -9 23 18 34 39 16 9 -7 20 -22 24 -34 8 -19 9 -19 9 3 1 18 5 21 25 16 18
-4 25 -1 29 15 3 12 -1 22 -10 25 -8 3 -12 10 -8 15 3 5 1 12 -5 16 -5 3 -10
15 -10 26 0 10 -4 19 -10 19 -5 0 -10 10 -10 21 0 17 -3 19 -14 10 -10 -8 -21
-9 -42 -1 -25 10 -26 12 -11 27 13 14 21 15 42 5 33 -15 48 -15 39 -1 -3 6 -2
14 4 18 5 3 12 26 13 51 4 45 4 45 -28 42 -17 -2 -34 1 -38 7 -7 12 -12 13
-38 2z"/>
<path d="M9020 5600 c0 -19 3 -21 12 -12 9 9 9 15 0 24 -9 9 -12 7 -12 -12z"/>
<path d="M9306 5534 c-18 -43 -36 -58 -36 -29 0 19 -4 19 -43 -2 -37 -20 -56
-18 -74 5 -10 14 -12 10 -9 -30 3 -42 1 -47 -22 -53 -13 -3 -22 -9 -18 -12 3
-3 -8 -19 -24 -35 -35 -33 -37 -38 -11 -38 11 0 23 -4 26 -10 3 -5 14 -10 24
-10 24 0 51 -31 51 -60 0 -13 7 -31 16 -41 9 -10 13 -22 10 -28 -9 -14 -36 -2
-36 15 0 8 -6 14 -14 14 -10 0 -12 7 -8 23 5 22 5 22 -16 3 -12 -11 -22 -25
-22 -33 0 -7 -4 -13 -10 -13 -5 0 -10 -4 -10 -10 0 -5 7 -10 16 -10 8 0 12 -4
9 -10 -3 -5 -2 -10 4 -10 6 0 8 -6 5 -14 -6 -16 18 -24 54 -18 22 4 22 5 6 23
-20 22 -12 38 10 20 9 -8 21 -9 28 -5 7 5 15 9 18 10 38 11 49 18 45 25 -9 14
30 30 43 17 9 -9 12 -8 12 6 0 22 34 18 36 -4 3 -32 5 -34 14 -20 7 12 15 11
50 -9 23 -13 43 -21 46 -19 2 3 -7 37 -20 76 l-25 72 42 34 c23 19 53 44 66
54 l25 19 -86 7 -86 8 -26 54 c-14 30 -26 59 -26 64 0 26 -18 13 -34 -26z"/>
<path d="M9073 5543 c9 -2 23 -2 30 0 6 3 -1 5 -18 5 -16 0 -22 -2 -12 -5z"/>
<path d="M9331 5166 c-15 -8 -20 -16 -12 -20 7 -5 3 -15 -13 -29 -19 -17 -22
-27 -15 -40 6 -9 7 -22 4 -27 -3 -6 0 -10 9 -10 8 0 23 -3 33 -7 15 -5 15 -2
-4 18 -21 23 -22 27 -7 47 10 15 26 22 47 22 24 0 28 3 19 12 -7 7 -12 20 -12
30 0 21 -16 22 -49 4z"/>
<path d="M9221 5145 c0 -11 4 -28 8 -38 6 -18 8 -18 21 -2 11 14 10 19 -8 38
-21 21 -22 21 -21 2z"/>
<path d="M9183 5073 c-13 -2 -23 -9 -23 -14 0 -15 36 -10 50 6 7 8 9 14 4 14
-5 -1 -19 -4 -31 -6z"/>
<path d="M9138 5026 c-19 -14 -24 -36 -9 -36 12 0 33 28 29 39 -2 6 -10 4 -20
-3z"/>
<path d="M9267 4878 c-9 -19 -12 -39 -8 -52 5 -12 6 -27 3 -35 -3 -9 1 -11 18
-6 15 5 29 0 46 -16 l24 -22 0 26 c0 19 -4 25 -15 21 -8 -4 -15 -1 -15 5 0 7
8 15 18 18 27 10 62 40 55 47 -3 3 -15 6 -25 6 -15 0 -18 5 -13 20 6 18 2 20
-33 20 -34 0 -41 -4 -55 -32z"/>
<path d="M9230 4670 c0 -5 5 -10 11 -10 5 0 7 5 4 10 -3 6 -8 10 -11 10 -2 0
-4 -4 -4 -10z"/>
<path d="M9310 4542 c0 -5 -12 -13 -27 -20 -22 -9 -23 -11 -6 -8 13 2 26 0 29
-5 10 -17 19 -9 19 16 0 14 -3 25 -7 25 -5 0 -8 -4 -8 -8z"/>
<path d="M9109 4513 c-26 -7 -1 -51 28 -49 13 0 23 4 23 9 0 4 9 7 19 7 10 0
22 7 25 16 9 24 7 28 -8 15 -11 -9 -20 -9 -35 -2 -20 11 -25 12 -52 4z"/>
<path d="M9132 4431 c-10 -6 -7 -12 12 -24 27 -18 43 -2 20 20 -15 15 -15 15
-32 4z"/>
<path d="M9228 4297 c16 -17 20 -27 12 -32 -7 -4 -17 -2 -23 4 -6 6 -28 11
-48 11 -34 0 -37 -2 -43 -36 -4 -20 -4 -49 -1 -65 6 -28 4 -31 -34 -46 -32
-12 -39 -19 -30 -29 6 -7 8 -18 4 -23 -3 -7 0 -8 10 -5 8 4 22 1 30 -6 13 -11
14 -10 9 5 -5 13 -4 16 4 11 17 -10 15 -19 -8 -43 -16 -18 -17 -22 -5 -27 18
-7 21 -82 3 -88 -7 -3 -5 -13 7 -31 19 -29 35 -35 35 -14 0 8 10 19 23 25 12
6 16 11 10 11 -7 1 -13 6 -13 12 0 6 7 9 15 5 15 -5 27 4 59 48 12 16 28 26
45 26 l26 0 -34 27 c-30 24 -32 28 -17 39 11 8 13 14 7 19 -6 3 -11 15 -11 27
0 15 -4 18 -17 13 -30 -13 -77 -14 -85 -2 -13 21 -9 65 7 71 14 5 14 9 0 36
-15 28 -15 30 4 30 11 0 31 -5 45 -11 19 -9 29 -9 39 -1 7 6 22 9 33 6 10 -3
30 -1 43 4 l23 8 -23 16 c-13 8 -46 18 -74 22 l-50 8 23 -25z"/>
<path d="M9280 4226 c0 -9 5 -16 10 -16 6 0 10 4 10 9 0 6 -4 13 -10 16 -5 3
-10 -1 -10 -9z"/>
<path d="M9225 4211 c-3 -5 -1 -12 5 -16 5 -3 10 1 10 9 0 18 -6 21 -15 7z"/>
<path d="M4327 4183 c-4 -3 -7 -23 -7 -44 0 -21 -4 -41 -10 -44 -5 -3 -10 -1
-10 5 0 8 -6 8 -20 0 -15 -8 -19 -17 -14 -34 4 -19 1 -26 -15 -31 -26 -8 -73
43 -77 82 -4 39 -14 41 -39 9 -21 -26 -26 -28 -40 -16 -14 12 -18 12 -25 -1
-8 -11 -12 -11 -24 6 -9 11 -16 23 -16 28 0 4 -4 7 -9 7 -14 0 -23 -52 -12
-63 7 -7 7 -15 0 -24 -9 -10 -6 -13 16 -13 17 0 25 -4 22 -12 -2 -7 -10 -13
-18 -12 -8 1 -15 -9 -15 -23 -2 -23 -1 -23 58 -27 17 -1 68 -44 68 -58 0 -4
-16 -25 -35 -46 -19 -22 -31 -42 -28 -46 4 -4 1 -5 -7 -2 -9 3 -22 -5 -32 -18
-16 -22 -16 -25 8 -59 l24 -36 -26 -31 c-31 -36 -28 -45 10 -30 36 13 43 13
50 -5 3 -8 -4 -24 -16 -35 l-22 -20 22 0 c12 0 22 -5 22 -11 0 -6 8 -8 18 -5
9 3 24 1 32 -5 12 -8 4 -20 -45 -64 -53 -48 -65 -55 -102 -55 -33 0 -45 5 -62
28 -17 23 -22 25 -31 12 -6 -8 -9 -25 -7 -37 3 -14 -1 -23 -9 -23 -8 0 -11 -9
-8 -26 6 -35 -13 -59 -34 -42 -13 11 -15 9 -9 -19 5 -23 3 -33 -6 -33 -7 0
-123 51 -257 114 -135 62 -255 116 -267 120 l-22 7 23 -73 c12 -40 56 -173 97
-296 l74 -224 -24 -19 c-14 -11 -130 -120 -260 -242 -183 -174 -230 -223 -214
-225 12 -2 157 17 323 42 165 25 307 46 313 46 7 0 64 -124 127 -275 63 -151
118 -275 121 -275 3 0 36 89 74 198 37 108 73 208 78 222 6 14 11 30 12 36 11
50 26 67 40 44 10 -17 25 -11 25 10 0 30 66 98 102 106 30 6 31 7 13 20 -26
19 -13 27 53 35 31 3 102 18 157 32 55 14 139 33 188 42 48 9 101 22 119 29
l31 14 -42 30 c-24 17 -53 34 -64 38 -17 5 -401 218 -416 230 -4 4 134 519
148 554 3 9 10 -5 16 -34 l11 -49 44 68 c25 37 47 72 50 76 3 4 43 -3 90 -17
98 -28 107 -29 90 -9 -18 22 -5 30 25 17 24 -11 25 -11 14 9 -9 17 -8 20 1 14
23 -14 91 -14 88 1 -2 7 6 20 17 28 20 15 20 15 -3 16 -16 0 -22 5 -20 18 2
12 -3 16 -19 15 -22 -3 -22 -2 -6 17 16 19 18 19 26 2 5 -9 23 -29 40 -45 25
-22 30 -31 21 -45 -20 -34 -7 -50 36 -45 36 5 40 3 46 -21 8 -32 34 -35 34 -3
0 28 17 47 36 40 9 -3 14 2 14 13 0 11 3 29 6 42 7 26 -13 30 -31 6 -10 -15
-13 -15 -28 1 -10 10 -17 32 -17 56 0 37 -2 39 -27 35 -40 -5 -83 -27 -83 -43
0 -7 -6 -13 -14 -13 -9 0 -12 7 -9 20 3 11 0 27 -7 35 -6 8 -9 18 -6 23 3 5
-1 18 -9 28 -8 10 -15 27 -15 37 0 19 -15 23 -25 7 -3 -5 -17 -10 -31 -10 -15
0 -24 -6 -24 -15 0 -9 -7 -18 -15 -21 -21 -8 -19 -24 4 -24 25 0 37 -17 44
-63 4 -27 3 -35 -6 -30 -7 4 -23 6 -38 5 -18 -2 -29 4 -39 22 l-13 26 -11 -23
c-14 -27 -35 -28 -50 -4 -9 15 -6 21 14 37 14 11 33 18 42 16 10 -2 15 1 12 9
-3 7 -1 16 5 20 16 9 13 25 -4 25 -18 0 -19 14 -4 42 6 11 9 22 6 24 -2 2 -34
-6 -72 -18 -66 -22 -67 -22 -81 -3 -17 23 -19 44 -2 27 18 -18 30 -14 23 7 -3
11 -1 22 5 26 6 3 8 11 5 16 -4 5 6 25 21 44 l27 35 -60 -4 c-32 -3 -70 -7
-84 -11 -22 -5 -31 1 -63 39 -35 44 -54 54 -69 39z m483 -327 c0 -11 -19 -15
-25 -6 -3 5 1 10 9 10 9 0 16 -2 16 -4z m-670 -56 c0 -4 -8 -15 -19 -24 -15
-14 -23 -15 -44 -5 l-26 12 32 16 c31 16 57 17 57 1z m90 -12 c22 -18 40 -41
40 -50 0 -9 3 -24 6 -33 5 -13 8 -14 15 -3 5 7 9 23 9 34 0 35 21 45 63 32 20
-6 37 -15 37 -19 0 -7 -72 -70 -162 -142 -61 -49 -80 -43 -76 26 3 48 5 52 36
61 41 11 40 19 -3 35 -31 11 -35 17 -35 46 0 28 7 39 28 44 2 1 21 -14 42 -31z"/>
<path d="M9190 4181 c0 -6 4 -13 10 -16 6 -3 7 1 4 9 -7 18 -14 21 -14 7z"/>
<path d="M9303 4172 c-15 -2 -23 -10 -23 -23 0 -20 15 -26 25 -9 3 6 15 10 26
10 21 0 26 16 7 22 -7 2 -23 2 -35 0z"/>
<path d="M9015 4110 c3 -5 8 -10 11 -10 2 0 4 5 4 10 0 6 -5 10 -11 10 -5 0
-7 -4 -4 -10z"/>
<path d="M8967 4074 c-4 -4 -7 -17 -7 -28 1 -19 1 -20 11 -3 11 19 8 43 -4 31z"/>
<path d="M4760 4030 c0 -5 5 -10 11 -10 5 0 7 5 4 10 -3 6 -8 10 -11 10 -2 0
-4 -4 -4 -10z"/>
<path d="M5097 3990 c-3 -13 -13 -20 -29 -20 -41 0 -67 -11 -61 -26 3 -8 0
-14 -7 -14 -6 0 -10 -8 -8 -17 1 -10 -1 -24 -6 -31 -18 -29 11 -30 41 -2 32
30 53 38 53 20 0 -5 9 -10 19 -10 18 0 19 5 14 58 -7 65 -8 71 -16 42z"/>
<path d="M5393 3969 c-35 -36 -44 -40 -57 -30 -13 11 -16 9 -22 -14 -6 -26 -9
-27 -48 -21 -22 3 -51 9 -64 12 -19 5 -21 3 -15 -12 4 -11 22 -38 40 -62 18
-24 33 -47 33 -50 0 -4 -10 -18 -23 -32 -12 -14 -18 -21 -14 -14 5 8 0 18 -14
28 -30 20 -33 15 -19 -26 11 -29 10 -39 -4 -66 l-17 -32 31 0 c16 0 30 -5 30
-12 0 -6 6 -4 13 7 11 14 22 17 45 12 33 -7 40 1 20 21 -9 9 -8 12 4 12 12 0
69 -59 105 -109 8 -11 15 12 15 49 0 22 5 45 11 50 75 62 101 80 113 80 19 0
18 -19 -1 -26 -19 -8 -20 -24 -1 -24 8 0 21 -9 29 -20 14 -20 15 -20 30 12 9
18 25 43 36 55 12 12 17 24 12 27 -5 3 -14 -1 -21 -9 -19 -23 -30 -18 -30 15
0 17 -3 29 -7 28 -20 -5 -81 25 -86 42 -4 16 -10 18 -35 10 -31 -8 -31 -8 -36
33 -3 23 -7 57 -8 75 l-3 33 -42 -42z m91 -228 c3 -5 -5 -16 -19 -25 -24 -16
-25 -15 -25 3 0 25 33 41 44 22z"/>
<path d="M8985 3970 c-13 -15 -22 -17 -36 -10 -26 14 -28 13 -26 -17 2 -20 -3
-28 -18 -31 -31 -6 -48 -23 -35 -36 23 -23 11 -38 -26 -31 l-36 6 19 -28 c32
-45 34 -51 22 -59 -8 -4 -9 -3 -5 4 4 7 1 12 -7 12 -8 0 -18 8 -22 17 -6 16
-8 15 -25 -6 -10 -14 -16 -30 -13 -37 2 -7 -10 -15 -32 -20 l-35 -9 25 -28
c30 -31 24 -51 -12 -44 -16 3 -27 -1 -34 -14 -13 -25 -34 -24 -71 2 -16 12
-31 19 -34 17 -2 -3 5 -31 16 -63 11 -32 20 -66 20 -75 0 -18 -45 -44 -61 -35
-5 4 -9 0 -9 -7 0 -8 -14 -22 -32 -33 -29 -17 -30 -19 -12 -26 10 -4 13 -8 7
-8 -25 -2 -13 -19 17 -26 25 -5 30 -12 30 -34 0 -26 -26 -61 -44 -61 -5 0 -21
14 -37 31 -22 23 -34 29 -51 23 -20 -6 -20 -8 -5 -19 9 -7 17 -22 17 -34 0
-18 3 -19 18 -10 13 8 24 9 37 2 15 -9 12 -11 -20 -17 -36 -7 -36 -8 -20 -26
18 -20 14 -50 -6 -50 -6 0 -13 9 -16 20 -3 11 -9 17 -14 14 -5 -3 -12 1 -15
10 -3 8 -12 12 -20 9 -8 -3 -21 0 -30 7 -13 11 -22 7 -57 -27 -59 -57 -84 -69
-106 -49 -31 28 -81 17 -81 -19 0 -13 9 -26 23 -33 20 -9 17 -11 -21 -11 -38
-1 -41 -3 -31 -19 13 -20 5 -87 -11 -97 -12 -8 -61 13 -76 33 -12 15 -13 12
-14 -20 0 -21 -4 -38 -10 -38 -11 0 -22 40 -46 165 -9 50 -20 96 -23 103 -4 7
-39 -48 -85 -133 l-79 -146 -41 6 c-125 17 -281 33 -285 30 -2 -2 44 -54 103
-116 58 -61 103 -116 100 -121 -4 -5 -18 2 -33 16 -36 34 -41 33 -34 -9 4 -24
2 -35 -7 -35 -6 0 -10 -6 -7 -12 2 -7 -3 -19 -12 -25 -13 -10 -14 -14 -3 -22
23 -14 9 -43 -35 -77 -23 -18 -48 -34 -55 -37 -20 -7 -4 -18 46 -30 l46 -12
-20 -37 c-25 -47 -25 -56 -1 -34 26 24 81 38 97 25 7 -6 16 -31 20 -55 3 -24
10 -47 15 -49 4 -3 23 23 41 57 19 36 41 64 51 66 35 7 64 -8 77 -38 l12 -30
20 25 c11 14 26 25 34 25 8 0 13 6 12 13 -6 26 24 10 93 -52 l72 -65 -8 77
c-4 53 -3 77 4 77 16 0 13 26 -4 40 -24 20 -8 89 31 129 l33 34 53 -36 c29
-21 56 -37 60 -37 4 0 2 14 -3 32 -12 44 -1 106 23 119 10 5 16 14 13 19 -13
22 24 14 58 -12 35 -28 37 -29 37 -9 0 18 4 20 24 15 22 -5 25 -2 33 38 7 37
12 43 36 46 l28 3 -22 18 -21 17 27 33 c20 23 31 29 38 22 6 -6 23 -11 38 -11
15 0 39 -6 53 -14 23 -12 111 -12 125 0 3 2 -5 14 -16 27 -11 12 -23 34 -27
49 -3 15 -15 30 -26 33 -11 3 -20 11 -20 16 0 5 -9 9 -21 9 -11 0 -29 5 -40
10 -20 11 -26 30 -8 30 5 0 8 -4 5 -9 -6 -10 33 -23 46 -15 4 3 8 14 8 24 0
13 5 17 15 14 10 -4 13 -2 10 8 -3 8 2 24 12 35 10 12 23 30 30 40 10 15 12 9
12 -39 1 -45 4 -58 16 -58 8 0 15 6 15 14 0 21 18 29 58 28 33 -1 34 -1 18 17
-13 15 -14 20 -4 23 9 3 6 12 -12 31 -20 20 -28 23 -39 14 -12 -10 -13 -9 -6
3 5 8 10 20 11 25 1 6 12 31 23 57 21 46 21 46 71 46 28 1 50 -4 50 -9 0 -6
-4 -7 -10 -4 -5 3 -10 -1 -10 -9 0 -9 5 -16 10 -16 6 0 10 -7 10 -15 0 -10 13
-2 38 22 27 27 37 46 38 70 1 36 -5 40 -37 21 -18 -12 -24 -9 -50 20 -29 32
-38 62 -19 62 6 0 10 -6 11 -12 0 -7 9 5 18 27 13 28 16 45 9 58 -11 22 -12
21 30 35 31 11 35 9 57 -16 27 -30 33 -51 10 -32 -9 7 -16 11 -18 9 -26 -46
-27 -49 -12 -49 8 0 15 -9 15 -20 0 -11 7 -20 15 -20 8 0 15 5 15 10 0 6 7 10
16 10 11 0 14 5 10 16 -6 14 -4 15 9 4 14 -12 16 -8 13 30 -1 30 3 46 15 55 9
7 17 20 17 29 0 9 8 16 20 16 11 0 20 7 20 15 0 8 8 15 18 15 15 1 15 2 1 13
-9 7 -18 16 -20 22 -2 5 -19 10 -38 11 -39 1 -61 25 -61 65 0 15 -3 35 -7 45
-5 14 -2 16 21 10 24 -6 27 -4 24 16 -2 13 -9 23 -15 23 -7 0 -13 5 -13 10 0
6 10 10 22 10 12 0 23 6 26 13 5 15 -44 7 -66 -11 -11 -8 -12 -5 -7 16 8 32 4
34 -20 7z m-25 -104 c0 -28 -22 -49 -47 -44 -27 5 -23 34 5 31 20 -3 21 0 12
17 -9 17 -8 20 10 20 14 0 20 -7 20 -24z m-87 -123 c-7 -2 -19 -2 -25 0 -7 3
-2 5 12 5 14 0 19 -2 13 -5z m-43 -112 c0 -5 -7 -12 -16 -15 -24 -9 -28 -7
-14 9 14 17 30 20 30 6z m-166 -237 c5 -14 4 -15 -9 -4 -17 14 -19 20 -6 20 5
0 12 -7 15 -16z m-4 -44 c0 -5 -9 -10 -20 -10 -10 0 -24 -10 -31 -21 -9 -17
-13 -19 -19 -8 -14 22 8 49 40 49 17 0 30 -4 30 -10z m-242 -181 c-2 -6 -8
-10 -13 -10 -5 0 -11 4 -13 10 -2 6 4 11 13 11 9 0 15 -5 13 -11z m76 -60 c-3
-5 -10 -7 -15 -3 -5 3 -7 10 -3 15 3 5 10 7 15 3 5 -3 7 -10 3 -15z m-324
-120 c0 -5 -7 -9 -15 -9 -9 0 -15 9 -15 21 0 18 2 19 15 9 8 -7 15 -16 15 -21z"/>
<path d="M5980 3897 c0 -9 -7 -20 -17 -25 -15 -9 -14 -11 4 -20 33 -18 35 -48
5 -68 -19 -13 -30 -14 -43 -6 -14 9 -20 7 -31 -11 -8 -12 -13 -32 -12 -44 1
-13 -3 -24 -7 -24 -5 -1 -13 -2 -19 -3 -40 -5 23 -58 72 -61 67 -4 109 -17
104 -32 -3 -8 -6 -17 -6 -19 0 -2 -19 -4 -42 -4 l-43 -1 34 -29 c31 -27 33
-31 22 -61 -17 -48 -14 -52 21 -28 l31 23 38 -22 38 -22 -10 33 c-13 44 -13
44 21 74 22 19 27 29 18 35 -18 11 57 10 106 -2 21 -4 43 -14 47 -22 7 -10 11
-10 21 0 14 14 58 16 58 2 0 -5 5 -10 10 -10 6 0 10 6 10 14 0 8 10 18 21 21
15 5 18 9 9 15 -7 4 -9 16 -5 29 7 22 -9 30 -21 10 -3 -6 -18 -9 -33 -6 -30 6
-45 0 -53 -24 -10 -27 -50 -11 -81 32 -18 24 -23 39 -15 39 18 0 33 -11 46
-35 6 -11 12 -14 12 -7 0 6 7 12 15 12 8 0 15 7 15 15 0 10 10 15 28 15 l27 1
-26 22 c-20 18 -24 28 -18 45 8 22 -4 31 -16 12 -9 -14 -28 -12 -50 4 -18 13
-18 15 -1 41 23 35 13 45 -17 17 -13 -12 -32 -22 -44 -22 -11 0 -34 -5 -52
-11 -31 -11 -34 -9 -80 37 -78 80 -91 90 -91 71z m40 -158 c0 -5 -7 -9 -15 -9
-15 0 -20 12 -9 23 8 8 24 -1 24 -14z m230 3 c0 -22 -26 -59 -35 -50 -6 6 21
68 30 68 3 0 5 -8 5 -18z m110 -138 c0 -8 -5 -12 -10 -9 -6 4 -8 11 -5 16 9
14 15 11 15 -7z"/>
<path d="M4015 3867 c-14 -20 -14 -22 7 -28 22 -5 60 18 52 32 -10 18 -45 16
-59 -4z"/>
<path d="M5585 3879 c-9 -14 -2 -20 14 -10 8 6 9 11 3 15 -6 3 -14 1 -17 -5z"/>
<path d="M5617 3866 c-4 -10 -1 -13 8 -9 8 3 12 9 9 14 -7 12 -11 11 -17 -5z"/>
<path d="M5777 3825 c-4 -8 -21 -18 -39 -24 l-33 -9 32 -1 c17 -1 35 4 38 9 5
8 12 7 23 -2 14 -11 15 -10 9 5 -4 10 -7 23 -7 28 0 14 -17 10 -23 -6z"/>
<path d="M3940 3781 c0 -9 -5 -22 -12 -29 -9 -9 -8 -12 5 -12 10 0 20 -6 23
-14 5 -12 8 -12 23 2 22 22 17 44 -15 59 -20 9 -24 9 -24 -6z"/>
<path d="M5678 3753 c7 -3 16 -2 19 1 4 3 -2 6 -13 5 -11 0 -14 -3 -6 -6z"/>
<path d="M6386 3693 c-9 -23 14 -45 34 -33 11 7 11 10 2 10 -9 0 -11 7 -7 20
8 25 -20 28 -29 3z"/>
<path d="M5516 3658 c9 -52 12 -58 28 -52 9 3 28 -2 43 -13 84 -55 93 -59 104
-42 5 9 1 18 -14 26 l-22 12 23 1 c19 0 21 4 16 28 -12 51 -25 56 -42 17 -6
-14 -18 -25 -26 -25 -29 0 -66 23 -66 41 0 16 -27 39 -44 39 -3 0 -3 -15 0
-32z"/>
<path d="M5049 2730 c-48 -146 -52 -150 -133 -150 -31 0 -48 6 -62 21 l-19 21
-5 -23 c-6 -26 -30 -38 -30 -14 0 13 -4 14 -20 5 -11 -6 -31 -8 -44 -4 -18 4
-26 1 -31 -13 -3 -10 -22 -31 -41 -47 -32 -26 -38 -28 -70 -18 -39 12 -39 11
-19 -28 14 -27 13 -30 -11 -60 -15 -17 -24 -34 -20 -37 3 -4 6 -2 6 4 0 6 16
13 35 15 32 4 38 0 57 -31 19 -33 21 -34 29 -16 4 11 8 30 8 43 1 12 6 22 11
22 6 0 10 7 10 15 0 8 5 15 10 15 6 0 10 -4 10 -9 0 -6 24 -7 54 -4 48 5 54 4
52 -12 -4 -27 -33 -39 -52 -21 -8 9 -18 16 -22 16 -3 0 -1 -5 6 -12 14 -14 -2
-38 -26 -38 -8 0 -12 -3 -9 -7 4 -3 2 -12 -5 -20 -13 -16 -5 -26 25 -30 12 -2
26 -8 31 -13 6 -6 16 -4 26 5 9 8 25 12 37 9 17 -5 21 -16 27 -81 4 -41 4 -95
0 -119 l-6 -44 113 81 c62 44 115 76 117 70 2 -5 10 -7 17 -5 8 3 61 -28 120
-70 58 -42 105 -70 105 -63 0 6 -14 67 -31 135 -18 67 -30 125 -26 128 3 3 23
-6 46 -20 22 -14 45 -26 50 -26 5 0 14 -7 21 -15 11 -13 15 -13 21 -3 7 10 9
10 9 -1 0 -10 3 -11 13 -3 10 8 20 4 40 -18 l27 -29 -21 -15 -22 -15 28 -7
c20 -5 30 -3 36 9 6 9 22 15 39 15 38 -1 60 18 58 48 -2 18 -8 24 -22 22 -10
-2 -21 3 -23 10 -3 6 1 12 7 12 9 0 7 8 -4 25 -26 40 -21 55 19 53 41 -1 48 3
39 26 -11 29 -49 37 -84 19 -31 -15 -32 -15 -67 18 l-34 34 3 -40 c3 -36 0
-42 -32 -62 -19 -12 -38 -23 -41 -23 -4 0 -10 15 -13 34 -6 31 -3 38 36 75 24
22 49 41 57 41 7 0 11 6 8 15 -4 8 -1 18 6 22 18 11 -28 21 -100 22 -58 1 -64
3 -77 29 -8 16 -21 34 -30 41 -13 11 -18 6 -36 -29 -12 -24 -25 -38 -30 -34
-4 5 -27 68 -50 139 -23 72 -46 134 -50 138 -4 5 -28 -51 -51 -123z m-326
-242 c7 -27 5 -30 -17 -22 -19 7 -22 44 -2 44 7 0 16 -10 19 -22z m700 -145
c7 -7 -11 -33 -23 -33 -4 0 -10 9 -13 20 -4 14 0 20 12 20 10 0 21 -3 24 -7z"/>
<path d="M5985 2598 c-49 -60 -93 -112 -97 -114 -4 -2 -73 27 -154 66 -81 38
-149 69 -150 67 -2 -2 21 -45 51 -97 62 -109 77 -166 50 -186 -16 -12 -16 -14
-2 -20 12 -4 15 -14 11 -37 -4 -26 -3 -29 6 -14 6 9 16 17 22 17 11 0 -13 -42
-44 -77 -17 -18 -24 -20 -39 -10 -14 9 -21 9 -31 -1 -10 -10 -8 -14 10 -19 27
-7 23 -28 -14 -82 -13 -19 -22 -36 -21 -37 1 -2 66 6 145 18 78 11 147 18 154
15 7 -2 54 -68 103 -146 50 -77 93 -141 96 -141 4 0 8 72 11 161 2 109 8 163
16 168 6 4 72 20 147 36 l135 29 2 40 c0 23 0 51 -1 62 -2 33 17 74 34 74 20
0 19 -19 0 -26 -14 -6 -13 -8 2 -19 15 -11 19 -11 26 1 5 8 6 23 2 33 -5 15 3
22 41 35 26 9 48 15 49 13 10 -11 14 -47 5 -52 -5 -3 -10 -15 -10 -27 0 -11
-8 -22 -20 -25 -11 -3 -20 -9 -20 -14 0 -4 21 1 46 11 55 24 65 25 58 5 -4
-11 -2 -13 9 -9 9 3 25 0 36 -6 17 -9 25 -8 37 5 21 20 51 19 63 -2 9 -16 10
-16 11 5 0 12 5 22 11 22 5 0 -2 11 -18 26 -23 22 -25 28 -15 45 17 27 0 59
-28 52 -16 -4 -20 0 -20 20 0 13 -6 30 -13 36 -10 8 -19 4 -36 -19 -12 -17
-31 -30 -43 -30 -17 0 -18 2 -8 15 10 12 10 15 -3 15 -9 0 -19 -4 -22 -10 -3
-5 -15 -10 -26 -10 -10 0 -19 -4 -19 -10 0 -14 -12 -13 -75 11 -54 20 -55 21
-56 62 0 23 -3 60 -7 82 l-7 40 -45 -58 c-25 -31 -50 -57 -56 -57 -6 0 -43 11
-83 25 l-73 24 15 -22 c76 -116 87 -147 54 -147 -14 0 -47 -35 -47 -50 0 -14
-16 -12 -29 3 -6 8 -15 86 -20 176 -5 89 -10 164 -12 165 -2 2 -44 -46 -94
-106z m325 -308 c14 -22 28 -40 33 -40 4 0 7 -5 7 -11 0 -6 -31 7 -70 27 -70
38 -76 49 -30 57 14 2 27 5 30 6 4 0 17 -17 30 -39z"/>
<path d="M4483 2604 c-18 -19 11 -41 32 -24 8 7 15 16 15 20 0 14 -35 17 -47
4z"/>
<path d="M4380 2582 c0 -10 -6 -24 -12 -31 -11 -11 -10 -12 1 -6 9 5 19 2 27
-10 13 -17 14 -17 21 1 4 10 14 24 22 31 14 11 13 12 -6 13 -12 0 -25 5 -28
10 -10 16 -25 11 -25 -8z"/>
<path d="M7223 2576 c-9 -11 -7 -13 13 -13 14 0 24 5 24 13 0 18 -21 17 -37 0z"/>
<path d="M7240 2516 c0 -20 -4 -35 -9 -32 -5 3 -11 -3 -14 -14 -3 -11 -10 -20
-17 -20 -6 0 -9 4 -5 9 11 19 -12 19 -28 0 -19 -21 -34 -23 -71 -9 -29 10 -27
1 7 -58 16 -28 17 -35 6 -50 -12 -15 -12 -16 2 -4 14 10 18 10 23 -3 3 -8 0
-15 -7 -15 -18 0 -38 -37 -30 -56 6 -15 7 -14 14 5 10 25 41 40 47 23 7 -21
22 -13 22 12 0 40 11 56 36 56 18 0 24 -5 24 -22 0 -49 17 -52 41 -9 19 35 27
41 46 37 13 -4 34 -9 48 -12 19 -5 25 -2 25 10 0 9 -4 16 -9 16 -5 0 -19 13
-31 30 l-21 29 27 53 c14 29 20 47 13 41 -19 -18 -58 -16 -66 3 -6 15 -7 15
-19 -1 -13 -18 -14 -18 -34 0 -20 18 -20 18 -20 -19z"/>
<path d="M6790 2497 c0 -19 16 -31 24 -18 3 5 -1 14 -9 21 -12 10 -15 10 -15
-3z"/>
<path d="M6875 2480 c-4 -6 -15 -8 -25 -5 -11 4 -17 1 -16 -7 0 -7 -3 -14 -7
-15 -17 -4 -47 -52 -41 -66 3 -8 19 -17 35 -19 25 -4 29 -1 29 19 0 30 9 29
47 -5 37 -35 56 -36 70 -5 9 18 8 23 -2 23 -8 0 -18 7 -23 16 -8 15 -10 15
-15 0 -8 -20 -37 -21 -37 -2 0 8 5 16 11 18 6 2 8 14 4 31 -7 28 -19 35 -30
17z"/>
<path d="M7494 2420 c-12 -5 -25 -14 -29 -20 -5 -8 -11 -8 -21 1 -11 9 -14 7
-14 -15 0 -14 -5 -26 -10 -26 -11 0 -3 -49 10 -63 4 -5 23 7 43 26 23 23 31
39 25 45 -7 7 -1 16 16 27 43 29 29 45 -20 25z"/>
<path d="M4399 2364 c-12 -15 -11 -16 11 -9 35 10 49 25 23 25 -11 0 -27 -7
-34 -16z"/>
<path d="M6758 2373 c7 -3 16 -2 19 1 4 3 -2 6 -13 5 -11 0 -14 -3 -6 -6z"/>
<path d="M6470 2320 c0 -5 5 -10 11 -10 5 0 7 5 4 10 -3 6 -8 10 -11 10 -2 0
-4 -4 -4 -10z"/>
<path d="M6855 2321 c-3 -5 -1 -12 4 -15 5 -3 11 1 15 9 6 16 -9 21 -19 6z"/>
<path d="M6468 2256 c-5 -23 -2 -26 21 -26 15 0 31 8 39 20 11 17 10 20 -7 20
-11 0 -26 3 -34 6 -10 3 -16 -3 -19 -20z"/>
<path d="M6745 2260 c-3 -5 -4 -10 -1 -10 2 0 12 -3 20 -6 12 -5 15 -2 10 10
-7 18 -20 21 -29 6z"/>
<path d="M6796 2204 c-20 -20 -20 -23 2 -20 9 2 18 10 20 19 4 21 -2 21 -22 1z"/>
<path d="M5542 2177 c-9 -11 -10 -17 -2 -22 15 -9 23 -1 18 21 -3 15 -4 16
-16 1z"/>
</g>
</svg>
