<?xml version="1.0" standalone="no"?>
<!DOCTYPE svg PUBLIC "-//W3C//DTD SVG 20010904//EN"
 "http://www.w3.org/TR/2001/REC-SVG-20010904/DTD/svg10.dtd">
<svg version="1.0" xmlns="http://www.w3.org/2000/svg"
 width="1228.000000pt" height="1280.000000pt" viewBox="0 0 1228.000000 1280.000000"
 preserveAspectRatio="xMidYMid meet">
<metadata>
Created by potrace 1.15, written by Peter Selinger 2001-2017
</metadata>
<g transform="translate(0.000000,1280.000000) scale(0.100000,-0.100000)"
fill="#000000" stroke="none">
<path d="M8985 12789 c-3989 -23 -7630 -58 -8220 -79 -480 -17 -589 -34 -632
-98 -70 -106 -97 -484 -115 -1647 -16 -1078 -16 -8996 0 -10065 7 -426 15
-785 18 -798 13 -46 155 -66 598 -83 924 -35 7685 -15 10411 31 809 14 1018
23 1109 50 38 11 70 21 72 23 6 5 24 801 35 1492 5 363 13 3028 16 5923 l6
5262 -1024 -2 c-563 -1 -1586 -5 -2274 -9z m3093 -426 c-3 -205 -6 -243 -21
-275 -34 -68 -123 -77 -138 -13 -4 17 -12 80 -17 142 -11 124 -30 171 -82 198
-63 32 -415 38 -2025 32 -852 -4 -2043 -11 -2645 -17 -602 -5 -1653 -14 -2335
-20 -3605 -29 -4429 -40 -4448 -59 -18 -18 -17 -10765 1 -11367 13 -436 23
-586 42 -609 17 -21 180 -24 1790 -35 2885 -19 9237 19 9595 58 l60 7 7 48 c3
26 11 218 17 425 29 1000 35 2051 36 6437 1 2475 5 4512 9 4528 7 23 14 27 43
27 76 0 88 -27 104 -232 22 -301 28 -1418 28 -4863 0 -5105 -14 -6444 -67
-6497 -36 -36 -1319 -58 -4502 -78 -899 -5 -2508 -15 -3575 -22 -1067 -7
-2322 -13 -2790 -13 -816 1 -853 1 -920 20 l-70 20 -6 2055 c-4 1130 -8 3675
-9 5655 -2 4036 5 4584 53 4633 26 25 3543 43 10325 50 l1544 2 -4 -237z
m-841 -339 c-3 -19 -44 -115 -90 -212 -98 -203 -117 -254 -151 -389 -36 -143
-46 -226 -46 -371 0 -220 35 -345 143 -516 32 -49 57 -99 57 -112 0 -33 -55
-47 -161 -43 -111 5 -192 44 -284 135 -111 111 -153 228 -155 429 -2 147 -34
189 -133 168 -30 -6 -143 -47 -253 -91 -194 -78 -350 -132 -380 -132 -32 0
-13 67 72 245 47 99 89 201 94 226 18 91 -19 150 -101 163 -56 9 -159 78 -251
169 -133 129 -169 207 -121 259 28 31 103 19 267 -41 227 -85 282 -95 491 -95
236 0 370 27 629 126 176 68 326 117 355 118 22 0 23 -3 18 -36z m-8714 -216
c18 -56 -93 -266 -202 -381 -155 -165 -353 -219 -576 -158 -94 25 -288 118
-395 188 -86 57 -103 74 -94 96 22 59 302 71 543 24 270 -54 369 -31 536 124
110 103 176 140 188 107z m763 -203 c204 -35 321 -92 445 -215 74 -73 93 -100
138 -190 85 -174 129 -400 101 -521 -7 -30 -45 -116 -84 -192 l-71 -138 0 -97
c0 -78 5 -108 23 -154 37 -92 82 -149 142 -180 99 -53 199 -30 296 67 80 79
89 103 88 220 -1 81 -49 493 -70 596 -4 22 11 46 99 150 193 230 306 318 530
410 78 32 142 57 143 56 2 -2 -33 -31 -77 -66 -95 -75 -154 -146 -170 -204
-36 -134 47 -464 144 -566 41 -43 151 -96 242 -116 123 -28 185 -6 690 240
608 296 876 399 1169 450 287 49 845 43 1278 -15 739 -98 1334 -372 1852 -853
159 -147 259 -296 412 -612 87 -181 150 -344 179 -463 24 -103 18 -302 -11
-352 -43 -75 -98 -75 -328 -1 -181 59 -202 63 -241 47 -36 -15 -123 -114 -153
-172 -86 -170 -17 -401 144 -480 47 -23 63 -26 122 -22 105 8 284 98 372 189
46 47 64 46 85 -5 19 -45 52 -204 59 -287 7 -77 -8 -302 -29 -442 -51 -336
-140 -597 -272 -793 -149 -221 -421 -518 -553 -604 -62 -40 -68 -42 -125 -37
-81 6 -143 32 -315 127 -221 123 -436 228 -493 240 -60 13 -77 25 -77 55 0 40
40 153 110 314 81 184 111 281 144 474 150 857 41 1496 -328 1932 -303 356
-811 631 -1351 731 -140 26 -565 26 -705 1 -250 -47 -436 -109 -675 -227 -240
-119 -448 -257 -657 -437 -386 -332 -543 -700 -662 -1548 -30 -216 -42 -342
-56 -575 -54 -941 -19 -2878 66 -3660 39 -365 111 -599 309 -1005 153 -313
284 -514 418 -643 91 -87 128 -102 253 -102 214 0 440 95 500 211 15 30 19
115 6 123 -5 3 -27 -23 -50 -58 -68 -104 -139 -146 -244 -146 -102 1 -178 43
-221 125 -32 58 -31 215 1 300 45 120 149 248 235 286 48 22 65 24 217 24 160
0 167 -1 221 -28 62 -30 184 -149 264 -259 61 -81 119 -198 141 -279 36 -137
13 -353 -52 -481 -93 -184 -293 -393 -452 -474 -55 -28 -62 -29 -197 -28 -155
1 -250 18 -430 78 -144 48 -253 101 -395 193 -144 92 -163 103 -184 103 -17 0
-77 -95 -161 -255 -104 -197 -176 -289 -257 -331 -46 -24 -124 -22 -175 4 -60
31 -168 126 -182 160 -14 34 -8 49 58 151 50 78 65 134 59 224 -7 93 -42 196
-134 384 -100 204 -103 207 -275 211 -163 4 -228 -8 -279 -54 -54 -49 -65 -98
-64 -279 2 -165 24 -278 66 -337 15 -21 23 -51 26 -89 6 -84 -35 -155 -166
-291 -109 -112 -157 -144 -199 -134 -13 4 -92 48 -175 98 -231 140 -276 152
-352 93 -25 -19 -66 -50 -91 -69 -82 -63 -174 -86 -417 -106 -269 -22 -507 28
-720 151 -137 79 -231 156 -458 374 -147 141 -271 238 -358 280 -94 45 -134
76 -158 121 -19 35 -19 36 0 50 47 34 151 12 365 -77 80 -34 160 -63 178 -66
31 -5 32 -4 47 48 9 30 25 118 36 196 27 186 59 310 116 446 116 277 135 328
158 422 63 253 55 457 -23 629 -60 132 -129 189 -230 189 -119 0 -251 -91
-408 -281 -116 -141 -222 -252 -242 -252 -22 0 -8 137 27 255 91 311 211 488
389 573 68 32 87 37 148 36 129 -1 260 -80 400 -241 156 -178 273 -391 300
-548 22 -130 55 -150 163 -100 95 44 211 173 280 310 69 140 119 352 107 455
-24 202 -142 511 -255 666 -76 105 -168 159 -312 184 -76 13 -125 1 -112 -28
28 -64 15 -133 -38 -213 -68 -102 -213 -189 -315 -189 -47 0 -141 50 -197 105
-123 119 -128 300 -14 478 47 73 90 93 230 106 64 6 156 23 205 37 117 35 206
40 318 19 176 -33 315 -105 435 -225 447 -450 475 -1310 57 -1734 -121 -122
-422 -350 -571 -431 -47 -27 -73 -49 -95 -83 -72 -113 -163 -346 -207 -529
-13 -57 -24 -108 -24 -114 0 -6 30 27 67 73 116 145 244 257 353 313 120 61
372 108 590 109 136 1 160 -1 194 -19 82 -42 61 -54 -202 -120 -394 -98 -559
-181 -627 -316 -69 -136 -86 -332 -36 -432 49 -101 168 -153 333 -145 78 3
104 9 152 32 123 60 357 264 501 437 316 379 491 860 589 1619 8 63 31 302 51
530 19 228 45 485 56 570 19 146 21 218 26 1220 5 1096 -8 2326 -27 2479 -32
249 -192 738 -350 1069 -86 178 -157 280 -280 403 -80 80 -110 103 -181 137
-107 52 -179 65 -316 60 -127 -5 -159 -18 -251 -103 -146 -135 -221 -258 -230
-375 -9 -124 19 -231 148 -570 146 -382 175 -493 174 -665 0 -102 -5 -132 -27
-200 -55 -166 -205 -366 -351 -470 -179 -126 -474 -221 -604 -194 -120 25
-289 114 -364 192 -55 58 -123 189 -169 327 -38 115 -36 171 11 312 70 209
235 437 394 544 50 33 99 44 111 24 4 -6 -14 -72 -39 -148 -98 -299 -136 -449
-136 -538 0 -74 18 -102 153 -238 174 -175 277 -196 472 -99 166 83 288 190
341 300 25 51 28 69 28 153 0 73 -5 112 -24 170 -29 90 -101 233 -168 333 -26
39 -93 140 -148 222 -166 246 -206 333 -243 527 -102 530 12 923 329 1127 143
93 226 102 475 55 193 -36 455 -41 570 -10 156 42 274 113 407 246 186 188
185 277 -10 421 -151 113 -282 220 -282 230 0 13 23 11 126 -6z m-2045 -201
c72 -22 139 -56 168 -88 34 -37 41 -118 13 -172 -37 -73 -151 -164 -205 -164
-49 0 -156 91 -196 167 -19 37 -12 86 23 159 54 112 89 130 197 98z m-183
-438 c40 -50 91 -128 114 -172 36 -74 40 -89 40 -155 -1 -199 -181 -514 -425
-745 -93 -88 -141 -123 -153 -111 -10 10 24 114 93 281 97 238 106 281 97 451
-13 261 -5 339 53 519 l35 110 37 -44 c20 -24 69 -84 109 -134z m6613 -1319
c291 -76 505 -234 633 -468 125 -228 151 -537 62 -724 -109 -229 -721 -852
-866 -881 -27 -6 -30 -10 -30 -43 0 -39 -20 -73 -79 -132 -57 -57 -75 -109
-79 -236 -4 -96 0 -126 22 -215 15 -58 50 -151 80 -214 153 -318 362 -501 661
-580 135 -36 312 -40 365 -8 80 46 41 68 -145 79 -256 17 -467 124 -680 346
-94 98 -155 180 -155 209 0 10 7 24 16 31 13 11 33 10 118 -5 55 -9 191 -33
301 -52 472 -81 613 -111 828 -174 318 -93 669 -256 1087 -506 251 -149 396
-261 571 -441 126 -128 172 -186 253 -322 37 -61 103 -158 146 -215 88 -118
109 -168 117 -277 8 -101 -3 -181 -30 -221 -34 -50 -82 -49 -231 2 -148 51
-243 65 -337 51 -146 -23 -243 -84 -297 -186 -23 -43 -27 -62 -27 -136 0 -81
2 -90 43 -171 97 -196 217 -241 488 -183 246 54 291 6 135 -145 -98 -95 -200
-163 -439 -293 -314 -172 -463 -278 -627 -448 -159 -165 -244 -304 -309 -509
-50 -155 -56 -254 -27 -407 72 -378 169 -517 401 -574 87 -22 434 -19 530 4
177 43 297 109 460 251 35 30 91 70 124 88 55 29 71 32 184 38 67 4 128 12
134 18 8 8 7 18 -5 36 -33 49 -175 83 -442 106 -137 11 -245 27 -282 41 -27
10 -46 71 -68 214 -20 135 -19 221 3 265 39 79 245 183 402 203 257 32 516
-132 614 -390 92 -244 72 -389 -94 -678 -151 -264 -274 -391 -473 -491 -291
-147 -444 -174 -974 -174 -435 0 -537 15 -663 97 -113 75 -338 303 -464 472
-186 249 -254 532 -227 946 30 448 99 641 471 1305 277 496 310 582 345 915 8
77 18 219 21 315 12 324 -36 474 -236 742 -140 188 -273 313 -320 301 -58 -15
-19 -94 115 -233 58 -60 105 -116 105 -123 0 -45 -344 -133 -565 -144 -80 -4
-134 -1 -200 11 -261 49 -616 168 -829 279 -112 59 -162 108 -266 267 -73 112
-181 330 -206 414 -23 83 -14 187 31 365 86 338 182 545 428 926 218 337 307
499 307 559 0 90 -77 172 -195 208 -16 5 -101 15 -188 23 -164 14 -207 27
-207 63 0 26 35 56 106 91 174 86 375 49 538 -100 134 -123 156 -182 137 -361
-16 -152 -48 -293 -77 -348 -55 -102 -76 -154 -82 -192 -5 -39 -4 -40 17 -29
58 32 175 275 231 481 38 140 23 246 -60 415 -60 123 -95 166 -163 199 -120
58 -401 77 -556 37 -159 -42 -279 -117 -431 -270 -57 -58 -118 -116 -134 -128
-66 -51 -175 -11 -209 76 -26 63 -32 212 -13 301 60 284 337 528 710 626 134
35 209 43 381 40 142 -3 186 -8 266 -29z m-5063 -1012 c41 -38 85 -87 98 -107
38 -59 70 -186 119 -480 50 -303 73 -399 113 -471 62 -114 131 -134 342 -101
92 15 109 15 135 3 55 -26 41 -85 -45 -181 -97 -109 -220 -148 -347 -110 -93
29 -159 75 -313 220 -72 68 -143 127 -158 133 -24 10 -30 7 -58 -25 -17 -19
-54 -78 -83 -129 -199 -360 -245 -734 -121 -977 10 -19 37 -56 60 -82 34 -40
48 -48 76 -48 53 0 61 27 46 159 -23 210 -16 239 76 285 167 84 324 36 393
-118 49 -111 16 -219 -98 -326 -224 -210 -486 -263 -758 -154 -146 59 -325
203 -364 293 -45 106 -74 401 -52 540 15 93 51 201 103 306 45 91 64 115 88
115 49 0 284 216 423 390 128 158 206 318 229 465 11 73 8 160 -19 445 l-6 65
24 -20 c13 -10 57 -51 97 -90z m3419 -301 c335 -59 641 -275 765 -539 31 -67
33 -76 36 -215 3 -106 0 -170 -12 -235 -18 -94 -56 -189 -81 -198 -34 -14
-113 91 -276 368 -220 375 -391 509 -571 450 -65 -21 -118 -59 -118 -86 0 -10
38 -60 85 -110 111 -118 149 -193 143 -279 -4 -49 -9 -65 -34 -91 -39 -42 -53
-48 -126 -58 -46 -6 -78 -5 -116 5 -30 8 -57 12 -62 9 -19 -12 41 -144 82
-182 67 -63 171 -56 255 18 45 39 70 35 104 -16 69 -100 58 -161 -47 -262 -88
-85 -158 -123 -225 -123 -62 0 -190 25 -226 44 -109 57 -212 208 -281 411 -86
252 -101 539 -41 756 35 127 67 163 211 235 246 124 317 137 535 98z m2282
-463 c121 -38 209 -112 259 -219 35 -74 42 -193 17 -279 -34 -117 -118 -222
-213 -265 -90 -41 -210 -40 -293 2 -67 35 -76 79 -28 134 37 43 77 68 149 92
108 36 153 89 153 180 0 62 -24 109 -74 142 -31 22 -41 24 -129 19 -128 -7
-200 -32 -336 -115 -88 -55 -114 -39 -55 35 81 101 234 231 316 269 63 30 149
31 234 5z m-1566 -1283 c18 -24 19 -32 8 -67 -15 -53 -69 -96 -151 -122 -88
-27 -278 -127 -471 -249 -337 -212 -587 -347 -947 -509 -274 -124 -267 -122
-276 -80 -3 17 -6 43 -6 58 0 70 86 139 337 271 300 157 508 273 628 348 296
186 406 247 565 314 194 82 272 91 313 36z m-1213 -16 c97 -48 120 -132 67
-237 -34 -68 -67 -103 -120 -130 -63 -31 -107 -32 -172 -1 -52 24 -119 89
-135 132 -30 78 4 154 100 226 72 54 164 58 260 10z m-2446 -712 c205 -52 357
-174 451 -360 109 -217 73 -243 -110 -79 -175 157 -308 238 -407 247 -68 6
-72 -2 -29 -56 39 -50 55 -104 55 -187 0 -121 -34 -189 -111 -225 -105 -49
-255 -5 -365 107 -147 151 -146 284 3 433 122 122 322 169 513 120z m3023 -51
c34 -13 80 -55 99 -91 37 -71 6 -191 -72 -278 -66 -73 -134 -76 -226 -11 -90
65 -134 156 -114 236 10 40 76 106 131 131 54 26 134 32 182 13z m2718 -301
c27 -64 31 -203 10 -291 -20 -85 -95 -248 -155 -338 -64 -96 -192 -216 -295
-276 -214 -127 -548 -217 -1020 -273 -456 -55 -547 -84 -754 -241 -180 -135
-315 -337 -352 -527 -24 -127 11 -330 66 -382 24 -22 37 -25 158 -31 145 -8
206 -24 295 -79 29 -18 56 -30 59 -27 3 3 -30 55 -74 114 -125 170 -147 218
-123 263 17 32 103 67 208 85 88 15 95 15 130 -2 119 -58 159 -319 71 -457
-27 -43 -39 -50 -156 -91 -23 -8 -14 -37 35 -114 73 -116 89 -170 60 -199 -38
-38 -131 11 -313 168 -33 28 -82 63 -110 78 -49 26 -56 26 -285 32 -129 4
-244 10 -255 15 -98 40 -138 124 -200 425 -31 144 -54 203 -87 221 -12 7 -77
16 -143 20 -179 11 -271 53 -291 135 -15 60 25 142 86 178 30 18 58 22 200 26
151 5 169 8 208 30 101 57 181 252 213 515 7 55 15 104 19 108 4 4 90 15 191
23 451 37 566 103 650 371 48 155 59 183 80 193 27 15 76 -14 186 -109 117
-101 195 -154 297 -201 139 -64 192 -75 361 -74 280 1 376 45 606 281 175 178
290 322 335 417 21 44 31 56 49 56 17 0 27 -10 40 -42z m-640 -1763 c68 -23
117 -61 113 -88 -3 -18 -14 -23 -87 -34 -190 -30 -340 -159 -527 -454 -90
-142 -166 -239 -187 -239 -7 0 -19 -5 -27 -10 -12 -8 -11 -13 8 -33 38 -41 47
-118 46 -437 0 -261 -3 -306 -21 -392 -28 -128 -70 -214 -146 -295 -106 -114
-277 -226 -304 -200 -10 11 11 49 56 101 38 44 54 86 32 86 -20 0 -71 -53
-152 -157 -98 -125 -168 -203 -182 -203 -21 0 5 75 81 237 100 210 108 229
132 322 29 114 37 184 55 436 26 370 54 556 105 697 101 276 369 544 645 645
118 43 263 50 360 18z m-6710 -1035 c8 -25 -9 -86 -51 -185 -47 -112 -64 -182
-74 -316 -10 -123 -30 -193 -60 -209 -29 -16 -60 31 -60 89 1 125 132 562 187
623 21 24 50 23 58 -2z m6602 -1020 c142 -19 320 -126 538 -324 170 -154 310
-255 387 -278 22 -6 53 -24 69 -39 24 -22 29 -35 29 -73 0 -25 -2 -46 -5 -46
-15 0 -520 273 -681 367 -27 17 -67 36 -87 42 -141 47 -478 20 -712 -55 -44
-15 -136 -55 -206 -90 -136 -69 -228 -98 -359 -114 -143 -17 -597 -6 -540 14
223 76 390 165 581 306 126 93 141 102 284 160 44 18 109 45 145 60 161 67
373 94 557 70z"/>
</g>
</svg>
