<?xml version="1.0" standalone="no"?>
<!DOCTYPE svg PUBLIC "-//W3C//DTD SVG 20010904//EN"
 "http://www.w3.org/TR/2001/REC-SVG-20010904/DTD/svg10.dtd">
<svg version="1.0" xmlns="http://www.w3.org/2000/svg"
 width="1271.000000pt" height="1280.000000pt" viewBox="0 0 1271.000000 1280.000000"
 preserveAspectRatio="xMidYMid meet">
<metadata>
Created by potrace 1.15, written by Peter Selinger 2001-2017
</metadata>
<g transform="translate(0.000000,1280.000000) scale(0.100000,-0.100000)"
fill="#000000" stroke="none">
<path d="M8695 8884 c-16 -3 -74 -14 -128 -25 -944 -196 -2115 -1440 -3222
-3426 -65 -117 -120 -211 -122 -210 -4 4 175 915 250 1277 205 980 239 1328
148 1508 -54 107 -115 210 -139 235 -15 15 -56 42 -92 60 -64 32 -66 32 -205
31 -154 -1 -302 -23 -502 -74 -159 -41 -373 -109 -373 -118 0 -5 14 -27 31
-50 41 -56 94 -167 114 -239 37 -134 30 -436 -21 -833 -41 -325 -96 -629 -309
-1695 -289 -1444 -329 -1678 -330 -1925 0 -175 13 -228 79 -320 19 -26 44 -67
56 -90 88 -172 351 -257 629 -205 93 18 252 71 357 120 l71 32 6 114 c15 293
146 663 453 1279 309 619 661 1203 1068 1770 762 1064 1382 1569 1844 1500
148 -22 298 -115 374 -231 18 -28 49 -76 69 -107 19 -31 40 -57 46 -59 15 -5
235 172 354 284 372 351 494 577 434 808 -19 72 -122 264 -177 331 -86 104
-226 193 -370 235 -56 16 -106 22 -218 24 -80 2 -158 1 -175 -1z"/>
</g>
</svg>
