<?xml version="1.0" standalone="no"?>
<!DOCTYPE svg PUBLIC "-//W3C//DTD SVG 20010904//EN"
 "http://www.w3.org/TR/2001/REC-SVG-20010904/DTD/svg10.dtd">
<svg version="1.0" xmlns="http://www.w3.org/2000/svg"
 width="1280.000000pt" height="1280.000000pt" viewBox="0 0 1280.000000 1280.000000"
 preserveAspectRatio="xMidYMid meet">
<metadata>
Created by potrace 1.15, written by Peter Selinger 2001-2017
</metadata>
<g transform="translate(0.000000,1280.000000) scale(0.100000,-0.100000)"
fill="#000000" stroke="none">
<path d="M1125 12050 c-7 -12 19 -12 55 0 22 7 21 8 -12 9 -20 1 -40 -3 -43
-9z"/>
<path d="M1395 12040 c-148 -10 -271 -18 -272 -19 -2 -1 -3 -17 -3 -37 l0 -35
83 6 c168 12 640 35 644 31 8 -7 -369 -47 -587 -61 -137 -9 -140 -10 -140 -46
l0 -31 118 6 c64 4 133 10 152 13 19 3 32 3 29 -1 -4 -4 -271 -46 -296 -46 -2
0 -3 -13 -3 -30 0 -27 3 -29 28 -25 90 17 914 135 997 144 55 6 179 15 275 21
96 6 391 24 655 41 264 16 558 34 653 40 96 6 175 9 177 7 3 -2 -102 -17 -233
-32 -130 -15 -334 -41 -452 -56 -118 -16 -339 -45 -490 -65 -151 -20 -390 -51
-530 -70 -140 -19 -430 -57 -645 -85 -214 -27 -400 -53 -412 -55 -21 -5 -23
-11 -22 -60 l2 -55 121 -1 121 -2 -123 -15 c-103 -12 -122 -17 -120 -31 4 -19
-17 -20 298 15 224 24 414 39 395 29 -5 -2 -119 -23 -252 -45 -170 -28 -271
-40 -342 -40 l-101 0 0 -35 c0 -32 2 -35 23 -30 103 25 246 35 481 35 143 0
257 -3 253 -6 -3 -3 -115 -16 -249 -29 -277 -27 -416 -42 -471 -51 l-38 -6 2
-99 c1 -117 -24 -107 209 -79 108 13 221 19 325 19 196 -2 174 -7 -210 -49
-154 -17 -290 -33 -302 -36 -19 -3 -23 -11 -23 -39 0 -19 3 -35 8 -35 4 0 50
7 102 15 69 11 180 14 410 14 l315 -1 -165 -40 -165 -41 -252 -4 c-207 -4
-253 -7 -253 -18 0 -11 25 -15 118 -17 l117 -3 -85 -13 c-47 -7 -100 -15 -118
-19 l-32 -5 1 -84 1 -83 117 -3 116 -3 -115 -20 c-114 -20 -115 -20 -118 -49
-3 -27 -2 -28 25 -21 41 11 800 17 853 7 l45 -8 -75 -14 c-51 -9 -197 -15
-462 -17 -326 -4 -388 -7 -388 -18 0 -12 31 -15 168 -18 l167 -3 -167 -2 -168
-2 1 -60 1 -60 512 -2 511 -3 -145 -18 c-137 -18 -809 -121 -857 -132 -18 -4
-23 -12 -23 -35 0 -37 -20 -36 325 -10 307 23 446 31 425 25 -8 -2 -170 -25
-360 -50 -190 -25 -355 -48 -367 -50 -23 -5 -33 -35 -12 -35 6 0 326 42 712
94 386 52 763 100 837 105 74 6 193 15 263 21 124 10 865 15 856 6 -4 -4 -193
-36 -769 -127 -143 -23 -241 -32 -435 -39 -137 -5 -371 -18 -520 -29 -148 -11
-405 -30 -570 -41 -364 -24 -385 -27 -385 -46 0 -8 10 -14 23 -14 24 0 389 26
931 66 114 8 210 13 212 11 2 -2 -42 -9 -98 -16 -57 -7 -213 -25 -348 -42
-135 -16 -337 -41 -450 -54 -289 -35 -270 -30 -270 -67 l0 -31 48 7 c26 3 225
26 442 51 217 24 494 60 615 80 564 90 524 86 708 83 l172 -3 -395 -68 c-217
-38 -483 -84 -591 -102 -183 -32 -517 -66 -759 -80 -228 -12 -240 -14 -240
-41 0 -13 3 -24 8 -24 4 0 68 7 142 15 126 13 183 14 109 0 -57 -10 -233 -35
-246 -35 -7 0 -13 -10 -13 -21 0 -20 4 -21 43 -15 68 10 410 35 552 40 177 7
91 -6 -260 -39 -325 -30 -335 -32 -335 -50 0 -8 7 -15 16 -15 9 0 200 18 426
41 225 22 414 39 420 37 6 -2 -41 -12 -103 -21 -173 -27 -743 -128 -751 -133
-5 -3 -8 -12 -8 -20 0 -10 7 -13 23 -9 36 7 394 70 817 142 l395 68 570 2
c314 1 566 0 560 -2 -5 -3 -120 -22 -255 -44 -359 -59 -430 -74 -627 -135
-171 -53 -188 -56 -423 -81 -135 -14 -303 -32 -375 -40 -71 -8 -236 -26 -365
-40 -320 -34 -320 -34 -320 -51 0 -19 6 -19 316 16 148 16 377 41 509 55 132
14 253 27 270 30 21 4 26 2 19 -5 -6 -6 -231 -35 -500 -65 -558 -62 -614 -71
-614 -92 0 -12 9 -14 43 -10 181 23 663 77 680 76 67 -3 -491 -91 -615 -97
l-108 -5 0 -39 0 -39 43 6 c57 8 271 24 275 21 7 -8 -179 -68 -240 -78 -70
-11 -96 -31 -67 -49 10 -6 10 -9 2 -9 -8 0 -13 -14 -13 -35 0 -22 5 -35 13
-35 8 0 204 16 438 35 439 37 595 48 569 40 -15 -5 -999 -155 -1013 -155 -4 0
-6 -27 -6 -60 1 -49 5 -60 18 -60 9 0 88 9 176 20 136 17 216 20 545 19 212 0
381 -2 375 -5 -5 -2 -203 -31 -440 -64 -335 -47 -456 -60 -552 -60 l-123 0 0
-45 c0 -36 3 -45 18 -45 9 0 102 11 206 25 150 20 228 25 380 24 l191 -1 -135
-20 c-74 -10 -252 -31 -395 -46 -219 -23 -260 -30 -263 -44 -2 -9 5 -18 15
-21 17 -4 17 -5 1 -6 -14 -1 -18 -10 -18 -37 l0 -35 88 5 c96 6 78 -7 -27 -19
l-61 -7 0 -49 c0 -45 2 -49 25 -49 13 0 197 20 407 45 1064 124 1218 139 1148
115 -56 -20 -436 -84 -985 -165 -318 -48 -583 -89 -587 -91 -4 -3 -8 -12 -8
-20 0 -12 7 -14 28 -10 15 3 135 22 267 41 948 140 998 148 1377 225 134 28
162 30 310 28 162 -3 163 -3 103 -16 -431 -96 -1039 -297 -1071 -355 -7 -12
-76 -24 -289 -52 -226 -30 -323 -38 -502 -42 l-223 -5 0 -39 c0 -45 -9 -44
138 -23 61 8 135 14 164 12 45 -3 26 -8 -121 -33 -159 -27 -198 -41 -178 -61
3 -3 135 17 293 44 235 41 320 51 454 56 247 9 727 16 710 11 -13 -4 -244 -33
-710 -89 -198 -24 -567 -65 -658 -72 -57 -5 -85 -11 -89 -21 -3 -8 -3 -16 0
-19 5 -6 142 7 487 46 203 23 271 32 825 101 326 41 446 52 585 54 96 2 162 1
145 -2 -16 -2 -482 -55 -1035 -116 l-1005 -112 -3 -37 -3 -37 183 4 c398 11
533 13 523 9 -5 -2 -161 -26 -345 -54 -184 -27 -341 -52 -348 -55 -16 -6 -16
-82 1 -88 9 -4 9 -6 0 -6 -7 -1 -13 -10 -13 -21 0 -17 7 -20 43 -21 23 -1 33
-3 22 -6 -11 -2 -30 -6 -42 -9 -24 -5 -33 -34 -10 -34 6 0 84 12 172 25 88 14
183 24 210 24 38 -1 19 -7 -85 -24 -74 -13 -164 -26 -200 -30 -99 -9 -110 -13
-110 -36 0 -17 5 -20 28 -15 76 15 472 50 479 42 4 -3 -1 -6 -9 -6 -8 0 -120
-13 -249 -30 -129 -16 -237 -30 -241 -30 -5 0 -8 -9 -8 -19 0 -18 7 -19 158
-15 183 6 185 -5 7 -30 -182 -26 -165 -17 -165 -87 l0 -61 48 6 c126 15 377
17 922 7 850 -15 1112 -24 1025 -33 -177 -19 -717 -42 -1315 -57 -228 -6 -475
-14 -547 -17 l-133 -6 0 -29 0 -29 408 -1 c386 -1 404 -2 342 -16 -48 -11
-156 -17 -405 -22 l-340 -6 -3 -24 -4 -24 184 5 c100 3 174 2 163 -2 -21 -8
-257 -48 -310 -52 -24 -3 -31 -8 -33 -30 l-3 -28 318 -3 318 -2 -317 -3 c-275
-2 -318 -4 -318 -17 0 -13 29 -15 197 -15 108 0 194 -2 191 -5 -4 -5 -355 -64
-381 -65 -5 0 -7 -17 -5 -37 2 -28 7 -37 18 -34 8 2 245 5 525 7 l510 3 -150
-20 c-115 -15 -237 -21 -526 -25 l-377 -6 -1 -71 -1 -70 87 7 c118 8 475 32
704 47 102 6 191 10 198 8 6 -2 -156 -28 -361 -57 -692 -98 -628 -86 -628
-118 l0 -24 878 -2 877 -3 -115 -18 c-400 -64 -440 -67 -1061 -67 l-577 0 0
-35 0 -35 50 0 c30 0 47 -4 43 -10 -3 -6 -26 -10 -51 -10 -34 0 -44 -4 -44
-16 0 -15 15 -16 133 -11 l132 5 -110 -14 c-158 -22 -155 -21 -155 -49 0 -14
5 -25 12 -25 6 0 84 9 172 20 137 18 207 20 476 18 l315 -3 -250 -28 c-746
-85 -720 -81 -723 -100 -4 -21 -13 -20 133 -2 66 8 134 14 150 14 34 -2 -31
-12 -182 -29 -85 -10 -103 -15 -103 -29 0 -15 38 -16 488 -14 268 1 480 0 472
-3 -52 -15 -828 -124 -888 -124 -73 0 -73 0 -70 -25 l3 -26 659 1 c363 0 658
-2 655 -4 -3 -3 -46 -14 -97 -25 -87 -20 -124 -21 -657 -21 -496 0 -565 -2
-565 -15 0 -13 60 -15 477 -15 262 0 473 -4 467 -8 -15 -14 -330 -80 -484
-102 -80 -11 -215 -21 -300 -23 l-155 -4 -3 -59 -3 -59 263 3 c145 2 261 2
258 -1 -10 -10 -288 -46 -402 -53 l-118 -7 0 -33 0 -34 668 -2 667 -3 -155
-18 c-85 -10 -263 -34 -395 -53 -132 -19 -361 -52 -510 -72 l-270 -37 0 -50 0
-50 628 -5 628 -5 -358 -48 c-323 -44 -384 -49 -628 -55 -254 -7 -270 -8 -273
-26 -4 -18 2 -19 99 -14 118 7 103 -7 -20 -17 -65 -6 -81 -11 -81 -24 0 -14
27 -16 272 -14 298 2 297 -8 -2 -26 -232 -15 -270 -20 -270 -37 0 -9 12 -14
33 -14 80 0 566 42 697 60 132 18 391 28 378 14 -3 -3 -145 -21 -314 -41 -237
-27 -365 -36 -551 -40 l-243 -5 0 -39 0 -39 488 -2 487 -3 -130 -20 c-105 -15
-198 -20 -487 -23 l-358 -3 0 -31 0 -31 120 8 c66 4 120 5 120 2 0 -2 -44 -10
-97 -17 -126 -15 -143 -19 -143 -36 0 -19 -13 -20 322 25 339 46 421 54 393
42 -11 -4 -40 -11 -65 -14 -146 -20 -609 -88 -627 -92 -24 -6 -32 -35 -10 -35
6 0 226 33 487 72 l475 72 475 3 c437 2 518 -2 385 -21 -27 -4 -282 -46 -565
-92 -283 -47 -560 -91 -615 -100 -103 -15 -606 -74 -637 -74 -12 0 -18 -8 -18
-21 0 -17 5 -20 28 -15 15 3 115 15 222 26 328 35 582 74 1520 233 l365 62
590 3 c324 1 587 0 584 -3 -4 -4 -1609 -273 -1729 -290 -82 -11 -810 -44
-1373 -61 -178 -5 -208 -8 -205 -21 2 -13 23 -15 123 -14 254 3 900 27 1030
37 39 4 68 4 65 1 -9 -9 -372 -67 -550 -87 -128 -14 -241 -20 -422 -20 -238 0
-248 -1 -248 -19 0 -11 8 -22 18 -24 16 -4 16 -5 0 -6 -15 -1 -18 -11 -18 -56
l0 -55 382 0 c210 0 379 -2 376 -5 -15 -15 -389 -45 -563 -45 l-193 0 0 -40
-1 -40 817 -1 c449 0 813 -2 807 -4 -5 -2 -224 -31 -485 -65 l-475 -60 -333 0
-333 0 3 -23 c2 -16 13 -24 41 -31 47 -12 48 -26 2 -26 -23 0 -38 -6 -42 -15
-3 -9 -4 -18 -2 -20 3 -2 49 1 104 7 82 9 110 8 155 -4 65 -18 67 -17 -117
-59 l-143 -32 0 -39 0 -38 58 -1 57 -2 -57 -10 c-37 -6 -58 -15 -58 -24 0 -18
22 -17 281 13 197 22 254 25 474 21 229 -3 260 -6 370 -31 154 -36 160 -38
100 -47 -74 -11 -766 -10 -950 1 -88 5 -185 11 -215 12 l-55 3 0 -30 0 -30
322 -5 c177 -3 324 -7 327 -10 3 -3 -138 -21 -312 -39 -174 -18 -323 -35 -329
-37 -9 -2 -13 -23 -13 -59 l0 -55 367 0 c201 0 364 -3 361 -6 -3 -3 -120 -22
-259 -44 -249 -37 -256 -38 -344 -24 -131 20 -125 22 -125 -32 l0 -47 53 7
c151 19 182 19 348 -4 93 -13 169 -27 169 -30 0 -4 -35 -10 -77 -13 -121 -9
-424 -37 -461 -43 l-32 -5 2 -70 2 -69 30 5 c174 29 298 37 576 40 185 2 293
0 275 -5 -16 -5 -219 -21 -450 -35 -231 -15 -423 -29 -426 -31 -4 -2 -7 -40
-7 -85 l0 -80 36 5 c128 20 264 26 632 25 229 0 403 -4 388 -9 -15 -4 -240
-22 -500 -39 -611 -41 -555 -33 -555 -81 l0 -40 66 -1 66 -1 -65 -12 c-57 -10
-65 -14 -68 -35 -4 -23 -3 -23 65 -17 37 3 178 13 313 21 135 8 360 22 500 30
140 9 293 15 340 13 78 -3 44 -9 -450 -86 -294 -46 -587 -89 -650 -95 l-115
-12 0 -50 c0 -47 1 -50 25 -47 14 1 81 10 150 19 110 15 254 17 1175 19 938 2
1037 1 930 -12 -66 -7 -196 -24 -290 -36 -163 -22 -208 -23 -1080 -28 -856 -5
-910 -6 -913 -22 -3 -17 33 -18 649 -18 359 0 650 -2 648 -4 -3 -3 -63 -13
-134 -22 -103 -14 -236 -18 -648 -21 -478 -4 -518 -6 -515 -21 3 -15 31 -18
268 -22 l265 -5 -165 -18 c-91 -9 -211 -17 -267 -17 l-103 0 0 -81 0 -81 73 6
c200 16 622 37 697 34 l85 -3 -135 -13 c-273 -26 -369 -32 -542 -32 -158 0
-178 -2 -178 -16 0 -15 25 -16 288 -10 158 3 314 8 347 10 55 5 53 4 -20 -9
-53 -9 -169 -14 -347 -14 -231 -1 -268 -3 -268 -16 0 -12 21 -15 123 -16 134
-1 127 -8 -28 -31 l-90 -13 -2 -103 -2 -102 42 -1 42 -1 -40 -12 c-33 -10 -41
-18 -43 -41 l-4 -28 179 7 c98 4 345 13 548 21 204 8 429 17 500 19 72 3 126
3 120 1 -5 -2 -227 -36 -492 -75 -462 -67 -490 -70 -668 -70 -172 0 -186 -1
-183 -17 2 -11 12 -18 25 -18 12 0 25 -3 29 -7 4 -5 -5 -8 -20 -8 -23 0 -46
-23 -35 -35 3 -2 76 7 164 20 144 22 191 24 460 24 165 -1 293 -3 285 -5 -8
-2 -123 -10 -255 -19 -336 -21 -497 -34 -503 -40 -3 -3 152 -5 344 -5 395 0
1007 24 1304 51 63 6 180 9 260 7 l145 -3 -180 -19 c-99 -10 -193 -22 -210
-26 -57 -15 305 -11 395 5 182 31 375 46 550 43 l175 -3 -120 -18 c-177 -27
-193 -38 -45 -32 69 3 141 8 160 11 26 4 31 3 20 -5 -27 -19 195 -11 340 12
l135 22 3 42 3 42 -128 -4 -128 -4 110 14 c61 7 117 14 126 14 13 1 17 12 17
47 1 26 -1 50 -3 54 -2 3 -37 3 -77 -2 -572 -62 -706 -73 -1173 -103 -220 -14
-463 -30 -540 -35 -154 -11 -845 -12 -940 -1 -56 6 -42 8 175 39 129 19 370
54 535 78 372 55 557 63 1423 64 l602 0 0 30 0 31 -357 -7 c-369 -7 -763 3
-633 17 36 4 273 7 528 8 455 1 462 1 462 21 0 19 -7 20 -212 21 l-213 2 210
21 c187 19 210 23 213 40 4 16 -1 18 -45 12 -26 -3 -217 -22 -423 -41 l-375
-35 -805 2 -805 3 300 53 c165 28 332 56 370 62 41 6 423 10 928 10 755 0 857
2 857 15 0 13 -90 15 -747 16 -412 1 -730 5 -708 9 129 26 509 41 971 40 l481
-1 1 52 1 52 -52 -6 c-62 -8 -378 -18 -357 -12 8 2 102 14 208 26 140 16 195
26 199 36 3 8 4 16 1 18 -2 3 -78 -4 -169 -15 -90 -11 -256 -31 -369 -45 -139
-16 -260 -25 -375 -25 -93 -1 -174 0 -180 1 -5 0 143 26 330 56 306 50 361 56
550 62 189 5 210 8 213 24 2 11 -3 17 -15 17 -17 1 -17 1 0 11 14 8 17 24 17
79 0 66 -1 70 -22 70 -13 0 -135 -14 -273 -30 -137 -17 -308 -32 -380 -35
-130 -5 -130 -5 -69 10 100 23 408 57 579 64 l160 6 3 29 4 28 -54 -6 c-29 -4
-73 -10 -98 -13 -25 -3 -42 -3 -39 1 3 3 46 12 95 19 79 12 89 15 92 35 3 21
0 22 -72 22 -86 0 -247 -20 -456 -55 l-145 -25 -985 2 c-841 3 -969 5 -875 15
606 68 1979 193 2106 193 52 -1 166 -7 254 -14 88 -8 164 -10 168 -6 4 4 7 38
5 76 l-3 69 -115 20 -115 20 118 3 117 3 0 34 c0 34 0 34 -52 37 l-53 3 50 15
c39 12 51 21 53 39 4 23 2 24 -45 17 -86 -11 -615 -47 -728 -49 -64 -1 -142 4
-185 12 l-75 15 85 12 c47 7 274 17 505 24 231 6 426 13 433 16 6 2 12 17 12
34 0 29 -1 30 -47 31 -52 1 -49 4 10 14 23 4 37 11 37 20 0 19 3 19 -222 -10
-183 -24 -214 -25 -667 -24 -262 1 -469 3 -461 5 8 2 292 28 630 59 804 72
720 60 720 101 0 27 -5 37 -22 44 l-23 9 23 0 c13 1 22 7 22 16 0 18 -34 19
-111 5 -44 -9 -80 -6 -192 12 -175 28 -155 36 111 45 l193 6 -3 76 -3 76 -430
5 -430 5 405 13 c223 7 418 15 433 18 19 4 27 11 25 22 -3 15 -42 17 -423 22
l-420 5 275 43 c233 36 298 42 423 42 124 0 147 2 147 15 0 10 -11 15 -32 16
l-33 1 33 10 c31 10 45 38 20 38 -7 0 -84 -11 -171 -25 -133 -21 -194 -25
-374 -25 -119 0 -214 2 -212 5 12 11 366 45 489 46 74 1 166 4 205 8 l69 6 3
48 c3 43 1 47 -19 47 -13 0 -183 -20 -378 -44 l-355 -45 -595 -10 c-327 -6
-669 -13 -760 -16 l-165 -4 485 81 485 81 650 6 c608 6 650 7 653 24 3 16 -24
17 -464 17 -257 0 -465 2 -463 5 3 2 174 31 381 65 250 40 404 60 462 60 l86
0 0 38 0 38 -402 2 c-221 2 -403 4 -405 6 -2 1 79 12 180 24 137 17 237 22
405 22 189 0 222 2 222 15 0 12 -23 15 -127 18 l-128 3 128 2 c105 2 127 5
127 17 0 9 -9 15 -22 16 l-23 0 23 9 c19 8 22 17 22 60 0 60 18 57 -215 35
-88 -8 -245 -14 -350 -14 l-190 1 335 39 c184 21 352 38 373 38 34 1 60 22 44
37 -3 3 -130 -9 -283 -25 -911 -100 -783 -91 -1264 -90 -506 2 -536 -4 385 74
297 25 668 57 825 70 157 14 298 25 313 25 21 0 28 4 25 17 -4 21 2 22 -518
-22 -784 -67 -1375 -117 -1766 -151 -99 -8 -207 -14 -240 -12 -47 2 15 15 321
65 298 49 436 67 640 83 278 21 1542 184 1560 201 27 27 -36 23 -365 -21 -828
-112 -981 -131 -997 -128 -10 2 293 55 672 118 l690 115 3 28 3 27 -502 0
c-276 0 -500 2 -497 5 3 3 45 13 94 22 69 12 182 17 497 20 l408 5 -3 36 -3
37 -115 5 -115 5 109 13 c121 15 126 16 126 38 0 12 -7 14 -27 10 -16 -3 -71
-10 -123 -16 -52 -7 -146 -20 -208 -31 -100 -17 -162 -19 -510 -18 -275 1
-371 4 -312 10 94 9 614 42 958 60 l222 13 0 23 c0 22 -3 23 -82 24 -46 1
-162 4 -258 8 l-175 6 258 35 c236 31 257 36 257 54 0 19 -9 19 -507 13 -280
-3 -664 -11 -855 -17 -190 -7 -357 -10 -369 -8 -13 2 107 27 267 56 l290 54
584 -3 585 -3 3 22 c3 22 1 22 -130 23 -154 2 -150 5 15 14 100 6 118 9 115
23 -4 19 29 19 -502 -9 -208 -11 -380 -18 -382 -16 -13 13 319 62 784 117
l102 12 -1 64 -2 64 -31 1 -31 1 30 7 c27 6 30 10 33 52 l3 46 -283 -5 c-156
-2 -281 -2 -278 1 11 11 250 37 403 44 156 6 157 6 157 30 0 22 4 23 63 23 35
0 114 7 177 15 348 45 1611 125 1589 101 -4 -4 -193 -34 -420 -66 -405 -59
-419 -60 -644 -61 l-230 -1 111 -27 c114 -28 133 -34 248 -83 66 -29 70 -29
149 -19 76 10 302 14 265 4 -10 -2 -82 -12 -160 -22 -132 -16 -141 -19 -116
-31 27 -13 92 -7 573 51 90 11 1471 10 1425 -1 -19 -5 -161 -26 -315 -49 -327
-46 -513 -57 -1142 -67 -371 -6 -421 -9 -411 -22 11 -13 73 -14 450 -10 241 3
437 4 435 2 -16 -15 -600 -63 -781 -64 -15 0 -16 -3 -6 -15 8 -10 32 -15 69
-16 59 -1 59 -3 -2 -14 l-37 -6 47 -55 48 -55 327 3 c180 2 324 0 320 -3 -4
-3 -126 -20 -272 -38 -339 -42 -322 -39 -307 -62 11 -17 27 -19 202 -21 l190
-1 -175 -9 c-96 -5 -177 -11 -179 -14 -3 -2 2 -10 10 -18 11 -10 47 -11 169
-5 298 15 876 39 938 39 133 0 49 -17 -240 -48 -266 -29 -336 -33 -571 -32
-268 0 -268 0 -257 -21 10 -17 20 -20 73 -19 85 2 93 -1 24 -10 -63 -8 -76
-15 -60 -31 8 -8 78 -3 241 16 127 14 268 25 314 23 l83 -3 -210 -38 c-145
-26 -239 -37 -302 -37 -51 0 -93 -3 -93 -7 0 -5 9 -23 20 -40 l20 -33 202 0
c111 0 199 -2 197 -4 -2 -2 -87 -9 -189 -16 -102 -7 -186 -13 -188 -15 -2 -2
1 -13 8 -24 11 -21 13 -21 588 -22 317 0 573 -2 567 -4 -5 -2 -95 -14 -200
-25 -104 -12 -323 -46 -486 -76 -163 -30 -310 -54 -327 -54 -39 0 -41 -14 -9
-61 13 -19 26 -42 30 -51 5 -14 15 -17 49 -12 416 50 702 65 1033 54 l160 -5
-555 -78 c-650 -92 -622 -87 -611 -106 10 -16 -40 -22 891 109 267 38 503 70
525 71 75 4 478 -1 474 -6 -3 -2 -187 -25 -410 -49 -222 -25 -546 -62 -719
-81 -173 -20 -394 -45 -490 -55 -258 -29 -252 -28 -240 -51 8 -15 22 -19 63
-20 l52 -1 -42 -10 c-24 -5 -43 -12 -43 -16 0 -4 11 -25 23 -47 l23 -40 264
-5 c146 -3 252 -8 235 -12 -32 -8 -262 -34 -388 -44 l-78 -6 24 -41 c22 -41
24 -42 67 -39 25 2 434 5 910 7 l865 3 -205 -23 c-452 -51 -609 -66 -928 -85
-183 -11 -398 -20 -477 -20 l-145 0 11 -22 10 -23 992 3 c546 2 1037 2 1092 0
l100 -3 -140 -13 c-77 -7 -300 -19 -495 -27 -800 -34 -1483 -65 -1486 -68 -2
-1 1 -9 6 -17 9 -15 -6 -15 900 26 340 15 376 16 369 10 -2 -2 -271 -32 -597
-67 -326 -35 -598 -66 -604 -70 -7 -4 -1 -24 18 -59 l28 -52 136 7 c74 4 232
20 350 36 118 16 269 32 335 34 l120 5 -180 -35 c-145 -27 -222 -36 -395 -44
-118 -6 -248 -11 -288 -11 -66 0 -72 -2 -63 -17 8 -15 25 -17 133 -16 l123 2
-65 -14 c-36 -8 -86 -14 -112 -15 -32 0 -48 -4 -47 -12 0 -7 17 -42 37 -78
l38 -65 84 -5 c84 -5 85 -5 35 -13 -105 -17 -106 -18 -82 -51 12 -17 25 -17
262 -2 435 27 616 35 1355 61 164 6 169 -6 10 -23 -58 -7 -197 -23 -310 -37
-196 -24 -230 -25 -752 -25 -308 0 -548 -4 -548 -9 0 -28 37 -31 401 -33 l374
-3 -330 -48 c-181 -27 -338 -51 -347 -53 -16 -5 -15 -9 4 -50 l22 -44 175 -1
c97 0 196 0 221 0 89 3 15 -16 -160 -39 -96 -13 -179 -27 -185 -32 -5 -5 -5
-12 2 -19 10 -10 69 -5 608 52 50 5 128 14 175 20 107 13 901 23 880 10 -8 -4
-44 -11 -80 -15 -36 -4 -108 -11 -160 -16 -52 -5 -167 -14 -255 -20 -323 -21
-594 -41 -764 -56 -96 -8 -220 -15 -277 -16 -57 -1 -104 -3 -104 -5 0 -3 12
-25 27 -50 l26 -45 66 6 c36 4 86 9 111 13 87 11 33 -7 -64 -21 -54 -8 -100
-17 -102 -19 -2 -2 2 -11 9 -21 12 -17 25 -17 261 4 136 12 252 20 258 18 21
-7 -345 -48 -425 -48 l-77 0 20 -40 20 -40 198 -1 c108 0 193 -2 187 -4 -5 -2
-90 -9 -187 -16 -167 -11 -177 -13 -167 -30 8 -15 18 -18 52 -13 113 13 853
64 927 63 70 -1 46 -5 -145 -24 -493 -50 -560 -56 -685 -62 l-129 -6 20 -39
20 -40 82 7 c45 4 105 11 132 16 28 5 151 12 275 15 287 7 2400 11 2393 4 -2
-3 -102 -20 -221 -39 l-217 -34 -1207 -4 c-665 -2 -1208 -7 -1208 -11 0 -31
25 -32 955 -33 l930 -1 -245 -18 c-135 -10 -321 -23 -415 -29 -93 -7 -226 -16
-295 -21 -69 -5 -290 -10 -492 -10 -316 0 -368 -2 -368 -15 0 -25 30 -32 190
-45 246 -19 258 -28 42 -29 -189 -1 -193 -1 -182 -21 8 -15 22 -20 53 -22 l42
-1 -37 -4 c-40 -4 -44 -9 -29 -32 10 -15 103 -11 361 16 174 18 570 29 555 15
-14 -13 -134 -28 -524 -62 -190 -17 -347 -32 -349 -34 -2 -3 20 -50 50 -105
48 -92 56 -101 83 -102 24 -1 25 -3 7 -6 -26 -5 -26 -6 -7 -43 18 -35 10 -34
140 -15 55 8 150 14 210 14 l110 -1 -175 -24 c-96 -12 -194 -23 -218 -23 -40
-1 -42 -2 -32 -21 9 -17 22 -20 78 -21 l67 -1 -55 -10 c-30 -6 -57 -12 -58
-13 -2 -2 8 -26 23 -53 21 -39 31 -48 48 -45 119 19 872 115 937 120 150 10
81 -4 -125 -27 -310 -33 -815 -115 -815 -132 0 -21 42 -18 272 21 324 53 336
55 763 101 637 69 572 54 -350 -80 -346 -50 -636 -93 -642 -95 -9 -3 -7 -14 8
-40 l21 -35 231 -2 c180 -1 213 -3 147 -9 -47 -4 -147 -7 -222 -8 -145 -1
-154 -4 -123 -45 13 -18 28 -18 297 -13 156 3 558 22 893 42 336 19 635 34
665 33 50 -3 -171 -21 -580 -49 -85 -6 -175 -14 -200 -19 -50 -10 2357 -4
2613 7 108 4 156 10 154 17 -3 8 -149 10 -508 9 -277 -1 -497 0 -489 3 27 7
753 94 843 101 48 3 87 10 87 15 0 5 -7 23 -16 39 -14 28 -18 30 -62 25 l-47
-5 38 12 c21 7 38 16 38 20 -1 6 -29 66 -35 74 -1 1 -44 -4 -96 -12 -244 -36
-2033 -197 -2153 -193 l-92 3 240 33 c132 18 321 44 420 58 99 13 243 33 320
44 77 11 286 40 465 65 321 44 329 45 598 45 149 0 272 2 272 5 0 18 -26 55
-39 56 -10 0 -11 3 -4 5 9 4 9 11 1 30 l-11 24 -561 1 -561 1 105 21 c97 19
140 21 548 21 243 1 442 3 442 6 -1 20 -33 28 -160 39 -80 7 -170 15 -200 19
-49 5 -52 7 -25 13 17 4 99 7 183 8 97 1 152 5 152 11 0 6 -6 13 -14 16 -8 3
-12 12 -9 20 9 25 -26 27 -130 9 -117 -21 -589 -32 -742 -18 l-90 8 135 23
c97 16 225 26 458 36 178 8 326 16 328 19 3 3 -7 30 -23 61 l-27 56 -221 1
c-245 1 -244 6 12 39 l171 23 -71 143 -72 142 -165 -4 -165 -4 147 23 c81 13
150 25 152 28 3 3 1 10 -3 17 -6 10 -65 5 -282 -28 l-274 -40 -1195 2 -1195 3
160 18 c88 10 234 27 325 37 138 16 233 20 575 20 306 0 483 5 695 20 218 15
388 20 723 20 240 0 437 2 437 5 0 3 -9 24 -21 46 -20 41 -20 41 -67 35 -178
-23 -1169 -37 -1067 -15 22 4 166 19 321 33 210 20 343 26 528 26 l246 0 -18
36 -19 36 -919 0 c-535 -1 -906 3 -889 8 52 15 526 41 935 51 217 5 411 11
430 14 19 2 112 12 205 21 94 9 171 17 173 19 2 1 -5 19 -14 39 -14 29 -24 36
-48 37 -30 2 -30 2 -4 6 43 7 24 33 -26 35 -36 1 -37 2 -8 5 36 5 38 9 17 49
-12 23 -20 28 -47 26 -18 -1 -122 -9 -230 -18 -109 -9 -203 -14 -209 -12 -7 2
91 17 217 33 126 15 230 29 232 30 1 1 0 10 -4 19 -5 14 -31 16 -208 17 l-201
2 188 20 c103 11 187 23 187 26 -1 26 -24 27 -235 5 -121 -12 -292 -30 -380
-39 -116 -11 -234 -15 -429 -13 l-270 3 270 40 269 39 377 4 377 3 -41 84 -41
83 -121 -3 c-91 -3 -108 -2 -71 5 28 4 78 9 113 9 55 1 63 3 60 19 -3 16 -21
17 -218 15 -118 -2 -271 -5 -340 -9 -69 -3 -123 -4 -120 -1 3 3 140 30 305 62
165 31 302 58 304 61 3 2 0 9 -7 16 -8 8 -49 4 -159 -17 -512 -95 -494 -92
-813 -109 -589 -30 -785 -38 -805 -33 -11 2 0 6 25 7 25 1 193 14 375 28 294
24 330 29 333 44 3 17 -9 18 -141 18 -80 0 -576 -27 -1102 -60 -526 -33 -1014
-60 -1083 -59 l-127 1 94 19 c98 19 1336 151 1576 168 77 6 286 15 465 21 866
30 1312 48 1317 54 31 31 -88 30 -877 -4 -118 -6 -237 -9 -265 -9 l-50 2 65 8
c183 24 573 60 743 69 363 21 356 19 324 61 -11 14 -26 14 -177 -2 -150 -16
-336 -29 -890 -59 -451 -25 -841 -51 -1040 -70 -58 -6 -213 -12 -345 -14 -187
-3 -316 -12 -585 -40 -189 -20 -403 -38 -475 -41 l-130 -4 115 14 c111 14 610
69 1275 140 183 20 432 39 580 45 143 6 375 20 515 31 175 14 394 22 697 26
426 6 442 7 432 24 -9 17 -24 19 -137 20 -107 2 -118 3 -67 9 33 4 88 8 123 9
59 1 62 2 52 20 -9 18 -20 19 -202 15 -448 -11 -724 -25 -888 -44 -162 -18
-235 -20 -990 -19 -469 1 -798 5 -775 10 22 4 153 20 290 34 138 15 370 40
518 56 l267 29 866 0 c819 0 865 1 862 17 -3 17 -45 18 -658 23 l-655 5 215
23 c118 12 296 31 395 42 126 14 250 20 412 20 202 0 232 2 227 15 -4 11 -22
15 -63 16 -56 2 -56 2 -14 8 48 8 61 17 47 31 -6 6 -92 1 -244 -15 -227 -24
-254 -25 -830 -23 l-595 3 375 40 c370 39 381 40 822 43 l446 3 -29 60 -30 59
-117 1 -117 1 105 15 c57 7 106 16 109 19 3 2 -1 10 -7 16 -9 9 -66 5 -239
-16 -126 -15 -262 -30 -303 -32 -295 -17 -633 -34 -661 -33 -69 3 149 29 650
78 283 28 516 53 519 55 2 3 1 10 -3 16 -5 9 -33 11 -94 7 -81 -5 -83 -5 -26
4 108 18 107 17 95 39 -7 14 -18 18 -38 15 -39 -6 -356 -16 -351 -11 2 2 78
16 169 31 91 15 169 31 173 35 4 4 2 11 -5 17 -9 7 -106 -5 -328 -43 l-315
-53 -265 0 c-175 1 -255 4 -235 10 17 5 270 36 564 69 294 33 537 63 540 65 2
3 -1 11 -7 17 -9 9 -62 6 -219 -11 -115 -13 -219 -24 -233 -27 -19 -3 -17 -1
5 6 103 33 213 53 312 57 62 3 113 9 113 13 0 23 -33 32 -97 25 -63 -6 -66 -5
-48 9 11 9 38 21 60 27 39 11 39 11 19 28 -12 9 -24 26 -28 37 -3 10 -20 36
-38 56 l-33 37 -95 -19 c-80 -16 -137 -19 -360 -19 l-265 1 160 19 c167 19
463 57 503 65 20 4 22 7 12 19 -9 10 -35 15 -84 16 l-71 2 64 9 c56 9 62 12
48 25 -13 13 -40 12 -240 -11 -124 -14 -272 -25 -329 -25 -134 2 -120 4 241
34 168 14 306 27 307 28 1 1 -6 13 -17 26 l-19 24 -218 -6 -217 -6 195 26
c107 14 197 27 199 29 2 2 -13 24 -33 49 l-37 45 -582 2 -582 3 485 89 c267
49 491 92 498 95 11 6 11 9 0 18 -10 9 -166 -16 -608 -98 l-595 -109 -555 2
-555 3 140 17 c674 85 1599 203 1818 234 l268 37 -38 39 -37 38 -550 0 c-302
0 -547 2 -545 4 2 3 73 14 158 25 132 18 206 21 520 21 l366 0 -47 33 c-43 31
-52 33 -105 29 -64 -5 -68 3 -7 16 l39 8 -32 17 c-29 15 -91 17 -645 18 l-613
1 120 19 c92 15 219 21 549 29 236 5 431 12 434 15 3 2 -8 10 -24 16 -20 8
-95 10 -244 6 -118 -3 -210 -3 -205 -1 6 1 69 10 140 19 72 8 143 18 159 21
l30 6 -25 13 c-21 11 -69 8 -324 -26 -289 -38 -310 -39 -580 -38 -154 0 -275
2 -270 4 6 3 159 20 340 40 540 58 689 75 693 79 2 2 -21 12 -50 22 -39 13
-82 18 -163 17 l-110 -1 80 12 80 11 -33 14 c-29 12 -53 11 -195 -8 -175 -23
-288 -34 -272 -27 10 5 357 56 378 56 6 0 2 7 -11 15 -20 15 -56 11 -446 -44
-386 -55 -449 -62 -693 -71 -605 -22 -942 -32 -953 -28 -6 2 201 41 460 87
533 93 450 86 1320 111 223 6 448 15 500 20 86 8 177 27 168 35 -1 1 -106 -1
-233 -5 -562 -21 -966 -32 -971 -28 -8 9 373 70 525 84 234 21 667 44 834 44
141 0 151 1 227 31 44 17 80 31 80 32 0 1 -154 1 -342 0 -366 -1 -343 2 182
27 213 10 261 15 290 31 l35 18 -109 1 c-60 0 -107 2 -105 5 3 2 70 12 149 21
95 11 158 23 183 35 43 22 46 28 15 22 -13 -2 -183 -21 -378 -43 -342 -39
-367 -40 -684 -40 -181 0 -327 2 -325 5 3 2 268 50 589 106 400 69 667 110
843 129 231 24 261 30 291 51 43 31 112 86 151 122 l30 27 -50 -5 c-581 -65
-700 -75 -865 -75 -236 0 -1060 14 -1035 17 11 2 274 21 585 43 407 30 684 44
990 51 l425 11 70 69 70 69 -275 1 c-168 0 -263 4 -245 9 49 14 276 30 424 30
111 0 141 3 151 15 11 13 6 15 -36 16 -37 0 -44 3 -29 9 11 5 36 9 56 9 23 1
43 8 54 21 17 19 17 20 0 20 -10 0 -116 -13 -234 -29 -201 -27 -521 -48 -476
-31 45 17 383 61 559 74 l190 13 33 39 c37 44 41 58 16 50 -10 -3 -67 -12
-128 -21 -82 -12 -173 -15 -360 -13 l-250 3 255 40 c222 35 274 40 398 38
l142 -2 30 41 c17 23 28 43 26 45 -2 2 -64 -6 -137 -17 -168 -26 -135 -26
-1104 -21 l-810 3 220 38 c121 22 270 43 330 49 209 19 632 32 1093 33 415 0
465 2 479 17 15 15 -19 16 -463 21 -275 3 -449 8 -409 12 39 4 259 23 490 43
231 20 429 40 440 45 18 7 123 186 113 195 -1 1 -95 -8 -208 -21 -179 -21
-700 -44 -650 -29 12 4 494 69 829 113 40 5 57 13 69 30 l14 22 -142 0 c-79 0
-141 2 -138 5 2 3 67 23 144 45 76 23 147 43 156 46 14 4 48 79 48 107 0 11
-53 9 -625 -28 -214 -13 -608 -38 -875 -55 -431 -27 -937 -71 -1165 -101 -45
-7 -341 -13 -685 -16 -463 -4 -617 -8 -655 -18 -44 -12 -5 -14 355 -16 436 -2
446 -5 110 -39 -113 -11 -446 -45 -740 -75 l-534 -55 -1521 1 c-1511 1 -1519
2 -1380 19 161 21 356 34 820 55 480 22 515 24 515 41 0 17 -48 18 -320 3
-109 -6 -205 -9 -212 -7 -19 7 280 41 412 47 l115 6 2 123 c1 112 0 122 -17
122 -24 0 -441 -59 -458 -65 -18 -7 -463 -32 -772 -45 -146 -6 -370 -15 -498
-21 -228 -10 -293 -8 -195 5 52 8 583 86 1115 166 334 50 339 50 583 50 229 0
246 1 243 18 -3 14 -16 17 -81 18 -43 1 -80 4 -83 6 -2 3 24 8 58 12 107 12
105 11 107 67 0 37 -3 49 -14 49 -8 0 -114 -7 -236 -16 -122 -8 -223 -13 -225
-11 -2 2 102 17 232 32 172 20 237 32 241 42 3 8 4 16 1 18 -2 2 -92 -6 -199
-20 -882 -109 -1637 -174 -2042 -175 -121 -1 -220 0 -222 2 -9 9 661 113 1015
158 1236 157 1426 181 1438 185 6 2 12 11 12 20 0 12 -8 14 -37 10 -21 -3
-162 -21 -313 -40 -151 -19 -346 -44 -432 -56 -87 -11 -163 -19 -169 -17 -25
8 449 80 686 104 137 13 254 29 258 33 25 25 -17 26 -220 5 -120 -13 -219 -21
-221 -20 -6 6 373 76 411 76 34 0 38 2 35 23 -2 14 -9 20 -18 17 -20 -6 -876
-13 -869 -6 2 3 79 19 169 36 115 22 245 37 430 50 146 11 271 20 278 20 7 0
12 15 12 41 l0 42 -52 -7 c-29 -3 -87 -8 -128 -11 -57 -3 -44 0 50 13 l125 17
3 93 c3 109 27 100 -202 72 -136 -17 -455 -28 -421 -14 8 3 605 84 621 84 2 0
4 11 4 25 0 14 -6 25 -13 25 -12 0 -140 -19 -617 -90 -113 -17 -236 -35 -275
-41 -40 -5 -118 -6 -185 -2 l-115 7 65 9 c36 4 250 42 475 83 226 42 466 81
535 87 107 10 125 15 128 30 9 44 3 45 -205 15 -189 -26 -367 -42 -983 -88
-378 -28 -427 -31 -415 -25 6 2 107 16 225 30 118 13 343 40 500 59 157 19
402 49 545 66 337 39 335 39 335 56 0 18 -24 18 -175 -1 -66 -8 -250 -31 -410
-50 -360 -43 -1146 -138 -1660 -200 -301 -37 -525 -54 -723 -56 -95 -1 -175 0
-177 2 -2 3 299 50 668 106 487 74 709 103 807 107 74 3 178 13 230 21 85 13
456 47 985 90 99 8 211 15 250 15 123 0 205 11 205 28 0 12 -26 13 -187 8
-104 -4 -226 -12 -273 -17 -88 -9 -166 -12 -159 -5 10 9 355 49 478 55 l136 6
3 49 3 48 -38 -6 c-21 -3 -222 -10 -448 -16 -423 -10 -702 -23 -887 -41 -154
-16 -153 -6 3 19 481 77 673 106 979 147 190 25 355 48 368 51 20 4 22 10 22
60 l0 56 -37 -6 c-65 -10 -314 -36 -336 -35 -12 1 66 13 173 28 l195 26 3 33
3 32 802 -1 c441 0 867 -4 947 -9 80 -5 207 -13 283 -16 76 -4 133 -10 127
-14 -14 -9 38 -20 90 -20 20 0 81 7 136 15 182 27 832 20 954 -12 38 -9 -45
-25 -405 -78 -170 -25 -314 -47 -319 -48 -5 -2 11 -14 36 -27 l45 -23 264 51
c145 28 332 61 414 73 135 19 160 20 250 9 55 -7 105 -15 110 -18 10 -6 -491
-72 -973 -128 l-43 -5 37 -30 c23 -18 44 -27 58 -24 42 9 427 47 432 42 2 -2
-90 -19 -206 -37 -115 -19 -210 -36 -210 -39 1 -3 10 -17 21 -30 l20 -24 642
76 c857 103 842 101 920 93 38 -4 67 -9 65 -12 -2 -2 -62 -10 -133 -19 -503
-61 -650 -81 -965 -130 -195 -30 -383 -55 -417 -55 -35 0 -63 -3 -63 -6 0 -14
35 -64 45 -64 5 0 109 11 230 25 202 22 479 46 515 44 21 -1 -504 -86 -622
-100 -54 -7 -98 -16 -98 -20 0 -18 24 -59 34 -59 6 0 97 7 201 15 305 24 298
18 -28 -26 -142 -18 -167 -24 -165 -38 4 -19 -49 -24 513 49 566 74 505 69
1185 100 124 5 256 12 294 15 39 3 68 3 65 0 -7 -6 -1819 -232 -1937 -241 -75
-6 -92 -10 -88 -21 4 -8 6 -18 6 -22 0 -8 231 15 645 63 164 20 300 34 302 33
5 -6 -815 -189 -869 -194 -53 -5 -58 -8 -58 -29 0 -19 6 -24 28 -25 23 -2 24
-2 5 -6 -28 -5 -32 -43 -6 -43 10 0 118 11 240 25 144 17 262 25 335 23 l113
-3 -325 -44 c-420 -56 -382 -47 -378 -85 l3 -31 545 -5 545 -5 -110 -22 c-60
-12 -150 -27 -200 -33 -197 -23 -527 -52 -652 -57 -119 -5 -133 -8 -139 -25
-3 -11 -4 -22 -1 -24 2 -3 53 0 113 6 60 5 141 9 179 9 l70 -1 -140 -29 c-77
-15 -154 -28 -172 -28 -45 -1 -63 -10 -63 -32 0 -16 6 -18 48 -14 l47 4 -52
-10 c-53 -11 -82 -39 -40 -39 12 0 254 33 537 74 490 71 836 112 861 104 6 -2
-49 -12 -122 -22 -441 -59 -1286 -177 -1296 -181 -7 -2 -13 -11 -13 -20 0 -12
7 -15 33 -10 17 3 262 37 542 75 923 127 1158 161 1306 185 154 26 980 126
1027 124 32 -1 -55 -15 -443 -68 -159 -22 -405 -56 -545 -76 -140 -20 -496
-69 -790 -111 -686 -96 -1137 -167 -1152 -182 -6 -6 -9 -15 -5 -18 4 -4 186
21 404 55 219 34 544 82 723 107 179 24 404 56 500 69 96 13 290 40 430 60
300 42 963 134 1239 173 222 30 211 23 211 138 0 44 -4 64 -12 64 -7 0 -65 -9
-128 -20 -99 -17 -159 -20 -435 -19 -176 0 -315 2 -310 4 6 2 192 25 415 50
487 54 470 52 470 72 0 13 -9 15 -57 10 -49 -5 -356 -40 -763 -87 -441 -51
-421 -50 -874 -50 -242 0 -437 2 -434 5 3 3 387 57 854 120 616 82 906 117
1057 126 l207 13 0 33 c0 18 -2 33 -3 33 -2 0 -82 -11 -179 -24 -205 -29 -614
-65 -583 -51 10 4 730 95 754 95 13 0 15 36 3 44 -5 3 -55 -2 -113 -10 -516
-72 -1239 -166 -1569 -204 -140 -16 -376 -45 -525 -64 -148 -19 -385 -42 -525
-50 -140 -9 -271 -18 -290 -20 -185 -22 832 203 1055 233 44 6 352 43 685 82
585 68 616 71 940 79 184 5 336 9 338 9 1 1 2 8 2 16 0 12 -19 15 -102 17
l-103 1 98 10 97 10 0 33 0 34 -197 1 c-109 1 -270 4 -358 8 l-160 6 103 14
c56 7 211 28 345 45 204 27 242 35 245 49 2 9 -1 17 -7 17 -6 0 -217 -27 -468
-61 -496 -66 -499 -66 -763 -35 -109 13 -108 20 5 31 33 3 125 12 205 20 80 9
186 20 235 25 50 5 241 25 425 45 184 19 338 35 342 35 5 0 8 11 8 25 0 32 11
33 -350 -10 -162 -19 -306 -34 -320 -34 -34 1 566 98 611 98 44 1 47 4 41 41
l-4 30 -77 1 -76 2 69 11 c38 6 69 14 68 19 -1 4 -2 12 -2 18 0 7 -9 9 -22 6
-85 -21 -456 -58 -558 -55 l-115 3 335 44 c184 24 338 45 342 47 6 4 -18 103
-27 112 -2 2 -90 -1 -197 -7 -491 -28 -846 -41 -1117 -41 -162 0 -292 2 -289
5 2 3 207 21 454 40 565 44 646 51 824 75 223 31 280 41 280 51 0 4 -9 32 -20
62 l-20 54 -323 -48 c-310 -45 -334 -47 -590 -50 -146 -2 -263 -1 -259 2 4 3
92 18 196 34 215 31 433 77 478 100 25 12 73 15 250 15 120 0 218 3 218 6 0 3
-5 14 -10 25 -9 16 -22 19 -84 19 -40 0 -122 3 -182 7 -94 6 -103 8 -64 14 25
4 105 8 178 8 l133 1 -42 80 -43 80 -470 2 -471 3 175 27 c97 15 290 39 430
54 140 14 257 27 259 29 2 2 -17 32 -41 67 l-44 63 -684 5 c-377 3 -679 6
-672 8 8 1 269 33 580 72 698 86 648 78 629 97 -13 13 -63 9 -427 -37 -227
-28 -414 -49 -416 -47 -8 7 606 97 709 103 59 4 107 10 107 13 0 4 -15 22 -34
40 l-34 33 -101 -16 c-56 -9 -134 -15 -174 -15 -67 1 -61 3 86 24 87 13 161
25 163 27 2 3 -16 25 -41 50 -35 37 -53 47 -92 54 -48 8 -48 8 -14 13 l34 6
-48 39 -48 40 -141 -21 c-119 -17 -152 -19 -208 -9 -37 6 -69 14 -72 17 -4 3
56 11 131 18 203 17 243 22 243 32 0 25 -134 20 -414 -16 -95 -12 -103 -11
-234 16 -125 27 -166 39 -131 39 8 0 82 7 164 14 83 8 215 18 295 22 80 4 156
10 170 14 l25 7 -33 17 c-28 15 -45 15 -135 7 -56 -6 -151 -12 -212 -15 -91
-4 -75 -1 95 18 187 20 203 24 178 36 -24 11 -57 10 -219 -5 -104 -9 -192 -15
-195 -13 -2 3 26 8 63 12 130 12 283 38 277 47 -3 5 -23 18 -44 29 -32 17 -61
20 -162 21 -107 1 -116 2 -68 10 30 5 71 11 90 15 l35 6 -65 30 c-69 32 -89
33 -355 13 -56 -4 -57 -3 -15 4 25 5 89 12 143 16 53 4 97 11 97 16 0 24 -107
18 -584 -30 -446 -45 -731 -63 -714 -46 8 8 240 42 478 71 441 52 547 64 588
64 24 0 41 4 38 9 -8 12 -79 24 -136 23 -38 0 -41 0 -15 7 l30 7 -44 11 c-33
9 -79 8 -195 -2 -83 -8 -257 -23 -386 -35 -129 -11 -309 -27 -400 -35 -191
-17 -369 -27 -355 -21 10 5 484 76 805 121 217 31 246 39 178 49 -47 7 -250
-20 -828 -109 -124 -19 -238 -35 -253 -35 -42 0 -126 27 -172 54 l-40 24 35 6
c19 3 96 13 170 21 74 9 189 22 255 30 66 8 198 24 294 35 96 11 177 22 179
25 3 3 0 5 -7 5 -6 0 -76 7 -154 16 -162 18 -179 17 -417 -24 -167 -29 -341
-50 -330 -40 3 3 116 22 252 43 136 22 246 40 245 41 -1 2 -72 7 -157 13
l-155 10 -594 -75 c-327 -41 -599 -73 -605 -71 -5 2 26 8 70 15 434 64 879
134 883 137 2 3 -37 5 -88 5 -67 0 -264 -26 -709 -95 -340 -52 -853 -130
-1142 -174 -289 -45 -550 -85 -580 -91 -70 -12 -348 -45 -510 -60 -71 -6 -251
-10 -414 -8 l-290 3 535 79 c294 43 777 114 1074 157 297 44 614 90 705 104
91 13 246 36 345 50 99 14 194 30 210 34 18 6 -84 9 -265 10 -290 1 -655 -18
-1230 -64 -615 -49 -833 -77 -1600 -205 -478 -79 -798 -127 -965 -145 -238
-24 -273 -25 -734 -23 l-484 3 1124 148 c618 82 1234 161 1369 178 135 16 322
38 415 50 94 11 221 26 283 34 62 7 116 16 120 20 18 19 -724 -4 -1253 -39
-302 -20 -563 -35 -580 -35 -53 2 204 37 384 53 96 9 176 18 179 21 9 9 -766
5 -893 -5 -159 -12 -481 -21 -393 -11 232 26 -141 27 -537 1z m433 -17 c-21
-2 -57 -2 -80 0 -24 2 -7 4 37 4 44 0 63 -2 43 -4z m-175 -10 c-13 -2 -35 -2
-50 0 -16 2 -5 4 22 4 28 0 40 -2 28 -4z m4162 2 c-16 -6 -555 -72 -770 -95
-1197 -123 -1656 -171 -1690 -176 -22 -4 -38 -4 -35 -1 10 10 729 127 905 147
319 37 525 54 1340 114 185 14 268 17 250 11z m1478 -52 c-7 -2 -21 -2 -30 0
-10 3 -4 5 12 5 17 0 24 -2 18 -5z m-63 -9 c-16 -4 -706 -105 -880 -129 -134
-19 -649 -67 -662 -63 -5 2 176 27 404 56 227 29 564 73 748 96 290 38 442 53
390 40z m-5347 -21 c-13 -2 -35 -2 -50 0 -16 2 -5 4 22 4 28 0 40 -2 28 -4z
m-100 -10 c-13 -2 -33 -2 -45 0 -13 2 -3 4 22 4 25 0 35 -2 23 -4z m3380 -30
c-7 -2 -19 -2 -25 0 -7 3 -2 5 12 5 14 0 19 -2 13 -5z m-703 -104 c-366 -54
-773 -114 -905 -134 l-240 -35 -370 1 c-243 1 -351 4 -315 10 30 5 314 35 630
69 316 33 622 65 680 71 764 82 1103 117 1140 117 25 0 -254 -44 -620 -99z
m2911 21 c34 -22 69 -40 78 -41 11 0 10 -3 -5 -9 -47 -19 -301 -41 -679 -60
-220 -11 -434 -23 -475 -26 -41 -4 -73 -4 -70 -1 3 3 169 33 370 67 201 34
426 72 500 85 194 33 207 33 281 -15z m-974 -66 c-3 -3 -12 -4 -19 -1 -8 3 -5
6 6 6 11 1 17 -2 13 -5z m1783 -31 l-225 -35 -75 18 c-41 9 -70 19 -63 21 15
5 441 30 523 31 48 0 7 -9 -160 -35z m-1835 21 c-5 -2 -161 -29 -345 -59 -297
-49 -350 -55 -470 -54 l-135 1 120 19 c66 10 219 30 340 44 121 14 267 32 325
39 102 13 185 19 165 10z m-806 -28 c-17 -17 -648 -86 -772 -85 -114 1 -74 11
113 28 430 39 567 52 580 55 23 5 84 7 79 2z m2219 -18 c84 -21 86 -22 52 -30
-45 -11 -386 -26 -715 -31 -282 -5 -288 2 -25 28 218 22 549 52 578 54 12 0
62 -9 110 -21z m1417 -33 c-49 -20 -228 -35 -387 -34 l-183 2 235 17 c231 17
355 22 335 15z m-2690 -16 c-33 -4 -154 -10 -270 -13 l-210 -4 190 12 c105 7
226 13 270 13 l80 0 -60 -8z m755 -65 c-8 -2 -183 -29 -387 -59 l-373 -55
-342 1 -343 1 335 53 c184 30 346 56 360 58 32 5 770 6 750 1z m283 -1 c-7 -2
-19 -2 -25 0 -7 3 -2 5 12 5 14 0 19 -2 13 -5z m792 -10 c44 -9 84 -19 88 -23
15 -13 -241 -42 -443 -50 -113 -5 -342 -11 -510 -14 l-305 -5 195 34 c400 70
802 94 975 58z m290 1 c-66 -11 -88 -11 -135 0 -55 14 -54 14 80 14 l135 0
-80 -14z m720 11 c-19 -7 -556 -47 -562 -42 -2 3 22 9 54 13 32 4 94 12 138
19 70 11 396 19 370 10z m-3115 -11 c-8 -2 -161 -26 -340 -54 l-325 -50 -345
-5 c-392 -5 -393 -7 30 61 185 30 275 39 425 44 213 7 578 10 555 4z m990 -44
c-268 -46 -493 -74 -395 -49 57 14 614 97 650 97 17 0 -98 -22 -255 -48z
m-2205 24 c-19 -7 -768 -95 -784 -92 -12 3 442 69 624 91 42 5 172 6 160 1z
m-2302 -15 c-24 -4 -154 -24 -290 -44 -246 -35 -250 -35 -543 -33 l-295 3 245
42 245 41 340 0 c209 0 324 -3 298 -9z m547 5 c-31 -7 -592 -56 -596 -52 -12
13 353 55 476 56 74 0 128 -2 120 -4z m605 -19 c-188 -22 -390 -39 -335 -29
99 19 399 52 460 52 58 0 30 -6 -125 -23z m562 19 c-3 -3 -12 -4 -19 -1 -8 3
-5 6 6 6 11 1 17 -2 13 -5z m-137 -24 c-58 -9 -127 -20 -155 -23 -47 -6 -48
-5 -15 5 54 16 180 36 230 36 31 0 12 -6 -60 -18z m-923 -6 c-3 -3 -12 -4 -19
-1 -8 3 -5 6 6 6 11 1 17 -2 13 -5z m5600 0 c-3 -3 -12 -4 -19 -1 -8 3 -5 6 6
6 11 1 17 -2 13 -5z m381 -1 c-10 -2 -26 -2 -35 0 -10 3 -2 5 17 5 19 0 27 -2
18 -5z m-6218 -29 c-107 -12 -226 -22 -265 -22 -81 1 -71 3 175 27 262 26 323
23 90 -5z m5763 19 c-13 -2 -33 -2 -45 0 -13 2 -3 4 22 4 25 0 35 -2 23 -4z
m-188 -13 c13 -6 15 -9 5 -9 -8 -1 -109 -12 -225 -26 -206 -25 -485 -48 -493
-41 -11 12 348 66 498 75 193 11 192 11 215 1z m-5222 -7 c-7 -2 -21 -2 -30 0
-10 3 -4 5 12 5 17 0 24 -2 18 -5z m362 -8 c-27 -7 -84 -13 -125 -13 l-75 1
90 12 c50 7 106 12 125 12 32 1 31 0 -15 -12z m3950 -20 c-5 -2 -122 -20 -260
-39 -248 -35 -562 -56 -1065 -71 l-165 -4 287 48 287 49 413 9 c532 12 515 12
503 8z m-1205 -25 c-14 -5 -140 -27 -280 -50 -183 -29 -278 -40 -335 -38 -74
3 -59 6 215 46 331 47 341 49 390 50 32 0 33 0 10 -8z m-4062 -5 c-11 -11
-732 -85 -812 -84 -78 1 -79 2 -31 10 129 21 329 43 670 72 71 6 178 7 173 2z
m1057 -5 c-11 -5 -129 -25 -262 -45 -238 -34 -249 -35 -540 -34 -216 1 -279 4
-228 10 98 12 434 48 595 63 157 16 466 20 435 6z m1680 4 c-5 -2 -165 -22
-354 -44 l-345 -40 -440 1 -441 1 305 24 c168 12 373 32 455 42 123 16 212 20
490 20 187 0 336 -1 330 -4z m825 -14 c-479 -74 -435 -70 -830 -69 l-365 1
195 24 c107 13 245 32 305 43 93 16 163 19 460 19 l350 0 -115 -18z m2525 -16
c-473 -48 -765 -71 -740 -59 6 2 154 18 330 34 176 17 336 32 355 34 19 2 69
4 110 4 64 0 56 -2 -55 -13z m638 -21 c70 -14 124 -29 120 -33 -4 -4 -449 -62
-988 -129 l-980 -121 -670 1 c-583 1 -661 3 -600 14 697 131 1027 171 1515
185 268 8 453 20 830 55 267 25 492 47 500 49 48 12 160 3 273 -21z m-2408
-54 c-16 -5 -93 -13 -170 -18 -184 -13 -753 -22 -695 -12 25 5 171 12 325 16
154 4 332 11 395 15 63 3 129 7 145 8 l30 0 -30 -9z m2753 -20 c34 -6 61 -13
60 -15 -5 -5 -1005 -153 -1177 -174 -134 -16 -220 -20 -460 -19 l-296 1 890
113 c490 62 897 111 905 110 8 -2 43 -9 78 -16z m-8240 -6 c-10 -2 -26 -2 -35
0 -10 3 -2 5 17 5 19 0 27 -2 18 -5z m1087 0 c-16 -1 -160 -12 -320 -23 -159
-12 -372 -30 -473 -40 -154 -17 -450 -27 -417 -15 6 2 109 14 230 25 121 12
297 29 390 39 116 13 241 19 395 18 124 0 212 -2 195 -4z m1710 1 c-11 -2
-155 -21 -320 -41 -276 -33 -326 -37 -630 -41 -181 -2 -327 -1 -324 2 3 3 82
24 175 45 l169 40 475 -1 c261 0 466 -2 455 -4z m1038 -19 c-115 -20 -200 -25
-690 -40 -307 -9 -574 -15 -593 -13 -19 1 102 19 270 39 305 37 305 37 725 37
l420 0 -132 -23z m532 10 c-65 -12 -388 -30 -355 -20 50 16 211 33 310 33
l115 0 -70 -13z m-3250 -30 c-44 -17 -339 -45 -459 -44 -170 2 -153 5 153 28
237 18 325 23 306 16z m335 -17 c-41 -10 -118 -21 -170 -23 -113 -5 -97 1 65
25 159 23 198 23 105 -2z m6943 15 c-7 -2 -19 -2 -25 0 -7 3 -2 5 12 5 14 0
19 -2 13 -5z m-3808 -63 c-657 -95 -729 -101 -1160 -98 l-370 3 410 38 c226
21 496 52 600 69 193 31 422 44 785 45 l135 1 -400 -58z m3742 54 c-3 -3 -12
-4 -19 -1 -8 3 -5 6 6 6 11 1 17 -2 13 -5z m317 -10 c25 -4 46 -10 46 -13 0
-19 -497 -72 -655 -70 -55 1 142 35 390 68 172 23 162 22 219 15z m-4714 -20
c-31 -7 -462 -45 -466 -41 -12 12 252 45 361 45 66 0 113 -2 105 -4z m-531 -9
c-8 -8 -485 -85 -621 -100 -105 -12 -267 -15 -758 -14 l-625 1 360 43 c343 40
378 43 755 50 336 6 706 16 854 23 22 1 37 0 35 -3z m-2240 -30 c-3 -2 -83
-22 -178 -45 l-174 -40 -251 1 -251 1 155 20 c85 10 223 29 305 42 132 21 408
36 394 21z m561 -6 c-25 -4 -108 -15 -185 -24 -77 -9 -199 -25 -271 -36 -74
-11 -165 -19 -210 -17 l-79 3 180 41 180 42 215 0 c144 0 200 -3 170 -9z
m3059 -13 c-10 -10 -412 -66 -465 -65 -57 1 -56 2 36 16 221 33 438 58 429 49z
m3791 -32 c-137 -20 -260 -33 -315 -32 l-90 0 140 24 c139 24 314 41 430 42
39 0 -19 -12 -165 -34z m-585 -25 c-22 -4 -87 -7 -145 -7 l-105 2 80 6 c44 3
109 7 145 7 59 1 61 0 25 -8z m-7156 -53 c-2 -2 -29 -6 -59 -9 -36 -4 -46 -3
-30 3 25 8 97 13 89 6z m1096 -21 c-126 -13 -296 -33 -377 -44 -131 -19 -197
-21 -570 -21 -232 0 -419 2 -416 5 3 3 120 23 259 44 l254 39 540 0 540 0
-230 -23z m1170 -10 c-165 -19 -349 -38 -410 -44 -115 -11 -473 -15 -463 -5 4
3 109 23 235 44 l228 38 355 0 355 0 -300 -33z m760 -6 c-210 -34 -508 -62
-466 -43 33 15 534 82 616 82 88 0 83 -1 -150 -39z m1550 -1 l-290 -40 -560
-5 c-308 -2 -557 -2 -553 2 3 4 102 24 220 45 l213 38 630 0 630 0 -290 -40z
m886 31 c-281 -20 -585 -39 -614 -38 -18 1 45 12 138 24 132 18 217 23 380 22
197 0 203 0 96 -8z m774 6 c-30 -12 -628 -97 -735 -105 -199 -15 -473 -31
-477 -27 -2 2 77 14 174 25 98 12 324 40 503 62 179 21 350 41 380 43 81 5
167 6 155 2z m425 -26 c-114 -19 -246 -33 -425 -43 -142 -8 -260 -14 -262 -12
-2 2 63 13 144 26 82 13 195 31 253 41 73 12 158 17 280 17 l175 0 -165 -29z
m425 10 c-66 -10 -147 -17 -180 -17 -59 1 -59 1 40 18 55 10 136 18 180 18
l80 -1 -120 -18z m463 14 c-21 -2 -55 -2 -75 0 -21 2 -4 4 37 4 41 0 58 -2 38
-4z m-6258 -54 c-118 -20 -198 -28 -280 -28 -63 0 -109 3 -101 6 18 7 452 50
506 51 22 0 -34 -13 -125 -29z m5895 -5 c-5 -2 -104 -17 -220 -34 -115 -17
-331 -49 -480 -70 -148 -22 -297 -39 -330 -39 -59 1 -60 2 -20 10 58 13 785
119 880 128 86 9 186 12 170 5z m-2070 -11 c-16 -2 -100 -15 -185 -28 -194
-31 -420 -60 -620 -80 -153 -16 -750 -33 -740 -22 16 17 708 88 1065 110 348
22 564 31 480 20z m1400 -28 c-19 -7 -438 -66 -441 -62 -7 7 349 65 401 65 28
0 46 -1 40 -3z m-6166 -19 c-2 -2 -110 -23 -240 -45 l-237 -41 -403 0 c-221 0
-400 2 -398 4 4 5 246 60 324 75 48 8 963 15 954 7z m546 -2 c-5 -2 -119 -22
-252 -44 -207 -34 -262 -40 -385 -39 -79 0 -137 3 -130 6 7 3 115 22 240 43
195 33 249 38 382 38 85 0 151 -1 145 -4z m435 -10 c-58 -7 -215 -24 -350 -38
-135 -15 -261 -29 -280 -32 -19 -3 -32 -3 -29 1 4 3 110 24 235 45 197 33 250
38 379 38 l150 -1 -105 -13z m595 10 c-5 -2 -130 -22 -277 -44 -235 -35 -287
-40 -435 -39 -92 0 -163 2 -158 4 6 3 156 20 335 39 179 19 339 37 355 39 40
5 193 6 180 1z m544 2 c-12 -12 -615 -86 -690 -85 -106 2 -97 4 211 49 167 25
294 38 369 39 63 1 112 -1 110 -3z m1416 -1 c-5 -2 -154 -22 -331 -45 l-321
-40 -383 0 c-211 0 -381 2 -379 4 2 2 99 20 214 40 116 21 217 38 225 40 21 5
987 5 975 1z m1960 -40 c-240 -42 -258 -44 -464 -44 -118 -1 -212 1 -210 3 13
13 458 67 609 74 336 17 341 14 65 -33z m1228 38 c-7 -2 -21 -2 -30 0 -10 3
-4 5 12 5 17 0 24 -2 18 -5z m-70 -10 c-7 -2 -21 -2 -30 0 -10 3 -4 5 12 5 17
0 24 -2 18 -5z m-60 -10 c-7 -2 -21 -2 -30 0 -10 3 -4 5 12 5 17 0 24 -2 18
-5z m-213 -34 c-150 -25 -245 -35 -212 -22 21 8 305 50 342 50 19 1 -39 -12
-130 -28z m-4317 4 c-7 -2 -19 -2 -25 0 -7 3 -2 5 12 5 14 0 19 -2 13 -5z
m2627 -10 c-68 -12 -458 -29 -401 -16 30 6 369 30 431 30 39 0 35 -1 -30 -14z
m-2730 -9 c-60 -12 -148 -18 -125 -8 16 7 127 22 160 22 17 0 1 -6 -35 -14z
m-1795 -139 c-5 -2 -78 -13 -160 -24 -108 -15 -205 -21 -340 -21 -176 0 -363
15 -350 29 14 14 134 18 485 19 206 0 371 -1 365 -3z m424 1 c-2 -2 -69 -11
-149 -20 -80 -9 -163 -19 -185 -22 -21 -2 -36 -2 -33 1 11 11 231 43 302 44
38 1 67 -1 65 -3z m566 -2 c-29 -11 -338 -44 -408 -43 -45 1 -74 3 -63 6 69
18 510 53 471 37z m544 2 c-2 -2 -92 -9 -199 -15 -107 -6 -215 -14 -240 -18
-71 -9 -40 6 41 21 64 12 409 22 398 12z m1071 -2 c-8 -2 -107 -15 -220 -29
-113 -14 -320 -41 -460 -60 -246 -34 -266 -35 -550 -34 -194 1 -278 4 -245 10
78 13 760 98 860 108 86 8 646 13 615 5z m565 1 c-5 -2 -159 -31 -341 -65
l-331 -60 -264 2 -264 3 140 19 c572 79 797 104 930 104 77 0 136 -1 130 -3z
m310 -6 c-149 -25 -528 -80 -537 -77 -24 8 432 85 507 85 76 1 78 0 30 -8z
m615 -29 c-124 -21 -292 -43 -375 -49 -82 -6 -240 -18 -350 -26 -180 -13 -433
-19 -395 -9 8 3 191 31 405 63 l390 59 275 0 275 0 -225 -38z m685 30 c-38 -4
-92 -7 -120 -7 -47 0 -48 0 -15 7 19 4 73 7 120 7 l85 0 -70 -7z m445 4 c-8
-2 -172 -29 -365 -61 l-350 -56 -340 -3 c-462 -3 -427 2 415 66 69 5 161 12
206 16 44 3 132 14 195 24 95 15 288 26 239 14z m2379 2 c-2 -2 -78 -14 -169
-25 -91 -12 -288 -40 -438 -61 l-273 -40 -907 1 c-499 1 -898 4 -887 6 11 2
180 31 375 63 l355 58 974 1 c536 1 972 -1 970 -3z m-8606 -43 c-13 -2 -33 -2
-45 0 -13 2 -3 4 22 4 25 0 35 -2 23 -4z m2257 -19 c-8 -2 -123 -17 -255 -34
-194 -24 -278 -30 -434 -30 -107 0 -192 2 -190 5 15 14 270 37 514 46 153 5
281 12 284 14 2 3 25 4 50 4 25 -1 39 -3 31 -5z m-1465 -24 c-85 -16 -118 -19
-109 -10 10 9 57 16 114 17 l35 1 -40 -8z m560 5 c-29 -11 -188 -22 -240 -17
-51 5 -55 7 -30 13 30 7 289 11 270 4z m2562 -11 c-3 -3 -12 -4 -19 -1 -8 3
-5 6 6 6 11 1 17 -2 13 -5z m-2921 -19 c17 -13 9 -14 -81 -13 l-100 1 70 12
c94 17 89 17 111 0z m-699 -51 c-3 -3 -12 -4 -19 -1 -8 3 -5 6 6 6 11 1 17 -2
13 -5z m1001 -1 c-38 -2 -98 -2 -135 0 -38 2 -7 3 67 3 74 0 105 -1 68 -3z
m5770 0 c-196 -2 -520 -2 -720 0 -200 1 -39 2 357 2 396 0 559 -1 363 -2z
m1510 0 c-130 -2 -346 -2 -480 0 -134 1 -27 2 237 2 264 0 373 -1 243 -2z
m-8420 -55 c-4 -17 92 -17 282 0 89 9 243 12 400 10 l255 -3 -140 -18 c-120
-15 -218 -17 -695 -16 l-555 2 100 17 c122 21 356 26 353 8z m1877 7 c-33 -12
-255 -35 -342 -35 -91 0 -290 24 -302 36 -2 2 144 4 325 3 181 0 325 -2 319
-4z m895 -6 c-285 -25 -377 -29 -600 -28 l-245 1 110 18 c90 14 175 18 470 17
260 0 334 -2 265 -8z m845 -9 c-91 -14 -179 -18 -365 -18 -135 0 -237 2 -227
5 52 13 336 30 512 30 l200 1 -120 -18z m1015 0 c-86 -15 -160 -18 -405 -18
l-300 0 95 18 c78 14 151 18 405 18 l310 0 -105 -18z m1465 10 c110 -6 265
-15 345 -19 94 -5 -132 -8 -650 -8 -788 0 -794 0 -695 17 81 14 166 18 450 19
193 1 440 -4 550 -9z m818 3 c-40 -2 -107 -2 -150 0 -43 1 -10 3 72 3 83 0
118 -2 78 -3z m997 -14 c-141 -19 -537 -26 -636 -12 l-49 7 65 12 c41 7 191
12 410 12 l345 0 -135 -19z m857 5 c-3 -3 -12 -4 -19 -1 -8 3 -5 6 6 6 11 1
17 -2 13 -5z m-7622 -13 c31 -7 15 -9 -65 -8 -74 0 -93 2 -65 7 56 10 84 10
130 1z m7090 -1 c-11 -5 -49 -8 -85 -8 l-65 1 65 7 c36 4 74 7 85 8 l20 1 -20
-9z m475 0 c-14 -4 -47 -8 -75 -8 l-50 1 40 7 c22 4 56 7 75 8 31 0 32 -1 10
-8z m-7535 -71 c-78 -11 -180 -18 -292 -18 -94 -1 -178 -4 -187 -7 -9 -3 -16
-14 -16 -24 0 -15 -14 -18 -97 -24 -54 -4 -341 -25 -637 -46 -297 -22 -541
-39 -543 -37 -3 3 270 48 542 88 72 11 247 35 390 53 253 33 270 34 610 34
l350 -1 -120 -18z m598 14 c-7 -2 -19 -2 -25 0 -7 3 -2 5 12 5 14 0 19 -2 13
-5z m2337 -15 c-83 -16 -166 -21 -400 -25 -162 -3 -292 -2 -289 1 4 4 55 15
115 25 89 16 161 19 394 19 l285 0 -105 -20z m2260 11 c-183 -36 -265 -39
-1089 -39 -448 0 -812 2 -809 5 3 3 54 14 114 24 101 18 176 19 969 19 526 0
843 -4 815 -9z m1009 7 c-3 -3 -86 -14 -184 -25 -169 -20 -588 -31 -573 -15 3
3 57 14 119 24 88 14 174 18 378 19 145 1 262 -1 260 -3z m-5844 -16 c-16 -4
-46 -8 -65 -8 -32 0 -33 1 -10 8 14 4 43 8 65 8 38 0 39 -1 10 -8z m1503 4
c-14 -13 -257 -33 -403 -33 -225 1 -164 17 105 27 307 13 304 13 298 6z m4752
-6 c-14 -6 -99 -12 -190 -14 l-165 -3 85 13 c109 17 307 20 270 4z m-4577 -15
c-7 -2 -19 -2 -25 0 -7 3 -2 5 12 5 14 0 19 -2 13 -5z m-1025 -10 c-10 -2 -28
-2 -40 0 -13 2 -5 4 17 4 22 1 32 -1 23 -4z m317 -43 c-16 -4 -66 -8 -110 -8
-44 0 -93 4 -110 8 -18 5 26 8 110 8 84 0 128 -3 110 -8z m384 6 c-9 -9 -291
-47 -326 -44 -24 2 14 11 107 24 138 21 228 29 219 20z m790 0 c-9 -9 -654
-106 -699 -106 -25 0 -90 7 -145 15 -55 8 -106 15 -114 15 -45 0 21 14 210 44
203 33 228 34 483 35 148 1 267 -1 265 -3z m2166 -2 c-5 -2 -260 -40 -565 -85
l-555 -81 -645 1 c-614 1 -800 6 -800 20 0 4 206 38 458 78 l457 71 830 0
c457 0 826 -1 820 -4z m890 0 c-20 -7 -1140 -145 -1155 -141 -8 2 19 9 60 16
41 8 219 40 395 71 318 58 321 58 515 58 107 0 191 -1 185 -4z m1262 0 c-8 -9
-124 -28 -402 -68 -446 -65 -574 -77 -770 -74 l-180 3 250 32 c212 28 462 57
870 102 96 10 241 13 232 5z m398 -3 c-29 -26 -774 -141 -950 -147 -174 -6
-139 7 110 41 110 15 308 46 440 70 225 40 424 59 400 36z m-2312 -8 c-7 -2
-21 -2 -30 0 -10 3 -4 5 12 5 17 0 24 -2 18 -5z m-3860 -22 c10 -4 -145 -35
-345 -69 -339 -58 -373 -62 -508 -61 l-145 1 185 24 c102 13 300 46 440 73
249 48 314 54 373 32z m3802 14 c-5 -2 -163 -32 -350 -65 -266 -48 -367 -63
-465 -65 -69 -2 -116 -2 -105 2 31 9 866 131 900 131 17 0 26 -1 20 -3z
m-3605 -45 c14 -4 19 -8 11 -9 -7 -1 -143 -21 -302 -46 -345 -54 -479 -60
-194 -9 186 33 430 72 450 72 6 0 21 -4 35 -8z m283 -41 c76 -12 136 -23 135
-25 -2 -1 -48 -10 -103 -19 -77 -12 -162 -15 -370 -13 l-270 3 230 36 c127 20
232 37 235 38 3 1 67 -8 143 -20z m6112 -64 c-39 -15 -526 -64 -515 -52 3 3
88 15 190 26 102 11 199 22 215 24 41 5 122 6 110 2z m-2255 -15 c6 -4 -30
-10 -81 -13 -112 -8 -274 -9 -267 -2 18 19 322 31 348 15z m675 -11 c-22 -4
-128 -7 -235 -7 -120 1 -174 4 -140 8 82 10 424 10 375 -1z m554 7 c-2 -2 -78
-5 -169 -8 -91 -3 -151 -2 -135 2 30 8 312 13 304 6z m-6244 -21 c-21 -8 -357
-56 -361 -52 -7 6 277 54 326 55 25 0 41 -1 35 -3z m275 -86 c-401 -67 -564
-90 -690 -98 -168 -11 -612 -20 -605 -13 2 2 286 48 632 102 l628 98 280 0
280 0 -525 -89z m1718 80 c53 -7 101 -15 105 -19 4 -4 -43 -10 -105 -13 -95
-5 -727 -49 -1258 -87 -172 -12 -363 -20 -330 -14 14 3 219 36 455 74 l430 68
303 1 c172 1 345 -4 400 -10z m428 -1 c-64 -5 -132 -5 -165 1 -45 7 -23 9 109
8 l165 0 -109 -9z m1429 -8 c-27 -11 -710 -101 -760 -99 -72 1 -4 16 210 44
110 15 256 35 325 45 134 19 260 25 225 10z m-596 -14 c-2 -2 -78 -16 -169
-31 -137 -23 -180 -26 -260 -21 -52 4 -99 11 -103 15 -9 9 170 30 288 34 140
6 248 7 244 3z m1111 -12 c-63 -7 -133 -12 -155 -12 -71 1 114 25 195 25 73 0
72 0 -40 -13z m925 -4 c-22 -5 -101 -14 -175 -20 -74 -6 -232 -21 -350 -33
-201 -19 -834 -37 -819 -23 2 3 146 19 319 35 173 17 353 34 400 39 107 12
681 13 625 2z m960 5 c-62 -22 -839 -85 -1052 -85 -86 0 -154 2 -152 4 11 11
187 27 491 46 183 11 392 24 463 29 138 9 267 12 250 6z m-6642 -22 c-7 -2
-19 -2 -25 0 -7 3 -2 5 12 5 14 0 19 -2 13 -5z m4545 0 c-10 -2 -28 -2 -40 0
-13 2 -5 4 17 4 22 1 32 -1 23 -4z m-1958 -48 c-89 -14 -200 -24 -325 -28
-208 -6 -201 4 15 23 294 25 327 27 385 28 50 0 38 -4 -75 -23z m510 8 l35 -7
-45 -7 c-25 -4 -112 -7 -195 -7 l-150 0 95 19 c92 17 177 18 260 2z m-1160
-19 c-113 -17 -234 -26 -449 -33 -396 -14 -398 -7 -6 19 88 6 239 17 335 24
261 20 297 17 120 -10z m5395 -40 c-563 -83 -590 -85 -975 -94 -201 -5 -481
-14 -623 -21 -141 -7 -260 -10 -263 -7 -5 6 474 101 591 118 39 5 282 10 540
11 259 1 533 5 610 8 274 14 298 11 120 -15z m-6572 9 c-7 -2 -19 -2 -25 0 -7
3 -2 5 12 5 14 0 19 -2 13 -5z m3834 -9 c-3 -4 -76 -19 -162 -34 l-155 -27
-168 23 c-92 13 -176 24 -187 25 -11 1 3 5 30 9 64 9 650 12 642 4z m1261 1
c-3 -3 -126 -31 -274 -63 l-269 -56 -310 -3 c-228 -2 -330 0 -385 10 -69 13
-72 14 -40 20 32 6 1025 83 1165 90 33 2 73 4 89 5 16 1 27 0 24 -3z m-3178
-11 c-52 -13 -851 -114 -879 -112 -20 2 119 28 309 60 285 46 366 56 465 56
66 0 113 -2 105 -4z m438 -1 c-10 -2 -26 -2 -35 0 -10 3 -2 5 17 5 19 0 27 -2
18 -5z m1725 0 c-7 -2 -19 -2 -25 0 -7 3 -2 5 12 5 14 0 19 -2 13 -5z m305 0
c-10 -2 -26 -2 -35 0 -10 3 -2 5 17 5 19 0 27 -2 18 -5z m-2999 -7 c-2 -3
-144 -27 -314 -55 l-310 -51 -229 2 -229 3 339 48 c186 26 377 49 424 50 170
6 323 7 319 3z m2634 -3 c-7 -2 -21 -2 -30 0 -10 3 -4 5 12 5 17 0 24 -2 18
-5z m-809 -34 c117 -15 171 -25 155 -30 -62 -19 -517 -40 -779 -37 l-275 3
340 46 c187 26 349 45 360 43 11 -1 101 -13 199 -25z m739 24 c-7 -2 -21 -2
-30 0 -10 3 -4 5 12 5 17 0 24 -2 18 -5z m-3613 -49 l-285 -43 -540 2 c-509 2
-532 3 -405 15 74 7 207 21 295 32 158 20 616 36 1040 37 l180 1 -285 -44z
m3543 39 c-7 -2 -19 -2 -25 0 -7 3 -2 5 12 5 14 0 19 -2 13 -5z m2567 -29
c-41 -7 -95 -12 -120 -12 -34 0 -24 4 40 13 114 16 174 16 80 -1z m-7760 -10
c-33 -8 -801 -56 -807 -51 -9 9 259 39 412 46 176 8 421 11 395 5z m3017 0
c-3 -3 -12 -4 -19 -1 -8 3 -5 6 6 6 11 1 17 -2 13 -5z m-132 -25 c-49 -10
-115 -17 -145 -17 -46 1 -36 4 60 18 151 23 199 23 85 -1z m2088 -16 c-13 -2
-35 -2 -50 0 -16 2 -5 4 22 4 28 0 40 -2 28 -4z m-3218 -53 c-70 -20 -680
-111 -905 -135 -135 -14 -325 -35 -422 -45 -222 -25 -241 -24 -148 5 76 25
275 63 565 110 479 77 445 73 700 73 148 0 229 -3 210 -8z m4765 -1 c-76 -14
-459 -59 -508 -59 -57 0 -212 22 -212 30 0 3 51 13 113 22 123 17 695 24 607
7z m1145 5 c-5 -2 -66 -10 -135 -18 -69 -8 -338 -40 -598 -71 -419 -50 -498
-57 -481 -41 2 2 90 14 194 26 105 13 334 42 510 65 189 25 361 43 420 43 55
0 96 -1 90 -4z m545 2 c0 -9 -168 -33 -650 -91 -162 -19 -407 -49 -545 -65
-235 -29 -356 -32 -370 -11 -2 4 65 15 148 24 84 10 388 46 677 81 453 55 740
79 740 62z m-6517 -93 c-13 -2 -33 -2 -45 0 -13 2 -3 4 22 4 25 0 35 -2 23 -4z
m-118 -13 c-27 -5 -68 -8 -90 -8 l-40 1 45 7 c25 4 65 7 90 7 l45 0 -50 -7z
m-230 -25 c-117 -15 -248 -26 -223 -19 30 9 230 32 278 31 25 0 1 -5 -55 -12z
m6518 -2 c-7 -2 -19 -2 -25 0 -7 3 -2 5 12 5 14 0 19 -2 13 -5z m-1568 -33
c-22 -5 -74 -11 -115 -13 l-75 -6 70 13 c39 8 90 14 115 14 l45 0 -40 -8z
m915 -16 c-155 -29 -270 -41 -270 -27 0 10 288 50 360 51 19 0 -21 -11 -90
-24z m-1127 -11 c-7 -2 -19 -2 -25 0 -7 3 -2 5 12 5 14 0 19 -2 13 -5z m-5733
-44 c-46 -9 -247 -35 -335 -43 -42 -4 -46 -3 -23 5 15 6 98 18 185 28 175 20
246 24 173 10z m6495 1 c11 -5 15 -9 8 -9 -6 -1 -45 -5 -85 -11 -40 -5 -219
-26 -398 -45 -179 -19 -431 -46 -560 -60 -242 -26 -266 -28 -259 -21 8 7 344
56 599 87 140 17 320 39 400 49 159 20 264 23 295 10z m415 -50 c91 -11 171
-20 179 -20 66 0 -89 -22 -809 -116 -63 -8 -198 -26 -300 -39 -102 -13 -300
-31 -440 -40 -140 -8 -284 -18 -320 -21 -36 -4 -63 -4 -60 -1 3 3 264 51 580
106 729 128 670 118 775 130 50 6 101 13 115 15 58 8 124 5 280 -14z m929 -51
c142 -1 109 -10 -129 -33 -91 -9 -192 -21 -225 -26 -92 -14 -1201 -67 -1135
-54 14 3 221 32 460 64 l435 60 239 -5 c132 -3 291 -5 355 -6z m-8722 -45 c-3
-3 -12 -4 -19 -1 -8 3 -5 6 6 6 11 1 17 -2 13 -5z m2118 -5 c-27 -4 -234 -15
-460 -23 -455 -17 -480 -18 -474 -12 5 5 403 35 524 39 184 7 459 4 410 -4z
m-1002 -6 c-7 -2 -19 -2 -25 0 -7 3 -2 5 12 5 14 0 19 -2 13 -5z m-763 -49
c-41 -8 -97 -13 -125 -12 -42 3 -35 5 45 14 132 15 169 14 80 -2z m1310 -10
c-8 -2 -193 -32 -410 -65 l-395 -62 -375 -3 c-246 -3 -368 -1 -355 6 44 21
533 91 705 101 286 16 866 32 830 23z m-1535 -85 c-220 -39 -376 -58 -363 -45
11 13 459 84 523 84 46 0 10 -9 -160 -39z m-315 5 c-68 -14 -117 -18 -108 -9
9 9 90 23 133 23 34 0 31 -2 -25 -14z m-135 -74 c11 -5 16 -9 12 -9 -5 -1 -96
-17 -204 -37 -107 -19 -197 -33 -199 -31 -11 11 91 42 201 63 135 24 161 26
190 14z m610 -16 c-9 -3 -528 -47 -695 -58 -95 -7 -81 -2 110 33 141 26 175
29 375 29 121 0 216 -1 210 -4z m7855 -60 c-8 -2 -319 -45 -690 -95 -615 -83
-950 -117 -928 -94 4 4 91 18 195 31 103 13 355 47 558 74 315 42 445 56 770
83 56 5 113 5 95 1z m-6600 -60 c-8 -2 -160 -24 -337 -49 -321 -45 -323 -45
-609 -45 -158 0 -285 3 -281 6 3 3 259 25 569 49 507 38 701 50 658 39z m227
-10 c-3 -3 -12 -4 -19 -1 -8 3 -5 6 6 6 11 1 17 -2 13 -5z m-102 -20 c-102
-20 -536 -76 -543 -69 -3 3 1 5 9 6 8 0 131 17 274 38 265 39 391 51 260 25z
m-1452 -101 c-51 -2 -136 -2 -190 0 -54 1 -12 3 92 3 105 0 149 -2 98 -3z
m1042 -39 c-5 -2 -213 -31 -461 -64 -432 -58 -457 -60 -635 -58 l-184 3 300
39 c165 21 377 49 470 61 121 16 221 23 345 23 96 0 171 -1 165 -4z m490 -10
c-233 -35 -892 -115 -924 -112 -20 2 79 20 219 42 140 21 320 49 400 61 94 15
189 23 270 23 l125 0 -90 -14z m710 11 c-57 -21 -387 -68 -529 -75 -361 -19
-378 -20 -311 -9 227 38 896 104 840 84z m5185 -10 c-36 -8 -183 -37 -327 -64
l-261 -51 -619 2 -618 3 450 61 450 62 495 0 c438 0 488 -2 430 -13z m845 8
l160 -7 -115 -18 c-104 -16 -231 -30 -515 -58 -199 -20 -360 -30 -558 -35
l-202 -4 145 30 c80 16 233 45 340 64 175 30 215 34 390 34 107 1 267 -2 355
-6z m643 -8 c-7 -7 -279 -46 -297 -42 -9 2 40 12 109 24 124 20 198 28 188 18z
m-7320 -112 c-10 -2 -28 -2 -40 0 -13 2 -5 4 17 4 22 1 32 -1 23 -4z m6865
-10 c-7 -2 -21 -2 -30 0 -10 3 -4 5 12 5 17 0 24 -2 18 -5z m-643 -14 c-81
-16 -233 -37 -310 -42 -92 -7 -69 -2 130 28 159 24 273 32 180 14z m-7527 -26
c-7 -2 -19 -2 -25 0 -7 3 -2 5 12 5 14 0 19 -2 13 -5z m947 -9 c-337 -54 -800
-96 -1020 -93 l-65 1 75 14 c41 8 176 32 300 53 l225 39 285 0 c276 0 282 -1
200 -14z m703 6 c-54 -11 -495 -43 -525 -38 -13 2 31 10 97 17 66 7 145 17
175 21 78 11 309 11 253 0z m4956 6 c-2 -2 -35 -6 -74 -9 -44 -4 -63 -3 -50 3
19 8 133 14 124 6z m420 0 c-11 -12 -534 -79 -669 -87 -172 -9 -296 -11 -289
-5 2 3 106 14 229 26 124 12 329 32 455 44 254 26 280 28 274 22z m-5879 -102
c-98 -20 -140 -23 -280 -21 -157 2 -162 3 -110 14 52 12 312 30 445 30 57 1
55 0 -55 -23z m4760 -45 c-25 -4 -67 -7 -95 -7 -47 1 -48 1 -15 8 19 4 62 7
95 7 l60 0 -45 -8z m-4095 -20 c-28 -7 -810 -170 -1055 -219 -85 -17 -667 -93
-875 -115 l-50 -5 75 30 c118 48 513 175 650 210 69 18 206 49 305 70 l180 38
400 0 c239 0 388 -3 370 -9z m3942 5 c-3 -3 -12 -4 -19 -1 -8 3 -5 6 6 6 11 1
17 -2 13 -5z m-389 -81 c-10 -2 -26 -2 -35 0 -10 3 -2 5 17 5 19 0 27 -2 18
-5z m-4211 -119 c-3 -3 -12 -4 -19 -1 -8 3 -5 6 6 6 11 1 17 -2 13 -5z m613
-190 c-8 -2 -143 -17 -300 -34 -278 -29 -540 -43 -540 -27 0 4 10 7 22 7 12 0
118 9 237 20 334 30 643 49 581 34z m288 -11 c-10 -2 -26 -2 -35 0 -10 3 -2 5
17 5 19 0 27 -2 18 -5z m-63 -8 c-16 -6 -313 -44 -377 -48 -32 -2 -58 -1 -58
3 0 4 80 16 178 27 164 18 281 27 257 18z m-660 -95 c-22 -5 -164 -27 -315
-49 -151 -23 -486 -73 -745 -111 -370 -56 -509 -73 -655 -80 -205 -9 -872 -20
-825 -13 17 2 545 62 1175 133 883 98 1175 128 1275 128 95 0 119 -2 90 -8z
m6858 -137 c-13 -2 -35 -2 -50 0 -16 2 -5 4 22 4 28 0 40 -2 28 -4z m-228 -19
c-82 -7 -375 -31 -650 -54 -275 -22 -576 -47 -670 -55 -226 -19 -532 -30 -522
-19 14 15 316 41 907 79 311 20 651 42 755 49 256 18 376 18 180 0z m444 -19
c-3 -2 -94 -29 -203 -60 -194 -54 -202 -55 -329 -55 -72 0 -128 2 -125 5 3 3
99 21 214 41 115 19 254 44 309 54 106 19 141 23 134 15z m-320 -9 c-2 -3
-137 -27 -300 -55 l-295 -51 -310 1 c-375 2 -354 6 251 54 248 20 484 40 525
44 92 10 135 12 129 7z m-6264 -12 c-68 -12 -670 -75 -693 -72 -27 3 383 66
468 71 64 5 249 5 225 1z m-690 -29 c-8 -4 -666 -105 -775 -120 -59 -8 -398
-33 -530 -40 -69 -3 -165 -8 -215 -11 -49 -4 -88 -4 -85 -1 7 8 401 74 515 86
249 28 429 45 885 80 113 9 221 12 205 6z m613 -22 c-10 -2 -26 -2 -35 0 -10
3 -2 5 17 5 19 0 27 -2 18 -5z m-1559 -8 c-3 -2 -61 -11 -129 -19 -69 -8 -288
-42 -488 -76 -298 -50 -397 -62 -555 -70 -197 -10 -280 -11 -262 -5 6 3 102
18 215 35 835 125 789 119 995 129 228 11 229 11 224 6z m1391 -15 c-106 -17
-210 -25 -184 -14 18 8 215 31 259 32 22 0 -12 -8 -75 -18z m-487 -7 c-7 -2
-21 -2 -30 0 -10 3 -4 5 12 5 17 0 24 -2 18 -5z m4722 -54 c-93 -13 -823 -71
-837 -67 -22 8 697 76 797 76 95 -1 97 -1 40 -9z m730 1 c-11 -5 -166 -42
-345 -82 l-325 -73 -740 -1 c-407 -1 -733 0 -725 1 8 2 107 11 220 20 113 8
255 20 315 26 106 9 929 77 1265 103 198 16 364 19 335 6z m730 5 c-5 -2 -62
-13 -125 -24 -110 -20 -929 -105 -936 -98 -2 2 117 31 264 64 l267 61 270 0
c149 0 266 -1 260 -3z m574 1 c-11 -11 -197 -47 -340 -66 -513 -67 -662 -81
-929 -85 l-265 -4 370 39 c216 22 463 55 595 78 202 36 243 40 399 41 96 1
172 -1 170 -3z m366 -1 c-14 -6 -389 -55 -406 -54 -8 1 36 14 96 29 85 21 134
28 215 28 58 0 101 -1 95 -3z m-7466 -59 c-13 -13 -262 -35 -439 -40 -290 -8
-215 11 110 28 312 16 334 17 329 12z m4174 -23 c-7 -2 -21 -2 -30 0 -10 3 -4
5 12 5 17 0 24 -2 18 -5z m-4778 -64 c-40 -9 -464 -22 -435 -14 42 13 172 22
315 23 119 0 150 -3 120 -9z m-640 -9 c-16 -4 -50 -7 -75 -7 l-45 0 50 7 c28
4 61 7 75 7 22 1 21 0 -5 -7z m-62 -57 c-7 -2 -21 -2 -30 0 -10 3 -4 5 12 5
17 0 24 -2 18 -5z m582 -4 c-27 -5 -207 -34 -399 -64 -271 -43 -372 -55 -450
-54 l-101 2 90 14 c225 34 815 110 860 110 l50 1 -50 -9z m2635 0 c-217 -3
-730 -12 -1140 -18 -883 -13 -972 -16 -1240 -41 -113 -10 -283 -26 -377 -35
-95 -9 -180 -15 -189 -13 -9 2 127 28 302 60 l319 56 1360 -1 c932 0 1236 -3
965 -8z m2659 6 c-15 -14 -841 -86 -1089 -95 -785 -27 -941 -31 -1240 -28
l-325 3 230 33 c372 52 522 60 1390 72 440 6 829 12 865 14 36 1 89 3 119 4
30 1 52 0 50 -3z m796 -15 c-140 -17 -522 -36 -500 -25 6 3 51 13 100 24 74
16 131 19 320 19 l230 0 -150 -18z m500 10 c-27 -5 -68 -8 -90 -8 -38 1 -38 1
10 8 28 4 68 7 90 7 38 0 37 0 -10 -7z m-1150 -31 c-36 -11 -281 -32 -321 -27
-30 3 242 35 311 36 39 0 39 0 10 -9z m-2647 -4 c-7 -8 -452 -42 -835 -65
-294 -17 -449 -20 -1125 -19 -431 1 -776 3 -768 5 8 2 114 12 235 23 169 15
378 23 900 31 632 11 1385 25 1534 28 35 1 62 0 59 -3z m4070 0 c-5 -5 -611
-80 -1248 -154 -277 -32 -395 -41 -679 -50 -189 -7 -346 -10 -348 -7 -14 14
268 49 572 71 337 24 474 34 748 55 70 5 230 24 355 41 192 26 332 38 566 47
22 1 37 0 34 -3z m482 -1 c-58 -15 -1321 -164 -1425 -168 -71 -3 -125 -4 -120
-1 6 2 107 16 225 30 298 35 769 92 990 119 154 20 383 33 330 20z m825 0
c-11 -2 -249 -24 -530 -49 -280 -25 -607 -54 -725 -65 -217 -19 -406 -31 -360
-23 14 3 266 35 560 73 l535 68 270 -1 c149 0 261 -1 250 -3z m-2066 -28 c-9
-9 -537 -51 -545 -44 -3 4 117 17 376 42 56 5 174 6 169 2z m-991 -31 c-21
-21 -517 -83 -918 -115 -605 -48 -1230 -88 -1425 -93 -110 -3 -191 -3 -180 -1
11 2 430 45 930 95 741 73 969 93 1230 103 176 7 331 14 344 15 13 0 22 -1 19
-4z m-2750 -22 c-10 -2 -26 -2 -35 0 -10 3 -2 5 17 5 19 0 27 -2 18 -5z m1442
-29 c-8 -2 -87 -10 -175 -19 -88 -8 -387 -38 -665 -65 -595 -59 -732 -67
-1270 -74 -470 -6 -486 -13 195 86 l430 63 650 5 c358 3 695 6 750 7 55 0 93
-1 85 -3z m-2882 -10 c-5 -4 -549 -38 -1513 -94 -99 -6 -252 -15 -340 -20
-200 -12 -318 -12 -290 0 62 28 563 96 825 113 95 6 1324 7 1318 1z m1140 0
c-6 -5 -132 -24 -743 -108 l-320 -45 -595 10 c-327 5 -647 12 -710 16 l-115 7
290 17 c160 10 562 34 895 54 333 20 675 40 760 44 192 10 545 13 538 5z
m2357 -85 c-34 -11 -335 -32 -343 -24 -3 3 3 5 14 6 10 1 73 7 139 14 66 6
143 12 170 13 46 0 47 -1 20 -9z m1104 -14 c-10 -9 -513 -65 -581 -64 -64 1
-50 4 107 25 219 29 485 51 474 39z m300 -19 c-7 -8 -354 -46 -400 -45 -28 1
-7 6 61 15 209 28 349 40 339 30z m-1124 -26 c-142 -20 -513 -27 -445 -9 45
13 268 26 440 26 l135 1 -130 -18z m-645 -10 c-14 -4 -106 -8 -205 -7 l-180 1
145 6 c227 9 269 9 240 0z m1845 -1 c-22 -4 -53 -7 -70 -7 -26 1 -24 2 10 8
22 4 54 7 70 7 25 1 23 -1 -10 -8z m-4802 -36 c-13 -2 -35 -2 -50 0 -16 2 -5
4 22 4 28 0 40 -2 28 -4z m1510 -20 c-7 -2 -21 -2 -30 0 -10 3 -4 5 12 5 17 0
24 -2 18 -5z m1125 2 c-3 -3 -121 -23 -264 -45 l-259 -40 -510 1 c-280 1 -503
3 -495 5 8 2 191 19 405 39 215 19 401 37 415 39 42 5 714 6 708 1z m401 0
c-7 -6 -508 -67 -521 -63 -23 8 353 65 436 67 49 0 87 -1 85 -4z m431 -5 c-48
-11 -393 -42 -422 -38 -33 5 314 45 392 46 55 0 60 -1 30 -8z m989 5 c-3 -2
-113 -22 -246 -45 l-242 -40 -397 0 c-219 0 -395 2 -393 4 6 6 327 32 684 56
171 11 330 21 355 23 74 6 244 7 239 2z m1989 0 c-3 -3 -123 -23 -267 -45
l-261 -40 -853 2 -852 3 245 42 245 41 874 1 c481 1 872 -1 869 -4z m-5053
-16 c-197 -22 -690 -60 -835 -64 -222 -5 -121 6 355 40 198 14 369 27 380 29
11 2 54 3 95 3 l75 0 -70 -8z m-1140 -14 c-5 -2 -80 -14 -165 -26 -132 -19
-208 -22 -520 -25 -338 -2 -359 -1 -290 12 102 19 1019 55 975 39z m-1540 -45
c-16 -4 -111 -7 -210 -7 l-180 1 150 6 c231 9 275 9 240 0z m3768 3 c-7 -2
-19 -2 -25 0 -7 3 -2 5 12 5 14 0 19 -2 13 -5z m1222 -51 c-6 -5 -166 -35
-357 -66 l-347 -57 -328 -9 c-180 -5 -402 -11 -493 -14 -91 -3 -160 -3 -155
-1 6 3 190 35 410 72 l400 67 420 6 c231 3 429 7 440 8 11 1 15 -2 10 -6z
m1925 -1 c0 -11 -172 -29 -410 -41 -107 -6 -271 -15 -365 -20 -449 -25 -1254
-52 -1465 -49 -83 1 -78 2 195 52 l280 50 870 6 c479 4 876 7 883 9 6 1 12 -2
12 -7z m-6461 -5 c-2 -2 -85 -5 -184 -8 -99 -3 -166 -2 -150 2 30 8 342 13
334 6z m2591 -2 c-14 -2 -124 -10 -245 -19 -170 -12 -412 -15 -1074 -15 -470
0 -852 3 -848 6 15 15 767 31 1447 31 410 0 734 -1 720 -3z m880 0 c-45 -11
-887 -144 -941 -148 -98 -8 -534 -18 -528 -12 9 9 920 140 1069 154 91 9 431
14 400 6z m3260 -40 c-8 -2 -94 -8 -190 -14 -96 -6 -204 -13 -240 -15 -57 -4
-60 -3 -25 5 22 5 105 13 185 18 146 9 298 13 270 6z m-6895 -39 c-5 -2 -130
-22 -276 -45 l-266 -40 -328 0 c-181 0 -326 2 -323 5 5 5 152 19 708 69 138
12 511 20 485 11z m2155 -1 c-8 -2 -168 -22 -355 -44 l-340 -40 -860 1 c-473
0 -854 3 -848 6 7 2 122 22 255 43 l243 38 960 0 c528 0 953 -2 945 -4z m3939
2 c-15 -15 -313 -46 -494 -51 -115 -3 -426 -12 -690 -20 -503 -15 -943 -19
-932 -9 4 4 143 10 309 15 917 25 1151 33 1433 49 378 21 379 21 374 16z m556
-22 c-48 -8 -115 -9 -115 -2 0 5 30 7 68 7 37 -1 58 -3 47 -5z m-142 -11 c-7
-2 -19 -2 -25 0 -7 3 -2 5 12 5 14 0 19 -2 13 -5z m-4473 -28 c-105 -18 -206
-29 -199 -21 7 8 197 33 244 33 17 0 -4 -5 -45 -12z m4960 -6 c-47 -12 -307
-24 -298 -14 9 9 156 22 263 22 60 1 65 0 35 -8z m-740 -9 c-14 -4 -83 -8
-155 -7 l-130 1 110 6 c172 9 204 9 175 0z m-5817 -47 c-171 -2 -455 -2 -630
0 -175 1 -34 2 312 2 347 0 490 -1 318 -2z m2665 0 c-81 -2 -216 -2 -300 0
-84 1 -18 3 147 3 165 0 234 -2 153 -3z m2151 2 c-3 -2 -160 -23 -349 -45
l-344 -40 -675 1 -676 1 135 23 c169 30 238 34 745 50 410 12 1172 19 1164 10z
m670 0 c-3 -2 -117 -20 -255 -39 -228 -32 -588 -58 -573 -42 6 6 385 67 489
79 52 6 344 8 339 2z m660 0 c-13 -13 -462 -65 -599 -69 l-155 -5 280 38 c240
33 489 52 474 36z m851 -5 c-52 -5 -221 -13 -375 -19 -154 -6 -325 -13 -380
-16 -123 -5 -109 0 65 24 110 15 196 19 460 19 228 -1 297 -3 230 -8z m-7335
-41 c-38 -5 -257 -20 -485 -34 -228 -14 -470 -30 -538 -35 -68 -6 -176 -9
-240 -9 -136 1 -140 0 188 54 l205 33 470 0 c301 -1 445 -4 400 -9z m1200 0
c-16 -4 -140 -24 -275 -44 -215 -31 -268 -35 -425 -34 l-180 2 110 14 c343 44
612 71 700 71 72 0 92 -2 70 -9z m793 6 c-2 -3 -125 -23 -272 -45 -265 -40
-270 -40 -519 -38 -250 3 -251 3 -162 16 50 7 176 25 280 41 168 26 219 29
434 30 134 1 242 -1 239 -4z m1120 0 c-3 -3 -59 -14 -124 -24 -102 -17 -185
-20 -594 -23 -261 -2 -466 -2 -455 0 347 52 309 50 754 51 233 0 422 -1 419
-4z m-2508 -11 c-8 -2 -156 -19 -329 -39 -287 -32 -337 -35 -580 -34 l-266 2
275 19 c151 10 394 27 540 37 249 17 394 23 360 15z m6163 -21 c-13 -2 -33 -2
-45 0 -13 2 -3 4 22 4 25 0 35 -2 23 -4z m-150 -10 c-23 -2 -64 -2 -90 0 -26
2 -7 3 42 3 50 0 71 -1 48 -3z m-758 -63 c-38 -4 -97 -7 -130 -7 -59 0 -60 0
-15 7 25 4 83 7 130 7 l85 0 -70 -7z m-625 -31 c-136 -21 -240 -30 -395 -35
-115 -4 -207 -4 -203 0 9 10 269 46 403 55 61 5 171 8 245 9 l135 0 -185 -29z
m-4905 1 c-141 -28 -303 -40 -543 -40 -140 0 -253 3 -250 6 4 3 80 14 170 24
166 18 710 27 623 10z m474 6 c-2 -2 -62 -6 -134 -9 -71 -3 -112 -2 -90 3 41
7 232 13 224 6z m1421 -18 c-93 -18 -160 -20 -590 -25 -267 -2 -482 -2 -478 2
3 4 60 15 125 25 101 16 184 18 583 18 l465 0 -105 -20z m1440 11 c-240 -32
-389 -39 -858 -39 -267 0 -483 2 -480 5 3 3 54 14 114 24 97 17 172 19 699 19
377 -1 567 -4 525 -9z m760 -9 c-195 -23 -247 -23 -110 0 58 10 141 18 185 18
72 0 65 -2 -75 -18z m-322 5 c-7 -7 -206 -35 -252 -35 -74 0 -27 12 96 25 154
16 162 16 156 10z m-3180 -22 c-10 -2 -26 -2 -35 0 -10 3 -2 5 17 5 19 0 27
-2 18 -5z m-75 -10 c-7 -2 -21 -2 -30 0 -10 3 -4 5 12 5 17 0 24 -2 18 -5z
m2745 -40 c-27 -2 -69 -2 -95 0 -27 2 -5 3 47 3 52 0 74 -1 48 -3z m-4753 -43
c-22 -4 -92 -10 -155 -13 -63 -3 -106 -3 -95 -1 44 9 173 21 230 22 56 0 57
-1 20 -8z m1302 4 c-6 -6 -529 -44 -592 -42 -22 0 28 11 110 23 107 16 199 23
319 24 93 1 167 -2 163 -5z m1391 0 c-3 -3 -172 -31 -374 -63 l-369 -58 -487
-7 c-267 -3 -654 -10 -860 -16 -651 -17 -724 -18 -688 -10 85 20 421 50 960
85 353 23 627 45 805 65 80 8 1021 13 1013 4z m1110 1 c-3 -3 -97 -16 -209
-30 -112 -14 -321 -43 -464 -65 -248 -38 -269 -40 -480 -39 -121 1 -274 4
-340 8 l-120 6 385 62 385 61 424 1 c233 1 422 -1 419 -4z m732 -5 c-69 -17
-571 -69 -850 -90 -157 -11 -341 -25 -409 -31 -68 -5 -126 -8 -129 -5 -3 4 1
6 9 6 8 0 70 9 139 20 69 11 278 38 465 59 187 22 354 42 370 44 62 8 440 5
405 -3z m1095 4 c-5 -2 -217 -36 -470 -76 l-460 -72 -330 -2 c-374 -2 -378 -4
145 61 426 53 1172 113 1115 89z m1590 0 c-26 -10 -1150 -126 -1305 -134 -192
-10 -1027 -22 -995 -14 11 3 234 38 495 78 l475 74 670 0 c369 0 666 -1 660
-4z m365 -5 c-19 -5 -244 -34 -500 -64 -256 -31 -721 -94 -1033 -140 l-568
-85 -741 0 c-408 0 -739 2 -737 5 3 2 138 24 300 49 l294 44 485 6 c634 8 906
21 1240 56 383 41 1101 119 1185 129 92 11 118 11 75 0z m719 7 c-2 -2 -98
-14 -214 -26 -128 -13 -422 -58 -750 -115 -297 -52 -620 -108 -717 -124 -174
-30 -184 -31 -515 -31 -185 0 -334 2 -332 5 10 9 894 135 1259 180 206 25 497
60 645 79 208 26 311 34 449 35 99 0 177 -1 175 -3z m-4033 -193 l79 -7 -310
-47 -310 -48 -349 -1 c-192 0 -347 2 -345 5 3 2 128 24 279 49 151 24 286 47
300 49 42 7 572 7 656 0z m-2221 -19 c-25 -5 -720 -54 -731 -53 -5 1 63 14
151 29 142 25 184 28 380 28 121 -1 211 -2 200 -4z m680 -5 c-132 -19 -498
-59 -502 -55 -2 2 33 9 79 16 46 6 135 20 198 30 63 10 153 18 200 18 l85 -1
-60 -8z m550 6 c-5 -2 -123 -22 -260 -45 -229 -37 -265 -40 -425 -39 -205 2
-202 3 225 53 232 28 499 45 460 31z m-1175 -41 c-100 -25 -303 -44 -449 -42
-190 1 -181 3 134 28 216 16 349 22 315 14z m-1972 -81 c-87 -2 -229 -2 -315
0 -87 1 -16 3 157 3 173 0 244 -2 158 -3z m1275 0 c-72 -2 -194 -2 -270 0 -76
1 -16 3 132 3 149 0 211 -2 138 -3z m1000 0 c-51 -2 -136 -2 -190 0 -54 1 -12
3 92 3 105 0 149 -2 98 -3z m870 0 c-84 -2 -222 -2 -305 0 -84 1 -16 3 152 3
168 0 236 -2 153 -3z m1555 0 c-196 -2 -520 -2 -720 0 -200 1 -39 2 357 2 396
0 559 -1 363 -2z m1195 0 c-90 -2 -236 -2 -325 0 -90 1 -17 3 162 3 179 0 252
-2 163 -3z m-4759 -43 c-5 -4 -66 -15 -135 -24 -102 -13 -210 -16 -545 -15
-403 1 -415 2 -319 15 55 8 141 18 190 23 115 10 820 12 809 1z m990 0 c-5 -4
-55 -14 -111 -24 -82 -13 -171 -16 -450 -15 -345 1 -347 2 -238 15 61 8 155
17 210 22 130 10 600 12 589 2z m922 3 c-3 -3 -59 -14 -123 -24 -98 -16 -174
-19 -448 -18 -341 1 -353 4 -135 33 94 13 718 20 706 9z m669 -3 c-3 -6 -30
-10 -58 -10 -29 0 -124 -7 -212 -15 -88 -8 -212 -14 -275 -14 l-115 1 85 14
c135 23 213 29 403 31 113 2 176 -1 172 -7z m885 -30 c-14 -4 -203 -7 -420 -7
-328 1 -358 2 -180 7 338 9 628 9 600 0z m435 0 c4 -6 -35 -9 -112 -8 -94 1
-107 3 -63 8 88 11 168 11 175 0z m542 -7 c-20 -2 -52 -2 -70 0 -17 2 0 4 38
4 39 0 53 -2 32 -4z m878 -35 c-49 -5 -241 -36 -426 -69 -336 -59 -337 -59
-641 -70 -167 -6 -315 -9 -329 -7 -35 5 380 63 736 103 459 52 469 52 615 52
l135 0 -90 -9z m-5225 -79 l-405 -69 -375 -10 c-410 -10 -582 -11 -563 -3 7 2
225 37 485 78 l473 73 395 0 395 0 -405 -69z m1300 60 c-51 -10 -1271 -110
-1322 -108 -18 1 120 27 307 59 l340 58 360 0 c240 0 345 -3 315 -9z m1709 7
c-11 -11 -383 -50 -815 -86 -419 -34 -530 -47 -865 -100 -372 -59 -394 -61
-714 -75 -363 -16 -390 -17 -384 -11 4 4 527 117 840 182 136 28 245 42 499
64 304 26 362 28 884 29 308 0 557 -1 555 -3z m946 -2 c-11 -2 -153 -15 -315
-29 -331 -28 -387 -33 -860 -75 -331 -30 -397 -34 -389 -26 2 2 87 16 189 31
284 42 1011 103 1220 102 96 0 166 -1 155 -3z m460 -10 c-60 -8 -164 -20 -230
-29 -195 -24 -203 -25 -130 -10 131 28 320 53 395 53 l75 -1 -110 -13z m-640
-49 c-11 -4 -304 -54 -465 -79 -52 -8 -273 -22 -490 -30 -217 -9 -433 -18
-480 -22 -47 -3 -82 -3 -79 0 3 3 160 19 350 36 189 17 475 42 634 56 160 14
326 29 370 33 86 9 176 12 160 6z m188 -12 c-7 -2 -19 -2 -25 0 -7 3 -2 5 12
5 14 0 19 -2 13 -5z m-3034 -7 c-2 -3 -153 -36 -334 -75 -182 -39 -391 -84
-465 -101 -133 -30 -142 -31 -535 -40 -701 -16 -877 -19 -872 -14 2 3 80 16
173 30 93 13 279 42 414 64 178 29 301 43 450 50 113 6 414 28 670 49 538 45
505 42 499 37z m-2286 -33 c-7 -2 -21 -2 -30 0 -10 3 -4 5 12 5 17 0 24 -2 18
-5z m1294 -9 c-3 -3 -12 -4 -19 -1 -8 3 -5 6 6 6 11 1 17 -2 13 -5z m2292 2
c-14 -14 -392 -68 -594 -86 -132 -11 -262 -22 -289 -25 -27 -2 -46 -2 -43 1
13 13 451 74 642 89 116 9 215 18 220 20 14 5 69 6 64 1z m1486 -128 l-440
-81 -365 -3 c-224 -2 -357 0 -345 6 11 5 218 39 460 75 462 70 585 80 990 83
l140 0 -440 -80z m-930 37 c-5 -3 -197 -30 -425 -61 l-415 -57 -340 -4 c-187
-3 -337 -2 -333 2 4 4 92 23 195 41 165 30 229 36 518 49 182 8 411 19 510 23
204 10 305 12 290 7z m-1416 -59 c-2 -2 -87 -18 -189 -35 -150 -25 -212 -31
-339 -31 -85 0 -152 3 -148 6 3 3 142 18 309 34 317 29 374 33 367 26z m1294
-3 c-7 -2 -21 -2 -30 0 -10 3 -4 5 12 5 17 0 24 -2 18 -5z m-58 -8 c-14 -6
-357 -55 -380 -55 -53 0 12 14 157 35 148 20 249 29 223 20z m-2037 -20 c-15
-15 -261 -35 -418 -34 -237 1 -179 16 110 27 124 5 245 9 269 10 24 1 42 0 39
-3z m4667 -31 c-165 -18 -385 -44 -490 -59 -156 -21 -229 -25 -409 -25 -121 0
-217 2 -215 4 10 10 520 76 669 86 210 15 493 27 635 27 101 1 84 -2 -190 -33z
m-1276 -19 c-9 -9 -811 -66 -891 -63 l-83 3 135 23 c96 16 179 23 290 23 85 1
218 5 295 8 194 10 259 12 254 6z m-3890 -19 c-12 -12 -318 -46 -390 -44 l-84
3 95 22 c72 16 130 21 239 22 79 1 142 -1 140 -3z m720 0 c-2 -3 -59 -14 -125
-25 -97 -17 -162 -21 -325 -20 -112 0 -199 2 -194 5 6 2 64 13 130 23 86 14
177 19 319 20 110 1 197 -1 195 -3z m790 0 c-2 -2 -76 -14 -165 -25 -126 -16
-212 -21 -395 -20 -129 0 -229 3 -222 5 6 3 58 13 115 24 82 14 159 18 387 19
156 1 282 -1 280 -3z m430 0 c-13 -12 -296 -46 -365 -44 l-79 3 155 21 c139
19 300 30 289 20z m990 0 c-2 -3 -73 -14 -158 -25 -133 -18 -201 -21 -500 -20
l-346 2 130 22 c118 21 164 23 504 24 206 0 372 -1 370 -3z m946 -27 c-16 -5
-79 -11 -140 -13 l-110 -5 120 13 c148 16 169 17 130 5z m-4490 -59 c-11 -5
-36 -8 -55 -8 l-35 1 35 7 c19 4 44 8 55 8 l20 1 -20 -9z m835 0 c-14 -5 -169
-34 -345 -64 l-320 -55 -267 -3 c-148 -2 -268 0 -268 4 0 5 11 8 24 8 14 0
181 24 373 54 191 30 362 56 378 59 61 8 450 6 425 -3z m647 4 c-7 -7 -814
-112 -922 -119 -44 -3 -99 -8 -122 -10 -24 -3 -43 -1 -43 3 0 5 48 16 108 26
59 9 220 37 357 61 234 41 262 44 439 44 104 1 187 -2 183 -5z m521 0 c-8 -7
-880 -95 -886 -89 -3 3 1 5 8 5 7 0 153 18 324 40 171 21 327 41 346 43 58 6
214 7 208 1z m902 -4 c-39 -14 -336 -49 -550 -65 -107 -8 -309 -24 -449 -35
-162 -13 -334 -20 -475 -19 l-221 1 415 43 c228 24 460 50 515 59 55 8 114 17
130 19 64 8 659 5 635 -3z m1885 -1 c-16 -5 -207 -34 -423 -64 -387 -54 -396
-55 -620 -54 l-227 1 400 58 c499 73 432 67 685 67 142 1 205 -2 185 -8z m853
6 c-6 -7 -246 -39 -473 -64 -211 -24 -558 -49 -770 -56 l-150 -5 405 60 c223
32 421 60 440 63 53 6 554 8 548 2z m897 -102 c-71 -11 -245 -15 -810 -18
-703 -3 -742 -1 -390 24 66 4 383 8 705 8 544 0 579 -1 495 -14z m-3202 -70
c-29 -2 -78 -2 -110 0 -32 2 -8 3 52 3 61 0 87 -1 58 -3z m2516 2 c-3 -2 -67
-14 -143 -25 -127 -18 -187 -20 -798 -20 -364 0 -659 2 -657 4 4 4 253 33 339
39 74 6 1264 7 1259 2z m-6076 -12 c-7 -2 -21 -2 -30 0 -10 3 -4 5 12 5 17 0
24 -2 18 -5z m-183 -9 c-53 -7 -442 -9 -419 -3 13 4 119 7 234 7 116 -1 199
-2 185 -4z m1890 -10 c-73 -11 -502 -18 -445 -7 53 10 245 20 380 20 l150 0
-85 -13z m2570 5 c-38 -10 -403 -23 -384 -14 12 6 269 22 364 22 52 1 53 0 20
-8z m-3567 -16 c-18 -2 -48 -2 -65 0 -18 2 -4 4 32 4 36 0 50 -2 33 -4z m-520
-40 c-7 -2 -21 -2 -30 0 -10 3 -4 5 12 5 17 0 24 -2 18 -5z m1126 2 c-3 -2
-140 -22 -304 -45 l-300 -40 -525 2 -525 3 510 38 c281 21 519 40 530 41 33 5
619 6 614 1z m920 1 c-2 -3 -191 -18 -419 -36 -228 -17 -467 -35 -530 -40 -63
-5 -151 -9 -195 -9 -79 1 -77 2 85 25 419 61 432 62 754 63 170 1 307 -1 305
-3z m4760 0 c-5 -5 -273 -36 -572 -66 -210 -21 -389 -34 -712 -50 -110 -5
-335 -16 -500 -25 -165 -8 -343 -17 -395 -21 -52 -4 -93 -4 -90 -1 3 3 59 13
125 21 241 31 1031 135 1055 139 34 6 1094 8 1089 3z m-6891 -13 c-10 -2 -28
-2 -40 0 -13 2 -5 4 17 4 22 1 32 -1 23 -4z m7109 -19 c-3 -3 -12 -4 -19 -1
-8 3 -5 6 6 6 11 1 17 -2 13 -5z m-4912 -9 c-5 -3 -93 -16 -194 -30 -192 -26
-441 -35 -441 -15 0 6 28 10 63 11 34 0 157 9 272 19 202 17 321 23 300 15z
m4710 -21 c-88 -13 -502 -66 -920 -119 -418 -53 -865 -109 -994 -125 -128 -17
-270 -29 -315 -29 -92 2 -99 1 208 35 126 14 367 43 535 64 168 21 466 59 661
84 366 47 809 102 870 109 119 13 89 1 -45 -19z m-4612 -11 c-7 -2 -19 -2 -25
0 -7 3 -2 5 12 5 14 0 19 -2 13 -5z m-733 -59 c-63 -16 -619 -87 -805 -103
-558 -49 -1252 -92 -1460 -90 l-120 1 80 13 c182 29 717 104 815 114 58 6 231
20 385 31 154 12 321 25 370 29 87 8 765 12 735 5z m685 -10 c-5 -2 -111 -22
-235 -44 -334 -60 -1014 -141 -1225 -146 -93 -1 -161 0 -150 3 11 3 322 47
690 98 555 77 692 93 800 93 72 0 126 -1 120 -4z m3468 -21 c-7 -2 -21 -2 -30
0 -10 3 -4 5 12 5 17 0 24 -2 18 -5z m-73 -9 c-8 -2 -141 -19 -295 -39 -703
-87 -1013 -115 -1350 -120 -148 -2 -263 -2 -255 0 8 3 177 18 375 35 198 16
413 34 478 40 178 15 324 28 642 55 160 14 297 27 305 29 8 2 38 4 65 4 28 0
43 -2 35 -4z m-715 -19 c-5 -2 -95 -11 -200 -20 -104 -8 -347 -28 -540 -45
-192 -16 -361 -29 -375 -29 -14 1 61 14 165 30 135 21 282 35 510 48 315 18
460 23 440 16z m-4226 -89 c-2 -2 -98 -16 -214 -30 -163 -21 -244 -26 -360
-24 l-150 3 190 14 c105 7 253 19 330 26 157 14 210 17 204 11z m5246 -95 c-6
-5 -91 -22 -190 -39 -145 -25 -231 -34 -445 -43 -254 -10 -1190 -10 -1190 1 0
3 120 21 268 40 l267 35 640 5 c352 3 644 6 650 8 6 1 6 -1 0 -7z m670 -1 c-2
-4 -84 -10 -182 -14 -98 -4 -238 -11 -311 -17 -73 -6 -135 -9 -138 -6 -3 2 23
10 58 18 53 10 149 15 540 25 21 0 35 -2 33 -6z m-5760 -25 c-5 -2 -125 -24
-265 -49 -238 -42 -270 -45 -485 -50 -126 -3 -225 -4 -220 -1 18 8 609 86 710
94 105 9 277 12 260 6z m6591 -20 c-108 -16 -362 -42 -551 -55 -77 -6 -387
-13 -690 -15 -865 -7 -644 14 610 60 237 8 459 17 495 18 36 2 101 3 145 4
l80 0 -89 -12z m-5421 -80 c-5 -3 -113 -18 -239 -35 -216 -28 -250 -30 -555
-30 -179 0 -454 -5 -611 -11 -157 -5 -350 -9 -430 -7 l-145 3 165 27 c153 25
199 28 655 38 270 6 508 12 530 14 64 4 641 5 630 1z m3905 -35 c-19 -4 -199
-13 -400 -20 -201 -6 -374 -14 -385 -17 -11 -3 -17 -2 -13 2 4 4 49 16 100 25
77 15 150 18 413 18 177 0 304 -4 285 -8z m1220 -1 c-406 -39 -470 -42 -905
-44 -247 -2 -439 -1 -425 1 14 2 221 11 460 20 239 9 514 19 610 23 96 5 213
8 260 8 l85 0 -85 -8z m-7102 -4 c-2 -3 -65 -14 -139 -25 -108 -16 -180 -20
-374 -19 -235 1 -238 2 -165 15 94 18 692 43 678 29z m1069 -81 c-3 -3 -133
-23 -289 -45 l-283 -38 -430 0 -430 1 335 39 c184 21 355 39 380 42 76 6 724
7 717 1z m562 1 c-7 -7 -459 -37 -472 -31 -7 2 -1 5 13 6 14 1 68 7 120 14 90
13 349 21 339 11z m4389 -1 c-3 -3 -190 -21 -414 -41 -374 -32 -446 -36 -839
-39 l-430 -3 175 34 c96 19 202 38 235 43 64 10 1282 16 1273 6z m821 1 c-6
-5 -182 -19 -884 -66 -170 -11 -335 -19 -365 -17 -45 2 285 32 865 78 104 8
391 12 384 5z m579 -1 c-3 -3 -145 -21 -314 -41 -266 -30 -347 -36 -584 -38
l-275 -4 325 24 c179 13 404 33 500 44 169 18 359 27 348 15z m-7288 -180
c-41 -7 -93 -12 -115 -12 -52 1 92 25 150 25 29 0 19 -3 -35 -13z m535 11 c-5
-2 -68 -5 -140 -8 -71 -2 -119 0 -105 4 24 7 265 11 245 4z m5234 1 c-2 -2
-96 -14 -209 -25 -188 -20 -252 -21 -770 -19 l-565 3 195 14 c107 7 233 17
280 21 88 7 1077 13 1069 6z m926 -6 c-236 -27 -332 -33 -620 -35 -176 -2
-309 -1 -295 2 14 3 95 13 180 23 117 13 234 17 480 17 212 0 301 -2 255 -7z
m964 6 c-5 -4 -61 -10 -663 -66 -237 -22 -431 -38 -434 -36 -2 2 21 7 50 11
29 3 154 22 278 40 124 19 257 38 295 43 68 9 483 16 474 8z m-6624 -28 c-30
-10 -490 -22 -469 -12 11 5 321 20 439 22 53 0 57 -1 30 -10z m6561 -33 c-10
-8 -37 -16 -60 -19 -80 -9 -744 -48 -756 -44 -7 2 83 12 199 22 117 10 287 26
379 36 92 10 187 18 212 18 41 1 43 0 26 -13z m-1786 -21 c-8 -2 -231 -29
-495 -59 -422 -49 -970 -93 -984 -79 -2 2 0 4 5 4 5 0 68 11 139 25 72 13 292
42 490 64 198 22 374 42 390 44 38 5 475 6 455 1z m585 1 c-20 -8 -574 -66
-715 -75 -341 -22 -186 8 235 46 99 8 218 19 265 23 90 9 232 12 215 6z m338
-52 c-13 -2 -33 -2 -45 0 -13 2 -3 4 22 4 25 0 35 -2 23 -4z m626 3 c-3 -4
-445 -87 -534 -101 -16 -3 -128 -16 -249 -30 -181 -21 -264 -25 -492 -25 -151
0 -274 3 -274 8 0 9 504 78 670 92 157 13 765 55 849 59 19 0 32 -1 30 -3z
m-1099 -43 c-14 -2 -185 -27 -380 -54 l-355 -50 -230 7 -230 8 115 13 c356 38
643 65 780 72 166 9 341 11 300 4z m-1250 -59 c-24 -5 -334 -34 -370 -34 -70
0 -16 12 111 24 120 12 297 19 259 10z m-797 -81 c-13 -2 -33 -2 -45 0 -13 2
-3 4 22 4 25 0 35 -2 23 -4z m-105 -10 c-10 -2 -26 -2 -35 0 -10 3 -2 5 17 5
19 0 27 -2 18 -5z m3481 3 c-6 -6 -563 -86 -1009 -145 -377 -50 -504 -65 -485
-56 6 2 258 45 560 96 420 70 583 94 690 99 201 9 249 11 244 6z m-629 -16
c-14 -5 -284 -52 -601 -105 l-576 -95 -519 1 -519 1 735 83 c404 46 791 92
860 103 101 16 175 20 385 20 161 0 250 -3 235 -8z m545 -180 c-88 -10 -216
-18 -285 -18 l-125 1 140 17 c77 10 205 17 285 18 l145 0 -160 -18z m-2977
-17 c-10 -2 -26 -2 -35 0 -10 3 -2 5 17 5 19 0 27 -2 18 -5z m2175 0 c-7 -2
-21 -2 -30 0 -10 3 -4 5 12 5 17 0 24 -2 18 -5z m-6238 -53 c-262 -8 -970 -8
-900 0 33 4 290 6 570 6 283 0 430 -3 330 -6z m1673 5 c-2 -3 -57 -14 -122
-25 -105 -18 -158 -20 -489 -18 -399 1 -394 4 53 32 215 13 568 20 558 11z
m2842 -5 c-271 -22 -707 -37 -674 -24 56 23 185 32 464 32 220 -1 278 -3 210
-8z m1869 6 c-9 -9 -447 -47 -762 -66 -313 -18 -556 -26 -546 -16 12 12 252
38 439 47 118 6 298 17 400 24 179 12 478 19 469 11z m-1789 -77 c-25 -4 -200
-7 -390 -6 -196 0 -304 3 -250 7 144 9 693 9 640 -1z m-5437 -6 c-139 -2 -367
-2 -505 0 -139 1 -26 2 252 2 278 0 391 -1 253 -2z m1725 0 c-190 -2 -505 -2
-700 0 -194 1 -38 2 347 2 385 0 544 -1 353 -2z m30 -38 c-2 -3 -72 -14 -154
-25 -139 -19 -202 -20 -934 -19 l-785 1 155 18 c85 10 173 20 195 23 58 5
1529 8 1523 2z m5847 -6 c-22 -5 -188 -25 -370 -44 l-330 -35 -890 1 c-886 1
-890 1 -784 19 92 15 277 29 799 60 181 10 1624 10 1575 -1z m-6220 -125 c-11
-2 -153 -15 -315 -29 -162 -14 -387 -34 -498 -46 -112 -11 -206 -18 -210 -15
-3 3 6 6 19 6 13 1 173 21 354 44 280 37 356 44 500 44 94 -1 161 -2 150 -4z
m425 -10 c-8 -2 -238 -28 -511 -59 -379 -42 -530 -55 -644 -55 -81 0 -146 2
-143 5 9 9 1175 113 1263 113 28 0 43 -2 35 -4z m-170 -70 c-120 -21 -243 -36
-320 -39 -171 -6 -109 7 205 44 325 38 354 36 115 -5z m6260 -34 c-8 -5 -37
-9 -65 -8 l-50 1 55 7 c30 4 60 7 65 8 6 1 3 -3 -5 -8z m53 3 c-7 -2 -19 -2
-25 0 -7 3 -2 5 12 5 14 0 19 -2 13 -5z m-8551 -64 c-38 -6 -75 -6 -95 0 -25
7 -12 9 63 9 l95 0 -63 -9z m308 -25 c-151 -32 -170 -34 -220 -23 -30 7 -50
14 -44 16 28 10 297 41 359 41 68 1 64 0 -95 -34z m595 20 c-60 -7 -225 -27
-365 -44 -140 -17 -268 -33 -285 -36 -20 -4 -27 -3 -20 4 6 5 96 26 200 45
105 20 199 38 210 40 11 3 99 5 195 5 l175 0 -110 -14z m430 -45 c-198 -32
-421 -65 -495 -74 -312 -37 -286 -36 -388 -13 -62 15 -88 24 -75 29 10 3 119
18 243 33 657 79 703 84 890 84 l185 0 -360 -59z m-950 -108 c31 -8 -471 -27
-530 -19 -16 2 62 15 175 29 215 26 220 26 355 -10z m7420 13 c-233 -25 -728
-53 -714 -40 4 4 309 30 549 46 85 6 173 12 195 14 166 12 147 0 -30 -20z
m-5805 -40 c-61 -9 -217 -12 -560 -11 -261 0 -457 2 -435 4 53 5 740 20 930
20 l150 0 -85 -13z m-401 -49 c-3 -2 -106 -16 -230 -30 l-224 -26 -105 22
c-58 12 -114 25 -125 30 -11 4 139 8 334 8 195 1 352 -1 350 -4z m990 0 c-3
-2 -120 -22 -260 -45 l-255 -40 -335 1 c-370 2 -373 -1 61 54 237 29 293 33
529 34 145 1 262 -1 260 -4z m4300 -5 c-57 -10 -228 -22 -214 -15 17 8 147 22
205 23 l55 0 -46 -8z m-232 -26 c-3 -3 -12 -4 -19 -1 -8 3 -5 6 6 6 11 1 17
-2 13 -5z m-794 -11 c-7 -2 -19 -2 -25 0 -7 3 -2 5 12 5 14 0 19 -2 13 -5z
m-4488 -98 c57 -14 52 -14 -110 -8 -240 8 -300 20 -105 21 102 1 175 -4 215
-13z m380 4 c-49 -10 -179 -9 -220 1 -18 5 29 8 115 8 102 0 133 -3 105 -9z
m383 4 c-21 -2 -57 -2 -80 0 -24 2 -7 4 37 4 44 0 63 -2 43 -4z m5017 -18
c-44 -8 -147 -13 -230 -13 l-150 1 170 12 c94 7 197 12 230 12 l60 1 -80 -13z
m-6237 -15 c30 0 53 -2 51 -4 -2 -2 -87 -6 -189 -9 -182 -5 -184 -5 -95 8 50
7 110 11 134 9 24 -2 69 -4 99 -4z m7975 3 c-34 -2 -93 -2 -130 0 -37 2 -9 3
62 3 72 0 102 -1 68 -3z m-7593 -44 c-67 -11 -169 -11 -150 1 8 5 56 9 105 9
78 -1 84 -3 45 -10z m6863 -6 c-183 -2 -483 -2 -665 0 -183 1 -34 2 332 2 366
0 515 -1 333 -2z m795 0 c-10 -2 -28 -2 -40 0 -13 2 -5 4 17 4 22 1 32 -1 23
-4z m-2665 -40 c-62 -2 -165 -2 -230 0 -65 1 -14 3 112 3 127 0 180 -2 118 -3z
m1505 0 c-190 -2 -505 -2 -700 0 -194 1 -38 2 347 2 385 0 544 -1 353 -2z
m820 0 c-10 -2 -28 -2 -40 0 -13 2 -5 4 17 4 22 1 32 -1 23 -4z m470 0 c-10
-2 -28 -2 -40 0 -13 2 -5 4 17 4 22 1 32 -1 23 -4z m-6941 -79 c-3 -3 -88 -12
-189 -20 -101 -8 -322 -26 -493 -40 -263 -23 -385 -27 -805 -31 -272 -3 -493
-2 -490 0 3 3 125 24 270 46 146 22 276 42 290 44 40 7 1424 8 1417 1z m4143
-4 c-99 -10 -318 -20 -304 -14 28 12 148 21 259 21 113 0 116 0 45 -7z m1360
-41 c-196 -25 -332 -38 -405 -37 -108 0 -105 1 190 38 175 22 344 38 405 38
100 0 91 -2 -190 -39z m560 20 c-96 -11 -188 -18 -205 -16 -49 4 213 34 300
34 65 1 48 -3 -95 -18z m-5478 -31 c76 -12 136 -24 134 -25 -2 -2 -59 -13
-127 -23 -93 -14 -223 -22 -514 -29 -214 -6 -464 -14 -555 -17 -91 -3 -163 -4
-160 -1 7 8 615 83 775 96 72 6 146 13 165 14 92 9 156 6 282 -15z m5226 5
c-10 -2 -26 -2 -35 0 -10 3 -2 5 17 5 19 0 27 -2 18 -5z m-4940 -60 c-16 -2
-40 -2 -55 0 -16 2 -3 4 27 4 30 0 43 -2 28 -4z m-2398 -24 l175 -2 -150 -12
c-123 -10 -166 -10 -239 1 -107 16 -128 29 -31 20 39 -3 149 -6 245 -7z m6150
-19 c-332 -44 -669 -82 -693 -78 -12 2 133 26 323 54 269 41 371 52 465 52
l120 0 -215 -28z m910 23 c-14 -3 -209 -31 -433 -64 l-408 -59 -251 0 c-138 0
-249 2 -247 4 2 3 211 25 464 50 253 26 519 52 590 60 118 12 345 20 285 9z
m190 -53 c-503 -54 -774 -78 -725 -63 11 3 196 31 410 63 389 58 390 58 625
58 l235 0 -545 -58z m1245 34 c-93 -13 -307 -42 -474 -64 l-303 -40 -367 1
c-201 1 -355 4 -341 6 14 3 270 31 570 63 524 55 555 58 815 58 l270 0 -170
-24z m-7870 5 c-22 -5 -94 -11 -160 -13 l-120 -5 130 13 c160 16 208 18 150 5z
m1580 -14 c-19 -7 -396 -37 -401 -33 -10 10 206 35 306 36 58 0 101 -1 95 -3z
m-537 -11 c-14 -13 -533 -86 -724 -101 l-210 -16 -195 27 c-107 15 -201 30
-209 33 -40 17 191 29 990 52 151 4 293 9 314 9 22 1 37 0 34 -4z m7347 -19
c-5 -3 -121 -18 -257 -35 -182 -22 -285 -30 -385 -28 -161 2 -164 1 252 37
306 27 412 34 390 26z m-9146 -50 c-3 -2 -95 -16 -205 -30 -142 -18 -242 -25
-340 -23 -167 2 -159 3 211 32 339 27 340 27 334 21z m5554 -2 c-7 -2 -19 -2
-25 0 -7 3 -2 5 12 5 14 0 19 -2 13 -5z m-5081 -24 c79 -11 145 -23 147 -25 2
-2 -155 -3 -350 -3 -195 1 -343 4 -329 7 66 12 291 40 337 41 28 0 116 -8 195
-20z m1451 -70 c-16 -16 -555 -30 -653 -17 -47 6 -89 15 -94 19 -5 5 163 8
374 8 238 0 379 -4 373 -10z m6527 2 c-18 -9 -358 -36 -366 -29 -3 3 46 11
108 17 62 6 127 13 143 15 62 7 130 5 115 -3z m-7820 -22 c-58 -10 -172 -23
-255 -28 -158 -10 -621 -22 -595 -16 8 3 161 14 340 26 179 12 368 25 420 29
175 13 207 10 90 -11z m7305 15 c-5 -2 -136 -19 -290 -38 -240 -30 -784 -70
-893 -65 -34 2 177 33 368 54 182 20 842 60 815 49z m-6889 -11 c85 -11 20
-22 -136 -21 -145 0 -145 0 -80 13 76 15 148 18 216 8z m298 -52 c11 -4 -56
-17 -170 -32 -195 -25 -291 -27 -804 -19 l-185 3 95 13 c52 7 255 18 450 24
331 9 474 14 560 17 19 1 43 -2 54 -6z m251 -37 l60 -8 -55 -7 c-71 -9 -305
-11 -297 -3 9 9 187 33 212 29 11 -2 47 -7 80 -11z m-1655 -5 c-25 -4 -162 -7
-305 -6 l-260 1 185 6 c294 9 433 9 380 -1z m8283 -56 c-199 -2 -527 -2 -730
0 -202 1 -39 2 362 2 402 0 567 -1 368 -2z m-6604 -38 c-3 -2 -123 -22 -267
-45 l-262 -40 -503 2 -502 3 110 17 c61 10 250 27 420 38 171 11 330 21 355
23 72 6 654 7 649 2z m400 0 c-7 -6 -330 -38 -335 -32 -3 3 35 10 83 17 48 6
93 13 98 15 15 5 159 6 154 0z m6230 0 c-3 -2 -106 -16 -230 -31 -218 -25
-234 -26 -614 -19 -544 9 -895 33 -705 48 69 5 1554 8 1549 2z m-5837 -32 c98
-15 178 -31 178 -34 0 -13 -182 -19 -579 -19 -228 0 -412 2 -410 4 2 2 90 12
194 20 184 16 395 43 404 52 8 8 37 5 213 -23z m4383 -33 l270 -17 -510 0
-510 0 130 17 c166 22 286 23 620 0z m-6932 -17 c-7 -2 -21 -2 -30 0 -10 3 -4
5 12 5 17 0 24 -2 18 -5z m1530 0 c-7 -2 -19 -2 -25 0 -7 3 -2 5 12 5 14 0 19
-2 13 -5z m-1705 -90 c-21 -2 -55 -2 -75 0 -21 2 -4 4 37 4 41 0 58 -2 38 -4z
m1902 1 c-22 -5 -765 -78 -1215 -119 -214 -19 -468 -42 -563 -51 -186 -17
-238 -14 -95 6 48 7 308 48 578 90 l490 78 410 0 c226 0 403 -2 395 -4z m7420
-122 c0 -16 -631 -84 -646 -69 -8 7 384 61 491 67 61 4 120 7 133 8 12 1 22
-1 22 -6z m265 -58 c-89 -13 -426 -28 -393 -18 23 7 348 31 423 31 58 0 57 0
-30 -13z m-7260 -74 c-22 -5 -74 -11 -115 -14 l-75 -5 75 13 c41 8 93 13 115
14 l40 0 -40 -8z m7150 -20 c-104 -16 -266 -40 -360 -54 -267 -40 -634 -77
-820 -83 -93 -3 -167 -3 -164 1 3 3 248 38 545 77 296 38 564 74 594 78 30 5
132 9 225 9 l170 0 -190 -28z m-515 14 c-8 -2 -258 -36 -555 -74 -520 -68
-716 -90 -704 -77 11 13 888 139 1014 146 140 9 269 11 245 5z m-6852 -21
c-10 -2 -28 -2 -40 0 -13 2 -5 4 17 4 22 1 32 -1 23 -4z m-213 -24 c-82 -10
-170 -18 -195 -17 -55 1 237 35 300 35 25 1 -22 -8 -105 -18z m6095 -20 c-210
-41 -530 -81 -675 -85 -88 -1 -151 0 -140 3 23 7 797 91 835 91 14 0 5 -4 -20
-9z m-6661 -44 c-16 -15 -441 -55 -427 -40 4 5 76 16 160 25 153 17 276 24
267 15z m401 -4 c-35 -20 -384 -54 -368 -36 9 9 268 42 338 44 29 0 40 -3 30
-8z m1208 4 c-2 -3 -65 -14 -139 -25 -122 -18 -320 -28 -307 -15 6 7 338 42
407 44 24 0 42 -1 39 -4z m4187 0 c-5 -2 -73 -11 -151 -19 -125 -14 -158 -14
-299 0 -88 8 -161 17 -164 19 -2 3 137 5 310 4 173 0 310 -2 304 -4z m2305
-16 c-129 -19 -304 -33 -283 -23 15 7 317 41 368 42 22 0 -16 -9 -85 -19z
m-8840 -85 c-47 -7 -168 -15 -270 -18 -102 -3 -171 -2 -155 1 104 18 258 30
375 30 l135 0 -85 -13z m885 -20 c-137 -18 -259 -33 -270 -33 -11 1 50 16 135
34 124 26 178 33 270 33 l115 0 -250 -34z m700 0 c-408 -66 -574 -84 -764 -83
l-176 1 130 20 c434 67 692 95 855 96 l165 0 -210 -34z m5630 21 c-66 -7 -142
-10 -170 -7 l-50 7 45 6 c25 3 101 6 170 6 l125 0 -120 -12z m1065 9 c-60 -14
-556 -74 -614 -74 -109 1 -63 14 144 43 102 15 196 28 210 30 31 5 281 6 260
1z m400 -14 c-327 -23 -394 -23 -240 0 78 12 175 17 305 17 l190 0 -255 -17z
m-8061 -4 c-12 -12 -273 -44 -574 -71 -164 -14 -434 -21 -423 -10 9 9 242 33
498 50 135 9 281 20 325 25 95 9 180 12 174 6z m6225 -16 c97 0 36 -10 -215
-35 -140 -14 -295 -29 -346 -35 -50 -5 -122 -9 -160 -9 -66 1 -65 2 68 24 124
21 185 28 474 54 50 5 99 7 110 5 11 -2 42 -4 69 -4z m-7626 -47 c-15 -2 -42
-2 -60 0 -18 2 -6 4 27 4 33 0 48 -2 33 -4z m9200 -50 c-10 -2 -28 -2 -40 0
-13 2 -5 4 17 4 22 1 32 -1 23 -4z m-568 -23 c-36 -4 -99 -8 -140 -7 -65 0
-69 1 -30 7 25 4 88 7 140 7 93 0 93 0 30 -7z m-7336 -8 c53 -9 -545 -83 -659
-82 -44 1 -75 4 -68 7 7 2 128 22 270 43 252 37 378 46 457 32z m565 -16 c-6
-6 -616 -48 -636 -44 -44 9 325 45 476 47 90 0 162 -1 160 -3z m5719 -21 c-8
-8 -294 -45 -337 -44 l-36 1 39 9 c69 16 344 44 334 34z m687 0 c-44 -17 -378
-45 -517 -44 -180 1 -180 4 2 29 85 12 190 18 325 18 110 0 196 -1 190 -3z
m524 1 c-2 -3 -59 -14 -125 -25 -88 -15 -160 -21 -265 -20 -158 2 -149 6 66
33 103 13 334 21 324 12z m436 -7 c-82 -4 -190 -9 -240 -12 l-90 -5 60 13 c38
8 127 13 240 12 l180 0 -150 -8z m-2420 -25 c-126 -13 -242 -18 -233 -9 7 7
209 22 293 22 42 0 23 -3 -60 -13z m-6470 -55 c-22 -4 -62 -7 -90 -7 l-50 1
45 7 c25 4 65 7 90 7 l45 1 -40 -9z m820 0 c-16 -4 -168 -33 -337 -64 l-307
-55 -373 1 -373 1 295 39 c388 50 808 85 1035 87 67 0 82 -2 60 -9z m5820 2
c-27 -11 -214 -35 -221 -29 -4 5 179 35 221 36 l20 1 -20 -8z m603 4 c-13 -13
-255 -35 -378 -34 -149 1 -149 4 2 24 101 12 387 20 376 10z m1591 1 c-9 -9
-335 -46 -403 -46 -56 0 -66 2 -57 13 8 10 7 17 -1 25 -9 9 44 12 227 12 131
0 236 -2 234 -4z m-2432 -42 c-3 -3 -12 -4 -19 -1 -8 3 -5 6 6 6 11 1 17 -2
13 -5z m691 -30 c-16 -15 -310 -54 -403 -53 -119 2 -109 4 145 34 204 24 267
29 258 19z m1040 -9 c-7 -7 -364 -45 -412 -44 -61 2 -23 9 157 29 165 18 264
24 255 15z m1642 -16 c-79 -14 -1401 -36 -1388 -23 3 3 44 11 89 18 62 10 247
13 714 13 347 0 610 -3 585 -8z m-8290 -78 c-34 -7 -975 -3 -995 4 -5 2 224 3
510 3 286 0 504 -4 485 -7z m5329 5 c-6 -6 -224 -36 -247 -35 -24 2 175 37
217 38 19 1 32 -1 30 -3z m2416 -1 c-5 -3 -174 -27 -375 -54 -201 -28 -593
-82 -871 -121 l-506 -70 -554 1 -554 1 220 33 c121 18 393 58 605 89 212 31
484 72 605 90 l220 34 610 0 c336 0 606 -1 600 -3z m-9567 -42 c-27 -2 -69 -2
-95 0 -27 2 -5 3 47 3 52 0 74 -1 48 -3z m665 0 c-67 -2 -179 -2 -250 0 -70 1
-15 3 122 3 138 0 195 -2 128 -3z m6214 1 c-3 -3 -12 -4 -19 -1 -8 3 -5 6 6 6
11 1 17 -2 13 -5z m-6222 -44 c-203 -13 -765 -33 -771 -28 -2 3 35 12 83 20
68 12 171 16 448 15 263 0 328 -2 240 -7z m9790 -5 c-5 -3 -73 -18 -150 -35
-110 -25 -189 -34 -365 -45 -261 -17 -245 -16 -239 -10 6 5 492 73 609 84 93
9 161 12 145 6z m-7307 -92 c-10 -2 -28 -2 -40 0 -13 2 -5 4 17 4 22 1 32 -1
23 -4z m-69 -7 c-2 -2 -58 -9 -124 -15 -66 -7 -136 -15 -155 -18 -19 -3 -32
-2 -28 2 11 11 164 33 242 34 38 1 67 -1 65 -3z m6207 -11 c-49 -8 -144 -16
-210 -18 -133 -6 -116 -2 79 18 173 17 249 17 131 0z m-6886 -35 c-119 -28
-330 -49 -330 -32 0 7 265 39 335 40 29 0 29 0 -5 -8z m7235 -36 c-138 -31
-431 -56 -705 -61 -151 -3 -272 -2 -269 1 15 16 311 45 564 56 154 7 282 14
284 16 2 2 45 4 95 3 l91 -1 -60 -14z m-6748 -50 c-3 -3 -12 -4 -19 -1 -8 3
-5 6 6 6 11 1 17 -2 13 -5z m-72 -14 c-16 -4 -43 -8 -60 -8 -29 1 -29 1 5 8
19 4 46 7 60 8 22 0 22 -1 -5 -8z"/>
<path d="M10845 8709 c-171 -24 -873 -120 -2310 -315 -181 -24 -427 -58 -545
-74 -118 -16 -264 -36 -324 -44 -85 -10 -112 -18 -123 -32 -19 -26 -7 -28 102
-15 87 10 623 16 614 7 -2 -3 -103 -16 -224 -31 -121 -14 -294 -35 -385 -46
l-165 -20 -32 -37 c-18 -20 -32 -40 -33 -43 0 -3 107 -4 238 -2 130 1 233 1
227 -2 -16 -7 -397 -45 -457 -45 -46 0 -58 -4 -79 -26 l-24 -26 40 7 c22 4
510 10 1085 14 l1045 7 198 27 c110 15 227 31 260 37 35 5 268 10 535 10 259
0 472 3 473 8 1 15 7 37 14 55 7 16 -7 17 -206 18 -243 2 -221 12 48 24 l172
7 6 30 c4 16 5 31 3 33 -18 17 -355 25 -1100 26 -469 1 -920 4 -1003 8 l-149
6 1153 177 c634 97 1155 178 1156 180 2 2 7 16 11 32 l7 29 -44 -6 c-24 -4
-73 -9 -109 -11 -49 -4 -39 -1 40 12 84 14 105 21 108 35 4 20 24 22 -223 -14z
m-7 -46 c-10 -2 -28 -2 -40 0 -13 2 -5 4 17 4 22 1 32 -1 23 -4z m-80 -10
c-10 -2 -26 -2 -35 0 -10 3 -2 5 17 5 19 0 27 -2 18 -5z m-85 -10 c-7 -2 -19
-2 -25 0 -7 3 -2 5 12 5 14 0 19 -2 13 -5z m-150 -60 c-7 -2 -19 -2 -25 0 -7
3 -2 5 12 5 14 0 19 -2 13 -5z m-63 -9 c-43 -11 -1912 -293 -1950 -295 -71 -3
-467 3 -445 7 11 2 353 44 760 94 407 50 929 115 1160 145 361 45 532 63 475
49z m-885 -349 c110 -2 427 -5 705 -6 630 -2 604 -15 -55 -28 -832 -17 -1424
-39 -1635 -61 -109 -11 -740 -30 -965 -29 l-150 1 360 44 c198 24 428 54 510
67 146 24 162 25 590 21 242 -3 530 -6 640 -9z m775 -78 c-17 -8 -169 -12
-505 -13 -264 0 -455 1 -425 3 31 2 240 7 465 12 226 4 428 8 450 9 38 1 39 0
15 -11z m-621 -91 c-2 -3 -95 -14 -207 -25 -186 -19 -260 -21 -924 -20 -398 1
-715 3 -705 6 11 3 92 13 180 23 140 15 263 18 911 19 412 0 747 -1 745 -3z"/>
</g>
</svg>
