<?xml version="1.0" standalone="no"?>
<!DOCTYPE svg PUBLIC "-//W3C//DTD SVG 20010904//EN"
 "http://www.w3.org/TR/2001/REC-SVG-20010904/DTD/svg10.dtd">
<svg version="1.0" xmlns="http://www.w3.org/2000/svg"
 width="1280.000000pt" height="781.000000pt" viewBox="0 0 1280.000000 781.000000"
 preserveAspectRatio="xMidYMid meet">
<metadata>
Created by potrace 1.15, written by Peter Selinger 2001-2017
</metadata>
<g transform="translate(0.000000,781.000000) scale(0.100000,-0.100000)"
fill="#000000" stroke="none">
<path d="M6545 6555 c-165 -36 -316 -130 -518 -324 -235 -226 -445 -514 -629
-866 l-73 -139 -120 -75 c-66 -41 -244 -154 -396 -252 -151 -97 -285 -181
-296 -187 -19 -11 -20 -8 -22 65 -1 42 -4 79 -6 83 -2 3 1 57 6 120 16 198
-18 415 -87 553 -96 190 -265 336 -474 409 -147 51 -358 69 -565 49 -518 -50
-1032 -281 -1555 -697 -159 -127 -473 -437 -585 -578 -277 -349 -460 -706
-557 -1091 -65 -258 -78 -356 -78 -574 0 -517 186 -928 528 -1167 86 -61 132
-103 143 -133 7 -18 1 -49 -25 -130 -62 -187 -92 -451 -67 -596 30 -175 115
-384 175 -430 59 -45 122 -24 113 38 -2 18 1 31 10 34 25 10 13 46 -38 120
-61 88 -111 195 -133 282 -13 53 -14 81 -5 163 17 170 81 357 135 395 58 41
95 44 221 18 64 -14 172 -30 240 -36 165 -15 657 -6 813 16 324 45 695 171
1015 346 473 259 945 660 1224 1039 172 232 276 468 406 922 51 177 76 277
225 883 34 139 75 279 91 314 35 76 147 189 269 273 384 264 808 684 856 845
10 34 12 58 6 69 -6 10 -5 34 0 61 21 95 -18 164 -103 182 -60 13 -68 13 -144
-4z m153 -71 c13 -9 22 -26 22 -40 0 -21 -3 -23 -19 -14 -62 33 -320 -26 -421
-97 -34 -24 -34 -23 5 13 57 53 141 105 210 131 73 27 170 30 203 7z m-56
-152 l41 -39 -39 -59 c-53 -82 -263 -289 -421 -415 -121 -96 -334 -249 -391
-278 -21 -11 -22 -10 -13 6 5 10 23 48 40 84 102 218 376 551 551 669 120 80
172 87 232 32z m23 -194 c-122 -184 -292 -344 -587 -554 -137 -97 -190 -127
-215 -122 -13 3 4 19 57 55 284 192 634 492 748 641 38 49 36 38 -3 -20z
m-2830 -237 c44 -11 123 -42 174 -67 78 -39 110 -62 182 -133 47 -47 92 -97
99 -111 15 -29 6 -21 -39 38 -56 72 -219 167 -351 205 -193 56 -572 66 -787
21 -18 -3 -33 -4 -33 -1 0 8 174 47 280 63 135 19 371 12 475 -15z m-780 -61
c-11 -5 -27 -9 -35 -9 -9 0 -8 4 5 9 11 5 27 9 35 9 9 0 8 -4 -5 -9z m719 -55
c47 -8 116 -27 152 -41 226 -91 438 -332 471 -536 5 -35 8 -39 15 -23 14 33 0
-242 -17 -337 -8 -47 -25 -125 -38 -172 l-22 -85 -255 -172 c-802 -541 -1382
-989 -1785 -1381 l-176 -171 -47 47 c-76 74 -129 171 -147 270 -6 28 -5 37 4
32 6 -4 11 0 11 10 0 24 29 54 52 54 10 0 44 -24 77 -54 67 -62 113 -80 193
-79 127 2 218 56 263 154 25 54 29 77 29 144 0 95 -26 217 -57 262 -34 51 -89
76 -177 81 -162 9 -296 -63 -395 -212 -58 -87 -77 -155 -85 -301 -10 -205 15
-327 94 -455 59 -95 60 -90 -56 -220 -147 -165 -296 -355 -399 -508 -102 -149
-84 -143 -189 -66 -193 142 -315 340 -347 563 -21 146 -13 452 16 614 81 461
264 868 580 1292 367 493 795 868 1236 1085 371 183 718 254 999 205z m1461
-701 c-11 -8 -49 -39 -85 -69 -57 -48 -208 -145 -470 -303 -94 -56 -90 -54
-90 -48 0 10 647 436 660 436 3 0 -4 -7 -15 -16z m-97 -266 c12 -25 7 -43 -54
-210 -276 -762 -390 -1011 -621 -1366 -430 -660 -990 -1120 -1623 -1332 -371
-124 -788 -153 -1115 -78 -110 25 -165 46 -165 63 0 34 263 396 405 559 61 69
90 94 134 114 60 28 85 29 381 22 109 -3 139 0 232 23 349 86 630 259 964 592
319 318 466 539 684 1025 57 126 85 167 175 251 51 49 422 309 503 354 41 23
84 15 100 -17z m-958 -428 c-19 -16 -118 -86 -220 -155 -102 -69 -220 -150
-262 -180 -43 -31 -78 -53 -78 -51 0 9 577 415 590 415 3 0 -11 -13 -30 -29z
m-37 -205 c8 -8 18 -11 22 -7 15 14 -96 -199 -151 -289 -127 -210 -286 -412
-467 -591 -315 -313 -628 -496 -917 -539 -98 -14 -260 -7 -310 13 l-35 15 65
64 c234 230 831 701 1477 1167 251 181 285 199 316 167z m-533 -189 c0 -3 -15
-14 -32 -26 l-33 -22 30 26 c31 27 35 29 35 22z m-70 -50 c0 -2 -8 -10 -17
-17 -16 -13 -17 -12 -4 4 13 16 21 21 21 13z m-40 -30 c0 -3 -15 -14 -32 -26
l-33 -22 30 26 c31 27 35 29 35 22z m-70 -50 c0 -2 -8 -10 -17 -17 -16 -13
-17 -12 -4 4 13 16 21 21 21 13z m-40 -30 c0 -2 -8 -10 -17 -17 -16 -13 -17
-12 -4 4 13 16 21 21 21 13z m-40 -30 c0 -2 -8 -10 -17 -17 -16 -13 -17 -12
-4 4 13 16 21 21 21 13z m-40 -30 c0 -2 -8 -10 -17 -17 -16 -13 -17 -12 -4 4
13 16 21 21 21 13z m-40 -30 c0 -2 -8 -10 -17 -17 -16 -13 -17 -12 -4 4 13 16
21 21 21 13z m-40 -30 c0 -2 -8 -10 -17 -17 -16 -13 -17 -12 -4 4 13 16 21 21
21 13z m-40 -30 c0 -2 -8 -10 -17 -17 -16 -13 -17 -12 -4 4 13 16 21 21 21 13z
m-1130 -59 c0 -2 -10 -12 -22 -23 l-23 -19 19 23 c18 21 26 27 26 19z m1000
-41 c0 -2 -8 -10 -17 -17 -16 -13 -17 -12 -4 4 13 16 21 21 21 13z m-50 -40
c0 -2 -8 -10 -17 -17 -16 -13 -17 -12 -4 4 13 16 21 21 21 13z m-50 -40 c0 -2
-8 -10 -17 -17 -16 -13 -17 -12 -4 4 13 16 21 21 21 13z m-50 -40 c0 -2 -8
-10 -17 -17 -16 -13 -17 -12 -4 4 13 16 21 21 21 13z m-50 -40 c0 -2 -8 -10
-17 -17 -16 -13 -17 -12 -4 4 13 16 21 21 21 13z m890 -29 c0 -1 -24 -25 -52
-52 l-53 -50 50 53 c46 48 55 57 55 49z m-940 -11 c0 -2 -8 -10 -17 -17 -16
-13 -17 -12 -4 4 13 16 21 21 21 13z m-60 -49 c0 -2 -10 -12 -22 -23 l-23 -19
19 23 c18 21 26 27 26 19z m-60 -50 c0 -2 -10 -12 -22 -23 l-23 -19 19 23 c18
21 26 27 26 19z m950 -3 c0 -3 -60 -64 -132 -136 -219 -214 -394 -347 -573
-433 -141 -69 -216 -86 -390 -92 -172 -6 -212 3 -240 56 l-16 31 43 -7 c24 -5
106 -7 183 -7 117 1 156 6 237 27 259 70 545 243 788 475 98 94 100 96 100 86z
m-1180 -197 c0 -1 -26 -27 -57 -57 l-58 -55 55 58 c50 53 60 62 60 54z m-120
-110 c0 -1 -33 -34 -72 -72 l-73 -70 70 73 c64 67 75 77 75 69z m-360 -380 c0
-2 -10 -12 -22 -23 l-23 -19 19 23 c18 21 26 27 26 19z m-50 -60 c0 -2 -12
-14 -27 -28 l-28 -24 24 28 c23 25 31 32 31 24z m-218 -776 c215 -45 510 -50
803 -16 181 22 181 22 -93 -39 -131 -29 -302 -39 -441 -27 -161 14 -327 54
-372 88 -21 16 -27 23 -14 19 11 -3 63 -14 117 -25z"/>
<path d="M11845 6101 c-285 -102 -721 -482 -1097 -956 -166 -210 -360 -489
-527 -757 l-73 -118 -188 0 -188 0 -16 -25 -16 -25 147 -1 c82 0 168 -4 193
-7 l44 -7 -24 -16 c-14 -9 -49 -28 -78 -43 -44 -22 -51 -30 -42 -41 7 -8 16
-31 20 -51 8 -34 1 -49 -109 -248 -65 -116 -211 -384 -326 -596 -412 -763
-673 -1230 -788 -1415 -152 -244 -401 -533 -620 -721 -366 -314 -710 -430
-1087 -368 -54 9 -105 14 -114 11 -24 -9 -19 -44 8 -62 56 -37 321 -37 502 0
114 23 295 86 421 145 103 48 106 49 68 18 -177 -145 -194 -166 -129 -154 72
14 212 72 321 135 339 194 771 604 1103 1046 132 176 257 367 413 630 71 121
142 237 156 259 32 48 68 73 83 58 5 -5 23 -66 38 -135 58 -257 162 -380 387
-458 144 -50 245 -59 384 -34 348 61 667 309 765 597 30 85 42 227 26 303 -50
243 -107 365 -288 620 -47 66 -103 152 -125 190 -43 78 -84 195 -71 204 5 3
14 29 21 56 20 82 83 204 152 295 35 47 158 177 273 290 237 233 376 390 475
535 128 187 174 303 170 429 -1 45 3 101 9 126 16 64 15 194 -2 235 -22 53
-67 75 -151 74 -40 0 -91 -8 -120 -18z m208 -41 c34 -27 41 -75 22 -155 -45
-196 -252 -452 -660 -815 -211 -188 -388 -369 -440 -449 -54 -83 -107 -246
-121 -367 -12 -110 38 -265 107 -329 31 -30 31 -30 25 -5 -7 24 -6 24 9 -2 30
-54 100 -243 77 -210 -7 11 -10 10 -16 -3 -10 -28 -7 -56 25 -231 28 -150 31
-182 25 -282 -7 -124 -24 -189 -83 -306 -106 -214 -275 -401 -432 -480 -187
-95 -404 -55 -502 93 -43 65 -45 82 -15 148 62 134 140 202 313 274 228 95
322 193 310 322 -9 93 -26 177 -42 208 -52 99 -240 100 -369 2 -93 -72 -86
-69 -76 -31 28 98 470 924 703 1313 269 449 452 698 744 1009 118 126 143 166
106 166 -32 0 -97 -22 -128 -42 -56 -37 59 61 127 108 115 80 236 107 291 64z
m-1861 -3704 c67 -29 131 -44 233 -55 44 -5 71 -9 60 -10 -11 -1 -38 -8 -60
-16 -60 -21 -160 -19 -211 5 -39 19 -139 111 -139 127 0 5 -11 24 -24 43 -21
30 -16 27 32 -18 31 -29 81 -63 109 -76z"/>
<path d="M7505 4276 c-124 -59 -271 -289 -336 -526 -14 -51 -75 -132 -401
-531 l-217 -265 -58 4 c-136 10 -284 -87 -415 -273 -83 -117 -135 -230 -163
-356 -33 -148 -35 -172 -25 -244 13 -83 61 -195 85 -195 10 0 13 5 9 13 -4 6
18 -13 49 -44 82 -81 223 -149 309 -149 17 0 27 -4 23 -10 -4 -6 -50 -9 -116
-7 -127 4 -138 -5 -62 -53 136 -87 314 -108 526 -64 359 74 673 323 757 599
55 183 28 362 -111 712 -119 303 -192 562 -162 581 6 4 14 18 18 32 4 14 74
93 155 175 144 148 224 244 261 317 22 44 25 130 6 150 -9 8 -11 21 -6 33 13
35 10 93 -7 109 -22 22 -61 20 -119 -8z m-407 -748 c-32 -42 -68 -124 -68
-153 0 -32 24 -48 64 -43 31 3 35 1 40 -25 9 -47 7 -97 -6 -120 -8 -15 -14
-123 -19 -332 -8 -348 -9 -356 -86 -510 -175 -351 -459 -570 -715 -552 -131 9
-244 79 -289 182 -18 42 -18 42 3 86 32 68 92 151 137 192 51 46 111 76 234
116 159 53 265 141 283 237 14 75 -16 244 -51 290 -24 31 -25 37 -12 52 7 9
123 151 256 315 133 163 245 297 248 297 3 0 -6 -15 -19 -32z"/>
<path d="M7009 574 c-28 -34 27 -74 105 -74 88 0 212 28 195 44 -2 3 -47 14
-99 25 -115 25 -182 27 -201 5z"/>
</g>
</svg>
