<?xml version="1.0" standalone="no"?>
<!DOCTYPE svg PUBLIC "-//W3C//DTD SVG 20010904//EN"
 "http://www.w3.org/TR/2001/REC-SVG-20010904/DTD/svg10.dtd">
<svg version="1.0" xmlns="http://www.w3.org/2000/svg"
 width="1280.000000pt" height="1280.000000pt" viewBox="0 0 1280.000000 1280.000000"
 preserveAspectRatio="xMidYMid meet">
<metadata>
Created by potrace 1.15, written by Peter Selinger 2001-2017
</metadata>
<g transform="translate(0.000000,1280.000000) scale(0.100000,-0.100000)"
fill="#000000" stroke="none">
<path d="M7435 8833 c-254 -21 -527 -88 -714 -174 -180 -83 -353 -223 -450
-364 -100 -144 -141 -279 -142 -466 0 -170 38 -324 122 -491 61 -122 135 -229
420 -609 345 -463 484 -710 519 -931 18 -110 8 -305 -19 -384 -26 -79 -55
-144 -73 -168 -14 -17 -20 -12 -90 85 -41 57 -124 174 -183 259 -439 629 -792
1016 -1138 1248 -222 148 -490 231 -782 240 -273 8 -491 -39 -730 -158 -279
-138 -491 -336 -646 -601 -153 -262 -228 -604 -201 -911 20 -224 69 -411 154
-586 139 -286 368 -507 682 -658 180 -86 361 -139 622 -181 158 -26 889 -26
1042 -1 508 85 851 232 1281 551 l94 69 116 -119 c145 -149 196 -191 353 -296
138 -93 286 -160 433 -199 76 -19 114 -23 250 -23 143 0 171 3 264 28 142 38
233 77 342 149 239 158 430 409 491 648 31 119 31 300 0 423 -58 234 -165 391
-376 551 -182 138 -533 202 -803 147 -158 -33 -229 -90 -240 -194 -16 -152
132 -265 292 -223 77 20 126 55 155 110 24 45 26 46 71 46 75 0 149 -18 229
-56 102 -48 220 -167 271 -274 67 -138 74 -170 74 -325 0 -111 -4 -151 -19
-195 -44 -128 -114 -238 -220 -344 -59 -59 -93 -83 -177 -124 -57 -28 -131
-58 -164 -67 -79 -20 -272 -20 -350 1 -153 39 -324 128 -460 238 -115 93 -319
301 -312 318 4 7 38 56 77 108 120 163 185 310 226 511 13 65 15 116 11 238
-7 241 -59 414 -197 663 -128 229 -325 508 -540 763 -297 352 -372 454 -439
594 -34 73 -36 81 -36 182 0 103 1 108 38 182 85 167 264 300 526 391 165 58
273 76 476 83 213 7 260 -2 405 -74 78 -39 110 -62 180 -133 88 -87 130 -154
166 -260 27 -78 27 -282 0 -360 -74 -218 -216 -367 -430 -452 -78 -31 -86 -32
-226 -33 -116 0 -156 4 -200 19 -177 60 -331 180 -395 309 -19 38 -35 79 -35
89 0 11 14 38 31 59 34 43 59 113 59 164 0 50 -30 136 -63 182 -98 137 -285
141 -368 7 -34 -56 -39 -192 -10 -296 27 -100 93 -265 142 -356 108 -203 305
-378 506 -452 242 -88 524 -78 752 25 166 76 343 238 438 401 118 201 159 477
105 698 -75 304 -319 586 -602 695 -157 61 -361 83 -585 64z m-2350 -2084
c289 -36 525 -168 812 -457 220 -221 420 -473 708 -892 81 -118 179 -257 217
-308 38 -52 71 -99 74 -106 11 -29 -259 -250 -468 -382 -140 -89 -381 -206
-508 -248 -273 -89 -564 -112 -960 -75 -305 28 -593 107 -769 211 -82 49 -225
190 -288 286 -188 282 -248 672 -158 1028 30 119 139 346 216 447 268 355 704
547 1124 496z"/>
</g>
</svg>
