<?xml version="1.0" standalone="no"?>
<!DOCTYPE svg PUBLIC "-//W3C//DTD SVG 20010904//EN"
 "http://www.w3.org/TR/2001/REC-SVG-20010904/DTD/svg10.dtd">
<svg version="1.0" xmlns="http://www.w3.org/2000/svg"
 width="1174.000000pt" height="1280.000000pt" viewBox="0 0 1174.000000 1280.000000"
 preserveAspectRatio="xMidYMid meet">
<metadata>
Created by potrace 1.15, written by Peter Selinger 2001-2017
</metadata>
<g transform="translate(0.000000,1280.000000) scale(0.100000,-0.100000)"
fill="#000000" stroke="none">
<path d="M7205 12790 c-533 -4 -1445 -12 -2025 -19 -580 -6 -1779 -16 -2665
-21 -1486 -10 -2088 -19 -2337 -36 -95 -6 -97 -7 -102 -33 -77 -371 -104
-11728 -30 -12406 20 -181 40 190 54 975 10 617 26 2619 35 4485 17 3448 35
5816 51 6458 l7 269 29 18 c84 51 449 65 2378 95 3126 47 7556 71 8598 46 329
-8 333 -9 357 -31 30 -28 31 -53 5 -90 -36 -50 -42 -79 -25 -113 26 -52 34
-375 46 -1842 17 -1996 -1 -6361 -32 -7965 -5 -294 -14 -932 -18 -1418 -5
-486 -12 -887 -17 -891 -5 -5 -50 -18 -101 -30 -141 -32 -531 -50 -1583 -71
-617 -13 -1905 -16 -1974 -5 -81 13 -145 88 -103 123 16 14 111 29 227 37 52
3 592 10 1200 15 1121 10 1499 19 1850 45 263 20 317 30 324 60 9 35 25 1119
36 2440 18 2166 49 9566 41 9576 -3 4 -451 3 -996 -2 -544 -5 -1847 -15 -2895
-24 -5752 -47 -7119 -70 -7174 -125 -7 -7 -13 -171 -18 -503 -21 -1464 -46
-9697 -33 -10851 l7 -668 377 6 c922 16 4397 37 5496 34 1137 -3 1212 -4 1243
-21 36 -20 41 -44 13 -74 -51 -54 -312 -61 -2791 -73 -2408 -11 -3914 -26
-4195 -41 -220 -11 -308 -26 -313 -51 -7 -36 27 -39 566 -49 939 -16 6148 -23
8147 -10 1972 13 2363 20 2510 46 94 17 181 40 202 53 39 25 60 407 93 1692
51 2026 59 2764 66 6355 5 2977 -2 4614 -20 4632 -10 10 -3229 12 -4511 3z
m2848 -905 c32 -8 81 -27 110 -41 119 -61 330 -242 368 -317 32 -62 42 -184
30 -377 -21 -329 -73 -472 -237 -651 -111 -120 -154 -171 -154 -183 0 -6 70
-46 155 -89 245 -125 251 -139 169 -387 -73 -222 -118 -280 -216 -280 -25 0
-135 22 -243 50 -242 61 -374 80 -559 80 -259 0 -420 -52 -472 -152 -76 -147
142 -484 436 -674 137 -88 220 -166 220 -207 0 -70 -199 -489 -271 -571 -44
-50 -93 -71 -142 -61 -17 4 -70 28 -117 53 -175 94 -193 102 -232 102 -51 0
-92 -22 -107 -57 -6 -15 -15 -62 -21 -103 -12 -97 -33 -161 -84 -254 -103
-189 -295 -376 -481 -469 -137 -68 -318 -93 -470 -64 -262 49 -476 208 -586
432 -59 121 -79 202 -79 320 0 146 37 252 119 338 88 93 221 137 349 116 77
-12 125 -48 195 -144 90 -125 137 -226 137 -294 0 -122 -94 -237 -260 -321
l-95 -48 50 -8 c175 -27 435 25 615 124 89 49 206 168 252 257 74 142 106 341
88 535 -28 295 -156 522 -418 740 -206 172 -366 267 -899 534 l-373 186 -462
0 c-669 0 -800 -13 -1091 -110 -469 -156 -1014 -456 -1242 -685 -118 -117
-257 -329 -391 -595 -138 -277 -174 -392 -174 -566 0 -459 134 -864 354 -1072
165 -156 291 -166 2002 -163 1294 2 1398 -1 1854 -60 224 -29 389 -56 1220
-195 1257 -211 1310 -222 1640 -331 114 -38 115 -38 124 -75 6 -25 3 -84 -12
-200 -31 -239 -45 -407 -72 -853 -14 -231 -45 -545 -70 -705 -25 -165 -149
-600 -226 -790 -10 -25 -28 -61 -41 -81 -13 -20 -28 -62 -33 -95 -25 -161
-306 -563 -682 -980 -222 -246 -437 -426 -713 -596 -346 -214 -613 -325 -1023
-428 -766 -191 -1166 -248 -1667 -237 -349 8 -627 42 -1195 148 -756 141
-1006 209 -1450 396 -708 298 -954 337 -1325 211 -154 -52 -345 -174 -345
-219 0 -28 36 -38 174 -48 170 -12 275 -52 368 -139 124 -116 121 -232 -10
-374 -58 -63 -148 -131 -220 -167 -76 -39 -184 -56 -352 -56 -148 0 -158 1
-213 27 -102 48 -253 210 -320 344 -47 94 -60 165 -54 309 4 105 11 150 35
236 86 296 207 468 419 594 110 65 163 103 163 116 0 15 -99 66 -250 130 -80
34 -146 63 -148 64 -5 5 148 267 199 340 53 77 154 204 221 278 l43 48 185
-100 c232 -126 383 -191 461 -198 51 -5 60 -3 82 19 66 66 59 224 -14 371 -66
129 -115 170 -229 188 -84 13 -211 56 -275 94 -91 53 -106 108 -55 204 62 115
286 362 359 394 62 27 115 20 301 -43 205 -70 213 -69 437 38 338 161 670 234
950 211 134 -11 216 -52 323 -158 135 -134 187 -267 177 -456 -6 -115 -25
-182 -72 -246 -47 -65 -107 -93 -188 -87 -96 6 -159 42 -291 168 -123 117
-183 153 -281 171 -186 34 -443 -81 -505 -227 -30 -69 -43 -176 -36 -284 30
-437 258 -799 649 -1032 92 -55 528 -257 708 -329 315 -125 752 -188 1219
-176 752 20 1641 216 2052 453 521 300 1096 1014 1264 1569 61 203 26 482
-107 835 -47 126 -84 188 -125 212 -137 80 -729 210 -1085 239 -171 14 -602 6
-884 -15 -478 -37 -647 -32 -1420 36 -413 36 -505 41 -755 42 -262 0 -312 -3
-620 -37 -395 -43 -1093 -107 -1182 -107 -10 0 -100 280 -142 440 -45 173 -53
209 -137 663 -117 637 -132 766 -133 1147 -1 370 23 558 100 790 126 378 422
962 627 1235 364 487 1397 1103 2092 1248 611 128 1572 84 2200 -100 399 -117
600 -146 1010 -147 356 0 638 32 940 108 237 60 327 107 465 246 143 143 243
328 271 499 10 62 10 73 -5 96 -21 32 -42 27 -109 -26 -74 -58 -137 -63 -236
-16 -196 92 -226 381 -51 492 42 26 126 53 170 54 14 1 52 -6 83 -14z m-6271
-34 c107 -14 149 -41 284 -176 304 -306 331 -467 131 -765 -131 -193 -261
-280 -422 -280 -125 0 -214 40 -252 113 -20 40 -13 134 15 199 67 153 216 210
361 137 51 -26 75 -47 134 -120 39 -49 74 -89 77 -89 12 0 43 259 37 318 -15
171 -147 305 -375 381 -77 26 -134 26 -242 1 -338 -81 -501 -205 -615 -471
-20 -46 -63 -183 -96 -304 -66 -241 -115 -359 -193 -462 -80 -106 -193 -187
-337 -243 -100 -38 -322 -96 -423 -110 -50 -6 -97 -20 -130 -38 -116 -62 -270
-245 -335 -398 -101 -238 -88 -596 30 -842 33 -68 56 -99 130 -171 59 -59 89
-96 89 -111 0 -20 -4 -22 -37 -17 -54 9 -175 70 -222 112 -150 135 -291 458
-291 665 0 164 40 365 100 496 46 102 127 217 242 343 147 162 258 294 258
309 0 23 -53 34 -205 43 -264 16 -333 35 -302 83 19 30 137 107 204 134 32 13
87 27 123 32 84 12 105 34 95 100 -10 66 -62 196 -150 371 -205 411 -335 697
-335 739 0 50 97 3 256 -125 51 -41 179 -157 285 -257 251 -240 399 -364 413
-346 2 2 18 32 36 68 39 79 121 198 207 302 151 183 174 166 178 -127 2 -195
9 -247 32 -267 23 -19 48 18 77 116 14 45 43 109 64 142 115 176 354 379 525
444 156 61 415 92 579 71z m2813 -2190 c48 -22 100 -77 162 -174 206 -320 433
-817 433 -948 0 -97 -78 -152 -166 -118 -16 5 -60 34 -99 64 -129 97 -231 135
-369 135 -108 0 -191 -22 -321 -85 -118 -57 -212 -123 -369 -259 -144 -125
-239 -185 -273 -172 -19 8 -16 58 8 118 52 133 162 266 295 356 51 34 279 160
359 198 30 14 -251 17 -365 4 -350 -41 -551 -106 -723 -232 -217 -161 -389
-467 -456 -813 -54 -278 -54 -520 -1 -585 41 -49 63 -110 57 -158 -6 -53 -35
-87 -66 -77 -68 21 -200 168 -223 248 -23 83 -32 86 -263 97 -204 9 -269 26
-335 86 -72 65 -108 211 -97 389 7 109 21 155 49 155 26 0 52 -61 79 -188 28
-130 62 -192 124 -222 57 -27 108 -22 180 19 133 76 231 204 264 346 12 50 54
164 93 255 78 181 103 260 87 271 -19 11 -120 -11 -290 -66 -94 -30 -180 -55
-190 -55 -45 0 -6 89 120 277 157 233 348 451 486 553 333 247 685 331 1251
299 117 -6 224 -9 238 -5 38 9 55 43 67 137 14 102 31 146 61 159 40 16 150
11 193 -9z m4347 -361 c-1 -13 -20 -62 -42 -110 -78 -175 -134 -487 -133 -755
0 -135 13 -186 83 -326 79 -155 111 -349 91 -543 -14 -130 -52 -311 -88 -411
-98 -273 -201 -342 -705 -471 -292 -74 -412 -71 -700 17 -238 72 -402 184
-513 350 -48 72 -69 139 -44 139 20 0 83 -44 159 -110 137 -120 254 -183 419
-226 114 -29 306 -45 404 -33 108 14 161 45 271 159 225 235 328 421 305 554
-14 86 -69 84 -244 -9 -66 -35 -140 -68 -164 -75 -132 -35 -451 18 -451 75 0
17 12 20 135 34 155 18 294 107 400 255 59 83 79 134 111 273 66 295 238 682
425 959 72 105 249 289 272 281 7 -2 11 -15 9 -27z m-8957 -229 c88 -42 139
-116 155 -229 17 -122 -15 -245 -80 -310 -86 -87 -213 -111 -304 -58 -84 49
-128 143 -129 276 -2 102 17 164 71 235 72 96 190 131 287 86z m-435 -1187
c41 -12 67 -29 110 -72 61 -62 190 -249 190 -276 0 -9 -23 -67 -51 -129 -218
-478 -239 -548 -239 -797 0 -141 16 -253 59 -420 79 -304 113 -533 115 -775 1
-164 -1 -186 -22 -250 -55 -165 -146 -321 -232 -399 -71 -64 -227 -124 -378
-146 -75 -11 -87 -10 -154 10 -162 49 -331 147 -402 233 -19 24 -52 79 -73
122 -32 67 -38 90 -38 145 0 61 5 75 77 220 122 246 204 322 351 323 84 0 117
-14 173 -73 97 -102 160 -254 151 -365 -6 -80 -32 -135 -108 -225 -32 -39 -59
-75 -59 -80 0 -32 73 -35 210 -8 196 38 320 215 321 458 0 117 -29 251 -123
559 -105 347 -131 498 -132 751 0 197 15 304 65 463 19 58 29 107 25 121 -4
18 -25 33 -79 59 -44 21 -87 51 -109 75 -70 77 -86 203 -43 326 29 83 70 137
116 153 50 18 215 16 279 -3z m4910 -61 c105 -51 265 -209 310 -305 38 -81 49
-201 31 -342 -14 -119 -39 -168 -108 -213 -76 -51 -138 -55 -213 -16 -30 16
-61 40 -69 54 -13 23 -10 32 34 121 42 85 48 105 49 165 2 115 -55 189 -164
212 -89 19 -184 -15 -234 -82 -18 -24 -21 -43 -21 -115 0 -101 26 -175 66
-187 39 -12 59 -36 59 -69 0 -59 -36 -79 -140 -80 -134 0 -236 69 -277 187
-28 80 -24 232 9 319 37 99 85 172 154 238 78 72 152 115 246 140 102 28 171
21 268 -27z m-78 -490 c33 -30 22 -85 -23 -108 -59 -31 -139 -9 -139 38 1 63
115 113 162 70z m-1379 -2169 c100 -34 160 -138 213 -367 61 -269 106 -379
186 -454 124 -116 299 -208 484 -253 52 -13 66 -42 66 -139 1 -180 -37 -186
-461 -71 -89 24 -154 26 -171 5 -20 -24 22 -91 131 -213 115 -129 227 -217
332 -261 42 -17 158 -49 258 -72 l183 -40 22 23 c12 13 73 79 135 148 276 303
302 348 344 598 31 177 48 232 83 267 26 26 30 27 108 22 146 -9 174 -41 174
-203 0 -127 -27 -256 -101 -480 -66 -203 -71 -229 -36 -218 98 30 202 141 328
351 258 430 635 700 949 680 224 -14 430 -157 440 -304 5 -76 0 -103 -29 -135
-54 -61 -126 -38 -249 77 -101 94 -119 105 -167 105 -87 0 -246 -112 -436
-307 -194 -200 -405 -478 -397 -522 4 -19 75 -37 223 -56 143 -19 193 -31 261
-60 139 -61 187 -175 124 -298 -41 -81 -74 -85 -218 -28 -198 79 -379 97 -877
87 -330 -7 -457 -15 -470 -28 -11 -11 43 -100 117 -194 94 -119 165 -228 178
-272 8 -31 7 -41 -9 -62 -30 -42 -78 -63 -140 -64 -86 -1 -143 36 -291 185
-193 195 -302 292 -577 517 -338 275 -326 266 -360 258 -35 -9 -72 -49 -215
-228 -139 -173 -191 -226 -285 -288 -163 -107 -418 -181 -679 -197 -127 -7
-140 -1 -149 69 -4 29 -13 82 -21 118 -8 36 -12 75 -9 88 8 34 80 63 294 122
215 59 345 111 458 186 202 134 342 365 343 564 0 116 -17 209 -115 610 -46
190 -93 394 -104 453 -23 116 -27 246 -11 278 13 24 77 26 143 3z m980 -126
c26 -14 35 -45 42 -154 11 -172 37 -230 124 -285 77 -49 118 -39 238 59 82 66
94 104 78 259 -11 110 -8 113 109 113 105 0 156 -18 199 -69 72 -86 56 -230
-44 -398 -52 -85 -169 -205 -237 -241 -183 -97 -485 -94 -612 6 -56 45 -113
139 -150 248 -29 85 -34 116 -38 217 -4 110 -3 121 22 170 26 54 50 75 101 88
35 9 142 1 168 -13z m376 -94 c39 -33 40 -66 3 -104 -58 -57 -164 -59 -178 -3
-9 35 12 99 39 118 35 24 100 19 136 -11z m4613 -1006 c6 -78 -9 -245 -29
-334 -23 -101 -21 -217 7 -454 32 -267 20 -430 -44 -574 -64 -145 -222 -327
-323 -373 -71 -33 -187 -42 -301 -23 -154 24 -207 69 -199 168 6 78 67 191
203 372 238 318 303 431 354 620 71 263 256 650 310 650 15 0 19 -10 22 -52z
m-938 -1809 c206 -69 403 -186 598 -353 152 -130 268 -293 268 -375 0 -62 20
-111 63 -158 40 -43 41 -46 22 -59 -26 -19 -220 -18 -303 1 -132 31 -254 113
-456 306 -184 176 -264 285 -321 434 -5 14 -13 -8 -30 -80 -49 -212 -118 -323
-293 -468 -273 -226 -424 -277 -824 -277 -251 0 -452 26 -514 66 -56 38 -25
55 167 94 366 75 523 161 794 434 239 240 333 312 492 377 101 41 163 75 163
90 0 18 56 8 174 -32z"/>
<path d="M2255 10653 c-63 -13 -185 -152 -185 -210 0 -45 127 -163 176 -163
33 0 107 46 170 105 73 69 78 88 40 163 -47 92 -109 124 -201 105z m66 -151
c15 -13 22 -30 22 -51 0 -66 -76 -98 -123 -51 -63 63 31 158 101 102z"/>
</g>
</svg>
