<?xml version="1.0" standalone="no"?>
<!DOCTYPE svg PUBLIC "-//W3C//DTD SVG 20010904//EN"
 "http://www.w3.org/TR/2001/REC-SVG-20010904/DTD/svg10.dtd">
<svg version="1.0" xmlns="http://www.w3.org/2000/svg"
 width="905.000000pt" height="1280.000000pt" viewBox="0 0 905.000000 1280.000000"
 preserveAspectRatio="xMidYMid meet">
<metadata>
Created by potrace 1.15, written by Peter Selinger 2001-2017
</metadata>
<g transform="translate(0.000000,1280.000000) scale(0.100000,-0.100000)"
fill="#000000" stroke="none">
<path d="M4325 10634 c-142 -12 -541 -56 -592 -65 -167 -30 -400 -103 -753
-237 -392 -148 -568 -193 -772 -195 -109 -2 -130 0 -145 15 -14 15 -16 24 -7
57 13 46 4 61 -35 61 -39 -1 -105 -34 -129 -65 -30 -37 -30 -126 -2 -173 35
-57 95 -77 230 -76 181 0 263 29 700 239 151 73 317 149 367 169 86 34 216 66
266 66 36 -1 -56 -53 -310 -177 -301 -146 -440 -249 -624 -460 -222 -252 -246
-299 -347 -658 -67 -238 -76 -308 -71 -560 12 -619 2 -832 -47 -994 -31 -107
-120 -156 -172 -96 -12 14 -27 25 -33 25 -59 0 -68 -85 -16 -170 62 -104 154
-124 282 -61 79 39 130 83 158 134 20 39 22 53 20 202 -3 189 -14 271 -55 425
-30 111 -32 124 -36 355 -4 261 8 468 38 654 22 135 56 239 73 222 7 -7 1 -76
-21 -228 -36 -250 -52 -428 -52 -587 0 -103 4 -124 50 -288 125 -444 217 -629
441 -883 170 -193 540 -491 816 -658 352 -213 488 -310 595 -426 68 -73 101
-139 106 -211 3 -49 1 -58 -22 -79 -16 -15 -26 -35 -26 -52 0 -24 9 -32 62
-58 81 -41 126 -41 167 0 61 60 63 146 8 258 -31 65 -231 264 -357 355 -272
198 -350 258 -345 267 4 5 -1 6 -9 3 -8 -3 -23 3 -33 13 -10 10 -28 20 -38 21
-48 9 -230 106 -330 177 -139 97 -295 222 -295 236 0 6 -4 8 -8 5 -5 -3 -48
33 -98 80 -49 47 -80 80 -68 75 11 -5 37 -28 57 -50 19 -21 37 -37 40 -35 2 3
16 -9 30 -25 13 -16 27 -28 30 -25 2 3 14 -7 26 -22 11 -15 21 -24 21 -20 0 3
37 -22 83 -55 82 -61 105 -79 78 -64 -10 5 -12 4 -7 -4 4 -6 12 -9 17 -6 5 4
28 -7 51 -23 24 -16 59 -37 78 -47 19 -10 50 -31 68 -46 18 -16 66 -47 107
-70 41 -22 75 -44 75 -48 0 -4 6 -8 14 -8 8 0 43 -13 78 -28 35 -16 101 -43
148 -61 47 -18 79 -33 72 -34 -7 0 -29 7 -49 15 -44 19 -43 19 -43 -4 0 -38
89 -83 354 -180 88 -32 259 -89 380 -126 238 -73 289 -93 476 -183 69 -33 141
-66 159 -73 78 -30 232 -203 287 -323 25 -56 26 -61 23 -239 l-2 -182 65 -136
c72 -150 121 -213 177 -230 58 -17 88 0 96 55 4 25 11 43 16 40 5 -3 9 3 9 13
0 27 68 -142 85 -212 26 -107 17 -163 -35 -210 -12 -11 -30 -36 -41 -56 -17
-35 -17 -37 0 -53 10 -9 22 -16 28 -16 20 0 110 110 142 173 17 34 41 100 52
147 18 72 21 103 16 220 -8 211 -66 397 -171 543 -87 123 -336 345 -531 475
-107 71 -374 212 -401 212 -10 0 -15 2 -12 5 8 9 327 -77 450 -121 179 -64
523 -261 688 -393 311 -251 521 -534 586 -789 53 -209 14 -487 -97 -703 -83
-160 -183 -235 -301 -227 -56 4 -61 7 -117 62 -59 58 -59 58 -95 46 -44 -14
-83 -59 -92 -105 -15 -81 26 -139 133 -192 70 -35 84 -38 157 -38 98 1 164 27
243 99 191 173 308 484 288 771 -22 324 -131 604 -340 870 -72 92 -223 242
-307 304 -32 24 -58 48 -57 55 0 7 2 6 6 -2 2 -6 9 -10 14 -6 5 3 12 -2 15
-10 3 -9 10 -13 15 -10 5 3 12 -2 15 -10 3 -9 9 -14 13 -12 4 3 18 -5 31 -16
14 -11 19 -16 11 -12 -9 4 -12 3 -7 -4 4 -6 12 -9 19 -6 7 2 53 -28 102 -68
382 -307 646 -705 731 -1098 25 -118 26 -381 0 -498 -115 -535 -534 -998
-1021 -1129 -92 -25 -116 -27 -295 -27 -228 -1 -304 12 -429 75 -91 45 -145
99 -162 161 -9 35 -8 56 5 113 35 149 10 196 -111 211 -56 7 -73 24 -64 62 9
42 23 59 63 75 47 20 74 58 59 85 -12 22 -89 52 -135 52 -42 0 -110 -36 -139
-73 -37 -49 -83 -146 -97 -206 -25 -106 6 -262 70 -356 85 -123 255 -241 443
-305 43 -14 74 -30 70 -34 -4 -4 5 -4 21 0 23 5 27 4 21 -6 -6 -10 -4 -12 9
-7 9 4 38 4 63 0 37 -5 43 -8 28 -14 -12 -5 0 -6 30 -3 40 4 46 3 32 -6 -23
-15 -69 -10 -220 23 -193 43 -383 155 -562 332 -191 189 -309 387 -367 622
-33 130 -32 348 0 453 72 229 184 338 357 348 58 3 90 0 117 -11 45 -19 53
-42 45 -133 -4 -60 -3 -66 22 -85 23 -18 36 -21 106 -17 99 5 173 41 214 102
23 35 26 50 26 125 0 69 -5 94 -22 126 -62 115 -215 184 -383 172 -300 -21
-557 -290 -630 -661 -17 -84 -15 -268 4 -368 75 -397 354 -746 766 -957 252
-129 519 -177 737 -132 56 12 115 26 130 33 l28 11 -25 7 c-19 6 -14 8 26 9
95 2 287 64 459 150 219 108 381 218 517 349 320 309 478 645 478 1016 0 255
-99 591 -220 746 -15 19 -44 65 -65 103 -28 51 -33 67 -21 67 10 0 13 -6 10
-15 -5 -11 1 -15 17 -15 19 0 21 2 9 10 -34 22 5 8 47 -17 39 -23 59 -27 146
-30 93 -3 104 -6 150 -35 71 -45 82 -35 81 73 -1 147 -41 201 -247 337 l-129
85 28 15 c95 48 85 103 -40 227 -116 116 -244 187 -485 269 -281 96 -419 125
-634 131 -128 3 -174 8 -222 24 -33 12 -48 19 -33 16 14 -3 28 -1 30 3 2 5
103 19 226 31 237 24 315 42 432 101 65 33 73 41 64 64 -9 23 -38 37 -119 58
-38 9 -52 15 -30 12 25 -3 35 -1 27 4 -9 6 7 12 48 16 47 6 88 21 168 62 110
57 198 80 249 65 16 -5 48 -18 71 -30 44 -23 71 -21 92 4 17 21 -32 94 -119
178 -166 160 -411 208 -650 128 -72 -25 -108 -31 -153 -29 l-60 3 41 30 c35
26 41 35 41 68 0 80 -97 126 -240 114 -184 -15 -635 -149 -853 -251 -75 -36
-396 -134 -496 -151 -97 -17 -239 -19 -261 -4 -11 8 3 9 50 5 42 -3 56 -2 40
4 -22 7 -20 8 15 9 68 2 166 21 204 40 20 10 54 21 76 24 68 11 160 64 240
139 97 90 133 152 160 272 6 28 7 28 55 23 30 -4 85 -25 149 -59 89 -46 110
-53 172 -56 69 -4 159 12 159 29 0 13 -23 22 -230 94 -253 87 -382 140 -549
225 -243 123 -381 229 -427 325 -44 92 -28 172 52 257 72 77 96 157 59 198
-18 20 -55 34 -116 44 -57 10 -73 27 -65 69 9 48 44 88 109 125 82 47 113 95
81 127 -40 39 -163 -14 -253 -110 -62 -66 -138 -202 -165 -294 -22 -76 -21
-194 4 -274 41 -131 163 -275 330 -386 108 -72 409 -221 447 -221 33 0 93 -29
101 -48 8 -21 -39 -59 -91 -73 -57 -15 -164 -7 -207 17 -26 14 -55 19 -115 18
l-80 0 -175 -91 c-96 -51 -211 -104 -255 -120 -72 -24 -94 -27 -215 -27 -94
-1 -158 5 -210 17 -130 30 -434 133 -438 148 -3 11 -2 11 6 1 5 -7 15 -10 23
-7 8 3 59 -4 113 -15 l98 -20 107 45 c128 54 255 125 295 165 28 28 29 30 13
48 -15 17 -23 18 -61 9 -49 -11 -69 -4 -173 62 -59 38 -77 40 -313 26 -124 -7
-154 -5 -205 9 -201 59 -366 232 -462 484 -56 150 -93 354 -92 507 1 131 59
377 116 490 42 82 103 153 155 179 59 29 131 34 162 11 34 -26 91 -19 130 15
26 23 41 29 67 26 32 -3 34 -6 39 -47 7 -60 15 -69 60 -69 49 0 84 39 99 110
14 63 14 67 0 131 -23 107 -111 164 -254 164 -74 0 -86 -3 -152 -38 -165 -89
-333 -260 -412 -421 -84 -172 -115 -312 -116 -526 0 -126 4 -172 22 -245 12
-49 24 -119 28 -155 5 -60 4 -63 -9 -40 -53 95 -96 310 -96 487 0 484 233 935
610 1184 151 100 339 147 540 135 147 -9 231 -29 329 -77 86 -42 153 -102 327
-289 44 -48 72 -69 103 -78 127 -39 177 62 76 154 -51 47 -58 80 -23 110 15
13 18 14 10 3 -11 -14 -9 -17 13 -21 22 -5 24 -3 13 11 -9 11 -6 11 9 -2 12
-10 38 -51 59 -90 45 -86 95 -141 198 -220 91 -69 115 -111 116 -198 0 -45 4
-60 23 -77 13 -12 33 -22 46 -22 120 0 241 245 229 466 -4 74 -9 93 -51 176
-25 51 -49 105 -52 121 -6 24 -5 26 11 20 17 -6 18 -5 4 12 -17 21 58 -34 230
-171 255 -202 424 -429 485 -649 22 -80 31 -265 16 -336 -29 -137 -125 -270
-144 -198 -5 19 -10 21 -44 14 -55 -10 -82 -31 -105 -82 -17 -39 -20 -61 -16
-142 4 -83 2 -101 -14 -129 -27 -44 -56 -49 -129 -22 l-60 23 -21 -20 -20 -21
42 -56 c23 -31 47 -56 54 -57 6 0 32 -4 59 -8 110 -18 234 29 336 128 69 68
110 129 150 225 46 110 55 189 42 379 -27 419 -99 566 -454 933 l-146 151 -10
62 c-11 70 -11 68 -64 139 -48 63 -138 137 -249 203 -103 61 -86 71 48 28 279
-88 514 -256 594 -424 15 -33 36 -87 46 -120 23 -76 100 -156 197 -204 74 -37
161 -122 153 -150 -18 -63 -17 -97 3 -116 18 -16 26 -17 59 -7 20 6 62 32 93
56 133 104 147 262 36 399 -44 54 -60 84 -48 91 5 4 23 -11 40 -32 43 -55 93
-86 227 -143 303 -128 399 -202 520 -395 25 -40 54 -76 64 -79 56 -18 116
-139 165 -330 45 -174 52 -263 31 -385 -30 -171 -78 -282 -156 -361 -80 -80
-200 -100 -298 -50 -58 29 -137 121 -162 189 -54 141 -63 324 -20 415 27 58
94 104 237 165 56 24 114 55 128 69 61 62 54 177 -16 256 -21 25 -39 55 -39
67 0 37 -27 76 -94 135 -74 64 -77 64 -141 -6 -112 -124 -234 -563 -235 -845
0 -267 155 -521 361 -589 72 -24 218 -17 275 13 51 26 117 99 190 208 46 69
59 99 79 184 14 56 28 145 31 199 26 397 -217 876 -635 1248 -98 88 -311 251
-506 388 -132 93 -137 93 190 3 392 -107 491 -129 610 -135 94 -5 122 -2 192
17 148 40 212 103 213 207 0 52 -25 73 -90 73 -39 0 -56 -8 -129 -60 -116 -84
-180 -103 -341 -103 -165 0 -246 17 -552 112 -476 148 -849 233 -1218 276
-130 16 -587 28 -695 19z m499 -223 c4 -5 -3 -7 -14 -4 -23 6 -26 13 -6 13 8
0 17 -4 20 -9z m-623 -124 c151 -40 251 -100 279 -167 16 -37 12 -41 -42 -47
-35 -4 -50 0 -83 23 -123 84 -355 158 -629 200 -29 4 -36 8 -25 15 8 5 100 7
209 6 170 -4 207 -7 291 -30z m1886 -369 c-3 -8 -6 -5 -6 6 -1 11 2 17 5 13 3
-3 4 -12 1 -19z m-3757 -624 c0 -8 -5 -12 -10 -9 -6 4 -8 11 -5 16 9 14 15 11
15 -7z m3454 -2521 c4 -4 15 -8 24 -8 28 0 20 -38 -11 -53 -107 -51 -841 -99
-812 -53 8 13 168 41 325 56 82 8 184 25 235 39 88 24 223 35 239 19z m346
-833 c0 -5 -22 5 -50 22 -27 17 -50 33 -50 35 0 2 23 -8 50 -22 28 -14 50 -30
50 -35z m-263 -842 c-3 -8 -6 -5 -6 6 -1 11 2 17 5 13 3 -3 4 -12 1 -19z
m-199 -2255 c-10 -2 -28 -2 -40 0 -13 2 -5 4 17 4 22 1 32 -1 23 -4z"/>
<path d="M7447 9899 c-38 -4 -98 -17 -135 -28 -74 -22 -402 -176 -402 -188 0
-5 12 -21 26 -37 21 -24 30 -27 58 -22 18 3 59 22 92 42 147 89 225 114 365
114 80 0 89 -2 127 -30 40 -29 41 -31 44 -97 3 -63 5 -69 31 -81 92 -44 214
79 193 194 -15 76 -78 114 -221 135 -68 10 -82 10 -178 -2z"/>
<path d="M6106 9887 c3 -10 9 -15 12 -12 3 3 0 11 -7 18 -10 9 -11 8 -5 -6z"/>
<path d="M3490 9709 c-84 -22 -126 -53 -116 -87 4 -11 21 -26 39 -31 34 -11
60 -7 129 23 49 21 198 22 238 1 30 -15 54 -66 65 -140 12 -77 24 -103 56
-114 23 -8 39 -7 70 5 46 19 53 38 47 124 -6 80 -42 132 -123 176 -120 66
-262 81 -405 43z"/>
<path d="M2847 9166 c-16 -15 -35 -55 -52 -107 -24 -75 -28 -104 -32 -264 -8
-312 31 -458 167 -622 111 -134 253 -234 380 -268 206 -55 500 36 556 172 20
47 17 141 -7 219 -59 190 -230 205 -336 30 -27 -43 -22 -60 20 -76 62 -22 82
-36 91 -61 22 -64 -19 -107 -125 -129 -147 -32 -336 34 -448 156 -107 117
-181 292 -197 467 -8 93 7 166 57 270 43 91 62 195 39 222 -20 24 -83 19 -113
-9z"/>
<path d="M6223 7789 c-52 -25 -66 -47 -83 -127 -27 -130 0 -200 151 -386 93
-116 93 -116 136 -116 42 0 43 1 37 27 -4 15 -29 54 -56 87 -108 134 -123 221
-51 306 23 28 30 30 90 30 l65 0 -4 55 c-5 62 -28 94 -90 126 -51 26 -140 25
-195 -2z"/>
<path d="M7308 7356 c-66 -18 -112 -57 -145 -123 -26 -54 -28 -66 -27 -173 1
-139 21 -206 126 -440 87 -193 125 -304 134 -398 7 -73 6 -74 -14 -61 -23 14
-47 45 -182 227 -95 129 -197 237 -260 277 -55 35 -112 48 -144 34 -25 -12
-35 -29 -17 -29 16 0 185 -162 246 -235 32 -38 79 -92 104 -119 25 -27 -17 4
-94 70 -165 141 -200 168 -280 217 -66 41 -82 44 -110 23 -17 -12 -18 -16 -5
-32 8 -10 137 -124 285 -254 155 -135 293 -265 323 -303 185 -232 336 -653
371 -1033 12 -124 1 -327 -25 -481 -113 -668 -550 -1271 -1144 -1577 -141 -73
-418 -158 -695 -213 -111 -22 -470 -24 -610 -4 -174 26 -336 86 -445 166 -151
111 -323 365 -339 502 -13 110 -112 257 -204 305 -81 41 -292 63 -331 35 -18
-13 -17 -19 23 -138 22 -68 41 -127 41 -132 0 -4 -8 -7 -17 -7 -47 0 -239 255
-290 385 -23 61 -27 85 -27 180 -1 124 21 205 55 205 23 0 27 7 35 60 l7 43
-32 -6 c-72 -15 -164 -120 -237 -272 -61 -125 -87 -231 -79 -320 9 -91 38
-208 80 -318 36 -92 36 -120 1 -115 -15 2 -25 15 -35 46 -15 48 -48 75 -83 70
-21 -3 -23 -8 -22 -63 1 -101 36 -156 209 -333 86 -89 139 -149 125 -144 -51
19 -134 74 -290 192 -188 142 -256 217 -330 365 -60 122 -87 216 -101 360 -14
131 -5 177 45 233 77 85 85 143 29 197 -40 39 -37 38 -151 35 l-83 -2 16 38
c8 22 24 46 34 54 11 8 36 28 56 44 20 16 43 44 51 62 30 71 8 181 -45 228
-34 31 -60 78 -72 134 -9 42 -8 62 6 108 29 100 1 128 -83 85 -71 -36 -233
-224 -289 -336 -67 -131 -76 -170 -82 -345 l-6 -165 -19 119 c-24 150 -18 398
14 548 65 311 191 491 401 573 32 13 71 32 86 43 16 11 42 23 59 26 49 11 139
110 163 178 11 32 38 94 61 137 23 44 39 85 35 91 -9 15 -63 12 -112 -6 -58
-22 -136 -9 -141 23 -6 38 77 65 305 98 196 29 314 12 456 -62 86 -45 194
-145 232 -214 26 -48 30 -63 29 -134 -2 -112 -29 -180 -104 -255 -142 -142
-371 -210 -703 -210 -221 1 -328 21 -422 81 -45 28 -52 30 -86 20 -44 -13 -58
-39 -32 -59 43 -32 179 -94 259 -117 307 -89 703 -60 969 70 156 76 266 185
316 313 19 47 23 77 23 172 1 99 -2 122 -22 164 -83 181 -324 312 -664 362
-320 47 -583 -47 -842 -300 -92 -90 -183 -212 -236 -319 -23 -45 -50 -91 -60
-102 -51 -55 -105 -216 -141 -420 -27 -161 -30 -508 -5 -667 17 -109 73 -327
100 -392 8 -20 13 -36 12 -36 -5 0 -125 217 -165 297 -17 34 -55 133 -84 220
-63 185 -89 246 -136 328 -44 78 -185 219 -242 244 -55 24 -128 35 -175 27
-45 -9 -109 -67 -124 -112 -17 -52 -6 -80 44 -109 49 -28 85 -24 106 15 8 15
21 20 51 20 122 0 163 -53 443 -571 365 -675 375 -693 436 -774 152 -203 399
-445 539 -528 42 -25 87 -58 101 -73 l25 -27 -40 7 c-114 19 -273 128 -680
466 -411 341 -539 427 -655 438 -108 10 -276 -44 -334 -108 -51 -56 -70 -137
-42 -175 13 -18 16 -18 61 20 37 30 58 39 92 41 43 3 44 2 68 -46 14 -27 39
-65 56 -85 28 -31 36 -35 81 -35 73 0 114 23 149 86 37 65 52 78 82 70 34 -8
181 -116 477 -351 325 -257 418 -319 660 -440 398 -199 966 -322 1655 -355
332 -17 585 8 919 89 368 90 794 261 1031 415 214 140 500 426 669 670 352
508 486 1039 436 1731 -19 269 -49 426 -116 624 -20 57 -44 154 -54 215 -15
85 -39 165 -101 331 -121 325 -139 393 -141 526 0 64 3 84 22 113 30 49 49 57
131 55 81 -2 89 4 89 66 0 60 -28 106 -80 133 -49 25 -92 27 -162 8z m-3444
-4151 c-17 -13 -16 -14 13 -4 29 10 39 8 76 -14 24 -14 60 -45 80 -69 60 -71
79 -87 158 -143 42 -30 90 -70 106 -89 47 -57 377 -210 528 -245 38 -8 36 -9
-30 -10 -269 -4 -845 273 -935 450 -31 61 -23 139 14 139 5 0 1 -7 -10 -15z"/>
<path d="M3248 7263 c7 -3 16 -2 19 1 4 3 -2 6 -13 5 -11 0 -14 -3 -6 -6z"/>
<path d="M3100 7076 c0 -2 8 -10 18 -17 15 -13 16 -12 3 4 -13 16 -21 21 -21
13z"/>
<path d="M3140 7046 c0 -2 8 -10 18 -17 15 -13 16 -12 3 4 -13 16 -21 21 -21
13z"/>
<path d="M2278 6796 c-151 -58 -311 -242 -362 -415 -12 -42 -16 -101 -16 -260
0 -187 3 -212 23 -271 34 -100 195 -378 228 -395 26 -14 28 -13 63 29 20 25
36 48 36 51 0 4 -14 35 -30 69 -61 123 -76 290 -40 432 36 142 91 203 201 225
78 15 93 33 87 103 -8 97 -74 156 -174 156 l-46 0 37 41 c20 22 45 60 55 84
10 23 24 47 32 51 7 5 51 11 98 14 l85 5 0 30 c0 23 -7 33 -29 44 -43 20 -202
25 -248 7z"/>
<path d="M7608 4104 c-16 -8 -32 -30 -42 -56 -9 -24 -25 -69 -36 -100 -24 -64
-105 -202 -228 -385 -124 -185 -208 -325 -278 -461 -71 -137 -100 -222 -110
-315 -6 -59 -4 -67 34 -144 23 -44 55 -92 71 -106 35 -29 127 -52 175 -43 32
6 93 61 115 103 18 35 13 97 -9 126 -17 22 -29 25 -96 29 -96 4 -104 14 -104
116 0 137 34 210 301 653 196 326 249 443 249 544 0 46 -10 56 -42 39z"/>
</g>
</svg>
