<?xml version="1.0" standalone="no"?>
<!DOCTYPE svg PUBLIC "-//W3C//DTD SVG 20010904//EN"
 "http://www.w3.org/TR/2001/REC-SVG-20010904/DTD/svg10.dtd">
<svg version="1.0" xmlns="http://www.w3.org/2000/svg"
 width="1277.000000pt" height="1280.000000pt" viewBox="0 0 1277.000000 1280.000000"
 preserveAspectRatio="xMidYMid meet">
<metadata>
Created by potrace 1.15, written by Peter Selinger 2001-2017
</metadata>
<g transform="translate(0.000000,1280.000000) scale(0.100000,-0.100000)"
fill="#000000" stroke="none">
<path d="M6135 12563 c-789 -69 -1416 -292 -2005 -713 -179 -129 -318 -248
-495 -425 -651 -651 -984 -1437 -985 -2325 0 -826 458 -1853 1407 -3149 498
-680 780 -1099 1005 -1496 268 -471 398 -814 465 -1227 25 -151 24 -546 -1
-683 -10 -55 -20 -103 -22 -107 -3 -4 -72 27 -155 68 -257 128 -529 243 -758
321 l-109 37 48 71 c135 200 213 416 245 670 19 155 19 232 -1 431 -51 525
-220 903 -521 1159 -373 318 -892 314 -1283 -10 -176 -146 -321 -337 -427
-563 l-40 -83 -57 114 c-224 447 -544 724 -910 788 -102 17 -313 7 -401 -20
-558 -172 -918 -810 -914 -1623 2 -481 147 -819 508 -1178 l156 -155 -62 -62
c-314 -315 -406 -729 -238 -1078 68 -143 222 -308 396 -424 115 -77 357 -196
499 -246 379 -132 805 -195 1321 -195 549 0 1008 76 1474 245 319 116 658 302
915 504 47 37 90 70 96 74 7 4 88 -30 180 -74 877 -421 1634 -654 2429 -746
215 -25 743 -25 945 0 1298 160 2281 833 3165 2167 216 326 475 779 475 829
-1 14 -11 46 -23 71 -22 44 -24 46 -137 87 -63 24 -125 43 -137 43 -17 0 -39
-34 -124 -188 -588 -1077 -1205 -1800 -1854 -2173 -276 -158 -562 -255 -885
-300 -128 -18 -423 -15 -575 5 -242 32 -519 102 -800 203 -356 127 -1007 441
-1880 906 -93 50 -171 91 -172 92 -1 1 19 53 46 116 184 433 291 888 322 1364
46 710 -102 1397 -456 2120 -148 303 -251 476 -575 965 -300 454 -396 606
-523 828 -398 691 -624 1250 -719 1779 -20 111 -23 162 -23 388 0 274 7 356
52 570 54 263 183 573 327 789 236 351 573 650 937 828 341 168 660 243 1084
255 845 24 1540 -220 2118 -741 445 -402 734 -903 847 -1466 46 -229 55 -332
55 -615 0 -426 -52 -686 -194 -981 -186 -386 -485 -666 -846 -794 -301 -106
-704 -112 -980 -13 -343 123 -620 404 -704 712 -44 162 -47 390 -7 543 97 364
394 615 791 668 49 6 95 16 102 22 17 14 54 134 47 153 -8 21 -434 332 -487
355 -90 40 -175 54 -327 53 -117 0 -160 -4 -225 -22 -377 -102 -669 -439 -742
-856 -19 -112 -13 -372 12 -485 74 -336 265 -657 561 -939 368 -352 816 -605
1277 -722 350 -88 793 -103 1137 -38 464 88 840 286 1166 614 326 329 520 739
575 1214 18 157 7 560 -20 735 -68 440 -225 841 -476 1216 -130 194 -243 329
-439 525 -727 726 -1632 1128 -2730 1215 -118 9 -646 11 -741 3z m-4425 -7577
c175 -54 294 -128 441 -275 119 -119 185 -215 265 -378 55 -112 79 -138 108
-114 7 6 41 66 75 135 130 255 304 437 526 548 91 46 141 63 265 88 122 24
179 25 285 5 180 -34 310 -93 440 -198 241 -195 387 -517 416 -917 26 -363
-63 -643 -282 -883 l-44 -49 -100 25 c-210 53 -482 100 -730 127 -170 18 -604
24 -785 11 -533 -40 -998 -178 -1377 -408 -73 -44 -74 -44 -101 -27 -134 85
-325 259 -414 376 -193 254 -263 558 -213 924 57 413 228 723 497 898 90 58
129 77 226 107 108 34 142 38 282 34 109 -3 151 -8 220 -29z m818 -2361 c223
-32 520 -123 799 -247 l53 -23 -98 -75 c-286 -220 -587 -529 -731 -753 -24
-37 -45 -67 -47 -67 -2 0 -16 21 -31 48 -155 265 -522 623 -866 846 l-88 57
23 19 c40 31 140 86 204 114 199 83 528 117 782 81z m1351 -517 c301 -157
1044 -578 1056 -598 13 -21 -218 -169 -406 -259 -486 -234 -1180 -325 -1758
-231 -69 12 -129 24 -133 28 -4 4 15 43 43 86 167 261 436 568 692 789 133
115 325 265 341 266 5 1 79 -36 165 -81z m-2219 -211 c199 -164 462 -452 612
-671 69 -100 71 -99 -73 -36 -258 114 -548 315 -679 473 -118 142 -170 262
-170 393 l0 74 112 -81 c62 -45 151 -113 198 -152z"/>
</g>
</svg>
