<?xml version="1.0" standalone="no"?>
<!DOCTYPE svg PUBLIC "-//W3C//DTD SVG 20010904//EN"
 "http://www.w3.org/TR/2001/REC-SVG-20010904/DTD/svg10.dtd">
<svg version="1.0" xmlns="http://www.w3.org/2000/svg"
 width="1024.000000pt" height="1280.000000pt" viewBox="0 0 1024.000000 1280.000000"
 preserveAspectRatio="xMidYMid meet">
<metadata>
Created by potrace 1.15, written by Peter Selinger 2001-2017
</metadata>
<g transform="translate(0.000000,1280.000000) scale(0.100000,-0.100000)"
fill="#000000" stroke="none">
<path d="M8220 12339 c-128 -14 -253 -81 -352 -188 -135 -145 -182 -274 -182
-496 -1 -148 13 -209 71 -315 52 -95 107 -155 182 -200 83 -49 151 -66 207
-51 61 16 118 72 159 155 65 130 48 245 -49 340 -58 56 -121 93 -185 108 -70
16 -125 -6 -187 -75 l-46 -51 -19 24 c-86 114 63 462 237 550 70 36 196 40
276 10 119 -44 219 -175 268 -350 47 -170 53 -238 56 -598 l3 -343 25 -44 c39
-66 73 -103 125 -133 40 -24 56 -27 131 -27 74 0 93 4 145 29 33 16 86 56 119
88 33 32 61 58 62 58 6 0 -11 -111 -31 -200 -34 -158 -183 -525 -288 -711
-113 -201 -333 -452 -572 -652 l-120 -101 -6 30 c-45 194 -118 445 -419 1429
-193 633 -356 1175 -362 1205 -27 148 -102 198 -195 131 -21 -15 -63 -60 -92
-99 -45 -62 -60 -74 -108 -92 -130 -49 -308 -69 -444 -51 -176 23 -361 76
-699 201 -309 114 -543 181 -770 222 -111 19 -529 16 -690 -6 -596 -81 -1066
-292 -1484 -665 -574 -513 -901 -1236 -967 -2139 -15 -211 -6 -675 16 -832
121 -865 514 -1509 1207 -1977 162 -109 211 -136 398 -213 96 -40 178 -76 182
-79 5 -4 10 -56 12 -116 5 -124 28 -211 82 -316 51 -96 151 -216 251 -299 48
-41 94 -79 101 -86 8 -6 -47 13 -121 43 -203 81 -306 104 -447 101 -100 -2
-121 0 -162 19 -85 39 -185 149 -248 273 -19 38 -22 54 -17 117 3 40 14 90 24
110 30 61 115 105 175 90 13 -4 43 -25 68 -49 l44 -43 -43 -6 c-67 -9 -101
-52 -101 -127 1 -113 51 -172 147 -172 105 0 149 61 140 196 -11 184 -110 287
-277 287 -160 0 -238 -88 -248 -278 -10 -217 91 -416 244 -475 51 -20 78 -24
199 -25 117 -1 157 -6 240 -28 225 -59 454 -144 715 -266 142 -66 334 -167
275 -145 -132 50 -484 162 -605 193 -455 117 -885 165 -1283 141 -286 -17
-410 -5 -617 61 -146 47 -428 195 -455 240 -9 14 37 59 61 59 9 0 69 -52 134
-115 66 -63 124 -115 130 -115 23 0 7 45 -34 93 -61 73 -105 145 -117 194 -15
57 -39 75 -103 81 -48 4 -57 1 -80 -21 -22 -22 -26 -35 -26 -88 l0 -62 -25 23
c-44 41 -103 143 -129 221 -71 212 -50 453 54 629 108 182 283 300 444 300
170 -1 359 -107 425 -239 65 -128 68 -294 8 -434 l-20 -48 -18 53 c-10 29 -29
63 -43 75 l-26 22 37 35 c38 34 38 35 38 113 0 71 -3 82 -30 120 -33 47 -72
68 -110 61 -24 -5 -25 -3 -25 45 0 45 -4 54 -39 87 -39 37 -74 50 -139 50 -28
0 -43 -8 -72 -39 l-37 -38 -27 20 c-45 32 -104 34 -149 3 -21 -14 -42 -26 -47
-26 -14 0 -60 -101 -60 -132 0 -38 21 -86 53 -124 22 -25 24 -33 12 -37 -26
-11 -63 -83 -70 -138 -12 -94 32 -158 118 -174 33 -6 37 -11 37 -37 0 -63 53
-128 104 -128 9 0 37 -16 63 -36 70 -54 109 -67 188 -68 86 0 150 30 227 104
29 28 52 50 52 50 1 0 0 -20 -2 -44 -5 -63 14 -114 52 -137 39 -24 60 -24 111
1 35 17 105 93 105 114 0 3 -16 -2 -35 -11 -33 -16 -36 -15 -55 2 -11 10 -30
48 -42 84 -20 59 -22 88 -23 291 -1 253 -8 292 -70 395 -97 162 -267 267 -455
282 -131 10 -253 -33 -371 -131 -126 -104 -231 -264 -269 -410 -10 -39 -21
-64 -24 -56 -15 43 -27 229 -27 420 1 500 85 968 286 1590 68 209 87 314 87
460 -1 138 -24 238 -79 342 -84 161 -261 286 -419 296 -42 3 -114 -1 -159 -7
-139 -21 -203 12 -213 109 -2 27 -8 50 -12 50 -17 0 -61 -114 -62 -160 -2 -90
48 -127 188 -138 l83 -7 -29 -43 c-47 -70 -63 -134 -57 -223 11 -163 105 -292
230 -314 73 -14 185 65 238 167 25 49 24 123 -2 194 -17 46 -29 61 -67 85 -62
39 -86 37 -133 -10 -32 -31 -39 -46 -39 -76 0 -31 7 -45 40 -77 23 -21 47 -38
55 -38 22 0 18 -24 -10 -54 -33 -36 -58 -33 -110 15 -77 71 -82 139 -19 245
45 77 85 104 150 104 123 0 251 -147 291 -333 11 -54 14 -106 9 -207 -6 -152
-23 -239 -90 -453 -92 -297 -155 -597 -192 -912 -25 -212 -26 -772 -1 -929 9
-60 15 -111 13 -113 -7 -7 -98 213 -119 287 -17 61 -20 101 -19 215 2 164 -8
206 -74 333 -47 89 -81 128 -207 229 -48 38 -75 53 -109 58 -59 9 -142 -9
-190 -40 -86 -57 -122 -231 -69 -340 28 -57 191 -225 218 -225 31 0 117 46
147 78 37 40 45 104 21 168 -23 62 -61 84 -142 84 -56 0 -63 -3 -87 -31 -23
-27 -31 -56 -29 -106 1 -22 -25 -14 -46 13 -33 41 -43 96 -32 159 21 114 66
157 171 163 98 6 143 -10 212 -76 70 -67 122 -135 134 -177 5 -16 9 -127 9
-245 0 -207 1 -218 28 -300 15 -47 40 -112 56 -145 17 -33 29 -60 28 -60 -23
-2 -66 -39 -79 -66 -17 -33 -40 -130 -33 -137 1 -2 16 8 32 22 92 77 151 23
207 -188 43 -162 111 -293 210 -403 45 -49 46 -52 26 -63 -27 -14 -56 -74 -65
-132 -10 -65 18 -119 108 -209 89 -89 154 -133 231 -154 59 -17 129 -73 168
-135 9 -14 19 -22 23 -18 21 20 -234 334 -336 415 -62 48 -97 112 -84 152 12
37 41 35 112 -9 67 -43 206 -113 240 -122 15 -4 21 -21 31 -89 24 -169 128
-310 327 -445 218 -148 429 -222 695 -244 162 -13 377 10 505 56 11 4 -17 -16
-62 -43 -81 -50 -83 -51 -220 -67 -987 -118 -1880 -662 -2493 -1518 -157 -219
-275 -545 -311 -858 -16 -146 -6 -429 20 -541 80 -347 273 -637 571 -858 234
-174 467 -208 683 -100 75 38 228 188 269 264 79 147 109 359 74 517 -29 133
-118 283 -185 317 -20 10 -60 33 -89 51 -105 66 -207 46 -285 -56 -77 -101
-98 -220 -55 -312 49 -104 197 -212 291 -212 43 0 111 35 146 76 17 19 33 34
36 34 12 0 35 -71 35 -108 0 -94 -72 -251 -159 -344 -71 -78 -135 -110 -227
-116 -89 -6 -151 13 -215 65 -140 114 -212 301 -240 624 -13 153 -8 269 23
489 l21 155 -27 56 c-38 80 -95 142 -158 169 -43 18 -65 22 -128 18 -63 -4
-87 -11 -147 -42 -39 -21 -90 -54 -114 -74 l-42 -36 7 49 c19 133 72 275 189
505 111 216 153 287 241 405 79 106 294 320 431 429 l110 87 6 -83 c8 -99 36
-211 134 -543 40 -137 139 -470 219 -740 412 -1394 488 -1650 501 -1676 37
-71 108 -110 171 -95 37 10 101 55 150 108 51 53 191 138 296 178 265 102 417
81 1172 -167 633 -207 921 -261 1320 -250 335 10 603 64 898 183 347 139 672
358 971 653 824 811 1185 1729 1106 2819 -48 681 -247 1244 -606 1715 -96 125
-335 368 -463 469 -413 327 -1070 638 -2214 1050 -637 229 -910 349 -1228 541
-642 387 -999 831 -1119 1393 -21 98 -24 135 -24 359 0 153 5 285 13 340 65
449 215 790 481 1094 57 64 242 234 248 227 2 -2 -7 -48 -21 -102 -64 -257
-67 -297 -56 -769 6 -253 -18 -397 -64 -382 -18 6 -26 97 -27 302 0 205 14
338 57 534 14 62 28 120 32 129 3 10 -12 3 -40 -17 l-45 -32 -21 -122 c-86
-491 -76 -942 27 -1317 16 -58 37 -148 45 -200 44 -254 150 -454 346 -651 58
-59 127 -133 154 -165 122 -148 326 -289 641 -444 309 -152 561 -250 989 -385
98 -31 193 -63 210 -72 137 -70 358 -264 456 -400 24 -35 79 -126 121 -203 52
-97 78 -136 83 -125 3 9 6 53 6 98 0 180 -62 320 -205 463 -49 49 -120 110
-157 134 -37 24 -66 45 -65 47 2 1 38 -9 81 -23 177 -56 352 -80 443 -60 64
14 169 -52 312 -194 l81 -81 0 -72 c0 -108 -41 -163 -134 -177 -57 -9 -101 5
-125 39 l-21 28 43 6 c53 7 83 41 92 101 9 57 -8 108 -46 140 -62 52 -153 41
-197 -24 -21 -31 -23 -43 -19 -108 6 -103 53 -194 120 -236 121 -74 279 -27
333 99 27 65 23 201 -10 299 -30 89 -83 175 -130 211 -61 46 -104 58 -196 55
-233 -7 -320 3 -567 66 -141 35 -379 113 -503 164 -86 35 -81 35 130 -13 526
-121 1065 -148 1500 -76 103 17 153 20 280 16 159 -5 242 -20 381 -68 71 -24
234 -101 263 -123 18 -14 18 -16 -4 -45 -12 -17 -30 -31 -40 -31 -10 0 -69 45
-131 100 -62 55 -116 100 -121 100 -26 0 0 -51 61 -119 39 -42 79 -98 90 -123
57 -133 242 -87 191 48 -18 47 0 41 52 -16 164 -182 197 -496 77 -746 -38 -80
-138 -190 -208 -228 -160 -87 -388 -60 -508 60 -104 105 -136 269 -86 447 16
60 33 75 33 31 0 -17 13 -40 38 -64 l38 -38 -32 -30 c-60 -58 -54 -157 15
-231 28 -30 36 -33 70 -28 39 5 39 5 44 -34 7 -52 28 -83 77 -114 42 -27 55
-31 45 -15 -4 6 7 10 27 10 40 0 73 21 93 60 l15 29 36 -24 c20 -14 45 -25 56
-25 25 0 69 23 92 49 l19 21 -32 -6 c-23 -5 -37 -2 -52 12 -36 32 -42 53 -24
80 31 48 94 20 105 -48 l5 -32 19 29 c41 63 29 148 -28 192 -24 19 -24 19 -5
44 46 59 56 170 18 215 -18 22 -64 44 -92 44 -19 0 -26 7 -30 28 -10 51 -49
96 -92 107 -22 6 -62 24 -90 40 -45 27 -59 30 -131 30 -78 0 -84 -2 -135 -37
-30 -21 -67 -56 -84 -79 l-30 -41 -8 52 c-13 91 -48 126 -118 117 -45 -6 -68
-23 -110 -81 -35 -47 -37 -63 -7 -42 36 25 64 20 86 -16 38 -63 53 -138 62
-314 10 -185 25 -248 81 -331 69 -101 238 -211 362 -235 118 -23 265 26 372
124 102 93 223 307 241 426 4 24 10 40 14 35 14 -15 78 -226 103 -343 106
-480 90 -1225 -40 -1875 -23 -111 -26 -156 -26 -305 0 -199 15 -278 79 -408
43 -87 139 -194 203 -226 154 -77 270 -80 461 -11 127 46 195 22 231 -83 l16
-47 17 54 c52 174 -33 258 -224 221 -25 -4 -46 -7 -47 -6 -1 1 13 30 30 66 28
56 32 74 32 145 0 73 -3 88 -37 156 -106 212 -275 250 -405 91 -44 -54 -63
-103 -63 -163 0 -82 56 -175 124 -208 40 -20 47 -21 78 -8 44 18 68 56 68 106
0 32 -6 44 -35 70 -20 17 -47 34 -60 37 -14 3 -25 10 -25 14 0 18 48 75 66 78
26 4 83 -35 111 -77 45 -67 17 -218 -53 -288 -28 -29 -38 -33 -86 -33 -111 0
-250 104 -305 227 -67 153 -75 373 -24 696 54 346 65 486 65 877 0 280 -3 386
-17 500 -25 197 -60 385 -97 507 -16 56 -30 106 -30 109 0 17 74 -98 111 -171
39 -79 46 -107 78 -328 18 -130 91 -232 208 -292 54 -28 66 -30 163 -30 88 0
111 3 145 22 84 45 117 107 116 222 -1 163 -104 281 -247 281 -48 0 -114 -43
-139 -89 -30 -60 -12 -161 36 -195 32 -22 106 -21 146 4 35 21 41 37 45 113
l3 49 29 -23 c39 -30 56 -77 56 -149 0 -110 -50 -159 -170 -168 -97 -7 -171
18 -231 78 -56 56 -75 109 -89 245 -5 55 -15 118 -21 140 -30 105 -115 244
-224 363 l-57 62 42 0 c31 0 47 6 65 26 23 25 45 98 45 150 0 24 -2 23 -38
-16 -22 -22 -43 -40 -49 -40 -22 0 -65 44 -87 88 -13 26 -35 83 -50 127 -38
116 -89 195 -183 285 l-81 79 25 16 c32 21 53 72 53 128 0 55 -34 105 -120
176 -79 66 -134 97 -194 111 -65 14 -83 24 -138 78 -26 25 -50 43 -54 39 -15
-14 243 -278 325 -333 40 -26 81 -86 81 -117 0 -8 -8 -25 -18 -37 l-17 -22
-86 45 c-47 25 -111 53 -143 63 -64 20 -69 26 -85 102 -26 125 -112 232 -272
338 -161 107 -331 170 -527 195 l-93 12 113 44 c724 283 1373 826 1789 1495
95 152 135 236 185 386 78 232 106 408 107 662 0 199 -12 294 -59 456 -88 305
-282 568 -549 746 -190 127 -361 177 -535 157z m-2980 -747 c382 -72 678 -195
1021 -423 524 -350 1055 -960 1495 -1717 84 -144 96 -160 216 -277 l126 -124
-154 -101 c-295 -192 -668 -391 -990 -529 -128 -54 -324 -126 -308 -112 5 4
34 25 64 47 280 199 500 553 582 938 17 81 21 134 21 266 0 184 -17 288 -72
440 -120 330 -442 627 -768 707 -101 24 -279 22 -428 -7 -154 -30 -357 -33
-455 -7 -162 43 -282 129 -366 263 -26 41 -49 73 -50 71 -7 -7 55 -186 84
-247 73 -150 183 -246 285 -249 29 -1 36 -15 13 -28 -8 -4 -24 -25 -36 -46
-26 -44 -21 -55 45 -87 46 -22 126 -29 205 -16 l45 7 -35 -20 c-127 -70 -225
-224 -283 -441 -19 -75 -22 -108 -21 -275 1 -200 16 -320 54 -429 97 -284 294
-427 585 -425 98 0 96 3 -23 40 -81 24 -163 73 -232 138 -49 46 -37 45 22 -2
38 -30 104 -45 150 -34 13 4 42 22 65 42 l42 35 7 -47 c8 -61 29 -111 57 -142
28 -30 93 -60 132 -61 l29 0 -23 16 c-30 22 -61 89 -61 137 0 77 50 123 115
106 40 -11 57 -41 63 -115 5 -67 -3 -82 -68 -126 -24 -16 -23 -16 25 -4 135
35 195 103 195 224 l0 33 29 -15 c49 -26 107 -35 151 -24 42 11 104 65 129
112 18 32 8 45 -17 23 -10 -10 -30 -17 -45 -17 -30 0 -95 34 -119 64 -36 44
-12 147 42 176 56 30 141 -24 169 -108 23 -66 31 -52 38 64 5 73 3 87 -20 137
-27 60 -80 107 -143 127 -19 7 -33 15 -32 18 28 51 47 107 52 152 l6 55 -20
-37 c-25 -46 -46 -58 -104 -58 -83 0 -127 71 -92 153 16 40 46 57 99 57 42 0
73 -22 97 -71 11 -21 22 -39 24 -39 6 0 -26 134 -38 159 -19 35 -65 77 -99 90
-42 16 -134 13 -168 -5 -17 -8 -32 -14 -34 -12 -1 2 -10 19 -20 38 -53 106
-140 164 -214 143 -20 -6 -45 -14 -55 -18 -29 -12 33 74 86 119 138 119 383
95 540 -52 66 -62 171 -221 219 -332 133 -307 128 -660 -12 -950 -78 -161
-169 -291 -289 -410 -118 -118 -232 -199 -371 -264 -98 -46 -228 -94 -195 -73
10 6 53 34 95 61 151 97 295 261 376 429 33 69 98 237 91 237 -1 0 -29 -34
-61 -75 -107 -137 -249 -228 -405 -261 -41 -8 -75 -16 -76 -17 -146 -252 -372
-401 -674 -447 -119 -18 -357 -13 -494 9 -65 11 -121 23 -125 27 -3 4 10 4 29
0 19 -3 89 -9 155 -12 66 -3 138 -7 159 -8 65 -6 306 12 381 28 243 52 392
164 441 334 41 140 -61 250 -170 183 -48 -30 -53 -38 -70 -119 -28 -136 -97
-223 -224 -283 -183 -88 -529 -95 -872 -19 -387 86 -759 371 -934 713 -50 98
-48 96 26 -17 170 -263 441 -472 784 -606 200 -78 362 -111 545 -111 198 0
316 41 420 147 l54 55 -59 -27 c-51 -23 -67 -26 -124 -21 -74 7 -178 52 -252
108 -25 19 -110 81 -189 138 -125 91 -149 105 -192 109 -26 2 -60 2 -74 -2
-38 -10 -103 -73 -131 -127 l-24 -48 -72 20 c-331 92 -571 285 -717 578 -39
76 -36 92 4 20 46 -85 171 -243 245 -311 159 -146 328 -208 506 -186 124 14
193 81 194 186 0 60 -34 127 -75 146 -47 23 -115 22 -115 -1 -1 -36 -40 -103
-72 -123 -26 -17 -45 -20 -90 -17 -51 3 -68 10 -145 63 -110 74 -276 233 -358
343 -82 108 -165 269 -209 402 -54 164 -53 159 -8 159 85 0 112 50 113 217 1
156 8 175 38 92 35 -96 116 -249 173 -326 126 -170 271 -284 478 -375 l75 -33
175 1 c131 0 214 6 330 23 l154 23 18 -22 c20 -25 23 -72 7 -118 -6 -17 -9
-37 -7 -43 5 -14 95 66 113 102 35 66 8 148 -65 197 -31 21 -44 23 -112 20
-70 -3 -76 -2 -65 13 144 194 199 294 223 409 47 225 -71 518 -249 619 -90 51
-235 102 -306 108 -107 9 -240 -19 -347 -72 -112 -56 -167 -60 -214 -17 -25
22 -32 38 -37 82 l-6 55 -18 -50 c-10 -28 -18 -77 -18 -111 -1 -72 24 -118 79
-147 46 -24 148 -19 207 11 l42 22 -20 -58 c-29 -82 -37 -268 -15 -344 36
-126 146 -208 275 -208 143 1 216 77 236 246 11 101 -29 161 -121 179 -127 23
-186 -179 -78 -264 l26 -21 -28 -11 c-63 -24 -134 9 -169 77 -31 60 -33 203
-5 295 40 133 123 186 277 177 124 -7 219 -69 297 -191 62 -98 80 -159 80
-282 1 -159 -39 -288 -121 -397 -45 -59 -65 -64 -23 -6 77 106 91 281 34 428
l-29 75 -6 -135 c-9 -196 -43 -288 -134 -368 -65 -57 -145 -82 -260 -82 -210
0 -399 86 -583 264 -170 165 -262 352 -292 596 -10 87 -14 277 -5 268 3 -3 10
-43 16 -89 16 -131 55 -315 90 -419 111 -337 315 -502 555 -447 38 8 83 21 99
28 29 12 28 13 -36 20 -37 4 -81 15 -99 24 -53 28 -123 105 -162 181 -34 64
-41 72 -79 83 -45 13 -89 38 -89 50 0 4 29 5 64 3 55 -4 67 -1 85 17 27 27 27
73 -1 147 -20 53 -23 55 -31 33 -27 -70 -42 -73 -102 -18 -72 66 -132 200
-172 381 -15 68 -18 128 -18 326 l0 244 29 23 c47 37 243 131 343 165 80 26
222 59 318 74 17 2 138 3 270 1 185 -3 264 -8 345 -23z m1060 -1096 c0 -3 -25
-19 -55 -36 -70 -40 -145 -113 -169 -165 -31 -66 -32 -115 -2 -180 24 -54 25
-58 10 -87 -9 -17 -18 -54 -21 -84 l-6 -53 -44 39 c-46 40 -116 70 -165 70
-66 0 -134 -53 -178 -140 -26 -51 -25 -56 6 -31 79 62 217 -27 198 -129 -8
-46 -20 -67 -50 -86 -55 -37 -165 31 -186 115 l-12 46 -8 -40 c-18 -102 6
-206 60 -257 34 -33 118 -78 145 -78 17 0 15 -4 -12 -35 -50 -58 -65 -94 -65
-165 0 -49 7 -80 27 -125 l27 -60 -31 35 c-41 47 -98 150 -126 228 -83 229
-61 554 53 790 80 166 223 283 392 322 28 7 52 14 52 17 0 3 -48 4 -107 1
l-108 -5 45 20 c104 47 206 76 268 77 34 0 62 -2 62 -4z m-11 -392 c34 -28 55
-89 45 -129 -3 -14 -20 -37 -37 -51 -34 -28 -67 -28 -111 1 -30 20 -64 87 -47
93 6 2 11 7 11 12 0 5 9 29 20 54 18 42 22 46 54 46 22 0 45 -9 65 -26z m-153
-424 c-43 -51 -79 -137 -85 -206 l-6 -61 -33 14 -32 13 35 53 c42 63 74 152
82 229 l6 57 31 -32 31 -32 -29 -35z m303 7 c1 -17 0 -17 -26 0 -16 9 -30 18
-32 20 -3 2 6 15 20 29 l24 26 6 -29 c4 -15 7 -36 8 -46z m171 -186 c0 -3 -11
-19 -25 -36 l-24 -30 -1 41 c0 39 2 41 25 36 14 -2 25 -7 25 -11z m-282 -31
c37 -36 44 -71 26 -129 -20 -67 -52 -101 -102 -111 -41 -7 -43 -6 -72 33 -40
55 -41 117 -4 173 35 51 52 63 91 64 22 0 40 -9 61 -30z m185 -222 c-3 -24 -7
-44 -8 -46 -2 -2 -14 0 -29 4 l-25 6 32 39 c18 21 33 39 34 39 0 0 -1 -19 -4
-42z m-253 -58 c0 -7 -51 -33 -55 -28 -1 2 -5 15 -9 30 -6 26 -6 26 29 15 19
-6 35 -13 35 -17z m-265 -12 c33 -38 30 -88 -6 -137 -35 -48 -78 -64 -134 -50
l-45 11 0 61 c0 57 2 61 44 103 56 57 100 61 141 12z m-1370 -946 c66 -28 176
-70 245 -93 69 -23 127 -46 130 -49 6 -8 180 -77 345 -135 126 -45 332 -140
280 -128 -16 3 -109 31 -205 60 -346 108 -679 244 -895 365 -120 68 -164 100
-80 59 34 -16 115 -52 180 -79z m1764 -36 c-8 -8 -167 -56 -249 -75 -110 -25
-271 -48 -385 -55 -75 -4 -82 -4 -40 4 28 6 88 17 135 26 47 9 123 29 170 44
55 18 118 30 180 34 52 4 111 11 130 15 40 10 65 13 59 7z m1019 -32 c181 -40
345 -107 459 -186 72 -49 170 -146 175 -173 6 -29 -2 -30 -72 -14 -120 27
-353 29 -576 4 l-61 -7 -12 48 c-18 72 -69 161 -114 199 -84 72 -176 81 -362
36 -229 -56 -386 -81 -615 -96 -52 -4 -92 -4 -89 -1 3 3 48 13 100 22 52 9
216 47 364 84 456 115 599 130 803 84z m-244 -233 c59 -29 160 -130 145 -145
-2 -2 -53 -9 -113 -15 -228 -23 -598 -9 -881 34 -128 19 -327 56 -323 60 2 2
73 0 158 -4 272 -12 542 14 765 74 106 29 183 27 249 -4z m946 -685 c0 -2 -15
-19 -33 -37 -19 -19 -36 -41 -39 -49 -4 -11 -11 -7 -32 17 -15 18 -36 35 -46
38 -27 8 -25 23 3 28 29 6 147 8 147 3z m69 -73 c17 -48 5 -73 -34 -73 -17 0
-27 10 -39 40 -21 52 -8 83 32 78 22 -2 30 -11 41 -45z m-294 -38 c31 -30 34
-80 5 -95 -22 -12 -33 -8 -67 23 -27 24 -29 39 -7 72 21 31 38 31 69 0z m169
-117 c-3 -4 -14 -12 -24 -18 -19 -10 -19 -9 -2 19 10 19 19 26 24 18 4 -6 4
-15 2 -19z m338 -20 c24 -20 30 -60 11 -80 -20 -22 -42 -23 -71 -2 -17 12 -21
21 -16 42 7 28 29 52 49 52 6 0 18 -6 27 -12z m-419 -78 c-7 -26 -19 -34 -29
-19 -4 7 1 18 11 26 24 17 24 17 18 -7z m127 -50 c24 -24 25 -43 3 -81 -21
-34 -45 -44 -73 -29 -30 16 -27 74 5 105 29 30 39 31 65 5z m-212 -82 c7 -7
12 -26 12 -43 0 -17 -5 -36 -12 -43 -16 -16 -63 -15 -77 2 -16 19 -4 63 22 81
26 18 39 19 55 3z m-5512 -15 c26 -35 9 -107 -28 -119 -28 -9 -68 22 -68 52 0
67 63 111 96 67z m-326 -73 c32 -32 36 -67 9 -96 -12 -13 -32 -24 -44 -24 -42
0 -81 68 -68 118 4 18 12 22 44 22 25 0 46 -7 59 -20z m6028 -106 c33 -23 28
-83 -8 -101 -22 -11 -27 -10 -43 9 -20 23 -17 68 4 95 15 17 20 16 47 -3z
m-5487 -64 c44 -24 9 -110 -45 -110 -28 0 -44 17 -52 57 -10 51 44 81 97 53z
m-226 -20 c3 -5 1 -10 -4 -10 -6 0 -11 5 -11 10 0 6 2 10 4 10 3 0 8 -4 11
-10z m-32 -21 c47 -25 51 -75 10 -114 -36 -32 -66 -32 -88 1 -20 32 -14 66 20
100 28 28 29 28 58 13z m-227 -66 c-10 -10 -19 5 -10 18 6 11 8 11 12 0 2 -7
1 -15 -2 -18z m-119 -68 c38 -19 45 -36 32 -75 -9 -23 -17 -30 -38 -30 -38 0
-67 24 -75 61 -4 24 -2 35 11 45 23 17 34 17 70 -1z m447 -34 c3 -5 -5 -16
-19 -25 -25 -16 -25 -16 -13 9 12 26 23 31 32 16z m-274 -61 c0 -5 -5 -10 -11
-10 -5 0 -7 5 -4 10 3 6 8 10 11 10 2 0 4 -4 4 -10z m173 -56 c-16 -32 -19
-34 -30 -18 -11 15 -9 20 15 35 15 10 28 18 29 18 2 1 -5 -15 -14 -35z m2727
-496 c597 -253 1123 -480 1170 -505 741 -401 1188 -986 1309 -1713 50 -304 42
-699 -20 -989 -64 -297 -202 -587 -385 -811 -71 -87 -208 -220 -200 -195 33
112 88 417 111 610 40 340 25 723 -39 985 -8 30 -16 102 -19 160 -17 320 -141
593 -389 856 -46 49 -105 116 -130 149 -243 318 -908 722 -1751 1066 -107 44
-192 85 -233 114 -225 161 -406 380 -530 640 -30 62 -54 116 -54 119 0 6 -128
60 1160 -486z m-2498 429 c10 -12 18 -32 18 -43 0 -28 -37 -74 -59 -74 -25 0
-60 40 -67 77 -13 66 65 95 108 40z m-326 -53 c33 -79 -33 -132 -76 -61 -24
39 -25 55 -3 79 28 31 62 23 79 -18z m94 -34 c0 -6 20 -31 44 -55 l45 -44 -36
-7 c-42 -8 -147 2 -171 16 -16 9 -16 9 0 10 9 0 36 20 60 44 44 45 58 54 58
36z m33 -730 c136 -34 302 -52 502 -54 l189 -1 13 -64 c24 -120 77 -212 148
-261 68 -47 161 -66 249 -52 404 63 411 63 631 67 121 2 207 1 190 -1 -16 -2
-79 -11 -140 -20 -60 -8 -211 -35 -335 -59 -400 -78 -537 -86 -745 -41 -338
73 -529 170 -710 357 -77 80 -105 120 -105 150 0 6 8 8 18 5 9 -3 52 -15 95
-26z m1203 -65 c167 -18 330 -44 492 -81 142 -32 405 -103 414 -113 4 -3 -47
2 -115 13 -182 28 -652 29 -822 1 -193 -32 -273 -20 -357 54 -36 31 -98 116
-98 133 0 14 332 9 486 -7z m1531 -254 c432 -175 743 -333 1009 -512 111 -74
138 -99 52 -48 -89 52 -323 165 -436 210 -59 23 -123 53 -142 66 -20 12 -121
63 -225 112 -184 86 -462 241 -433 241 3 0 81 -31 175 -69z m-197 -191 c62 -7
61 -7 -40 -9 -119 -2 -288 -22 -384 -46 -43 -11 -122 -17 -243 -19 -98 -2
-191 -7 -208 -11 -16 -4 -27 -5 -24 -2 10 12 239 57 366 72 198 23 409 29 533
15z m-695 -155 c-71 -35 -160 -87 -197 -114 -91 -70 -206 -195 -274 -298 -49
-74 -154 -280 -154 -301 0 -4 27 23 60 60 142 157 309 243 511 263 l67 6 36
53 c82 119 244 250 384 309 158 67 373 97 565 78 129 -12 309 -49 399 -81 56
-20 47 -27 -12 -10 -76 22 -256 50 -398 60 -422 33 -702 -69 -813 -296 -26
-52 -33 -78 -31 -115 4 -95 53 -169 111 -169 15 0 51 15 80 33 52 31 54 34 75
108 39 136 100 210 221 269 101 50 166 62 345 67 180 6 308 -8 495 -52 250
-59 404 -127 600 -263 277 -194 474 -436 589 -724 54 -133 51 -141 -7 -23
-184 375 -462 647 -870 851 -155 78 -228 106 -377 146 -147 39 -364 50 -473
24 -84 -20 -169 -62 -225 -112 l-44 -39 119 0 118 0 86 -43 c68 -34 126 -77
283 -212 135 -116 208 -173 234 -180 52 -14 107 -13 147 4 41 17 108 85 125
126 15 36 26 37 116 6 293 -100 510 -282 654 -548 36 -67 110 -246 110 -265 0
-4 -27 42 -59 104 -207 390 -457 592 -738 593 -124 0 -203 -36 -240 -110 -46
-89 -23 -205 47 -242 46 -24 129 -25 136 0 16 53 49 102 79 116 68 32 150 17
222 -41 286 -229 469 -479 576 -789 34 -96 82 -293 74 -300 -2 -2 -17 1 -34 6
-57 20 -105 -17 -124 -97 -5 -21 -16 -90 -25 -153 -8 -63 -19 -118 -23 -123
-4 -4 -20 34 -36 84 -36 115 -128 304 -190 389 -137 187 -263 296 -472 407
-127 68 -185 76 -528 75 -252 -1 -292 1 -307 15 -22 20 -23 65 -2 127 9 26 14
49 12 52 -11 10 -115 -77 -135 -114 -37 -64 -30 -119 22 -183 39 -49 71 -62
150 -61 l75 1 -29 -24 c-80 -68 -184 -247 -222 -385 -30 -108 -33 -314 -6
-423 47 -189 143 -308 322 -399 148 -75 196 -88 324 -88 163 1 232 14 319 61
63 35 80 41 115 36 74 -10 125 -65 136 -148 l6 -54 24 55 c33 74 36 185 5 227
-53 73 -198 100 -298 55 -29 -13 -46 -17 -43 -9 89 201 108 374 56 513 -54
144 -219 226 -369 184 -82 -23 -147 -98 -181 -213 -43 -141 13 -237 138 -237
58 0 86 18 112 69 43 84 35 159 -21 207 -37 30 -26 44 36 44 58 0 119 -40 146
-95 30 -62 38 -180 16 -262 -64 -252 -237 -321 -498 -200 -176 82 -256 238
-246 486 4 102 9 127 40 208 40 105 85 184 141 245 l38 43 -40 -58 c-61 -89
-76 -143 -76 -272 0 -101 2 -115 30 -175 l30 -65 7 98 c12 172 60 306 136 384
75 76 155 105 297 104 107 0 190 -24 328 -92 345 -173 544 -436 603 -799 17
-104 17 -338 0 -440 l-12 -75 -8 120 c-19 304 -55 515 -118 682 -89 236 -230
371 -410 391 -71 8 -228 -4 -242 -18 -7 -7 0 -10 17 -10 44 0 131 -38 177 -77
54 -46 110 -133 145 -222 26 -64 29 -68 71 -79 24 -6 58 -26 76 -43 18 -17 26
-29 18 -26 -67 21 -134 28 -160 17 -55 -23 -62 -93 -18 -190 l20 -45 12 35
c19 54 56 54 110 -2 107 -112 176 -378 176 -674 0 -77 -3 -149 -6 -162 -7 -25
-137 -96 -277 -151 -440 -174 -993 -172 -1524 5 -878 292 -1744 1054 -2604
2289 -129 186 -231 302 -286 326 -18 8 -33 17 -33 21 0 23 388 251 625 368
266 131 714 303 1025 394 l55 16 -85 -82 c-348 -338 -531 -752 -531 -1199 0
-233 43 -425 136 -614 69 -139 156 -254 283 -377 272 -261 541 -355 882 -309
99 14 274 14 363 0 270 -40 429 -147 555 -374 l33 -60 -6 50 c-33 247 -139
440 -280 507 -33 15 -71 28 -85 28 l-25 1 31 27 c18 15 39 39 48 53 16 26 16
27 -16 54 -112 95 -233 95 -519 1 -145 -48 -263 -69 -319 -58 l-35 8 79 43
c196 107 271 253 202 389 l-24 48 24 39 c13 22 29 63 35 91 l12 51 34 -38 c19
-21 62 -52 95 -69 128 -63 225 -26 306 119 l23 41 -36 -21 c-44 -26 -95 -22
-148 12 -65 43 -84 109 -52 185 29 70 121 76 198 13 38 -31 56 -76 58 -139 1
-63 28 67 29 141 0 51 -6 77 -26 117 -32 64 -101 127 -165 149 l-48 17 45 48
c57 61 74 102 74 177 0 91 -36 177 -100 237 -107 102 -186 119 -274 57 l-43
-31 -5 62 c-10 115 -70 190 -179 221 -50 14 -69 14 -117 4 -138 -28 -202 -102
-202 -235 0 -30 -2 -54 -4 -54 -3 0 -28 14 -56 32 -105 65 -213 45 -292 -56
-22 -28 -48 -61 -59 -73 -10 -13 -28 -60 -40 -105 -19 -72 -20 -91 -11 -142
18 -94 83 -168 188 -212 l35 -15 -25 -29 c-27 -33 -60 -114 -70 -175 l-6 -40
24 39 c35 55 66 70 133 61 59 -7 88 -28 99 -70 10 -41 -5 -96 -36 -127 -24
-23 -37 -28 -78 -28 -58 0 -97 25 -119 78 -8 19 -16 33 -17 31 -9 -10 16 -134
33 -168 22 -42 70 -87 110 -103 34 -13 139 -13 174 1 23 9 29 8 33 -7 15 -52
62 -127 104 -166 54 -51 99 -64 162 -48 23 6 44 9 46 7 10 -9 -109 -116 -159
-141 -51 -27 -61 -29 -174 -29 -114 0 -124 2 -200 34 -287 123 -501 628 -457
1079 23 229 80 392 197 567 226 337 512 549 893 660 64 19 122 34 127 34 6 1
-48 -28 -120 -64z m-145 -555 c55 -28 73 -67 68 -148 -4 -56 -8 -68 -32 -89
-23 -19 -37 -23 -74 -21 -67 4 -87 36 -87 135 0 75 0 75 39 109 22 19 41 34
43 34 2 0 22 -9 43 -20z m530 -320 c39 -20 40 -22 40 -71 0 -27 -7 -63 -15
-79 -18 -35 -91 -80 -129 -80 -32 0 -83 48 -88 83 -9 52 24 116 75 147 41 25
68 25 117 0z m-1038 -25 c21 -14 45 -39 54 -57 32 -63 -2 -165 -63 -185 -79
-27 -193 71 -193 165 0 28 39 75 85 101 27 15 72 6 117 -24z m673 -247 c30
-66 25 -102 -20 -168 -37 -54 -84 -76 -131 -64 -74 18 -99 117 -54 210 29 59
72 87 123 79 47 -7 47 -1 1 23 l-37 19 39 19 39 19 7 -40 c4 -22 19 -66 33
-97z m-326 103 c0 -3 -15 -18 -34 -34 l-33 -27 9 37 c5 21 9 41 9 45 0 4 11 2
25 -4 14 -6 25 -14 24 -17z m-129 -275 l0 -54 -34 10 -34 11 32 43 c17 23 32
43 34 43 1 1 2 -23 2 -53z m620 -66 c-55 -71 -109 -197 -118 -283 l-7 -57 -38
52 -39 51 30 23 c61 48 122 178 122 260 l0 32 39 -21 39 -21 -28 -36z m-420
-219 c0 -3 -18 -19 -40 -34 l-40 -28 0 60 0 61 40 -26 c22 -15 40 -29 40 -33z
m140 -236 c16 -8 41 -30 55 -49 28 -37 49 -96 34 -96 -5 0 -20 -22 -34 -50
-23 -45 -29 -50 -59 -50 -64 0 -126 73 -126 149 0 31 7 47 34 75 37 40 53 43
96 21z m2868 -526 c3 -198 -13 -351 -58 -549 -34 -151 -95 -349 -111 -364 -9
-8 -10 -4 -4 19 28 115 37 220 40 445 1 135 8 283 15 330 11 81 48 272 53 275
17 13 44 24 52 21 6 -1 11 -72 13 -177z"/>
<path d="M7030 4455 c-49 -71 -98 -182 -116 -263 -24 -106 -15 -293 19 -422
159 -595 200 -824 201 -1142 1 -104 4 -188 7 -188 11 0 29 138 40 302 17 242
-8 583 -57 798 -8 36 -37 130 -64 210 -62 181 -76 284 -60 431 10 92 51 287
66 310 3 5 3 9 0 9 -3 0 -19 -20 -36 -45z"/>
<path d="M4210 4076 c3 -3 46 -19 95 -36 274 -96 428 -261 503 -539 24 -88 26
-112 26 -301 0 -190 -2 -212 -27 -305 -52 -198 -185 -418 -308 -511 -75 -58
-128 -82 -233 -110 l-91 -23 100 2 c85 2 109 6 158 29 125 59 240 174 372 373
123 187 152 248 164 345 14 108 14 225 0 348 -48 442 -263 681 -644 716 -38 4
-81 9 -95 12 -14 3 -23 3 -20 0z"/>
<path d="M3474 9968 c-14 -62 -7 -456 11 -598 23 -187 73 -373 139 -523 90
-203 99 -263 77 -492 -13 -124 -13 -155 -2 -155 15 0 32 140 43 355 6 116 11
226 11 245 0 19 -34 132 -75 250 -116 337 -172 590 -183 835 -3 60 -7 110 -9
112 -2 3 -7 -11 -12 -29z"/>
<path d="M8706 9144 c-92 -20 -176 -56 -257 -110 -75 -50 -199 -167 -199 -188
0 -21 78 -74 135 -92 95 -30 359 -29 515 2 l25 5 -25 -15 c-47 -29 -208 -75
-302 -87 -107 -13 -255 -7 -376 16 -46 9 -88 15 -93 13 -14 -5 152 -182 266
-285 81 -75 94 -83 130 -83 67 0 167 26 404 104 287 94 359 111 486 110 79 -1
112 -5 160 -24 63 -24 132 -66 178 -108 37 -35 34 -24 -14 55 -233 381 -453
592 -694 669 -103 33 -242 40 -339 18z"/>
<path d="M468 4593 c149 -295 330 -521 518 -643 274 -179 598 -149 868 80 36
30 65 58 65 61 2 19 -48 62 -102 89 -91 44 -232 63 -417 56 -139 -5 -143 -5
-110 11 165 75 406 80 656 13 l106 -28 -6 44 c-15 111 -107 224 -261 320 -79
49 -80 49 -160 48 -81 -1 -210 -29 -437 -93 -356 -100 -525 -80 -717 86 l-44
38 41 -82z"/>
</g>
</svg>
