<?xml version="1.0" standalone="no"?>
<!DOCTYPE svg PUBLIC "-//W3C//DTD SVG 20010904//EN"
 "http://www.w3.org/TR/2001/REC-SVG-20010904/DTD/svg10.dtd">
<svg version="1.0" xmlns="http://www.w3.org/2000/svg"
 width="1280.000000pt" height="1280.000000pt" viewBox="0 0 1280.000000 1280.000000"
 preserveAspectRatio="xMidYMid meet">
<metadata>
Created by potrace 1.15, written by Peter Selinger 2001-2017
</metadata>
<g transform="translate(0.000000,1280.000000) scale(0.100000,-0.100000)"
fill="#000000" stroke="none">
<path d="M7665 11413 c-439 -38 -854 -202 -1215 -481 -47 -36 -148 -129 -225
-207 -402 -403 -611 -806 -691 -1330 -23 -150 -26 -605 -6 -755 49 -344 155
-720 304 -1075 28 -66 163 -356 301 -645 338 -712 448 -949 490 -1056 48 -123
111 -304 106 -308 -2 -2 -33 1 -69 5 -128 16 -592 22 -830 10 -129 -6 -370
-18 -535 -27 -457 -22 -620 -40 -865 -96 -679 -154 -1196 -519 -1450 -1027
-198 -396 -234 -964 -88 -1420 194 -611 752 -1102 1448 -1274 459 -114 964
-115 1420 -2 96 23 808 219 1020 280 381 110 770 306 1050 532 390 313 712
825 845 1343 28 106 65 315 65 363 0 62 8 61 155 -19 77 -42 190 -108 250
-147 192 -123 218 -137 250 -137 41 0 784 139 805 150 28 15 51 58 56 108 5
40 -4 71 -60 221 -37 101 -75 184 -88 197 -14 15 -95 49 -208 90 -224 79 -947
320 -1081 359 l-96 28 -33 151 c-91 419 -258 899 -485 1391 -364 790 -764
1691 -753 1699 1 2 118 -12 258 -30 140 -18 334 -43 431 -55 l177 -22 43 25
c67 40 242 165 362 260 385 306 652 613 812 936 187 377 213 780 71 1088 -95
205 -289 396 -508 499 -80 38 -904 322 -1008 348 -122 31 -287 42 -425 30z
m379 -765 c53 -150 66 -239 66 -450 1 -104 -5 -195 -15 -253 -68 -390 -254
-798 -597 -1308 l-107 -158 -31 98 c-73 226 -101 407 -102 643 0 189 13 317
48 479 94 425 341 812 629 986 32 19 64 35 71 35 7 0 24 -33 38 -72z m-1864
-5504 c181 -25 460 -86 646 -140 53 -15 53 -15 59 -62 4 -26 11 -72 16 -102 5
-30 14 -130 21 -223 30 -434 -51 -914 -219 -1292 -182 -410 -502 -799 -848
-1029 -96 -64 -104 -65 -272 -40 -265 39 -478 138 -656 304 -178 167 -289 367
-344 622 -29 132 -25 484 5 638 72 356 212 613 468 860 229 220 485 368 806
465 91 27 117 27 318 -1z"/>
</g>
</svg>
