<?xml version="1.0" standalone="no"?>
<!DOCTYPE svg PUBLIC "-//W3C//DTD SVG 20010904//EN"
 "http://www.w3.org/TR/2001/REC-SVG-20010904/DTD/svg10.dtd">
<svg version="1.0" xmlns="http://www.w3.org/2000/svg"
 width="1280.000000pt" height="1280.000000pt" viewBox="0 0 1280.000000 1280.000000"
 preserveAspectRatio="xMidYMid meet">
<metadata>
Created by potrace 1.15, written by Peter Selinger 2001-2017
</metadata>
<g transform="translate(0.000000,1280.000000) scale(0.100000,-0.100000)"
fill="#000000" stroke="none">
<path d="M7673 9423 c-34 -3 -44 -9 -48 -26 -3 -12 -23 -105 -44 -207 -65
-307 -61 -293 -90 -286 -402 85 -527 101 -821 101 -260 0 -345 -11 -525 -66
-638 -195 -953 -804 -754 -1457 30 -97 102 -241 168 -332 171 -239 366 -404
886 -748 342 -226 445 -304 561 -424 191 -199 266 -372 266 -618 1 -145 -20
-239 -78 -356 -175 -355 -661 -543 -1095 -423 -286 79 -561 317 -693 600 -31
66 -36 90 -50 229 -8 85 -18 209 -22 276 l-7 120 -66 17 c-36 10 -68 17 -71
17 -3 0 -4 -44 -2 -97 5 -150 -27 -1047 -44 -1233 -16 -181 -71 -672 -79 -706
l-5 -22 71 18 c39 10 73 20 75 22 2 3 24 105 49 229 47 227 67 323 86 392 8
31 14 37 27 32 214 -89 545 -145 857 -145 246 0 414 24 620 90 581 186 927
631 961 1234 24 424 -129 805 -444 1108 -164 157 -311 262 -752 538 -338 211
-458 298 -575 415 -104 104 -150 170 -187 271 -33 87 -33 271 1 364 102 288
371 452 741 453 138 0 209 -13 339 -63 201 -78 404 -259 487 -435 39 -82 54
-200 54 -423 l0 -133 73 -34 72 -33 7 141 c19 385 31 562 54 787 22 224 73
640 93 768 l8 52 -31 -2 c-17 -1 -50 -3 -73 -5z"/>
</g>
</svg>
