<?xml version="1.0" standalone="no"?>
<!DOCTYPE svg PUBLIC "-//W3C//DTD SVG 20010904//EN"
 "http://www.w3.org/TR/2001/REC-SVG-20010904/DTD/svg10.dtd">
<svg version="1.0" xmlns="http://www.w3.org/2000/svg"
 width="1280.000000pt" height="1280.000000pt" viewBox="0 0 1280.000000 1280.000000"
 preserveAspectRatio="xMidYMid meet">
<metadata>
Created by potrace 1.15, written by Peter Selinger 2001-2017
</metadata>
<g transform="translate(0.000000,1280.000000) scale(0.100000,-0.100000)"
fill="#000000" stroke="none">
<path d="M6276 9084 c-32 -98 -56 -124 -114 -124 -38 0 -43 3 -60 37 l-19 36
-11 -33 c-8 -22 -16 -30 -27 -26 -8 3 -15 2 -15 -3 0 -5 -10 -11 -22 -14 -18
-5 -19 -8 -8 -21 10 -13 10 -16 0 -16 -9 0 -8 -5 3 -18 21 -23 22 -36 2 -28
-9 3 -20 -3 -27 -14 -11 -16 -24 -20 -75 -20 l-63 0 40 -36 40 -36 -27 -28
c-25 -27 -28 -27 -50 -13 -22 15 -23 14 -23 -11 0 -14 -3 -26 -7 -26 -35 2
-104 77 -84 90 7 4 12 10 12 14 -3 17 0 18 17 3 24 -22 61 -12 55 14 -5 17
-13 19 -52 17 l-46 -3 -5 44 -5 44 -49 -59 c-28 -32 -51 -60 -52 -62 -1 -2
-34 10 -73 26 -39 17 -71 28 -71 25 0 -3 17 -37 37 -74 36 -67 37 -70 21 -97
-9 -15 -23 -27 -30 -27 -7 0 -25 -13 -40 -29 -15 -17 -29 -28 -31 -25 -2 2 -9
13 -14 23 -10 19 -11 19 -22 -2 -6 -12 -17 -19 -25 -16 -8 3 -19 -3 -26 -15
-9 -18 -8 -21 7 -19 43 3 73 -3 89 -19 18 -18 78 -28 68 -12 -3 5 -12 9 -20 9
-8 0 -14 4 -14 8 0 9 96 42 122 42 8 0 35 -31 59 -70 24 -38 47 -70 51 -70 5
0 8 24 8 53 0 28 7 64 14 80 10 18 11 27 3 27 -21 0 7 16 49 28 58 17 64 15
64 -13 0 -30 15 -33 30 -5 12 22 55 27 64 8 3 -10 8 -8 15 4 17 26 65 3 80
-39 8 -21 23 -38 38 -44 36 -13 39 -6 12 30 -21 29 -22 33 -7 47 12 13 20 14
37 5 11 -7 21 -15 21 -19 0 -4 -18 -77 -39 -162 -21 -85 -37 -157 -35 -159 3
-4 39 17 181 106 l101 64 143 -95 c78 -53 146 -96 150 -96 5 0 4 12 -1 26 -12
30 -90 290 -90 298 0 10 228 176 241 176 6 0 9 -9 6 -20 -7 -27 20 -27 48 0
19 18 26 19 51 9 16 -7 45 -14 64 -16 41 -4 63 -29 55 -60 -4 -16 -1 -23 10
-23 8 0 17 -12 21 -27 3 -16 12 -48 18 -72 l12 -43 18 27 c13 20 16 37 11 62
-7 39 14 73 46 73 10 0 21 5 24 11 4 5 19 7 35 4 20 -4 29 -2 33 9 4 9 11 16
18 16 6 0 8 -7 5 -16 -5 -14 -1 -16 29 -11 24 4 33 2 29 -5 -4 -6 -1 -9 7 -6
8 3 21 1 31 -3 11 -6 18 -4 21 5 7 18 79 15 101 -4 20 -16 22 -14 29 33 4 28
2 37 -9 37 -12 0 -16 14 -13 48 0 4 7 6 15 6 8 -1 14 3 14 8 0 7 16 8 40 5 26
-3 40 -1 40 6 0 6 9 1 20 -11 26 -28 26 -28 45 8 12 23 13 30 3 31 -7 0 -4 4
7 9 19 8 19 9 -2 9 -12 1 -24 7 -26 14 -3 7 -6 5 -6 -5 -1 -19 -16 -24 -25 -9
-3 4 3 16 14 26 11 10 20 21 20 24 0 3 -16 23 -36 45 l-35 39 -15 -28 c-20
-38 -17 -44 8 -15 20 24 20 24 14 3 -5 -15 -3 -23 4 -23 28 0 -3 -17 -33 -18
-30 -1 -38 5 -66 43 -18 25 -36 45 -41 45 -4 0 -11 -12 -15 -27 -11 -47 -32
-72 -58 -69 -35 4 -67 29 -58 45 7 11 11 9 20 -5 9 -15 12 -16 20 -5 6 9 10
10 12 2 7 -21 40 0 37 23 -3 22 -26 26 -62 11 -15 -7 -17 -5 -11 13 8 29 -8
28 -28 0 l-16 -23 -7 22 c-6 20 -8 21 -28 8 -11 -8 -24 -14 -28 -15 -4 0 -28
-9 -52 -20 -29 -12 -54 -16 -70 -12 -14 4 -25 9 -24 12 2 3 -21 27 -50 54 -50
47 -53 48 -67 30 -16 -22 -17 -26 -9 -48 3 -9 10 -13 15 -10 14 8 10 -20 -6
-43 -13 -19 -13 -22 0 -27 21 -7 19 -43 -2 -55 -10 -6 -13 -11 -8 -11 6 0 3
-5 -5 -10 -12 -7 -12 -12 -2 -22 14 -14 16 -54 3 -62 -14 -9 -31 19 -34 53 -1
17 -3 31 -4 31 -1 0 -25 -9 -53 -20 -48 -19 -51 -19 -48 -3 2 10 6 16 9 13 3
-3 14 2 24 10 19 16 51 19 78 7 23 -10 22 -5 -8 39 l-25 37 25 33 25 32 -60 4
c-73 4 -80 2 -80 -23 0 -12 -7 -19 -20 -19 -18 0 -19 3 -10 20 10 18 8 20 -28
20 -32 0 -41 5 -50 25 -14 30 -32 33 -32 6 0 -30 -28 -51 -66 -51 -43 0 -43
-11 -1 -30 l32 -15 -32 -3 c-38 -4 -43 -18 -10 -28 36 -11 44 -22 39 -54 -3
-24 -9 -30 -28 -30 -14 0 -27 7 -30 15 -4 8 -17 15 -30 15 -17 0 -24 6 -24 18
0 12 -16 26 -44 40 -51 26 -66 59 -33 71 20 8 19 9 -10 15 -18 4 -33 13 -33
19 0 7 -15 43 -34 82 l-33 69 -27 -80z m844 -154 c8 -5 11 -10 5 -10 -5 0 -17
5 -25 10 -8 5 -10 10 -5 10 6 0 17 -5 25 -10z m-347 -64 c-1 -26 -4 -50 -6
-53 -11 -10 -96 10 -102 24 -9 24 0 26 34 9 43 -23 58 -20 35 5 -14 16 -15 23
-6 26 6 3 12 14 12 25 0 13 5 18 18 16 14 -3 17 -13 15 -52z m317 34 c-24 -15
-37 -11 -16 5 11 8 22 12 25 9 3 -3 -1 -9 -9 -14z m207 -7 c4 -10 -2 -22 -15
-33 -24 -20 -19 -30 15 -30 16 0 27 -8 34 -27 l10 -28 18 23 c24 33 43 10 31
-38 -4 -19 -8 -31 -9 -27 -1 4 -10 3 -20 -2 -14 -8 -25 -6 -44 9 -28 22 -58
27 -54 8 4 -20 -36 -22 -50 -2 -17 24 -17 64 1 64 15 0 30 45 20 61 -3 6 -12
8 -20 5 -14 -5 -20 15 -7 27 3 4 24 7 45 7 27 0 41 -5 45 -17z m-847 -3 c0 -5
-4 -10 -9 -10 -6 0 -13 5 -16 10 -3 6 1 10 9 10 9 0 16 -4 16 -10z m630 -52
c7 -19 3 -28 -25 -55 -33 -32 -61 -35 -92 -10 -20 15 -15 30 7 24 16 -4 20 -2
15 12 -3 10 1 24 10 31 13 11 19 10 35 -5 19 -18 20 -17 20 3 0 29 18 28 30 0z
m-426 -3 c4 -10 -1 -15 -16 -15 -17 0 -18 2 -8 15 7 8 14 15 15 15 2 0 5 -7 9
-15z m484 -72 c-10 -2 -26 -2 -35 0 -10 3 -2 5 17 5 19 0 27 -2 18 -5z m47
-23 c3 -5 -1 -10 -9 -10 -9 0 -16 5 -16 10 0 6 4 10 9 10 6 0 13 -4 16 -10z"/>
<path d="M8491 8940 c-30 -57 -48 -79 -34 -44 4 11 -15 5 -65 -20 -39 -20 -77
-36 -85 -36 -7 0 -35 23 -62 50 -27 28 -52 50 -56 50 -3 0 -6 -37 -5 -82 1
-74 -1 -83 -17 -81 -10 0 -16 -2 -13 -5 8 -8 -14 -32 -30 -32 -22 0 -17 16 16
54 35 40 35 40 -68 51 -34 4 -65 12 -70 18 -4 6 -16 38 -28 71 l-20 60 -24
-42 c-13 -23 -30 -42 -37 -42 -7 0 -13 -9 -13 -20 0 -22 -20 -26 -38 -8 -9 9
-12 9 -12 0 0 -7 -23 -12 -61 -14 l-61 -3 45 -34 c28 -20 43 -39 40 -47 -3 -9
2 -14 12 -14 33 0 11 -34 -29 -45 -22 -7 -42 -17 -44 -24 -3 -8 1 -12 9 -9 17
6 38 -20 39 -45 0 -15 6 -17 35 -11 39 7 48 -5 60 -79 5 -32 9 -36 21 -27 8 7
14 9 14 4 0 -4 15 6 33 24 l32 31 43 -19 c24 -11 61 -24 82 -30 28 -8 41 -18
48 -38 l10 -27 16 38 c19 44 56 53 56 13 0 -32 17 -42 25 -16 3 11 10 20 15
20 9 0 -35 -108 -73 -180 -34 -65 -61 -138 -46 -122 19 18 48 15 99 -11 46
-23 54 -22 109 10 2 2 -3 11 -12 21 -10 10 -17 24 -17 30 0 18 -17 15 -24 -4
-5 -12 -10 -13 -19 -5 -10 7 -17 7 -25 -1 -8 -8 -10 -6 -8 7 3 23 145 107 173
102 12 -2 24 0 25 5 2 5 53 -25 113 -67 60 -41 112 -75 116 -75 5 0 -17 169
-35 260 -4 23 8 34 130 114 92 61 131 92 122 98 -7 4 -56 8 -109 8 -53 0 -117
3 -142 6 l-46 7 -32 133 c-18 74 -35 134 -39 134 -4 0 -22 -27 -39 -60z m-374
-322 c-3 -7 -5 -2 -5 12 0 14 2 19 5 13 2 -7 2 -19 0 -25z"/>
<path d="M7530 8779 c0 -4 7 -9 15 -13 9 -3 15 0 15 8 0 7 -7 13 -15 13 -8 0
-15 -4 -15 -8z"/>
<path d="M7707 8759 c4 -13 8 -18 11 -10 2 7 -1 18 -6 23 -8 8 -9 4 -5 -13z"/>
<path d="M5138 8534 c-3 -33 -8 -38 -46 -53 -24 -10 -43 -20 -43 -24 4 -38 -2
-55 -23 -67 -14 -7 -22 -18 -20 -25 3 -6 -2 -18 -10 -25 -9 -7 -13 -17 -10
-22 4 -7 -8 -8 -35 -3 -42 7 -51 -1 -28 -24 10 -11 9 -12 -1 -6 -8 4 -19 0
-27 -11 -14 -18 -15 -18 -39 11 l-24 30 -17 -43 c-13 -31 -24 -44 -44 -48 -63
-13 -66 -19 -22 -39 28 -12 40 -23 36 -33 -3 -7 -5 -21 -5 -31 0 -9 -6 -26
-14 -36 -13 -18 -15 -18 -39 -2 -34 22 -34 22 -29 -17 3 -27 -1 -37 -23 -55
-23 -18 -25 -21 -9 -21 35 0 47 -15 33 -38 -7 -11 -19 -18 -26 -15 -9 4 -11 0
-7 -11 6 -16 -4 -21 -34 -17 -11 2 -11 -2 -1 -21 7 -13 12 -30 10 -38 -2 -11
2 -10 18 4 28 25 51 6 51 -43 l1 -36 29 36 c28 34 33 36 65 29 41 -9 42 -7 15
27 l-20 26 20 34 20 34 -38 -7 c-34 -7 -36 -6 -22 10 10 13 23 17 48 12 27 -4
31 -2 23 8 -6 7 -8 16 -4 19 12 13 23 7 23 -13 0 -11 5 -20 10 -20 6 0 10 11
10 25 0 20 5 25 25 25 30 0 33 20 5 27 -12 3 -20 14 -20 26 0 16 -3 18 -12 9
-7 -7 -21 -12 -31 -12 -15 0 -18 -5 -13 -24 6 -26 -19 -45 -37 -27 -13 13 11
101 30 108 8 3 32 -2 55 -10 45 -18 43 -22 23 53 -5 18 -4 21 3 11 8 -11 15
-10 41 8 27 19 32 20 37 7 7 -19 44 -3 44 19 0 8 9 16 20 16 11 1 26 2 32 3 7
0 14 10 16 21 6 28 35 53 67 57 l27 3 -21 27 -21 26 36 12 37 13 -24 13 c-29
16 -9 18 39 5 25 -8 32 -7 32 5 0 8 -4 14 -9 14 -23 0 -18 33 12 67 20 24 26
34 15 30 -10 -3 -18 -2 -18 3 0 6 -9 10 -19 10 -11 0 -21 5 -23 11 -3 9 -10 8
-25 -1 -18 -12 -25 -11 -46 3 l-26 17 -3 -36z"/>
<path d="M5325 8410 c3 -5 8 -10 11 -10 2 0 4 5 4 10 0 6 -5 10 -11 10 -5 0
-7 -4 -4 -10z"/>
<path d="M5485 8371 c-3 -5 -1 -12 5 -16 5 -3 10 1 10 9 0 18 -6 21 -15 7z"/>
<path d="M8184 8218 c-13 -18 -11 -51 3 -55 7 -3 11 9 10 31 -1 40 -1 41 -13
24z"/>
<path d="M8084 8089 c5 -25 0 -45 -17 -74 -20 -36 -26 -40 -56 -37 l-33 4 22
-30 23 -31 -21 -35 -21 -36 42 0 c23 0 58 -5 78 -10 38 -11 38 -10 59 -115 5
-25 4 -45 -2 -52 -8 -10 -6 -13 5 -13 16 0 27 20 28 53 0 12 9 40 19 62 l18
40 7 -27 c4 -16 10 -26 15 -23 4 2 12 -7 18 -20 9 -20 8 -28 -5 -41 -21 -21
-26 -49 -13 -75 11 -19 10 -20 -27 -23 -6 -1 -21 -10 -32 -20 -21 -20 -22 -19
-65 23 l-43 42 -13 -30 c-10 -26 -15 -29 -31 -20 -17 9 -18 8 -7 -17 11 -23 9
-28 -11 -43 l-22 -17 25 -19 c14 -11 26 -27 26 -36 0 -19 -33 -36 -38 -20 -2
6 -8 11 -14 11 -7 0 -6 -5 1 -14 10 -12 8 -17 -9 -26 -18 -9 -25 -8 -41 6 -10
9 -19 23 -19 30 0 7 -6 15 -12 18 -7 3 3 3 22 0 l35 -6 -53 55 c-48 48 -53 57
-43 76 14 25 24 26 41 6 14 -17 35 -21 25 -5 -3 6 1 7 9 4 9 -3 16 -1 16 5 0
6 -5 11 -11 11 -6 0 -9 7 -5 15 3 8 -2 21 -10 30 -9 9 -14 22 -11 29 7 19 -16
27 -53 19 -39 -7 -39 8 0 102 15 39 27 71 25 73 -2 2 -48 -20 -104 -48 l-101
-50 -12 26 -12 26 -9 -24 -8 -23 -32 35 c-18 20 -58 65 -90 100 l-58 65 5 -35
c3 -19 8 -68 12 -109 7 -72 6 -73 -15 -66 -23 7 -28 -4 -9 -23 9 -9 9 -12 0
-12 -6 0 -16 9 -22 20 -17 32 -26 24 -45 -42 -9 -35 -19 -69 -21 -75 -4 -15
-24 -18 -24 -4 0 5 -9 7 -21 4 -12 -4 -25 0 -30 8 -6 10 -9 10 -9 2 0 -9 -16
-13 -45 -13 -41 0 -45 2 -45 25 0 23 4 25 43 25 l42 1 -30 24 -30 25 30 25
c17 13 35 25 40 26 11 1 -41 17 -87 26 -16 3 -28 12 -28 19 0 8 -6 14 -13 14
-6 0 -18 13 -25 29 -19 43 -40 46 -60 11 -23 -40 -68 -42 -78 -5 -8 31 -20 32
-35 4 -10 -19 -17 -21 -57 -15 l-46 6 27 -28 c31 -32 34 -58 11 -90 -14 -20
-14 -22 1 -22 9 0 27 7 40 16 23 15 25 15 25 0 0 -9 6 -13 14 -10 17 7 31 -12
16 -21 -8 -5 -8 -11 0 -20 15 -18 -11 -79 -40 -95 -28 -15 -17 -25 28 -25 34
0 37 -3 45 -39 l10 -40 16 35 c14 30 22 35 61 39 l44 5 -27 18 c-15 9 -27 24
-27 32 0 20 16 19 24 -1 3 -8 10 -13 15 -10 4 3 19 -4 32 -15 21 -18 24 -19
27 -5 5 21 7 20 48 -10 23 -18 33 -32 29 -44 -4 -12 3 -21 25 -30 16 -7 30
-14 30 -16 0 -1 -7 -33 -15 -70 -9 -36 -14 -68 -12 -70 1 -2 28 14 58 36 29
22 60 40 67 40 14 0 94 -56 104 -74 4 -6 14 -52 22 -100 9 -49 18 -91 21 -94
2 -3 27 42 55 100 67 141 78 149 165 125 49 -13 48 -13 113 -21 37 -5 52 -4
47 4 -9 14 14 13 71 -6 67 -23 83 -40 103 -120 l18 -69 37 73 37 73 37 -7 c20
-3 54 -10 75 -14 20 -4 37 -6 37 -3 0 2 -23 31 -50 64 -55 66 -56 77 -16 154
12 24 21 59 21 86 0 42 -2 45 -22 41 -13 -2 -23 -8 -23 -12 0 -4 -11 -7 -24
-6 -28 1 -29 15 -3 35 13 9 17 22 14 38 -3 14 -1 41 5 59 8 30 13 34 42 34 39
0 54 24 31 49 -21 24 -24 64 -5 68 10 3 20 -9 29 -32 14 -40 26 -39 34 5 5 21
12 30 26 30 29 0 32 12 10 38 -16 20 -24 22 -51 16 -18 -4 -47 -8 -64 -9 -29
-1 -32 1 -38 36 -3 20 -3 51 0 68 l7 32 -34 -18 c-19 -10 -38 -24 -42 -30 -4
-7 -17 -18 -28 -24 -17 -9 -28 -3 -75 37 l-55 47 5 -34z"/>
<path d="M5046 8082 c-9 -18 -24 -32 -34 -32 -9 0 -24 -6 -34 -13 -20 -16 -13
-66 14 -85 10 -7 18 -20 18 -29 0 -9 6 -13 14 -10 7 3 19 0 25 -6 9 -9 15 -8
22 6 6 9 21 17 34 17 22 0 25 4 25 39 0 22 5 43 10 46 16 10 12 35 -5 35 -9 0
-18 7 -21 15 -4 8 -11 15 -16 15 -6 0 -16 8 -23 17 -11 15 -14 14 -29 -15z"/>
<path d="M6629 7985 c-24 -30 -48 -54 -54 -54 -5 -1 -34 13 -64 29 -30 17 -56
28 -59 25 -3 -2 9 -36 27 -75 17 -39 28 -77 24 -83 -4 -7 -24 -35 -45 -64 -21
-29 -38 -54 -38 -55 0 -2 17 -2 39 0 27 3 40 0 44 -11 3 -9 -1 -17 -13 -20
-18 -5 -25 -47 -8 -47 4 0 8 -5 8 -11 0 -7 -10 -9 -24 -5 -29 7 -43 -9 -27
-28 7 -8 10 -19 9 -26 -2 -7 8 -13 25 -14 20 -1 27 3 25 14 -3 24 21 60 41 60
10 0 26 -9 36 -20 16 -18 20 -19 27 -5 5 8 6 20 3 25 -3 6 -2 10 3 10 5 0 15
-12 22 -27 l14 -28 7 45 c4 25 8 64 8 86 l1 41 63 13 c34 7 66 16 70 20 5 4
-22 26 -59 50 l-67 42 7 84 c4 46 5 84 3 84 -3 0 -24 -25 -48 -55z m-69 -265
c0 -5 -8 -10 -17 -10 -15 0 -16 2 -3 10 19 12 20 12 20 0z"/>
<path d="M4941 7904 c-29 -37 -26 -45 8 -28 21 11 28 20 24 34 -7 25 -7 25
-32 -6z"/>
<path d="M6841 7848 c-1 -19 4 -28 14 -28 8 0 15 5 15 10 0 6 -4 10 -9 10 -5
0 -12 8 -14 18 -3 10 -5 6 -6 -10z"/>
<path d="M4680 7834 c0 -8 5 -12 10 -9 6 4 8 11 5 16 -9 14 -15 11 -15 -7z"/>
<path d="M4640 7800 c0 -5 7 -10 16 -10 8 0 12 5 9 10 -3 6 -10 10 -16 10 -5
0 -9 -4 -9 -10z"/>
<path d="M4563 7785 c-8 -23 2 -28 27 -15 18 10 20 14 9 21 -20 13 -29 11 -36
-6z"/>
<path d="M4505 7703 l7 -79 -40 -27 c-23 -15 -48 -24 -55 -21 -9 3 -23 -7 -36
-25 l-22 -30 28 -7 c42 -11 87 -40 73 -49 -8 -5 -6 -11 6 -20 23 -17 11 -49
-16 -42 -11 3 -20 1 -20 -5 0 -5 -12 -7 -30 -3 -31 7 -42 -7 -16 -22 15 -8 66
-116 66 -139 0 -7 -7 -17 -16 -22 -14 -8 -10 -10 15 -14 36 -5 43 2 46 44 3
36 1 34 57 40 37 4 48 2 50 -10 3 -14 5 -14 18 -1 29 29 49 29 74 3 l24 -26
21 21 c11 11 26 21 31 21 6 0 10 7 10 15 0 8 7 15 16 15 11 0 14 5 10 16 -3 9
-6 22 -6 30 0 8 -7 14 -15 14 -18 0 -19 14 -3 40 18 29 3 34 -30 10 l-29 -22
-34 21 c-40 25 -53 26 -46 6 4 -8 2 -17 -3 -20 -11 -7 -23 30 -16 53 8 23 45
45 59 35 7 -4 39 -6 71 -3 52 4 57 7 43 19 -10 7 -17 20 -17 27 0 8 -5 14 -12
14 -9 0 -9 3 0 12 9 9 5 19 -20 45 l-31 33 26 60 c14 33 23 60 19 60 -3 0 -37
-18 -74 -41 l-69 -40 -47 39 c-77 63 -74 64 -67 -25z m30 -343 c-3 -5 -1 -10
4 -10 19 0 12 -25 -10 -38 -21 -13 -42 -7 -24 6 6 4 10 13 11 20 2 27 4 32 15
32 5 0 7 -4 4 -10z"/>
<path d="M6847 7761 c-3 -11 1 -22 8 -24 8 -4 10 3 7 19 -5 29 -8 30 -15 5z"/>
<path d="M4660 7754 c0 -8 5 -12 10 -9 6 3 10 10 10 16 0 5 -4 9 -10 9 -5 0
-10 -7 -10 -16z"/>
<path d="M6388 7684 c-12 -13 -20 -14 -36 -5 -30 16 -51 14 -29 -3 23 -17 22
-37 -4 -70 -28 -35 -15 -33 22 5 21 22 35 28 50 24 18 -6 19 -4 10 13 -7 13
-7 22 1 30 7 7 9 14 7 17 -3 2 -12 -3 -21 -11z"/>
<path d="M4790 7678 c0 -9 -9 -20 -21 -23 -20 -7 -20 -7 3 -29 l23 -22 22 21
c25 22 29 35 12 35 -7 0 -18 8 -25 18 -12 16 -13 16 -14 0z"/>
<path d="M6274 7519 c-19 -32 -25 -35 -58 -31 -22 3 -36 0 -36 -7 0 -6 4 -11
10 -11 6 0 8 -23 5 -55 -5 -58 -2 -62 40 -43 24 11 29 9 45 -11 21 -29 40 -20
40 18 0 16 7 34 15 41 13 11 12 15 -7 32 -13 11 -24 35 -27 61 l-6 42 -21 -36z"/>
<path d="M6142 7458 c3 -7 12 -14 21 -16 12 -2 15 1 11 12 -7 19 -38 22 -32 4z"/>
<path d="M6365 7440 c-3 -5 -2 -10 4 -10 5 0 13 5 16 10 3 6 2 10 -4 10 -5 0
-13 -4 -16 -10z"/>
<path d="M6208 7333 c-10 -2 -18 -13 -18 -24 0 -11 5 -17 10 -14 6 3 10 1 10
-4 0 -25 15 -8 17 19 1 17 1 29 0 29 -1 -1 -10 -3 -19 -6z"/>
<path d="M6200 7260 c0 -5 5 -10 10 -10 6 0 10 5 10 10 0 6 -4 10 -10 10 -5 0
-10 -4 -10 -10z"/>
<path d="M4690 7230 c0 -5 5 -10 10 -10 6 0 10 5 10 10 0 6 -4 10 -10 10 -5 0
-10 -4 -10 -10z"/>
<path d="M5950 7147 c0 -12 -5 -28 -12 -35 -9 -9 -9 -12 0 -12 7 0 21 -14 31
-31 19 -31 19 -31 31 -10 6 12 19 21 28 20 9 -1 21 -1 26 0 11 1 -58 67 -85
81 -16 9 -19 7 -19 -13z"/>
<path d="M6265 7140 c-3 -5 -1 -10 4 -10 6 0 11 5 11 10 0 6 -2 10 -4 10 -3 0
-8 -4 -11 -10z"/>
<path d="M4510 7093 c-18 -18 -19 -23 -6 -23 10 0 16 -8 16 -22 0 -20 1 -20
18 -5 10 10 21 15 24 12 3 -3 8 7 10 24 4 24 0 30 -17 34 -14 2 -30 -5 -45
-20z"/>
<path d="M6112 7047 c-14 -17 -36 -68 -37 -87 0 -11 -12 -15 -48 -14 -26 0
-47 -3 -47 -8 0 -4 -8 -8 -17 -8 -15 -1 -15 -3 5 -19 32 -27 27 -47 -15 -64
l-38 -16 43 -17 c60 -24 74 -91 22 -104 l-25 -6 33 -17 c28 -16 32 -22 32 -59
l0 -41 23 21 c28 26 38 27 78 7 l30 -16 -19 38 -19 38 24 25 24 25 -40 3 c-23
2 -42 9 -45 18 -8 21 16 27 68 16 34 -7 43 -6 39 3 -8 22 15 27 46 10 36 -18
44 -19 35 -2 -5 9 -4 9 6 0 14 -13 5 -33 -16 -33 -16 0 -18 -23 -5 -49 7 -13
3 -21 -20 -36 -38 -26 -37 -35 6 -35 24 0 37 -6 45 -20 9 -16 8 -20 -5 -20
-19 0 -20 -16 -1 -27 19 -11 25 -35 14 -56 -6 -12 -4 -22 7 -33 19 -20 19 -31
-1 -42 -14 -8 -13 -12 8 -34 14 -13 27 -31 30 -39 5 -11 8 -10 20 5 12 15 20
17 44 9 46 -15 40 -35 -21 -67 -58 -30 -69 -46 -32 -46 12 0 40 -7 62 -14 42
-15 52 -32 54 -93 1 -18 5 -33 10 -33 5 0 23 24 39 54 l31 53 58 -9 c32 -5 62
-10 68 -12 5 -1 21 -61 35 -132 l26 -129 25 42 c13 24 27 43 32 43 4 0 40 26
80 59 54 44 80 59 105 59 21 0 32 -4 32 -14 0 -8 -7 -14 -15 -14 -13 0 -14 -4
-5 -21 7 -11 14 -18 17 -15 4 3 12 1 20 -5 10 -9 13 -8 13 5 0 19 31 21 48 4
9 -9 12 -7 12 10 0 37 34 46 81 22 22 -12 43 -20 45 -17 2 2 -7 37 -21 77 -27
79 -31 115 -15 125 15 9 12 25 -5 25 -29 0 -15 19 75 101 50 45 88 84 86 86
-2 2 -59 -3 -126 -12 -101 -13 -125 -14 -132 -3 -17 27 -19 56 -4 91 l15 36
-25 -10 c-14 -5 -27 -9 -28 -9 -2 0 -14 24 -26 53 l-23 52 -26 -79 c-27 -78
-27 -79 -83 -107 l-57 -29 -103 87 c-96 81 -103 85 -107 62 -3 -23 -17 -39
-35 -39 -5 0 -3 6 3 14 13 15 14 15 -52 1 -15 -3 -26 -9 -23 -13 2 -4 -13 -9
-35 -9 -22 -1 -37 2 -35 6 9 15 -19 61 -36 61 -10 0 -18 3 -19 8 -4 41 -3 75
3 79 14 8 8 22 -12 28 -14 5 -20 15 -20 37 l0 31 -24 -22 c-20 -19 -29 -22
-53 -14 -17 6 -32 21 -38 37 -9 25 -5 32 38 73 l48 45 -63 -3 c-35 -2 -69 0
-77 5 -7 5 -22 28 -33 52 -21 49 -21 49 -36 31z m238 -464 c0 -10 -9 -29 -20
-43 l-20 -25 7 35 c3 19 11 38 17 42 15 11 16 10 16 -9z m268 -20 c-1 -10 2
-42 6 -70 7 -50 7 -53 -13 -53 -12 0 -38 7 -57 15 l-35 15 22 -36 c18 -29 19
-38 8 -44 -18 -12 -24 -7 -39 39 -15 45 -8 71 19 78 17 4 18 9 10 30 -8 22 -7
25 9 21 10 -3 27 1 37 8 25 19 34 18 33 -3z"/>
<path d="M4395 6975 c0 -13 10 -34 23 -47 28 -31 28 -36 -5 -49 -22 -8 -30 -7
-40 7 -12 17 -13 17 -13 0 0 -10 -10 -20 -21 -23 -21 -6 -21 -7 -4 -19 17 -12
17 -17 5 -40 -14 -24 -17 -25 -75 -19 l-60 7 37 -39 37 -38 -26 -44 -26 -44
29 7 c88 19 90 19 126 -13 43 -37 52 -39 46 -7 -3 15 2 27 14 35 10 6 17 19
16 29 -2 9 3 16 10 15 16 -4 54 35 40 39 -6 2 -12 12 -14 22 -2 15 3 17 27 14
33 -5 33 -4 18 24 -8 15 -8 23 2 32 9 8 11 7 6 -6 -5 -13 -1 -18 12 -18 10 0
22 -8 26 -17 6 -16 8 -15 16 5 9 22 29 31 29 11 0 -5 5 -7 10 -4 19 12 10 33
-20 44 -98 36 -92 32 -73 47 17 12 16 15 -9 39 -16 14 -28 35 -28 45 0 26 -8
25 -31 -4 -13 -17 -25 -22 -40 -19 -11 3 -18 11 -16 18 3 6 -3 16 -12 22 -14
9 -17 7 -16 -12z m65 -134 c0 -12 -39 -21 -45 -11 -3 5 1 11 7 13 21 9 38 8
38 -2z"/>
<path d="M4655 6879 c-4 -6 -5 -12 -2 -15 2 -3 7 2 10 11 7 17 1 20 -8 4z"/>
<path d="M4648 6786 c-12 -9 -13 -15 -4 -26 18 -23 44 -20 49 5 5 27 -21 39
-45 21z"/>
<path d="M4686 6720 c-26 -17 -32 -17 -57 -4 -42 21 -48 18 -55 -26 -4 -22
-10 -40 -15 -40 -5 0 -9 5 -9 10 0 6 -6 10 -14 10 -15 0 -26 -21 -26 -49 0
-21 -43 -47 -60 -36 -7 4 -14 -1 -17 -14 -3 -13 -13 -21 -25 -21 -17 0 -18 -3
-8 -15 11 -14 7 -19 -12 -16 -14 2 -8 -14 17 -44 19 -23 24 -26 25 -12 0 9 7
17 16 17 9 0 12 5 8 11 -5 8 -2 9 11 2 10 -6 20 -25 22 -44 4 -40 12 -49 23
-28 11 19 86 24 106 8 19 -15 18 1 -1 47 -15 37 -13 54 8 54 7 0 17 11 24 25
9 21 9 25 -5 26 -10 1 -28 2 -42 2 -30 2 -34 31 -5 33 11 1 27 2 36 3 19 1 33
51 15 51 -6 1 9 11 33 23 25 12 47 28 49 35 5 16 -7 14 -42 -8z"/>
<path d="M4462 6357 c-10 -40 -15 -45 -54 -56 l-42 -13 29 -15 c17 -9 31 -17
33 -18 2 -2 -1 -19 -6 -39 -10 -35 -10 -35 13 -20 17 11 32 13 57 6 31 -8 33
-11 33 -54 0 -54 8 -66 31 -47 10 8 18 13 18 11 1 -2 10 0 20 4 14 5 25 0 43
-22 l23 -29 -6 46 c-6 41 -4 48 17 63 20 14 22 18 9 26 -8 5 -20 10 -27 10 -7
0 -18 18 -24 40 l-12 39 -20 -25 c-10 -14 -24 -23 -30 -21 -17 5 -18 54 -1 68
23 19 16 25 -26 21 -37 -4 -40 -2 -40 21 0 13 -6 30 -14 36 -11 9 -16 3 -24
-32z"/>
<path d="M7290 6266 c0 -9 -4 -16 -9 -16 -5 0 -11 -7 -14 -14 -4 -11 -1 -13
10 -9 13 5 15 2 10 -16 -5 -20 -3 -22 18 -17 15 4 25 1 29 -9 3 -8 14 -15 24
-15 14 0 19 6 17 23 -1 12 -3 30 -4 40 0 10 -7 17 -13 14 -7 -2 -25 5 -40 15
-24 17 -28 17 -28 4z"/>
<path d="M7432 6170 c-13 -10 -23 -23 -22 -27 0 -11 -20 -11 -49 -1 -32 12
-35 5 -16 -32 16 -30 15 -33 -9 -65 -24 -31 -25 -35 -10 -49 17 -17 8 -21 -15
-7 -9 6 -22 6 -34 0 -14 -8 -23 -7 -35 4 -19 17 -35 7 -44 -31 -5 -17 -2 -22
12 -22 10 0 25 -10 34 -22 l17 -23 -4 27 c-3 18 0 25 9 21 7 -3 10 -12 6 -21
-5 -15 -4 -15 11 -3 14 11 20 11 32 1 12 -10 15 -10 15 4 0 9 7 16 16 16 8 0
13 4 10 9 -10 15 53 32 74 21 17 -9 19 -5 22 32 2 34 7 44 23 46 11 3 17 1 13
-3 -4 -4 0 -21 8 -37 8 -16 13 -32 10 -37 -3 -4 6 -14 19 -21 14 -7 25 -19 25
-26 0 -20 -29 -24 -39 -6 -9 15 -10 14 -11 -5 0 -12 4 -24 9 -27 5 -3 7 -14 4
-25 -4 -15 0 -18 21 -14 20 4 26 1 26 -11 0 -13 4 -15 19 -6 26 13 31 13 31
-5 0 -8 -7 -15 -16 -15 -8 0 -12 -4 -9 -10 3 -5 20 -7 38 -4 21 4 27 2 19 -3
-10 -7 -8 -14 8 -28 11 -10 17 -22 13 -28 -3 -5 -2 -7 4 -4 5 3 18 -8 29 -26
l19 -32 3 33 c3 26 7 32 28 32 15 0 24 -6 24 -15 0 -8 5 -15 10 -15 6 0 10 5
10 12 0 6 3 8 6 5 12 -11 -18 -37 -42 -37 -13 0 -23 -4 -22 -8 2 -5 -10 -20
-27 -35 l-30 -26 23 -23 22 -22 0 27 c0 28 24 38 34 15 3 -9 8 -8 16 5 6 9 17
17 24 17 8 0 16 7 20 15 8 22 37 18 43 -5 4 -16 9 -18 24 -9 15 7 21 6 25 -6
9 -22 24 -18 24 6 0 12 8 28 18 35 14 11 14 13 2 14 -25 1 -60 37 -60 60 0 15
-5 20 -15 17 -21 -9 -28 10 -8 22 10 5 15 13 11 16 -4 4 -14 0 -23 -9 -18 -18
-35 -21 -35 -7 0 5 -8 12 -17 15 -10 4 -14 4 -11 0 4 -4 3 -14 -2 -24 -10 -20
-62 -16 -81 6 -13 16 -4 34 18 34 13 0 13 3 3 15 -7 8 -10 22 -6 30 4 11 -2
15 -21 15 -21 0 -23 2 -13 15 17 20 79 30 101 17 22 -14 28 0 22 43 -4 27 1
34 57 75 l62 45 -80 9 c-75 8 -81 10 -87 35 -20 83 -63 93 -94 21 l-21 -49
-90 0 c-102 0 -116 9 -106 64 8 41 8 40 -22 15z m158 -220 c0 -5 -7 -7 -15 -4
-8 4 -15 8 -15 10 0 2 7 4 15 4 8 0 15 -4 15 -10z m-10 -51 c0 -6 -4 -7 -10
-4 -5 3 -10 11 -10 16 0 6 5 7 10 4 6 -3 10 -11 10 -16z m65 -49 c3 -5 -1 -10
-9 -10 -9 0 -16 5 -16 10 0 6 4 10 9 10 6 0 13 -4 16 -10z"/>
<path d="M4800 6142 c0 -5 7 -17 15 -28 14 -19 14 -19 15 2 0 12 -7 24 -15 28
-8 3 -15 2 -15 -2z"/>
<path d="M4689 6030 c-22 -19 -23 -21 -6 -30 9 -6 17 -16 17 -21 0 -6 -8 -9
-17 -8 -31 3 -36 -1 -23 -16 10 -12 10 -19 2 -27 -18 -18 -14 -30 4 -20 22 12
53 -14 47 -38 -4 -14 -21 -19 -85 -26 l-80 -9 66 -50 c36 -27 66 -53 66 -57 0
-3 -7 -39 -15 -79 -9 -40 -14 -74 -12 -75 2 -2 28 14 57 36 30 22 55 40 58 40
2 0 1 -14 -3 -31 l-7 -31 31 16 c37 19 50 20 75 1 17 -13 17 -16 -15 -71 -27
-48 -29 -56 -13 -50 37 14 111 19 118 7 4 -6 16 -11 26 -11 10 0 36 -20 57
-45 20 -25 40 -45 43 -45 4 0 5 27 3 60 -3 49 -1 60 12 60 8 0 15 -8 15 -17 0
-10 4 -24 9 -32 7 -11 13 -6 26 18 16 32 18 33 66 26 45 -6 49 -5 49 13 0 12
-4 24 -10 27 -6 3 -7 -1 -4 -9 9 -22 -6 -20 -33 6 -22 20 -22 22 -6 40 24 27
26 50 3 43 -20 -6 -140 43 -140 57 0 5 6 6 13 2 6 -4 4 2 -5 13 -11 11 -21 45
-24 81 -6 57 -9 61 -35 67 -28 6 -35 22 -30 63 1 6 -5 12 -14 12 -8 0 -15 6
-16 13 0 6 -4 3 -8 -8 -5 -11 -4 -23 0 -26 5 -3 3 -13 -4 -22 -10 -14 -18 -15
-49 -6 -21 5 -39 15 -39 22 -6 52 -3 73 10 83 13 10 12 13 -7 23 -12 6 -22 21
-22 33 l0 22 -19 -21 c-13 -14 -28 -19 -44 -16 -18 4 -26 0 -30 -16 -4 -18 -8
-19 -31 -8 -31 14 -33 27 -6 34 11 3 20 9 20 14 0 15 -16 10 -41 -11z m159
-159 c3 -8 -1 -12 -9 -9 -7 2 -15 10 -17 17 -3 8 1 12 9 9 7 -2 15 -10 17 -17z
m172 -71 c0 -5 -5 -10 -11 -10 -5 0 -7 5 -4 10 3 6 8 10 11 10 2 0 4 -4 4 -10z
m-40 -51 c0 -12 -47 -11 -55 0 -9 15 28 31 42 19 7 -6 13 -14 13 -19z"/>
<path d="M7775 5868 c3 -7 19 -21 36 -30 19 -11 28 -22 23 -30 -5 -9 -4 -10 4
-3 13 12 4 58 -9 49 -5 -3 -16 2 -25 10 -19 19 -35 21 -29 4z"/>
<path d="M7902 5838 c-13 -13 -4 -38 13 -38 17 0 26 37 10 44 -7 2 -17 0 -23
-6z"/>
<path d="M7963 5733 c9 -9 19 -14 23 -11 10 10 -6 28 -24 28 -15 0 -15 -1 1
-17z"/>
<path d="M8030 5684 c-14 -8 -34 -14 -45 -14 -27 0 -54 -20 -37 -27 6 -2 12
-11 12 -18 0 -8 10 -17 22 -21 20 -6 20 -8 5 -19 -24 -17 -21 -23 7 -18 17 4
26 13 28 29 2 14 6 23 10 22 10 -4 37 34 38 54 0 24 -11 27 -40 12z"/>
<path d="M8280 5605 c-8 -10 -25 -14 -46 -11 -39 4 -43 -5 -12 -36 14 -14 23
-18 26 -10 5 17 29 15 36 -4 4 -9 1 -23 -5 -31 -7 -7 -9 -16 -5 -20 3 -3 6 -1
6 5 0 7 5 12 11 12 7 0 9 -10 5 -25 -4 -14 -2 -25 4 -25 5 0 10 15 10 33 0 18
6 39 13 46 10 10 9 11 -5 6 -12 -5 -18 -2 -18 8 0 8 4 17 10 19 11 3 2 48 -10
48 -4 0 -13 -7 -20 -15z"/>
<path d="M5392 5582 c-7 -5 -10 -16 -6 -25 7 -20 -11 -45 -41 -57 -18 -8 -18
-9 -2 -9 10 -1 17 -6 15 -13 -7 -21 -26 -20 -47 3 -18 19 -21 20 -21 6 0 -17
-20 -22 -65 -17 -20 2 -20 2 -2 -18 18 -20 18 -21 0 -46 -17 -25 -67 -34 -61
-11 2 6 8 9 13 7 6 -2 4 2 -2 9 -7 7 -13 22 -13 33 0 19 -1 19 -13 1 -8 -10
-18 -15 -23 -12 -6 3 -10 -9 -10 -28 0 -19 3 -32 7 -29 4 2 12 -3 19 -11 7 -8
21 -15 31 -15 11 0 19 -4 19 -9 0 -5 3 -16 6 -25 4 -10 -5 -22 -28 -36 -36
-22 -34 -26 6 -10 21 8 28 5 45 -17 16 -19 22 -22 26 -11 3 8 32 27 65 43 l59
28 45 -36 44 -37 11 31 c8 24 15 30 28 24 10 -4 25 -8 33 -8 8 0 19 -5 23 -11
5 -6 5 5 1 24 -3 19 -12 39 -18 43 -7 6 -4 6 8 3 14 -5 17 -3 11 11 -12 30
-11 46 4 51 8 3 11 0 7 -6 -3 -6 -1 -14 5 -18 6 -3 15 0 20 7 11 19 -18 41
-51 38 -31 -2 -60 9 -82 31 -21 22 -40 88 -27 96 5 3 3 12 -5 20 -17 16 -17
16 -34 6z m-115 -184 c13 -12 23 -27 23 -35 0 -19 -40 -16 -47 5 -4 9 -11 20
-16 23 -10 7 -1 29 10 29 4 0 17 -10 30 -22z m213 -56 c0 -5 -7 -17 -16 -28
-8 -10 -14 -14 -11 -9 2 6 7 18 10 28 7 17 17 23 17 9z m-233 -64 c-3 -8 -6
-5 -6 6 -1 11 2 17 5 13 3 -3 4 -12 1 -19z"/>
<path d="M5833 5415 c-27 -44 -42 -57 -55 -49 -7 4 -19 9 -28 9 -8 1 -25 5
-37 9 -15 5 -27 1 -42 -15 -12 -13 -21 -27 -21 -32 0 -5 -7 -6 -16 -3 -25 10
-34 -3 -22 -29 10 -22 7 -28 -20 -54 -16 -16 -28 -32 -24 -35 3 -3 0 -6 -6 -6
-7 0 -12 7 -12 15 0 19 -7 19 -27 0 -8 -8 -18 -13 -23 -10 -4 3 -7 -6 -6 -20
1 -17 7 -25 19 -25 9 0 17 -4 17 -10 0 -5 5 -10 10 -10 6 0 10 6 10 13 0 12
34 47 45 47 3 0 5 -10 5 -21 0 -18 3 -19 15 -9 29 24 32 -28 4 -71 -32 -49
-32 -49 1 -38 36 13 64 -4 57 -33 -4 -14 1 -18 18 -18 13 0 27 -5 31 -12 5 -8
10 -5 15 8 9 25 54 24 73 -1 13 -17 15 -12 21 50 3 39 7 77 8 85 1 8 31 30 67
48 78 41 78 40 54 48 -10 3 -31 12 -46 20 -16 8 -28 12 -28 9 0 -3 -9 -1 -20
5 -16 8 -20 23 -22 83 -3 62 -5 69 -15 52z m-83 -345 c0 -5 -2 -10 -4 -10 -3
0 -8 5 -11 10 -3 6 -1 10 4 10 6 0 11 -4 11 -10z"/>
<path d="M8543 5337 l-48 -45 -59 25 c-32 13 -60 22 -62 20 -3 -3 6 -29 20
-60 23 -53 23 -56 7 -71 -10 -9 -25 -16 -34 -16 -10 0 -17 -8 -17 -19 0 -10
-7 -25 -16 -32 -15 -12 -14 -14 7 -20 13 -3 32 -2 41 3 9 4 32 8 51 8 29 0 37
-6 53 -35 12 -23 15 -38 9 -43 -10 -7 -55 -86 -55 -96 0 -2 6 -6 14 -8 12 -3
12 -8 -1 -39 -16 -41 3 -36 -241 -60 -67 -6 -120 -15 -117 -18 4 -3 66 -38
138 -77 l132 -72 -2 -35 c-1 -20 -13 -69 -26 -109 -14 -40 -28 -90 -31 -111
l-7 -37 47 30 c58 36 82 38 94 6 8 -22 14 -24 59 -21 36 3 55 -1 66 -11 14
-14 13 -19 -7 -44 -26 -32 -44 -33 -41 -2 2 19 0 20 -21 12 -13 -5 -27 -6 -31
-2 -4 4 -4 -11 0 -33 3 -22 11 -42 16 -43 5 -2 0 -17 -12 -33 l-20 -29 35 0
c20 0 36 -3 36 -7 0 -5 -20 -72 -46 -150 -52 -163 -25 -142 -214 -163 -58 -7
-129 -15 -159 -18 l-55 -7 156 -112 156 -113 -9 -37 c-12 -47 -38 -133 -46
-153 -4 -8 -8 -28 -10 -45 -1 -16 -12 -38 -23 -47 -11 -9 -16 -19 -12 -22 5
-3 7 -17 5 -31 -3 -13 -9 -22 -14 -20 -4 3 -4 -9 2 -27 5 -18 9 -33 9 -33 0
-5 -77 -37 -109 -45 -42 -11 -43 -12 -38 -46 5 -32 4 -34 -24 -34 -17 0 -28
-4 -24 -9 8 -13 -35 -41 -63 -41 -12 0 -25 7 -28 15 -4 9 -14 14 -22 13 -13
-2 -20 14 -33 75 -9 43 -19 80 -21 82 -2 3 -39 -61 -82 -141 l-79 -145 -41 6
c-125 17 -281 33 -285 30 -2 -2 44 -54 103 -116 58 -61 103 -116 100 -121 -4
-5 -18 2 -33 16 -36 34 -41 33 -34 -9 4 -24 2 -35 -7 -35 -6 0 -10 -6 -7 -12
2 -7 -3 -19 -12 -25 -13 -10 -14 -14 -3 -22 23 -14 9 -43 -35 -77 -23 -18 -48
-34 -55 -37 -20 -7 -4 -18 46 -30 l46 -12 -20 -37 c-25 -47 -25 -56 -1 -34 26
24 81 38 97 25 7 -6 16 -31 20 -55 3 -24 10 -47 15 -49 4 -3 23 23 41 57 19
36 41 64 51 66 35 7 64 -8 77 -38 l12 -30 20 25 c11 14 26 25 34 25 8 0 13 6
12 13 -6 26 24 10 93 -52 l72 -65 -8 77 c-4 53 -3 77 4 77 16 0 13 26 -4 40
-8 7 -15 28 -15 49 0 29 8 44 39 74 36 35 41 38 63 26 12 -6 26 -16 29 -21 14
-21 48 17 55 60 4 28 13 46 26 53 11 6 17 13 14 16 -3 4 4 13 15 21 17 11 23
12 29 2 5 -9 13 -9 26 -2 14 7 25 6 39 -4 29 -21 34 -17 28 21 -5 30 0 43 36
90 23 30 56 61 74 68 45 19 63 43 47 62 -7 8 -20 15 -30 15 -23 0 -45 26 -30
35 6 4 14 4 17 1 3 -3 18 1 32 9 14 7 38 16 52 19 19 4 45 31 89 93 35 49 68
94 74 102 9 12 6 13 -19 8 -24 -4 -36 0 -57 21 -26 24 -27 27 -12 43 15 17 20
15 92 -23 43 -23 97 -54 122 -69 24 -15 46 -27 47 -25 3 2 -22 85 -74 249 -19
59 -33 113 -30 120 2 7 66 64 140 127 75 63 136 118 136 123 1 4 -59 7 -133 7
l-135 0 -9 43 -9 42 -17 -37 c-22 -50 -47 -42 -40 13 4 34 2 38 -13 33 -11 -4
-6 4 11 18 l28 24 -41 12 c-26 8 -46 22 -55 39 -13 26 -14 26 -20 5 -4 -12
-12 -20 -17 -17 -14 9 -11 35 6 51 13 13 18 13 44 -1 35 -18 45 -19 36 -5 -3
6 3 24 15 40 15 21 30 30 49 30 25 0 28 3 23 26 -3 20 0 26 17 31 16 4 19 9
11 18 -7 8 -7 21 -1 38 7 19 6 28 -4 37 -8 7 -12 16 -9 21 3 5 0 9 -5 9 -6 0
-11 7 -11 16 0 8 -5 12 -11 9 -6 -4 -8 -13 -5 -21 3 -8 -1 -17 -9 -20 -7 -3
-12 -11 -9 -19 5 -12 -38 -30 -62 -26 -7 1 -11 -12 -10 -31 1 -26 -3 -34 -19
-36 -14 -2 -26 8 -40 34 l-19 36 -9 -26 c-14 -43 -30 -31 -25 19 3 25 2 45 -3
45 -5 0 -9 9 -9 20 0 29 26 25 57 -10 25 -28 44 -39 42 -22 -4 24 3 34 21 29
31 -8 25 21 -8 40 -39 22 -57 62 -38 82 13 12 23 10 79 -17 36 -18 70 -32 76
-32 7 0 26 -7 42 -16 17 -8 33 -13 36 -11 2 3 -18 58 -45 121 -46 108 -48 117
-32 126 11 6 16 17 13 28 -3 14 21 37 101 96 58 42 106 80 106 83 0 2 -62 4
-137 3 -167 -2 -173 -2 -172 8 4 22 -2 42 -11 37 -6 -4 -8 -11 -5 -16 4 -5 -1
-9 -10 -9 -12 0 -14 6 -9 28 7 24 5 25 -9 14 -17 -14 -17 -14 -66 72 l-22 38
26 -6 c28 -7 29 -7 16 27 -12 31 18 84 51 89 20 3 16 7 -24 28 -27 13 -48 28
-48 32 0 4 -6 8 -13 8 -10 0 -12 14 -6 62 4 35 6 65 4 66 -2 2 -25 -16 -52
-41z m177 -1143 c0 -8 -4 -12 -10 -9 -5 3 -10 13 -10 21 0 8 5 12 10 9 6 -3
10 -13 10 -21z m-177 -753 c-5 -20 -63 -48 -63 -31 0 9 50 49 62 50 3 0 4 -9
1 -19z m-70 -55 c4 -10 0 -12 -14 -9 -10 3 -16 9 -13 14 8 13 21 11 27 -5z
m78 -41 c-1 -16 -5 -33 -8 -37 -9 -16 -53 -8 -63 11 -15 29 -13 33 12 25 19
-6 21 -5 11 8 -16 19 -5 30 27 26 21 -3 25 -7 21 -33z m109 5 c8 -5 10 -10 4
-10 -6 0 -26 -3 -43 -6 -26 -6 -30 -4 -25 10 7 18 41 21 64 6z m-230 -65 c0
-17 16 -20 25 -5 8 12 35 13 35 1 0 -5 -12 -12 -26 -15 -25 -7 -26 -8 -9 -26
18 -19 15 -50 -5 -50 -6 0 -14 9 -18 21 -5 11 -12 19 -17 17 -10 -4 -27 51
-19 64 9 14 34 9 34 -7z m-110 -14 c0 -11 -9 -21 -22 -24 -29 -8 -31 -5 -12
21 19 27 34 28 34 3z m-70 -71 c0 -5 -2 -10 -4 -10 -3 0 -8 5 -11 10 -3 6 -1
10 4 10 6 0 11 -4 11 -10z m168 -31 c-2 -6 -8 -10 -13 -10 -5 0 -11 4 -13 10
-2 6 4 11 13 11 9 0 15 -5 13 -11z m-248 -180 c0 -5 -7 -9 -15 -9 -9 0 -15 9
-15 21 0 18 2 19 15 9 8 -7 15 -16 15 -21z m120 -110 c0 -5 -7 -9 -15 -9 -15
0 -20 12 -9 23 8 8 24 -1 24 -14z"/>
<path d="M5570 5360 c0 -5 5 -10 10 -10 6 0 10 5 10 10 0 6 -4 10 -10 10 -5 0
-10 -4 -10 -10z"/>
<path d="M5954 5178 c-3 -4 1 -16 7 -26 9 -15 8 -24 -6 -45 -9 -15 -21 -27
-26 -27 -5 0 -9 -4 -9 -10 0 -14 20 -12 50 3 22 11 26 10 35 -7 14 -27 35 -32
35 -8 0 24 66 41 84 21 7 -7 7 -10 0 -6 -11 6 -19 -2 -67 -66 -15 -20 -35 -37
-44 -37 -12 0 -13 -3 -4 -14 6 -8 10 -20 9 -27 -4 -18 49 -24 68 -8 12 10 16
9 21 -9 3 -13 13 -22 24 -22 12 0 16 5 13 15 -4 8 -13 15 -21 15 -12 0 -14 7
-9 30 4 24 2 30 -11 30 -14 0 -15 2 -4 13 10 10 18 5 41 -23 22 -26 30 -30 30
-17 0 19 15 23 25 7 10 -16 19 -12 31 15 11 23 11 24 -10 13 -18 -10 -19 -9
-8 4 9 11 10 18 2 23 -16 10 -12 23 10 35 16 9 27 6 57 -15 21 -14 32 -25 25
-25 -6 0 -12 -6 -12 -13 0 -7 -9 -23 -20 -35 -23 -24 -25 -34 -7 -31 34 4 39
-1 33 -36 -8 -43 9 -47 56 -13 30 21 31 21 44 3 8 -10 14 -22 14 -26 0 -4 5
-20 11 -36 11 -28 12 -27 29 32 13 48 21 59 35 57 26 -5 65 -32 65 -46 0 -6
15 -11 35 -11 30 0 33 3 29 21 -3 12 -1 25 5 28 17 11 13 24 -6 22 -12 -1 -17
5 -16 19 1 13 -11 29 -33 45 -23 17 -33 31 -30 43 2 10 0 47 -6 83 -10 58 -13
63 -27 50 -10 -8 -38 -13 -73 -13 -32 0 -61 -3 -65 -6 -3 -4 -18 0 -31 9 -24
16 -25 16 -20 -10 3 -15 1 -29 -3 -32 -5 -3 -9 -17 -10 -32 0 -15 -3 -21 -6
-14 -4 10 -8 10 -19 1 -11 -9 -19 -8 -38 4 -22 15 -24 15 -29 -3 -3 -11 -13
-20 -24 -20 -14 0 -15 2 -4 9 10 6 10 10 1 16 -6 4 -9 13 -7 19 3 7 -4 18 -14
24 -16 10 -19 9 -19 -3 0 -8 -5 -15 -11 -15 -29 0 -89 50 -89 75 0 13 -78 16
-86 3z m228 -180 c-9 -9 -12 -7 -12 12 0 19 3 21 12 12 9 -9 9 -15 0 -24z
m388 -58 c0 -5 -4 -10 -10 -10 -5 0 -10 5 -10 10 0 6 5 10 10 10 6 0 10 -4 10
-10z"/>
<path d="M5850 5061 c0 -9 24 -21 42 -21 6 0 6 6 -2 15 -14 16 -40 20 -40 6z"/>
<path d="M6725 4788 c1 -70 -2 -109 -9 -112 -7 -3 -6 -8 4 -15 13 -10 12 -13
-4 -26 -30 -23 -43 -18 -56 20 -13 41 -25 39 -34 -6 -4 -22 -10 -30 -21 -25
-18 7 -75 -3 -75 -14 0 -4 11 -12 23 -17 20 -9 24 -19 25 -59 1 -26 4 -49 6
-51 2 -2 15 2 30 8 21 10 37 10 78 -1 37 -9 53 -10 56 -2 2 6 9 9 16 6 9 -3
13 5 13 26 0 21 -5 30 -16 30 -14 0 -14 2 -1 10 26 17 50 11 62 -16 10 -21 9
-27 -3 -35 -11 -8 -11 -12 -1 -16 9 -3 10 -9 2 -17 -7 -9 -4 -18 10 -31 27
-24 25 -57 -4 -87 -23 -22 -24 -28 -16 -84 9 -65 3 -76 -54 -97 l-29 -10 44
-17 c50 -20 56 -34 58 -142 l1 -66 -62 -35 c-35 -19 -74 -38 -88 -42 -14 -4
-32 -14 -41 -22 -9 -7 -21 -13 -25 -11 -5 2 -22 -7 -37 -19 l-27 -21 26 -21
c15 -12 31 -21 35 -21 5 0 9 -7 9 -15 0 -8 9 -20 20 -27 11 -7 20 -18 20 -25
0 -15 -37 -36 -50 -28 -6 3 -10 -2 -10 -12 0 -11 -5 -24 -12 -31 -9 -9 -8 -12
5 -12 9 0 21 -8 27 -17 9 -17 11 -17 21 0 5 9 15 15 21 11 7 -4 6 -9 -3 -15
-10 -6 -9 -12 5 -28 18 -20 18 -22 2 -40 -10 -11 -15 -25 -11 -30 3 -6 0 -11
-7 -11 -9 -1 -7 -5 5 -14 9 -7 17 -20 17 -29 0 -11 5 -14 15 -11 8 4 22 1 30
-6 8 -7 15 -8 15 -3 0 5 -11 16 -25 23 -14 7 -25 19 -25 27 0 9 11 7 40 -8
l40 -21 27 24 c16 12 28 29 28 37 0 7 10 20 22 28 21 14 23 13 28 -14 4 -15
10 -39 14 -53 l7 -24 19 32 c11 18 25 32 31 32 6 0 17 7 24 15 11 14 17 13 47
-5 19 -11 36 -20 38 -20 2 0 -5 20 -16 45 -22 49 -19 59 27 121 20 25 29 30
54 26 17 -2 72 -1 123 3 l93 7 -24 51 c-14 28 -42 73 -63 100 -45 56 -47 63
-19 72 11 3 20 15 20 26 0 11 10 36 23 57 44 70 98 187 88 190 -5 2 -41 -11
-80 -27 -85 -38 -102 -39 -71 -6 l23 25 -44 0 c-38 0 -47 5 -65 31 l-21 30 -6
-31 c-4 -18 -13 -30 -22 -30 -20 0 -19 11 7 65 22 45 32 53 43 35 10 -16 25
-12 25 6 0 9 -10 34 -22 55 -12 21 -18 42 -14 46 3 4 54 0 111 -8 58 -8 105
-12 105 -8 0 12 -43 39 -62 39 -11 0 -26 17 -39 41 -11 23 -41 64 -66 91 -42
44 -45 51 -35 73 10 21 8 33 -9 70 -12 25 -24 45 -28 45 -4 0 -12 -20 -19 -45
-9 -33 -16 -43 -27 -39 -8 4 -15 15 -15 25 0 11 -7 19 -16 19 -8 0 -12 5 -9
10 3 6 -3 10 -14 10 -12 0 -21 5 -21 10 0 6 -7 10 -15 10 -8 0 -15 9 -15 19 0
12 -11 23 -27 30 -31 11 -83 55 -83 69 0 16 -53 47 -58 34 -6 -18 -30 -14 -35
6 -2 9 -3 -31 -2 -90z m95 -47 c0 -5 8 -11 18 -13 10 -3 19 -13 19 -22 0 -19
-52 -23 -63 -4 -5 7 -3 8 6 3 10 -6 11 -2 6 19 -4 15 -2 26 4 26 5 0 10 -4 10
-9z m50 -96 c-7 -8 -18 -15 -24 -15 -6 0 -4 4 4 10 8 5 11 12 7 16 -4 4 -1 14
6 22 11 13 12 13 15 -2 2 -9 -2 -23 -8 -31z m156 -340 c-11 -8 -25 -15 -30
-15 -6 0 -2 7 8 15 11 8 25 15 30 15 6 0 2 -7 -8 -15z m-356 -549 c0 -3 -4 -8
-10 -11 -5 -3 -10 -1 -10 4 0 6 5 11 10 11 6 0 10 -2 10 -4z m102 -192 c-3
-15 -8 -22 -14 -16 -9 9 -1 42 12 42 4 0 5 -12 2 -26z"/>
<path d="M6530 4723 c0 -7 -6 -13 -14 -13 -7 0 -16 -9 -19 -20 -3 -11 -1 -20
4 -20 5 0 9 5 9 10 0 19 29 10 41 -12 8 -14 14 -18 17 -10 2 6 9 12 16 12 7 0
21 10 32 21 l19 22 -40 -5 c-29 -3 -43 0 -52 11 -8 11 -12 12 -13 4z"/>
<path d="M8690 4471 c0 -6 4 -13 10 -16 6 -3 7 1 4 9 -7 18 -14 21 -14 7z"/>
<path d="M8804 4172 c-13 -10 -13 -39 0 -39 21 0 34 22 21 34 -7 6 -16 8 -21
5z"/>
<path d="M4760 3914 c0 -14 -4 -23 -10 -19 -5 3 -6 13 -3 23 4 12 -1 10 -21
-8 l-28 -25 26 -3 c26 -3 27 -6 41 -78 4 -20 2 -21 -36 -14 -44 8 -42 7 -56
34 -9 17 -11 16 -17 -8 -5 -20 -13 -26 -33 -26 -24 0 -25 -1 -11 -17 26 -30
31 -60 12 -71 -25 -14 -3 -23 69 -29 l62 -6 -25 22 c-22 20 -22 21 -3 12 33
-16 38 -13 17 10 -19 22 -19 22 3 10 12 -6 25 -16 28 -21 10 -16 28 -11 21 6
-5 12 -1 14 15 9 16 -5 20 -3 16 6 -2 8 2 22 11 32 14 15 13 17 -1 17 -10 0
-17 6 -17 14 0 7 -7 19 -15 26 -8 7 -13 16 -10 20 3 5 0 10 -6 12 -14 5 0 38
17 38 20 0 17 14 -9 38 -30 28 -37 28 -37 -4z m40 -114 c0 -5 -2 -10 -4 -10
-3 0 -8 5 -11 10 -3 6 -1 10 4 10 6 0 11 -4 11 -10z"/>
<path d="M4631 3904 c-6 -15 -9 -29 -7 -32 3 -2 10 8 16 23 14 36 7 43 -9 9z"/>
<path d="M4665 3910 c-3 -5 -1 -10 4 -10 6 0 11 5 11 10 0 6 -2 10 -4 10 -3 0
-8 -4 -11 -10z"/>
<path d="M4905 3836 c-31 -13 -47 -52 -28 -67 10 -9 12 -23 8 -50 l-6 -37 40
5 c38 5 41 4 41 -18 0 -13 5 -31 10 -39 9 -13 12 -12 25 5 9 11 13 26 10 33
-7 19 13 42 30 36 8 -3 14 6 18 28 6 40 2 46 -23 30 -24 -14 -50 7 -50 42 0
30 -9 37 -31 26 -12 -7 -19 -6 -21 3 -2 8 -9 9 -23 3z"/>
<path d="M4577 3726 c5 -30 2 -34 -21 -40 -42 -10 -31 -33 13 -26 7 1 24 -1
37 -4 40 -11 32 -58 -19 -113 -37 -39 -45 -43 -58 -31 -8 7 -38 18 -67 24
l-53 11 7 -26 c16 -59 12 -99 -11 -121 l-23 -21 -61 30 c-70 36 -71 34 -40
-57 l21 -62 -51 -61 c-29 -34 -50 -63 -48 -65 2 -3 34 2 71 10 50 10 68 11 71
2 27 -78 48 -126 55 -126 4 0 15 33 24 74 20 88 42 103 88 59 16 -15 28 -22
28 -15 0 6 7 9 15 6 8 -4 15 -1 15 4 0 6 -7 12 -15 14 -10 2 -12 7 -5 18 8 12
11 12 28 -3 19 -17 20 -16 32 50 16 86 26 106 51 100 10 -3 17 -2 14 2 -2 5
20 18 50 31 48 20 53 25 37 35 -9 7 -35 18 -57 25 -22 7 -44 16 -48 20 -4 3
-3 39 3 78 13 79 5 107 -34 122 -26 10 -41 57 -24 78 8 9 5 12 -10 12 -18 0
-20 -5 -15 -34z"/>
<path d="M5207 3714 c4 -10 -1 -22 -12 -30 -17 -13 -16 -14 9 -23 14 -6 26
-16 26 -23 0 -6 6 -3 14 7 14 19 15 19 33 2 11 -9 27 -17 36 -17 19 0 21 -13
7 -41 -11 -19 -50 -27 -50 -9 0 5 -6 7 -14 4 -7 -3 -16 2 -20 11 -5 13 -8 14
-20 3 -12 -11 -11 -16 6 -35 22 -24 29 -72 16 -118 -13 -47 6 -49 47 -6 37 38
40 39 66 25 33 -17 43 -18 34 -4 -3 6 -3 16 2 23 12 18 10 77 -3 77 -7 0 -23
24 -38 53 -36 71 -51 88 -69 81 -12 -4 -14 -1 -10 18 6 20 5 21 -10 10 -12
-10 -21 -11 -36 -2 -17 9 -20 8 -14 -6z"/>
<path d="M5652 3635 c-12 -25 -37 -34 -44 -15 -5 17 -46 0 -43 -18 2 -10 4
-27 4 -40 1 -13 5 -20 11 -17 6 3 10 -1 10 -9 0 -9 -5 -16 -10 -16 -7 0 -7 -7
1 -21 26 -50 28 -77 7 -104 -10 -14 -15 -25 -9 -25 6 0 11 -4 11 -10 0 -5 -7
-10 -15 -10 -8 0 -25 -6 -38 -12 -12 -7 -24 -14 -26 -15 -1 -1 0 -7 4 -13 5
-8 10 -7 18 3 20 25 56 27 71 5 9 -12 16 -15 21 -9 10 17 23 13 31 -11 6 -21
7 -21 21 -2 8 10 20 18 26 16 7 -2 9 0 5 4 -12 11 11 34 28 27 9 -3 14 -20 15
-47 0 -40 0 -41 16 -18 8 12 22 22 30 22 9 0 13 6 9 15 -4 11 2 15 21 15 26 0
26 0 8 20 -14 16 -16 23 -7 32 9 9 15 9 24 0 17 -17 33 -15 19 2 -9 11 -6 21
17 46 27 29 30 30 46 15 22 -22 20 -30 -10 -71 -25 -32 -25 -34 -6 -34 11 0
23 -6 25 -12 4 -10 8 -9 16 2 9 13 11 13 11 -2 0 -9 -9 -18 -21 -20 -19 -3
-18 -5 11 -27 l33 -24 -7 91 c-5 55 -4 92 2 96 6 3 9 14 7 24 -1 9 0 11 2 5 5
-16 9 -16 35 -2 14 8 28 7 49 -2 16 -6 31 -10 34 -8 8 8 -8 88 -16 83 -5 -3
-12 2 -15 11 -4 9 -13 14 -20 11 -7 -3 -16 -1 -19 4 -4 6 -15 10 -26 10 -16 0
-19 7 -19 43 -1 46 0 46 -45 -17 -12 -16 -19 -17 -54 -8 -46 11 -50 5 -26 -41
11 -21 12 -34 5 -47 -14 -26 -50 -50 -76 -50 -15 0 -27 -10 -36 -30 -14 -33
-20 -35 -49 -20 -24 13 -27 63 -3 53 12 -4 14 0 8 23 -11 46 -16 49 -30 15
-15 -35 -50 -45 -41 -11 6 24 -15 55 -39 55 -9 0 -19 6 -21 13 -7 17 42 15 57
-3 7 -8 18 -15 25 -15 23 0 23 24 1 37 -21 12 -21 12 2 13 19 0 21 4 16 28
-12 51 -25 56 -42 17z"/>
<path d="M6399 3646 c15 -17 0 -29 -25 -19 -14 5 -16 3 -11 -12 5 -11 1 -22
-10 -31 -17 -13 -17 -13 1 -14 11 0 28 -7 38 -17 10 -9 18 -11 18 -5 0 6 7 9
16 5 13 -5 15 -2 9 15 -4 15 -2 22 6 22 7 0 5 7 -7 16 -19 15 -19 16 1 8 11
-4 29 -7 41 -7 21 1 29 -23 13 -42 -4 -6 -9 -28 -11 -48 -1 -25 -8 -39 -19
-42 -9 -3 -20 -13 -23 -21 -5 -12 0 -12 26 3 23 13 32 15 35 6 3 -7 12 -13 22
-13 9 0 26 -7 38 -15 19 -14 21 -13 16 3 -2 10 3 24 11 31 9 8 16 22 16 32 0
10 9 21 20 24 27 8 25 21 -2 29 -30 7 -78 52 -78 72 0 10 -6 13 -18 10 -10 -4
-38 1 -62 9 -56 20 -77 20 -61 1z"/>
<path d="M4806 3637 c4 -10 1 -17 -6 -17 -10 0 -10 -3 0 -15 15 -19 40 -20 40
-2 0 8 -9 22 -20 32 -18 17 -20 17 -14 2z"/>
<path d="M5015 3610 c-16 -32 -41 -38 -76 -20 -25 14 -24 -1 2 -34 20 -25 20
-28 5 -45 -9 -10 -16 -24 -16 -32 1 -10 5 -9 15 5 10 13 23 17 44 14 17 -3 31
-1 31 4 0 5 5 6 10 3 9 -6 15 8 11 29 -1 5 5 6 14 2 20 -7 65 3 65 15 0 5 -19
9 -41 9 l-42 0 6 35 c7 45 -8 54 -28 15z"/>
<path d="M5430 3609 c0 -22 1 -22 17 -7 15 16 18 16 45 -3 28 -20 36 -16 20 9
-5 7 -25 15 -45 19 -34 5 -37 4 -37 -18z"/>
<path d="M6316 3575 c-3 -8 -1 -15 4 -15 6 0 10 7 10 15 0 8 -2 15 -4 15 -2 0
-6 -7 -10 -15z"/>
<path d="M6215 3450 c-10 -22 -24 -40 -32 -40 -7 0 -13 -4 -13 -10 0 -5 6 -10
14 -10 8 0 28 -12 45 -26 26 -21 31 -23 31 -9 0 10 5 15 13 12 13 -5 47 15 50
30 1 4 6 7 10 5 4 -1 4 6 -2 15 -5 10 -9 22 -9 28 -1 5 -14 13 -31 18 -16 4
-33 12 -36 17 -11 18 -22 10 -40 -30z"/>
<path d="M6305 3480 c-3 -5 -1 -10 4 -10 6 0 11 5 11 10 0 6 -2 10 -4 10 -3 0
-8 -4 -11 -10z"/>
<path d="M4495 3119 c-4 -5 -12 -8 -18 -6 -11 3 -36 -20 -37 -33 0 -3 18 -6
40 -6 38 -1 51 8 30 21 -16 10 -12 25 5 19 8 -4 15 -1 15 5 0 14 -27 14 -35 0z"/>
<path d="M5051 2737 c-23 -69 -48 -130 -55 -136 -7 -6 -37 -13 -67 -17 -49 -5
-56 -4 -78 20 -32 34 -39 33 -33 -4 3 -19 0 -30 -8 -30 -7 0 -9 8 -5 21 7 21
7 21 -24 3 -30 -18 -31 -18 -56 6 -19 18 -28 21 -37 12 -9 -9 -7 -12 10 -12
19 0 20 -3 11 -22 -6 -13 -27 -36 -46 -52 -31 -26 -37 -28 -69 -18 -39 12 -39
11 -19 -28 14 -27 13 -30 -10 -58 l-24 -29 39 7 c38 7 41 6 61 -29 20 -33 22
-34 30 -16 4 11 8 30 8 43 1 12 6 22 11 22 6 0 10 7 10 15 0 8 5 15 10 15 6 0
10 -4 10 -9 0 -6 24 -7 54 -4 48 5 54 4 52 -12 -4 -27 -33 -39 -52 -21 -20 21
-30 21 -13 0 10 -13 10 -17 -2 -25 -8 -5 -20 -9 -28 -9 -11 0 -10 -4 4 -20 9
-10 20 -18 24 -17 3 1 27 -4 52 -12 l46 -13 7 -75 c4 -41 4 -95 0 -119 l-6
-44 113 81 c62 44 115 76 117 70 2 -5 10 -7 17 -5 8 3 61 -28 120 -70 58 -42
105 -70 105 -63 0 6 -14 67 -31 135 -18 67 -30 125 -26 128 3 3 23 -6 46 -20
22 -14 45 -26 50 -26 5 0 14 -7 21 -15 11 -13 15 -13 21 -3 7 10 9 10 9 -1 0
-10 3 -11 13 -3 10 8 20 4 40 -18 l27 -29 -21 -15 -22 -15 28 -7 c20 -5 30 -3
36 9 6 9 22 15 39 15 38 -1 60 18 58 48 -2 18 -8 24 -22 22 -10 -2 -21 3 -23
10 -3 6 1 12 7 12 9 0 7 8 -4 25 -26 40 -21 55 19 53 41 -1 48 3 39 26 -11 29
-49 37 -84 19 -31 -15 -32 -15 -67 18 l-34 34 3 -40 c3 -36 0 -42 -32 -62 -19
-12 -38 -23 -41 -23 -4 0 -10 15 -13 34 -6 31 -3 38 36 75 24 22 49 41 57 41
7 0 11 6 8 15 -4 8 -1 18 6 22 18 11 -28 21 -100 22 -58 1 -64 3 -77 29 -8 16
-21 34 -30 41 -13 11 -18 6 -36 -29 -12 -24 -25 -38 -30 -34 -4 5 -27 68 -50
139 -23 72 -46 134 -50 138 -4 5 -27 -48 -49 -116z m-328 -249 c7 -27 5 -30
-17 -22 -19 7 -22 44 -2 44 7 0 16 -10 19 -22z m700 -145 c7 -7 -11 -33 -23
-33 -4 0 -10 9 -13 20 -4 14 0 20 12 20 10 0 21 -3 24 -7z"/>
<path d="M4510 2767 c-8 -7 -24 -23 -35 -36 l-20 -24 21 7 c15 5 24 2 28 -10
5 -13 9 -14 21 -4 8 7 15 9 15 6 0 -4 8 0 17 10 16 15 16 17 0 29 -9 7 -17 17
-17 24 0 14 -11 14 -30 -2z"/>
<path d="M4237 2745 c6 -18 34 -16 41 3 2 7 -6 12 -22 12 -19 0 -24 -4 -19
-15z"/>
<path d="M4317 2740 c3 -12 -1 -22 -11 -26 -21 -8 -21 -26 1 -22 9 2 16 8 16
13 0 18 31 35 39 22 5 -8 8 -5 8 6 0 11 -5 17 -12 14 -7 -2 -20 0 -30 4 -13 7
-15 5 -11 -11z"/>
<path d="M5985 2598 c-49 -60 -93 -112 -97 -114 -4 -2 -73 27 -154 66 -81 38
-149 69 -150 67 -2 -2 21 -45 51 -97 62 -109 77 -166 50 -186 -16 -12 -16 -14
-2 -20 12 -4 15 -14 10 -37 -5 -30 -5 -31 10 -12 8 11 18 17 21 14 3 -3 -11
-29 -31 -57 -34 -50 -37 -52 -55 -35 -13 12 -22 13 -29 6 -8 -8 -5 -13 10 -18
28 -9 26 -22 -9 -75 -16 -24 -28 -45 -27 -46 1 -1 66 7 145 18 78 11 148 18
155 15 7 -3 53 -68 102 -146 50 -77 93 -141 96 -141 4 0 8 72 11 161 2 109 8
163 16 168 6 4 72 20 147 36 l135 29 2 40 c0 23 0 51 -1 62 -2 33 17 74 34 74
20 0 19 -19 0 -26 -14 -6 -13 -8 2 -19 15 -11 19 -11 26 1 5 8 6 23 2 33 -5
15 3 22 41 35 26 9 48 16 50 16 8 0 11 -45 4 -59 -5 -9 -11 -23 -14 -33 -2 -9
-18 -19 -34 -23 -23 -5 -31 -13 -34 -36 -3 -21 0 -29 10 -29 9 0 24 -8 34 -17
19 -17 19 -16 13 10 -5 17 -3 27 4 27 25 0 9 20 -16 21 -25 1 -22 3 22 24 61
29 77 31 68 8 -5 -11 -3 -14 6 -8 7 4 23 2 36 -5 20 -11 26 -10 40 4 21 21 51
20 64 -1 9 -16 10 -16 11 5 0 12 5 22 11 22 5 0 -2 11 -18 26 -23 22 -25 28
-15 45 17 27 0 59 -28 52 -16 -4 -20 0 -20 20 0 13 -6 30 -13 36 -10 8 -19 4
-36 -19 -12 -17 -31 -30 -43 -30 -17 0 -18 2 -8 15 10 12 10 15 -3 15 -9 0
-19 -4 -22 -10 -3 -5 -15 -10 -26 -10 -10 0 -19 -4 -19 -10 0 -14 -12 -13 -75
11 -54 20 -55 21 -56 62 0 23 -3 60 -7 82 l-7 40 -45 -58 c-25 -31 -50 -57
-56 -57 -6 0 -43 11 -83 25 l-73 24 15 -22 c76 -116 87 -147 54 -147 -14 0
-47 -35 -47 -50 0 -14 -16 -12 -29 3 -6 8 -15 86 -20 176 -5 89 -10 164 -12
165 -2 2 -44 -46 -94 -106z m325 -308 c14 -22 28 -40 33 -40 4 0 7 -5 7 -11 0
-6 -31 7 -70 27 -70 38 -76 49 -30 57 14 2 27 5 30 6 4 0 17 -17 30 -39z"/>
<path d="M4683 2663 c4 -3 2 -12 -5 -20 -6 -7 -8 -16 -4 -20 3 -3 6 -1 6 5 0
7 9 12 20 12 11 0 20 -4 20 -9 0 -5 9 -7 21 -4 12 4 25 0 29 -8 5 -7 12 -10
16 -6 9 9 -27 37 -39 30 -4 -2 -19 2 -32 11 -24 16 -44 22 -32 9z"/>
<path d="M4483 2604 c-18 -19 11 -41 32 -24 8 7 15 16 15 20 0 14 -35 17 -47
4z"/>
<path d="M4378 2576 c-2 -12 4 -29 14 -39 18 -17 19 -17 25 0 4 10 13 23 20
28 10 8 5 13 -21 21 -31 10 -35 9 -38 -10z"/>
<path d="M7223 2576 c-9 -11 -7 -13 13 -13 14 0 24 5 24 13 0 18 -21 17 -37 0z"/>
<path d="M7240 2516 c0 -20 -4 -35 -9 -32 -5 3 -11 -3 -14 -14 -3 -11 -10 -20
-17 -20 -6 0 -9 4 -5 9 11 19 -12 19 -28 0 -19 -21 -34 -23 -71 -9 -29 10 -27
1 7 -58 16 -28 17 -35 6 -50 -12 -15 -12 -16 2 -4 14 10 18 10 23 -3 3 -8 0
-15 -7 -15 -18 0 -38 -37 -30 -56 6 -15 7 -14 14 5 10 25 41 40 47 23 7 -21
22 -13 22 12 0 40 11 56 36 56 18 0 24 -5 24 -22 0 -49 17 -52 41 -9 19 35 27
41 46 37 13 -4 34 -9 48 -12 19 -5 25 -2 25 10 0 9 -4 16 -9 16 -5 0 -19 13
-31 30 l-21 29 27 53 c14 29 20 47 13 41 -19 -18 -58 -16 -66 3 -6 15 -7 15
-19 -1 -13 -18 -14 -18 -34 0 -20 18 -20 18 -20 -19z"/>
<path d="M6790 2497 c0 -19 16 -31 24 -18 3 5 -1 14 -9 21 -12 10 -15 10 -15
-3z"/>
<path d="M6875 2480 c-4 -6 -15 -8 -25 -5 -11 4 -17 1 -16 -7 0 -7 -3 -14 -7
-15 -17 -4 -47 -52 -41 -66 3 -8 19 -17 35 -19 25 -4 29 -1 29 19 0 30 9 29
47 -5 37 -35 56 -36 70 -5 9 18 8 23 -2 23 -8 0 -18 7 -23 16 -8 15 -10 15
-15 0 -8 -20 -37 -21 -37 -2 0 8 5 16 11 18 6 2 8 14 4 31 -7 28 -19 35 -30
17z"/>
<path d="M7494 2420 c-12 -5 -25 -14 -29 -20 -5 -8 -11 -8 -21 1 -11 9 -14 7
-14 -15 0 -14 -5 -26 -10 -26 -11 0 -3 -49 11 -64 4 -5 19 3 32 18 13 14 34
26 46 26 14 0 21 5 19 13 -3 6 -10 12 -16 12 -15 0 -16 19 -2 21 6 1 13 3 18
4 4 1 10 2 13 2 4 -1 5 8 2 18 -6 22 -16 24 -49 10z"/>
<path d="M6758 2373 c7 -3 16 -2 19 1 4 3 -2 6 -13 5 -11 0 -14 -3 -6 -6z"/>
<path d="M6470 2321 c0 -5 5 -13 10 -16 6 -3 10 -2 10 4 0 5 -4 13 -10 16 -5
3 -10 2 -10 -4z"/>
<path d="M6855 2321 c-3 -5 -1 -12 4 -15 5 -3 11 1 15 9 6 16 -9 21 -19 6z"/>
<path d="M6745 2260 c-3 -5 -4 -10 -1 -10 2 0 12 -3 20 -6 12 -5 15 -2 10 10
-7 18 -20 21 -29 6z"/>
<path d="M6780 2199 c0 -12 7 -19 20 -19 13 0 20 7 20 18 0 11 -8 18 -20 19
-14 1 -20 -4 -20 -18z"/>
</g>
</svg>
