<?xml version="1.0" standalone="no"?>
<!DOCTYPE svg PUBLIC "-//W3C//DTD SVG 20010904//EN"
 "http://www.w3.org/TR/2001/REC-SVG-20010904/DTD/svg10.dtd">
<svg version="1.0" xmlns="http://www.w3.org/2000/svg"
 width="1280.000000pt" height="960.000000pt" viewBox="0 0 1280.000000 960.000000"
 preserveAspectRatio="xMidYMid meet">
<metadata>
Created by potrace 1.15, written by Peter Selinger 2001-2017
</metadata>
<g transform="translate(0.000000,960.000000) scale(0.100000,-0.100000)"
fill="#000000" stroke="none">
<path d="M6895 8933 c-105 -3 -409 -23 -460 -29 -390 -49 -613 -96 -907 -194
-923 -308 -1550 -949 -1731 -1770 -73 -331 -74 -675 -2 -961 95 -376 273 -677
590 -995 387 -390 845 -673 1620 -1003 543 -231 803 -377 994 -557 94 -89 136
-143 185 -241 53 -105 70 -186 69 -333 0 -112 -4 -135 -31 -220 -39 -119 -94
-202 -201 -302 -137 -129 -337 -216 -621 -271 -105 -20 -144 -22 -460 -22
-351 1 -402 5 -690 51 -394 63 -789 174 -1144 323 -55 23 -102 38 -106 34 -8
-10 -354 -1573 -349 -1577 14 -13 144 -72 231 -105 357 -136 875 -248 1393
-301 336 -35 890 -42 1190 -15 766 68 1386 267 1880 603 155 105 243 178 375
311 351 353 562 783 636 1296 25 169 25 516 0 680 -55 362 -190 689 -402 971
-204 271 -529 551 -897 772 -271 162 -403 226 -982 472 -402 171 -702 323
-880 445 -137 95 -256 239 -297 360 -111 330 41 658 387 832 210 106 466 155
810 154 467 -1 955 -100 1370 -276 98 -42 130 -51 171 -46 7 0 91 320 200 755
l188 755 -25 23 c-84 82 -671 254 -1059 312 -329 49 -775 78 -1045 69z"/>
</g>
</svg>
