<?xml version="1.0" standalone="no"?>
<!DOCTYPE svg PUBLIC "-//W3C//DTD SVG 20010904//EN"
 "http://www.w3.org/TR/2001/REC-SVG-20010904/DTD/svg10.dtd">
<svg version="1.0" xmlns="http://www.w3.org/2000/svg"
 width="1280.000000pt" height="1280.000000pt" viewBox="0 0 1280.000000 1280.000000"
 preserveAspectRatio="xMidYMid meet">
<metadata>
Created by potrace 1.15, written by Peter Selinger 2001-2017
</metadata>
<g transform="translate(0.000000,1280.000000) scale(0.100000,-0.100000)"
fill="#000000" stroke="none">
<path d="M5715 12224 c-226 -13 -592 -47 -690 -63 -49 -9 -50 -9 -10 -9 22 -1
378 19 790 42 l750 44 -305 -1 c-168 0 -408 -6 -535 -13z"/>
<path d="M6649 12236 c-2 -3 -110 -21 -238 -41 -153 -23 -411 -52 -744 -81
-470 -41 -536 -44 -846 -45 -238 -1 -351 -5 -386 -14 -47 -12 -39 -13 119 -14
93 0 167 -3 165 -5 -2 -3 -90 -12 -194 -21 -300 -25 -372 -35 -459 -60 -166
-48 -162 -56 14 -25 63 11 318 39 565 62 406 37 484 41 800 44 362 3 372 -1
90 -31 -82 -8 -197 -22 -255 -30 -58 -8 -242 -19 -410 -25 -293 -10 -454 -21
-790 -55 -242 -25 -281 -32 -361 -66 -41 -17 -76 -34 -79 -36 -3 -3 74 -3 170
0 96 3 171 4 165 2 -5 -3 -118 -20 -250 -38 -175 -25 -251 -40 -280 -55 -22
-12 -32 -21 -23 -22 15 0 636 59 998 96 85 8 378 42 650 75 550 66 578 68 576
42 -1 -15 10 -19 64 -22 110 -6 -522 -73 -1385 -146 -429 -36 -829 -70 -889
-75 -88 -8 -117 -14 -153 -36 -24 -14 -42 -28 -39 -31 6 -6 481 14 556 23 25
3 42 3 39 0 -17 -17 -141 -28 -369 -32 -140 -2 -261 -7 -268 -9 -25 -9 -203
-128 -198 -132 2 -3 49 2 104 11 81 13 193 16 612 16 282 0 511 -2 508 -5 -2
-3 -70 -14 -150 -25 -106 -14 -283 -24 -649 -36 -405 -13 -509 -19 -527 -31
-13 -8 -22 -16 -20 -19 3 -2 145 1 317 7 172 6 314 9 317 7 12 -13 -474 -58
-626 -58 -75 0 -76 0 -125 -45 -42 -38 -46 -44 -25 -40 45 8 403 54 470 59
140 12 -2 -13 -255 -44 l-260 -33 -38 -36 -38 -36 538 -5 c500 -5 530 -6 423
-17 -63 -7 -320 -19 -572 -26 l-456 -13 -45 -50 -45 -49 67 -5 66 -5 -83 -12
c-46 -6 -84 -13 -86 -15 -1 -1 -17 -21 -36 -43 l-34 -40 315 -5 314 -5 -322
-3 c-311 -2 -323 -3 -333 -22 -11 -20 -6 -20 782 -22 l793 -3 -225 -49 c-224
-49 -483 -89 -655 -102 -111 -8 -142 -18 -125 -39 11 -13 -32 -15 -359 -15
l-371 0 -30 -47 c-17 -26 -30 -51 -30 -56 0 -6 38 -7 93 -3 331 21 511 27 807
24 l335 -3 -340 -68 c-535 -106 -737 -137 -894 -137 l-108 0 -37 -81 c-20 -45
-35 -83 -33 -85 1 -1 72 8 157 21 151 24 168 25 720 24 495 -1 557 -3 500 -14
-173 -35 -622 -67 -1029 -74 -286 -5 -375 -9 -379 -18 -3 -10 25 -13 119 -13
67 0 120 -2 118 -4 -2 -2 -58 -9 -124 -15 -91 -9 -123 -16 -132 -28 -7 -9 -13
-20 -13 -25 0 -4 73 -8 162 -8 89 0 158 -4 153 -8 -6 -5 -82 -21 -170 -36
-112 -19 -164 -32 -172 -43 -7 -9 -11 -18 -9 -20 1 -2 131 20 287 48 260 47
300 52 479 56 107 3 191 1 187 -3 -5 -5 -108 -33 -230 -63 l-222 -54 -255 -6
c-230 -5 -255 -8 -258 -23 -3 -16 10 -18 125 -20 l128 -3 -134 -27 c-74 -16
-138 -31 -142 -35 -4 -5 -11 -25 -14 -46 -7 -36 -6 -38 16 -33 98 23 418 71
699 106 269 33 361 40 465 38 l130 -3 -510 -83 c-482 -78 -518 -83 -662 -82
-96 0 -153 -4 -153 -10 0 -5 0 -13 -1 -17 0 -5 10 -11 23 -15 22 -6 22 -6 -3
-7 -27 -1 -39 -17 -39 -52 0 -16 5 -18 38 -14 20 3 100 12 177 20 77 9 195 24
263 35 115 19 172 20 935 19 l812 -1 -235 -40 -235 -40 -883 -5 c-849 -4 -884
-5 -879 -23 2 -10 1 -24 -4 -31 -7 -12 24 -15 179 -19 l187 -6 -187 -2 c-160
-2 -188 -4 -188 -17 0 -11 11 -15 43 -15 31 0 38 -3 27 -10 -8 -5 -28 -10 -43
-10 -24 0 -47 -23 -35 -35 2 -2 80 7 174 22 158 24 198 26 594 30 267 3 421 1
415 -5 -5 -5 -32 -17 -59 -26 -42 -13 -100 -16 -365 -16 -247 0 -363 -5 -536
-21 -201 -20 -234 -27 -235 -51 0 -5 199 -8 443 -9 420 -1 440 -1 407 -17 -31
-15 -87 -17 -442 -20 -396 -3 -408 -4 -408 -23 0 -18 9 -19 197 -19 108 0 194
-2 191 -5 -3 -3 -90 -14 -193 -25 -104 -11 -193 -24 -198 -29 -33 -33 -8 -33
1127 -27 837 5 1116 4 1103 -4 -12 -8 -159 -17 -410 -26 -438 -15 -838 -30
-1182 -44 -126 -5 -322 -12 -433 -16 -160 -6 -205 -10 -209 -21 -3 -8 -3 -16
-1 -19 3 -2 115 0 249 6 375 15 1282 49 1489 54 l185 5 -135 -29 c-402 -86
-530 -109 -680 -119 -491 -34 -629 -41 -852 -41 l-248 0 0 -49 c0 -28 3 -52 8
-54 4 -2 93 0 197 4 612 24 923 31 1050 24 l140 -8 -135 -18 c-115 -15 -217
-18 -693 -18 l-558 -1 3 -37 3 -37 275 1 c174 1 255 -2 220 -7 -30 -4 -153 -8
-272 -9 -187 -1 -218 -3 -218 -16 0 -12 16 -15 78 -16 l77 -2 -65 -9 c-36 -5
-70 -11 -76 -13 -7 -2 -7 -23 1 -71 l11 -69 285 -5 284 -5 -195 -37 c-107 -21
-230 -43 -273 -49 -72 -11 -78 -14 -73 -33 3 -12 6 -24 6 -28 0 -5 147 -9 328
-10 l327 -3 -323 -2 c-248 -3 -322 -6 -321 -16 1 -6 4 -23 8 -36 6 -24 8 -24
125 -23 65 0 115 -3 110 -7 -5 -5 -49 -16 -99 -26 -106 -21 -117 -26 -106 -43
6 -11 48 -5 202 29 l194 43 488 1 c269 1 485 -1 480 -5 -4 -4 -46 -12 -93 -19
-47 -7 -208 -32 -358 -57 -227 -37 -284 -50 -331 -74 -31 -15 -63 -36 -71 -45
-31 -37 -6 -40 428 -45 229 -3 406 -8 392 -12 -14 -4 -90 -19 -170 -33 -183
-32 -407 -45 -772 -45 -159 0 -288 -2 -288 -5 0 -2 8 -20 17 -40 l17 -35 1275
-2 1276 -3 -430 -43 -430 -43 -822 1 c-727 0 -822 -2 -817 -15 5 -11 24 -16
73 -17 l66 -2 -57 -3 c-32 -2 -58 -7 -58 -11 0 -4 9 -21 19 -38 18 -29 22 -31
68 -28 231 18 697 34 963 33 l325 -2 -220 -17 c-121 -10 -373 -21 -560 -24
-461 -9 -549 -14 -534 -32 9 -10 42 -14 133 -15 l121 -1 -105 -15 c-57 -7
-106 -16 -109 -19 -3 -2 0 -9 6 -15 8 -8 76 -4 250 15 366 40 452 46 673 45
l205 -2 -175 -18 c-96 -10 -341 -32 -545 -49 -203 -18 -372 -34 -374 -36 -4
-4 94 -137 114 -154 11 -9 54 -5 200 20 l186 32 800 1 c439 1 799 -1 799 -5 0
-5 -18 -8 -40 -8 -64 0 -446 -38 -545 -55 -73 -12 -210 -15 -727 -15 -351 0
-638 -4 -638 -8 0 -15 102 -121 113 -118 7 2 8 1 3 -2 -4 -2 27 -40 70 -83
l79 -79 769 0 c423 0 766 -3 763 -6 -4 -4 -55 -15 -114 -25 -97 -17 -171 -19
-732 -19 -551 0 -622 -2 -611 -15 11 -13 85 -15 524 -17 l511 -3 -245 -43
c-235 -41 -254 -42 -450 -43 l-205 0 30 -25 c17 -14 64 -50 107 -79 70 -51 80
-55 135 -56 50 -1 54 -2 25 -9 -42 -10 -48 -16 -25 -28 12 -7 57 -2 148 14
110 21 156 24 295 22 l165 -3 -235 -23 c-331 -33 -325 -32 -306 -50 13 -13 44
-12 283 11 248 25 432 36 833 53 85 4 153 4 150 1 -14 -14 -322 -109 -440
-135 -121 -27 -160 -31 -372 -37 -131 -4 -238 -10 -238 -14 0 -4 16 -15 35
-24 28 -13 53 -15 137 -10 60 3 100 2 95 -3 -5 -5 -43 -11 -85 -14 l-77 -5 72
-38 73 -37 311 0 c172 0 310 -2 308 -4 -10 -11 -298 -36 -406 -36 -66 0 -113
-4 -107 -9 5 -4 48 -25 95 -45 l86 -36 814 -1 814 -2 -375 -18 c-206 -9 -548
-18 -760 -19 l-385 -2 55 -26 c64 -31 70 -31 475 -20 l260 7 -260 -24 c-143
-13 -271 -24 -285 -25 -23 -1 -22 -3 10 -15 28 -11 232 -14 1085 -15 913 -2
1042 -4 990 -16 -74 -17 -615 -61 -911 -74 -253 -11 -662 -39 -684 -47 -26 -9
51 -31 111 -32 31 -1 173 8 315 19 147 12 322 19 404 18 l144 -3 -219 -40
c-196 -36 -236 -40 -368 -39 -82 0 -142 -3 -135 -7 8 -4 108 -34 223 -66 232
-64 212 -62 535 -49 190 7 194 2 27 -34 -64 -14 -102 -27 -95 -32 24 -15 79
-8 251 32 l172 40 568 -7 c312 -3 564 -9 560 -13 -4 -4 -55 -24 -113 -43 -109
-37 -176 -45 -835 -98 -155 -13 -157 -13 -110 -29 24 -8 114 -15 230 -19 175
-6 184 -7 110 -14 -44 -5 -89 -11 -100 -14 l-20 -6 20 -8 c11 -4 38 -8 60 -8
57 -1 660 75 1510 190 273 37 413 51 535 55 91 2 202 6 248 8 46 2 81 2 79 -1
-3 -2 -87 -19 -188 -37 -151 -27 -220 -35 -382 -40 -133 -4 -270 -16 -415 -36
-340 -46 -931 -127 -1112 -151 -157 -21 -163 -23 -132 -36 29 -12 103 -4 730
82 383 53 735 98 782 100 l85 4 -65 -14 c-36 -8 -308 -56 -605 -106 -405 -69
-573 -94 -670 -98 l-130 -6 67 -22 c37 -13 73 -21 80 -19 37 12 99 16 93 6 -3
-5 -22 -10 -41 -10 -42 0 -37 -16 8 -26 18 -3 39 -10 48 -15 8 -5 50 -22 93
-39 l78 -30 266 0 c146 0 264 -2 262 -5 -10 -10 -282 -45 -347 -45 l-67 0 90
-50 90 -51 180 26 c101 15 211 25 250 23 59 -3 36 -7 -144 -27 -290 -32 -277
-27 -205 -81 l59 -45 85 3 c47 2 213 17 370 33 157 16 290 29 295 29 6 -1 -5
-7 -23 -15 -39 -17 -38 -38 3 -45 23 -4 -313 -53 -593 -86 -51 -6 -53 -8 -35
-23 16 -15 58 -16 458 -10 242 4 652 12 910 18 259 6 691 15 960 21 270 5 555
12 634 15 80 3 142 3 140 0 -6 -5 -284 -47 -429 -64 -47 -6 -326 -15 -620 -21
-1168 -23 -1957 -45 -1968 -55 -2 -2 3 -12 10 -24 l13 -21 785 -1 c718 -1 775
-3 665 -15 -198 -23 -425 -30 -932 -29 -266 0 -483 -1 -483 -3 0 -1 9 -21 21
-44 l21 -40 251 8 c139 5 903 7 1700 5 1336 -4 1447 -3 1447 12 0 15 -63 17
-747 20 l-748 2 748 3 c694 2 748 3 745 19 -3 15 -55 17 -681 16 -657 0 -823
7 -492 21 88 3 239 11 335 16 96 5 325 10 508 10 325 0 332 0 332 20 0 20 -8
20 -597 22 -527 3 -588 5 -513 16 47 7 220 19 385 27 324 15 592 32 668 42 38
4 47 9 47 25 0 10 -3 17 -8 15 -11 -7 -475 -39 -508 -35 -35 4 306 55 429 64
92 7 92 7 81 63 l-6 31 -1142 2 -1141 3 355 48 c195 26 535 72 755 102 l400
54 373 1 c365 0 372 0 372 20 0 19 -7 20 -202 21 l-203 2 155 22 c85 13 174
24 198 24 36 1 43 4 38 19 -2 9 -8 32 -11 51 l-7 34 -64 -6 c-35 -4 -64 -4
-64 -2 0 2 27 12 60 21 53 15 71 30 55 46 -3 3 -72 -15 -153 -40 l-147 -46
-545 -3 -545 -3 49 20 c33 13 116 26 245 40 257 27 613 74 831 110 249 42 231
37 224 68 -4 15 -10 31 -14 35 -4 4 -157 -19 -341 -52 -373 -68 -730 -124
-737 -116 -3 3 -2 5 2 5 4 0 121 25 259 55 188 41 748 135 803 135 9 0 -6 53
-19 69 -7 7 -12 21 -12 30 0 20 -11 18 -102 -19 -66 -28 -87 -31 -255 -40
-195 -10 -282 -23 -446 -64 -96 -25 -115 -26 -305 -24 l-202 3 595 82 c327 45
621 85 652 88 44 5 56 10 51 21 -3 9 -19 14 -44 14 -21 0 -376 -47 -788 -105
l-749 -105 -269 1 c-147 1 -331 4 -408 8 l-140 6 265 48 c146 26 285 50 310
53 25 3 435 38 912 78 477 40 871 75 875 79 27 28 -46 25 -682 -28 -367 -31
-672 -54 -678 -52 -5 1 122 27 284 55 306 55 492 74 862 88 98 4 180 10 182
13 2 4 -31 74 -74 156 l-77 150 -135 5 -134 5 85 7 c94 7 150 17 150 27 0 4
-7 16 -14 27 -14 20 -28 21 -228 28 -117 4 -235 10 -263 14 -49 7 -48 7 50 19
55 7 160 18 233 25 96 9 132 16 132 25 0 23 -28 26 -133 14 -56 -6 -165 -18
-242 -26 -77 -9 -189 -22 -250 -30 -60 -8 -111 -13 -113 -11 -4 5 6 7 353 76
171 34 311 63 313 65 2 2 -3 13 -10 25 l-13 23 -390 -7 -390 -6 70 40 70 39
290 1 c263 0 288 1 274 16 -14 13 -52 15 -258 16 -132 0 -241 3 -241 7 0 4 13
14 29 24 25 14 57 17 215 17 102 0 186 4 186 8 0 4 -15 22 -33 40 -32 32 -34
32 -132 32 l-100 1 39 34 c22 19 48 35 58 35 27 0 21 11 -33 58 l-50 42 -307
1 c-294 1 -304 2 -237 16 39 8 162 16 277 20 130 3 205 9 202 15 -8 13 -209
160 -304 223 l-75 50 -564 5 -563 5 431 65 c397 60 483 79 395 88 -16 2 -192
-22 -392 -53 -200 -30 -370 -55 -379 -55 -11 0 -8 6 11 21 14 11 26 26 26 33
0 9 86 27 278 60 152 27 291 51 307 55 30 7 30 8 7 20 -18 10 -54 6 -200 -19
-97 -17 -267 -46 -377 -65 l-200 -35 -380 1 c-209 0 -375 2 -370 5 6 2 291 46
635 99 344 52 638 98 654 102 26 7 19 12 -87 55 l-115 47 -104 -9 c-56 -5
-128 -9 -158 -8 -53 0 -53 1 30 14 185 30 182 24 40 73 -69 23 -134 47 -145
51 -11 5 -54 20 -95 33 l-75 25 -205 -14 c-113 -8 -225 -13 -250 -12 -25 2 33
9 128 17 96 7 197 16 225 20 l52 6 -170 52 -170 51 -170 -9 c-202 -11 -1503
-24 -1494 -15 4 4 53 20 110 36 78 22 207 42 514 79 226 28 426 54 445 57 l35
7 -30 9 c-16 5 -68 7 -115 4 -84 -5 -84 -5 -35 8 l50 12 -40 12 c-227 64 -208
62 -729 63 -265 1 -472 3 -461 5 23 4 629 34 688 34 52 0 42 9 -27 25 -42 10
-104 11 -258 5 -456 -19 -855 -32 -893 -28 l-40 3 70 26 c39 15 127 43 196 63
120 34 135 36 275 36 154 1 168 8 54 29 -36 7 -136 30 -222 52 l-157 39 -753
1 c-431 1 -732 5 -703 10 148 24 600 56 954 67 l223 7 -108 43 c-85 33 -123
43 -174 44 -36 0 -51 3 -35 5 60 8 58 13 -26 69 l-83 56 -248 -1 c-137 -1
-256 -5 -266 -8 -11 -4 -14 -3 -7 4 6 6 94 43 197 83 170 66 186 75 177 91 -6
12 -21 19 -41 19 -17 0 -227 -18 -467 -40 -465 -42 -903 -74 -942 -68 -22 3
319 67 554 103 85 14 346 21 825 25 72 0 46 24 -34 31 l-69 5 63 2 c55 2 63 4
60 20 -3 16 -21 17 -248 13 -135 -2 -243 -1 -240 2 11 12 286 47 373 47 l94 0
-13 60 c-7 33 -10 69 -7 80 5 20 0 20 -458 21 l-464 1 100 20 c85 17 155 21
463 25 303 4 362 7 362 19 0 12 -38 14 -222 16 l-223 2 225 6 c220 5 225 5
226 26 1 12 4 26 8 33 5 7 -5 11 -31 12 l-38 2 37 10 c32 9 39 17 56 64 l20
53 -102 1 -101 2 108 11 c74 8 111 16 117 26 16 25 58 27 -435 -20 -192 -18
-283 -20 -1065 -19 -776 1 -849 2 -785 16 39 8 220 45 403 84 l333 69 360 0
c262 0 435 5 637 20 740 54 695 49 717 71 l20 20 -50 -6 c-205 -24 -819 -59
-1115 -64 -190 -3 -347 -5 -349 -4 -9 5 40 15 369 70 l345 57 442 4 c368 3
444 6 454 18 10 12 -31 14 -301 14 -173 0 -311 2 -309 5 3 2 64 13 136 25 104
16 180 20 356 20 175 0 232 3 258 15 32 13 27 14 -95 15 -71 0 -127 2 -124 5
9 9 563 83 708 95 74 6 189 9 255 7 66 -3 426 -10 800 -16 374 -6 754 -15 845
-19 l165 -7 -245 -30 c-207 -25 -294 -30 -565 -35 -272 -4 -315 -7 -286 -17
19 -7 70 -14 115 -15 l81 -1 -60 -6 -60 -6 59 -32 60 -33 175 -1 c190 0 198
-9 31 -29 -111 -14 -134 -22 -104 -38 13 -7 90 1 254 24 336 49 720 60 530 16
-25 -6 -191 -27 -370 -48 -179 -20 -329 -41 -334 -45 -4 -4 0 -12 11 -17 16
-9 173 6 436 41 48 6 15 -10 -64 -32 -47 -13 -105 -21 -155 -21 -43 0 -103 -3
-132 -7 l-53 -6 42 -43 41 -42 57 19 c125 44 171 49 721 74 300 13 651 29 780
35 129 6 314 15 409 20 96 5 177 8 179 5 4 -4 3 -4 -358 -51 -151 -19 -360
-50 -465 -69 -323 -59 -725 -103 -1007 -111 l-248 -7 18 -29 17 -30 135 6 c74
4 167 11 205 16 118 15 210 22 204 16 -14 -15 -332 -78 -416 -83 l-92 -6 27
-48 27 -49 185 -1 c201 -2 200 -2 -97 -25 l-72 -6 17 -34 16 -35 210 6 c116 3
251 8 301 11 49 3 87 3 84 0 -8 -8 -424 -46 -506 -46 -57 0 -73 -3 -73 -14 0
-8 5 -18 11 -21 5 -4 81 -7 167 -7 l157 0 -115 -18 c-63 -10 -132 -19 -154
-19 -30 -1 -37 -4 -32 -17 3 -8 16 -49 28 -91 l22 -75 45 7 c73 11 587 17 576
6 -25 -22 -204 -51 -388 -62 -105 -6 -198 -12 -204 -14 -7 -3 -10 -11 -6 -20
5 -14 18 -16 82 -11 78 6 72 0 -27 -24 -39 -10 -43 -14 -40 -38 3 -26 5 -27
63 -24 33 1 98 7 145 12 107 12 204 22 617 65 272 29 363 35 505 33 l173 -3
-480 -63 -480 -63 -267 1 c-229 0 -268 -2 -268 -15 0 -12 23 -15 128 -17 128
-3 127 -9 -3 -24 -128 -14 -28 -14 176 1 118 9 311 20 429 25 119 6 265 14
325 19 l110 8 -150 2 c-82 2 -145 4 -140 6 6 3 216 32 467 65 l457 60 710 0
c704 0 711 0 711 20 0 20 -7 20 -542 21 l-543 1 167 23 c92 13 193 29 224 34
32 6 198 16 370 23 292 11 311 13 306 30 -4 16 -18 18 -136 19 l-131 1 90 18
c50 10 107 21 128 24 26 5 37 12 37 24 0 15 -13 17 -112 17 -357 0 -781 6
-776 11 12 11 271 26 568 32 l305 7 -3 30 c-2 17 -7 33 -11 38 -4 4 -226 0
-493 -9 -267 -8 -505 -14 -529 -12 -24 2 127 16 336 31 333 25 661 60 674 73
3 2 -1 10 -7 16 -9 9 -41 8 -134 -5 -68 -9 -244 -26 -393 -37 -148 -11 -319
-25 -379 -30 -60 -5 -111 -8 -113 -6 -3 2 47 16 109 31 98 24 144 29 338 36
124 4 281 12 350 18 69 6 141 11 160 11 43 0 69 15 55 29 -8 8 -98 4 -289 -9
-153 -12 -284 -19 -290 -17 -22 7 308 77 467 98 57 8 87 16 87 25 0 30 -14 44
-44 45 l-31 1 28 10 c27 10 32 23 21 52 -5 13 -25 16 -116 16 l-109 0 48 55
c44 50 51 55 91 55 36 0 43 3 40 18 -3 12 -13 17 -34 16 -28 -1 -30 1 -30 32
0 27 4 34 19 34 20 0 19 11 -8 76 -12 30 -14 31 -64 24 -49 -6 -69 -1 -54 14
3 3 28 6 54 6 l48 0 -10 29 -10 28 -55 -15 c-44 -13 -59 -13 -72 -4 -10 7 -48
28 -87 46 l-69 34 44 6 c25 3 78 8 119 11 41 3 77 7 79 9 2 2 -4 18 -12 35
l-16 30 -158 3 -157 3 130 34 c133 34 156 44 140 60 -6 5 -98 -13 -225 -45
l-215 -54 -75 13 c-41 8 -68 17 -60 20 8 3 134 22 280 42 146 20 269 40 273
44 4 4 5 15 1 24 -5 15 -24 17 -128 17 -137 1 -137 11 2 30 50 7 92 16 92 20
0 4 -8 18 -18 31 -10 13 -22 32 -25 42 -6 15 -14 17 -39 12 l-33 -6 25 20 c18
14 22 23 14 31 -8 8 -34 0 -95 -29 -59 -28 -113 -44 -179 -55 -107 -18 -301
-39 -306 -33 -8 8 398 118 476 129 47 6 86 12 88 14 2 1 -9 21 -24 43 l-27 41
-121 2 -121 2 113 3 c61 2 112 7 112 11 0 26 -31 32 -160 33 l-135 2 124 9
c69 5 127 10 129 13 12 12 -127 181 -147 178 -9 -1 -81 -5 -161 -7 l-145 -6
75 15 c41 8 105 19 143 26 37 6 67 14 67 17 -1 4 -43 51 -94 105 l-93 97 -99
1 c-101 1 -98 4 20 24 36 6 37 8 23 22 -15 15 -30 14 -177 -6 -89 -13 -163
-21 -166 -19 -2 3 53 15 124 27 166 30 173 31 166 43 -3 5 -28 26 -55 48 -33
26 -56 37 -71 34 -19 -4 -20 -3 -5 4 17 7 17 9 4 21 -13 10 -77 5 -344 -25
-180 -20 -395 -39 -478 -41 l-150 -5 26 21 c23 18 69 25 360 55 184 20 371 38
417 42 45 4 82 10 82 13 0 21 -42 29 -111 21 -41 -5 -212 -22 -380 -40 l-307
-31 -25 25 -25 25 72 16 c74 17 421 69 539 81 37 4 67 9 67 13 0 4 -15 15 -34
25 -33 17 -41 17 -572 -40 l-539 -58 -505 -4 c-277 -2 -502 -1 -499 2 3 3 176
26 384 51 209 24 490 58 625 74 280 34 439 48 660 56 85 3 180 8 209 12 l55 6
-88 44 -88 44 -187 -20 c-185 -21 -407 -29 -1331 -51 -399 -10 -911 -12 -880
-4 8 2 321 40 694 84 l679 80 396 1 c376 1 394 1 361 17 -27 13 -77 18 -215
22 -167 5 -174 6 -100 13 44 5 96 12 115 16 35 7 34 7 -40 30 l-75 24 -385
-42 c-212 -23 -398 -41 -415 -40 -88 4 393 78 618 95 48 4 86 9 83 11 -2 2
-41 13 -86 24 l-83 19 -131 -24 c-137 -26 -262 -47 -575 -96 -177 -28 -200
-30 -476 -29 -230 1 -273 3 -205 10 47 5 240 32 430 59 347 50 484 63 768 76
84 4 150 9 147 12 -3 3 -36 11 -73 18 -37 7 -103 20 -147 29 -184 37 -399 63
-465 55 -201 -24 -282 -31 -286 -27 -2 2 45 12 105 22 61 10 108 22 105 27
-10 15 -111 8 -243 -17 -293 -55 -760 -94 -1206 -100 -316 -4 -318 -4 -190 10
72 7 189 19 260 25 198 18 759 102 800 120 14 6 -9 9 -71 9 -50 1 -93 -1 -95
-3z m1161 -122 c-54 -8 -431 -34 -467 -33 l-38 1 40 10 c59 14 222 25 365 25
69 0 114 -2 100 -3z m-1325 -65 c-112 -19 -969 -100 -1027 -97 -52 2 -32 6
107 22 282 30 867 84 920 84 l50 0 -50 -9z m403 4 c-10 -2 -26 -2 -35 0 -10 3
-2 5 17 5 19 0 27 -2 18 -5z m422 -19 c-30 -7 -763 -85 -766 -81 -10 9 308 57
441 67 83 5 170 12 195 13 64 5 148 5 130 1z m-811 -48 c-2 -2 -63 -16 -135
-30 -104 -21 -154 -26 -240 -24 l-109 3 115 18 c159 25 382 45 369 33z m-1670
-71 c-16 -15 -467 -67 -653 -75 -386 -17 -395 -11 -35 25 339 34 698 61 688
50z m329 -2 c-10 -2 -26 -2 -35 0 -10 3 -2 5 17 5 19 0 27 -2 18 -5z m1827
-54 c-46 -9 -254 -24 -570 -39 -121 -6 -298 -15 -394 -21 -178 -9 -264 -11
-246 -3 6 2 84 19 175 38 l165 34 455 0 c266 0 438 -4 415 -9z m683 4 c-10 -2
-28 -2 -40 0 -13 2 -5 4 17 4 22 1 32 -1 23 -4z m-243 -28 c-99 -13 -214 -26
-255 -29 l-75 -5 75 14 c85 16 335 42 395 42 22 0 -41 -10 -140 -22z m-1746
-19 c-15 -15 -236 -45 -359 -50 -168 -5 -156 -2 115 29 215 24 251 27 244 21z
m826 -31 c-5 -2 -130 -22 -277 -45 l-268 -40 -327 1 c-305 1 -324 2 -268 15
63 15 345 35 755 54 135 6 256 13 270 14 38 5 126 5 115 1z m312 -1 c-3 -3
-12 -4 -19 -1 -8 3 -5 6 6 6 11 1 17 -2 13 -5z m-38 -8 c-14 -14 -486 -82
-511 -74 -7 3 60 15 147 28 88 12 194 28 235 35 78 13 136 18 129 11z m-1645
-66 c-41 -9 -391 -24 -383 -15 7 7 240 22 349 22 50 1 58 -1 34 -7z m-749 -26
c-91 -15 -285 -31 -460 -37 -151 -5 -123 -1 205 27 304 27 368 30 255 10z
m3370 -11 c-16 -2 -82 -10 -145 -18 -102 -13 -286 -23 -1215 -65 -126 -6 -308
-18 -403 -26 -189 -18 -242 -14 -82 5 55 7 186 30 290 52 l191 39 277 1 c152
1 410 5 572 9 333 7 560 9 515 3z m-2150 -23 c-49 -8 -441 -26 -745 -35 -133
-3 -144 -3 -75 6 44 5 116 15 160 23 56 9 174 14 395 14 189 0 295 -3 265 -8z
m-1080 -16 c-40 -7 -488 -44 -492 -41 -5 6 163 30 262 37 93 7 265 10 230 4z
m1540 -5 c-99 -24 -951 -131 -1080 -136 -77 -3 -137 -3 -134 1 3 3 174 30 380
60 283 41 425 57 583 65 115 6 211 13 214 16 3 3 21 5 41 4 l36 -1 -40 -9z
m1765 -30 c-478 -59 -662 -80 -666 -76 -11 10 181 39 441 67 154 16 294 31
310 33 17 2 55 4 85 4 30 0 -46 -12 -170 -28z m-2757 -16 c-7 -2 -21 -2 -30 0
-10 3 -4 5 12 5 17 0 24 -2 18 -5z m2052 -10 c-682 -79 -645 -77 -1065 -79
-217 -2 -390 -1 -385 1 29 12 452 47 745 61 184 8 405 19 490 23 85 4 196 8
245 8 l90 1 -120 -15z m-2117 0 c-10 -2 -26 -2 -35 0 -10 3 -2 5 17 5 19 0 27
-2 18 -5z m775 -30 c-7 -2 -21 -2 -30 0 -10 3 -4 5 12 5 17 0 24 -2 18 -5z
m-1048 -26 c-109 -18 -176 -20 -710 -23 -324 -1 -578 1 -564 5 22 7 101 15
364 35 22 1 263 3 535 3 l495 0 -120 -20z m2200 -13 c-44 -12 -197 -19 -170
-8 13 5 151 21 190 22 23 0 19 -3 -20 -14z m1845 -5 c-92 -20 -148 -23 -177
-11 -18 7 142 29 222 30 30 0 18 -5 -45 -19z m-4054 -49 c-16 -5 -79 -12 -140
-15 -61 -3 -142 -8 -181 -11 -102 -8 -72 7 42 21 115 15 324 18 279 5z m1824
-1 c-25 -4 -126 -18 -225 -29 -189 -22 -355 -30 -1195 -54 -283 -9 -605 -18
-715 -22 -110 -3 -198 -4 -195 -1 3 3 109 17 235 31 170 19 349 30 685 42
1293 44 1496 49 1410 33z m1289 6 c-5 -5 -494 -22 -859 -30 -223 -5 -245 1
-95 25 53 8 962 13 954 5z m606 -4 c61 -5 66 -7 35 -13 -19 -4 -146 -29 -281
-57 l-247 -51 -953 1 -954 1 195 18 c210 20 511 33 1120 50 374 10 494 18 745
44 133 15 235 17 340 7z m290 -23 c29 -13 33 -28 7 -28 -10 0 -107 -9 -216
-20 -110 -12 -206 -19 -215 -18 -20 4 321 76 366 77 18 1 44 -4 58 -11z
m-4815 -73 c-96 -13 -200 -23 -230 -23 -51 0 -49 1 35 14 141 23 224 31 300
32 55 0 33 -5 -105 -23z m5660 -1 c-41 -7 -120 -16 -175 -18 l-100 -5 135 18
c163 22 252 25 140 5z m-894 -9 c-15 -12 -48 -15 -140 -14 l-121 2 105 12 c58
7 121 13 140 13 33 1 34 0 16 -13z m-3071 -5 c-16 -4 -95 -7 -175 -7 l-145 1
150 6 c83 3 161 6 175 7 21 1 21 0 -5 -7z m-795 -76 c-140 -13 -372 -41 -515
-61 l-260 -38 -589 -3 c-325 -1 -588 -1 -585 2 2 2 76 14 164 26 88 12 288 39
445 60 l285 38 655 0 655 -1 -255 -23z m2720 16 c-36 -5 -223 -24 -417 -44
l-352 -36 -738 0 c-547 0 -790 -4 -938 -15 -231 -17 -603 -31 -595 -22 8 9
527 74 960 120 19 2 510 4 1090 4 580 0 1026 -3 990 -7z m1028 5 c-7 -8 -313
-33 -608 -50 -146 -8 -292 -17 -325 -21 -33 -3 -57 -3 -54 0 7 7 234 54 314
65 65 9 682 14 673 6z m487 -6 c-95 -16 -500 -68 -570 -73 -97 -7 -62 1 180
44 162 29 236 38 325 38 96 0 107 -2 65 -9z m138 -36 c-7 -2 -19 -2 -25 0 -7
3 -2 5 12 5 14 0 19 -2 13 -5z m-113 -19 c-75 -13 -270 -28 -238 -18 29 9 221
32 268 32 39 0 34 -2 -30 -14z m-1700 -10 c-56 -11 -221 -19 -180 -8 26 7 163
21 205 22 34 0 30 -2 -25 -14z m845 -4 c-16 -4 -55 -7 -85 -7 l-55 0 60 7 c33
4 71 7 85 7 22 1 21 0 -5 -7z m1050 0 c-16 -4 -43 -8 -60 -8 l-30 0 30 8 c17
4 44 8 60 8 l30 0 -30 -8z m-1457 -47 c-71 -2 -185 -2 -255 0 -71 1 -13 3 127
3 140 0 198 -2 128 -3z m820 0 c-21 -2 -55 -2 -75 0 -21 2 -4 4 37 4 41 0 58
-2 38 -4z m375 0 c-13 -2 -33 -2 -45 0 -13 2 -3 4 22 4 25 0 35 -2 23 -4z
m729 0 c-51 -2 -132 -2 -180 0 -48 1 -6 3 93 3 99 0 138 -2 87 -3z m-2934 -39
c-4 -3 -49 -13 -100 -21 -77 -13 -272 -17 -1148 -23 -849 -5 -1095 -10 -1260
-23 -577 -48 -710 -57 -885 -61 -109 -3 -181 -1 -170 4 27 11 327 48 495 60
74 5 344 16 600 24 256 9 517 18 580 22 63 4 457 10 875 13 418 3 818 7 889 9
71 1 127 0 124 -4z m882 -3 c-8 -5 -64 -16 -125 -25 -90 -14 -168 -17 -425
-14 l-315 3 135 17 c74 10 149 20 165 22 62 7 579 4 565 -3z m726 2 c-18 -19
-232 -43 -371 -42 l-150 2 90 13 c177 27 448 44 431 27z m361 0 c-4 -3 -67
-14 -139 -24 -160 -22 -238 -23 -128 -3 146 27 280 41 267 27z m803 -2 c-8 -5
-62 -16 -120 -25 -81 -13 -152 -17 -310 -14 l-205 3 115 17 c167 26 159 25
355 26 99 0 173 -3 165 -7z m405 0 c-10 -9 -364 -45 -371 -38 -4 4 158 31 241
41 64 7 139 6 130 -3z m-4040 -87 c-22 -2 -110 -8 -195 -14 -85 -6 -252 -20
-370 -31 -193 -18 -256 -19 -615 -13 -236 5 -384 11 -360 16 22 4 157 16 300
26 208 16 362 19 770 19 281 0 492 -2 470 -3z m1088 -1 c-46 -2 -120 -2 -165
0 -46 1 -9 3 82 3 91 0 128 -2 83 -3z m837 -4 c-25 -4 -139 -7 -255 -7 -117 1
-192 4 -170 8 22 4 137 7 255 7 138 0 199 -2 170 -8z m1268 6 c-6 -7 -991
-105 -997 -100 -2 3 2 5 10 5 8 1 120 23 249 50 l235 49 254 0 c140 1 252 -1
249 -4z m465 -2 c-13 -2 -33 -2 -45 0 -13 2 -3 4 22 4 25 0 35 -2 23 -4z m-90
-10 c-13 -2 -35 -2 -50 0 -16 2 -5 4 22 4 28 0 40 -2 28 -4z m-2893 -22 l85
-6 -120 -8 c-66 -4 -230 -9 -365 -12 l-245 -4 125 18 c130 19 363 25 520 12z
m1515 -7 c-5 -2 -141 -24 -302 -49 -263 -41 -307 -45 -455 -44 l-163 1 190 24
c105 12 235 31 290 40 113 19 476 43 440 28z m1695 -14 c-123 -22 -158 -24
-120 -9 33 13 123 27 180 27 31 0 13 -6 -60 -18z m-2305 0 c-33 -15 -653 -80
-755 -79 -52 0 -90 3 -84 5 6 3 110 22 230 43 206 36 232 39 424 39 129 0 198
-3 185 -8z m-1850 -10 c-27 -5 -66 -8 -85 -8 -32 0 -33 1 -10 8 14 4 52 8 85
8 l60 -1 -50 -7z m3842 -19 c-47 -15 -102 -20 -300 -24 -133 -3 -226 -3 -207
0 61 7 473 40 520 41 l45 1 -58 -18z m-6467 3 c-29 -7 -362 -35 -366 -31 -9 9
206 34 291 35 50 0 83 -2 75 -4z m1620 -13 l175 -6 -103 -13 c-73 -8 -284 -12
-725 -11 -342 1 -608 4 -592 7 17 2 131 12 255 22 227 18 530 18 990 1z m1605
-13 c-50 -12 -733 -23 -722 -11 7 7 344 17 677 20 75 1 80 0 45 -9z m-980 -8
c-65 -11 -303 -10 -255 0 19 4 96 7 170 7 101 0 122 -2 85 -7z m1250 -1 c-22
-4 -58 -7 -80 -7 l-40 1 45 7 c25 4 61 7 80 7 l35 1 -40 -9z m2620 -39 c-38
-4 -167 -7 -285 -7 l-215 1 155 6 c85 3 214 6 285 6 109 1 119 0 60 -6z
m-5828 -6 c-3 -3 -12 -4 -19 -1 -8 3 -5 6 6 6 11 1 17 -2 13 -5z m180 0 c-3
-3 -12 -4 -19 -1 -8 3 -5 6 6 6 11 1 17 -2 13 -5z m196 -1 c-7 -2 -21 -2 -30
0 -10 3 -4 5 12 5 17 0 24 -2 18 -5z m4935 -40 c-21 -2 -57 -2 -80 0 -24 2 -7
4 37 4 44 0 63 -2 43 -4z m-903 -58 c-80 -12 -96 -20 -88 -40 4 -11 -2 -15
-23 -15 -16 0 -144 -7 -284 -15 -348 -20 -884 -45 -945 -44 l-50 1 45 9 c25 4
142 20 260 34 118 14 294 38 390 52 144 21 226 27 460 32 157 3 290 4 295 1 6
-2 -21 -9 -60 -15z m-3650 -11 c-213 -29 -249 -29 -120 1 68 16 131 23 195 23
l95 0 -170 -24z m895 1 c-231 -30 -824 -111 -945 -130 -50 -8 -161 -15 -252
-15 -144 0 -163 -2 -172 -17 -9 -17 -38 -18 -358 -20 -259 -1 -325 1 -258 8
50 5 209 25 355 44 146 19 445 57 665 85 220 29 427 55 460 59 33 5 202 9 375
9 l315 0 -185 -23z m680 -10 c-508 -70 -642 -85 -897 -100 -145 -9 -275 -15
-290 -13 -41 5 340 65 562 88 484 52 560 58 710 58 l160 0 -245 -33z m768 28
c-15 -2 -42 -2 -60 0 -18 2 -6 4 27 4 33 0 48 -2 33 -4z m1647 -14 c-46 -12
-100 -18 -160 -18 l-90 2 100 17 c55 10 127 18 160 18 l60 0 -70 -19z m284 17
c-2 -2 -29 -6 -59 -9 -34 -3 -47 -2 -35 3 19 8 103 14 94 6z m-2036 -13 c-7
-2 -19 -2 -25 0 -7 3 -2 5 12 5 14 0 19 -2 13 -5z m-356 -19 c-3 -3 -12 -4
-19 -1 -8 3 -5 6 6 6 11 1 17 -2 13 -5z m643 0 c-63 -15 -493 -75 -565 -79
l-90 -5 75 26 c50 17 114 29 190 35 63 6 158 14 210 18 98 8 206 11 180 5z
m-692 -11 c-10 -2 -28 -2 -40 0 -13 2 -5 4 17 4 22 1 32 -1 23 -4z m3001 -37
c-10 -9 -79 -14 -74 -5 4 5 22 9 42 9 20 0 34 -2 32 -4z m-224 -22 c-40 -15
-478 -78 -497 -72 -6 2 97 21 228 42 132 21 244 39 249 41 6 2 21 3 35 4 20 0
17 -3 -15 -15z m490 11 c-13 -5 -510 -75 -532 -75 -9 0 -13 3 -10 6 8 8 467
72 517 72 19 0 31 -1 25 -3z m-3485 -21 c-51 -17 -322 -41 -550 -49 -235 -8
-148 10 165 35 149 11 281 22 295 24 14 2 50 3 80 4 l55 1 -45 -15z m4588 -13
c48 -13 -86 -37 -554 -101 -243 -33 -497 -71 -565 -84 l-124 -24 -215 33
c-118 18 -252 37 -298 40 -45 4 -80 10 -78 13 9 8 759 117 916 132 97 10 877
2 918 -9z m-2493 -46 c-15 -6 -394 -65 -408 -64 -7 1 47 16 118 34 98 26 151
34 215 34 47 0 81 -2 75 -4z m378 -12 c-7 -2 -21 -2 -30 0 -10 3 -4 5 12 5 17
0 24 -2 18 -5z m290 -3 c-29 -12 -425 -62 -455 -58 -21 3 408 65 457 66 19 1
19 0 -2 -8z m-1168 -31 c-105 -27 -120 -28 -315 -28 l-205 1 134 19 c129 18
342 36 446 37 45 0 40 -2 -60 -29z m-617 5 c-3 -3 -59 -12 -124 -19 -87 -11
-240 -14 -574 -13 -448 1 -482 5 -215 26 120 10 922 15 913 6z m3251 -28 c-2
-2 -68 -22 -145 -44 -134 -38 -155 -42 -384 -57 -134 -8 -245 -14 -247 -11 -6
6 152 32 402 66 127 18 253 35 280 40 58 9 100 12 94 6z m-6259 -57 c-161 -24
-452 -61 -455 -57 -2 2 62 18 143 35 113 23 173 30 257 31 95 0 103 -2 55 -9z
m790 5 c-8 -1 -107 -10 -220 -19 -178 -14 -693 -76 -1335 -160 -113 -15 -233
-25 -295 -24 l-105 2 90 14 c50 8 383 55 740 103 l650 88 245 0 c135 0 238 -2
230 -4z m1555 1 c-5 -2 -55 -8 -110 -14 -55 -6 -379 -42 -720 -80 -341 -39
-702 -79 -802 -91 -164 -18 -240 -20 -755 -19 -604 2 -614 3 -228 39 124 11
342 32 485 45 143 14 359 34 480 46 121 11 348 33 505 48 262 26 320 28 720
29 239 0 431 -1 425 -3z m970 -6 c-35 -10 -633 -106 -715 -114 -30 -3 -282
-15 -560 -26 -278 -10 -606 -24 -729 -29 -124 -5 -227 -8 -229 -5 -3 3 4 5 15
5 11 0 136 13 279 30 142 16 444 50 669 75 226 26 457 52 515 59 124 16 803
20 755 5z m1155 -33 l-95 -44 -195 -11 c-107 -7 -325 -21 -484 -32 -272 -18
-364 -20 -244 -5 96 12 489 66 728 100 129 19 269 34 310 35 l75 1 -95 -44z
m407 34 c262 -34 373 -54 356 -64 -17 -10 -630 -22 -718 -14 l-40 4 85 41 c76
37 93 42 162 42 42 1 112 -4 155 -9z m1603 -50 c-124 -20 -156 -23 -148 -15
12 13 138 33 198 33 62 0 60 -1 -50 -18z m-1952 -67 c-27 -2 -69 -2 -95 0 -27
2 -5 3 47 3 52 0 74 -1 48 -3z m781 3 c-2 -2 -49 -5 -104 -8 -55 -3 -84 -2
-65 2 36 8 177 13 169 6z m646 -6 c-44 -11 -108 -11 -125 0 -10 7 12 9 70 9
60 -1 76 -4 55 -9z m465 -30 c-256 -37 -267 -38 -334 -24 -39 8 -72 16 -73 18
-2 2 36 9 84 16 48 6 111 15 138 20 28 4 140 8 250 8 l200 0 -265 -38z m-821
16 c-2 -2 -52 -18 -111 -35 -165 -48 -364 -71 -620 -71 -119 0 -224 3 -234 7
-24 9 159 50 256 58 41 3 201 12 355 21 154 8 287 16 295 18 23 5 64 7 59 2z
m141 -16 c-8 -5 -31 -9 -50 -9 -32 1 -33 2 -10 9 14 4 36 8 50 9 20 1 22 -1
10 -9z m200 -30 c25 -6 56 -13 70 -17 41 -10 -191 -42 -310 -41 l-105 0 145
33 c80 18 147 33 150 34 3 0 25 -4 50 -9z m-1400 -26 c-47 -10 -96 -11 -175
-6 -104 7 -107 7 -50 13 33 3 112 6 175 6 l115 1 -65 -14z m-607 -11 c53 -3
97 -10 97 -15 0 -4 -267 -7 -592 -6 -621 2 -627 4 -73 17 187 4 369 9 405 9
36 1 109 -1 163 -5z m2240 -20 c-18 -2 -48 -2 -65 0 -18 2 -4 4 32 4 36 0 50
-2 33 -4z m-1554 -59 c-88 -11 -207 -11 -740 0 l-634 13 740 0 c667 0 730 -1
634 -13z m808 9 c-20 -2 -52 -2 -70 0 -17 2 0 4 38 4 39 0 53 -2 32 -4z m595
-26 c-176 -29 -186 -30 -295 -18 -165 18 -175 22 -87 36 43 7 179 12 320 12
l245 1 -183 -31z m455 19 c12 -11 -1 -13 -122 -18 l-120 -6 70 19 c66 17 158
20 172 5z m238 4 c-60 -4 -121 -3 -135 1 -14 4 36 7 110 7 l135 -1 -110 -7z
m-1535 -29 c-17 -10 -148 -26 -139 -17 9 9 81 24 119 25 24 0 30 -2 20 -8z
m-4575 -27 c-176 -13 -440 -32 -586 -44 -273 -21 -576 -26 -529 -10 14 5 174
21 355 36 182 14 371 29 420 33 50 5 218 8 375 8 l285 1 -320 -24z m760 -15
c-168 -30 -256 -40 -370 -44 -178 -5 -143 4 140 35 105 12 231 27 280 34 193
29 159 12 -50 -25z m3535 27 c0 -11 -154 -49 -249 -61 -102 -14 -591 -22 -579
-10 13 13 417 57 583 64 99 4 195 8 213 9 17 1 32 0 32 -2z m670 -16 l45 -8
-40 -1 c-22 -1 -148 -8 -280 -16 -323 -20 -343 -17 -125 15 186 28 276 31 400
10z m1113 -16 c50 -20 96 -40 101 -44 12 -12 -37 -18 -184 -24 -108 -5 -156
-1 -350 28 -124 19 -223 35 -220 36 3 2 122 10 265 20 143 9 268 18 278 18 9
1 59 -14 110 -34z m-647 -44 c223 -32 250 -38 192 -39 -21 -1 -239 -10 -484
-21 -246 -12 -467 -20 -493 -18 -32 2 45 18 259 55 168 28 308 51 311 52 3 1
100 -13 215 -29z m-5538 13 c-16 -2 -40 -2 -55 0 -16 2 -3 4 27 4 30 0 43 -2
28 -4z m4961 -7 c-2 -2 -119 -23 -259 -45 -247 -40 -262 -42 -455 -39 l-200 3
72 23 c39 12 97 22 129 22 56 0 539 27 599 34 49 5 119 6 114 2z m-6544 -58
c-67 -15 -138 -21 -280 -23 -104 -2 -183 -2 -174 1 28 9 403 42 474 42 l70 0
-90 -20z m555 18 c0 -2 -42 -13 -93 -25 -78 -18 -118 -21 -243 -19 l-149 3
115 21 c100 19 370 33 370 20z m410 -6 c-82 -12 -351 -40 -384 -40 -57 0 -19
9 104 24 173 22 186 23 265 23 l70 1 -55 -8z m945 5 c-5 -3 -82 -14 -170 -25
-131 -16 -212 -20 -450 -19 -159 1 -280 4 -268 6 94 18 453 41 658 41 132 0
236 -1 230 -3z m3460 0 c-5 -3 -77 -13 -160 -25 -127 -17 -197 -20 -480 -19
-181 1 -319 4 -305 6 135 26 374 41 650 41 168 0 301 -1 295 -3z m185 -25
c-34 -12 -82 -19 -125 -18 -79 0 -68 5 55 23 118 17 134 16 70 -5z m2253 3
c-7 -2 -19 -2 -25 0 -7 3 -2 5 12 5 14 0 19 -2 13 -5z m-223 -12 c31 -6 -1 -8
-105 -8 -142 1 -130 5 40 14 11 1 40 -2 65 -6z m350 -1 c-20 -13 -33 -13 -25
0 3 6 14 10 23 10 15 0 15 -2 2 -10z m-6693 -46 c-3 -3 -203 -31 -444 -61
-368 -46 -474 -56 -666 -62 -125 -3 -227 -4 -227 -1 0 6 394 83 510 100 41 6
113 15 160 19 99 10 676 14 667 5z m6321 0 c-10 -10 -225 -32 -373 -38 -77 -4
-237 -11 -355 -16 -303 -14 -852 -38 -1130 -50 -129 -5 -269 -13 -310 -16 -41
-3 -72 -3 -69 0 3 3 131 26 285 51 277 46 422 58 784 68 217 6 1173 7 1168 1z
m-2003 -40 c-15 -6 -369 -63 -372 -60 -8 7 122 39 207 51 93 12 185 18 165 9z
m2335 -19 c-7 -9 -49 -33 -94 -54 -74 -35 -96 -40 -226 -55 -80 -8 -352 -38
-605 -66 -317 -35 -516 -52 -640 -55 -177 -4 -179 -4 -105 10 41 7 235 37 430
65 195 28 452 69 570 90 118 22 285 46 370 55 85 8 171 16 190 18 19 2 55 5
79 5 38 2 42 0 31 -13z m148 3 c19 -19 14 -48 -10 -57 -13 -5 -61 -11 -108
-15 l-85 -7 37 21 c21 11 45 32 54 45 13 20 25 25 58 25 23 0 47 -5 54 -12z
m-6969 -12 c-2 -2 -69 -15 -149 -29 -136 -25 -320 -39 -320 -26 0 3 91 17 203
31 199 25 274 32 266 24z m6895 -135 c-60 -58 -87 -64 -283 -59 l-125 3 85 37
c71 31 108 40 210 51 68 8 133 15 144 15 15 1 8 -10 -31 -47z m-8079 34 c-5
-2 -71 -11 -145 -20 -74 -9 -190 -25 -258 -37 -68 -11 -125 -18 -127 -16 -3 2
66 20 153 40 131 30 176 36 272 36 63 0 111 -1 105 -3z m7640 -67 l-70 -31
-253 -6 c-138 -3 -252 -4 -252 -1 0 6 541 67 605 68 40 1 39 1 -30 -30z
m-1295 -4 c-37 -9 -403 -64 -423 -63 -51 1 23 17 173 38 85 11 166 22 180 25
32 4 90 5 70 0z m-6227 -51 c-7 -2 -19 -2 -25 0 -7 3 -2 5 12 5 14 0 19 -2 13
-5z m-128 -24 c-49 -10 -103 -18 -120 -17 -34 0 146 36 185 36 14 0 -15 -9
-65 -19z m7959 7 c-11 -8 -42 -17 -69 -21 -28 -4 -140 -22 -250 -40 -214 -36
-323 -51 -315 -42 3 3 57 27 120 53 124 53 154 57 435 62 88 2 97 0 79 -12z
m205 10 c-10 -9 -139 -15 -134 -6 3 6 36 10 72 10 37 0 64 -2 62 -4z m-690
-10 c-2 -3 -67 -30 -144 -60 -154 -60 -135 -58 -560 -86 -88 -6 -254 -18 -370
-26 -208 -16 -1286 -33 -1274 -20 12 12 173 37 404 61 132 14 402 44 599 65
449 50 454 50 836 59 439 11 514 12 509 7z m-1499 -47 c-156 -20 -213 -20 -90
0 41 7 80 14 85 16 6 2 42 3 80 3 61 0 52 -3 -75 -19z m-257 4 c-7 -2 -21 -2
-30 0 -10 3 -4 5 12 5 17 0 24 -2 18 -5z m2352 -3 c-49 -13 -139 -20 -129 -10
9 9 60 16 124 17 l35 1 -30 -8z m-2412 -7 c-7 -2 -19 -2 -25 0 -7 3 -2 5 12 5
14 0 19 -2 13 -5z m-6050 -20 c-13 -2 -33 -2 -45 0 -13 2 -3 4 22 4 25 0 35
-2 23 -4z m2372 -4 c-62 -10 -506 -42 -511 -36 -13 12 286 45 416 45 111 0
133 -2 95 -9z m420 -17 c-6 -5 -75 -21 -155 -35 -122 -23 -173 -27 -319 -27
-96 0 -172 3 -169 6 11 10 146 26 393 43 138 10 252 19 255 20 2 0 0 -3 -5 -7z
m4540 -83 c-16 -6 -86 -12 -155 -14 -69 -2 -116 -2 -105 1 22 5 212 21 260 22
l30 0 -30 -9z m-7532 -16 c-18 -2 -48 -2 -65 0 -18 2 -4 4 32 4 36 0 50 -2 33
-4z m124 1 c-3 -3 -12 -4 -19 -1 -8 3 -5 6 6 6 11 1 17 -2 13 -5z m176 -1
c-13 -2 -35 -2 -50 0 -16 2 -5 4 22 4 28 0 40 -2 28 -4z m165 0 c-10 -2 -26
-2 -35 0 -10 3 -2 5 17 5 19 0 27 -2 18 -5z m175 0 c-18 -2 -48 -2 -65 0 -18
2 -4 4 32 4 36 0 50 -2 33 -4z m1105 0 c-10 -2 -26 -2 -35 0 -10 3 -2 5 17 5
19 0 27 -2 18 -5z m480 0 c-10 -2 -26 -2 -35 0 -10 3 -2 5 17 5 19 0 27 -2 18
-5z m619 1 c-3 -3 -12 -4 -19 -1 -8 3 -5 6 6 6 11 1 17 -2 13 -5z m-1744 -41
c-35 -2 -91 -2 -125 0 -35 2 -7 3 62 3 69 0 97 -1 63 -3z m475 0 c-38 -2 -98
-2 -135 0 -38 2 -7 3 67 3 74 0 105 -1 68 -3z m615 0 c-57 -2 -149 -2 -205 0
-57 1 -11 3 102 3 113 0 159 -2 103 -3z m4912 -3 c-101 -13 -1093 -52 -1245
-49 -36 1 117 14 340 29 285 19 488 27 685 27 174 0 257 -2 220 -7z m924 6
c-2 -3 -83 -23 -179 -45 -138 -31 -217 -43 -376 -55 -110 -9 -218 -16 -240
-15 -34 1 -29 4 37 20 163 40 781 118 758 95z m-6603 -43 c-17 -17 -188 -42
-286 -42 -111 0 -112 5 -5 34 52 14 304 21 291 8z m621 1 c-4 -4 -55 -15 -114
-25 -82 -14 -155 -19 -303 -18 -107 1 -187 3 -177 6 107 28 240 41 411 42 104
1 186 -2 183 -5z m5282 2 c-7 -8 -589 -87 -607 -84 -17 4 177 34 432 68 139
19 182 23 175 16z m-806 -63 c-7 -2 -19 -2 -25 0 -7 3 -2 5 12 5 14 0 19 -2
13 -5z m-88 -13 c-27 -5 -77 -8 -110 -7 l-60 0 60 7 c33 4 83 7 110 7 l50 0
-50 -7z m1618 -27 c-18 -2 -48 -2 -65 0 -18 2 -4 4 32 4 36 0 50 -2 33 -4z
m-124 -7 c-2 -2 -98 -6 -214 -9 -115 -3 -196 -1 -180 3 29 7 402 14 394 6z
m-608 -16 c-18 -4 -104 -11 -190 -14 -86 -4 -192 -9 -236 -12 -44 -4 -77 -3
-73 1 4 4 78 13 165 20 182 14 388 18 334 5z m-6121 -10 c-41 -4 -136 -10
-210 -13 -129 -6 -132 -5 -75 7 36 8 120 14 210 13 127 0 138 -1 75 -7z m775
-1 c-290 -9 -530 -8 -485 1 19 4 186 7 370 7 334 -1 334 -1 115 -8z m945 -21
c-45 -9 -729 -21 -699 -12 17 5 496 21 654 21 81 0 85 0 45 -9z m3955 -33
c-23 -9 -974 -105 -1023 -104 -34 1 -33 2 13 10 188 32 595 82 720 88 171 9
305 11 290 6z m1765 -4 l155 -6 -125 -22 c-82 -14 -188 -24 -309 -27 -102 -3
-270 -15 -375 -26 -170 -18 -248 -20 -706 -18 l-515 3 125 28 c226 50 601 75
1140 75 250 -1 525 -3 610 -7z m-6185 -34 c-87 -20 -121 -20 -1170 -23 l-1080
-2 155 23 c153 22 168 22 1170 22 l1015 1 -90 -21z m4285 -31 c0 -2 -33 -11
-73 -20 -53 -12 -111 -16 -208 -14 l-134 3 180 16 c214 19 235 20 235 15z
m634 -75 c-24 -21 -359 -41 -654 -40 -314 1 -322 3 -155 34 77 14 824 19 809
6z m626 3 c-74 -17 -360 -44 -466 -43 l-129 1 120 14 c193 23 304 31 400 31
50 1 83 -1 75 -3z m-5041 -58 c-2 -2 -92 -38 -199 -80 l-194 -76 -711 2 c-604
3 -700 5 -640 15 39 7 135 17 215 23 607 40 802 55 1112 84 357 34 425 39 417
32z m3631 -32 c-33 -7 -622 -65 -632 -62 -6 2 52 18 128 35 130 29 152 31 329
31 105 0 183 -2 175 -4z m-6105 -163 c-11 -9 -554 -35 -563 -26 -3 3 10 5 29
6 19 0 117 6 219 13 231 16 327 19 315 7z m1180 -2 c-48 -9 -267 -9 -455 0
-107 6 -70 8 180 8 190 0 299 -3 275 -8z m1316 0 c-22 -9 -450 -29 -460 -22
-9 6 8 14 50 22 63 13 441 12 410 0z m-571 -16 c-32 -10 -72 -13 -140 -9 -52
3 -131 6 -175 8 -73 2 -70 3 40 8 66 3 165 6 220 7 l100 1 -45 -15z m-382 -40
c145 -3 257 -10 250 -14 -7 -5 -238 -8 -513 -7 -275 0 -491 3 -480 5 110 21
338 27 743 16z m487 -14 c-58 -12 -154 -11 -135 1 8 5 51 9 95 9 69 -1 75 -2
40 -10z m-560 -59 c-75 -10 -580 -10 -820 -1 -126 5 -20 8 350 8 292 0 503 -3
470 -7z m968 -7 c-13 -2 -35 -2 -50 0 -16 2 -5 4 22 4 28 0 40 -2 28 -4z
m-2043 -23 c81 -6 68 -7 -95 -7 -108 -1 -179 2 -165 7 31 10 135 10 260 0z
m1475 -61 c-140 -23 -200 -28 -339 -29 -93 0 -167 2 -165 4 9 9 284 38 434 45
247 12 252 11 70 -20z m-1055 10 c-155 -16 -528 -31 -910 -35 -217 -2 -390 -2
-384 1 6 3 74 14 150 24 121 16 210 19 679 19 328 -1 510 -4 465 -9z m160
-165 c-8 -2 -170 -31 -360 -64 l-344 -60 -366 1 c-225 1 -352 4 -330 10 27 6
382 56 795 112 38 5 625 6 605 1z m1355 -39 c-198 -24 -429 -53 -514 -64 -142
-19 -198 -21 -730 -20 -317 1 -567 4 -556 7 11 3 164 31 340 62 l320 57 750 1
750 0 -360 -43z m1025 6 c-63 -21 -143 -50 -178 -65 l-62 -26 -283 2 -282 3
275 62 275 61 185 1 185 0 -115 -38z m-575 4 c-5 -3 -100 -25 -210 -50 l-199
-45 -201 1 c-110 1 -189 4 -175 7 14 2 185 24 380 47 328 39 430 49 405 40z
m-1658 -132 c-152 -2 -402 -2 -555 0 -152 1 -27 2 278 2 305 0 430 -1 277 -2z
m955 0 c-73 -2 -190 -2 -260 0 -70 1 -10 3 133 3 143 0 200 -2 127 -3z m721 0
c-72 -2 -194 -2 -270 0 -76 1 -16 3 132 3 149 0 211 -2 138 -3z m-943 -82 c0
-3 -188 -52 -418 -109 l-417 -102 -492 0 c-279 0 -493 4 -493 9 0 20 117 53
290 81 324 52 764 119 805 122 78 7 725 6 725 -1z m443 -1 c-4 -4 -46 -12 -93
-19 -47 -7 -222 -35 -388 -62 -167 -28 -306 -49 -308 -47 -4 4 492 125 536
131 49 6 261 4 253 -3z m607 4 c0 -1 -51 -37 -112 -80 -62 -42 -129 -90 -149
-106 l-37 -28 -653 0 c-359 0 -650 2 -648 4 12 12 1193 201 1299 208 60 4 300
6 300 2z m1653 -4 c-25 -21 -353 -105 -497 -127 -89 -13 -240 -37 -338 -53
l-176 -30 -437 0 c-267 0 -434 4 -430 9 8 14 270 190 297 200 28 10 1593 11
1581 1z m213 1 c-5 -8 -42 -15 -126 -26 -19 -2 -3 4 35 15 80 21 98 23 91 11z
m-3031 -251 c-122 -9 -504 -27 -720 -35 -136 -5 -139 -4 -90 10 97 29 154 33
535 32 269 0 352 -2 275 -7z m2665 -40 c0 -9 -614 -41 -770 -39 l-145 1 50 16
c41 13 122 17 440 21 215 3 398 6 408 6 9 1 17 -2 17 -5z m895 -22 c-115 -10
-235 -17 -265 -15 -34 1 8 7 110 16 244 21 344 27 355 21 6 -2 -84 -13 -200
-22z m-2810 2 c-18 -20 -30 -20 -634 -19 l-616 2 250 17 c157 11 393 18 634
19 384 1 384 1 366 -19z m540 0 c-70 -15 -136 -19 -299 -19 -208 -1 -209 -1
-191 19 17 19 30 20 299 19 l281 -1 -90 -18z m410 10 c-16 -4 -41 -8 -55 -8
-22 0 -22 1 5 8 17 4 41 8 55 8 22 0 22 -1 -5 -8z m-5 -120 c-85 -10 -342 -10
-280 0 25 4 113 7 195 7 116 0 135 -2 85 -7z m558 3 c-21 -2 -57 -2 -80 0 -24
2 -7 4 37 4 44 0 63 -2 43 -4z m1807 -5 c-38 -4 -213 -24 -387 -43 l-318 -35
-1022 1 c-903 2 -1011 3 -918 15 58 7 283 18 500 24 217 6 490 19 605 29 180
16 311 18 910 18 459 0 676 -3 630 -9z m-3510 -23 c-43 -16 -380 -55 -467 -53
-117 1 -118 1 172 32 198 21 320 30 295 21z m674 -19 c-7 -8 -363 -38 -404
-34 -72 6 160 35 289 37 66 0 117 -1 115 -3z m3051 -27 c-25 -4 -70 -7 -100
-7 l-55 1 65 7 c36 4 81 7 100 7 31 0 30 0 -10 -8z m-4295 -94 c-17 -7 -228
-25 -232 -21 -8 8 103 24 172 24 39 0 66 -1 60 -3z m2355 -1 c-8 -2 -168 -10
-355 -19 -242 -11 -562 -15 -1110 -14 -423 0 -765 3 -759 5 5 2 66 10 135 18
96 10 349 14 1114 14 545 0 983 -2 975 -4z m1418 1 c-6 -7 -681 -47 -721 -43
-18 2 47 13 143 24 160 20 593 34 578 19z m1032 -1 c-8 -2 -296 -48 -640 -101
l-625 -97 -265 -3 c-177 -1 -255 1 -235 7 17 6 193 26 392 46 256 25 464 53
710 94 328 55 358 58 513 58 91 0 158 -2 150 -4z m-5265 -24 c-11 -5 -47 -8
-80 -8 l-60 1 65 7 c94 9 97 9 75 0z m3075 -30 c-234 -31 -386 -39 -232 -14
166 28 289 42 367 42 69 -1 49 -5 -135 -28z m1345 5 c-71 -13 -202 -31 -290
-39 -88 -9 -176 -19 -195 -22 -19 -3 -33 -3 -30 0 3 3 71 19 150 36 136 29
296 47 435 47 52 1 44 -2 -70 -22z m-1700 0 c-5 -2 -82 -16 -170 -30 -224 -35
-489 -45 -1155 -44 -732 2 -502 19 685 50 215 6 428 14 475 18 94 9 181 12
165 6z m1043 -20 c-10 -11 -551 -108 -673 -121 -91 -10 -262 -14 -569 -14
-242 0 -437 2 -435 4 2 2 90 12 194 21 105 9 285 27 400 40 116 13 345 31 510
40 165 9 350 20 410 24 151 11 169 12 163 6z m-3003 -12 c-49 -2 -184 -7 -300
-12 -115 -5 -212 -8 -213 -6 -15 14 124 23 343 22 143 -1 220 -2 170 -4z
m-900 -23 c-16 -4 -50 -8 -75 -7 l-45 0 40 7 c22 4 56 7 75 7 l35 1 -30 -8z
m2220 -55 c-5 -2 -113 -13 -239 -25 -212 -18 -300 -20 -1190 -19 -528 0 -956
3 -951 5 6 2 56 13 110 23 94 17 171 19 1190 19 600 0 1086 -1 1080 -3z
m-3095 -25 c-25 -5 -94 -11 -155 -14 -60 -2 -99 -3 -85 0 40 7 201 21 245 21
l40 0 -45 -7z m6085 -59 c-6 -4 -53 -24 -105 -42 l-95 -34 -730 -1 -730 -2
115 19 c100 16 184 19 645 22 416 3 556 8 650 20 170 23 176 24 220 26 22 0
35 -3 30 -8z m-3705 -41 c0 -5 -6 -10 -13 -10 -7 0 -112 -16 -233 -35 -211
-33 -230 -34 -541 -37 -177 -2 -319 0 -315 3 4 3 124 16 267 28 143 12 305 27
360 33 55 5 174 13 265 17 91 5 175 9 188 9 12 1 22 -2 22 -8z m713 0 c-4 -4
-69 -12 -143 -19 -74 -7 -245 -23 -380 -37 -135 -13 -281 -24 -325 -23 l-80 1
190 35 c116 21 242 37 325 41 182 9 423 10 413 2z m537 2 c0 -4 -93 -24 -207
-45 -201 -36 -217 -37 -451 -39 -133 0 -244 1 -247 4 -2 2 57 10 133 16 75 7
250 24 387 37 138 13 275 26 305 28 30 2 61 4 68 5 6 1 12 -1 12 -6z m774 -1
c-12 -10 -276 -50 -374 -56 -137 -9 -323 -15 -319 -11 14 13 314 60 419 65
205 10 283 10 274 2z m-1846 -168 c-75 -2 -201 -2 -280 0 -79 1 -17 3 137 3
154 0 218 -2 143 -3z m695 0 c-40 -2 -106 -2 -145 0 -40 1 -8 3 72 3 80 0 112
-2 73 -3z m1360 0 c-183 -2 -483 -2 -665 0 -183 1 -34 2 332 2 366 0 515 -1
333 -2z m1430 0 c-117 -2 -309 -2 -425 0 -117 1 -22 2 212 2 234 0 329 -1 213
-2z m1115 0 c-97 -2 -259 -2 -360 0 -101 1 -21 2 177 2 198 0 280 -1 183 -2z
m-5381 -39 c-3 -3 -12 -4 -19 -1 -8 3 -5 6 6 6 11 1 17 -2 13 -5z m151 -1
c-10 -2 -26 -2 -35 0 -10 3 -2 5 17 5 19 0 27 -2 18 -5z m155 0 c-7 -2 -21 -2
-30 0 -10 3 -4 5 12 5 17 0 24 -2 18 -5z m1475 0 c-10 -2 -26 -2 -35 0 -10 3
-2 5 17 5 19 0 27 -2 18 -5z m130 0 c-10 -2 -26 -2 -35 0 -10 3 -2 5 17 5 19
0 27 -2 18 -5z m190 0 c-10 -2 -26 -2 -35 0 -10 3 -2 5 17 5 19 0 27 -2 18 -5z
m130 0 c-10 -2 -26 -2 -35 0 -10 3 -2 5 17 5 19 0 27 -2 18 -5z m160 0 c-10
-2 -26 -2 -35 0 -10 3 -2 5 17 5 19 0 27 -2 18 -5z m-2268 -44 c-126 -22 -356
-32 -825 -35 -524 -3 -545 0 -216 30 162 15 1120 20 1041 5z m918 6 c-3 -3
-58 -15 -122 -26 -89 -15 -152 -19 -269 -17 l-152 3 125 22 c115 19 433 33
418 18z m960 0 c-11 -11 -443 -36 -693 -40 -279 -4 -287 -2 -85 30 82 13 790
22 778 10z m-3378 -20 c-109 -13 -414 -29 -340 -18 72 10 337 31 395 31 45 0
31 -4 -55 -13z m3895 -5 c-96 -16 -258 -26 -230 -14 28 11 199 32 265 32 l75
0 -110 -18z m1522 0 c-25 -20 -39 -20 -709 -19 l-683 1 105 18 c92 15 181 18
709 19 l604 1 -26 -20z m733 4 c-110 -14 -680 -32 -680 -21 0 4 15 13 33 21
26 12 102 14 392 14 351 0 357 -1 255 -14z m860 0 c-37 -9 -140 -16 -240 -19
l-175 -4 150 18 c83 10 191 19 240 19 l90 0 -65 -14z m-5305 -14 c-16 -4 -61
-7 -100 -7 l-70 0 60 7 c33 4 78 7 100 7 38 1 38 0 10 -7z m1733 -7 c-10 -2
-28 -2 -40 0 -13 2 -5 4 17 4 22 1 32 -1 23 -4z m-1800 -89 c-15 -15 -254 -44
-362 -44 -66 0 -117 3 -114 6 16 15 236 42 352 43 71 1 127 -2 124 -5z m1247
-17 c-83 -18 -132 -20 -655 -24 -310 -2 -562 -1 -558 2 3 3 52 14 109 24 93
17 164 19 649 19 l545 0 -90 -21z m308 16 c-7 -2 -19 -2 -25 0 -7 3 -2 5 12 5
14 0 19 -2 13 -5z m1212 0 c-171 -19 -700 -43 -932 -42 -153 0 -272 3 -266 6
7 2 63 13 125 23 98 15 180 17 608 17 272 0 482 -2 465 -4z m673 -40 c-119 -2
-317 -2 -440 0 -123 1 -25 2 217 2 242 0 342 -1 223 -2z m920 0 c-71 -2 -185
-2 -255 0 -71 1 -13 3 127 3 140 0 198 -2 128 -3z m735 0 c-62 -2 -164 -2
-225 0 -62 1 -12 3 112 3 124 0 174 -2 113 -3z m-5558 -39 c-5 -2 -119 -22
-252 -44 -191 -32 -265 -40 -355 -39 l-113 1 70 14 c284 57 394 72 525 72 74
0 131 -1 125 -4z m1364 2 c-2 -3 -45 -11 -94 -20 -84 -14 -146 -19 -520 -47
-149 -11 -1013 -22 -980 -12 10 3 118 22 240 43 l220 38 569 1 c313 1 567 -1
565 -3z m571 -6 c-47 -5 -141 -10 -210 -13 l-125 -6 75 13 c41 8 136 13 210
13 130 0 132 0 50 -7z m1915 5 c-31 -12 -461 -68 -580 -75 -77 -5 -540 -9
-1030 -8 l-890 1 270 19 c938 65 946 66 1610 66 347 0 626 -1 620 -3z m845 -5
c-25 -5 -209 -16 -410 -24 -201 -9 -396 -18 -435 -21 -108 -7 -60 5 118 30
141 20 202 23 467 23 186 0 287 -3 260 -8z m1065 -1 c-38 -4 -200 -17 -360
-29 -159 -11 -339 -25 -400 -31 -60 -5 -200 -12 -310 -14 -192 -4 -197 -4
-135 10 90 20 253 32 685 50 204 9 388 17 410 19 22 1 72 3 110 3 l70 0 -70
-8z m275 -50 l-35 -28 -365 1 -365 1 165 13 c373 31 625 50 630 46 3 -2 -11
-17 -30 -33z m-1735 -20 c-22 -4 -107 -7 -190 -6 l-150 1 105 6 c58 3 143 6
190 7 69 1 77 -1 45 -8z m-4895 -100 c-67 -11 -232 -11 -225 1 4 6 60 9 138 9
100 -1 121 -3 87 -10z m1065 -10 c-55 -17 -96 -19 -504 -19 -244 0 -442 2
-439 5 3 3 56 11 119 19 78 10 234 14 499 14 l385 0 -60 -19z m530 5 c-143 -7
-297 -14 -342 -16 -46 -3 -81 -2 -78 0 20 21 146 30 400 30 l280 -1 -260 -13z
m1305 0 c-151 -6 -430 -15 -620 -17 l-345 -6 340 18 c187 10 466 18 620 18
l280 0 -275 -13z m1330 -6 c-90 -16 -163 -20 -520 -23 -239 -2 -407 0 -395 5
22 10 672 37 885 37 l135 1 -105 -20z m415 6 c-55 -7 -143 -15 -195 -18 l-95
-5 100 18 c55 10 143 18 195 18 l95 0 -100 -13z m505 6 c-36 -4 -85 -8 -110
-7 l-45 0 45 7 c25 4 74 7 110 7 l65 0 -65 -7z m1310 0 c0 -6 -15 -17 -32 -25
-26 -11 -138 -13 -568 -13 -294 0 -524 4 -510 8 33 11 555 31 860 33 135 1
246 3 248 5 1 1 2 -3 2 -8z m-6860 -30 c11 -7 2 -10 -33 -10 -30 0 -46 4 -42
10 8 13 55 13 75 0z m3135 -45 c-13 -5 -362 -61 -430 -69 -27 -4 -225 -15
-440 -26 -214 -11 -484 -24 -600 -30 -456 -23 -760 -37 -764 -34 -2 2 2 5 10
8 8 2 118 38 244 80 l230 76 880 -1 c484 0 876 -2 870 -4z m945 -1 c-14 -2
-126 -8 -250 -14 -339 -16 -596 -29 -685 -35 -108 -7 -84 2 87 30 132 21 171
23 508 23 201 -1 354 -2 340 -4z m2600 -33 l-75 -39 -190 -6 c-104 -4 -329
-11 -500 -16 -486 -16 -627 -27 -1135 -91 l-475 -59 -805 0 c-715 0 -834 -3
-1065 -21 -261 -20 -835 -38 -824 -25 4 4 117 13 252 21 275 16 570 38 817 61
475 43 940 87 1140 109 669 73 881 95 935 98 33 2 497 4 1030 5 l970 1 -75
-38z m-3152 -38 c-15 -2 -42 -2 -60 0 -18 2 -6 4 27 4 33 0 48 -2 33 -4z
m-165 -10 c-23 -2 -64 -2 -90 0 -26 2 -7 3 42 3 50 0 71 -1 48 -3z m-205 -10
c-10 -2 -26 -2 -35 0 -10 3 -2 5 17 5 19 0 27 -2 18 -5z m4201 -8 c-3 -2 -164
-37 -359 -76 l-355 -72 -230 -4 c-144 -3 -226 -1 -220 5 6 5 48 19 95 32 47
12 135 41 195 63 l110 41 305 6 c168 3 341 7 384 8 44 1 77 0 75 -3z m-964
-47 c-49 -16 -150 -45 -225 -63 l-135 -34 -700 -1 c-385 0 -704 0 -710 1 -5 0
142 20 329 44 385 49 906 80 1416 82 l115 1 -90 -30z m-3267 17 c-9 -10 -1088
-100 -1109 -93 -6 2 96 21 227 41 245 39 245 39 833 55 30 1 52 0 49 -3z
m-1033 -40 c-38 -6 -162 -26 -275 -43 l-205 -32 -538 -3 c-295 -1 -537 1 -537
4 0 7 87 26 155 33 28 3 219 13 425 21 206 9 461 20 565 24 105 4 255 8 335 8
l145 0 -70 -12z m-660 -165 c-38 -4 -115 -10 -170 -13 l-100 -5 70 13 c39 7
115 13 170 12 99 0 100 0 30 -7z m2170 5 c-5 -3 -85 -13 -177 -25 -158 -19
-218 -20 -1055 -19 -488 1 -876 4 -862 6 14 2 135 12 270 22 206 16 367 19
1039 19 437 0 791 -1 785 -3z m2024 1 c-3 -3 -46 -14 -97 -25 -89 -20 -119
-21 -1014 -20 -508 1 -916 3 -908 5 8 3 80 13 160 23 131 17 227 19 1004 20
473 1 857 -1 855 -3z m526 -1 c-26 -10 -384 -45 -453 -44 -85 1 -82 4 28 30
56 13 120 17 255 17 99 0 176 -1 170 -3z m1100 -5 c-118 -9 -467 -19 -445 -14
32 9 272 21 405 21 l140 0 -100 -7z m-225 -141 c-139 -15 -249 -18 -695 -17
l-530 0 75 18 c68 16 131 18 695 18 l620 0 -165 -19z m535 0 c-82 -10 -193
-18 -245 -17 l-95 1 155 17 c85 10 196 17 245 17 l90 1 -150 -19z m-2160 -5
c-38 -7 -128 -12 -200 -12 l-130 1 95 12 c52 7 142 12 200 12 l105 1 -70 -14z
m300 1 c-27 -7 -72 -13 -100 -13 l-50 0 65 13 c36 7 81 13 100 13 32 0 31 -1
-15 -13z m-977 -12 c-16 -2 -40 -2 -55 0 -16 2 -3 4 27 4 30 0 43 -2 28 -4z
m-1023 -48 c-5 -2 -74 -13 -153 -25 -137 -19 -187 -20 -1050 -19 -499 0 -902
3 -895 5 7 3 106 13 220 23 179 16 326 18 1048 19 462 0 836 -1 830 -3z m615
-1 c-103 -24 -627 -58 -608 -39 16 16 299 43 453 43 94 0 163 -2 155 -4z m600
-20 c-96 -16 -176 -23 -274 -24 -77 0 -137 2 -134 5 2 3 45 14 94 24 69 15
130 19 269 19 l180 0 -135 -24z m490 0 c-65 -20 -95 -24 -219 -24 -79 0 -142
2 -139 6 15 14 225 42 323 42 l110 0 -75 -24z m975 20 c-124 -22 -453 -44
-664 -44 -134 0 -242 2 -239 5 3 3 34 14 69 25 58 17 101 18 459 18 217 0 386
-2 375 -4z m585 0 c-54 -7 -457 -34 -490 -33 -82 3 276 36 390 36 69 0 114 -1
100 -3z m705 -5 c-57 -17 -230 -30 -465 -34 -129 -3 -230 -3 -223 1 6 3 83 13
170 23 168 20 575 27 518 10z m-3516 -73 c-2 -3 -84 -23 -181 -45 l-176 -41
-414 1 c-243 1 -399 4 -378 9 19 5 159 18 310 30 151 11 352 27 445 34 166 13
403 20 394 12z m396 -2 c-32 -12 -506 -84 -540 -82 -31 2 -3 12 135 44 153 36
190 42 295 42 66 0 116 -1 110 -4z m586 -25 c-47 -16 -126 -33 -180 -39 -102
-12 -670 -23 -636 -13 11 3 121 23 245 43 212 36 237 38 440 38 l215 0 -84
-29z m459 25 c-26 -6 -311 -34 -339 -33 -19 1 -11 6 29 19 42 14 87 18 190 18
74 0 128 -2 120 -4z m1010 0 c-67 -9 -893 -55 -922 -51 -26 3 -22 4 17 6 28 1
190 13 360 25 250 19 646 33 545 20z m683 -4 c-31 -13 -2407 -210 -2513 -209
l-85 1 125 42 c125 43 126 43 305 49 99 3 374 17 610 32 835 51 1520 93 1550
93 28 1 28 0 8 -8z m312 -40 c-60 -4 -144 -7 -185 -7 -65 0 -69 1 -30 7 25 4
108 7 185 7 l140 0 -110 -7z m-1992 -17 c-18 -2 -48 -2 -65 0 -18 2 -4 4 32 4
36 0 50 -2 33 -4z m1715 0 c-10 -2 -26 -2 -35 0 -10 3 -2 5 17 5 19 0 27 -2
18 -5z m-1865 -10 c-7 -2 -21 -2 -30 0 -10 3 -4 5 12 5 17 0 24 -2 18 -5z
m1167 -39 c-8 -2 -116 -17 -240 -33 -124 -17 -340 -46 -480 -65 -140 -19 -392
-49 -560 -66 -289 -29 -324 -30 -665 -28 l-360 3 70 18 c49 13 139 21 300 28
189 8 1753 131 1820 143 26 4 135 5 115 0z m-3020 -12 c0 -5 -48 -19 -107 -30
-85 -17 -198 -26 -533 -42 -416 -20 -669 -25 -658 -15 3 3 88 22 189 42 l184
37 460 6 c253 3 461 7 463 8 1 1 2 -2 2 -6z m1125 -37 c-194 -65 -201 -65
-772 -64 -302 1 -501 5 -478 10 22 4 173 15 335 23 496 27 660 37 775 50 61 7
139 13 175 14 l65 0 -100 -33z m1543 -60 c-21 -21 -508 -77 -640 -74 -75 2
-42 7 302 44 347 37 345 37 338 30z m-3588 -51 c-92 -12 -438 -28 -393 -18 32
8 357 31 428 31 55 0 53 -1 -35 -13z m1639 12 c-2 -2 -42 -14 -89 -26 -83 -20
-95 -21 -625 -14 -536 8 -540 8 -475 25 58 15 129 17 629 18 310 1 562 -1 560
-3z m-1389 -26 c-14 -4 -41 -8 -60 -8 l-35 1 35 7 c19 4 46 8 60 8 l25 0 -25
-8z m1495 -61 l170 -2 -120 -13 c-213 -23 -467 -46 -471 -42 -2 3 38 19 89 36
63 22 103 31 127 27 19 -2 112 -5 205 -6z m-20 -64 c-5 -2 -102 -16 -215 -30
-113 -14 -270 -35 -349 -45 -80 -11 -146 -18 -148 -16 -2 1 34 13 79 25 93 25
690 87 633 66z m2938 -2 c-7 -2 -19 -2 -25 0 -7 3 -2 5 12 5 14 0 19 -2 13 -5z
m-55 -10 c-10 -2 -26 -2 -35 0 -10 3 -2 5 17 5 19 0 27 -2 18 -5z m-88 -13
c-58 -13 -135 -22 -128 -15 8 8 92 23 133 23 29 0 29 0 -5 -8z m-1437 -10
c138 0 247 -3 244 -7 -4 -3 -64 -14 -134 -24 -121 -18 -270 -34 -1280 -145
-260 -28 -445 -44 -500 -42 -87 3 -85 4 232 56 176 30 455 78 620 107 165 30
314 56 330 58 17 3 77 3 134 1 57 -2 217 -4 354 -4z m867 -30 c-63 -10 -212
-32 -330 -49 -118 -18 -309 -47 -425 -66 -165 -26 -263 -36 -460 -44 -137 -6
-322 -16 -410 -22 -88 -6 -225 -9 -305 -7 l-145 3 165 18 c91 10 309 34 485
53 384 41 585 66 845 103 172 25 224 29 445 29 l250 0 -115 -18z m80 -30 c-38
-14 -716 -113 -732 -108 -10 4 708 116 742 116 8 0 4 -4 -10 -8z m-480 -150
c-14 -4 -52 -8 -85 -8 -51 1 -55 2 -25 8 50 11 143 11 110 0z m-1763 -46 c-15
-15 -344 -44 -497 -43 -182 2 -177 3 120 33 138 14 388 21 377 10z m788 -3
c-6 -4 -48 -16 -95 -25 -68 -13 -144 -16 -385 -15 l-300 1 120 14 c256 30 682
46 660 25z m651 2 c-11 -12 -243 -42 -311 -41 l-60 0 55 9 c183 31 330 45 316
32z m1064 -3 c-14 -4 -135 -13 -270 -19 -535 -25 -535 -25 -348 9 83 15 154
18 373 18 155 0 259 -3 245 -8z m215 -47 c-137 -18 -239 -25 -430 -28 -137 -3
-245 -3 -240 0 6 2 123 11 260 21 138 9 297 20 355 24 221 15 242 9 55 -17z
m-2355 -109 c-85 -13 -171 -23 -190 -21 -47 3 220 44 290 44 38 1 6 -7 -100
-23z m468 21 c-9 -10 -280 -55 -327 -55 -79 0 -33 15 117 36 150 22 219 28
210 19z m1027 -20 c-113 -12 -577 -35 -687 -35 -55 0 -39 15 29 29 92 18 101
18 453 18 334 0 335 0 205 -12z m-842 -32 c-7 -2 -19 -2 -25 0 -7 3 -2 5 12 5
14 0 19 -2 13 -5z m-1086 -29 c-3 -3 -12 -4 -19 -1 -8 3 -5 6 6 6 11 1 17 -2
13 -5z m978 -13 c-3 -5 -18 -12 -33 -15 -42 -8 -441 -38 -454 -34 -7 3 58 16
143 30 153 26 356 37 344 19z m234 5 c-2 -2 -35 -6 -74 -10 -48 -4 -65 -3 -55
4 13 9 139 15 129 6z m656 -1 c-5 -2 -179 -27 -387 -55 -302 -40 -402 -50
-510 -49 -129 1 -132 1 -98 16 42 19 199 37 500 59 124 8 268 19 320 23 104 9
191 12 175 6z m-1402 -62 c-7 -2 -19 -2 -25 0 -7 3 -2 5 12 5 14 0 19 -2 13
-5z m3137 -94 c-51 -9 -878 -30 -2340 -59 -278 -5 -570 -12 -650 -14 -80 -3
-139 -3 -133 0 7 3 135 23 285 44 l273 38 1305 0 c718 0 1285 -4 1260 -9z
m-1305 -184 c-59 -10 -211 -13 -580 -12 -275 1 -462 3 -415 4 92 4 877 20
1000 20 l75 1 -80 -13z m-57 -62 c-27 -2 -69 -2 -95 0 -27 2 -5 3 47 3 52 0
74 -1 48 -3z m-71 -79 c-3 -3 -12 -4 -19 -1 -8 3 -5 6 6 6 11 1 17 -2 13 -5z"/>
<path d="M4410 4869 c-53 -5 -175 -29 -274 -54 -189 -48 -245 -56 -551 -79
-219 -17 -871 -40 -990 -34 l-80 3 95 27 95 26 -56 1 c-33 1 -105 -12 -172
-29 -110 -28 -125 -30 -299 -28 -115 1 -164 4 -133 8 99 14 -11 10 -360 -10
-383 -23 -395 -25 -395 -43 0 -10 84 -12 388 -9 312 2 383 0 367 -10 -15 -9
-116 -13 -382 -16 -343 -4 -363 -5 -363 -23 0 -14 9 -19 42 -22 l43 -4 -43 -1
c-41 -2 -43 -3 -40 -29 3 -25 7 -28 38 -26 129 8 461 34 490 39 65 11 24 -6
-110 -46 -98 -29 -166 -42 -264 -50 -72 -7 -134 -15 -137 -19 -3 -3 1 -48 9
-98 l14 -93 257 -1 c141 0 279 -4 306 -8 l50 -7 -105 -33 c-100 -32 -114 -34
-298 -39 l-194 -5 6 -30 c3 -16 6 -33 6 -38 0 -5 17 -9 38 -10 l37 -1 -33 -9
c-31 -9 -33 -12 -27 -42 4 -18 9 -35 11 -38 2 -3 58 -4 124 -1 66 3 120 2 120
0 0 -3 -50 -18 -110 -33 -61 -15 -113 -32 -116 -37 -12 -19 12 -28 46 -18 19
6 114 30 210 55 l175 44 320 10 c176 6 466 16 645 21 335 11 468 23 747 66
156 24 179 25 658 25 463 0 496 1 493 17 -3 16 -34 17 -358 22 l-355 5 352 3
c307 2 352 4 347 17 -5 12 -46 15 -258 17 l-251 3 90 19 c54 12 150 22 241 25
l152 6 -17 55 -17 55 -179 5 -180 5 173 14 c127 10 172 17 172 27 0 7 -3 15
-8 18 -6 4 -216 -13 -677 -53 -143 -13 -772 -13 -655 0 87 9 730 69 1070 100
129 11 238 24 242 27 3 4 4 19 1 35 -4 19 -11 27 -27 27 -11 0 -144 -7 -295
-15 -151 -8 -276 -13 -278 -11 -14 14 155 30 355 33 127 3 232 9 232 13 0 5
-5 32 -11 60 l-11 50 -251 2 c-189 1 -231 3 -167 9 47 4 153 8 235 8 83 1 156
5 164 10 20 13 0 152 -23 150 -6 -1 -54 -6 -106 -10z m-1400 -240 c-25 -4
-110 -7 -190 -6 -119 0 -132 2 -70 7 115 10 316 9 260 -1z m310 1 c0 -6 -23
-9 -52 -9 l-53 2 40 7 c60 11 65 11 65 0z m645 0 c-78 -10 -491 -10 -445 0 19
4 141 7 270 7 151 0 213 -3 175 -7z m-1340 -55 c-5 -2 -102 -18 -215 -34 -179
-26 -605 -59 -616 -48 -2 2 33 14 78 27 218 62 194 59 488 59 151 0 271 -2
265 -4z m430 -4 c-11 -5 -108 -16 -215 -25 -107 -9 -215 -19 -240 -21 -90 -10
-18 7 132 29 147 23 365 34 323 17z m850 -1 c-58 -17 -243 -40 -306 -39 -79 2
-66 5 102 28 147 20 258 26 204 11z m-597 -27 c-10 -2 -26 -2 -35 0 -10 3 -2
5 17 5 19 0 27 -2 18 -5z m-80 -10 c-15 -2 -42 -2 -60 0 -18 2 -6 4 27 4 33 0
48 -2 33 -4z m1102 -19 c-8 -2 -94 -10 -190 -18 -96 -9 -300 -27 -453 -41
-153 -15 -286 -25 -295 -23 -9 2 64 18 163 36 150 27 218 34 410 41 249 9 389
11 365 5z m-864 -21 c-4 -4 -105 -27 -224 -50 -166 -32 -258 -45 -392 -53
-244 -14 -310 -16 -302 -9 40 35 455 98 717 109 94 3 179 7 189 8 11 1 16 -1
12 -5z m-740 -12 c-8 -13 -93 -27 -436 -71 -279 -36 -323 -40 -520 -39 -124 1
-198 5 -175 9 163 29 429 62 645 80 364 29 494 34 486 21z m641 -57 c-3 -3
-12 -4 -19 -1 -8 3 -5 6 6 6 11 1 17 -2 13 -5z m-952 -44 c-11 -5 -45 -8 -75
-8 l-55 1 45 7 c25 4 59 7 75 8 25 0 27 -1 10 -8z m-185 -55 c0 -2 -30 -13
-66 -25 -70 -21 -217 -25 -384 -11 -74 7 -74 7 -30 14 25 4 133 11 240 16 107
4 205 9 218 9 12 1 22 0 22 -3z m385 -5 c-104 -31 -383 -55 -361 -32 25 25
118 40 251 40 95 0 130 -3 110 -8z m700 4 c-131 -23 -678 -55 -663 -39 4 4 45
16 90 25 67 15 132 18 338 18 140 -1 246 -2 235 -4z m1243 -9 c-39 -8 -218
-14 -560 -19 -277 -3 -539 -8 -583 -11 -121 -6 -33 12 140 28 194 19 1089 21
1003 2z m-2080 -72 c-10 -2 -26 -2 -35 0 -10 3 -2 5 17 5 19 0 27 -2 18 -5z
m450 0 c-10 -2 -26 -2 -35 0 -10 3 -2 5 17 5 19 0 27 -2 18 -5z m487 -9 c-99
-8 -200 -13 -225 -12 -66 4 187 25 305 25 87 0 76 -1 -80 -13z m-582 -1 c-13
-2 -33 -2 -45 0 -13 2 -3 4 22 4 25 0 35 -2 23 -4z m1232 -14 c-71 -14 -133
-18 -295 -17 -113 1 -191 3 -173 5 54 7 435 30 498 30 l60 1 -90 -19z m-1950
2 c-11 -9 -146 -33 -153 -27 -2 2 16 11 40 19 46 17 128 23 113 8z m988 -8
c-13 -2 -35 -2 -50 0 -16 2 -5 4 22 4 28 0 40 -2 28 -4z m435 -50 c-103 -2
-274 -2 -380 0 -106 1 -22 2 187 2 209 0 296 -1 193 -2z m-1332 -40 c-3 -4
-91 -26 -194 -49 -177 -39 -198 -42 -397 -48 -240 -7 -239 -3 20 55 120 27
168 33 340 39 110 3 209 7 219 8 11 1 16 -1 12 -5z m1256 -4 c-10 -8 -264 -37
-387 -44 -55 -3 -244 -10 -420 -15 -176 -6 -387 -13 -470 -16 -82 -4 -148 -4
-145 -1 3 3 75 20 160 38 139 30 177 34 370 39 291 7 901 6 892 -1z"/>
<path d="M2123 4723 c15 -2 37 -2 50 0 12 2 0 4 -28 4 -27 0 -38 -2 -22 -4z"/>
<path d="M10835 4404 l-350 -33 -1264 0 -1263 -1 7 -27 c4 -16 8 -30 10 -32 2
-2 131 2 287 8 316 12 1708 13 1613 1 -302 -40 -439 -45 -1172 -42 -622 3
-723 1 -723 -11 0 -23 55 -27 419 -27 189 0 342 -2 340 -4 -2 -2 -170 -9 -374
-16 -203 -7 -373 -14 -377 -16 -4 -3 -5 -11 -1 -19 4 -13 68 -15 451 -15 245
0 443 -2 440 -5 -3 -3 -81 -14 -174 -25 -146 -17 -207 -19 -441 -13 l-273 6 0
-21 c0 -21 4 -22 123 -23 l122 -1 -125 -17 c-105 -13 -125 -19 -128 -34 -3
-15 1 -17 30 -13 93 15 483 57 553 59 44 1 127 0 185 -2 l105 -3 -150 -24
c-107 -16 -231 -26 -434 -33 -196 -8 -287 -15 -292 -23 -10 -15 -22 -99 -15
-105 3 -3 139 11 303 31 292 36 305 36 643 35 190 0 341 -2 335 -5 -5 -2 -174
-24 -375 -48 -201 -25 -495 -61 -654 -81 -159 -20 -293 -38 -297 -41 -5 -3 -9
-11 -9 -19 0 -7 -11 -33 -25 -56 -14 -24 -25 -46 -25 -49 0 -3 186 -4 412 -3
227 2 406 -1 398 -6 -32 -18 -339 -63 -608 -90 -234 -23 -286 -31 -300 -45
-16 -17 -13 -18 68 -13 l85 6 -102 -22 c-82 -18 -105 -27 -121 -47 l-20 -25
337 2 336 1 -110 -19 c-96 -18 -140 -20 -351 -15 -215 4 -244 3 -265 -12 -23
-16 -18 -17 126 -22 l150 -5 -80 -13 c-44 -7 -123 -16 -175 -19 -85 -5 -100
-9 -137 -36 -24 -17 -43 -32 -43 -35 0 -2 15 -2 33 2 145 26 798 58 861 42 30
-7 34 -22 9 -30 -40 -12 -610 -46 -780 -46 l-181 0 -89 -42 -88 -43 225 -5
225 -5 -285 -58 -285 -57 -555 2 c-431 2 -543 5 -500 14 l55 11 -50 8 c-36 6
-90 2 -195 -14 -126 -18 -393 -30 -379 -17 13 13 213 40 334 45 l140 6 -85 22
c-73 19 -95 21 -155 13 -73 -10 -290 -12 -266 -3 7 3 70 13 138 22 l126 16
-82 34 -82 34 -142 -17 c-118 -13 -240 -16 -717 -15 l-575 1 335 38 c284 32
383 39 653 46 174 4 317 9 317 12 0 12 -38 32 -65 33 -19 1 -23 3 -12 6 18 5
17 6 -2 20 -19 13 -39 13 -176 -2 -85 -9 -160 -15 -166 -13 -7 2 55 12 136 21
82 10 151 20 154 23 3 3 -1 10 -9 15 -18 12 -34 10 -415 -36 l-290 -35 -590 1
c-324 0 -585 2 -580 4 6 3 215 31 465 65 l455 60 440 0 c439 1 440 1 416 20
-22 19 -40 20 -275 21 l-251 1 200 28 c110 16 209 29 220 29 17 1 16 4 -10 30
l-30 30 -350 -24 c-192 -13 -408 -30 -480 -36 -90 -9 -461 -13 -1215 -15
l-1085 -2 305 38 c168 21 400 50 516 64 l211 26 1026 0 c908 0 1026 2 1021 15
-5 13 -111 15 -853 17 l-846 3 838 5 839 5 -21 25 c-27 33 -34 42 -47 66 -10
17 -26 20 -145 24 l-134 5 123 9 c67 4 122 10 122 12 0 2 -12 27 -27 54 -27
48 -30 50 -63 46 -107 -15 -588 -16 -1095 -2 -897 25 -1327 20 -1706 -20 -85
-9 -243 -19 -351 -21 l-198 -5 6 -27 c4 -14 9 -29 13 -33 3 -4 53 -9 111 -11
l105 -3 -106 -2 -106 -2 21 -77 22 -78 554 -5 c305 -3 548 -6 540 -8 -33 -5
-920 -112 -982 -118 -38 -4 -68 -8 -68 -9 0 -1 7 -19 15 -39 l15 -36 1233 -2
1232 -3 -210 -28 c-115 -16 -329 -44 -475 -62 l-265 -35 -732 0 c-403 0 -733
-3 -733 -7 1 -32 16 -33 565 -35 l549 -3 -305 -38 c-274 -34 -326 -38 -533
-37 -204 0 -227 -2 -222 -16 3 -9 6 -18 6 -20 0 -2 21 -5 48 -5 33 -2 38 -3
17 -6 -41 -6 -48 -16 -34 -46 l12 -27 266 -1 c302 -2 291 -12 -28 -28 -112 -6
-206 -13 -209 -16 -3 -3 0 -11 6 -17 11 -11 205 -2 941 44 161 11 249 9 685
-11 276 -12 544 -25 596 -29 l95 -6 -70 -12 c-53 -10 -337 -13 -1153 -13
-1079 -1 -1083 -1 -1072 -21 11 -20 23 -20 933 -22 l922 -3 -250 -40 -250 -40
-647 -3 c-558 -3 -646 -5 -641 -18 4 -12 67 -14 411 -14 223 0 403 -2 401 -4
-2 -2 -168 -18 -369 -36 -201 -17 -371 -34 -379 -36 -13 -4 -13 -7 0 -19 13
-13 40 -12 219 5 202 19 267 24 259 16 -5 -5 -305 -45 -392 -52 -66 -5 -67 -6
-52 -26 12 -18 25 -21 77 -21 l63 0 -57 -4 c-32 -2 -58 -8 -58 -12 0 -5 9 -20
21 -35 18 -23 28 -26 87 -27 l67 -1 -52 -17 c-54 -16 -72 -41 -30 -41 13 0 63
13 112 30 l89 30 240 -1 c218 -1 238 -2 208 -15 -60 -26 -451 -73 -616 -74
-25 0 -27 -2 -15 -16 12 -15 31 -16 154 -10 77 3 158 9 180 11 36 5 33 3 -27
-22 -36 -16 -70 -32 -74 -36 -4 -4 -47 -7 -96 -7 -86 0 -88 -1 -76 -20 12 -19
24 -20 248 -21 l235 -1 -120 -18 c-66 -10 -164 -19 -218 -19 l-99 -1 33 -41
32 -41 1481 6 c815 3 1535 8 1601 11 l120 5 -100 -32 -100 -31 -1470 -7 c-808
-4 -1471 -7 -1472 -8 -1 -1 0 -8 2 -15 4 -10 278 -12 1383 -9 861 2 1371 -1
1362 -7 -20 -12 -425 -38 -810 -51 -173 -6 -416 -15 -540 -20 -124 -5 -460
-17 -748 -27 -287 -9 -522 -20 -522 -24 0 -4 7 -12 15 -19 11 -9 71 -9 267 -1
139 6 341 13 448 15 l195 5 -170 -14 c-241 -19 -625 -38 -668 -33 -43 5 -46
-1 -15 -29 22 -19 30 -20 123 -12 127 10 1589 9 1515 -1 -30 -5 -116 -13 -190
-20 -74 -6 -198 -17 -275 -25 -77 -7 -291 -16 -475 -20 -184 -3 -395 -8 -468
-12 -120 -5 -130 -7 -111 -21 17 -12 67 -13 327 -8 169 3 303 4 297 1 -24 -10
-330 -49 -434 -54 l-115 -6 75 -57 75 -58 224 -2 225 -3 -84 -28 c-47 -15
-122 -31 -168 -35 l-85 -7 65 -38 c63 -37 64 -37 183 -38 141 -2 372 -14 329
-18 -16 -1 -106 -8 -200 -15 l-170 -13 119 -57 c110 -53 124 -57 165 -51 66
10 1692 18 1901 9 l175 -7 -180 -38 -180 -38 -790 -1 c-737 -2 -788 -3 -755
-18 31 -14 90 -16 475 -16 263 1 402 -2 345 -6 -52 -4 -144 -8 -203 -9 -71 -1
-120 -6 -144 -16 -25 -10 -74 -15 -162 -16 l-126 -1 50 -18 c30 -11 78 -19
120 -19 88 -1 226 -22 219 -33 -3 -4 -23 -8 -45 -8 -62 0 -45 -15 38 -34 78
-18 78 -18 219 8 l142 26 718 -1 719 -1 -140 -24 c-177 -30 -505 -67 -840 -94
-143 -12 -261 -23 -263 -24 -3 -4 201 -32 363 -51 71 -8 206 -16 300 -16 94
-1 154 -5 135 -9 -33 -6 -33 -7 -10 -13 98 -25 1100 -36 1437 -17 314 19 842
78 882 100 8 4 -49 10 -125 14 -76 4 -159 10 -184 13 l-45 7 80 13 c189 31
186 31 675 68 190 15 311 35 335 57 6 5 -6 7 -30 3 -82 -12 -228 -11 -232 3
-4 9 32 12 159 12 129 0 176 4 219 17 l54 18 -85 5 -85 5 145 18 c129 16 269
51 256 64 -6 6 -368 -41 -523 -68 -61 -10 -147 -18 -190 -18 -72 1 -65 3 82
20 88 10 293 40 455 66 290 46 297 47 395 94 91 44 263 135 275 146 4 4 -10 3
-357 -22 -212 -16 -908 -20 -823 -5 25 4 243 38 485 75 412 62 455 67 677 74
183 5 240 10 254 21 15 14 10 16 -57 21 l-74 5 84 2 c76 2 89 5 133 33 27 17
47 33 45 36 -2 2 -46 -3 -98 -12 -76 -12 -382 -21 -329 -9 8 1 119 15 246 30
179 21 237 31 255 45 l24 19 -27 0 c-15 0 -60 -5 -100 -10 -40 -6 -220 -28
-400 -50 -295 -36 -349 -40 -550 -39 l-223 0 100 30 c98 29 174 39 706 89 59
6 151 17 205 25 55 8 158 15 229 15 104 0 135 3 154 16 18 13 20 18 10 25 -10
6 -7 9 10 9 15 0 48 25 98 73 l75 72 -94 5 -93 5 73 23 c40 13 96 26 125 29
40 4 60 13 85 36 17 17 32 33 32 36 0 4 -44 5 -97 4 -115 -3 -100 8 36 27 85
12 99 17 133 48 21 19 38 38 38 43 0 5 -60 9 -132 9 -123 1 -331 20 -343 32
-3 2 115 10 263 17 l267 12 27 32 27 32 -232 6 c-128 4 -284 8 -347 9 l-115 3
95 13 c52 7 135 13 183 13 57 1 93 5 101 14 8 7 92 22 202 36 121 14 194 28
203 37 8 7 12 16 9 19 -3 3 -126 -10 -274 -29 -261 -33 -283 -34 -729 -40
-253 -4 -471 -8 -485 -10 -14 -2 -266 -7 -560 -11 -1001 -12 -1514 -24 -1843
-45 -180 -12 -340 -20 -355 -18 -17 2 27 18 118 42 l145 39 1125 2 c1207 1
1250 2 2175 70 110 8 313 15 450 15 l250 1 23 36 c12 19 21 38 18 40 -2 3 -80
-3 -173 -13 -123 -12 -276 -18 -573 -20 -299 -1 -375 0 -290 7 514 40 702 61
945 105 77 14 150 32 163 40 25 16 30 39 7 30 -8 -3 -75 -17 -148 -30 -562
-106 -1178 -139 -2847 -151 l-665 -5 60 22 c58 21 79 22 665 28 438 5 656 11
790 24 102 9 286 25 410 37 419 37 1016 99 1156 119 108 15 194 20 385 20
l247 0 21 40 21 40 -328 1 c-366 2 -327 12 95 24 210 7 253 10 258 23 3 8 4
17 1 19 -2 2 -131 -1 -287 -7 -254 -9 -399 -18 -839 -50 -162 -12 -407 -11
-365 1 17 5 104 25 195 45 91 19 238 53 328 75 l163 39 429 0 c406 0 460 3
436 27 -3 3 -162 8 -353 11 l-348 5 105 34 c73 23 112 41 128 59 l23 26 260 6
c208 4 259 8 259 18 0 11 -28 14 -132 14 -72 0 -129 2 -126 5 2 3 63 10 134
16 133 12 154 18 154 50 0 18 -20 19 -617 20 l-618 0 75 19 c139 35 184 39
615 50 587 15 579 14 584 36 3 16 -10 17 -195 11 -110 -4 -300 -9 -424 -12
l-225 -4 73 18 c79 21 150 29 539 63 l262 22 10 28 10 28 -107 1 c-85 1 -101
3 -77 11 17 5 66 12 109 16 78 7 80 8 87 36 5 17 7 31 6 32 -1 1 -63 -4 -137
-12 -74 -7 -162 -13 -195 -12 -34 0 24 9 135 20 107 11 198 23 202 26 7 7 22
102 16 102 -2 0 -19 -5 -38 -10 -145 -43 -272 -58 -715 -80 -196 -10 -307 -15
-1000 -45 -192 -8 -531 -14 -780 -14 l-440 1 660 84 660 83 831 1 832 0 6 31
c3 17 6 35 6 40 0 5 -218 9 -492 10 l-493 1 380 48 c209 27 435 51 502 55
l121 7 4 30 5 30 -81 -6 c-168 -12 -523 -28 -566 -24 -25 1 109 17 298 34 188
17 344 33 346 35 2 2 7 30 11 61 7 54 6 57 -16 61 -24 4 -24 4 -1 6 18 1 22 7
22 31 0 30 -1 30 -52 29 -29 -1 -210 -16 -403 -35z m128 -31 c-13 -2 -33 -2
-45 0 -13 2 -3 4 22 4 25 0 35 -2 23 -4z m-475 -49 c-8 -8 -350 -34 -423 -32
-70 1 -51 4 145 22 158 15 287 19 278 10z m612 -5 l95 -2 -65 -7 c-67 -8 -457
-11 -430 -4 37 10 200 22 250 18 30 -2 98 -4 150 -5z m-1125 -90 c-71 -10
-195 -21 -275 -23 l-145 -5 110 15 c159 21 279 31 365 32 73 0 72 -1 -55 -19z
m-486 6 c-11 -10 -287 -35 -377 -34 -111 2 -100 5 93 23 144 14 292 20 284 11z
m956 -16 c-126 -20 -504 -37 -410 -18 67 13 361 36 455 36 l75 1 -120 -19z
m-1000 -57 c-10 -9 -131 -27 -280 -41 -44 -5 -129 -5 -190 -2 l-110 6 185 21
c190 22 411 31 395 16z m394 -6 c-4 -4 -188 -26 -328 -40 -94 -9 -44 8 72 25
103 15 266 25 256 15z m506 -67 l-380 -48 -310 2 -310 2 220 23 c214 23 934
69 1085 70 50 0 -50 -16 -305 -49z m-1190 -19 c-22 -4 -76 -10 -120 -13 l-80
-6 80 13 c44 7 98 13 120 13 l40 1 -40 -8z m-212 -27 c-7 -2 -21 -2 -30 0 -10
3 -4 5 12 5 17 0 24 -2 18 -5z m525 -50 c-43 -2 -113 -2 -155 0 -43 1 -8 3 77
3 85 0 120 -2 78 -3z m1445 0 c-177 -2 -469 -2 -650 0 -180 1 -35 2 322 2 358
0 505 -1 328 -2z m-7556 -103 c87 0 132 -4 128 -10 -4 -7 -239 -10 -672 -10
-367 0 -664 2 -661 5 11 12 485 23 772 19 165 -2 360 -4 433 -4z m938 -86
c-104 -9 -288 -13 -600 -11 l-450 2 435 11 c239 6 509 11 600 11 l165 0 -150
-13z m6055 -4 c-14 -4 -63 -8 -110 -7 l-85 1 90 6 c133 9 134 9 105 0z m-1190
-61 c-19 -4 -75 -11 -125 -14 -159 -11 -850 -23 -858 -15 -4 4 88 10 205 15
117 4 283 11 368 15 228 10 453 10 410 -1z m568 4 c-43 -2 -113 -2 -155 0 -43
1 -8 3 77 3 85 0 120 -2 78 -3z m635 0 c-18 -2 -48 -2 -65 0 -18 2 -4 4 32 4
36 0 50 -2 33 -4z m502 -9 c-31 -9 -116 -16 -220 -18 -93 -3 -156 -2 -140 1
48 8 306 30 360 31 l50 0 -50 -14z m-627 -1 c-15 -2 -42 -2 -60 0 -18 2 -6 4
27 4 33 0 48 -2 33 -4z m-135 -10 c-7 -2 -21 -2 -30 0 -10 3 -4 5 12 5 17 0
24 -2 18 -5z m-8150 -20 c-29 -2 -78 -2 -110 0 -32 2 -8 3 52 3 61 0 87 -1 58
-3z m270 0 c-40 -2 -106 -2 -145 0 -40 1 -8 3 72 3 80 0 112 -2 73 -3z m435 0
c-64 -2 -172 -2 -240 0 -68 1 -15 3 117 3 132 0 187 -2 123 -3z m240 0 c-21
-2 -57 -2 -80 0 -24 2 -7 4 37 4 44 0 63 -2 43 -4z m244 0 c-40 -2 -103 -2
-140 0 -37 2 -4 3 73 3 77 0 107 -2 67 -3z m841 0 c-56 -2 -151 -2 -210 0 -59
1 -13 3 102 3 116 0 164 -2 108 -3z m225 0 c-21 -2 -57 -2 -80 0 -24 2 -7 4
37 4 44 0 63 -2 43 -4z m160 0 c-21 -2 -57 -2 -80 0 -24 2 -7 4 37 4 44 0 63
-2 43 -4z m135 0 c-18 -2 -48 -2 -65 0 -18 2 -4 4 32 4 36 0 50 -2 33 -4z
m275 0 c-42 -2 -114 -2 -160 0 -46 1 -11 3 77 3 88 0 125 -2 83 -3z m139 1
c-3 -3 -12 -4 -19 -1 -8 3 -5 6 6 6 11 1 17 -2 13 -5z m5623 -45 c-69 -18
-181 -31 -505 -59 -66 -6 -298 -26 -515 -45 -360 -32 -560 -44 -1245 -75 -126
-6 -264 -13 -305 -16 -41 -4 -73 -4 -70 -1 3 3 115 26 250 51 192 36 341 55
690 90 245 25 495 48 555 52 99 6 794 20 1100 21 l120 1 -75 -19z m349 17 c-2
-2 -40 -6 -84 -9 -46 -3 -69 -2 -55 3 24 8 147 14 139 6z m-8326 -13 c-182 -2
-484 -2 -670 0 -186 1 -37 2 332 2 369 0 521 -1 338 -2z m6324 -19 c-3 -3 -12
-4 -19 -1 -8 3 -5 6 6 6 11 1 17 -2 13 -5z m1270 -75 c-18 -11 -286 -34 -294
-25 -3 2 24 7 59 10 35 4 101 10 148 15 47 5 90 9 95 9 6 1 2 -3 -8 -9z
m-5328 -43 c-2 -2 -108 -18 -236 -35 -208 -28 -256 -31 -470 -30 l-238 2 245
17 c135 10 328 23 430 30 102 6 190 13 195 15 14 5 79 6 74 1z m5049 -21 c-3
-3 -59 -14 -124 -25 -104 -17 -165 -19 -489 -18 -430 1 -383 10 171 32 426 17
448 17 442 11z m-658 -111 c-132 -23 -144 -24 -490 -17 l-355 7 100 17 c82 13
172 16 490 17 l390 0 -135 -24z m1595 21 c-5 -2 -104 -13 -220 -25 -168 -17
-262 -20 -470 -18 -236 3 -255 4 -205 16 96 22 236 29 575 30 182 0 326 -1
320 -3z m-1065 -26 c-75 -16 -236 -26 -202 -12 27 10 178 31 232 31 l55 0 -85
-19z m-961 -55 c2 -2 -157 -4 -355 -3 -197 1 -348 5 -334 9 23 8 680 1 689 -6z
m1711 -9 c0 -9 -72 -35 -212 -75 l-140 -40 -266 1 -267 1 255 44 c140 24 302
50 360 58 103 14 270 21 270 11z m-795 -60 l-310 -54 -220 1 -220 0 190 28
c105 15 240 37 300 48 153 29 147 29 370 29 l200 1 -310 -53z m-376 41 c-5 -6
-172 -30 -419 -63 -178 -23 -553 -43 -540 -30 5 5 579 79 695 90 60 5 269 8
264 3z m-4366 -13 c-7 -2 -19 -2 -25 0 -7 3 -2 5 12 5 14 0 19 -2 13 -5z
m3597 -2 c-25 -14 -140 -24 -140 -13 0 10 25 13 130 20 18 1 21 -1 10 -7z
m-4430 -50 c-8 -5 -40 -11 -70 -14 -30 -3 -152 -17 -270 -31 -211 -26 -226
-26 -780 -24 l-565 3 280 36 280 37 570 1 c314 0 563 -3 555 -8z m3713 -78
c-40 -2 -107 -2 -150 0 -43 1 -10 3 72 3 83 0 118 -2 78 -3z m777 -79 c-459
-77 -629 -98 -590 -73 8 5 65 37 125 71 l110 60 125 13 c69 7 260 13 425 13
l300 0 -495 -84z m1230 55 c-63 -15 -223 -52 -355 -81 l-240 -53 -440 -2
c-242 -1 -434 0 -428 3 7 3 221 41 475 84 l463 78 320 0 320 0 -115 -29z
m-1680 -7 c0 -5 -53 -35 -117 -68 l-118 -59 -310 -2 c-202 -1 -300 2 -280 8
17 5 143 32 280 60 191 40 282 53 385 59 74 4 141 7 148 8 6 1 12 -2 12 -6z
m-5001 -6 c-3 -3 -61 -12 -129 -20 -97 -12 -250 -17 -677 -18 -303 -2 -549 -1
-546 2 2 3 59 12 126 21 100 14 224 17 676 18 305 1 552 -1 550 -3z m1326 -7
c367 -1 378 -2 310 -17 -58 -12 -197 -16 -840 -19 -423 -2 -767 -2 -764 1 4 4
64 12 289 40 19 2 168 2 330 0 162 -2 466 -4 675 -5z m795 -14 c-115 -18 -287
-30 -277 -20 9 11 212 33 297 33 l65 -1 -85 -12z m-895 -68 c-35 -13 -498 -12
-640 2 -66 6 11 8 290 9 292 0 373 -2 350 -11z m434 8 c-5 -4 -156 -26 -289
-41 -97 -12 -45 8 72 26 108 17 227 25 217 15z m540 1 c-17 -17 -522 -58 -507
-41 13 14 265 43 387 44 68 1 122 -1 120 -3z m-959 -168 l-185 -40 -305 -4
c-189 -2 -295 0 -280 6 14 5 133 18 265 30 132 11 305 27 385 34 80 8 181 14
225 14 l80 0 -185 -40z m565 1 c-181 -31 -268 -41 -405 -45 -96 -4 -172 -3
-168 1 4 4 90 25 190 45 178 37 189 38 398 38 l215 0 -230 -39z m1620 16 c-60
-13 -144 -33 -185 -44 -72 -20 -95 -21 -765 -20 -392 0 -681 4 -670 9 11 5
117 24 235 43 l215 35 640 0 640 0 -110 -23z m985 19 c-8 -2 -166 -20 -350
-40 -327 -35 -734 -57 -717 -38 5 5 88 25 185 45 l177 37 360 0 c198 0 353 -2
345 -4z m2350 -15 c-216 -24 -861 -85 -1140 -109 -69 -6 -174 -15 -235 -21
-60 -6 -344 -13 -630 -15 -450 -4 -517 -3 -495 10 63 35 144 46 560 76 438 32
915 67 985 73 22 2 283 4 580 4 l540 1 -165 -19z m-1650 1 c0 -5 -23 -10 -51
-10 -28 0 -103 -4 -167 -10 -311 -25 -394 -31 -398 -27 -2 2 24 15 58 29 62
25 69 26 311 27 158 1 247 -3 247 -9z m-709 -42 c-37 -17 -73 -21 -195 -26
-83 -2 -148 -1 -144 2 6 7 304 43 358 44 20 0 16 -4 -19 -20z m-3612 -62 c-10
-10 -299 -47 -474 -61 -104 -8 -308 -24 -453 -35 -145 -12 -289 -20 -320 -18
l-57 3 95 23 c52 13 196 38 320 56 219 33 234 34 559 35 184 1 332 -1 330 -3z
m476 -1 c-5 -2 -165 -30 -355 -61 -335 -55 -352 -57 -580 -61 -280 -6 -298 8
-35 26 193 14 372 37 580 75 95 17 166 24 265 24 74 0 131 -1 125 -3z m1784
-5 c-57 -34 -134 -40 -469 -40 -185 0 -417 -4 -516 -10 -503 -28 -743 -41
-984 -55 -146 -8 -274 -15 -285 -14 -44 2 22 14 360 70 l350 57 780 1 c497 0
774 -3 764 -9z m201 -1 c-25 -4 -58 -8 -75 -8 -26 0 -27 2 -10 9 11 5 45 8 75
8 l55 -1 -45 -8z m940 -12 c-44 -22 -55 -22 -480 -23 -239 -1 -424 1 -410 3
128 25 374 41 640 41 l295 1 -45 -22z m-4923 -43 c-3 -3 -12 -4 -19 -1 -8 3
-5 6 6 6 11 1 17 -2 13 -5z m163 -30 c-58 -18 -96 -23 -165 -23 l-90 1 135 23
c180 30 215 30 120 -1z m3078 11 c-2 -3 -87 -14 -188 -25 -142 -16 -250 -20
-483 -20 -165 0 -298 2 -296 4 2 2 155 11 339 20 184 9 358 18 385 19 94 6
248 7 243 2z m1467 -4 c-6 -4 -37 -15 -71 -25 -52 -14 -127 -16 -564 -16 -277
0 -501 2 -498 5 3 3 29 14 59 25 51 18 85 19 569 20 283 0 510 -4 505 -9z
m-1225 -26 c-21 -8 -73 -13 -130 -13 -52 0 -88 2 -80 4 25 7 162 21 205 22
l40 0 -35 -13z m-2740 -71 c-206 -19 -815 -28 -780 -13 49 22 140 26 535 26
l400 0 -155 -13z m890 -1 c-92 -12 -687 -28 -620 -17 65 12 422 31 565 31
l160 0 -105 -14z m1650 -1 c-31 -15 -83 -17 -415 -18 -266 -1 -360 1 -315 8
72 10 422 24 630 25 133 1 135 1 100 -15z m1075 -4 c-69 -23 -76 -23 -645 -20
l-385 3 50 19 c46 17 86 18 545 18 l495 0 -60 -20z m2655 7 c-375 -25 -668
-36 -1115 -42 -421 -5 -1491 4 -1482 14 3 2 33 12 68 22 61 18 132 19 1394 18
1171 0 1307 -1 1135 -12z m-7165 -15 c-3 -6 -41 -9 -83 -8 l-77 2 70 6 c39 4
76 7 83 8 7 1 10 -2 7 -8z m2238 -7 c-46 -2 -120 -2 -165 0 -46 1 -9 3 82 3
91 0 128 -2 83 -3z m-963 -49 c-8 -2 -211 -37 -450 -78 -342 -59 -466 -77
-580 -82 -97 -4 -142 -3 -135 3 6 6 68 30 140 53 104 35 173 49 355 76 202 29
248 32 455 32 127 0 223 -2 215 -4z m630 0 c-8 -2 -289 -40 -625 -84 -538 -70
-719 -90 -704 -76 5 5 511 94 764 135 156 25 207 29 380 29 110 0 193 -2 185
-4z m1339 1 c-9 -9 -297 -109 -394 -136 l-100 -29 -885 1 c-487 1 -874 4 -860
6 14 3 286 40 605 83 l580 78 529 1 c291 0 527 -1 525 -4z m1030 0 c-3 -2 -88
-26 -189 -54 l-185 -49 -275 -16 c-413 -24 -598 -36 -665 -40 -72 -6 -78 -8
190 88 l210 75 459 0 c253 1 457 -1 455 -4z m3201 -39 c0 -10 -219 -26 -425
-30 -164 -3 -209 -1 -155 5 163 19 580 37 580 25z m-1080 -27 c-52 -4 -302
-24 -555 -44 -253 -20 -514 -40 -580 -45 -66 -5 -415 -9 -775 -9 -566 1 -649
3 -610 15 66 19 803 64 1250 75 674 16 1428 21 1270 8z m539 -43 c-2 -3 -68
-12 -146 -20 -155 -17 -490 -21 -378 -4 102 15 535 35 524 24z m761 -6 c-100
-9 -630 -21 -615 -15 32 15 183 22 425 22 188 0 248 -2 190 -7z m-1507 -7 c-7
-2 -19 -2 -25 0 -7 3 -2 5 12 5 14 0 19 -2 13 -5z m-148 -19 c-60 -8 -146 -13
-190 -11 -76 2 -74 2 55 13 197 16 271 15 135 -2z m-2325 -14 c-8 -5 -53 -9
-100 -8 l-85 2 85 6 c47 3 92 7 100 8 13 2 13 1 0 -8z m-1170 -61 c-138 -11
-1298 -30 -1770 -28 l-405 2 115 17 c104 16 217 17 1135 17 573 0 978 -3 925
-8z m4938 -36 c-245 -2 -650 -2 -900 0 -249 1 -48 2 447 2 495 0 699 -1 453
-2z m-2903 -44 c-44 -4 -201 -12 -350 -18 -657 -27 -975 -41 -1044 -46 -41 -3
-72 -3 -69 0 3 3 48 18 99 32 87 25 113 27 364 33 400 9 1096 9 1000 -1z
m3195 -12 c-101 -20 -146 -20 -1174 -24 -589 -2 -1068 -1 -1065 2 24 23 214
29 1149 35 547 3 1040 6 1095 6 l100 2 -105 -21z m-2440 -8 c-98 -12 -199 -17
-365 -17 -126 0 -223 2 -215 4 67 19 260 31 470 31 l245 0 -135 -18z m-1292
-46 c-10 -2 -26 -2 -35 0 -10 3 -2 5 17 5 19 0 27 -2 18 -5z m-160 -10 c-16
-2 -40 -2 -55 0 -16 2 -3 4 27 4 30 0 43 -2 28 -4z m790 0 c-21 -2 -55 -2 -75
0 -21 2 -4 4 37 4 41 0 58 -2 38 -4z m2139 0 c-290 -2 -764 -2 -1055 0 -290 1
-52 2 528 2 580 0 818 -1 527 -2z m941 0 c-21 -2 -57 -2 -80 0 -24 2 -7 4 37
4 44 0 63 -2 43 -4z m-3518 -44 c-161 -24 -433 -39 -695 -37 -314 2 -313 2 55
27 272 19 746 26 640 10z m2460 0 c-382 -25 -1027 -39 -1705 -38 -396 1 -706
4 -690 6 17 2 120 12 230 22 178 16 314 18 1245 18 635 0 996 -3 920 -8z
m1020 -17 c-37 -13 -98 -16 -335 -18 -198 -2 -275 1 -244 7 49 10 368 26 529
27 l95 0 -45 -16z m-877 -19 c-7 -2 -21 -2 -30 0 -10 3 -4 5 12 5 17 0 24 -2
18 -5z m-3553 -49 c-14 -2 -133 -13 -265 -24 -132 -11 -312 -27 -399 -35 -88
-8 -189 -15 -225 -14 l-66 0 135 39 135 39 355 -1 c195 -1 344 -2 330 -4z
m1415 -9 c-115 -7 -302 -18 -415 -25 -113 -6 -266 -16 -340 -21 -161 -12
-1092 -21 -975 -9 44 4 141 13 215 19 74 7 223 21 330 30 163 16 294 19 795
18 590 0 596 0 390 -12z m1650 -22 l-200 -36 -940 -2 c-517 -1 -886 1 -820 5
66 4 215 13 330 20 116 7 343 20 505 30 211 12 441 17 810 18 l515 0 -200 -35z
m1094 33 c-5 -5 -535 -34 -894 -50 l-100 -5 160 29 c153 26 175 28 499 29 187
0 337 -1 335 -3z m-5060 -20 c-2 -2 -47 -16 -100 -30 -94 -25 -104 -26 -370
-25 -301 2 -303 1 146 38 234 19 332 24 324 17z m5420 -20 c-2 -2 -96 -6 -209
-9 -113 -3 -192 -2 -175 2 29 8 392 15 384 7z m-6461 -23 c-10 -2 -28 -2 -40
0 -13 2 -5 4 17 4 22 1 32 -1 23 -4z m5832 -4 c-25 -4 -110 -7 -190 -6 l-145
1 105 6 c58 3 143 6 190 7 72 0 78 -1 40 -8z m-5955 -9 c-27 -5 -75 -8 -105
-8 -49 1 -51 1 -20 8 19 4 67 7 105 7 70 0 70 0 20 -7z m1514 -44 c-2 -2 -132
-11 -289 -20 -157 -9 -319 -18 -360 -21 -136 -9 -37 15 120 29 134 12 539 21
529 12z m2760 0 c-7 -7 -445 -45 -644 -56 -466 -25 -722 -34 -2195 -75 -487
-14 -924 -26 -973 -28 -48 -2 -84 0 -80 3 5 4 62 21 128 38 111 29 143 33 420
47 295 15 603 33 1040 59 154 9 533 14 1264 15 574 0 1042 -1 1040 -3z m1469
-2 c-4 -3 -66 -21 -138 -39 -155 -40 -465 -86 -770 -115 -118 -11 -282 -27
-365 -35 -119 -12 -296 -15 -855 -13 -388 0 -689 3 -670 5 33 3 903 81 1165
104 66 5 170 17 231 26 61 8 372 28 690 43 632 30 720 33 712 24z m529 0 c-7
-7 -468 -36 -474 -30 -2 2 22 10 54 19 41 11 112 15 242 16 101 1 181 -2 178
-5z m-5809 -89 c-3 -3 -61 -21 -129 -39 -174 -48 -480 -69 -699 -47 -62 6 -53
8 175 40 225 33 374 45 574 49 46 1 82 0 79 -3z m2412 -41 c-8 -2 -137 -19
-285 -39 l-271 -35 -959 1 c-986 2 -1054 8 -305 28 223 6 563 16 755 22 753
23 854 26 965 26 63 0 108 -1 100 -3z m2250 -38 c0 -3 -25 -12 -55 -21 -38
-11 -85 -15 -148 -13 l-92 3 125 16 c139 18 170 21 170 15z m-4151 -120 c-3
-3 -56 -14 -119 -26 -103 -18 -165 -21 -610 -25 l-495 -5 85 29 85 29 529 1
c291 1 527 -1 525 -3z m620 0 c-14 -15 -370 -46 -489 -44 l-135 3 115 21 c91
17 157 22 314 23 110 0 197 -1 195 -3z m2006 -7 c-28 -9 -1305 -29 -1710 -27
l-180 0 120 18 c107 16 212 18 960 18 541 0 829 -3 810 -9z m320 0 c-22 -4
-56 -8 -75 -7 l-35 1 35 7 c19 4 53 7 75 8 l40 0 -40 -9z m815 5 c-55 -7 -537
-9 -527 -2 7 4 134 7 282 6 149 0 259 -2 245 -4z m630 -30 c-55 -14 -880 -134
-918 -133 -42 0 -30 6 127 59 l174 60 236 8 c257 10 405 12 381 6z m-765 -23
c-6 -5 -80 -32 -165 -60 l-155 -51 -595 2 -595 3 305 43 c298 42 314 43 710
53 223 5 419 11 435 13 63 6 69 6 60 -3z m-3680 -30 c-12 -10 -172 -29 -310
-36 l-100 -5 70 16 c59 13 124 20 325 32 14 1 20 -2 15 -7z m-530 -22 c-81
-18 -118 -19 -365 -14 -402 8 -495 19 -220 25 118 3 319 6 445 6 l230 2 -90
-19z m2720 -5 c-33 -8 -111 -24 -173 -34 -107 -19 -166 -20 -925 -20 -446 0
-807 3 -804 6 6 7 379 20 1207 44 217 6 406 12 420 14 14 2 95 3 180 4 l155 0
-60 -14z m-1965 -83 c155 -7 119 -8 -225 -8 -351 0 -401 1 -350 12 61 12 184
12 575 -4z m4279 -65 c-2 -2 -132 -5 -289 -8 -157 -2 -247 -1 -200 2 94 7 496
12 489 6z m-3256 -56 c-40 -10 -96 -21 -125 -24 -33 -3 -14 4 52 18 123 28
178 32 73 6z m1200 10 c149 0 268 -2 265 -5 -2 -3 -72 -19 -154 -35 l-149 -30
-625 2 -625 3 165 37 165 38 344 -5 c189 -3 466 -5 614 -5z m959 -11 c-4 -4
-59 -16 -122 -28 -87 -16 -171 -22 -340 -26 l-225 -4 75 19 c174 46 199 49
412 47 114 -1 204 -5 200 -8z m808 5 c-107 -9 -722 -35 -726 -31 -3 3 37 11
88 20 68 11 170 15 383 14 160 0 274 -2 255 -3z m-265 -70 c-317 -50 -536 -74
-670 -72 l-130 1 150 7 c225 11 281 22 268 56 -4 11 8 14 58 15 35 1 123 5
194 8 72 4 164 8 205 8 71 1 67 0 -75 -23z m-1873 -164 c90 -18 100 -21 97
-25 -2 -2 -151 -28 -331 -59 -308 -53 -334 -56 -470 -54 l-143 3 350 71 c365
75 410 81 497 64z m241 3 c-13 -2 -35 -2 -50 0 -16 2 -5 4 22 4 28 0 40 -2 28
-4z m502 -9 c-27 -7 -93 -23 -146 -34 -92 -19 -100 -19 -187 -3 -51 9 -90 18
-87 21 17 17 142 30 295 30 166 0 173 0 125 -14z m615 0 c-80 -20 -650 -72
-679 -63 -7 3 81 21 196 41 183 32 228 36 373 36 160 0 163 -1 110 -14z m288
9 c-10 -2 -26 -2 -35 0 -10 3 -2 5 17 5 19 0 27 -2 18 -5z m-1353 -60 c79 -14
86 -17 60 -25 -68 -18 -262 -37 -435 -42 l-185 -5 135 25 c74 14 178 33 230
44 52 10 97 19 100 19 3 1 46 -6 95 -16z m-926 3 c-2 -3 -101 -23 -220 -45
-193 -37 -229 -41 -359 -40 -163 2 -153 4 145 34 88 9 214 24 280 34 129 20
161 23 154 17z m1606 -90 l150 -13 -320 0 c-329 0 -345 1 -165 16 143 11 163
11 335 -3z m-1460 -61 c-21 -7 -269 -12 -250 -4 11 4 74 8 140 8 66 -1 116 -2
110 -4z"/>
</g>
</svg>
