
<svg preserveAspectRatio="none" data-bbox="36.779 19.948 126.498 160.205" viewBox="36.779 19.948 126.498 160.205" height="266.668" width="266.668" xmlns="http://www.w3.org/2000/svg" data-type="color" role="presentation" aria-hidden="true" aria-label=""><defs><style>#comp-lyhrpv55 svg [data-color="1"] {fill: #FCFF66;}</style></defs>
  <g>
      <path fill="#ffffff" d="M149.809 62.893c-.237-.031-.53-.029-.764-.038-.283.341-.65.713-.73 1.147-.536.662-1.05 1.474-1.715 2.061a12 12 0 0 1-1.855 1.834c-.562.57-1.202 1.03-1.854 1.454-1.353.825-2.734 1.57-4.302 1.907-2.819.62-5.829.383-8.457-.886-.997-.255-1.96-.794-2.834-1.366-.315.017-.43-.248-.675-.41-.631-.146-1.242-.667-1.804-1.098a18 18 0 0 1-2.098-1.598c-.205-.193-.48-.241-.616-.495-.247-.123-.512-.251-.597-.52-.434-.206-.899-.665-1.17-1.066-.401-.363-.852-.66-1.113-1.124-.914-.745-1.547-1.682-2.223-2.606-.436-.351-.655-.802-.939-1.273-.463-.452-.703-1.01-1.006-1.55-.495-.503-.744-1.226-1.048-1.862-.616-.892-.928-1.906-1.447-2.863-.464-.905-.681-1.839-1.128-2.708-.122-.267.011-.528-.132-.78a.6.6 0 0 0 .023-.526c.286-.346.094-.938.518-1.183.101-.262.32-.424.377-.687a.52.52 0 0 0 .387-.357c.239-.164.527-.152.677-.407.431-.09.873-.109 1.281-.285.259.043.516.133.78.108-.009.202.213.026.313.063.143.137.326.149.512.125.183.224.489.191.761.215.448.214.985.307 1.514.44.147.105.316.155.494.18.128.155.31.184.498.171.155.25.472.205.69.394.66.306 1.325.466 1.87.944.188.22.455.084.587.366.161.349.375.921.018 1.204.176.129-.061.122-.148.23-.199.694-.788 1.135-1.113 1.779-.703 1.334-1.62 2.723-1.8 4.337-.191.26.021.516-.162.776.009.283.134.533.006.791.164 1.022.304 1.291.669 2.26.515.598.916 1.278 1.667 1.64.132.252.422.302.674.388.268.314.754.404 1.184.527 1.234.589 2.559.48 3.848.636.911-.082 1.757-.245 2.626-.27 3.178-.416 6.2-1.359 9.227-2.245.423-.157.891-.095 1.272-.32a.6.6 0 0 0 .527-.037c.172.048.356.047.531.024.241.12.498.276.767.227.236.237.516.492.797.688.192.182.146.647.52.532.247-.043.17-.304.076-.461-.068-.519-.43-1.05-.918-1.284-.263-.359-.697-.66-1.145-.657-.183-.226-.498-.261-.775-.199a4.7 4.7 0 0 0-2.161-.03c-.705.028-1.498 0-2.124.205-.177-.072-.345-.087-.522.012a.66.66 0 0 0-.518.067c-1.385-.021-2.733.129-4.17.157-1.696-.047-3.381-.116-5.034-.474-.384-.222-.933-.142-1.204-.549-.499-.04-.74-.444-.928-.842.058-.103.234-.346.208-.533.254-.264.23-.691.534-.895.204-.297.293-.679.588-.86a.62.62 0 0 1 .298-.427c.688-1.168 1.715-2.164 2.296-3.482.232-.3.267-.63.347-.982.229-.19.133-.476.21-.748.33-.824.027-1.744-.272-2.554-.157-.784-.902-1.545-1.482-2.125a.53.53 0 0 0-.399-.338c-.079-.181-.19-.307-.4-.337-.23-.27-.535-.456-.818-.668-1.801-1.061-3.646-1.602-5.6-2.3-.728-.029-1.332-.376-2.053-.485-.867-.213-1.779-.217-2.597-.524-.467-.108-.877.033-1.329-.127-.276-.066-.535-.159-.799-.052a.52.52 0 0 0-.528-.056c-1.248-.209-2.485-.189-3.716-.336-.796.2-1.587-.128-2.398.022-1.324-.048-2.719-.101-3.879-.767-2.736-1.658-5.458-3.417-6.984-6.349-.252-1.128-.738-2.207-.526-3.404.002-1.359.4-2.87 1.034-3.742.172-.677.738-1.215 1.187-1.71.231-.179.264-.467.553-.555.204-.186.317-.449.596-.508 1.151-1.111 2.599-1.757 4.036-2.39.274-.134.661-.162.846-.374-.011-.06-.092-.082-.155-.072-1.481.244-2.914.669-4.224 1.39-2.243 1.109-4.128 3.103-5.017 5.535-.043.603-.516 1.189-.421 1.825-.101.508-.203 1.06-.054 1.599-.151.506.015 1.082.144 1.591-.045.466.169 1.13.419 1.539.316.888.864 1.759 1.393 2.575.245.12.453.32.54.594.232.281.555.427.779.733.507.75 1.446 1.093 1.944 1.825.107.248.05.553-.033.786-.306.148-.684.352-1.008.224-.894.179-1.899.16-2.819.287-.302.151-.727.153-1.059.082-.339.119-.719.272-1.054.11-.863.286-1.777.146-2.614.401a.89.89 0 0 0-.786.1c-.282.052-.525-.089-.799.024-.999.179-1.909.333-2.879.469-.998.147-1.862.467-2.858.584a58 58 0 0 1-2.57.664c-.81.385-1.642.602-2.5.891-.453.274-.96.519-1.47.61a1.17 1.17 0 0 1-.672.408c-.246.043-.507.073-.745.146-.158-.08-.32-.13-.501-.071-.524-.044-.85-.518-1.291-.771a7.6 7.6 0 0 0-2.346-1.572c-.535-.367-1.318-.835-1.872-.907-.552-.223-1.677-.663-1.972-.671-.269.01-.54-.038-.767-.167-.345.038-.719.05-1.052-.034-.665.24-1.337.283-1.956.712a6.1 6.1 0 0 0-1.071 1.477c-.477 1.363-.545 2.822-.515 4.361.123 1.218.092 2.437.363 3.61.062.283-.073.534.116.768a.85.85 0 0 0 .122.784c-.057.194-.048.357.067.531a.85.85 0 0 0 .088.528c.052.666.31 1.405.269 2.128.232.428.14.884.277 1.312a.76.76 0 0 0 .129.523c-.079.269.059.528.14.79-.005.43.06.883.213 1.299-.009.267-.045.537.075.783-.007 1.108.159 2.11.125 3.137.02.44-.098.875-.007 1.311.082.298-.151.506-.008.787-.187.386-.146.845-.226 1.295.087.371-.132.676-.171 1.03.067.95-.477 1.861-.547 2.826-.079.361-.239.649-.399.971a.84.84 0 0 1-.083.525c-.331.583-.495 1.298-.864 1.908-.351.862-.798 2.081-1.613 2.596-.525.241-1.058.015-1.527-.18a.51.51 0 0 0-.381-.36.87.87 0 0 1-.356-.396c-.443-.121-.704-.555-1.097-.725-1.808-1.248-3.831-2.126-6.11-2.08-.46.291-1.138.096-1.516.416-.27.143-.553.02-.716.305a3.9 3.9 0 0 0-1.708 1.183c-.63.425-1.001 1.046-1.355 1.658-.604 1.13-1.115 2.289-1.471 3.482-.191.336-.331.611-.364 1.005-.117.262-.315.471-.25.762-.245.296-.106.731-.431.985.049.462-.25.823-.322 1.282-.03.438-.272.833-.384 1.261-.004.164.072.362-.025.534-.331.634-.22 1.434-.538 2.036-.047.879-.407 1.736-.304 2.615-.242.933-.162 1.989-.396 2.871.15.186.061.349-.034.525.121.377-.043.683-.046 1.053.078.176.043.351-.011.527.074.179.041.354-.022.527-.039.37.099.714-.005 1.053-.046.726.116 1.39.088 2.105-.081 1.053.235 2.125.12 3.157.129.251.024.514.07.787.173.227.136.52.082.785.19.615.054 1.34.263 2.084.18.854.044 1.539.305 2.082-.081.178-.076.339-.046.534.154.149.133.339.064.522.284.666.123 1.401.321 2.079.014 1.037.154 2.137.343 3.138-.078.179-.081.361.049.523.029.352-.06.716.052 1.051.155.418 0 .869.109 1.311.022.537.288 1.044.159 1.57.115.482.298 1.05.184 1.566.135.987.246 1.89.294 2.879.209.322 0 .702.101 1.046.107.249.176.536.064.786.237 1.946.44 3.855.563 5.76.113.232.13.545.054.788a.9.9 0 0 1 .13.516c.028.786.08 1.605.241 2.355-.173.579.103 1.236.119 1.838-.073.698.232 1.429.103 2.103.311.803.081 1.773.274 2.615-.087.305.171.504.014.79.167.478.123 1.05.129 1.57.171 1.782.342 3.656.35 5.486.213.946.103 1.905.223 2.874.018 1.033.148 2.077.052 3.144.057.915.164 1.949.028 2.884.022.457.163.911-.01 1.312.157.313.071.708-.008 1.051.017.356.016.702-.066 1.049.026.825-.093 1.505-.166 2.357-.057 1.88-.523 3.637-.831 5.45-.317.614-.392 1.361-.563 2.028-.396.469-.354 1.174-.681 1.711-.343.419-.329.998-.744 1.388-.151.323-.287.634-.527.903-.051.262-.163.549-.418.665a.43.43 0 0 1-.306.424 1.6 1.6 0 0 1-.315.416c-.153.498-.609.836-1.011 1.209-.58.457-1.021.96-1.655 1.359-.231.14-.462.284-.716.367-.161.1.024.496.198.443.128-.126.258-.244.451-.292 1.966-.642 3.67-2.182 4.987-3.784.899-.987 1.449-2.22 2.198-3.292.162-.427.328-.797.576-1.191.07-.543.402-.935.591-1.473.035-.346.108-.727.342-.99.118-.68.374-1.356.623-2 .202-.98.519-1.887.655-2.803.021-.705.44-1.416.35-2.062.284-.55.089-1.227.348-1.798.131-1.732.547-3.493.474-5.218.19-.62.131-1.192.174-1.837.157-.535-.1-1.08.103-1.578.026-.483-.087-1.274.091-1.579-.142-.4.168-.883-.023-1.319a.61.61 0 0 0-.019-.528c.177-.433.024-.858.034-1.315.122-.483.048-1.053.039-1.58a.7.7 0 0 0-.027-.527.55.55 0 0 0 .011-.527c.208-.599-.054-1.247.059-1.844.03-1.115-.048-2.049-.032-3.16.09-.396-.03-.673-.021-1.052-.029-.537.15-1.068-.039-1.582.188-.497.005-1.051-.01-1.578.057-.358.158-.726-.032-1.053.138-.893.098-2.008-.059-2.894a28 28 0 0 0-.061-2.632c.061-.853-.084-1.752-.014-2.633-.208-.309.056-.474-.138-.787.108-.416-.157-.927.064-1.318-.127-.411-.174-.915-.065-1.316-.091-.427-.237-.906-.049-1.315-.185-.299-.14-.707-.072-1.052-.031-.283-.146-.531-.016-.789-.188-.24-.02-.497-.089-.786-.014-.446-.143-.886-.022-1.316-.245-.861.041-1.776-.259-2.62.041-2.076-.325-4.076-.275-6.049-.279-.81-.115-1.764-.174-2.627-.19-.499-.029-1.188-.224-1.568.109-.201.077-.342-.037-.526.168-.739-.124-1.814-.155-2.617a.66.66 0 0 0 0-.525.97.97 0 0 0 .043-.523c-.01-.352.108-.742-.074-1.047.191-.265-.017-.482.025-.786.105-.195.064-.337-.015-.523.032-.358.079-.689.131-1.043.111-3.487.699-6.767 1.576-10.066.303-.428.209-1.022.441-1.507.19-.207.22-.476.25-.746a.8.8 0 0 0 .236-.472c.161-1.016 1.07-1.488 1.985-1.514.47.133 1.121.355 1.321.833.24.234.577.369.678.708.84.812 1.645 1.898 2.874 2.153 1.57.661 3.365.279 4.808-.448.904-.327 1.371-1.095 2.137-1.524 1.066-1.17 1.861-2.632 2.606-3.954.278-.828.64-1.632.922-2.471.234-.871.344-1.693.531-2.579.389-1.81.287-3.672.328-5.512a6.4 6.4 0 0 1-.105-1.315c-.069-.432-.24-.871-.175-1.308-.23-.493-.193-1.594-.363-1.807.03-.357-.194-.659-.248-1.021.098-.292-.15-.474-.185-.768-.131-.773-.368-1.52-.567-2.302-.467-1.423-1.007-2.81-1.521-4.212-.296-1.033-.921-1.962-.999-3.009-.423-1.004-.578-2.233-.947-3.302.042-.856-.484-1.791-.342-2.612-.271-.991-.227-2.363-.062-3.364.059-1.448.978-2.721 2.549-2.708.711.1 1.37.163 2.054.378.192.2.474.263.744.264a.66.66 0 0 0 .48.212c.611.365 1.231.626 1.82 1.042.457.212.767.737 1.278.917.411.428 1.521 1.11.885 1.789.007.212-.091.326-.283.392-.103.273-.392.319-.53.576-.405.267-.654.773-1.006 1.18a5.25 5.25 0 0 0-1.235 1.957c-.491.54-.608 1.484-.776 2.195-.062.719-.301 1.396.08 2.072 1.06 2.458 4.453 2.274 6.436 1.069-1.312 1.886-2.635 3.78-3.261 6.002-.481 1.454-.66 2.965-.021 4.357 1.068 1.422 3.282 1.399 4.722.466 1.525-1.143 2.555-2.809 3.013-4.673.518.894 1.257 1.849 2.386 1.907.56-.059 1.419.108 1.718-.464.376-.14.438-.526.489-.883.138-.203.043-.338-.073-.501-.425-1.566-.754.187-1.578.057-.415-.051-.868-.303-.898-.769-.161-.296-.359-.71-.088-.976.473-1.214 2.824-1.259 3.949-1.124.609-.089 1.23.112 1.822.027.506.084 1.063-.002 1.548.223 1.468.065 2.944.353 4.391.579.285-.055.545-.095.778.081.178-.068.338-.099.526-.014.517.038 1.101-.088 1.567.11.362-.028.686-.094 1.046-.117.195.101.327.113.523.003.671.089 1.397-.068 2.08-.202 2.849-.277 5.724-1.424 7.905-3.184.395-.47.888-.836 1.318-1.316.39-.762 1.111-1.231 1.951-1.233.651.162 1.46.407 1.773 1.054.03.397.36.591.557.901.224.57.536 1.138.965 1.578.291.773.82 1.357 1.323 1.975.689 1.361 1.913 2.328 2.74 3.567.593.657 1.365 1.112 1.854 1.842.433.281.889.601 1.165 1.041.479.375.996.68 1.422 1.14.476.233.775.691 1.267.911.559.341 1.302 1.026 1.734 1.172.626.516 1.354.743 2.01 1.239.19.012.344.1.464.247.284-.038.512.149.711.339.273-.028.511.134.732.295a.64.64 0 0 1 .49.186.53.53 0 0 1 .491.186c1.527.358 3.047.968 4.629.814 1.405.127 3.331-.011 4.633-.628.648.009 1.348-.42 1.959-.727.7-.327 1.424-.703 2.029-1.194.286-.241.689-.288.857-.603a.95.95 0 0 0 .629-.477c.261-.076.433-.303.6-.511.362-.141.489-.539.826-.66.26-.467.72-.769 1.073-1.162.388-.698 1.176-1.144 1.404-1.908.533-.428 1.204-1.535.447-2.082h.03zm-73.66 1.282c-.051.093-.258.296-.436.332-.1.261-.372.308-.578.478-.317-.012-.419.302-.735.151-1.27.413-.569-2-.445-2.615-.039-.46.177-.827.309-1.258.177-.781.457-1.491.635-2.256.255-.247.242-.642.359-.98.566-.782.587-1.823 1.028-2.675.14-.457-.095-.681-.466-.322-.658.244-1.272.561-1.986.666-4.124.481-4.441-1.717-2.367-4.728.238-.556.826-.941 1.183-1.427.414-.265.275-.4.855-.648.659-1.026 1.927-.257 2.182.756.348.515.634 1.002.847 1.598.095.256.325.427.325.704.449.629.719 1.886.949 2.68.526 1.922.269 3.275.114 5.216-.315.812-.345 1.733-.817 2.497-.015.497-.43.909-.65 1.308-.113.167-.164.373-.306.522Zm29.61-9.182c-.144.235-.383.417-.658.443-.216.269-.58.439-.912.537-.544.487-1.417.752-2.202.903-.468.258-1.051.192-1.534.421-.267.146-.521-.021-.788.123-1.542.174-2.973.335-4.503.156-1.731.073-2.976-.349-4.181-.368-2.36-.248-4.631-.566-7.007-.215-.183.036-.356.007-.526-.024-.257.016-.499.188-.758.183-.535.254-1.12.422-1.69.677-.25-.054-.577-.091-.622-.397-.262-.211-.062-.484-.084-.775-.28-.849-.377-1.929-.6-2.862-.583-1.615-.828-2.185-1.662-3.614-.308-.568-.63-1.045-.945-1.604a.65.65 0 0 1-.339-.709c-.246-1.241 1.387-1.239 2.144-1.588.356.006.717-.136 1.012-.316.441-.068.872-.078 1.303-.233.437-.129.853-.27 1.304-.209.493-.16 1.038-.363 1.559-.267 1.129-.206 2.274-.358 3.411-.383 1.257-.26 2.459-.152 3.684-.367a.64.64 0 0 0 .528-.023c.197.094.339.08.529-.022.247.116.53.093.793.005.442-.048.908.172 1.321-.07.198.113.338.094.528-.016.295.005.538.161.792-.017.265.009.522.136.795.097a3.8 3.8 0 0 1 1.588-.02c.265-.166.515.041.791-.102.245.158.517.066.792.009.565.143 1.236-.088 1.852.031.292-.093.528.117.792-.052.48.196 1.082.033 1.633.116.537-.012 1.049-.1 1.595.125.429-.163.753.307 1.154.45a.7.7 0 0 1 .368.339c.205.059.319.137.33.372.343.264.602.643.693 1.071.514.913.772 1.891.76 2.952a6.34 6.34 0 0 1-1.106 3.147.59.59 0 0 1-.328.403.57.57 0 0 1-.332.398c-.3.519-.775.938-1.273 1.286v.009Z" data-color="1"></path>
      <path fill="#0a0a0a" d="M37.103 180.146c-.266-.042-.459-.431-.205-.639.211-.076.397-.169.585-.289.68-.394 1.156-.947 1.767-1.423.404-.294.575-.628.922-.924.064-.319.334-.692.634-.83-.028-.355.325-.371.404-.676.126-.499.732-1.211.934-1.675.131-.592.61-1.068.707-1.689.158-.691.576-1.287.631-2.021.101-.653.538-1.256.453-1.917.351-1.398.599-2.805.672-4.26.009-.474.047-.988.206-1.436-.161-.267.002-.622-.045-.935.111-.445.036-.893.118-1.329.053-.311.092-.602-.033-.889.08-.191.117-.32.039-.522a.9.9 0 0 0-.006-.526c.072-1.096-.017-2.225-.025-3.304.019-1.698-.106-3.374-.205-5.073-.13-1.678-.18-3.372-.328-5.05-.111-.21-.064-.487.002-.698-.236-.595-.054-1.305-.18-1.916-.171-.161.07-.367-.035-.521-.11-.115-.063-.302-.047-.439-.062-.252-.135-.546-.024-.79-.202-.615.016-1.251-.25-1.824.144-.63-.2-1.319-.085-1.959-.015-.436-.296-1.599-.171-1.9.058-.18-.122-.407-.01-.605-.197-.395-.07-.877-.221-1.299.089-.362.05-.713-.106-1.048.015-.171.106-.452-.003-.627-.079-.303-.009-.629-.121-.947.04-.39-.039-.672-.108-1.048-.045-1.053-.205-2.079-.259-3.145-.177-.582.006-1.127-.212-1.692.04-.574-.1-1.12-.171-1.703.123-.686-.195-1.383-.202-2.095.126-.468-.094-.944-.112-1.396-.072-.691-.187-1.419-.275-2.145.048-.632-.174-1.206-.117-1.841.013-.241-.241-.389-.048-.638-.234-.777-.156-1.643-.325-2.45-.129-.336.069-.712-.093-1.044-.14-.332.024-.741-.083-1.089-.024-.299-.257-.617-.092-.907-.147-.16-.22-.498-.12-.7.054-.179-.135-.392-.137-.595.056-.316-.102-.635-.023-.958-.125-.433-.143-.922-.25-1.389-.079-.383.015-.786-.06-1.142-.175-.236.088-.537-.071-.777-.14-.194-.096-.485-.07-.707-.145-.244.007-.529-.042-.79-.12-1-.179-2-.153-3.007-.135-.875-.064-1.764-.084-2.64-.023-.145.028-.282.071-.408a.73.73 0 0 1 .013-.526c-.13-.306.002-.611.04-.895-.035-.231-.099-.495.08-.683-.058-.135-.156-.302-.028-.439.169-1.755.352-3.561.634-5.327.309-.619.21-1.405.54-2.042.073-.188.037-.349.025-.533.004-.133.159-.362.156-.507.194-.407.291-.832.33-1.278.2-.243.242-.461.222-.765.307-.254.19-.605.375-.902.104-.297-.008-.382.255-.745.142-.439.133-.705.417-1.109-.011-.51.429-.864.511-1.348.158-.759.63-1.446.968-2.15.062-.188.159-.348.332-.443.021-.309.301-.458.423-.728.521-.367.891-.858 1.383-1.255.279-.063.475-.219.709-.379.234-.034.293-.138.456-.281.318.004.512-.08.752-.281.636.07 1.211-.313 1.858-.249 1.286.019 2.398.479 3.601.866.187.179.188.222.469.251.473.447 1.172.582 1.662 1.026.311.15.491.505.848.616.31.14.354.486.769.581.386.671 1.604.672 2.049.002.529-.893.959-1.784 1.352-2.734.115-.382.403-.664.407-1.08.198-.23.279-.44.248-.741.365-.646.482-1.376.623-2.096-.023-.278.233-.498.24-.767-.002-.326.144-.603.08-.921.172-.657.203-.829.205-1.546.144-.258-.005-.538.191-.769-.159-.268.088-.502.008-.784a1.27 1.27 0 0 1 .03-.784c-.054-.332-.087-.717.004-1.043-.077-.163-.089-.372.024-.525-.172-.563-.179-1.225-.167-1.82-.015-.351-.151-.68-.084-1.04-.152-.379-.195-.801-.222-1.196.02-.308-.255-.573-.131-.889a.7.7 0 0 1-.129-.522c-.159-.492-.017-.781-.277-1.312.042-.731-.221-1.445-.27-2.131-.147-.247-.047-.534-.205-.78-.03-.131.118-.253 0-.357-.149-.183-.147-.498-.072-.707-.07-.111-.18-.275-.103-.419-.017-.548-.143-1.08-.236-1.629.031-.67-.118-1.285-.098-1.958-.088-.91-.063-1.847.029-2.726.185-.407-.062-.939.295-1.274-.164-.541.409-.991.518-1.507.551-.558 1.134-1.267 1.975-1.302a3 3 0 0 0 .774-.225c.139-.012.233.12.367.053.604-.093 1.129.199 1.752.15.232.201.445.259.752.258.331.19.693.333 1.056.416.484.042.873.498 1.368.598.591.467 1.322.651 1.856 1.161.708.388 1.235 1.07 1.937 1.452.634.051 1.3.126 1.899-.235.354-.409 1.003-.336 1.441-.682.446-.329 1.054-.259 1.48-.597.423-.026.765-.197 1.127-.388.548-.212 1.127-.253 1.689-.401.552-.206 1.124-.391 1.717-.412.143.038.209-.085.345-.114.13-.027.249.05.349-.054.3-.196.723-.062 1.05-.242.299-.148.647-.001.94-.193.294.064.513-.129.801-.041.543-.193 1.11-.193 1.677-.335.625.005.545.015 1.201-.162.332.117.585-.11.935-.084.673.083 1.295-.15 1.953-.252.356.153.698.009 1.055-.11.595.146 1.144-.124 1.731-.161.72-.074 1.464-.052 2.149-.208.297.107.538-.04.834-.141.252-.117.189-.548.102-.769-.203-.406-.661-.488-.942-.82-.434-.486-1.631-1.388-1.861-1.923l-.171-.203c-.074-.046-.189-.062-.253-.144-.345-.429-.55-.918-.825-1.392-.514-.771-.778-1.596-1.042-2.483.024-.455-.092-.89-.186-1.345.064-.467.011-.884-.014-1.358.08-.186.117-.335.061-.539a1.05 1.05 0 0 0 .059-.544c.105-.544.377-1.031.45-1.563.466-1.127 1.02-2.261 1.866-3.122.767-.901 1.721-1.603 2.709-2.259.247.002.39-.108.575-.274.336-.246.808-.217 1.098-.541.556-.091 1.06-.38 1.601-.532.246-.096.463.048.694-.107.253-.063.523-.088.775-.156.245-.056.435.255.094.368-1.117.438-2.183.854-3.196 1.487a5 5 0 0 0-.842.601c-.375.186-.669.541-1.013.745-.631.61-1.186 1.251-1.755 1.955-.201.278-.22.68-.5.922-.17.499-.345 1.066-.601 1.554-.092.893-.204 1.815-.217 2.717-.069.334.165.52.157.824-.042.282.19.511.164.784.069.255.271.554.248.856.215.195.2.478.36.709.604.77 1.111 1.574 1.874 2.196.518.436.949.871 1.475 1.289.206.11.473.166.536.428.127.034.329.043.386.204 1.172.779 2.368 1.746 3.788 1.995 1.327.402 2.737.055 4.082.295.458-.002.942-.185 1.383.007.119.095.209-.039.344-.034.144.007.245.105.387.079.774.044 1.53.044 2.281.202a.48.48 0 0 1 .528.056c.209-.102.466-.041.686.023.664.212 1.169-.01 1.822.295.425-.021.769.233 1.195.167.637.214 1.369.182 1.97.474.511.191 1.096.202 1.622.401.631.356 1.347.364 2.007.672.151.139.304.156.5.177.209.206.463.233.736.308.363.36.894.363 1.308.673.794.365 1.449 1.044 2.065 1.432.366.483.829.889 1.148 1.429.152.29.51.53.498.877.302.967.629 1.965.225 2.959.088.241-.118.413-.192.611-.03.414-.211.77-.47 1.106-.377.962-1.054 1.708-1.641 2.5-.091.205-.265.381-.434.517-.037.135-.058.31-.213.372-.133.058-.088.209-.167.316-.081.115-.24.099-.248.254-.104.341-.404.591-.564.88a1.6 1.6 0 0 1-.301.604c-.018.168-.05.398-.194.489.187.377.415.702.871.756.191.204.394.345.68.376 1.046.304 2.135.483 3.232.54 1.435.074 2.954.136 4.355-.01.457-.034.945.006 1.391-.027.196-.123.483-.056.693-.025a.62.62 0 0 1 .521-.067.5.5 0 0 1 .517-.012c.078-.026.154-.121.255-.123.358.088.695-.028 1.05-.1.4.037.803.071 1.191-.05.384-.13 1.447-.008 1.817.098.527-.152.634.207 1.082.227a4.7 4.7 0 0 1 1.516 1.202c.201.339.321.661.42 1.039.092.329-.552.474-.646.203-.015-.264-.851-1.054-1.069-1.092-.287.089-.498-.271-.769-.216-.241.025-.428-.065-.654.066-.142.022-.228-.132-.344-.017a69 69 0 0 1-2.187.528c-.202.228-.498.149-.731.316-.267-.054-.43.132-.682.132-1.796.502-3.514 1.01-5.402 1.303-.503.207-.468.026-.884.201-.381.133-.786-.077-1.146.098-.257.14-.554-.026-.842.064-.436.015-.933.232-1.36.096-.907-.044-1.821-.015-2.706-.235a28 28 0 0 0-2.011-.666c-.175-.252-.41-.289-.69-.407-.899-.795-1.443-.982-2.076-2.383-.088-.359-.472-1.096-.403-1.451.062-.135-.071-.213-.078-.35.11-.277.008-.512-.006-.803.109-.23.099-.296.051-.537.173-.362.17-.756.285-1.139.103-.635.471-1.121.691-1.712.44-.9.89-1.75 1.473-2.564.392-.267.394-.846.745-1.103-.095-.114.118-.214.152-.295.045-.369-.06-.834-.328-1.094-.41.093-.708-.604-1.132-.619-.553-.107-1.043-.574-1.613-.672-.135-.042-.14-.241-.295-.194-.225.079-.32-.193-.518-.194-.584-.241-1.245-.336-1.808-.541-.21-.162-.579.032-.77-.212-.177-.129-.364.05-.578-.183-.108.009-.331.107-.364-.065-.274.075-.528-.161-.798-.069-.354.171-.778.157-1.148.243-.116.28-.449.229-.658.396-.023.209-.194.304-.374.346-.217.639-.709.792-.73 1.579-.248.315.031.367-.124.661-.094.116.05.204.057.331-.053.281.006.592.187.82.29.373.264.902.498 1.303.354.756.647 1.576 1.079 2.271.177.599.512 1.139.838 1.666.264.601.542 1.197.909 1.736.348.2.324.654.551.924.426.521.821 1.065 1.127 1.652.394.231.591.658.822 1.028.578.449.886 1.19 1.476 1.671.315.183.419.549.704.739.422.257.683.75 1.069 1.036.232.173.393.472.643.596.186 0 .252.187.31.321.365.177.608.465.952.665.893.814 1.895 1.417 2.835 2.186.271.242.677.271.894.562.197-.027.355.066.496.203.159.179.207.206.464.244.272.223.599.355.899.547.666.334 1.243.663 1.972.833.856.491 1.864.68 2.816.923.452.144.937.157 1.395.179.261.148.488.02.78.044 1.038.135 2.082.005 3.092-.272 1.23-.147 2.343-.648 3.396-1.272.392-.297.884-.326 1.218-.71.073-.131.257-.15.379-.178.249-.29.628-.436.875-.735.812-.732 1.677-1.405 2.354-2.281.483-.498.973-1.009 1.379-1.589.024-.195.166-.363.328-.461.012-.142.034-.337.182-.42.195-.266.324-.549.589-.762.404-.032.818.047 1.234.026l-.256.128c.582.629-.004 1.582-.486 2.059-.31.703-.967 1.201-1.4 1.846-.157.348-.544.436-.727.748-.045.14-.19.223-.299.307-.069.174-.204.319-.394.356-.102.31-.438.41-.643.626-.248.313-.562.472-.827.76-1.604 1.063-3.043 2.014-4.932 2.718-.26-.035-.387.019-.614.155-.364.197-.802.121-1.183.28-.414-.032-.826.258-1.225.161-.339-.067-.683.114-1.03.054-.312.075-.58.004-.898-.045-.329.065-.71.004-1.057-.005-.94-.022-1.258-.292-1.916-.362-.552-.133-1.351-.315-1.837-.571-.08-.128-.219-.012-.344-.069-.175-.143-.272-.169-.492-.187-.327-.324-.673-.173-.942-.477-.186-.211-.486-.048-.641-.282-.131-.134-.405-.104-.565-.242-.306-.321-.741-.51-1.157-.635-.305-.4-.878-.486-1.211-.865-.09-.153-.394-.065-.447-.293-.494-.467-1.206-.693-1.649-1.227a4.2 4.2 0 0 1-.705-.56c-.361-.197-.585-.486-.933-.687-.396-.496-.891-.852-1.382-1.246-.457-.693-1.216-1.104-1.763-1.737-.803-1.205-2.082-2.244-2.746-3.576-.505-.612-1.039-1.211-1.326-1.98-.481-.458-.743-1.104-1.035-1.682-.277-.268-.453-.538-.544-.922-.543-.671-1.56-1.037-2.392-.76-.62.241-.891.799-1.302 1.272-.276.374-.741.552-.944.958-.505.381-.94.76-1.463 1.134-.5.219-.949.417-1.392.764-1.784.792-3.635 1.348-5.563 1.515-.402.158-1.487.246-1.826.17-.282.233-.572-.119-.875.033-.263.053-.638.132-.885.005-.185-.084-.394.037-.599-.045-.331.064-.715.016-1.045-.059a.41.41 0 0 1-.523-.05c-.697.081-1.392-.101-2.074-.189-.614-.187-1.302-.054-1.873-.289-.507-.059-.996-.041-1.478-.193-.194-.068-.504.075-.686-.043-.458-.046-.919.01-1.391-.076-.316-.073-.631.111-.94-.03-.957-.022-2.013-.05-2.864.405-.613.032-1.091.816-.877 1.31.146.286.157.596.427.8.18.176.807.31.984.059.337-.387.848-.987 1.082-.178.059.23.192.38.276.593-.139.397-.08.969-.515 1.177-.307.486-.896.498-1.428.521-1.202.18-2.283-.733-2.774-1.763-.538 1.902-1.592 3.554-3.228 4.685-1.504.751-3.576.786-4.64-.649-.218-.634-.424-1.248-.477-1.939-.011-.807.263-1.584.454-2.361.242-1.135.869-2.408 1.504-3.362.472-.837.93-1.719 1.574-2.465-1.443.693-3.211.991-4.698.234-.533-.134-1.235-.789-1.376-1.327-.451-.55-.402-1.282-.276-1.925.032-.858.365-1.645.622-2.459.04-.103.149-.124.209-.192.023-.124.042-.286.144-.387.132-.278.346-.495.417-.794.352-.434.732-.833 1.063-1.307.062-.125.197-.203.301-.276.034-.078.026-.195.101-.265.265-.121.36-.373.627-.482.057-.101.129-.283.276-.305.181-.056.046-.33.228-.417.276-.518-.358-1.061-.764-1.303-.214-.313-.576-.414-.86-.659-.44-.522-1.109-.735-1.649-1.107-.307-.199-.666-.384-1.028-.454a.61.61 0 0 0-.484-.188c-.518-.199-1.005-.505-1.58-.482-.511-.044-1.021-.221-1.536-.041-1.511.272-1.888 1.981-1.907 3.292-.003.617-.049 1.204-.02 1.809a.85.85 0 0 1 .06.515.5.5 0 0 1 .04.519c.322 1.289.395 2.606.846 3.855.144.624.257 1.218.506 1.773-.067.36.151.593.207.928.284.752.655 1.526.839 2.338.248.433.485.972.57 1.477.065.258.281.466.266.744.182.151.138.406.223.599.232.401.282.834.461 1.246.185.657.252 1.3.517 1.925-.081.407.295.662.191 1.042.14.438.21.862.381 1.267-.015.176-.044.362.01.536.135 1.052.472 2.071.383 3.141.268.444-.039.956.121 1.429.004.788-.024 1.606-.035 2.416-.025.256-.114.393-.017.645-.215 1.052-.411 2.078-.528 3.137-.189.238-.167.473-.207.768-.146.428-.226.855-.467 1.24-.22.552-.313 1.161-.657 1.637-.133.286-.122.513-.426.775-.39.732-.818 1.642-1.456 2.203-.053.329-.557.883-.883.981-.995 1.133-2.405 1.809-3.909 2.11-1.368.359-2.907-.068-4.103-.771-.602-.512-1.125-1.059-1.662-1.605-.141-.409-.608-.52-.785-.89-.091-.229-.34-.274-.531-.382-.213-.106-.403-.261-.646-.269-.695.062-1.548.295-1.768 1.079-.109.281-.114.637-.352.84.011.323-.147.586-.286.852-.149.783-.471 1.509-.554 2.166-.257.695-.337 1.447-.605 2.125.055.496-.186.724-.13 1.186-.253.651-.259 1.374-.313 2.067-.195.739-.243 1.46-.272 2.211-.028.936-.183 1.898-.197 2.806.155.184-.057.383-.02.578.003.225.159.442-.025.647.201.304.054.702.074 1.044a.9.9 0 0 1-.043.522.62.62 0 0 1 0 .525c0 .347.198.711.043 1.045.144.443.236 1.029.142 1.484-.065.23.229.298.006.609.196.247.022.936.224 1.567.058.871-.099 1.8.174 2.628.011.178-.012.37-.065.533.087.112.18.271.112.423-.086.774.04 1.537.138 2.296.049.904.085 1.857.091 2.8.232.449.054.955.163 1.417-.011.692.074.98.052 1.579-.018.454.145.919.058 1.375-.083.2.217.32.047.533.022.409.056.848.016 1.276-.042.211.235.354.067.564-.119.374.045.756.104 1.133-.102.43-.06.881.065 1.315-.046.19-.134.329-.081.53.007.115.021.401.065.525-.057.194-.027.338.054.523.006.108-.064.181-.076.27.027.075.111.162.112.259-.045 1.202.046 2.385.072 3.577-.09.58.103 1.118.003 1.688.214.739.066 1.591.13 2.367.095.202-.103.441-.033.611.212.381-.071.832.014 1.234.114 1.069.059 2.084.011 3.16.196.22.019.529.039.789-.035.348.004.704-.01 1.054a.51.51 0 0 1 .006.526c.135.193.039.46.017.674.079.502-.088 1.04.026 1.526.112.307-.091.639.016.96.005.134-.136.228-.05.353.102.126.017.321-.043.438.138.186.016.444.039.647.073.315-.056.625-.002.934.102.21-.054.436-.035.637-.039.389.136.738-.016 1.114-.088.136.069.215.056.36-.002.125-.111.233-.044.355.128.321-.052.75-.045 1.049.13.248-.149.437-.051.698.066.469-.016.976-.085 1.437.101.516-.025 1.05-.023 1.576-.075.414.074.808-.121 1.2-.033.518.036 1.048-.093 1.578-.131.517-.01 1.041-.173 1.563.033.986-.475 2.737-.415 3.645-.054.179-.13.334-.187.501a.47.47 0 0 1-.074.519c.005.645-.323 1.261-.355 1.876.108.254-.147.438-.091.708-.186.357-.206.744-.355 1.103-.123.927-.627 1.752-.758 2.674-.422.553-.306 1.363-.767 1.881-.141.093-.06.286-.13.434-.102.268-.205.565-.391.775a10 10 0 0 1-.479 1.045c-.469.547-.769 1.17-1.142 1.792-.529.776-1.132 1.454-1.762 2.14-1.007.998-2.136 1.869-3.413 2.471-.177.249-.567.179-.815.314-.16.024-.199.254-.379.247Zm10.88-106.442c-.37.359-.938.499-1.364.798-.319.409-.735.752-1.139 1.071-.119.284-.36.39-.404.703-.155.136-.272.23-.327.436-.352.735-.834 1.427-.969 2.227-.22.471-.452.872-.557 1.375-.154.247-.251.423-.267.719-.007.275-.291.458-.283.714.055.26-.21.425-.162.701-.047.184-.127.357-.268.475.038.193.003.348-.063.535-.295.423-.192 1.04-.486 1.499-.032.204-.1.325-.156.505.074.198.021.502-.097.683-.139.488-.24.982-.317 1.482.044.213-.212.433-.194.657-.001.791-.383 1.551-.257 2.352-.151.853-.287 1.754-.288 2.609-.004.091-.085.182-.108.257.024.089.105.16.095.266-.111.227-.149.37-.084.628.07.268-.195.496-.068.775.072.139 0 .296-.034.429a.68.68 0 0 1-.022.527c.052.601-.038 1.23.022 1.84.051.856.095 1.742.068 2.626.142.768.157 1.503.176 2.257-.083.324.184.556.134.882-.071.341.123.601.038 1.052.056.847.288 1.629.306 2.452.062.324 0 .623.178.931-.03.146-.105.373-.046.533.146.168.161.332.064.525.139.396.246.871.192 1.295.113.901.197 1.823.289 2.73.107.399.015.817.183 1.189.028.139-.148.234-.034.349.214.454-.034 1.011.213 1.482-.1 1.076.306 2.12.273 3.144.22.509.107 1.044.134 1.573.079.511.311 1.063.169 1.568.097.622.194 1.215.193 1.831.234.455.012.935.153 1.413.221 1.808.295 3.618.56 5.389.031.153.024.395-.031.534.065.109.146.246.125.39.059.654-.014 1.323.203 1.955a.76.76 0 0 0 .044.523c.014.15-.145.238-.062.38.08.584.142 1.134.214 1.722-.162.602.261 1.25.07 1.841.287.551.039 1.232.25 1.827-.138.356.072.695-.003 1.055.123.143.14.361.041.524.269.638-.018 1.437.248 2.088-.143.731.15 1.46.118 2.214-.011.582.053 1.123.118 1.704-.003.439-.028.868.055 1.31.171 2.288.279 4.53.249 6.813.147.967-.064 1.946.089 2.89.005.111-.083.174-.105.262.068.109.145.283.08.422-.114.82-.081 1.662-.212 2.467.159.191.032.467-.014.682-.088.379-.088.772-.105 1.159-.063.706-.092 1.397-.248 2.09-.061.256-.051.528-.071.789-.076.215-.225.372-.207.607-.019.326-.205.607-.105.945-.13.423-.237.855-.395 1.26-.177.989-.537 1.834-.852 2.771-.13.535-.543.917-.612 1.461-.442.57-.759 1.189-1.051 1.839-.052.097-.167.102-.231.165.016.184-.108.391-.307.426-.14.245-.337.412-.396.693-.227.114-.267.345-.447.51-.674.543-1.24 1.161-1.944 1.646-.234.376-1.222.372-.839.793.231-.315.637-.306.975-.409.285-.329.784-.398 1.138-.653.374-.145.59-.548.98-.688 1.711-1.308 2.945-2.984 4.022-4.827.496-.611.704-1.365 1.075-2.033.05-.236.035-.501.282-.626.02-.307.264-.534.291-.836.203-.853.577-1.683.809-2.547.322-.82.432-1.708.707-2.519.108-.114-.046-.232-.01-.367.081-.173.118-.319.12-.51.148-.474.2-.983.338-1.438.114-.107-.04-.223-.008-.357.046-.135.097-.278.149-.402.066-.19-.075-.421.06-.622.173-1.422.459-2.816.503-4.257.022-.57.27-1.153.108-1.726.009-.306.231-.572.136-.873-.027-.559.081-1.167.109-1.747-.119-.471.036-1 .048-1.48.065-.264-.163-.647.074-.889-.157-.33.107-.691.035-1.054a.7.7 0 0 1 .01-.527c-.147-.226-.023-.439.01-.675.021-.204-.135-.424-.033-.642-.089-.228.071-.42.042-.631-.112-.579.095-1.181-.06-1.738.086-.227.093-.299.011-.527.081-.359.09-.774.08-1.148-.143-.31-.01-.637-.023-.957.014-.344-.066-.718.05-1.055-.049-.14-.133-.295-.033-.439-.105-.627-.033-1.376-.018-2.011-.156-.462-.004-1.016.016-1.5-.118-.361-.061-.691-.021-1.054-.102-.627-.058-1.226-.024-1.841-.211-.288.066-.585-.045-.908.072-1.369-.207-2.645-.115-3.987-.005-.909-.161-1.825-.05-2.736-.086-.362.029-.718-.139-1.048.08-.235.062-.305-.026-.527.117-.389-.15-.86.028-1.237.072-.169-.096-.402-.08-.601.076-.243-.093-.482.021-.707.056-.405-.255-.904-.051-1.319.083-.154-.162-.297-.088-.484.084-.545-.105-1.064.033-1.438-.219-.243-.009-.506-.089-.786-.01-.435-.157-.89-.022-1.315a2 2 0 0 1-.061-1.052c-.162-.387 0-.767-.085-1.154-.187-.98-.187-2.073-.157-3.048-.175-.809-.266-1.685-.179-2.521.071-.153-.113-.211-.118-.363.007-.144.08-.262.063-.402-.224-.842-.132-1.764-.179-2.644-.035-.343-.097-.674-.136-1.023.012-.256.048-.428-.081-.654-.025-.138.157-.235.044-.349-.19-.212.07-.464-.027-.71-.188-1.522-.213-2.386-.138-3.926-.111-.165-.126-.36.003-.524a.95.95 0 0 1-.001-.785c-.189-1.078.226-2.281.141-3.405.217-1.553.306-3.169.728-4.668-.11-.516.24-1.021.313-1.542.188-.775.36-1.534.636-2.27.05-.68.667-2.111 1.026-3.027.328-.329.716-.752 1.23-.66.397-.29.921-.084 1.289.158.345.107.551.347.732.637.249.188.517.369.63.672.751.722 1.415 1.592 2.433 1.991 1.075.409 2.287.617 3.401.269.53-.179 1.081-.268 1.577-.521.735-.34 1.114-.787 1.454-.901.215-.497.833-.634 1.129-1.085.593-.814 1.266-1.687 1.698-2.63.115-.15.23-.262.323-.423.003-.133.005-.331.149-.409.306-.517.401-1.125.663-1.686.199-.297.217-.621.354-.948.128-.261-.012-.61.195-.83.17-.503.118-1.11.301-1.63.306-1.684.388-3.404.279-5.117.032-.223.058-.418.035-.638-.061-.111-.145-.278-.091-.416.015-1.096-.297-2.132-.441-3.222.035-.198.023-.34-.096-.514.028-.239-.079-.414-.147-.639-.063-.215-.138-.439-.076-.655a.8.8 0 0 1-.182-.38 2.7 2.7 0 0 0-.228-.873c.01-.196-.01-.343-.129-.509a9.2 9.2 0 0 0-.482-1.776c-.17-.38-.294-.758-.413-1.137-.068-.292-.298-.523-.282-.846-.268-.715-.617-1.367-.799-2.107-.18-.47-.337-.897-.557-1.339-.017-.283-.167-.49-.236-.76-.048-.132.075-.263-.04-.369-.49-1.567-.923-3.242-1.143-4.914-.061-.314-.263-.616-.097-.931a.67.67 0 0 1-.087-.519c-.167-.458-.08-.978-.073-1.454.071-.47-.109-.987.099-1.42.027-1.801 1.563-3.264 3.431-2.647a2.4 2.4 0 0 1 1.521.408c.217.108.507.008.674.207.258.104.546.204.81.354.493.261.968.553 1.463.841.405.263.708.694 1.19.883.467.421 1.56 1.195.913 1.902a.405.405 0 0 1-.311.431.63.63 0 0 1-.369.363.77.77 0 0 1-.389.342c-.03.14-.074.291-.222.353-.435.46-.784 1.022-1.216 1.462-.043.305-.3.524-.424.804-.117.159-.094.459-.331.543-.203.536-.321 1.079-.504 1.616-.11.535-.123 1.116-.219 1.654.188.827.631 1.6 1.337 2.082.664.234 1.374.53 2.073.547 1.252-.098 2.46-.386 3.532-1.112-.767 1.024-1.493 2.063-2.071 3.17-.391.478-.553 1.03-.873 1.556-.158.595-.562 1.102-.609 1.744-.183.758-.445 1.515-.453 2.295.064.688.25 1.328.502 1.946 1.179 1.36 3.332 1.2 4.75.223.715-.753 1.45-1.437 1.94-2.354.42-.744.634-1.58.881-2.395.485.976 1.243 2.023 2.425 2.096.544-.063 1.331.108 1.635-.438.457-.176.392-.686.533-1.066-.223-.231-.216-.626-.458-.844-.193.24-.472.413-.652.669-.343.162-.699.054-1.039-.04-.343-.237-.448-.582-.59-.942-.051-.233-.224-.549-.016-.748.218-.671.754-.808 1.313-1.052.956-.271 2.05-.323 3.043-.184.556-.16 1.124.139 1.687.01.435.105.915-.001 1.343.184.429.106.987-.054 1.379.223.868-.079 1.734.257 2.587.299a.9.9 0 0 1 .511.097c.251-.051.57-.116.777.081.304-.134.717-.027 1.042.025.327-.039.752-.109 1.042.071.425 0 .915-.243 1.307-.014.279-.186.581.032.884-.113.55.032 1.061-.157 1.605-.179.923-.119 1.856-.4 2.762-.581 1.355-.378 2.588-1.091 3.801-1.724a20.6 20.6 0 0 0 2.254-1.977c.725-1.059 1.509-1.758 2.848-1.298.421.149.942.462 1.181.848.099.208.109.508.314.651.428.315.394.926.778 1.277.132.231.266.465.468.642.197.407.351.805.658 1.146.556.658 1.028 1.416 1.523 2.157.346.259.641.645.832 1.027.398.34.798.733 1.039 1.198.585.649 1.366 1.105 1.849 1.836.657.304.987 1.004 1.608 1.316.14.246.377.333.599.497.231.219.463.396.72.573.448.546 1.218.754 1.684 1.272.133.167.388.091.5.352.349.248.83.379 1.083.729.391.1.879.317 1.149.631.187.154.489.086.63.295.286.156.398-.014.772.405.27-.049.519.144.728.293a.6.6 0 0 1 .489.186.47.47 0 0 1 .489.185c.448.076.95.245 1.393.4.439.035.87.179 1.291.309.299-.03.577.099.874.094.55.031 1.12.002 1.654.084a11 11 0 0 1 1.592-.08c.664-.201 1.375-.2 2.023-.422.123-.056.243-.135.371-.201.134-.05.264.095.372-.027 1.746-.583 3.305-1.69 4.785-2.633.27-.317.629-.485.882-.832.337-.118.444-.485.734-.62.153-.02.122-.181.225-.27a1 1 0 0 0 .346-.393c.211-.234.506-.336.651-.626.279-.405.583-.778.952-1.107.065-.197.286-.315.325-.513-.01-.122.085-.251.195-.295.391-.446.996-1.35.33-1.83a3.6 3.6 0 0 1-.638-.028c-.269.354-.594.677-.689 1.111-.336.304-.499.766-.813 1.124-.521.439-.85 1.009-1.371 1.438-.202.166-.267.539-.556.605-.169.087-.262.316-.46.398-.491.466-.968.917-1.509 1.313-.184.102-.303.328-.549.319-.235.191-.491.497-.801.546-.686.288-1.28.736-1.953 1.025-1.109.406-2.248.644-3.422.828-.675.044-1.344.062-2.029-.007a.56.56 0 0 1-.526-.044c-.282.075-.51-.103-.795-.056-1.047-.162-2.05-.499-3.062-.811-.269-.282-.645-.238-.955-.446-.261.023-.481-.227-.757-.243-.275-.231-.602-.365-.922-.52-.17-.192-.425-.184-.595-.362-.086-.131-.231-.043-.355-.116-.208-.233-.372-.382-.688-.403-.223-.269-.578-.31-.85-.534-.968-.772-1.985-1.396-2.896-2.227-.174-.123-.399-.188-.496-.4-.188-.116-.494-.199-.561-.439-.063-.17-.327-.1-.406-.3-.29-.328-.657-.573-.896-.918-.284-.179-.406-.492-.721-.62-.199-.258-.352-.501-.616-.695-.528-.472-.902-1.068-1.34-1.584-.271-.115-.32-.473-.498-.674-.175-.269-.481-.394-.627-.686-.212-.525-.625-.938-.955-1.403-.274-.325-.262-.791-.663-1.031-1.313-2.481-2.545-4.884-3.493-7.536.071-.294-.156-.54.032-.807-.085-.168-.088-.384.068-.523.064-.202.049-.416.121-.62.128-.302.371-.52.563-.79.028-.192.142-.368.36-.381.064-.282.374-.424.64-.46.118-.229.398-.305.643-.29.392.016.75-.318 1.142-.166.188.099.513-.039.62.148.226-.134.361.132.56.104.301-.06.425.264.784.198.156-.031.285.083.394.163a.66.66 0 0 1 .516.105 7.7 7.7 0 0 1 1.576.53c.174-.058.304.089.396.207.385.08.742.3 1.106.462.653.299.873.302 1.474.846.516-.112.832 1.164.493 1.482.034.024.041.064.046.104-.045.111-.179.136-.258.192-.095.278-.245.614-.443.838-.695.756-1.006 1.69-1.564 2.537-.143.546-.486.996-.644 1.523-.177.457-.142.995-.361 1.429.09.17.055.367-.049.52.152.671-.012.559.044.867.101.122.038.297.013.426.1.141.141.321.157.497.244.907.679 1.489 1.24 2.223.385.263.77.563 1.12.834.21.081.473.118.566.355.773.171 1.544.57 2.322.725 1.077.111 2.173.228 3.264.132.363-.137.799-.072 1.138-.104.282-.176.655-.079.964-.077.268-.025.51-.212.782-.125.601-.249 1.305-.266 1.943-.414.408-.067 1.254-.405 1.572-.385.436-.057.513-.221 1.12-.259.496-.308 1.148-.389 1.689-.505.139.042.205-.085.334-.119.228-.001.314-.066.487-.189.53-.029 1.015-.361 1.537-.348.256-.118.525-.083.768-.234.102-.016.186.052.273.063.077-.024.168-.102.266-.1.379.04.721.029 1.046.263.285-.118.449.167.645.316.297.254.617.473.728.874.441.168.139-.343.147-.581-.184-.192-.238-.475-.417-.673-.249-.185-.53-.349-.722-.601a1.34 1.34 0 0 0-.832-.334c-.23-.229-.448-.245-.759-.195-.311-.177-.643-.017-.957-.11-.447-.162-.851.081-1.3.09-.51-.013-.986.001-1.486.124-.226-.068-.315-.019-.517.073-.21-.058-.317-.083-.522.012-.209-.054-.326-.009-.52.067-.341-.116-.612.057-.936.051-1.772-.041-3.57.249-5.37-.009-1.057 0-2.179-.139-3.179-.48-.353-.049-.762-.132-.978-.439-.305-.047-.701-.26-.801-.572-.027-.141-.156-.202-.181-.351.007-.165.132-.165.174-.306.021-.239.378-1.056.584-1.182.208-.285.278-.694.592-.866.037-.13.074-.307.221-.368.142-.059.075-.213.16-.322.306-.211.402-.568.675-.802.607-.816 1.183-1.685 1.657-2.628.221-.283.068-.717.381-.963-.065-.521.315-1.001.15-1.527-.163-1.429-.598-2.224-1.539-3.322-.166-.146-.356-.28-.435-.489-.136-.039-.324-.089-.354-.262-.153-.196-.336-.117-.594-.458-.798-.635-1.758-1.003-2.633-1.413-.846-.367-1.695-.699-2.613-.91-.63-.393-1.396-.311-2.042-.617-.627-.207-1.332-.295-1.977-.419-.419.03-.783-.213-1.212-.189a1.45 1.45 0 0 0-1.054-.136c-.447-.056-.873-.303-1.318-.166-.105-.013-.171-.092-.254-.122-.079.009-.181.078-.275.066-.225-.095-.488.015-.698-.104-.417-.116-.867-.012-1.301-.076-.316.002-.607-.137-.904-.026-.377-.159-.783-.144-1.184-.058-.323.077-.641-.1-.955-.057-1.563-.017-3.168.042-4.634-.576-.973-.535-1.994-1.11-2.808-1.819-.243.009-.341-.163-.431-.327-.372-.085-.604-.386-.87-.615-.289-.033-.28-.34-.496-.425-.531-.435-.99-.923-1.489-1.39-.425-.703-.974-1.312-1.301-2.053-.037-.438-.255-.814-.355-1.272-.039-.424-.208-.729-.214-1.143.002-.976.102-1.936.233-2.9.352-.548.397-1.389.815-1.826.214-.655.726-1.226 1.187-1.74.459-.534.598-.571.997-1.032.281-.065.416-.304.631-.482.27-.108.443-.274.634-.485a24 24 0 0 1 3.506-1.717c-.358-.016-.693.279-1.033.152-.426.098-.815.304-1.232.429-.261.122-.522.098-.711.325-.424.154-.847.242-1.158.59-.368-.018-.534.279-.845.411-.389.262-.789.514-1.086.894-.647.318-1.158 1.225-1.643 1.661-.562.92-1.031 1.829-1.351 2.842-.017.392-.307.729-.276 1.127.056.142-.033.296-.067.427a.6.6 0 0 1-.061.53c.027.459.093.88.014 1.331.088.419.229.898.182 1.317.115.339.22.668.292 1.021.161.202.335.468.293.739.499.63.761 1.404 1.243 2.034.253.076.456.345.536.589.517.401.888.971 1.427 1.36.465.573 1.589.893 1.348 1.806.069.457-.862.705-1.161.568-.514.161-1.109.094-1.651.179-.759-.041-1.48.359-2.224.19-.32.111-.731.291-1.053.11-.697.134-1.381.331-2.098.256-.273.006-.52.238-.789.081-.346.044-.691.293-1.049.128-.491.078-.952.242-1.437.246-.315.146-.604.053-.908.19-.322-.063-.605.145-.942.098-.368.06-.76.261-1.152.215-.115.082-.25.189-.407.147-.45.118-.925.197-1.409.241a6.2 6.2 0 0 1-1.682.48c-.503.019-.89.321-1.341.487-.276.068-.528.062-.753.248-.327.164-.691.141-1.015.31-.267.15-.542.349-.847.415-.218.118-.518.139-.675.263-.341.407-.932.348-1.397.493-.238-.113-.362-.078-.619-.085-.67-.187-1.156-.778-1.704-1.21-.329-.197-.781-.603-1.014-.712-.525-.208-.997-.588-1.515-.832-.38-.063-.648-.429-1.01-.478-.574-.069-1.07-.447-1.655-.502-.308-.324-.792-.064-1.163-.297-.146-.122-.326.088-.494-.028-.178-.084-.362.106-.536-.02-.293-.002-.653.231-.985.196-.39.061-.764.36-1.085.557-.3.386-.668.654-.807 1.134-.209.295-.377.614-.299.966-.237.287-.23.641-.2 1.004-.179.576-.182 1.167-.147 1.785-.042.861.02 1.736.153 2.575-.067.347-.045.7.097 1.029.005.365.062.672.127 1.028-.048.22-.014.319.086.514-.023.205-.108.422.031.608.139.119.077.308.04.449.059.122.16.269.111.419-.011.214.157.41.073.637.141.18.159.425.189.65.048.68.141 1.326.315 1.982-.024.302.041.604.11.889.15.275.01.548.222.956-.039.502.166.968.208 1.461.081.837.076 1.708.199 2.547.147.242-.114.445.035.701-.107.533.024 1.021-.085 1.575.184.556-.084.624.042 1.056-.173.491-.218 1.022-.21 1.565.008.16-.098.413-.154.551a8 8 0 0 1-.098 1.006c-.18.737-.402 1.438-.533 2.193-.051.309-.225.555-.353.831.049.167-.004.367-.084.527-.158.166-.171.326-.216.544-.225.418-.383.848-.59 1.277-.326.945-.609 1.191-.972 1.989-.488 1.057-1.962 1.122-2.605.271-.291-.067-.41-.362-.607-.506-.535-.251-.915-.697-1.405-1.014-.383-.16-.859-.33-1.136-.639-.135-.008-.395-.06-.461-.248-1.001-.304-1.841-.661-2.887-.808-.83-.194-1.623.232-2.432.202-.166.179-.454.322-.706.269Zm26.179-8.402c-1.062-.034-.442-2.149-.304-2.802-.061-.324.084-.595.189-.866.1-.567.38-1.103.454-1.661.191-.393.177-.898.479-1.215.075-.325.099-.745.358-.978.325-.939.654-1.84.902-2.79-.188-.126-.221.069-.375.129-.531.198-1.022.442-1.575.585-1.2.226-2.539.306-3.588-.362-1.055-.868-.51-2.571.165-3.505.313-.817.876-1.567 1.557-2.144.079-.218.332-.279.433-.454.068-.26.407-.268.585-.423.178-.436.849-.585 1.29-.462.559.246.877.808 1.101 1.337.328.476.593.961.792 1.516.051.163.183.304.275.442.056.124.002.25.11.345.295.3.166.504.288.705.4.662.437 1.525.685 2.245.209.397.194 1.625.269 2.141-.127.667.015 1.219-.135 1.624-.169.459.099.991-.223 1.403-.135.592-.171 1.263-.468 1.793-.327.518-.315 1.253-.834 1.657l-.108.002.098.023a3 3 0 0 1-.298.578l.003.003-.123.155h-.003a.62.62 0 0 1-.379.257c-.148.298-.545.506-.87.537-.212.299-.46.061-.751.186Zm1.954-10.561c.713.108.015 1.115-.072 1.521-.168.628-.372 1.344-.72 1.909-.109.496-.285.92-.494 1.365-.127.718-.406 1.388-.584 2.101.025.148-.089.28-.168.38-.035.253.005.524-.094.773-.129.715-.365 1.551-.08 2.254.177.098.535-.057.74.046.204-.22.502-.194.769-.397.184-.036.171-.336.395-.336.261-.108.392-.466.521-.69.276-.473.66-.899.722-1.481.39-.644.522-1.375.647-2.116.305-.54.061-1.131.313-1.803-.146-.423.068-.875.036-1.309-.028-.566-.147-1.127-.153-1.69-.356-.813-.329-1.82-.844-2.56.026-.298-.108-.48-.283-.719-.138-.536-.541-1.011-.689-1.562-.537-.644-.966-2.442-2.124-1.775-.324.008-.312.363-.615.456-.217.081-.286.162-.39.363a4 4 0 0 0-.926.933c-.53.493-.791 1.111-1.103 1.756-.589.71-.95 2.381-.095 3.023.525.306.595.229.922.432.536-.09 1.117.14 1.647.022 1.142-.138 1.655-.362 2.723-.897Zm4.861 3.189c-.451-.038-.715-.325-.855-.731.009-.197.153-.432.024-.606-.228-.905-.335-1.954-.591-2.893-.327-.669-.421-1.451-.875-2.065-.007-.36-.418-.533-.413-.886-.045-.169-.268-.272-.447-.75-.265-.426-.494-.834-.762-1.261-.166-.227-.489-.416-.412-.766-.278-1.195.989-1.403 1.807-1.636.245-.226.65-.111.938-.24.519-.305 1.087-.274 1.652-.417.474-.144.955-.328 1.453-.256.272-.044.472-.244.763-.221 1.174-.123 2.346-.3 3.516-.388 1.186-.126 2.405-.312 3.598-.256.403-.26.907-.03 1.317-.176.384.175.431-.143.795.063.269.009.519-.1.791-.108.192.047.333.118.531.055.288.071.53-.21.795.001.229-.174.542-.108.791-.021.23-.176.539-.088.793-.009.599-.046.792-.13 1.427-.075.143-.07.297.004.425.051.13-.059.294-.149.437-.052.227.064.354-.161.621.055.407-.083 2.4-.139 2.82-.054.167.082.363-.175.536.007.543.061 1.159-.019 1.727.078.405-.223.913.006 1.338.095.393-.185.703.262 1.047.391.208.096.431.204.523.424.213.018.351.168.341.384.312.238.587.601.675.99.504 1.014.898 2.096.774 3.259-.012.635-.256 1.263-.444 1.893-.034.222-.26.343-.295.535.018.272-.305.351-.36.609-.042.179-.152.342-.33.406a.53.53 0 0 1-.335.402c-.288.51-.768.937-1.251 1.274v.049l-.056.005a.84.84 0 0 1-.648.431c-.208.273-.595.449-.92.542a.48.48 0 0 1-.469.261c-.18.203-.466.269-.708.381-.804.269-1.62.437-2.432.625-.416.221-.887.112-1.336.218-.707.094-1.399.186-2.106.21-.143.079-.303-.001-.431-.052-.339.039-.75.156-1.063-.013-.726-.032-1.422-.027-2.126-.058-1.32-.213-2.66-.342-3.982-.497-.571.058-1.161-.252-1.734-.084-.545-.19-1.134.001-1.71-.103-.981-.032-1.967.111-2.928.163-.262.095-.725.284-.977.304a9 9 0 0 1-1.256.513Zm-3.281-11.192c-.703.164-1.029.756-.829 1.439.032.194.179.215.301.341.056.133.183.342.271.463.291.431.564.904.781 1.399.317.135.186.472.408.688.711 1.178 1.246 2.778 1.454 4.163-.017.399.27.776.17 1.163.182.18.163.473.094.703-.071.168.189.326.215.498.389.234.671.043 1.024-.134.554-.173 1.035-.37 1.589-.544 1.463-.169 2.97-.156 4.432-.154.303.163.619-.057.941.077.513.09 1.02.055 1.515.173 1.074.052 2.106.232 3.155.359.871.187 1.782-.027 2.654.179.278.08.593-.024.885-.046.406.131.384.019.902.036 1.933-.214 3.848-.45 5.695-1.178.137-.026.209-.148.328-.221.144-.07.274.031.33-.113.216-.276.677-.287.918-.545.206-.274.573-.153.731-.535v-.004c.592-.373.979-.938 1.445-1.412.143-.041.093-.193.181-.294.263-.136.307-.374.436-.629.061-.117.237-.117.214-.267.039-.312.366-.511.384-.858.235-.659.36-1.305.397-1.992-.075-.363-.053-.737-.165-1.103-.026-.225-.225-.407-.126-.646-.348-.417-.431-1.03-.713-1.473-.17-.282-.51-.424-.513-.747-.184-.01-.317-.148-.393-.304-.366-.179-.712-.423-1.07-.606-.405.137-.858-.17-1.288-.14-.403.216-.93-.039-1.38.061-.272-.09-.565.082-.803-.109-.214.172-.42.005-.638.03-.818.021-1.583-.014-2.375.063-.151.065-.299-.016-.423-.081a.55.55 0 0 1-.528.004c-.501.213-1.141-.113-1.691.092-.343.136-.719-.138-1.032-.032-.314.186-.583-.169-.977.092-.137.012-.223-.164-.342-.058-.282.107-.695.126-.977.003-.267.011-.515.119-.789.108-.239-.084-.294-.076-.528.02-.228-.071-.303-.091-.527.001-.419-.149-.792.047-1.199.091-1.981-.029-3.936.364-5.9.508-.691.16-.999.017-1.811.355-.776-.096-1.485.379-2.245.398-.394-.033-.701.294-1.094.341-.547-.024-.962.39-1.493.378Z" data-color="2"></path>
      <path fill="#ffffff" d="M152.673 62.551c-1.107-.368-1.272-1.834-.888-2.773-.094-.465.277-.913.365-1.353.111-.666.203-1.348.086-2.003a1.14 1.14 0 0 1-.067-.659c-.213-.447-.227-.914-.416-1.377-.166-.67-.346-1.476-.707-2.042.045-.286-.029-.509-.185-.754.013-.287-.071-.515-.229-.748.08-.281-.04-.5-.116-.773.105-.365-.101-.653.037-1.053.223-.72.479-1.427 1.282-1.634.185-.222.407-.115.642-.148.412-.044.862.052 1.264.195.541.338 1.061.81 1.323 1.357.334.161.206.252.632.707.61.714 1.555 1.011 2.343 1.51.135.227.399.39.361.677.157.144.295.356.299.579.106.272.212.544.092.844.15.2.063.419.018.639-.014.39-.009 1.295-.25 1.613a.45.45 0 0 1-.14.5c.074.276-.126.502-.169.77a28 28 0 0 1-1.448 2.498c-.159.32-.455.53-.67.807-.088.25-.228.528-.503.605-.079.417-.548.581-.806.879-.416.315-.729.745-1.221.918-.232.286-.614.15-.922.227z" data-color="1"></path>
      <path fill="#0a0a0a" d="M158.651 54.581h.002z" data-color="2"></path>
      <path fill="#ffffff" d="M160.294 64.196c-.348-.086-.719.04-1.047-.155-.333.186-.594-.12-.889-.2-.422.022-.665-.177-1.006-.303-.432.039-.743-.319-1.155-.375-.313.1-.596-.091-.925-.063-.359.005-.716.138-1.076 0-.525.092-.973-.119-1.354-.481-.086-.205-.104-.415-.243-.6-.238-.438.132-1.008.187-1.483.564-.818 1.287-1.467 1.797-2.296.002-.232.096-.39.332-.45.136-.267.448-.266.681-.411.277-.217.85-.414 1.207-.42.221-.047.377-.318.617-.263.154.053.176-.128.295-.181.183-.113.434-.111.573-.273.519-.507 1.21-.771 1.834-1.137.692-.211.689-.142 1.306-.057.207.226.193.218.481.321.115.269.23.503.432.718.028.319.108.602.201.907.08.686-.146 1.303.088 2 .186.792.194.643.439 1.33-.112.416.186.412.083.813-.051 1.545-1.365 2.846-2.861 3.062l.002-.003Z" data-color="1"></path>
      <path fill="#ffffff" d="M150.801 64.325a.68.68 0 0 1-.472-.169c-.151-.026-.351-.051-.363-.249-.139-.318-.383-.523-.449-.874-.202-.285-.149-.607-.114-.929a.46.46 0 0 1 .032-.514c.074-.892.238-1.714.519-2.551-.048-.598.105-1.2.262-1.751.099-.399-.054-.846.167-1.208.142-.632.195-1.278.595-1.81.221-.542.461-1.022.852-1.442.732-.708 2.194-.81 2.865.051a.48.48 0 0 1 .377.381c.24.205.45.479.543.787.162.453.524.871.517 1.359.142.28.086.554.304.787-.107.287.173.468.069.735-.103.404.27.862-.06 1.22-.072.575-.106.984-.501 1.411-.023.259-.338.362-.516.496-.171.375-.648.473-.891.77-.982.61-1.695 1.591-2.388 2.552-.039.256-.3.327-.492.443-.259.19-.492.496-.857.504h.002Z" data-color="1"></path>
      <path fill="#ffffff" d="M159.13 66.313c-.434-.12-.912.049-1.323-.216-.41-.07-.824-.158-1.166-.364-.114-.147-.319.006-.474-.104-.338-.149-.674-.223-.985-.417-.432-.224-.955-.074-1.39-.325-.344.037-.704-.078-1.047-.125a1.2 1.2 0 0 1-.724-.025c-1.49-.099-1.239-1.712-.324-2.398.519-.416 1.087-1.136 1.844-1.128.519-.17 1.081.18 1.622.106.418.369 1.009.226 1.466.404.172.109.398-.044.601.067.323.124.626-.018.946.033.491.022.882.32 1.333.463a.49.49 0 0 1 .466.3c.153.195.448.251.528.496.107.336.547.415.477.804.426.628.261 1.493-.255 2.014-.49.278-1.034.39-1.593.413z" data-color="1"></path>
      <path fill="#0a0a0a" d="M159.199 66.515c-.361-.084-.728.003-1.094-.093-.369-.176-.809-.122-1.123-.364-.149.034-.422-.067-.489-.19-.551.022-1.105-.369-1.604-.552-.356-.068-.804-.031-1.137-.229-.883-.12-2.197.091-2.832-.676-.215.027-.491-.036-.63-.176-.38.032-.464-.398-.612-.639-.242-.215-.533-1.027-.43-1.341-.105-.738.039-.594.117-1.261-.039-.226.049-.534.139-.742a.57.57 0 0 1 .122-.511c-.032-.251.108-.509.18-.742a1.9 1.9 0 0 1 .023-.68c.063-.245.109-.409.086-.648.186-.367.194-.708.193-1.11-.047-.225.115-.427.163-.629.089-.282.028-.556.168-.821.157-.625.598-1.131.794-1.755-.017-.257-.188-.445-.193-.694-.295-.162-.125-.532-.242-.769-.169-.151-.122-.419-.171-.601-.074-.204-.297-.449-.155-.686-.079-.208-.237-.576-.095-.771-.252-.611.156-1.35.421-1.906.113-.418.627-.526.965-.711.119-.166.432-.227.608-.133.913-.188 2.067.319 2.511 1.172.16.049.331.239.343.42.159.036.328.246.345.42.322.266.561.602.897.864.538.172.975.514 1.462.784.156.015.343.207.408.361.135.104.301.35.255.508.188.147.306.464.31.7.188.199.164.551.096.781.181.214.02.545-.011.779.036.241.078.551-.067.766.034.239-.005.586-.157.769a.6.6 0 0 1 .028.189c.597-.168 1.08-.8 1.732-.761.176-.119.446-.099.618.012.198-.056.506.073.566.267.378-.006.428.437.585.679.291.175.198.576.306.852.107.242.167.577.094.828l-.089.059.097-.024c.096.313-.117.665-.036.97.132.225.084.499.223.732.02.203-.008.353.106.532.156.212.3.596.191.857.414 1.351-.615 2.986-1.895 3.46.332.656.06 1.508-.435 1.993-.511.3-1.069.426-1.654.457v.006Zm-.352-.272c.633.174 1.312-.063 1.882-.346.338-.342.587-.959.484-1.446-.055-.217-.158-.404-.238-.602.042-.203-.077-.354-.259-.438-.18-.178-.202-.481-.452-.581-.29-.116-.326-.508-.646-.52-.459-.072-.813-.422-1.282-.458-.262-.089-.505.007-.762-.004-.286-.014-.51-.135-.801-.087l-.011.01-.057-.021c-.464-.199-1.078-.05-1.517-.404-.321.026-.589-.102-.912-.103-.305-.055-.53-.116-.833-.021-.535.02-.995.457-1.358.811-.102.17-.389.118-.4.367-.743.413-1.136 1.906-.124 2.231.566.205 1.133.142 1.715.207.287.089.579.046.859.171.269.099.542.028.804.108l-.01.104.037-.093c.501.176.967.528 1.512.538a.1.1 0 0 0-.053.076l.092.013.056-.087.062.036-.003.016c.182.164.775.306 1.062.358.374.115.758.271 1.154.163Zm-9.152-6.061c.028.167-.128.4-.132.585-.014.354-.028.689-.177 1.015.166.495-.106.773.236 1.265.003.308.301.467.392.748.01.191.199.242.339.248.153.107.307.195.503.167-.304-.523.032-1.09.246-1.574.329-.29.569-.662.799-.687.259-.31.65-.637 1.026-.793.277-.16.563-.123.859-.213.173-.006.226.08.346.085.212-.08.336-.12.434-.336.281-.185.65-.347.807-.657.198-.153.533-.255.522-.561.034-.087.183-.132.233-.231.212-.314.163-.732.25-1.081.123-.176.175-.339.127-.551-.034-.191-.085-.362-.093-.548a.51.51 0 0 0-.073-.548c.027-.144.08-.335-.076-.435a.15.15 0 0 1-.073-.152c-.059-.553-.259-1.079-.528-1.573-.18-.575-.493-.772-.75-1.246-.09-.096-.27-.07-.313-.203-.253-.341-.769-.449-1.167-.499-.232-.123-.444.004-.674.039-.238-.039-.308.194-.52.238-.371.068-.479.492-.779.677-.269.729-.778 1.36-.916 2.127.015.368-.197.678-.236 1.024-.003.405.015.835-.194 1.187.057.394-.196.809-.116 1.213.022.305-.222.56-.174.874-.055.112-.184.251-.127.394Zm11.477 3.644q.014.027.03.053a2.74 2.74 0 0 0 1.244-.94l.104.019-.087-.049c.407-.647.842-1.497.511-2.259.133-.357-.076-.675-.232-.979-.089-.487-.181-.832-.293-1.303-.046-.274.143-.556.051-.834-.055-.18.107-.347-.009-.541-.159-.329-.075-.763-.309-1.032-.243-.201-.177-.69-.577-.653-.146-.3-.315-.235-.587-.293-.627-.162-1.274.276-1.785.621a2.5 2.5 0 0 0-1.022.706c-.196.074-.47.122-.603.298l-.092-.031h-.002l.078.052-.078-.05-.009.005v.101c-.334-.1-.524.325-.86.268-.093.384.274.895-.07 1.228-.095.439-.039 1.064-.48 1.335-.01.303-.356.504-.578.628-.173.404-.746.498-.962.885.154-.001.308.124.451.084.225-.085.414.141.612.199.343.157.814.004 1.116.212l.113.011c.407-.048.75.163 1.192.038.566.017 1.061.321 1.56.507.295-.055.461.281.647.453.167.136.414.244.456.475.125.269.571.42.471.786Zm-4.469-7.044c.256-.014.47-.372.75-.272.126-.185.471-.293.656-.344.138-.213.411-.304.48-.554-.083-.354.232-.581.129-.981.137-.259.096-.534.071-.794.012-.206.173-.445.045-.625h-.045c0-.053-.006-.125.018-.177l.082.006v-.008l-.07-.033c.053-.217.036-.448-.108-.627-.018-.228-.086-.496-.275-.627l-.042-.03c.035-.211-.06-.357-.21-.482-.124-.303-.476-.349-.71-.525-.916-.549-1.441-.655-2.104-1.591-.017-.162-.151-.23-.284-.289-.073-.066-.054-.213-.119-.281-.476-.367-.671-.921-1.401-1.154-.482-.18-.982-.108-1.476-.151-.322.219-.686.336-.999.558-.274.581-.79 1.361-.497 2.003-.134.257-.014.525.083.778-.119.291.063.395.144.65.018.313.154.577.256.869-.059.16-.039.358.14.44.021.209.124.403.188.603.266-.2.456-.65.846-.662.113-.155.379-.259.57-.233a.71.71 0 0 1 .644-.035c.451.053 1.074.202 1.325.618.197.026.378.225.407.423.384.261.51.754.713 1.138.266.491.428 1.012.495 1.546.145.1.227.371.145.549a.6.6 0 0 1 .131.297h.027Z" data-color="2"></path>
  </g>
</svg>